G04 #@! TF.GenerationSoftware,KiCad,Pcbnew,(5.1.5)-3*
G04 #@! TF.CreationDate,2020-05-05T09:55:45+02:00*
G04 #@! TF.ProjectId,fr4,6672342e-6b69-4636-9164-5f7063625858,rev?*
G04 #@! TF.SameCoordinates,Original*
G04 #@! TF.FileFunction,Legend,Bot*
G04 #@! TF.FilePolarity,Positive*
%FSLAX46Y46*%
G04 Gerber Fmt 4.6, Leading zero omitted, Abs format (unit mm)*
G04 Created by KiCad (PCBNEW (5.1.5)-3) date 2020-05-05 09:55:45*
%MOMM*%
%LPD*%
G04 APERTURE LIST*
%ADD10C,1.000000*%
G04 APERTURE END LIST*
D10*
X202660029Y-77187887D02*
X196032648Y-79584108D01*
X226954604Y-88933563D02*
X227848738Y-89317323D01*
X226014543Y-88489747D02*
X226954604Y-88933563D01*
X177155588Y-106127378D02*
X179037385Y-104935071D01*
X168343099Y-118908424D02*
X168154089Y-117940811D01*
X225040245Y-88062370D02*
X226014543Y-88489747D01*
X224025145Y-87723174D02*
X225040245Y-88062370D01*
X169840379Y-121405442D02*
X169177379Y-120660647D01*
X221973528Y-87603891D02*
X222999015Y-87560821D01*
X220958817Y-87763679D02*
X221973528Y-87603891D01*
X171702328Y-122532891D02*
X170679103Y-122036149D01*
X147456439Y-120399805D02*
X147904777Y-120026214D01*
X214825674Y-72108566D02*
X213895734Y-72913393D01*
X183329393Y-102208550D02*
X187774967Y-99735932D01*
X168911384Y-113447597D02*
X169655409Y-112108366D01*
X170590937Y-110941276D02*
X171665973Y-109918325D01*
X175269026Y-107313693D02*
X177155588Y-106127378D01*
X211517104Y-90653889D02*
X214282599Y-89656889D01*
X196032648Y-79584108D02*
X189558724Y-82226026D01*
X173422955Y-108555548D02*
X175269026Y-107313693D01*
X159792803Y-98907508D02*
X154329374Y-102935027D01*
X211870670Y-74275167D02*
X210720198Y-74751392D01*
X222999015Y-87560821D02*
X224025145Y-87723174D01*
X219961259Y-87965217D02*
X220958817Y-87763679D01*
X217078813Y-88727733D02*
X219961259Y-87965217D01*
X214282599Y-89656889D02*
X217078813Y-88727733D01*
X169177379Y-120660647D02*
X168681241Y-119821672D01*
X187774967Y-99735932D02*
X192384840Y-97577599D01*
X206735536Y-92321675D02*
X211517104Y-90653889D01*
X201917759Y-93966769D02*
X206735536Y-92321675D01*
X197116587Y-95686348D02*
X201917759Y-93966769D01*
X192384840Y-97577599D02*
X197116587Y-95686348D01*
X179037385Y-104935071D02*
X183329393Y-102208550D01*
X171665973Y-109918325D02*
X173422955Y-108555548D01*
X165404262Y-95116989D02*
X159792803Y-98907508D01*
X171163744Y-91563471D02*
X165404262Y-95116989D01*
X168393210Y-114910876D02*
X168911384Y-113447597D01*
X171483581Y-123857942D02*
X172036289Y-123450160D01*
X177071254Y-88246954D02*
X171163744Y-91563471D01*
X212919957Y-73649047D02*
X211870670Y-74275167D01*
X217797653Y-69551341D02*
X216772393Y-70355907D01*
X168154089Y-117940811D02*
X168130807Y-116431010D01*
X168681241Y-119821672D02*
X168343099Y-118908424D01*
X170780056Y-124376966D02*
X171483581Y-123857942D01*
X170679103Y-122036149D02*
X169840379Y-121405442D01*
X146885823Y-120875284D02*
X147456439Y-120399805D01*
X183238259Y-85113642D02*
X177071254Y-88246954D01*
X210720198Y-74751392D02*
X209440867Y-75037364D01*
X213895734Y-72913393D02*
X212919957Y-73649047D01*
X215792740Y-71224366D02*
X214825674Y-72108566D01*
X209440800Y-75037389D02*
X202660029Y-77187887D01*
X216772393Y-70355907D02*
X215792740Y-71224366D01*
X169655409Y-112108366D02*
X170590937Y-110941276D01*
X168130807Y-116431010D02*
X168393210Y-114910876D01*
X228685252Y-89564539D02*
X229273458Y-89614114D01*
X227848738Y-89317323D02*
X228685252Y-89564539D01*
X189558724Y-82226026D02*
X183238259Y-85113642D01*
X240172678Y-78748005D02*
X274273426Y-70674286D01*
X291105894Y-57510856D02*
G75*
G03X291105894Y-57510856I-1935987J0D01*
G01*
X260001504Y-65444396D02*
G75*
G03X260001504Y-65444396I-1980175J0D01*
G01*
X39118000Y-138854824D02*
X17484855Y-156226486D01*
X154329374Y-102935027D02*
X147904777Y-120026214D01*
X218901534Y-68858819D02*
X217797653Y-69551341D01*
X235256068Y-72808131D02*
G75*
G03X235256068Y-72808131I-2050430J0D01*
G01*
X220117056Y-68326492D02*
X218901534Y-68858819D01*
X221477130Y-68002552D02*
X220117056Y-68326492D01*
X253012507Y-59677530D02*
X221477232Y-68002514D01*
X293148186Y-49082142D02*
X253012507Y-59677530D01*
X223993947Y-68569010D02*
X291880565Y-50656253D01*
X288088049Y-67177446D02*
G75*
G03X288088049Y-67177446I-2006809J0D01*
G01*
X221339395Y-69114272D02*
X227825806Y-86935538D01*
X83592952Y-157995351D02*
X77220207Y-158959819D01*
X126802242Y-145313459D02*
X119596081Y-148122641D01*
X39117981Y-138854830D02*
X40665782Y-140570421D01*
X55976529Y-147339912D02*
X59127620Y-147696838D01*
X27504195Y-156382212D02*
X21663365Y-154705632D01*
X139658067Y-142550643D02*
X146656632Y-139133483D01*
X65465250Y-147825657D02*
X70258660Y-147507241D01*
X44310032Y-143385633D02*
X46334559Y-144490212D01*
X134184232Y-127824023D02*
X137448276Y-126250458D01*
X119289473Y-134320266D02*
X124257355Y-132253825D01*
X64382103Y-160089410D02*
X57938062Y-160220622D01*
X75025298Y-146910954D02*
X79759496Y-146095237D01*
X104160177Y-139938930D02*
X109252093Y-138199912D01*
X33424403Y-157752461D02*
X27504195Y-156382212D01*
X112298434Y-150684766D02*
X104918120Y-152998026D01*
X89924095Y-156787613D02*
X83592952Y-157995351D01*
X52861266Y-146748549D02*
X55976529Y-147339912D01*
X140677412Y-124605805D02*
X143846059Y-122848260D01*
X48450977Y-145407937D02*
X50633093Y-146154879D01*
X137448276Y-126250458D02*
X140677412Y-124605805D01*
X130894179Y-129342841D02*
X134184232Y-127824023D01*
X89134707Y-143996471D02*
X93786924Y-142798270D01*
X62294494Y-147849367D02*
X65465250Y-147825657D01*
X79759496Y-146095237D02*
X84461193Y-145108785D01*
X40665782Y-140570421D02*
X42408655Y-142080539D01*
X51495360Y-160041882D02*
X45436302Y-159577406D01*
X70813354Y-159663599D02*
X64382103Y-160089410D01*
X148989043Y-134695785D02*
X141733362Y-138522331D01*
X127584245Y-130817662D02*
X130894179Y-129342841D01*
X42408655Y-142080539D02*
X44310032Y-143385633D01*
X146656632Y-139133483D02*
X153518333Y-135449333D01*
X134332701Y-142060468D02*
X126802242Y-145313459D01*
X124257355Y-132253825D02*
X127584245Y-130817662D01*
X141733362Y-138522331D02*
X134332701Y-142060468D01*
X77220207Y-158959819D02*
X70813354Y-159663599D01*
X57938062Y-160220622D02*
X51495360Y-160041882D01*
X93786924Y-142798270D02*
X98990143Y-141428398D01*
X169719800Y-121463936D02*
X162999811Y-126167771D01*
X59127620Y-147696838D02*
X62294494Y-147849367D01*
X50633093Y-146154879D02*
X52861266Y-146748549D01*
X156083559Y-130578187D02*
X148989043Y-134695785D01*
X162999811Y-126167771D02*
X156083559Y-130578187D01*
X114288960Y-136306129D02*
X119289473Y-134320266D01*
X98990143Y-141428398D02*
X104160177Y-139938930D01*
X39407343Y-158816412D02*
X33424403Y-157752461D01*
X109252093Y-138199912D02*
X114288960Y-136306129D01*
X70258660Y-147507241D02*
X75025298Y-146910954D01*
X119596081Y-148122641D02*
X112298434Y-150684766D01*
X45436302Y-159577406D02*
X39407343Y-158816412D01*
X84461193Y-145108785D02*
X89134707Y-143996471D01*
X104918120Y-152998026D02*
X97458584Y-155041341D01*
X143846059Y-122848260D02*
X146885825Y-120875284D01*
X97458584Y-155041341D02*
X89924095Y-156787613D01*
X46334559Y-144490212D02*
X48450977Y-145407937D01*
X170780136Y-124376938D02*
G75*
G02X153518314Y-135449340I-102230405J140384963D01*
G01*
X278810536Y-72815285D02*
X279702839Y-73998262D01*
X295415191Y-54611476D02*
X294930826Y-52763424D01*
X295135979Y-61947675D02*
X295495772Y-60131053D01*
X285689239Y-79463018D02*
X286279628Y-78574259D01*
X235099885Y-81290571D02*
X236266078Y-80423807D01*
X294316781Y-64608437D02*
X295135979Y-61947675D01*
X277716386Y-71747990D02*
X278810536Y-72815285D01*
X290466236Y-72189853D02*
X291912325Y-69744297D01*
X286829336Y-77656014D02*
X287434261Y-76762356D01*
X280657668Y-76129385D02*
X280878113Y-77235841D01*
X286279628Y-78574259D02*
X286829336Y-77656014D01*
X281234417Y-79445896D02*
X281491600Y-80313502D01*
X280878113Y-77235841D02*
X281056311Y-78452372D01*
X231527638Y-87509109D02*
X232164190Y-86052691D01*
X284962269Y-80268210D02*
X285689239Y-79463018D01*
X281781694Y-80845588D02*
X282175687Y-81196255D01*
X282702758Y-81320906D02*
X283340123Y-81213594D01*
X232717635Y-84667983D02*
X233313566Y-83418690D01*
X232164190Y-86052691D02*
X232717635Y-84667983D01*
X276805238Y-71117446D02*
X277716386Y-71747990D01*
X281491600Y-80313502D02*
X281781694Y-80845588D01*
X231161688Y-88180983D02*
X231527638Y-87509109D01*
X230310955Y-89219049D02*
X230757692Y-88763830D01*
X234097301Y-82292559D02*
X235099885Y-81290571D01*
X284011009Y-80931947D02*
X284962269Y-80268210D01*
X274555327Y-70611440D02*
X275201338Y-70585562D01*
X275201338Y-70585562D02*
X275849160Y-70705811D01*
X229273458Y-89614114D02*
X229816799Y-89508167D01*
X294182283Y-50918794D02*
X293148309Y-49082098D01*
X294930826Y-52763424D02*
X294182283Y-50918794D01*
X295656633Y-56458440D02*
X295415191Y-54611476D01*
X295676407Y-58299803D02*
X295656633Y-56458440D01*
X288950351Y-74534129D02*
X290466236Y-72189853D01*
X287434102Y-76762414D02*
X288950351Y-74534129D01*
X236266078Y-80423807D02*
X237538517Y-79703576D01*
X282175687Y-81196255D02*
X282702758Y-81320906D01*
X230757692Y-88763830D02*
X231161688Y-88180983D01*
X295495772Y-60131053D02*
X295676407Y-58299803D01*
X293219035Y-67212235D02*
X294316781Y-64608437D01*
X229816799Y-89508167D02*
X230310955Y-89219049D01*
X291912325Y-69744297D02*
X293219035Y-67212235D01*
X280336571Y-75177629D02*
X280657668Y-76129385D01*
X283340123Y-81213594D02*
X284011009Y-80931947D01*
X279702839Y-73998262D02*
X280336571Y-75177629D01*
X275849160Y-70705811D02*
X276805238Y-71117446D01*
X233313566Y-83418690D02*
X234097301Y-82292559D01*
X238859838Y-79141202D02*
X240172678Y-78748005D01*
X237538517Y-79703576D02*
X238859838Y-79141202D01*
X281056311Y-78452372D02*
X281234417Y-79445896D01*
X273919729Y-70803022D02*
X274555327Y-70611440D01*
X110637634Y-153827829D02*
X118019234Y-151343702D01*
X132541432Y-145714837D02*
X139658067Y-142550643D01*
X172106578Y-122843085D02*
X171955031Y-122669628D01*
X61149740Y-162847881D02*
X68119003Y-162496486D01*
X21663363Y-154705632D02*
X20813748Y-154360542D01*
X118019234Y-151343702D02*
X125323600Y-148640800D01*
X42153335Y-161973839D02*
X48468418Y-162577976D01*
X103179555Y-156071930D02*
X110637634Y-153827829D01*
X95646496Y-158049471D02*
X103179555Y-156071930D01*
X88836207Y-159571637D02*
X95646496Y-158049471D01*
X23524839Y-158169538D02*
X29662180Y-159774854D01*
X20813748Y-154360542D02*
X20146193Y-154089401D01*
X172153288Y-123116909D02*
X172106578Y-122843085D01*
X81973076Y-160835354D02*
X88836207Y-159571637D01*
X75064223Y-161817986D02*
X81973076Y-160835354D01*
X68119003Y-162496486D02*
X75064223Y-161817986D01*
X54805792Y-162864877D02*
X61149740Y-162847881D01*
X48468418Y-162577976D02*
X54805792Y-162864877D01*
X29662180Y-159774854D02*
X35878183Y-161041875D01*
X172036199Y-123450192D02*
X172153288Y-123116909D01*
X35878183Y-161041875D02*
X42153335Y-161973839D01*
X171955031Y-122669628D02*
X171702418Y-122532857D01*
X17484855Y-156226486D02*
X23524839Y-158169538D01*
X125323600Y-148640800D02*
X132541432Y-145714837D01*
M02*
