<?xml version="1.0" standalone="no"?>
 <!DOCTYPE svg PUBLIC "-//W3C//DTD SVG 1.1//EN" 
 "http://www.w3.org/Graphics/SVG/1.1/DTD/svg11.dtd"> 
<svg xmlns="http://www.w3.org/2000/svg" version="1.1" 
    width="41.9989cm" height="29.7002cm" viewBox="0 0 165350 116930 ">
<title>SVG Picture created as kopesh-B_Fab.svg date 2020/03/28 09:11:16 </title>
  <desc>Picture generated by PCBNEW </desc>
<g style="fill:#000000; fill-opacity:1;stroke:#000000; stroke-opacity:1;
stroke-linecap:round; stroke-linejoin:round; "
 transform="translate(0 0) scale(1 1)">
</g>
<g style="fill:#000000; fill-opacity:0.0; 
stroke:#000000; stroke-width:-0.000393701; stroke-opacity:1; 
stroke-linecap:round; stroke-linejoin:round;">
</g>
<g style="fill:#000000; fill-opacity:0.0; 
stroke:#000000; stroke-width:39.3701; stroke-opacity:1; 
stroke-linecap:round; stroke-linejoin:round;">
<path d="M35463 54448
L34675 54448
" />
<path d="M34675 54448
L34675 52873
" />
<path d="M34675 52873
L35463 52873
" />
<path d="M35463 52873
L35463 54448
" />
<path d="M35069 55160
L35069 54448
" />
<path d="M35069 52160
L35069 52873
" />
<path d="M35463 54211
L34675 54211
" />
<path d="M146822 39370
L146062 39574
" />
<path d="M146062 39574
L145654 38053
" />
<path d="M145654 38053
L146415 37849
" />
<path d="M146415 37849
L146822 39370
" />
<path d="M146627 40160
L146442 39472
" />
<path d="M145850 37262
L146035 37951
" />
<path d="M146761 39142
L146001 39346
" />
<path d="M144872 31970
L144112 32174
" />
<path d="M144112 32174
L143704 30653
" />
<path d="M143704 30653
L144465 30449
" />
<path d="M144465 30449
L144872 31970
" />
<path d="M144677 32760
L144492 32072
" />
<path d="M143900 29862
L144085 30551
" />
<path d="M144811 31742
L144051 31946
" />
<path d="M142972 24770
L142212 24974
" />
<path d="M142212 24974
L141804 23453
" />
<path d="M141804 23453
L142565 23249
" />
<path d="M142565 23249
L142972 24770
" />
<path d="M142777 25560
L142592 24872
" />
<path d="M142000 22662
L142185 23351
" />
<path d="M142911 24542
L142151 24746
" />
<path d="M92711 63696
L92029 64090
" />
<path d="M92029 64090
L91242 62726
" />
<path d="M91242 62726
L91924 62332
" />
<path d="M91924 62332
L92711 63696
" />
<path d="M92727 64510
L92370 63893
" />
<path d="M91227 61912
L91583 62529
" />
<path d="M92593 63492
L91911 63885
" />
<path d="M88911 57146
L88229 57540
" />
<path d="M88229 57540
L87442 56176
" />
<path d="M87442 56176
L88124 55782
" />
<path d="M88124 55782
L88911 57146
" />
<path d="M88927 57960
L88570 57343
" />
<path d="M87427 55362
L87783 55979
" />
<path d="M88793 56942
L88111 57335
" />
<path d="M85261 50846
L84579 51240
" />
<path d="M84579 51240
L83792 49876
" />
<path d="M83792 49876
L84474 49482
" />
<path d="M84474 49482
L85261 50846
" />
<path d="M85277 51660
L84920 51043
" />
<path d="M83777 49062
L84133 49679
" />
<path d="M85143 50642
L84461 51035
" />
<path d="M140322 41120
L139562 41324
" />
<path d="M139562 41324
L139154 39803
" />
<path d="M139154 39803
L139915 39599
" />
<path d="M139915 39599
L140322 41120
" />
<path d="M140127 41910
L139942 41222
" />
<path d="M139350 39012
L139535 39701
" />
<path d="M140261 40892
L139501 41096
" />
<path d="M138322 33770
L137562 33974
" />
<path d="M137562 33974
L137154 32453
" />
<path d="M137154 32453
L137915 32249
" />
<path d="M137915 32249
L138322 33770
" />
<path d="M138127 34560
L137942 33872
" />
<path d="M137350 31662
L137535 32351
" />
<path d="M138261 33542
L137501 33746
" />
<path d="M136372 26520
L135612 26724
" />
<path d="M135612 26724
L135204 25203
" />
<path d="M135204 25203
L135965 24999
" />
<path d="M135965 24999
L136372 26520
" />
<path d="M136177 27310
L135992 26622
" />
<path d="M135400 24412
L135585 25101
" />
<path d="M136311 26292
L135551 26496
" />
<path d="M80420 69398
L79633 69398
" />
<path d="M79633 69398
L79633 67823
" />
<path d="M79633 67823
L80420 67823
" />
<path d="M80420 67823
L80420 69398
" />
<path d="M80027 70110
L80027 69398
" />
<path d="M80027 67110
L80027 67823
" />
<path d="M80420 69161
L79633 69161
" />
<path d="M80420 61998
L79633 61998
" />
<path d="M79633 61998
L79633 60423
" />
<path d="M79633 60423
L80420 60423
" />
<path d="M80420 60423
L80420 61998
" />
<path d="M80027 62710
L80027 61998
" />
<path d="M80027 59710
L80027 60423
" />
<path d="M80420 61761
L79633 61761
" />
<path d="M133072 43020
L132312 43224
" />
<path d="M132312 43224
L131904 41703
" />
<path d="M131904 41703
L132665 41499
" />
<path d="M132665 41499
L133072 43020
" />
<path d="M132877 43810
L132692 43122
" />
<path d="M132100 40912
L132285 41601
" />
<path d="M133011 42792
L132251 42996
" />
<path d="M131122 35720
L130362 35924
" />
<path d="M130362 35924
L129954 34403
" />
<path d="M129954 34403
L130715 34199
" />
<path d="M130715 34199
L131122 35720
" />
<path d="M130927 36510
L130742 35822
" />
<path d="M130150 33612
L130335 34301
" />
<path d="M131061 35492
L130301 35696
" />
<path d="M129172 28470
L128412 28674
" />
<path d="M128412 28674
L128004 27153
" />
<path d="M128004 27153
L128765 26949
" />
<path d="M128765 26949
L129172 28470
" />
<path d="M128977 29260
L128792 28572
" />
<path d="M128200 26362
L128385 27051
" />
<path d="M129111 28242
L128351 28446
" />
<path d="M72920 69398
L72133 69398
" />
<path d="M72133 69398
L72133 67823
" />
<path d="M72133 67823
L72920 67823
" />
<path d="M72920 67823
L72920 69398
" />
<path d="M72527 70110
L72527 69398
" />
<path d="M72527 67110
L72527 67823
" />
<path d="M72920 69161
L72133 69161
" />
<path d="M72902 61998
L72114 61998
" />
<path d="M72114 61998
L72114 60423
" />
<path d="M72114 60423
L72902 60423
" />
<path d="M72902 60423
L72902 61998
" />
<path d="M72508 62710
L72508 61998
" />
<path d="M72508 59710
L72508 60423
" />
<path d="M72902 61761
L72114 61761
" />
<path d="M72920 54448
L72133 54448
" />
<path d="M72133 54448
L72133 52873
" />
<path d="M72133 52873
L72920 52873
" />
<path d="M72920 52873
L72920 54448
" />
<path d="M72527 55160
L72527 54448
" />
<path d="M72527 52160
L72527 52873
" />
<path d="M72920 54211
L72133 54211
" />
<path d="M125111 44996
L124429 45390
" />
<path d="M124429 45390
L123642 44026
" />
<path d="M123642 44026
L124324 43632
" />
<path d="M124324 43632
L125111 44996
" />
<path d="M125127 45810
L124770 45193
" />
<path d="M123627 43212
L123983 43829
" />
<path d="M124993 44792
L124311 45185
" />
<path d="M121561 38796
L120879 39190
" />
<path d="M120879 39190
L120092 37826
" />
<path d="M120092 37826
L120774 37432
" />
<path d="M120774 37432
L121561 38796
" />
<path d="M121577 39610
L121220 38993
" />
<path d="M120077 37012
L120433 37629
" />
<path d="M121443 38592
L120761 38985
" />
<path d="M117811 32396
L117129 32790
" />
<path d="M117129 32790
L116342 31426
" />
<path d="M116342 31426
L117024 31032
" />
<path d="M117024 31032
L117811 32396
" />
<path d="M117827 33210
L117470 32593
" />
<path d="M116327 30612
L116683 31229
" />
<path d="M117693 32192
L117011 32585
" />
<path d="M65470 69398
L64683 69398
" />
<path d="M64683 69398
L64683 67823
" />
<path d="M64683 67823
L65470 67823
" />
<path d="M65470 67823
L65470 69398
" />
<path d="M65077 70110
L65077 69398
" />
<path d="M65077 67110
L65077 67823
" />
<path d="M65470 69161
L64683 69161
" />
<path d="M65470 61948
L64683 61948
" />
<path d="M64683 61948
L64683 60373
" />
<path d="M64683 60373
L65470 60373
" />
<path d="M65470 60373
L65470 61948
" />
<path d="M65077 62660
L65077 61948
" />
<path d="M65077 59660
L65077 60373
" />
<path d="M65470 61711
L64683 61711
" />
<path d="M65470 54448
L64683 54448
" />
<path d="M64683 54448
L64683 52873
" />
<path d="M64683 52873
L65470 52873
" />
<path d="M65470 52873
L65470 54448
" />
<path d="M65077 55160
L65077 54448
" />
<path d="M65077 52160
L65077 52873
" />
<path d="M65470 54211
L64683 54211
" />
<path d="M118611 48746
L117929 49140
" />
<path d="M117929 49140
L117142 47776
" />
<path d="M117142 47776
L117824 47382
" />
<path d="M117824 47382
L118611 48746
" />
<path d="M118627 49560
L118270 48943
" />
<path d="M117127 46962
L117483 47579
" />
<path d="M118493 48542
L117811 48935
" />
<path d="M115011 42496
L114329 42890
" />
<path d="M114329 42890
L113542 41526
" />
<path d="M113542 41526
L114224 41132
" />
<path d="M114224 41132
L115011 42496
" />
<path d="M115027 43310
L114670 42693
" />
<path d="M113527 40712
L113883 41329
" />
<path d="M114893 42292
L114211 42685
" />
<path d="M111261 36046
L110579 36440
" />
<path d="M110579 36440
L109792 35076
" />
<path d="M109792 35076
L110474 34682
" />
<path d="M110474 34682
L111261 36046
" />
<path d="M111277 36860
L110920 36243
" />
<path d="M109777 34262
L110133 34879
" />
<path d="M111143 35842
L110461 36235
" />
<path d="M57970 69398
L57183 69398
" />
<path d="M57183 69398
L57183 67823
" />
<path d="M57183 67823
L57970 67823
" />
<path d="M57970 67823
L57970 69398
" />
<path d="M57577 70110
L57577 69398
" />
<path d="M57577 67110
L57577 67823
" />
<path d="M57970 69161
L57183 69161
" />
<path d="M57970 61898
L57183 61898
" />
<path d="M57183 61898
L57183 60323
" />
<path d="M57183 60323
L57970 60323
" />
<path d="M57970 60323
L57970 61898
" />
<path d="M57577 62610
L57577 61898
" />
<path d="M57577 59610
L57577 60323
" />
<path d="M57970 61661
L57183 61661
" />
<path d="M57970 54448
L57183 54448
" />
<path d="M57183 54448
L57183 52873
" />
<path d="M57183 52873
L57970 52873
" />
<path d="M57970 52873
L57970 54448
" />
<path d="M57577 55160
L57577 54448
" />
<path d="M57577 52160
L57577 52873
" />
<path d="M57970 54211
L57183 54211
" />
<path d="M112161 52496
L111479 52890
" />
<path d="M111479 52890
L110692 51526
" />
<path d="M110692 51526
L111374 51132
" />
<path d="M111374 51132
L112161 52496
" />
<path d="M112177 53310
L111820 52693
" />
<path d="M110677 50712
L111033 51329
" />
<path d="M112043 52292
L111361 52685
" />
<path d="M108511 46196
L107829 46590
" />
<path d="M107829 46590
L107042 45226
" />
<path d="M107042 45226
L107724 44832
" />
<path d="M107724 44832
L108511 46196
" />
<path d="M108527 47010
L108170 46393
" />
<path d="M107027 44412
L107383 45029
" />
<path d="M108393 45992
L107711 46385
" />
<path d="M104761 39696
L104079 40090
" />
<path d="M104079 40090
L103292 38726
" />
<path d="M103292 38726
L103974 38332
" />
<path d="M103974 38332
L104761 39696
" />
<path d="M104777 40510
L104420 39893
" />
<path d="M103277 37912
L103633 38529
" />
<path d="M104643 39492
L103961 39885
" />
<path d="M50520 69398
L49733 69398
" />
<path d="M49733 69398
L49733 67823
" />
<path d="M49733 67823
L50520 67823
" />
<path d="M50520 67823
L50520 69398
" />
<path d="M50127 70110
L50127 69398
" />
<path d="M50127 67110
L50127 67823
" />
<path d="M50520 69161
L49733 69161
" />
<path d="M50520 61848
L49733 61848
" />
<path d="M49733 61848
L49733 60273
" />
<path d="M49733 60273
L50520 60273
" />
<path d="M50520 60273
L50520 61848
" />
<path d="M50127 62560
L50127 61848
" />
<path d="M50127 59560
L50127 60273
" />
<path d="M50520 61611
L49733 61611
" />
<path d="M50520 54448
L49733 54448
" />
<path d="M49733 54448
L49733 52873
" />
<path d="M49733 52873
L50520 52873
" />
<path d="M50520 52873
L50520 54448
" />
<path d="M50127 55160
L50127 54448
" />
<path d="M50127 52160
L50127 52873
" />
<path d="M50520 54211
L49733 54211
" />
<path d="M105661 56246
L104979 56640
" />
<path d="M104979 56640
L104192 55276
" />
<path d="M104192 55276
L104874 54882
" />
<path d="M104874 54882
L105661 56246
" />
<path d="M105677 57060
L105320 56443
" />
<path d="M104177 54462
L104533 55079
" />
<path d="M105543 56042
L104861 56435
" />
<path d="M102011 49846
L101329 50240
" />
<path d="M101329 50240
L100542 48876
" />
<path d="M100542 48876
L101224 48482
" />
<path d="M101224 48482
L102011 49846
" />
<path d="M102027 50660
L101670 50043
" />
<path d="M100527 48062
L100883 48679
" />
<path d="M101893 49642
L101211 50035
" />
<path d="M98211 43396
L97529 43790
" />
<path d="M97529 43790
L96742 42426
" />
<path d="M96742 42426
L97424 42032
" />
<path d="M97424 42032
L98211 43396
" />
<path d="M98227 44210
L97870 43593
" />
<path d="M96727 41612
L97083 42229
" />
<path d="M98093 43192
L97411 43585
" />
<path d="M43020 69398
L42233 69398
" />
<path d="M42233 69398
L42233 67823
" />
<path d="M42233 67823
L43020 67823
" />
<path d="M43020 67823
L43020 69398
" />
<path d="M42627 70110
L42627 69398
" />
<path d="M42627 67110
L42627 67823
" />
<path d="M43020 69161
L42233 69161
" />
<path d="M43020 61848
L42233 61848
" />
<path d="M42233 61848
L42233 60273
" />
<path d="M42233 60273
L43020 60273
" />
<path d="M43020 60273
L43020 61848
" />
<path d="M42627 62560
L42627 61848
" />
<path d="M42627 59560
L42627 60273
" />
<path d="M43020 61611
L42233 61611
" />
<path d="M43020 54448
L42233 54448
" />
<path d="M42233 54448
L42233 52873
" />
<path d="M42233 52873
L43020 52873
" />
<path d="M43020 52873
L43020 54448
" />
<path d="M42627 55160
L42627 54448
" />
<path d="M42627 52160
L42627 52873
" />
<path d="M43020 54211
L42233 54211
" />
<path d="M99211 59996
L98529 60390
" />
<path d="M98529 60390
L97742 59026
" />
<path d="M97742 59026
L98424 58632
" />
<path d="M98424 58632
L99211 59996
" />
<path d="M99227 60810
L98870 60193
" />
<path d="M97727 58212
L98083 58829
" />
<path d="M99093 59792
L98411 60185
" />
<path d="M95461 53496
L94779 53890
" />
<path d="M94779 53890
L93992 52526
" />
<path d="M93992 52526
L94674 52132
" />
<path d="M94674 52132
L95461 53496
" />
<path d="M95477 54310
L95120 53693
" />
<path d="M93977 51712
L94333 52329
" />
<path d="M95343 53292
L94661 53685
" />
<path d="M91711 47046
L91029 47440
" />
<path d="M91029 47440
L90242 46076
" />
<path d="M90242 46076
L90924 45682
" />
<path d="M90924 45682
L91711 47046
" />
<path d="M91727 47860
L91370 47243
" />
<path d="M90227 45262
L90583 45879
" />
<path d="M91593 46842
L90911 47235
" />
<path d="M35570 69448
L34783 69448
" />
<path d="M34783 69448
L34783 67873
" />
<path d="M34783 67873
L35570 67873
" />
<path d="M35570 67873
L35570 69448
" />
<path d="M35177 70160
L35177 69448
" />
<path d="M35177 67160
L35177 67873
" />
<path d="M35570 69211
L34783 69211
" />
<path d="M35570 61898
L34783 61898
" />
<path d="M34783 61898
L34783 60323
" />
<path d="M34783 60323
L35570 60323
" />
<path d="M35570 60323
L35570 61898
" />
<path d="M35177 62610
L35177 61898
" />
<path d="M35177 59610
L35177 60323
" />
<path d="M35570 61661
L34783 61661
" />
<g >
</g>
<g >
</g>
<g >
</g>
<g >
</g>
<g >
</g>
<g >
</g>
<g >
</g>
<g >
</g>
<g >
</g>
<g >
</g>
<g >
</g>
<g >
</g>
<g >
</g>
<g >
</g>
<g >
</g>
<g >
</g>
<g >
</g>
<g >
</g>
<g >
</g>
<g >
</g>
<g >
</g>
<g >
</g>
<g >
</g>
<g >
</g>
<g >
</g>
<g >
</g>
<g >
</g>
<g >
</g>
<g >
</g>
<g >
</g>
<g >
</g>
<g >
</g>
<g >
</g>
<g >
</g>
<g >
</g>
<g >
</g>
<g >
</g>
<g >
</g>
<g >
</g>
<g >
</g>
<g >
</g>
<g >
</g>
<g >
</g>
<g >
</g>
<g >
</g>
<g >
</g>
<g >
</g>
<g >
</g>
<g >
</g>
<g >
</g>
<g >
</g>
<g >
</g>
<g >
</g>
<g >
</g>
<g >
</g>
<g >
</g>
<g >
</g>
<g >
</g>
<g >
</g>
<g >
</g>
<g >
</g>
<g >
</g>
<g >
</g>
<g >
</g>
<g >
</g>
<g >
</g>
<g >
</g>
<g >
</g>
<g >
</g>
<g >
</g>
<g >
</g>
<g >
</g>
<g >
</g>
<g >
</g>
<g >
</g>
<g >
</g>
<g >
</g>
<g >
</g>
<g >
</g>
<g >
</g>
<g >
</g>
<g >
</g>
<g >
</g>
<g >
</g>
<g >
</g>
<g >
</g>
<g >
</g>
<g >
</g>
<g >
</g>
<g >
</g>
<g >
</g>
<g >
</g>
<g >
</g>
<g >
</g>
<g >
</g>
<g >
</g>
<g >
</g>
<g >
</g>
<g >
</g>
<g >
</g>
<g >
</g>
<g >
</g>
<g >
</g>
</g> 
</svg>
