M48
; DRILL file {KiCad (5.1.5)-3} date 19/04/2020 10:52:39
; FORMAT={-:-/ absolute / inch / decimal}
; #@! TF.CreationDate,2020-04-19T10:52:39+02:00
; #@! TF.GenerationSoftware,Kicad,Pcbnew,(5.1.5)-3
; #@! TF.FileFunction,NonPlated,1,2,NPTH
FMAT,2
INCH
T1C0.0689
T2C0.1570
%
G90
G05
T1
X7.0927Y-5.7688
X7.4391Y-5.5688
X2.8285Y-6.5601
X3.2285Y-6.5601
X10.3313Y-3.8991
X10.6777Y-3.6991
X13.0821Y-3.7178
X13.4685Y-3.6143
X11.6388Y-4.1052
X12.0252Y-4.0017
X13.2765Y-4.4416
X13.6629Y-4.3381
X3.5769Y-6.5621
X3.9769Y-6.5621
X5.071Y-7.3093
X5.471Y-7.3093
X9.1383Y-6.3176
X9.4847Y-6.1176
X11.4439Y-3.3824
X11.8303Y-3.2788
X3.5765Y-5.8117
X3.9765Y-5.8117
X8.3891Y-5.0215
X8.7355Y-4.8215
X6.5671Y-6.5601
X6.9671Y-6.5601
X5.071Y-6.5605
X5.471Y-6.5605
X4.3234Y-7.3089
X4.7234Y-7.3089
X10.7064Y-4.5459
X11.0529Y-4.3459
X11.8317Y-4.8276
X12.2181Y-4.7241
X7.7411Y-5.3959
X8.0875Y-5.1959
X12.5546Y-4.6347
X12.9409Y-4.5312
X2.8285Y-5.8121
X3.2285Y-5.8121
X5.8186Y-5.8129
X6.2186Y-5.8129
X3.5773Y-7.3097
X3.9773Y-7.3097
X2.0797Y-5.8125
X2.4797Y-5.8125
X8.7627Y-5.6692
X9.1092Y-5.4692
X7.8403Y-7.0652
X8.1867Y-6.8652
X8.1155Y-6.0432
X8.4619Y-5.8432
X2.8285Y-7.3097
X3.2285Y-7.3097
X5.819Y-6.5609
X6.219Y-6.5609
X5.0706Y-5.8117
X5.4706Y-5.8117
X9.7848Y-5.944
X10.1312Y-5.744
X9.0364Y-4.6471
X9.3828Y-4.4471
X9.4104Y-5.2956
X9.7568Y-5.0956
X8.4887Y-6.6912
X8.8351Y-6.4912
X7.4675Y-6.4172
X7.8139Y-6.2172
X5.819Y-7.3078
X6.219Y-7.3078
X6.5667Y-7.3082
X6.9667Y-7.3082
X2.0793Y-7.3093
X2.4793Y-7.3093
X10.0588Y-4.9215
X10.4052Y-4.7215
X12.3601Y-3.9115
X12.7465Y-3.808
X9.6848Y-4.2727
X10.0312Y-4.0727
X12.1668Y-3.1883
X12.5532Y-3.0847
X4.3226Y-5.8125
X4.7226Y-5.8125
X4.3234Y-6.5605
X4.7234Y-6.5605
X2.0797Y-6.5613
X2.4797Y-6.5613
X11.0805Y-5.1948
X11.4269Y-4.9948
X12.8892Y-2.9954
X13.2756Y-2.8918
X10.4332Y-5.5692
X10.7796Y-5.3692
T2
X4.5234Y-6.5605
X2.2797Y-6.5613
X11.2537Y-5.0948
X13.0824Y-2.9436
X10.6064Y-5.4692
X7.2659Y-5.6688
X3.0285Y-6.5601
X10.5045Y-3.7991
X13.2753Y-3.666
X11.832Y-4.0534
X13.4697Y-4.3899
X3.7769Y-6.5621
X5.271Y-7.3093
X9.3115Y-6.2176
X11.6371Y-3.3306
X3.7765Y-5.8117
X8.5623Y-4.9215
X6.7671Y-6.5601
X5.271Y-6.5605
X4.5234Y-7.3089
X10.8797Y-4.4459
X12.0249Y-4.7759
X7.9143Y-5.2959
X12.7478Y-4.583
X3.0285Y-5.8121
X6.0186Y-5.8129
X3.7773Y-7.3097
X2.2797Y-5.8125
X8.936Y-5.5692
X8.0135Y-6.9652
X8.2887Y-5.9432
X3.0285Y-7.3097
X6.019Y-6.5609
X5.2706Y-5.8117
X9.958Y-5.844
X9.2096Y-4.5471
X9.5836Y-5.1956
X8.6619Y-6.5912
X7.6407Y-6.3172
X6.019Y-7.3078
X6.7667Y-7.3082
X2.2793Y-7.3093
X10.232Y-4.8215
X12.5533Y-3.8597
X9.858Y-4.1727
X12.36Y-3.1365
X4.5226Y-5.8125
T0
M30
