<?xml version="1.0" standalone="no"?>
 <!DOCTYPE svg PUBLIC "-//W3C//DTD SVG 1.1//EN" 
 "http://www.w3.org/Graphics/SVG/1.1/DTD/svg11.dtd"> 
<svg xmlns="http://www.w3.org/2000/svg" version="1.1" 
    width="41.9989cm" height="29.7002cm" viewBox="0 0 165350 116930 ">
<title>SVG Picture created as kopesh-F_SilkS.svg date 2020/03/28 09:11:16 </title>
  <desc>Picture generated by PCBNEW </desc>
<g style="fill:#000000; fill-opacity:1;stroke:#000000; stroke-opacity:1;
stroke-linecap:round; stroke-linejoin:round; "
 transform="translate(0 0) scale(1 1)">
</g>
<g style="fill:#000000; fill-opacity:0.0; 
stroke:#000000; stroke-width:-0.000393701; stroke-opacity:1; 
stroke-linecap:round; stroke-linejoin:round;">
</g>
<g style="fill:#000000; fill-opacity:0.0; 
stroke:#000000; stroke-width:59.0551; stroke-opacity:1; 
stroke-linecap:round; stroke-linejoin:round;">
<circle cx="54573.5" cy="70185.1" r="78.7402" /> 
<circle cx="110134" cy="54977.1" r="78.7402" /> 
<circle cx="137479" cy="42578.1" r="78.7402" /> 
<circle cx="122741" cy="47275.2" r="78.7402" /> 
<circle cx="97015.9" cy="62125.2" r="78.7402" /> 
<circle cx="84054.3" cy="69478.1" r="78.7402" /> 
<circle cx="69676.8" cy="70230.4" r="78.7402" /> 
<path d="M27117 63354
L20117 63354
" />
<path d="M27117 51354
L27117 63354
" />
<path d="M25117 51354
L27117 51354
" />
<path d="M25117 50354
L25117 51354
" />
<path d="M22117 50354
L25117 50354
" />
<path d="M22117 51354
L22117 50354
" />
<path d="M20117 51354
L22117 51354
" />
<path d="M20117 51354
L20117 63354
" />
<g >
</g>
<g >
</g>
<g >
</g>
<g >
</g>
<g >
</g>
<g >
</g>
<g >
</g>
<g >
</g>
<g >
</g>
<g >
</g>
<g >
</g>
<g >
</g>
<g >
</g>
<g >
</g>
<g >
</g>
<g >
</g>
<g >
</g>
<g >
</g>
<g >
</g>
<g >
</g>
<g >
</g>
<g >
</g>
<g >
</g>
<g >
</g>
<g >
</g>
<g >
</g>
<g >
</g>
<g >
</g>
<g >
</g>
<g >
</g>
<g >
</g>
<g >
</g>
<g >
</g>
<g >
</g>
<g >
</g>
<g >
</g>
<g >
</g>
<g >
</g>
<g >
</g>
<g >
</g>
<g >
</g>
<g >
</g>
<g >
</g>
<g >
</g>
<g >
</g>
<g >
</g>
<g >
</g>
<g >
</g>
<g >
</g>
<g >
</g>
<g >
</g>
<g >
</g>
<g >
</g>
<g >
</g>
<g >
</g>
<g >
</g>
<g style="fill:#000000; fill-opacity:0.0; 
stroke:#000000; stroke-width:59.0551; stroke-opacity:1; 
stroke-linecap:round; stroke-linejoin:round;">
</g>
<g style="fill:#000000; fill-opacity:0.0; 
stroke:#000000; stroke-width:39.3701; stroke-opacity:1; 
stroke-linecap:round; stroke-linejoin:round;">
<circle cx="26617" cy="51854.7" r="295.276" /> 
<circle cx="26617" cy="52854.7" r="295.276" /> 
<circle cx="26617" cy="53854.7" r="295.276" /> 
<circle cx="26617" cy="54854.7" r="295.276" /> 
<circle cx="26617" cy="55854.7" r="295.276" /> 
<circle cx="26617" cy="56854.7" r="295.276" /> 
<circle cx="26617" cy="57854.7" r="295.276" /> 
<circle cx="26617" cy="58854.7" r="295.276" /> 
<circle cx="26617" cy="59854.7" r="295.276" /> 
<circle cx="26617" cy="60854.7" r="295.276" /> 
<circle cx="26617" cy="61854.7" r="295.276" /> 
<circle cx="26617" cy="62854.7" r="295.276" /> 
<circle cx="20617" cy="62854.7" r="295.276" /> 
<circle cx="20617" cy="61854.7" r="295.276" /> 
<circle cx="20617" cy="60854.7" r="295.276" /> 
<circle cx="20617" cy="59854.7" r="295.276" /> 
<circle cx="20617" cy="58854.7" r="295.276" /> 
<circle cx="20617" cy="57854.7" r="295.276" /> 
<circle cx="20617" cy="56854.7" r="295.276" /> 
<circle cx="20617" cy="55854.7" r="295.276" /> 
<circle cx="20617" cy="54854.7" r="295.276" /> 
<circle cx="20617" cy="53854.7" r="295.276" /> 
<circle cx="20617" cy="52854.7" r="295.276" /> 
<path style="fill:#000000; fill-opacity:0.0; 
stroke:#000000; stroke-width:39.3701; stroke-opacity:1; 
stroke-linecap:round; stroke-linejoin:round;fill:none"
d="M 20321.8,51559.4
20912.3,51559.4
20912.3,52150
20321.8,52150
Z" /> 
</g>
<g >
</g>
<g >
</g>
<g >
</g>
<g >
</g>
<g >
</g>
<g >
</g>
<g >
</g>
<g >
</g>
<g >
</g>
<g >
</g>
<g >
</g>
<g >
</g>
<g >
</g>
<g >
</g>
<g >
</g>
<g >
</g>
<g >
</g>
<g >
</g>
<g >
</g>
<g >
</g>
<g >
</g>
<g >
</g>
<g >
</g>
<g >
</g>
<g >
</g>
<g >
</g>
<g >
</g>
<g >
</g>
<g >
</g>
<g >
</g>
<g >
</g>
<g >
</g>
<g >
</g>
<g >
</g>
<g >
</g>
<g >
</g>
<g >
</g>
<g >
</g>
<g >
</g>
<g >
</g>
<g >
</g>
<g >
</g>
<g >
</g>
<g >
</g>
<g >
</g>
<g >
</g>
<g >
</g>
</g> 
</svg>
