<?xml version="1.0" standalone="no"?>
 <!DOCTYPE svg PUBLIC "-//W3C//DTD SVG 1.1//EN" 
 "http://www.w3.org/Graphics/SVG/1.1/DTD/svg11.dtd"> 
<svg xmlns="http://www.w3.org/2000/svg" version="1.1" 
    width="41.9989cm" height="29.7002cm" viewBox="0 0 165350 116930 ">
<title>SVG Picture created as kopesh-B_SilkS.svg date 2020/03/28 09:11:16 </title>
  <desc>Picture generated by PCBNEW </desc>
<g style="fill:#000000; fill-opacity:1;stroke:#000000; stroke-opacity:1;
stroke-linecap:round; stroke-linejoin:round; "
 transform="translate(0 0) scale(1 1)">
</g>
<g style="fill:#000000; fill-opacity:0.0; 
stroke:#000000; stroke-width:-0.000393701; stroke-opacity:1; 
stroke-linecap:round; stroke-linejoin:round;">
</g>
<g style="fill:#000000; fill-opacity:0.0; 
stroke:#000000; stroke-width:472.441; stroke-opacity:1; 
stroke-linecap:round; stroke-linejoin:round;">
<path d="M141050 34300
L141825 33050
" />
<path d="M135625 27725
L129650 29300
" />
<path d="M141525 26175
L136950 27375
" />
<path d="M125850 30300
L128450 29625
" />
</g>
<g style="fill:#000000; fill-opacity:0.0; 
stroke:#000000; stroke-width:47.2441; stroke-opacity:1; 
stroke-linecap:round; stroke-linejoin:round;">
<path d="M125750 30300
L125850 30350
" />
</g>
<g style="fill:#000000; fill-opacity:0.0; 
stroke:#000000; stroke-width:442.913; stroke-opacity:1; 
stroke-linecap:round; stroke-linejoin:round;">
<path d="M85257 59621
L92928 54686
" />
<path d="M77059 63646
L85257 59621
" />
<path d="M68462 66785
L77059 63646
" />
<path d="M59997 68893
L68462 66785
" />
<path d="M51372 69896
L59997 68893
" />
<path d="M42675 69539
L51372 69896
" />
<path d="M33997 67565
L42675 69539
" />
<path d="M93868 55229
L93709 55106
" />
<path d="M93840 55468
L93868 55229
" />
<path d="M142700 29025
L141522 26189
" />
<path d="M142425 31175
L142700 29025
" />
<path d="M142300 31675
L142425 31175
" />
<path d="M139273 37087
L141036 34324
" />
<path d="M138706 37978
L139273 37087
" />
<path d="M137925 38728
L138706 37978
" />
<path d="M137250 38800
L137925 38728
" />
<path d="M136950 38450
L137219 38797
" />
<path d="M136762 37752
L136933 38450
" />
<path d="M136478 36463
L136762 37752
" />
<path d="M135447 35112
L136478 36463
" />
<path d="M134800 34925
L135447 35112
" />
<path d="M119128 38528
L120666 37868
" />
<path d="M117965 39707
L119128 38528
" />
<path d="M117262 41318
L117965 39707
" />
<path d="M116783 41991
L117262 41318
" />
<path d="M116143 42127
L116783 41991
" />
<path d="M114708 41535
L116143 42127
" />
<path d="M113702 41338
L114708 41535
" />
<path d="M112708 41497
L113702 41338
" />
<path d="M109384 42556
L112708 41497
" />
<path d="M102778 44898
L109384 42556
" />
<path d="M96597 48178
L102778 44898
" />
<path d="M93694 50140
L96597 48178
" />
<path d="M92610 51530
L93694 50140
" />
<path d="M92312 53299
L92610 51530
" />
<path d="M92715 54369
L92312 53299
" />
<path d="M93709 55106
L92715 54369
" />
<path d="M85922 60541
L93840 55468
" />
<path d="M77403 64605
L85922 60541
" />
<path d="M68475 67799
L77403 64605
" />
<path d="M59710 69955
L68475 67799
" />
<path d="M50810 70959
L59710 69955
" />
<path d="M41872 70525
L50810 70959
" />
<path d="M32993 68372
L41872 70525
" />
<path d="M44101 63625
L41510 61532
" />
<path d="M47277 64718
L44101 63625
" />
<path d="M50671 65074
L47277 64718
" />
<path d="M55952 64657
L50671 65074
" />
<path d="M61064 63591
L55952 64657
" />
<path d="M63798 62884
L61064 63591
" />
<path d="M66326 62200
L63798 62884
" />
<path d="M69671 61073
L66326 62200
" />
<path d="M73358 59631
L69671 61073
" />
<path d="M77269 57956
L73358 59631
" />
<path d="M81211 56070
L77269 57956
" />
<path d="M83129 54998
L81211 56070
" />
<path d="M84340 54120
L83129 54998
" />
<path d="M108567 36407.9 A66102.6 66102.6 0.0 0 0 86869.5 47391.2 " />
<path d="M109734 35990
L108566 36407
" />
<path d="M110686 35254
L109734 35990
" />
<path d="M111857 34248
L110686 35254
" />
<path d="M112650 33900
L111857 34248
" />
<path d="M125721 30360
L114775 33300
" />
<path d="M118825 32750
L141023 26900
" />
<path d="M112800 34500
L114975 40900
" />
<path d="M120666 37868
L133425 34900
" />
<path d="M41510 61532
L32993 68372
" />
<path d="M86869 47391
L84340 54120
" />
<circle cx="138050" cy="33150" r="734.272" /> 
<circle cx="139956" cy="29507.7" r="762.199" /> 
<circle cx="127693" cy="32631.2" r="779.596" /> 
<circle cx="117923" cy="35530.3" r="807.256" /> 
</g>
<g style="fill:#000000; fill-opacity:0.0; 
stroke:#000000; stroke-width:47.2441; stroke-opacity:1; 
stroke-linecap:round; stroke-linejoin:round;">
<path d="M35486 54471
L34652 54471
" />
<path d="M34652 54471
L34652 52849
" />
<path d="M34652 52849
L35486 52849
" />
<path d="M35486 52849
L35486 54471
" />
<path d="M35069 54774
L35069 54471
" />
<path d="M35069 52546
L35069 52849
" />
<path d="M35486 54211
L34652 54211
" />
</g>
<g style="fill:#000000; fill-opacity:0.0; 
stroke:#000000; stroke-width:59.0551; stroke-opacity:1; 
stroke-linecap:round; stroke-linejoin:round;">
<path d="M27117 51354
L27117 63354
" />
<path d="M25117 51354
L27117 51354
" />
<path d="M25117 50354
L25117 51354
" />
<path d="M22117 50354
L25117 50354
" />
<path d="M22117 51354
L22117 50354
" />
<path d="M20117 51354
L22117 51354
" />
<path d="M20117 63354
L20117 51354
" />
<path d="M27117 63354
L20117 63354
" />
</g>
<g style="fill:#000000; fill-opacity:0.0; 
stroke:#000000; stroke-width:47.2441; stroke-opacity:1; 
stroke-linecap:round; stroke-linejoin:round;">
<path d="M146851 39387
L146045 39603
" />
<path d="M146045 39603
L145625 38036
" />
<path d="M145625 38036
L146431 37820
" />
<path d="M146431 37820
L146851 39387
" />
<path d="M146527 39787
L146448 39495
" />
<path d="M145950 37635
L146028 37928
" />
<path d="M146784 39136
L145978 39352
" />
<path d="M144901 31987
L144095 32203
" />
<path d="M144095 32203
L143675 30636
" />
<path d="M143675 30636
L144481 30420
" />
<path d="M144481 30420
L144901 31987
" />
<path d="M144577 32387
L144498 32095
" />
<path d="M144000 30235
L144078 30528
" />
<path d="M144834 31736
L144028 31952
" />
<path d="M143001 24787
L142195 25003
" />
<path d="M142195 25003
L141775 23436
" />
<path d="M141775 23436
L142581 23220
" />
<path d="M142581 23220
L143001 24787
" />
<path d="M142677 25187
L142598 24895
" />
<path d="M142100 23035
L142178 23328
" />
<path d="M142934 24536
L142128 24752
" />
<path d="M92743 63705
L92021 64122
" />
<path d="M92021 64122
L91210 62717
" />
<path d="M91210 62717
L91932 62300
" />
<path d="M91932 62300
L92743 63705
" />
<path d="M92534 64176
L92382 63914
" />
<path d="M91419 62246
L91571 62509
" />
<path d="M92614 63480
L91891 63897
" />
<path d="M88943 57155
L88221 57572
" />
<path d="M88221 57572
L87410 56167
" />
<path d="M87410 56167
L88132 55750
" />
<path d="M88132 55750
L88943 57155
" />
<path d="M88734 57626
L88582 57364
" />
<path d="M87619 55696
L87771 55959
" />
<path d="M88814 56930
L88091 57347
" />
<path d="M85293 50855
L84571 51272
" />
<path d="M84571 51272
L83760 49867
" />
<path d="M83760 49867
L84482 49450
" />
<path d="M84482 49450
L85293 50855
" />
<path d="M85084 51326
L84932 51064
" />
<path d="M83969 49396
L84121 49659
" />
<path d="M85164 50630
L84441 51047
" />
<path d="M140351 41137
L139545 41353
" />
<path d="M139545 41353
L139125 39786
" />
<path d="M139125 39786
L139931 39570
" />
<path d="M139931 39570
L140351 41137
" />
<path d="M140027 41537
L139948 41245
" />
<path d="M139450 39385
L139528 39678
" />
<path d="M140284 40886
L139478 41102
" />
<path d="M138351 33787
L137545 34003
" />
<path d="M137545 34003
L137125 32436
" />
<path d="M137125 32436
L137931 32220
" />
<path d="M137931 32220
L138351 33787
" />
<path d="M138027 34187
L137948 33895
" />
<path d="M137450 32035
L137528 32328
" />
<path d="M138284 33536
L137478 33752
" />
<path d="M136401 26537
L135595 26753
" />
<path d="M135595 26753
L135175 25186
" />
<path d="M135175 25186
L135981 24970
" />
<path d="M135981 24970
L136401 26537
" />
<path d="M136077 26937
L135998 26645
" />
<path d="M135500 24785
L135578 25078
" />
<path d="M136334 26286
L135528 26502
" />
<path d="M80444 69421
L79609 69421
" />
<path d="M79609 69421
L79609 67799
" />
<path d="M79609 67799
L80444 67799
" />
<path d="M80444 67799
L80444 69421
" />
<path d="M80027 69724
L80027 69421
" />
<path d="M80027 67496
L80027 67799
" />
<path d="M80444 69161
L79609 69161
" />
<path d="M80444 62021
L79609 62021
" />
<path d="M79609 62021
L79609 60399
" />
<path d="M79609 60399
L80444 60399
" />
<path d="M80444 60399
L80444 62021
" />
<path d="M80027 62324
L80027 62021
" />
<path d="M80027 60096
L80027 60399
" />
<path d="M80444 61761
L79609 61761
" />
<path d="M133101 43037
L132295 43253
" />
<path d="M132295 43253
L131875 41686
" />
<path d="M131875 41686
L132681 41470
" />
<path d="M132681 41470
L133101 43037
" />
<path d="M132777 43438
L132698 43145
" />
<path d="M132200 41285
L132278 41578
" />
<path d="M133034 42786
L132228 43002
" />
<path d="M131151 35737
L130345 35953
" />
<path d="M130345 35953
L129925 34386
" />
<path d="M129925 34386
L130731 34170
" />
<path d="M130731 34170
L131151 35737
" />
<path d="M130827 36137
L130748 35845
" />
<path d="M130250 33985
L130328 34278
" />
<path d="M131084 35486
L130278 35702
" />
<path d="M129201 28487
L128395 28703
" />
<path d="M128395 28703
L127975 27136
" />
<path d="M127975 27136
L128781 26920
" />
<path d="M128781 26920
L129201 28487
" />
<path d="M128877 28887
L128798 28595
" />
<path d="M128300 26735
L128378 27028
" />
<path d="M129134 28236
L128328 28452
" />
<path d="M72944 69421
L72109 69421
" />
<path d="M72109 69421
L72109 67799
" />
<path d="M72109 67799
L72944 67799
" />
<path d="M72944 67799
L72944 69421
" />
<path d="M72527 69724
L72527 69421
" />
<path d="M72527 67496
L72527 67799
" />
<path d="M72944 69161
L72109 69161
" />
<path d="M72925 62021
L72091 62021
" />
<path d="M72091 62021
L72091 60399
" />
<path d="M72091 60399
L72925 60399
" />
<path d="M72925 60399
L72925 62021
" />
<path d="M72508 62324
L72508 62021
" />
<path d="M72508 60096
L72508 60399
" />
<path d="M72925 61761
L72091 61761
" />
<path d="M72944 54471
L72109 54471
" />
<path d="M72109 54471
L72109 52849
" />
<path d="M72109 52849
L72944 52849
" />
<path d="M72944 52849
L72944 54471
" />
<path d="M72527 54774
L72527 54471
" />
<path d="M72527 52546
L72527 52849
" />
<path d="M72944 54211
L72109 54211
" />
<path d="M125143 45005
L124421 45422
" />
<path d="M124421 45422
L123610 44017
" />
<path d="M123610 44017
L124332 43600
" />
<path d="M124332 43600
L125143 45005
" />
<path d="M124934 45476
L124782 45214
" />
<path d="M123819 43546
L123971 43809
" />
<path d="M125014 44780
L124291 45197
" />
<path d="M121593 38805
L120871 39222
" />
<path d="M120871 39222
L120060 37817
" />
<path d="M120060 37817
L120782 37400
" />
<path d="M120782 37400
L121593 38805
" />
<path d="M121384 39276
L121232 39014
" />
<path d="M120269 37346
L120421 37609
" />
<path d="M121464 38580
L120741 38997
" />
<path d="M117843 32405
L117121 32822
" />
<path d="M117121 32822
L116310 31417
" />
<path d="M116310 31417
L117032 31000
" />
<path d="M117032 31000
L117843 32405
" />
<path d="M117634 32876
L117482 32614
" />
<path d="M116519 30946
L116671 31209
" />
<path d="M117714 32180
L116991 32597
" />
<path d="M65494 69421
L64659 69421
" />
<path d="M64659 69421
L64659 67799
" />
<path d="M64659 67799
L65494 67799
" />
<path d="M65494 67799
L65494 69421
" />
<path d="M65077 69724
L65077 69421
" />
<path d="M65077 67496
L65077 67799
" />
<path d="M65494 69161
L64659 69161
" />
<path d="M65494 61971
L64659 61971
" />
<path d="M64659 61971
L64659 60349
" />
<path d="M64659 60349
L65494 60349
" />
<path d="M65494 60349
L65494 61971
" />
<path d="M65077 62274
L65077 61971
" />
<path d="M65077 60046
L65077 60349
" />
<path d="M65494 61711
L64659 61711
" />
<path d="M65494 54471
L64659 54471
" />
<path d="M64659 54471
L64659 52849
" />
<path d="M64659 52849
L65494 52849
" />
<path d="M65494 52849
L65494 54471
" />
<path d="M65077 54774
L65077 54471
" />
<path d="M65077 52546
L65077 52849
" />
<path d="M65494 54211
L64659 54211
" />
<path d="M118643 48755
L117921 49172
" />
<path d="M117921 49172
L117110 47767
" />
<path d="M117110 47767
L117832 47350
" />
<path d="M117832 47350
L118643 48755
" />
<path d="M118434 49226
L118282 48964
" />
<path d="M117319 47296
L117471 47559
" />
<path d="M118514 48530
L117791 48947
" />
<path d="M115043 42505
L114321 42922
" />
<path d="M114321 42922
L113510 41517
" />
<path d="M113510 41517
L114232 41100
" />
<path d="M114232 41100
L115043 42505
" />
<path d="M114834 42976
L114682 42714
" />
<path d="M113719 41046
L113871 41309
" />
<path d="M114914 42280
L114191 42697
" />
<path d="M111293 36055
L110571 36472
" />
<path d="M110571 36472
L109760 35067
" />
<path d="M109760 35067
L110482 34650
" />
<path d="M110482 34650
L111293 36055
" />
<path d="M111084 36526
L110932 36264
" />
<path d="M109969 34596
L110121 34859
" />
<path d="M111164 35830
L110441 36247
" />
<path d="M57994 69421
L57159 69421
" />
<path d="M57159 69421
L57159 67799
" />
<path d="M57159 67799
L57994 67799
" />
<path d="M57994 67799
L57994 69421
" />
<path d="M57577 69724
L57577 69421
" />
<path d="M57577 67496
L57577 67799
" />
<path d="M57994 69161
L57159 69161
" />
<path d="M57994 61921
L57159 61921
" />
<path d="M57159 61921
L57159 60299
" />
<path d="M57159 60299
L57994 60299
" />
<path d="M57994 60299
L57994 61921
" />
<path d="M57577 62224
L57577 61921
" />
<path d="M57577 59996
L57577 60299
" />
<path d="M57994 61661
L57159 61661
" />
<path d="M57994 54471
L57159 54471
" />
<path d="M57159 54471
L57159 52849
" />
<path d="M57159 52849
L57994 52849
" />
<path d="M57994 52849
L57994 54471
" />
<path d="M57577 54774
L57577 54471
" />
<path d="M57577 52546
L57577 52849
" />
<path d="M57994 54211
L57159 54211
" />
<path d="M112193 52505
L111471 52922
" />
<path d="M111471 52922
L110660 51517
" />
<path d="M110660 51517
L111382 51100
" />
<path d="M111382 51100
L112193 52505
" />
<path d="M111984 52976
L111832 52714
" />
<path d="M110869 51046
L111021 51309
" />
<path d="M112064 52280
L111341 52697
" />
<path d="M108543 46205
L107821 46622
" />
<path d="M107821 46622
L107010 45217
" />
<path d="M107010 45217
L107732 44800
" />
<path d="M107732 44800
L108543 46205
" />
<path d="M108334 46676
L108182 46414
" />
<path d="M107219 44746
L107371 45009
" />
<path d="M108414 45980
L107691 46397
" />
<path d="M104793 39705
L104071 40122
" />
<path d="M104071 40122
L103260 38717
" />
<path d="M103260 38717
L103982 38300
" />
<path d="M103982 38300
L104793 39705
" />
<path d="M104584 40176
L104432 39914
" />
<path d="M103469 38246
L103621 38509
" />
<path d="M104664 39480
L103941 39897
" />
<path d="M50544 69421
L49709 69421
" />
<path d="M49709 69421
L49709 67799
" />
<path d="M49709 67799
L50544 67799
" />
<path d="M50544 67799
L50544 69421
" />
<path d="M50127 69724
L50127 69421
" />
<path d="M50127 67496
L50127 67799
" />
<path d="M50544 69161
L49709 69161
" />
<path d="M50544 61871
L49709 61871
" />
<path d="M49709 61871
L49709 60249
" />
<path d="M49709 60249
L50544 60249
" />
<path d="M50544 60249
L50544 61871
" />
<path d="M50127 62174
L50127 61871
" />
<path d="M50127 59946
L50127 60249
" />
<path d="M50544 61611
L49709 61611
" />
<path d="M50544 54471
L49709 54471
" />
<path d="M49709 54471
L49709 52849
" />
<path d="M49709 52849
L50544 52849
" />
<path d="M50544 52849
L50544 54471
" />
<path d="M50127 54774
L50127 54471
" />
<path d="M50127 52546
L50127 52849
" />
<path d="M50544 54211
L49709 54211
" />
<path d="M105693 56255
L104971 56672
" />
<path d="M104971 56672
L104160 55267
" />
<path d="M104160 55267
L104882 54850
" />
<path d="M104882 54850
L105693 56255
" />
<path d="M105484 56726
L105332 56464
" />
<path d="M104369 54796
L104521 55059
" />
<path d="M105564 56030
L104841 56447
" />
<path d="M102043 49855
L101321 50272
" />
<path d="M101321 50272
L100510 48867
" />
<path d="M100510 48867
L101232 48450
" />
<path d="M101232 48450
L102043 49855
" />
<path d="M101834 50326
L101682 50064
" />
<path d="M100719 48396
L100871 48659
" />
<path d="M101914 49630
L101191 50047
" />
<path d="M98243 43405
L97521 43822
" />
<path d="M97521 43822
L96710 42417
" />
<path d="M96710 42417
L97432 42000
" />
<path d="M97432 42000
L98243 43405
" />
<path d="M98034 43876
L97882 43614
" />
<path d="M96919 41946
L97071 42209
" />
<path d="M98114 43180
L97391 43597
" />
<path d="M43044 69421
L42209 69421
" />
<path d="M42209 69421
L42209 67799
" />
<path d="M42209 67799
L43044 67799
" />
<path d="M43044 67799
L43044 69421
" />
<path d="M42627 69724
L42627 69421
" />
<path d="M42627 67496
L42627 67799
" />
<path d="M43044 69161
L42209 69161
" />
<path d="M43044 61871
L42209 61871
" />
<path d="M42209 61871
L42209 60249
" />
<path d="M42209 60249
L43044 60249
" />
<path d="M43044 60249
L43044 61871
" />
<path d="M42627 62174
L42627 61871
" />
<path d="M42627 59946
L42627 60249
" />
<path d="M43044 61611
L42209 61611
" />
<path d="M43044 54471
L42209 54471
" />
<path d="M42209 54471
L42209 52849
" />
<path d="M42209 52849
L43044 52849
" />
<path d="M43044 52849
L43044 54471
" />
<path d="M42627 54774
L42627 54471
" />
<path d="M42627 52546
L42627 52849
" />
<path d="M43044 54211
L42209 54211
" />
<path d="M99243 60005
L98521 60422
" />
<path d="M98521 60422
L97710 59017
" />
<path d="M97710 59017
L98432 58600
" />
<path d="M98432 58600
L99243 60005
" />
<path d="M99034 60476
L98882 60214
" />
<path d="M97919 58546
L98071 58809
" />
<path d="M99114 59780
L98391 60197
" />
<path d="M95493 53505
L94771 53922
" />
<path d="M94771 53922
L93960 52517
" />
<path d="M93960 52517
L94682 52100
" />
<path d="M94682 52100
L95493 53505
" />
<path d="M95284 53976
L95132 53714
" />
<path d="M94169 52046
L94321 52309
" />
<path d="M95364 53280
L94641 53697
" />
<path d="M91743 47055
L91021 47472
" />
<path d="M91021 47472
L90210 46067
" />
<path d="M90210 46067
L90932 45650
" />
<path d="M90932 45650
L91743 47055
" />
<path d="M91534 47526
L91382 47264
" />
<path d="M90419 45596
L90571 45859
" />
<path d="M91614 46830
L90891 47247
" />
<path d="M35594 69471
L34759 69471
" />
<path d="M34759 69471
L34759 67849
" />
<path d="M34759 67849
L35594 67849
" />
<path d="M35594 67849
L35594 69471
" />
<path d="M35177 69774
L35177 69471
" />
<path d="M35177 67546
L35177 67849
" />
<path d="M35594 69211
L34759 69211
" />
<path d="M35594 61921
L34759 61921
" />
<path d="M34759 61921
L34759 60299
" />
<path d="M34759 60299
L35594 60299
" />
<path d="M35594 60299
L35594 61921
" />
<path d="M35177 62224
L35177 61921
" />
<path d="M35177 59996
L35177 60299
" />
<path d="M35594 61661
L34759 61661
" />
<g >
</g>
<g >
</g>
<g >
</g>
<g >
</g>
<g >
</g>
<g >
</g>
<g >
</g>
<g >
</g>
<g >
</g>
<g >
</g>
<g >
</g>
<g >
</g>
<g >
</g>
<g >
</g>
<g >
</g>
<g >
</g>
<g >
</g>
<g >
</g>
<g >
</g>
<g >
</g>
<g >
</g>
<g >
</g>
<g >
</g>
<g >
</g>
<g >
</g>
<g >
</g>
<g >
</g>
<g >
</g>
<g >
</g>
<g >
</g>
<g >
</g>
<g >
</g>
<g >
</g>
<g >
</g>
<g >
</g>
<g >
</g>
<g >
</g>
<g >
</g>
<g >
</g>
<g >
</g>
<g >
</g>
<g >
</g>
<g >
</g>
<g >
</g>
<g >
</g>
<g >
</g>
<g >
</g>
<g >
</g>
<g >
</g>
<g >
</g>
<g >
</g>
<g >
</g>
<g >
</g>
<g >
</g>
<g >
</g>
<g >
</g>
<g >
</g>
<g >
</g>
<g >
</g>
<g >
</g>
<g >
</g>
<g >
</g>
<g >
</g>
<g >
</g>
<g >
</g>
<g >
</g>
<g >
</g>
<g >
</g>
<g >
</g>
<g >
</g>
<g >
</g>
<g >
</g>
<g >
</g>
<g >
</g>
<g >
</g>
<g >
</g>
<g >
</g>
<g >
</g>
<g >
</g>
<g >
</g>
<g >
</g>
<g >
</g>
<g >
</g>
<g >
</g>
<g >
</g>
<g >
</g>
<g >
</g>
<g >
</g>
<g >
</g>
<g >
</g>
<g >
</g>
<g >
</g>
<g >
</g>
<g >
</g>
<g >
</g>
<g >
</g>
<g >
</g>
<g >
</g>
<g >
</g>
<g >
</g>
<g >
</g>
<g >
</g>
<g >
</g>
</g> 
</svg>
