<?xml version="1.0" standalone="no"?>
 <!DOCTYPE svg PUBLIC "-//W3C//DTD SVG 1.1//EN" 
 "http://www.w3.org/Graphics/SVG/1.1/DTD/svg11.dtd"> 
<svg xmlns="http://www.w3.org/2000/svg" version="1.1" 
    width="41.9989cm" height="29.7002cm" viewBox="0 0 165350 116930 ">
<title>SVG Picture created as kopesh-Edge_Cuts.svg date 2020/03/28 09:11:16 </title>
  <desc>Picture generated by PCBNEW </desc>
<g style="fill:#000000; fill-opacity:1;stroke:#000000; stroke-opacity:1;
stroke-linecap:round; stroke-linejoin:round; "
 transform="translate(0 0) scale(1 1)">
</g>
<g style="fill:#000000; fill-opacity:0.0; 
stroke:#000000; stroke-width:-0.000393701; stroke-opacity:1; 
stroke-linecap:round; stroke-linejoin:round;">
</g>
<g style="fill:#000000; fill-opacity:0.0; 
stroke:#000000; stroke-width:19.685; stroke-opacity:1; 
stroke-linecap:round; stroke-linejoin:round;">
<path d="M147691 41897
L141971 20539
" />
<path d="M126171 47661
L147691 41897
" />
<path d="M83829 72145
L126171 47661
" />
<path d="M19660 72145
L83829 72145
" />
<path d="M19656 50039
L19660 72145
" />
<path d="M77849 50035
L19656 50039
" />
<path d="M118242 26712
L77849 50035
" />
<path d="M141971 20539
L118242 26712
" />
</g>
<g style="fill:#000000; fill-opacity:0.0; 
stroke:#000000; stroke-width:59.0551; stroke-opacity:1; 
stroke-linecap:round; stroke-linejoin:round;">
<path d="M54337 71531
L54337 70192
" />
<path d="M52841 70192
L54337 70192
" />
<path d="M52841 71531
L52841 70192
" />
<path d="M52841 71531
L54337 71531
" />
<path d="M110602 56261
L109933 55101
" />
<path d="M108637 55850
L109933 55101
" />
<path d="M109307 57009
L108637 55850
" />
<path d="M109307 57009
L110602 56261
" />
<path d="M137599 43939
L137253 42646
" />
<path d="M135808 43034
L137253 42646
" />
<path d="M136154 44326
L135808 43034
" />
<path d="M136154 44326
L137599 43939
" />
<path d="M123209 48559
L122540 47400
" />
<path d="M121244 48148
L122540 47400
" />
<path d="M121913 49307
L121244 48148
" />
<path d="M121913 49307
L123209 48559
" />
<path d="M97484 63409
L96815 62250
" />
<path d="M95519 62998
L96815 62250
" />
<path d="M96188 64157
L95519 62998
" />
<path d="M96188 64157
L97484 63409
" />
<path d="M84174 70839
L83828 69546
" />
<path d="M82383 69934
L83828 69546
" />
<path d="M82729 71226
L82383 69934
" />
<path d="M82729 71226
L84174 70839
" />
<path d="M69440 71576
L69440 70238
" />
<path d="M67944 70238
L69440 70238
" />
<path d="M67944 71576
L67944 70238
" />
<path d="M67944 71576
L69440 71576
" />
<g >
</g>
<g >
</g>
<g >
</g>
<g >
</g>
<g >
</g>
<g >
</g>
<g >
</g>
<g >
</g>
<g >
</g>
<g >
</g>
<g >
</g>
<g >
</g>
<g >
</g>
<g >
</g>
<g >
</g>
<g >
</g>
<g >
</g>
<g >
</g>
<g >
</g>
<g >
</g>
<g >
</g>
<g >
</g>
<g >
</g>
<g >
</g>
<g >
</g>
<g >
</g>
<g >
</g>
<g >
</g>
<g >
</g>
<g >
</g>
<g >
</g>
<g >
</g>
<g >
</g>
<g >
</g>
<g >
</g>
<g >
</g>
<g >
</g>
<g >
</g>
<g >
</g>
<g >
</g>
<g >
</g>
<g >
</g>
<g >
</g>
<g >
</g>
<g >
</g>
<g >
</g>
<g >
</g>
<g >
</g>
<g >
</g>
<g >
</g>
<g >
</g>
<g >
</g>
<g >
</g>
<g >
</g>
<g >
</g>
<g >
</g>
<g >
</g>
<g >
</g>
<g >
</g>
<g >
</g>
<g >
</g>
<g >
</g>
<g >
</g>
<g >
</g>
<g >
</g>
<g >
</g>
<g >
</g>
<g >
</g>
<g >
</g>
<g >
</g>
<g >
</g>
<g >
</g>
<g >
</g>
<g >
</g>
<g >
</g>
<g >
</g>
<g >
</g>
<g >
</g>
<g >
</g>
<g >
</g>
<g >
</g>
<g >
</g>
<g >
</g>
<g >
</g>
<g >
</g>
<g >
</g>
<g >
</g>
<g >
</g>
<g >
</g>
<g >
</g>
<g >
</g>
<g >
</g>
<g >
</g>
<g >
</g>
<g >
</g>
<g >
</g>
<g >
</g>
<g >
</g>
<g >
</g>
<g >
</g>
<g >
</g>
<g >
</g>
<g >
</g>
</g> 
</svg>
