  0
SECTION
  2
HEADER
  9
$ANGBASE
  50
0.0
  9
$ANGDIR
  70
1
  9
$MEASUREMENT
  70
0
  0
ENDSEC
  0
SECTION
  2
TABLES
  0
TABLE
  2
LTYPE
  70
4
  0
LTYPE
  5
40F
  2
CONTINUOUS
  70
0
  3
Solid line
  72
65
  73
0
  40
0.0
  0
LTYPE
  5
410
  2
DASHDOT
 70
0
  3
Dash Dot ____ _ ____ _
 72
65
 73
4
 40
2.0
 49
1.25
 49
-0.25
 49
0.25
 49
-0.25
  0
LTYPE
  5
411
  2
DASHED
 70
0
  3
Dashed __ __ __ __ __
 72
65
 73
2
 40
0.75
 49
0.5
 49
-0.25
  0
LTYPE
  5
43B
  2
DOTTED
 70
0
  3
Dotted .  .  .  .
 72
65
 73
2
 40
0.2
 49
0.0
 49
-0.2
  0
ENDTAB
  0
TABLE
  2
STYLE
  70
4
  0
STYLE
  2
KICAD
  70
0
  40
0
  41
1
  42
1
  50
0
  71
0
  3
isocp.shx
  0
STYLE
  2
KICADB
  70
0
  40
0
  41
1
  42
1
  50
0
  71
0
  3
isocp.shx
  0
STYLE
  2
KICADI
  70
0
  40
0
  41
1
  42
1
  50
15
  71
0
  3
isocp.shx
  0
STYLE
  2
KICADBI
  70
0
  40
0
  41
1
  42
1
  50
15
  71
0
  3
isocp.shx
  0
ENDTAB
  0
TABLE
  2
LAYER
  70
1
  0
LAYER
  2
BLACK
  70
0
  62
7
  6
CONTINUOUS
  0
ENDTAB
  0
ENDSEC
  0
SECTION
  2
ENTITIES
0
LINE
8
BLACK
6
CONTINUOUS
10
1.10363
20
-7.66658
11
1.10354
21
-7.66641
0
LINE
8
BLACK
6
CONTINUOUS
10
1.10354
20
-7.66641
11
1.10354
21
-7.66641
0
LINE
8
BLACK
6
CONTINUOUS
10
1.10354
20
-7.66641
11
1.10349
21
-7.66622
0
LINE
8
BLACK
6
CONTINUOUS
10
1.10349
20
-7.66622
11
1.10349
21
-7.66622
0
LINE
8
BLACK
6
CONTINUOUS
10
1.10349
20
-7.66622
11
1.10349
21
-7.66622
0
LINE
8
BLACK
6
CONTINUOUS
10
1.10349
20
-7.66622
11
1.10347
21
-7.66603
0
LINE
8
BLACK
6
CONTINUOUS
10
1.10347
20
-7.66603
11
1.10347
21
-7.66598
0
LINE
8
BLACK
6
CONTINUOUS
10
1.10347
20
-7.66598
11
1.10308
21
-5.45545
0
LINE
8
BLACK
6
CONTINUOUS
10
1.10308
20
-5.45545
11
1.10307
21
-5.4554
0
LINE
8
BLACK
6
CONTINUOUS
10
1.10307
20
-5.4554
11
1.10309
21
-5.4552
0
LINE
8
BLACK
6
CONTINUOUS
10
1.10309
20
-5.4552
11
1.10315
21
-5.45502
0
LINE
8
BLACK
6
CONTINUOUS
10
1.10315
20
-5.45502
11
1.10319
21
-5.45494
0
LINE
8
BLACK
6
CONTINUOUS
10
1.10319
20
-5.45494
11
1.10324
21
-5.45485
0
LINE
8
BLACK
6
CONTINUOUS
10
1.10324
20
-5.45485
11
1.10336
21
-5.4547
0
LINE
8
BLACK
6
CONTINUOUS
10
1.10336
20
-5.4547
11
1.10336
21
-5.4547
0
LINE
8
BLACK
6
CONTINUOUS
10
1.10336
20
-5.4547
11
1.10351
21
-5.45458
0
LINE
8
BLACK
6
CONTINUOUS
10
1.10351
20
-5.45458
11
1.10362
21
-5.45452
0
LINE
8
BLACK
6
CONTINUOUS
10
1.10362
20
-5.45452
11
1.10368
21
-5.45448
0
LINE
8
BLACK
6
CONTINUOUS
10
1.10368
20
-5.45448
11
1.10387
21
-5.45443
0
LINE
8
BLACK
6
CONTINUOUS
10
1.10387
20
-5.45443
11
1.10406
21
-5.45441
0
LINE
8
BLACK
6
CONTINUOUS
10
1.10406
20
-5.45441
11
1.10411
21
-5.45441
0
LINE
8
BLACK
6
CONTINUOUS
10
1.10411
20
-5.45441
11
6.92309
21
-5.45402
0
LINE
8
BLACK
6
CONTINUOUS
10
6.92309
20
-5.45402
11
10.9622
21
-3.12187
0
LINE
8
BLACK
6
CONTINUOUS
10
10.9622
20
-3.12187
11
10.9623
21
-3.12183
0
LINE
8
BLACK
6
CONTINUOUS
10
10.9623
20
-3.12183
11
10.9623
21
-3.12181
0
LINE
8
BLACK
6
CONTINUOUS
10
10.9623
20
-3.12181
11
10.9624
21
-3.12178
0
LINE
8
BLACK
6
CONTINUOUS
10
10.9624
20
-3.12178
11
10.9625
21
-3.12177
0
LINE
8
BLACK
6
CONTINUOUS
10
10.9625
20
-3.12177
11
13.3353
21
-2.50446
0
LINE
8
BLACK
6
CONTINUOUS
10
13.3353
20
-2.50446
11
13.3353
21
-2.50444
0
LINE
8
BLACK
6
CONTINUOUS
10
13.3353
20
-2.50444
11
13.3354
21
-2.50443
0
LINE
8
BLACK
6
CONTINUOUS
10
13.3354
20
-2.50443
11
13.3354
21
-2.50443
0
LINE
8
BLACK
6
CONTINUOUS
10
13.3354
20
-2.50443
11
13.3354
21
-2.50443
0
LINE
8
BLACK
6
CONTINUOUS
10
13.3354
20
-2.50443
11
13.3355
21
-2.50441
0
LINE
8
BLACK
6
CONTINUOUS
10
13.3355
20
-2.50441
11
13.3355
21
-2.50441
0
LINE
8
BLACK
6
CONTINUOUS
10
13.3355
20
-2.50441
11
13.3355
21
-2.50441
0
LINE
8
BLACK
6
CONTINUOUS
10
13.3355
20
-2.50441
11
13.3356
21
-2.50441
0
LINE
8
BLACK
6
CONTINUOUS
10
13.3356
20
-2.50441
11
13.3357
21
-2.50442
0
LINE
8
BLACK
6
CONTINUOUS
10
13.3357
20
-2.50442
11
13.3357
21
-2.50442
0
LINE
8
BLACK
6
CONTINUOUS
10
13.3357
20
-2.50442
11
13.3357
21
-2.50442
0
LINE
8
BLACK
6
CONTINUOUS
10
13.3357
20
-2.50442
11
13.3358
21
-2.50444
0
LINE
8
BLACK
6
CONTINUOUS
10
13.3358
20
-2.50444
11
13.3359
21
-2.50446
0
LINE
8
BLACK
6
CONTINUOUS
10
13.3359
20
-2.50446
11
13.3359
21
-2.50446
0
LINE
8
BLACK
6
CONTINUOUS
10
13.3359
20
-2.50446
11
13.3359
21
-2.50446
0
LINE
8
BLACK
6
CONTINUOUS
10
13.3359
20
-2.50446
11
13.336
21
-2.5045
0
LINE
8
BLACK
6
CONTINUOUS
10
13.336
20
-2.5045
11
13.3361
21
-2.50454
0
LINE
8
BLACK
6
CONTINUOUS
10
13.3361
20
-2.50454
11
13.3361
21
-2.50454
0
LINE
8
BLACK
6
CONTINUOUS
10
13.3361
20
-2.50454
11
13.3361
21
-2.50455
0
LINE
8
BLACK
6
CONTINUOUS
10
13.3361
20
-2.50455
11
13.3361
21
-2.5046
0
LINE
8
BLACK
6
CONTINUOUS
10
13.3361
20
-2.5046
11
13.3362
21
-2.50465
0
LINE
8
BLACK
6
CONTINUOUS
10
13.3362
20
-2.50465
11
13.3362
21
-2.50466
0
LINE
8
BLACK
6
CONTINUOUS
10
13.3362
20
-2.50466
11
13.3362
21
-2.50466
0
LINE
8
BLACK
6
CONTINUOUS
10
13.3362
20
-2.50466
11
13.3363
21
-2.50473
0
LINE
8
BLACK
6
CONTINUOUS
10
13.3363
20
-2.50473
11
13.3363
21
-2.5048
0
LINE
8
BLACK
6
CONTINUOUS
10
13.3363
20
-2.5048
11
13.3363
21
-2.5048
0
LINE
8
BLACK
6
CONTINUOUS
10
13.3363
20
-2.5048
11
13.3363
21
-2.5048
0
LINE
8
BLACK
6
CONTINUOUS
10
13.3363
20
-2.5048
11
13.3364
21
-2.50488
0
LINE
8
BLACK
6
CONTINUOUS
10
13.3364
20
-2.50488
11
13.3364
21
-2.50496
0
LINE
8
BLACK
6
CONTINUOUS
10
13.3364
20
-2.50496
11
13.3364
21
-2.50496
0
LINE
8
BLACK
6
CONTINUOUS
10
13.3364
20
-2.50496
11
13.3364
21
-2.50497
0
LINE
8
BLACK
6
CONTINUOUS
10
13.3364
20
-2.50497
11
13.3365
21
-2.50505
0
LINE
8
BLACK
6
CONTINUOUS
10
13.3365
20
-2.50505
11
13.3365
21
-2.5051
0
LINE
8
BLACK
6
CONTINUOUS
10
13.3365
20
-2.5051
11
13.3365
21
-2.5051
0
LINE
8
BLACK
6
CONTINUOUS
10
13.3365
20
-2.5051
11
13.3365
21
-2.50515
0
LINE
8
BLACK
6
CONTINUOUS
10
13.3365
20
-2.50515
11
13.3365
21
-2.50519
0
LINE
8
BLACK
6
CONTINUOUS
10
13.3365
20
-2.50519
11
13.9085
21
-4.64092
0
LINE
8
BLACK
6
CONTINUOUS
10
13.9085
20
-4.64092
11
13.9086
21
-4.64097
0
LINE
8
BLACK
6
CONTINUOUS
10
13.9086
20
-4.64097
11
13.9086
21
-4.64102
0
LINE
8
BLACK
6
CONTINUOUS
10
13.9086
20
-4.64102
11
13.9086
21
-4.64102
0
LINE
8
BLACK
6
CONTINUOUS
10
13.9086
20
-4.64102
11
13.9086
21
-4.64116
0
LINE
8
BLACK
6
CONTINUOUS
10
13.9086
20
-4.64116
11
13.9086
21
-4.64135
0
LINE
8
BLACK
6
CONTINUOUS
10
13.9086
20
-4.64135
11
13.9086
21
-4.64135
0
LINE
8
BLACK
6
CONTINUOUS
10
13.9086
20
-4.64135
11
13.9085
21
-4.64154
0
LINE
8
BLACK
6
CONTINUOUS
10
13.9085
20
-4.64154
11
13.9085
21
-4.64172
0
LINE
8
BLACK
6
CONTINUOUS
10
13.9085
20
-4.64172
11
13.9083
21
-4.64188
0
LINE
8
BLACK
6
CONTINUOUS
10
13.9083
20
-4.64188
11
13.9083
21
-4.64195
0
LINE
8
BLACK
6
CONTINUOUS
10
13.9083
20
-4.64195
11
13.9082
21
-4.64201
0
LINE
8
BLACK
6
CONTINUOUS
10
13.9082
20
-4.64201
11
13.9081
21
-4.64207
0
LINE
8
BLACK
6
CONTINUOUS
10
13.9081
20
-4.64207
11
13.908
21
-4.64211
0
LINE
8
BLACK
6
CONTINUOUS
10
13.908
20
-4.64211
11
13.9079
21
-4.64216
0
LINE
8
BLACK
6
CONTINUOUS
10
13.9079
20
-4.64216
11
13.9079
21
-4.64218
0
LINE
8
BLACK
6
CONTINUOUS
10
13.9079
20
-4.64218
11
13.9078
21
-4.64219
0
LINE
8
BLACK
6
CONTINUOUS
10
13.9078
20
-4.64219
11
11.756
21
-5.21852
0
LINE
8
BLACK
6
CONTINUOUS
10
11.756
20
-5.21852
11
7.52195
21
-7.66684
0
LINE
8
BLACK
6
CONTINUOUS
10
7.52195
20
-7.66684
11
7.52193
21
-7.66685
0
LINE
8
BLACK
6
CONTINUOUS
10
7.52193
20
-7.66685
11
7.52186
21
-7.66689
0
LINE
8
BLACK
6
CONTINUOUS
10
7.52186
20
-7.66689
11
7.52184
21
-7.6669
0
LINE
8
BLACK
6
CONTINUOUS
10
7.52184
20
-7.6669
11
7.52182
21
-7.66691
0
LINE
8
BLACK
6
CONTINUOUS
10
7.52182
20
-7.66691
11
7.52176
21
-7.66694
0
LINE
8
BLACK
6
CONTINUOUS
10
7.52176
20
-7.66694
11
7.52173
21
-7.66695
0
LINE
8
BLACK
6
CONTINUOUS
10
7.52173
20
-7.66695
11
7.5217
21
-7.66696
0
LINE
8
BLACK
6
CONTINUOUS
10
7.5217
20
-7.66696
11
7.52164
21
-7.66698
0
LINE
8
BLACK
6
CONTINUOUS
10
7.52164
20
-7.66698
11
7.52158
21
-7.667
0
LINE
8
BLACK
6
CONTINUOUS
10
7.52158
20
-7.667
11
7.52155
21
-7.667
0
LINE
8
BLACK
6
CONTINUOUS
10
7.52155
20
-7.667
11
7.52151
21
-7.66701
0
LINE
8
BLACK
6
CONTINUOUS
10
7.52151
20
-7.66701
11
7.52145
21
-7.66701
0
LINE
8
BLACK
6
CONTINUOUS
10
7.52145
20
-7.66701
11
7.52143
21
-7.66701
0
LINE
8
BLACK
6
CONTINUOUS
10
7.52143
20
-7.66701
11
7.5214
21
-7.66701
0
LINE
8
BLACK
6
CONTINUOUS
10
7.5214
20
-7.66701
11
7.52132
21
-7.66701
0
LINE
8
BLACK
6
CONTINUOUS
10
7.52132
20
-7.66701
11
7.5213
21
-7.66701
0
LINE
8
BLACK
6
CONTINUOUS
10
7.5213
20
-7.66701
11
1.1045
21
-7.66701
0
LINE
8
BLACK
6
CONTINUOUS
10
1.1045
20
-7.66701
11
1.10446
21
-7.66702
0
LINE
8
BLACK
6
CONTINUOUS
10
1.10446
20
-7.66702
11
1.10426
21
-7.667
0
LINE
8
BLACK
6
CONTINUOUS
10
1.10426
20
-7.667
11
1.10426
21
-7.667
0
LINE
8
BLACK
6
CONTINUOUS
10
1.10426
20
-7.667
11
1.10426
21
-7.667
0
LINE
8
BLACK
6
CONTINUOUS
10
1.10426
20
-7.667
11
1.10422
21
-7.66699
0
LINE
8
BLACK
6
CONTINUOUS
10
1.10422
20
-7.66699
11
1.10408
21
-7.66694
0
LINE
8
BLACK
6
CONTINUOUS
10
1.10408
20
-7.66694
11
1.10391
21
-7.66685
0
LINE
8
BLACK
6
CONTINUOUS
10
1.10391
20
-7.66685
11
1.10376
21
-7.66673
0
LINE
8
BLACK
6
CONTINUOUS
10
1.10376
20
-7.66673
11
1.10376
21
-7.66673
0
LINE
8
BLACK
6
CONTINUOUS
10
1.10376
20
-7.66673
11
1.10363
21
-7.66658
0
LINE
8
BLACK
6
CONTINUOUS
10
10.9631
20
-3.12364
11
6.92392
21
-5.45582
0
LINE
8
BLACK
6
CONTINUOUS
10
6.92392
20
-5.45582
11
6.9239
21
-5.45583
0
LINE
8
BLACK
6
CONTINUOUS
10
6.9239
20
-5.45583
11
6.92383
21
-5.45586
0
LINE
8
BLACK
6
CONTINUOUS
10
6.92383
20
-5.45586
11
6.9238
21
-5.45588
0
LINE
8
BLACK
6
CONTINUOUS
10
6.9238
20
-5.45588
11
6.92379
21
-5.45589
0
LINE
8
BLACK
6
CONTINUOUS
10
6.92379
20
-5.45589
11
6.92373
21
-5.45592
0
LINE
8
BLACK
6
CONTINUOUS
10
6.92373
20
-5.45592
11
6.9237
21
-5.45593
0
LINE
8
BLACK
6
CONTINUOUS
10
6.9237
20
-5.45593
11
6.92367
21
-5.45594
0
LINE
8
BLACK
6
CONTINUOUS
10
6.92367
20
-5.45594
11
6.92361
21
-5.45596
0
LINE
8
BLACK
6
CONTINUOUS
10
6.92361
20
-5.45596
11
6.92355
21
-5.45597
0
LINE
8
BLACK
6
CONTINUOUS
10
6.92355
20
-5.45597
11
6.92351
21
-5.45598
0
LINE
8
BLACK
6
CONTINUOUS
10
6.92351
20
-5.45598
11
6.92348
21
-5.45598
0
LINE
8
BLACK
6
CONTINUOUS
10
6.92348
20
-5.45598
11
6.92342
21
-5.45599
0
LINE
8
BLACK
6
CONTINUOUS
10
6.92342
20
-5.45599
11
6.9234
21
-5.45599
0
LINE
8
BLACK
6
CONTINUOUS
10
6.9234
20
-5.45599
11
6.92337
21
-5.45599
0
LINE
8
BLACK
6
CONTINUOUS
10
6.92337
20
-5.45599
11
6.92329
21
-5.45599
0
LINE
8
BLACK
6
CONTINUOUS
10
6.92329
20
-5.45599
11
6.92327
21
-5.45599
0
LINE
8
BLACK
6
CONTINUOUS
10
6.92327
20
-5.45599
11
1.10505
21
-5.45638
0
LINE
8
BLACK
6
CONTINUOUS
10
1.10505
20
-5.45638
11
1.10544
21
-7.66504
0
LINE
8
BLACK
6
CONTINUOUS
10
1.10544
20
-7.66504
11
7.52112
21
-7.66504
0
LINE
8
BLACK
6
CONTINUOUS
10
7.52112
20
-7.66504
11
11.7551
21
-5.21676
0
LINE
8
BLACK
6
CONTINUOUS
10
11.7551
20
-5.21676
11
11.7552
21
-5.21672
0
LINE
8
BLACK
6
CONTINUOUS
10
11.7552
20
-5.21672
11
11.7553
21
-5.21669
0
LINE
8
BLACK
6
CONTINUOUS
10
11.7553
20
-5.21669
11
11.7553
21
-5.21667
0
LINE
8
BLACK
6
CONTINUOUS
10
11.7553
20
-5.21667
11
11.7554
21
-5.21665
0
LINE
8
BLACK
6
CONTINUOUS
10
11.7554
20
-5.21665
11
13.9064
21
-4.64053
0
LINE
8
BLACK
6
CONTINUOUS
10
13.9064
20
-4.64053
11
13.3349
21
-2.5066
0
LINE
8
BLACK
6
CONTINUOUS
10
13.3349
20
-2.5066
11
10.9631
21
-3.12364
  0
ENDSEC
  0
EOF
