M48
; DRILL file {KiCad (5.1.5)-3} date 19/04/2020 10:52:39
; FORMAT={-:-/ absolute / inch / decimal}
; #@! TF.CreationDate,2020-04-19T10:52:39+02:00
; #@! TF.GenerationSoftware,Kicad,Pcbnew,(5.1.5)-3
; #@! TF.FileFunction,Plated,1,2,PTH
FMAT,2
INCH
T1C0.0157
T2C0.0320
T3C0.0402
T4C0.0433
T5C0.0579
T6C0.1890
%
G90
G05
T1
X1.2924Y-6.1365
X1.3613Y-6.1683
T2
X7.5089Y-5.3481
X7.6589Y-5.6079
X9.8368Y-4.8921
X9.9868Y-5.1519
X10.1069Y-3.8679
X10.2569Y-4.1277
X6.3834Y-5.6675
X6.3834Y-5.9675
X8.159Y-4.974
X8.309Y-5.2338
X4.1494Y-6.4095
X4.1494Y-6.7095
X12.6804Y-2.8924
X12.758Y-3.1822
X7.885Y-5.9936
X8.035Y-6.2534
X8.2595Y-6.6422
X8.4095Y-6.902
X5.6424Y-6.4093
X5.6424Y-6.7093
X5.6474Y-7.1655
X5.6474Y-7.4655
X8.5322Y-5.6245
X8.6822Y-5.8843
X2.6554Y-7.1705
X2.6554Y-7.4705
X13.7239Y-4.1792
X13.8015Y-4.469
X13.3357Y-2.7148
X13.4134Y-3.0045
X5.6474Y-5.6675
X5.6474Y-5.9675
X10.4845Y-4.5159
X10.6345Y-4.7757
X8.9112Y-6.2729
X9.0612Y-6.5327
X3.3974Y-5.6805
X3.3974Y-5.9805
X13.5288Y-3.4353
X13.6065Y-3.7251
X6.3924Y-7.1655
X6.3924Y-7.4655
X10.8425Y-5.136
X10.9925Y-5.3958
X3.4011Y-6.4135
X3.4011Y-6.7135
X3.4004Y-7.1675
X3.4004Y-7.4675
X7.1404Y-7.1635
X7.1404Y-7.4635
X4.8961Y-7.1585
X4.8961Y-7.4585
X11.1435Y-4.1434
X11.2935Y-4.4032
X4.8994Y-5.6915
X4.8994Y-5.9915
X8.8068Y-4.6081
X8.9568Y-4.8679
X12.1486Y-3.7979
X12.2263Y-4.0877
X4.1534Y-5.6615
X4.1534Y-5.9615
X12.3433Y-4.5398
X12.4209Y-4.8296
X12.8681Y-3.6124
X12.9458Y-3.9021
X11.4998Y-4.7726
X11.6498Y-5.0324
X6.3894Y-6.4265
X6.3894Y-6.7265
X4.8964Y-6.4175
X4.8964Y-6.7175
X2.6414Y-5.6585
X2.6414Y-5.9585
X9.554Y-5.8983
X9.704Y-6.1581
X4.1514Y-7.1615
X4.1514Y-7.4615
X7.1344Y-6.4093
X7.1344Y-6.7093
X13.0771Y-4.3577
X13.1548Y-4.6474
X11.9586Y-3.0889
X12.0363Y-3.3787
X10.2034Y-5.5211
X10.3534Y-5.7809
X10.7727Y-3.5111
X10.9227Y-3.771
X2.6574Y-6.4175
X2.6574Y-6.7175
X9.1841Y-5.2516
X9.3341Y-5.5114
X9.4506Y-4.2271
X9.6006Y-4.4869
T3
X1.3534Y-7.0265
X1.4534Y-7.0265
X1.5534Y-7.0265
X1.6534Y-7.0265
T4
X1.2001Y-5.6369
X1.2001Y-5.7369
X1.2001Y-5.8369
X1.2001Y-5.9369
X1.2001Y-6.0369
X1.2001Y-6.1369
X1.2001Y-6.2369
X1.2001Y-6.3369
X1.2001Y-6.4369
X1.2001Y-6.5369
X1.2001Y-6.6369
X1.2001Y-6.7369
X1.8001Y-5.6369
X1.8001Y-5.7369
X1.8001Y-5.8369
X1.8001Y-5.9369
X1.8001Y-6.0369
X1.8001Y-6.1369
X1.8001Y-6.2369
X1.8001Y-6.3369
X1.8001Y-6.4369
X1.8001Y-6.5369
X1.8001Y-6.6369
X1.8001Y-6.7369
T5
X7.086Y-5.6572
X7.2525Y-5.4456
X2.8785Y-6.4601
X3.1285Y-6.3601
X10.3246Y-3.7875
X10.4911Y-3.5759
X13.1046Y-3.6083
X13.3202Y-3.447
X11.6612Y-3.9957
X11.8768Y-3.8344
X13.2989Y-4.3321
X13.5145Y-4.1708
X3.6269Y-6.4621
X3.8769Y-6.3621
X5.121Y-7.2093
X5.371Y-7.1093
X9.1316Y-6.206
X9.2981Y-5.9944
X11.4664Y-3.2728
X11.682Y-3.1115
X3.6265Y-5.7117
X3.8765Y-5.6117
X8.3824Y-4.9099
X8.5489Y-4.6983
X6.6171Y-6.4601
X6.8671Y-6.3601
X5.121Y-6.4605
X5.371Y-6.3605
X4.3734Y-7.2089
X4.6234Y-7.1089
X10.6997Y-4.4343
X10.8663Y-4.2227
X11.8542Y-4.7181
X12.0698Y-4.5568
X7.7344Y-5.2843
X7.9009Y-5.0727
X12.577Y-4.5252
X12.7926Y-4.3639
X2.8785Y-5.7121
X3.1285Y-5.6121
X5.8686Y-5.7129
X6.1186Y-5.6129
X3.6273Y-7.2097
X3.8773Y-7.1097
X2.1297Y-5.7125
X2.3797Y-5.6125
X8.756Y-5.5576
X8.9226Y-5.346
X7.8336Y-6.9536
X8.0001Y-6.742
X8.1088Y-5.9316
X8.2753Y-5.72
X2.8785Y-7.2097
X3.1285Y-7.1097
X5.869Y-6.4609
X6.119Y-6.3609
X5.1206Y-5.7117
X5.3706Y-5.6117
X9.7781Y-5.8324
X9.9446Y-5.6208
X9.0297Y-4.5355
X9.1962Y-4.3239
X9.4037Y-5.184
X9.5702Y-4.9724
X8.482Y-6.5796
X8.6485Y-6.368
X7.4608Y-6.3056
X7.6273Y-6.094
X5.869Y-7.2078
X6.119Y-7.1078
X6.6167Y-7.2082
X6.8667Y-7.1082
X2.1293Y-7.2093
X2.3793Y-7.1093
X10.0521Y-4.8099
X10.2186Y-4.5983
X12.3825Y-3.802
X12.5981Y-3.6407
X9.6781Y-4.1611
X9.8446Y-3.9495
X12.1892Y-3.0787
X12.4048Y-2.9174
X4.3726Y-5.7125
X4.6226Y-5.6125
X4.3734Y-6.4605
X4.6234Y-6.3605
X2.1297Y-6.4613
X2.3797Y-6.3613
X11.0738Y-5.0832
X11.2403Y-4.8716
X12.9116Y-2.8858
X13.1272Y-2.7245
X10.4265Y-5.4576
X10.593Y-5.246
T6
X3.393Y-6.192
X6.722Y-5.768
X7.472Y-7.492
X3.402Y-6.943
X11.068Y-3.361
X11.548Y-4.558
T0
M30
