G04 #@! TF.GenerationSoftware,KiCad,Pcbnew,(5.1.5)-3*
G04 #@! TF.CreationDate,2020-05-05T10:03:08+02:00*
G04 #@! TF.ProjectId,fr4,6672342e-6b69-4636-9164-5f7063625858,rev?*
G04 #@! TF.SameCoordinates,Original*
G04 #@! TF.FileFunction,Profile,NP*
%FSLAX46Y46*%
G04 Gerber Fmt 4.6, Leading zero omitted, Abs format (unit mm)*
G04 Created by KiCad (PCBNEW (5.1.5)-3) date 2020-05-05 10:03:08*
%MOMM*%
%LPD*%
G04 APERTURE LIST*
%ADD10C,0.080000*%
G04 APERTURE END LIST*
D10*
X116525181Y-129662384D02*
X116525181Y-143662384D01*
X102525181Y-143662384D02*
X116525181Y-143662384D01*
X102525181Y-129662384D02*
X102525181Y-143662384D01*
X102525181Y-148662384D02*
X116525181Y-148662384D01*
X116525181Y-148662384D02*
X116525181Y-162662384D01*
X97525181Y-148662384D02*
X97525181Y-162662384D01*
X25103094Y-146468264D02*
G75*
G03X25103094Y-146468264I-1000000J0D01*
G01*
X128481094Y-160412864D02*
G75*
G03X128481094Y-160412864I-1000000J0D01*
G01*
X102525181Y-162662384D02*
X116525181Y-162662384D01*
X128735346Y-164833226D02*
X236284533Y-102643105D01*
X232011493Y-85889265D02*
G75*
G03X232011493Y-85889265I-1000000J0D01*
G01*
X102525181Y-148662384D02*
X102525181Y-162662384D01*
X276416533Y-33753225D02*
X216144873Y-49433153D01*
X-13474819Y-108681796D02*
X-13474819Y-164833226D01*
X24874494Y-127392864D02*
G75*
G03X24874494Y-127392864I-1000000J0D01*
G01*
X83525181Y-148662384D02*
X97525181Y-148662384D01*
X83525181Y-162662384D02*
X97525181Y-162662384D01*
X83525181Y-148662384D02*
X83525181Y-162662384D01*
X216144873Y-49433153D02*
X113545384Y-108673065D01*
X219819493Y-55485465D02*
G75*
G03X219819493Y-55485465I-1000000J0D01*
G01*
X113545384Y-108673065D02*
X-13474819Y-108681796D01*
X-13474819Y-164833226D02*
X128735346Y-164833226D01*
X290945333Y-88003053D02*
X276416533Y-33753225D01*
X236284533Y-102643105D02*
X290945333Y-88003053D01*
X109431094Y-116623264D02*
G75*
G03X109431094Y-116623264I-1000000J0D01*
G01*
X247917671Y-63107646D02*
X251541138Y-76630608D01*
X243088042Y-64401741D02*
X246711509Y-77924703D01*
X248005604Y-82754332D02*
X251629071Y-96277294D01*
X-11474819Y-124662384D02*
X2525181Y-124662384D01*
X7525181Y-110662385D02*
X21525181Y-110662385D01*
X-11474819Y-110662385D02*
X-11474819Y-124662384D01*
X252835233Y-81460237D02*
X256458700Y-94983198D01*
X279793224Y-54566618D02*
X283416690Y-68089579D01*
X238106109Y-99900760D02*
X251629071Y-96277294D01*
X269893729Y-71713046D02*
X283416690Y-68089579D01*
X266270262Y-58190084D02*
X269893729Y-71713046D01*
X271187824Y-76542675D02*
X284710786Y-72919208D01*
X284710786Y-72919208D02*
X288334252Y-86442170D01*
X256458700Y-94983198D02*
X269981661Y-91359732D01*
X229565081Y-68025208D02*
X233188547Y-81548170D01*
X234482643Y-86377799D02*
X238106109Y-99900760D01*
X274811291Y-90065637D02*
X288334252Y-86442170D01*
X2525181Y-110662385D02*
X2525181Y-124662384D01*
X271187824Y-76542675D02*
X274811291Y-90065637D01*
X229565081Y-68025208D02*
X243088042Y-64401741D01*
X252835233Y-81460237D02*
X266358195Y-77836770D01*
X251541138Y-76630608D02*
X265064100Y-73007141D01*
X233188547Y-81548170D02*
X246711509Y-77924703D01*
X266358195Y-77836770D02*
X269981661Y-91359732D01*
X-11474819Y-110662385D02*
X2525181Y-110662385D01*
X261440633Y-59484180D02*
X265064100Y-73007141D01*
X234482643Y-86377799D02*
X248005604Y-82754332D01*
X247917671Y-63107646D02*
X261440633Y-59484180D01*
X-11474819Y-162662384D02*
X2525181Y-162662384D01*
X40525181Y-148662384D02*
X40525181Y-162662384D01*
X45525181Y-124662384D02*
X59525181Y-124662384D01*
X21525181Y-129662384D02*
X21525181Y-143662384D01*
X64525181Y-110662385D02*
X78525181Y-110662385D01*
X64525181Y-148662384D02*
X64525181Y-162662384D01*
X7525181Y-148662384D02*
X21525181Y-148662384D01*
X-11474819Y-129662384D02*
X-11474819Y-143662384D01*
X-11474819Y-148662384D02*
X2525181Y-148662384D01*
X7525181Y-148662384D02*
X7525181Y-162662384D01*
X45525181Y-129662384D02*
X45525181Y-143662384D01*
X83525181Y-143662384D02*
X97525181Y-143662384D01*
X45525181Y-143662384D02*
X59525181Y-143662384D01*
X64525181Y-124662384D02*
X78525181Y-124662384D01*
X83525181Y-129662384D02*
X83525181Y-143662384D01*
X78525181Y-148662384D02*
X78525181Y-162662384D01*
X7525181Y-129662384D02*
X7525181Y-143662384D01*
X26525181Y-129662384D02*
X40525181Y-129662384D01*
X40525181Y-129662384D02*
X40525181Y-143662384D01*
X59525181Y-110662385D02*
X59525181Y-124662384D01*
X64525181Y-129662384D02*
X78525181Y-129662384D01*
X83525181Y-110662385D02*
X97525181Y-110662385D01*
X64525181Y-129662384D02*
X64525181Y-143662384D01*
X83525181Y-124662384D02*
X97525181Y-124662384D01*
X59525181Y-129662384D02*
X59525181Y-143662384D01*
X45525181Y-162662384D02*
X59525181Y-162662384D01*
X64525181Y-143662384D02*
X78525181Y-143662384D01*
X21525181Y-110662385D02*
X21525181Y-124662384D01*
X-11474819Y-148662384D02*
X-11474819Y-162662384D01*
X83525181Y-110662385D02*
X83525181Y-124662384D01*
X2525181Y-148662384D02*
X2525181Y-162662384D01*
X-11474819Y-143662384D02*
X2525181Y-143662384D01*
X97525181Y-129662384D02*
X97525181Y-143662384D01*
X26525181Y-129662384D02*
X26525181Y-143662384D01*
X83525181Y-129662384D02*
X97525181Y-129662384D01*
X40525181Y-110662385D02*
X40525181Y-124662384D01*
X7525181Y-129662384D02*
X21525181Y-129662384D01*
X21525181Y-148662384D02*
X21525181Y-162662384D01*
X7525181Y-162662384D02*
X21525181Y-162662384D01*
X64525181Y-162662384D02*
X78525181Y-162662384D01*
X26525181Y-162662384D02*
X40525181Y-162662384D01*
X78525181Y-129662384D02*
X78525181Y-143662384D01*
X45525181Y-148662384D02*
X59525181Y-148662384D01*
X45525181Y-110662385D02*
X45525181Y-124662384D01*
X7525181Y-124662384D02*
X21525181Y-124662384D01*
X45525181Y-148662384D02*
X45525181Y-162662384D01*
X7525181Y-110662385D02*
X7525181Y-124662384D01*
X7525181Y-143662384D02*
X21525181Y-143662384D01*
X64525181Y-148662384D02*
X78525181Y-148662384D01*
X26525181Y-110662385D02*
X40525181Y-110662385D01*
X64525181Y-110662385D02*
X64525181Y-124662384D01*
X45525181Y-110662385D02*
X59525181Y-110662385D01*
X26525181Y-124662384D02*
X40525181Y-124662384D01*
X2525181Y-129662384D02*
X2525181Y-143662384D01*
X-11474819Y-129662384D02*
X2525181Y-129662384D01*
X59525181Y-148662384D02*
X59525181Y-162662384D01*
X78525181Y-110662385D02*
X78525181Y-124662384D01*
X26525181Y-110662385D02*
X26525181Y-124662384D01*
X26525181Y-148662384D02*
X26525181Y-162662384D01*
X26525181Y-143662384D02*
X40525181Y-143662384D01*
X26525181Y-148662384D02*
X40525181Y-148662384D01*
X45525181Y-129662384D02*
X59525181Y-129662384D01*
X97525181Y-110662385D02*
X97525181Y-124662384D01*
X102525181Y-129662384D02*
X116525181Y-129662384D01*
X124763553Y-104467562D02*
X112639197Y-111467562D01*
X134263553Y-120922043D02*
X141263552Y-133046399D01*
X143763552Y-137376526D02*
X150763552Y-149500882D01*
X160218035Y-127876526D02*
X167218035Y-140000882D01*
X160218035Y-127876526D02*
X148093679Y-134876526D01*
X141218035Y-94967562D02*
X129093680Y-101967562D01*
X150718035Y-111422044D02*
X138593679Y-118422043D01*
X138593679Y-118422043D02*
X145593679Y-130546399D01*
X124763553Y-104467562D02*
X131763553Y-116591916D01*
X148093679Y-134876526D02*
X155093679Y-147000882D01*
X122139197Y-127922043D02*
X129139197Y-140046399D01*
X150718035Y-111422044D02*
X157718035Y-123546399D01*
X141263552Y-133046399D02*
X129139197Y-140046399D01*
X131639197Y-144376526D02*
X138639196Y-156500882D01*
X150763552Y-149500882D02*
X138639196Y-156500882D01*
X167218035Y-140000882D02*
X155093679Y-147000882D01*
X131763553Y-116591916D02*
X119639197Y-123591916D01*
X134263553Y-120922043D02*
X122139197Y-127922043D01*
X143763552Y-137376526D02*
X131639197Y-144376526D01*
X157718035Y-123546399D02*
X145593679Y-130546399D01*
X112639197Y-111467562D02*
X119639197Y-123591916D01*
X129093680Y-101967562D02*
X136093680Y-114091916D01*
X148218035Y-107091917D02*
X136093680Y-114091916D01*
X141218035Y-94967562D02*
X148218035Y-107091917D01*
X164672517Y-97591917D02*
X152548162Y-104591917D01*
X174127000Y-75967562D02*
X162002644Y-82967562D01*
X223535965Y-85546400D02*
X211411610Y-92546400D01*
X243000110Y-44755055D02*
X246623576Y-58278017D01*
X207081483Y-95046400D02*
X194957127Y-102046400D01*
X216535965Y-73422044D02*
X223535965Y-85546400D01*
X226035965Y-89876527D02*
X233035965Y-102000883D01*
X183627000Y-92422044D02*
X190627000Y-104546400D01*
X178457127Y-73467562D02*
X185457127Y-85591917D01*
X187957127Y-89922044D02*
X194957127Y-102046400D01*
X224647519Y-49672617D02*
X228270985Y-63195579D01*
X261352700Y-39837494D02*
X274875662Y-36214027D01*
X243000110Y-44755055D02*
X256523071Y-41131589D01*
X274875662Y-36214027D02*
X278499128Y-49736989D01*
X197581483Y-78591917D02*
X185457127Y-85591917D01*
X209581483Y-99376527D02*
X197457127Y-106376527D01*
X194911610Y-63967562D02*
X201911610Y-76091917D01*
X204411610Y-80422044D02*
X211411610Y-92546400D01*
X176672517Y-118376526D02*
X183672517Y-130500882D01*
X256523071Y-41131589D02*
X260146538Y-54654550D01*
X167172517Y-101922044D02*
X155048162Y-108922044D01*
X190581483Y-66467562D02*
X178457127Y-73467562D01*
X209581483Y-99376527D02*
X216581483Y-111500883D01*
X207035965Y-56967562D02*
X194911610Y-63967562D01*
X157672517Y-85467562D02*
X145548162Y-92467562D01*
X213911610Y-96876527D02*
X220911610Y-109000883D01*
X145548162Y-92467562D02*
X152548162Y-104591917D01*
X216535965Y-73422044D02*
X204411610Y-80422044D01*
X197457127Y-106376527D02*
X204457127Y-118500882D01*
X157672517Y-85467562D02*
X164672517Y-97591917D01*
X176672517Y-118376526D02*
X164548162Y-125376526D01*
X171502644Y-99422044D02*
X178502644Y-111546400D01*
X193127000Y-108876527D02*
X181002644Y-115876526D01*
X214035965Y-69091917D02*
X201911610Y-76091917D01*
X233035965Y-102000883D02*
X220911610Y-109000883D01*
X238170480Y-46049151D02*
X241793947Y-59572112D01*
X261352700Y-39837494D02*
X264976167Y-53360455D01*
X200081483Y-82922044D02*
X207081483Y-95046400D01*
X228270985Y-63195579D02*
X241793947Y-59572112D01*
X167172517Y-101922044D02*
X174172517Y-114046399D01*
X162002644Y-82967562D02*
X169002644Y-95091917D01*
X181127000Y-88091917D02*
X169002644Y-95091917D01*
X174127000Y-75967562D02*
X181127000Y-88091917D01*
X183672517Y-130500882D02*
X171548162Y-137500882D01*
X183627000Y-92422044D02*
X171502644Y-99422044D01*
X246623576Y-58278017D02*
X260146538Y-54654550D01*
X155048162Y-108922044D02*
X162048162Y-121046399D01*
X207035965Y-56967562D02*
X214035965Y-69091917D01*
X174172517Y-114046399D02*
X162048162Y-121046399D01*
X200081483Y-82922044D02*
X187957127Y-89922044D01*
X216581483Y-111500883D02*
X204457127Y-118500882D01*
X266270262Y-58190084D02*
X279793224Y-54566618D01*
X164548162Y-125376526D02*
X171548162Y-137500882D01*
X190581483Y-66467562D02*
X197581483Y-78591917D01*
X193127000Y-108876527D02*
X200127000Y-121000882D01*
X226035965Y-89876527D02*
X213911610Y-96876527D01*
X264976167Y-53360455D02*
X278499128Y-49736989D01*
X224647519Y-49672617D02*
X238170480Y-46049151D01*
X200127000Y-121000882D02*
X188002644Y-128000882D01*
X181002644Y-115876526D02*
X188002644Y-128000882D01*
X190627000Y-104546400D02*
X178502644Y-111546400D01*
M02*
