M48
; DRILL file {KiCad (5.1.5)-3} date 19/04/2020 14:52:03
; FORMAT={-:-/ absolute / inch / decimal}
; #@! TF.CreationDate,2020-04-19T14:52:03+02:00
; #@! TF.GenerationSoftware,Kicad,Pcbnew,(5.1.5)-3
FMAT,2
INCH
T1C0.0157
T2C0.0320
T3C0.0402
T4C0.0433
T5C0.0512
T6C0.0579
T7C0.1890
T8C0.0689
T9C0.1570
%
G90
G05
T1
X1.4389Y-6.8815
X1.5077Y-6.9133
X1.6994Y-7.387
X1.7654Y-6.588
X2.1144Y-7.441
X2.1144Y-7.519
X2.2414Y-7.63
X2.2459Y-7.6923
X2.3464Y-7.631
X2.3469Y-7.6923
X2.5919Y-7.614
X3.7444Y-7.761
X3.7464Y-7.687
X3.76Y-7.518
X3.859Y-7.518
X3.8614Y-7.687
X3.8624Y-7.746
X5.1824Y-7.77
X5.1964Y-7.536
X5.2484Y-7.654
X5.3474Y-7.768
X5.3664Y-7.644
X5.3674Y-7.536
X6.7004Y-7.654
X6.7014Y-7.71
X6.7034Y-7.778
X6.8244Y-7.777
X6.8244Y-7.657
X6.8254Y-7.708
X8.4215Y-7.0104
X8.4532Y-7.0753
X8.482Y-7.1291
X8.5289Y-6.9484
X8.5666Y-7.0098
X8.5999Y-7.0633
X9.7259Y-6.2597
X9.7744Y-6.3517
X9.7878Y-6.441
X9.8113Y-6.2115
X9.8645Y-6.2997
X9.9117Y-6.3695
X11.0266Y-5.5306
X11.0638Y-5.605
X11.064Y-5.7134
X11.1176Y-5.4781
X11.1625Y-5.548
X11.2078Y-5.6304
X12.5917Y-4.9122
X12.6072Y-4.9972
X12.6209Y-5.0483
X12.7047Y-4.8819
X12.7149Y-4.9704
X12.7214Y-5.0214
T2
X13.8703Y-4.9242
X13.9479Y-5.214
X5.0429Y-7.1625
X5.0429Y-7.4625
X13.6752Y-4.1804
X13.7529Y-4.4701
X5.0426Y-7.9035
X5.0426Y-8.2035
X13.4821Y-3.4598
X13.5598Y-3.7496
X2.7879Y-6.4035
X2.7879Y-6.7035
X10.3498Y-6.2661
X10.4998Y-6.5259
X8.0314Y-6.7386
X8.1814Y-6.9984
X6.5299Y-6.4125
X6.5299Y-6.7125
X5.7889Y-7.1544
X5.7889Y-7.4544
X9.7004Y-6.6433
X9.8504Y-6.9031
X3.5439Y-6.4255
X3.5439Y-6.7255
X9.0576Y-7.0179
X9.2076Y-7.2777
X10.9889Y-5.881
X11.1389Y-6.1408
X5.7939Y-6.4125
X5.7939Y-6.7125
X12.105Y-3.834
X12.1827Y-4.1237
X2.8039Y-7.1625
X2.8039Y-7.4625
X4.2979Y-7.9065
X4.2979Y-8.2065
X4.2999Y-6.4065
X4.2999Y-6.7065
X13.0145Y-4.3574
X13.0922Y-4.6472
X11.6462Y-5.5176
X11.7962Y-5.7774
X12.295Y-4.5429
X12.3727Y-4.8327
X5.7939Y-7.9105
X5.7939Y-8.2105
X3.5469Y-7.9125
X3.5469Y-8.2125
X9.3305Y-5.9967
X9.4805Y-6.2565
X6.5389Y-7.9105
X6.5389Y-8.2105
X12.4897Y-5.2848
X12.5673Y-5.5746
X10.9191Y-4.2562
X11.0691Y-4.516
X9.597Y-4.9722
X9.747Y-5.232
X8.6786Y-6.3696
X8.8286Y-6.6294
X8.3054Y-5.719
X8.4554Y-5.9788
X7.2809Y-7.1544
X7.2809Y-7.4544
X10.2533Y-4.6129
X10.4033Y-4.8727
X8.4059Y-7.3872
X8.5559Y-7.6471
X13.2235Y-5.1027
X13.3012Y-5.3925
X7.2869Y-7.9085
X7.2869Y-8.2085
X11.2899Y-4.8885
X11.4399Y-5.1483
X4.2959Y-7.1545
X4.2959Y-7.4545
X8.9532Y-5.3531
X9.1032Y-5.6129
X6.5359Y-7.1715
X6.5359Y-7.4715
X9.9832Y-5.6371
X10.1332Y-5.897
X7.6553Y-6.0932
X7.8053Y-6.353
X5.0459Y-6.4365
X5.0459Y-6.7365
X10.6309Y-5.2609
X10.7809Y-5.5207
X12.8268Y-3.6375
X12.9044Y-3.9272
X2.8019Y-7.9155
X2.8019Y-8.2155
X3.5476Y-7.1585
X3.5476Y-7.4585
T3
X1.4999Y-7.7715
X1.5999Y-7.7715
X1.6999Y-7.7715
X1.7999Y-7.7715
T4
X1.3466Y-6.382
X1.3466Y-6.482
X1.3466Y-6.582
X1.3466Y-6.682
X1.3466Y-6.782
X1.3466Y-6.882
X1.3466Y-6.982
X1.3466Y-7.082
X1.3466Y-7.182
X1.3466Y-7.282
X1.3466Y-7.382
X1.3466Y-7.482
X1.9466Y-6.382
X1.9466Y-6.482
X1.9466Y-6.582
X1.9466Y-6.682
X1.9466Y-6.782
X1.9466Y-6.882
X1.9466Y-6.982
X1.9466Y-7.082
X1.9466Y-7.182
X1.9466Y-7.282
X1.9466Y-7.382
X1.9466Y-7.482
T5
X1.3294Y-7.922
X1.3294Y-8.1779
T6
X3.0249Y-7.2052
X3.2749Y-7.1052
X5.2674Y-7.2055
X5.5174Y-7.1055
X8.2552Y-6.6766
X8.4217Y-6.465
X10.5729Y-6.2026
X10.7394Y-5.991
X11.6128Y-4.0179
X11.8284Y-3.8566
X7.8808Y-6.0294
X8.0473Y-5.8178
X3.7733Y-7.2071
X4.0233Y-7.1071
X6.0154Y-7.9528
X6.2654Y-7.8528
X8.5288Y-5.655
X8.6953Y-5.4434
X10.8462Y-5.1794
X11.0127Y-4.9678
X12.7234Y-5.2702
X12.939Y-5.1089
X12.0006Y-5.4631
X12.2162Y-5.3018
X8.6284Y-7.3247
X8.7949Y-7.1131
X10.471Y-4.5325
X10.6375Y-4.3209
X3.7729Y-6.4567
X4.0229Y-6.3567
X4.5198Y-7.954
X4.7698Y-7.854
X5.267Y-6.4567
X5.517Y-6.3567
X5.2674Y-7.9544
X5.5174Y-7.8544
X9.278Y-6.951
X9.4445Y-6.7394
X11.8076Y-4.7407
X12.0232Y-4.5794
X8.9025Y-6.3026
X9.069Y-6.091
X9.1761Y-5.2806
X9.3426Y-5.069
X11.2202Y-5.8282
X11.3867Y-5.6166
X2.2761Y-6.4575
X2.5261Y-6.3575
X3.0249Y-7.9548
X3.2749Y-7.8548
X6.015Y-6.4579
X6.265Y-6.3579
X9.5501Y-5.929
X9.7166Y-5.7174
X12.5289Y-4.547
X12.7445Y-4.3857
X2.2761Y-7.2063
X2.5261Y-7.1063
X3.7737Y-7.9548
X4.0237Y-7.8548
X6.0154Y-7.2059
X6.2654Y-7.1059
X10.1985Y-5.555
X10.365Y-5.3434
X13.058Y-3.6308
X13.2736Y-3.4696
X13.251Y-4.3533
X13.4666Y-4.192
X2.2757Y-7.9544
X2.5257Y-7.8544
X4.519Y-6.4575
X4.769Y-6.3575
X6.7631Y-7.9532
X7.0131Y-7.8532
X9.9245Y-6.5774
X10.091Y-6.3658
X13.4453Y-5.0771
X13.6609Y-4.9158
X6.7635Y-7.2052
X7.0135Y-7.1052
X3.0249Y-6.4571
X3.2749Y-6.3571
X4.5198Y-7.2055
X4.7698Y-7.1055
X7.98Y-7.6987
X8.1465Y-7.4871
X9.8245Y-4.9061
X9.991Y-4.6945
X12.3356Y-3.8238
X12.5512Y-3.6625
X7.6072Y-7.0506
X7.7737Y-6.839
X7.2324Y-6.4022
X7.3989Y-6.1906
T7
X3.5484Y-7.688
X7.6184Y-8.237
X6.8684Y-6.513
X11.6944Y-5.303
X3.5394Y-6.937
X11.2144Y-4.106
T8
X3.7233Y-7.3071
X4.1233Y-7.3071
X5.9654Y-8.0528
X6.3654Y-8.0528
X8.5355Y-5.7666
X8.8819Y-5.5666
X10.8529Y-5.291
X11.1993Y-5.091
X12.701Y-5.3798
X13.0874Y-5.2762
X11.9781Y-5.5727
X12.3645Y-5.4691
X8.6351Y-7.4363
X8.9815Y-7.2363
X10.4777Y-4.6441
X10.8241Y-4.4441
X3.7229Y-6.5567
X4.1229Y-6.5567
X4.4698Y-8.054
X4.8698Y-8.054
X5.217Y-6.5567
X5.617Y-6.5567
X5.2174Y-8.0544
X5.6174Y-8.0544
X9.2847Y-7.0626
X9.6312Y-6.8626
X11.7852Y-4.8502
X12.1716Y-4.7467
X8.9092Y-6.4142
X9.2556Y-6.2142
X9.1828Y-5.3922
X9.5292Y-5.1922
X11.2269Y-5.9398
X11.5733Y-5.7398
X2.2261Y-6.5575
X2.6261Y-6.5575
X2.9749Y-8.0548
X3.3749Y-8.0548
X5.965Y-6.5579
X6.365Y-6.5579
X9.5568Y-6.0406
X9.9032Y-5.8406
X12.5065Y-4.6565
X12.8929Y-4.553
X2.2261Y-7.3063
X2.6261Y-7.3063
X3.7237Y-8.0548
X4.1237Y-8.0548
X5.9654Y-7.3059
X6.3654Y-7.3059
X10.2052Y-5.6666
X10.5516Y-5.4666
X13.0356Y-3.7404
X13.422Y-3.6369
X13.2285Y-4.4628
X13.6149Y-4.3593
X2.2257Y-8.0544
X2.6257Y-8.0544
X4.469Y-6.5575
X4.869Y-6.5575
X6.7131Y-8.0532
X7.1131Y-8.0532
X9.9312Y-6.689
X10.2776Y-6.489
X13.4229Y-5.1866
X13.8093Y-5.0831
X6.7135Y-7.3052
X7.1135Y-7.3052
X2.9749Y-6.5571
X3.3749Y-6.5571
X4.4698Y-7.3055
X4.8698Y-7.3055
X7.9867Y-7.8103
X8.3331Y-7.6103
X9.8312Y-5.0178
X10.1776Y-4.8178
X12.3132Y-3.9333
X12.6996Y-3.8298
X7.6139Y-7.1622
X7.9603Y-6.9622
X7.2391Y-6.5138
X7.5855Y-6.3138
X2.9749Y-7.3052
X3.3749Y-7.3052
X5.2174Y-7.3055
X5.6174Y-7.3055
X8.2619Y-6.7882
X8.6083Y-6.5882
X10.5796Y-6.3142
X10.926Y-6.1142
X11.5904Y-4.1274
X11.9767Y-4.0239
X7.8875Y-6.141
X8.2339Y-5.941
T9
X3.1749Y-7.3052
X5.4174Y-7.3055
X8.4351Y-6.6882
X10.7528Y-6.2142
X11.7835Y-4.0756
X8.0607Y-6.041
X3.9233Y-7.3071
X6.1654Y-8.0528
X8.7087Y-5.6666
X11.0261Y-5.191
X12.8942Y-5.328
X12.1713Y-5.5209
X8.8083Y-7.3363
X10.6509Y-4.5441
X3.9229Y-6.5567
X4.6698Y-8.054
X5.417Y-6.5567
X5.4174Y-8.0544
X9.4579Y-6.9626
X11.9784Y-4.7985
X9.0824Y-6.3142
X9.356Y-5.2922
X11.4001Y-5.8398
X2.4261Y-6.5575
X3.1749Y-8.0548
X6.165Y-6.5579
X9.73Y-5.9406
X12.6997Y-4.6048
X2.4261Y-7.3063
X3.9237Y-8.0548
X6.1654Y-7.3059
X10.3784Y-5.5666
X13.2288Y-3.6886
X13.4217Y-4.4111
X2.4257Y-8.0544
X4.669Y-6.5575
X6.9131Y-8.0532
X10.1044Y-6.589
X13.6161Y-5.1349
X6.9135Y-7.3052
X3.1749Y-6.5571
X4.6698Y-7.3055
X8.1599Y-7.7103
X10.0044Y-4.9178
X12.5064Y-3.8815
X7.7871Y-7.0622
X7.4123Y-6.4138
T0
M30
