M48
; DRILL file {KiCad (5.1.5)-3} date 28/03/2020 17:36:58
; FORMAT={-:-/ absolute / inch / decimal}
; #@! TF.CreationDate,2020-03-28T17:36:58+01:00
; #@! TF.GenerationSoftware,Kicad,Pcbnew,(5.1.5)-3
FMAT,2
INCH
T1C0.0157
T2C0.0315
T3C0.0402
T4C0.0433
T5C0.0579
T6C0.0689
T7C0.1570
%
G90
G05
T1
X2.1925Y-5.685
X2.2125Y-5.5925
X2.46Y-6.27
X5.1414Y-7.1427
X6.6864Y-7.0837
X8.1289Y-7.0762
X9.4787Y-6.4128
X10.7707Y-5.6957
X12.0473Y-4.9268
X13.4634Y-4.4208
T2
X8.0027Y-6.7111
X8.0027Y-7.0111
X10.9777Y-3.4263
X11.1277Y-3.6861
X14.2001Y-2.2663
X14.2777Y-2.5561
X12.0077Y-3.7013
X12.1577Y-3.9611
X4.2627Y-5.9561
X4.2627Y-6.2561
X5.0127Y-6.7111
X5.0127Y-7.0111
X13.2101Y-4.0913
X13.2877Y-4.3811
X5.7577Y-5.9611
X5.7577Y-6.2611
X8.7427Y-5.5363
X8.8927Y-5.7961
X6.5077Y-6.7111
X6.5077Y-7.0111
X12.8201Y-2.6363
X12.8977Y-2.9261
X9.7727Y-5.8213
X9.9227Y-6.0811
X5.0127Y-5.2161
X5.0127Y-5.5161
X13.9351Y-3.9013
X14.0127Y-4.1911
X6.5077Y-5.2161
X6.5077Y-5.5161
X7.2509Y-5.9711
X7.2509Y-6.2711
X9.0227Y-4.5263
X9.1727Y-4.7861
X10.0527Y-4.8063
X10.2027Y-5.0661
X11.0677Y-5.0713
X11.2177Y-5.3311
X13.5401Y-2.4413
X13.6177Y-2.7311
X11.3527Y-4.0713
X11.5027Y-4.3311
X14.3901Y-2.9863
X14.4677Y-3.2761
X12.3627Y-4.3213
X12.5127Y-4.5811
X3.5177Y-5.9611
X3.5177Y-6.2611
X4.2627Y-6.7111
X4.2627Y-7.0111
X10.3277Y-3.7913
X10.4777Y-4.0511
X8.0027Y-5.9711
X8.0027Y-6.2711
X5.7577Y-6.7111
X5.7577Y-7.0111
X3.507Y-5.2161
X3.507Y-5.5161
X9.1227Y-6.1913
X9.2727Y-6.4511
X11.6327Y-3.0613
X11.7827Y-3.3211
X13.0151Y-3.3613
X13.0927Y-3.6511
X4.2627Y-5.2161
X4.2627Y-5.5161
X5.0127Y-5.9561
X5.0127Y-6.2561
X5.7577Y-5.2161
X5.7577Y-5.5161
X8.3777Y-4.9063
X8.5277Y-5.1661
X6.5077Y-5.9661
X6.5077Y-6.2661
X7.2527Y-6.7111
X7.2527Y-7.0111
X9.3977Y-5.1713
X9.5477Y-5.4311
X10.4177Y-5.4463
X10.5677Y-5.7061
X13.7351Y-3.1663
X13.8127Y-3.4561
X11.7127Y-4.6963
X11.8627Y-4.9561
X14.5851Y-3.7263
X14.6627Y-4.0161
X7.2527Y-5.2161
X7.2527Y-5.5161
X3.5177Y-6.7161
X3.5177Y-7.0161
X9.6727Y-4.1613
X9.8227Y-4.4211
X10.7027Y-4.4413
X10.8527Y-4.7011
T3
X2.215Y-6.575
X2.315Y-6.575
X2.415Y-6.575
X2.515Y-6.575
T4
X2.0617Y-5.1855
X2.0617Y-5.2855
X2.0617Y-5.3855
X2.0617Y-5.4855
X2.0617Y-5.5855
X2.0617Y-5.6855
X2.0617Y-5.7855
X2.0617Y-5.8855
X2.0617Y-5.9855
X2.0617Y-6.0855
X2.0617Y-6.1855
X2.0617Y-6.2855
X2.6617Y-5.1855
X2.6617Y-5.2855
X2.6617Y-5.3855
X2.6617Y-5.4855
X2.6617Y-5.5855
X2.6617Y-5.6855
X2.6617Y-5.7855
X2.6617Y-5.8855
X2.6617Y-5.9855
X2.6617Y-6.0855
X2.6617Y-6.1855
X2.6617Y-6.2855
T5
X10.2652Y-4.7325
X10.4317Y-4.5209
X2.9912Y-6.0098
X3.2412Y-5.9098
X11.9353Y-4.6317
X12.1018Y-4.4201
X5.9822Y-5.2602
X6.2322Y-5.1602
X7.4782Y-6.7567
X7.7282Y-6.6567
X13.9661Y-3.1568
X14.1817Y-2.9955
X9.6176Y-5.1061
X9.7841Y-4.8945
X11.1861Y-3.336
X11.3526Y-3.1244
X5.2349Y-6.0091
X5.4849Y-5.9091
X6.7306Y-6.7563
X6.9806Y-6.6563
X13.4385Y-4.0737
X13.6541Y-3.9124
X9.3436Y-6.1282
X9.5101Y-5.9166
X8.3223Y-5.8542
X8.4888Y-5.6425
X10.9137Y-4.3585
X11.0802Y-4.1469
X4.4888Y-6.7583
X4.7388Y-6.6583
X3.74Y-6.0087
X3.99Y-5.9087
X12.7157Y-4.2666
X12.9313Y-4.1053
X6.7302Y-5.2614
X6.9802Y-5.1614
X8.5959Y-4.8329
X8.7625Y-4.6213
X9.8912Y-4.0841
X10.0577Y-3.8725
X10.6396Y-5.3809
X10.8062Y-5.1693
X3.74Y-6.7583
X3.99Y-6.6583
X2.9908Y-6.7579
X3.2408Y-6.6579
X12.3279Y-2.8214
X12.5435Y-2.6601
X5.9825Y-6.0091
X6.2325Y-5.9091
X7.9475Y-5.2057
X8.114Y-4.9941
X14.1605Y-3.8806
X14.3761Y-3.7193
X9.9932Y-5.7545
X10.1597Y-5.5429
X2.9912Y-5.261
X3.2412Y-5.161
X11.5613Y-3.9829
X11.7278Y-3.7713
X5.2349Y-6.7575
X5.4849Y-6.6575
X7.4786Y-6.0087
X7.7286Y-5.9087
X13.7732Y-2.4344
X13.9888Y-2.2731
X9.244Y-4.4585
X9.4105Y-4.2469
X11.2881Y-5.0061
X11.4546Y-4.7945
X5.2341Y-5.261
X5.4841Y-5.161
X13.0508Y-2.6273
X13.2664Y-2.466
X6.7306Y-6.0095
X6.9806Y-5.9095
X13.2441Y-3.3505
X13.4597Y-3.1892
X8.9704Y-5.4801
X9.1369Y-5.2685
X10.5396Y-3.7097
X10.7062Y-3.4981
X4.4885Y-6.0106
X4.7385Y-5.9106
X3.74Y-5.2606
X3.99Y-5.1606
X12.5228Y-3.5442
X12.7384Y-3.3829
X5.9825Y-6.7579
X6.2325Y-6.6579
X8.6952Y-6.5022
X8.8617Y-6.2906
X4.4881Y-5.2602
X4.7381Y-5.1602
T6
X11.942Y-4.7433
X12.2884Y-4.5433
X5.9322Y-5.3602
X6.3322Y-5.3602
X7.4282Y-6.8567
X7.8282Y-6.8567
X13.9437Y-3.2663
X14.3301Y-3.1628
X9.6243Y-5.2177
X9.9707Y-5.0177
X11.1928Y-3.4476
X11.5392Y-3.2476
X5.1849Y-6.1091
X5.5849Y-6.1091
X6.6806Y-6.8563
X7.0806Y-6.8563
X13.4161Y-4.1833
X13.8025Y-4.0797
X9.3503Y-6.2398
X9.6967Y-6.0398
X8.329Y-5.9658
X8.6754Y-5.7658
X10.9204Y-4.4701
X11.2668Y-4.2701
X4.4388Y-6.8583
X4.8388Y-6.8583
X3.69Y-6.1087
X4.09Y-6.1087
X12.6933Y-4.3762
X13.0797Y-4.2727
X6.6802Y-5.3614
X7.0802Y-5.3614
X8.6026Y-4.9445
X8.9491Y-4.7445
X9.8979Y-4.1957
X10.2443Y-3.9957
X10.6463Y-5.4925
X10.9928Y-5.2925
X3.69Y-6.8583
X4.09Y-6.8583
X2.9408Y-6.8579
X3.3408Y-6.8579
X12.3055Y-2.9309
X12.6919Y-2.8274
X5.9325Y-6.1091
X6.3325Y-6.1091
X7.9542Y-5.3173
X8.3006Y-5.1173
X14.1381Y-3.9902
X14.5244Y-3.8866
X9.9999Y-5.8661
X10.3463Y-5.6661
X2.9412Y-5.361
X3.3412Y-5.361
X11.568Y-4.0945
X11.9144Y-3.8945
X5.1849Y-6.8575
X5.5849Y-6.8575
X7.4286Y-6.1087
X7.8286Y-6.1087
X13.7508Y-2.5439
X14.1371Y-2.4404
X9.2507Y-4.5701
X9.5971Y-4.3701
X11.2948Y-5.1177
X11.6412Y-4.9177
X5.1841Y-5.361
X5.5841Y-5.361
X13.0283Y-2.7368
X13.4147Y-2.6333
X6.6806Y-6.1095
X7.0806Y-6.1095
X13.2216Y-3.46
X13.608Y-3.3565
X8.9771Y-5.5917
X9.3235Y-5.3917
X10.5463Y-3.8213
X10.8928Y-3.6213
X4.4385Y-6.1106
X4.8385Y-6.1106
X3.69Y-5.3606
X4.09Y-5.3606
X12.5004Y-3.6537
X12.8868Y-3.5502
X5.9325Y-6.8579
X6.3325Y-6.8579
X8.7019Y-6.6138
X9.0483Y-6.4138
X4.4381Y-5.3602
X4.8381Y-5.3602
X10.2719Y-4.8441
X10.6183Y-4.6441
X2.9412Y-6.1098
X3.3412Y-6.1098
T7
X3.1412Y-5.361
X11.7412Y-3.9945
X5.3849Y-6.8575
X7.6286Y-6.1087
X13.944Y-2.4921
X9.4239Y-4.4701
X11.468Y-5.0177
X5.3841Y-5.361
X13.2215Y-2.685
X6.8806Y-6.1095
X13.4148Y-3.4083
X9.1503Y-5.4917
X10.7196Y-3.7213
X4.6385Y-6.1106
X3.89Y-5.3606
X12.6936Y-3.602
X6.1325Y-6.8579
X8.8751Y-6.5138
X4.6381Y-5.3602
X10.4451Y-4.7441
X3.1412Y-6.1098
X12.1152Y-4.6433
X6.1322Y-5.3602
X7.6282Y-6.8567
X14.1369Y-3.2146
X9.7975Y-5.1177
X11.366Y-3.3476
X5.3849Y-6.1091
X6.8806Y-6.8563
X13.6093Y-4.1315
X9.5235Y-6.1398
X8.5022Y-5.8658
X11.0936Y-4.3701
X4.6388Y-6.8583
X3.89Y-6.1087
X12.8865Y-4.3244
X6.8802Y-5.3614
X8.7759Y-4.8445
X10.0711Y-4.0957
X10.8196Y-5.3925
X3.89Y-6.8583
X3.1408Y-6.8579
X12.4987Y-2.8791
X6.1325Y-6.1091
X8.1274Y-5.2173
X14.3312Y-3.9384
X10.1731Y-5.7661
T0
M30
