  0
SECTION
  2
HEADER
  9
$ANGBASE
  50
0.0
  9
$ANGDIR
  70
1
  9
$MEASUREMENT
  70
0
  0
ENDSEC
  0
SECTION
  2
TABLES
  0
TABLE
  2
LTYPE
  70
4
  0
LTYPE
  5
40F
  2
CONTINUOUS
  70
0
  3
Solid line
  72
65
  73
0
  40
0.0
  0
LTYPE
  5
410
  2
DASHDOT
 70
0
  3
Dash Dot ____ _ ____ _
 72
65
 73
4
 40
2.0
 49
1.25
 49
-0.25
 49
0.25
 49
-0.25
  0
LTYPE
  5
411
  2
DASHED
 70
0
  3
Dashed __ __ __ __ __
 72
65
 73
2
 40
0.75
 49
0.5
 49
-0.25
  0
LTYPE
  5
43B
  2
DOTTED
 70
0
  3
Dotted .  .  .  .
 72
65
 73
2
 40
0.2
 49
0.0
 49
-0.2
  0
ENDTAB
  0
TABLE
  2
STYLE
  70
4
  0
STYLE
  2
KICAD
  70
0
  40
0
  41
1
  42
1
  50
0
  71
0
  3
isocp.shx
  0
STYLE
  2
KICADB
  70
0
  40
0
  41
1
  42
1
  50
0
  71
0
  3
isocp.shx
  0
STYLE
  2
KICADI
  70
0
  40
0
  41
1
  42
1
  50
15
  71
0
  3
isocp.shx
  0
STYLE
  2
KICADBI
  70
0
  40
0
  41
1
  42
1
  50
15
  71
0
  3
isocp.shx
  0
ENDTAB
  0
TABLE
  2
LAYER
  70
1
  0
LAYER
  2
BLACK
  70
0
  62
7
  6
CONTINUOUS
  0
ENDTAB
  0
ENDSEC
  0
SECTION
  2
ENTITIES
0
LINE
8
BLACK
6
CONTINUOUS
10
1.25004
20
-8.41161
11
1.24999
21
-8.41151
0
LINE
8
BLACK
6
CONTINUOUS
10
1.24999
20
-8.41151
11
1.24995
21
-8.41144
0
LINE
8
BLACK
6
CONTINUOUS
10
1.24995
20
-8.41144
11
1.24993
21
-8.41138
0
LINE
8
BLACK
6
CONTINUOUS
10
1.24993
20
-8.41138
11
1.24989
21
-8.41125
0
LINE
8
BLACK
6
CONTINUOUS
10
1.24989
20
-8.41125
11
1.24989
21
-8.41125
0
LINE
8
BLACK
6
CONTINUOUS
10
1.24989
20
-8.41125
11
1.24989
21
-8.41125
0
LINE
8
BLACK
6
CONTINUOUS
10
1.24989
20
-8.41125
11
1.24989
21
-8.41125
0
LINE
8
BLACK
6
CONTINUOUS
10
1.24989
20
-8.41125
11
1.24987
21
-8.41106
0
LINE
8
BLACK
6
CONTINUOUS
10
1.24987
20
-8.41106
11
1.24988
21
-8.41101
0
LINE
8
BLACK
6
CONTINUOUS
10
1.24988
20
-8.41101
11
1.24948
21
-6.20048
0
LINE
8
BLACK
6
CONTINUOUS
10
1.24948
20
-6.20048
11
1.24948
21
-6.20043
0
LINE
8
BLACK
6
CONTINUOUS
10
1.24948
20
-6.20043
11
1.24948
21
-6.20035
0
LINE
8
BLACK
6
CONTINUOUS
10
1.24948
20
-6.20035
11
1.2495
21
-6.20024
0
LINE
8
BLACK
6
CONTINUOUS
10
1.2495
20
-6.20024
11
1.2495
21
-6.20024
0
LINE
8
BLACK
6
CONTINUOUS
10
1.2495
20
-6.20024
11
1.24955
21
-6.20005
0
LINE
8
BLACK
6
CONTINUOUS
10
1.24955
20
-6.20005
11
1.2496
21
-6.19997
0
LINE
8
BLACK
6
CONTINUOUS
10
1.2496
20
-6.19997
11
1.24964
21
-6.19988
0
LINE
8
BLACK
6
CONTINUOUS
10
1.24964
20
-6.19988
11
1.24977
21
-6.19973
0
LINE
8
BLACK
6
CONTINUOUS
10
1.24977
20
-6.19973
11
1.24977
21
-6.19973
0
LINE
8
BLACK
6
CONTINUOUS
10
1.24977
20
-6.19973
11
1.24992
21
-6.19961
0
LINE
8
BLACK
6
CONTINUOUS
10
1.24992
20
-6.19961
11
1.25002
21
-6.19955
0
LINE
8
BLACK
6
CONTINUOUS
10
1.25002
20
-6.19955
11
1.25009
21
-6.19952
0
LINE
8
BLACK
6
CONTINUOUS
10
1.25009
20
-6.19952
11
1.25027
21
-6.19946
0
LINE
8
BLACK
6
CONTINUOUS
10
1.25027
20
-6.19946
11
1.25047
21
-6.19944
0
LINE
8
BLACK
6
CONTINUOUS
10
1.25047
20
-6.19944
11
1.25051
21
-6.19944
0
LINE
8
BLACK
6
CONTINUOUS
10
1.25051
20
-6.19944
11
7.06949
21
-6.19905
0
LINE
8
BLACK
6
CONTINUOUS
10
7.06949
20
-6.19905
11
11.1086
21
-3.8669
0
LINE
8
BLACK
6
CONTINUOUS
10
11.1086
20
-3.8669
11
11.1087
21
-3.86686
0
LINE
8
BLACK
6
CONTINUOUS
10
11.1087
20
-3.86686
11
11.1088
21
-3.86684
0
LINE
8
BLACK
6
CONTINUOUS
10
11.1088
20
-3.86684
11
11.1088
21
-3.86682
0
LINE
8
BLACK
6
CONTINUOUS
10
11.1088
20
-3.86682
11
11.1089
21
-3.8668
0
LINE
8
BLACK
6
CONTINUOUS
10
11.1089
20
-3.8668
11
13.4817
21
-3.24949
0
LINE
8
BLACK
6
CONTINUOUS
10
13.4817
20
-3.24949
11
13.4817
21
-3.24947
0
LINE
8
BLACK
6
CONTINUOUS
10
13.4817
20
-3.24947
11
13.4818
21
-3.24947
0
LINE
8
BLACK
6
CONTINUOUS
10
13.4818
20
-3.24947
11
13.4818
21
-3.24946
0
LINE
8
BLACK
6
CONTINUOUS
10
13.4818
20
-3.24946
11
13.4818
21
-3.24946
0
LINE
8
BLACK
6
CONTINUOUS
10
13.4818
20
-3.24946
11
13.4819
21
-3.24944
0
LINE
8
BLACK
6
CONTINUOUS
10
13.4819
20
-3.24944
11
13.4819
21
-3.24944
0
LINE
8
BLACK
6
CONTINUOUS
10
13.4819
20
-3.24944
11
13.4819
21
-3.24944
0
LINE
8
BLACK
6
CONTINUOUS
10
13.4819
20
-3.24944
11
13.482
21
-3.24945
0
LINE
8
BLACK
6
CONTINUOUS
10
13.482
20
-3.24945
11
13.4821
21
-3.24945
0
LINE
8
BLACK
6
CONTINUOUS
10
13.4821
20
-3.24945
11
13.4821
21
-3.24945
0
LINE
8
BLACK
6
CONTINUOUS
10
13.4821
20
-3.24945
11
13.4821
21
-3.24945
0
LINE
8
BLACK
6
CONTINUOUS
10
13.4821
20
-3.24945
11
13.4822
21
-3.24947
0
LINE
8
BLACK
6
CONTINUOUS
10
13.4822
20
-3.24947
11
13.4823
21
-3.24949
0
LINE
8
BLACK
6
CONTINUOUS
10
13.4823
20
-3.24949
11
13.4823
21
-3.24949
0
LINE
8
BLACK
6
CONTINUOUS
10
13.4823
20
-3.24949
11
13.4823
21
-3.24949
0
LINE
8
BLACK
6
CONTINUOUS
10
13.4823
20
-3.24949
11
13.4824
21
-3.24953
0
LINE
8
BLACK
6
CONTINUOUS
10
13.4824
20
-3.24953
11
13.4825
21
-3.24957
0
LINE
8
BLACK
6
CONTINUOUS
10
13.4825
20
-3.24957
11
13.4825
21
-3.24957
0
LINE
8
BLACK
6
CONTINUOUS
10
13.4825
20
-3.24957
11
13.4825
21
-3.24958
0
LINE
8
BLACK
6
CONTINUOUS
10
13.4825
20
-3.24958
11
13.4825
21
-3.24963
0
LINE
8
BLACK
6
CONTINUOUS
10
13.4825
20
-3.24963
11
13.4826
21
-3.24969
0
LINE
8
BLACK
6
CONTINUOUS
10
13.4826
20
-3.24969
11
13.4826
21
-3.24969
0
LINE
8
BLACK
6
CONTINUOUS
10
13.4826
20
-3.24969
11
13.4826
21
-3.24969
0
LINE
8
BLACK
6
CONTINUOUS
10
13.4826
20
-3.24969
11
13.4827
21
-3.24976
0
LINE
8
BLACK
6
CONTINUOUS
10
13.4827
20
-3.24976
11
13.4827
21
-3.24983
0
LINE
8
BLACK
6
CONTINUOUS
10
13.4827
20
-3.24983
11
13.4827
21
-3.24983
0
LINE
8
BLACK
6
CONTINUOUS
10
13.4827
20
-3.24983
11
13.4828
21
-3.24983
0
LINE
8
BLACK
6
CONTINUOUS
10
13.4828
20
-3.24983
11
13.4828
21
-3.24991
0
LINE
8
BLACK
6
CONTINUOUS
10
13.4828
20
-3.24991
11
13.4828
21
-3.24999
0
LINE
8
BLACK
6
CONTINUOUS
10
13.4828
20
-3.24999
11
13.4829
21
-3.24999
0
LINE
8
BLACK
6
CONTINUOUS
10
13.4829
20
-3.24999
11
13.4829
21
-3.25
0
LINE
8
BLACK
6
CONTINUOUS
10
13.4829
20
-3.25
11
13.4829
21
-3.25009
0
LINE
8
BLACK
6
CONTINUOUS
10
13.4829
20
-3.25009
11
13.4829
21
-3.25013
0
LINE
8
BLACK
6
CONTINUOUS
10
13.4829
20
-3.25013
11
13.4829
21
-3.25013
0
LINE
8
BLACK
6
CONTINUOUS
10
13.4829
20
-3.25013
11
13.4829
21
-3.25018
0
LINE
8
BLACK
6
CONTINUOUS
10
13.4829
20
-3.25018
11
13.4829
21
-3.25022
0
LINE
8
BLACK
6
CONTINUOUS
10
13.4829
20
-3.25022
11
14.0549
21
-5.38596
0
LINE
8
BLACK
6
CONTINUOUS
10
14.0549
20
-5.38596
11
14.055
21
-5.386
0
LINE
8
BLACK
6
CONTINUOUS
10
14.055
20
-5.386
11
14.055
21
-5.38605
0
LINE
8
BLACK
6
CONTINUOUS
10
14.055
20
-5.38605
11
14.055
21
-5.38605
0
LINE
8
BLACK
6
CONTINUOUS
10
14.055
20
-5.38605
11
14.055
21
-5.38619
0
LINE
8
BLACK
6
CONTINUOUS
10
14.055
20
-5.38619
11
14.055
21
-5.38638
0
LINE
8
BLACK
6
CONTINUOUS
10
14.055
20
-5.38638
11
14.055
21
-5.38653
0
LINE
8
BLACK
6
CONTINUOUS
10
14.055
20
-5.38653
11
14.0549
21
-5.38657
0
LINE
8
BLACK
6
CONTINUOUS
10
14.0549
20
-5.38657
11
14.0549
21
-5.38675
0
LINE
8
BLACK
6
CONTINUOUS
10
14.0549
20
-5.38675
11
14.0548
21
-5.38691
0
LINE
8
BLACK
6
CONTINUOUS
10
14.0548
20
-5.38691
11
14.0547
21
-5.38698
0
LINE
8
BLACK
6
CONTINUOUS
10
14.0547
20
-5.38698
11
14.0546
21
-5.38704
0
LINE
8
BLACK
6
CONTINUOUS
10
14.0546
20
-5.38704
11
14.0545
21
-5.3871
0
LINE
8
BLACK
6
CONTINUOUS
10
14.0545
20
-5.3871
11
14.0544
21
-5.38714
0
LINE
8
BLACK
6
CONTINUOUS
10
14.0544
20
-5.38714
11
14.0543
21
-5.38719
0
LINE
8
BLACK
6
CONTINUOUS
10
14.0543
20
-5.38719
11
14.0543
21
-5.38721
0
LINE
8
BLACK
6
CONTINUOUS
10
14.0543
20
-5.38721
11
14.0542
21
-5.38722
0
LINE
8
BLACK
6
CONTINUOUS
10
14.0542
20
-5.38722
11
11.9024
21
-5.96355
0
LINE
8
BLACK
6
CONTINUOUS
10
11.9024
20
-5.96355
11
7.66835
21
-8.41187
0
LINE
8
BLACK
6
CONTINUOUS
10
7.66835
20
-8.41187
11
7.66834
21
-8.41188
0
LINE
8
BLACK
6
CONTINUOUS
10
7.66834
20
-8.41188
11
7.66827
21
-8.41192
0
LINE
8
BLACK
6
CONTINUOUS
10
7.66827
20
-8.41192
11
7.66824
21
-8.41194
0
LINE
8
BLACK
6
CONTINUOUS
10
7.66824
20
-8.41194
11
7.66823
21
-8.41194
0
LINE
8
BLACK
6
CONTINUOUS
10
7.66823
20
-8.41194
11
7.66817
21
-8.41197
0
LINE
8
BLACK
6
CONTINUOUS
10
7.66817
20
-8.41197
11
7.66814
21
-8.41198
0
LINE
8
BLACK
6
CONTINUOUS
10
7.66814
20
-8.41198
11
7.66811
21
-8.412
0
LINE
8
BLACK
6
CONTINUOUS
10
7.66811
20
-8.412
11
7.66804
21
-8.41201
0
LINE
8
BLACK
6
CONTINUOUS
10
7.66804
20
-8.41201
11
7.66798
21
-8.41203
0
LINE
8
BLACK
6
CONTINUOUS
10
7.66798
20
-8.41203
11
7.66795
21
-8.41203
0
LINE
8
BLACK
6
CONTINUOUS
10
7.66795
20
-8.41203
11
7.66792
21
-8.41204
0
LINE
8
BLACK
6
CONTINUOUS
10
7.66792
20
-8.41204
11
7.66785
21
-8.41204
0
LINE
8
BLACK
6
CONTINUOUS
10
7.66785
20
-8.41204
11
7.66784
21
-8.41204
0
LINE
8
BLACK
6
CONTINUOUS
10
7.66784
20
-8.41204
11
7.6678
21
-8.41204
0
LINE
8
BLACK
6
CONTINUOUS
10
7.6678
20
-8.41204
11
7.66773
21
-8.41205
0
LINE
8
BLACK
6
CONTINUOUS
10
7.66773
20
-8.41205
11
7.66771
21
-8.41204
0
LINE
8
BLACK
6
CONTINUOUS
10
7.66771
20
-8.41204
11
1.25091
21
-8.41204
0
LINE
8
BLACK
6
CONTINUOUS
10
1.25091
20
-8.41204
11
1.25086
21
-8.41205
0
LINE
8
BLACK
6
CONTINUOUS
10
1.25086
20
-8.41205
11
1.25067
21
-8.41203
0
LINE
8
BLACK
6
CONTINUOUS
10
1.25067
20
-8.41203
11
1.25067
21
-8.41203
0
LINE
8
BLACK
6
CONTINUOUS
10
1.25067
20
-8.41203
11
1.25067
21
-8.41203
0
LINE
8
BLACK
6
CONTINUOUS
10
1.25067
20
-8.41203
11
1.25062
21
-8.41201
0
LINE
8
BLACK
6
CONTINUOUS
10
1.25062
20
-8.41201
11
1.25048
21
-8.41197
0
LINE
8
BLACK
6
CONTINUOUS
10
1.25048
20
-8.41197
11
1.25031
21
-8.41188
0
LINE
8
BLACK
6
CONTINUOUS
10
1.25031
20
-8.41188
11
1.25016
21
-8.41176
0
LINE
8
BLACK
6
CONTINUOUS
10
1.25016
20
-8.41176
11
1.25016
21
-8.41176
0
LINE
8
BLACK
6
CONTINUOUS
10
1.25016
20
-8.41176
11
1.25004
21
-8.41161
0
LINE
8
BLACK
6
CONTINUOUS
10
11.1095
20
-3.86867
11
7.07032
21
-6.20085
0
LINE
8
BLACK
6
CONTINUOUS
10
7.07032
20
-6.20085
11
7.07031
21
-6.20086
0
LINE
8
BLACK
6
CONTINUOUS
10
7.07031
20
-6.20086
11
7.07024
21
-6.2009
0
LINE
8
BLACK
6
CONTINUOUS
10
7.07024
20
-6.2009
11
7.07021
21
-6.20091
0
LINE
8
BLACK
6
CONTINUOUS
10
7.07021
20
-6.20091
11
7.07019
21
-6.20092
0
LINE
8
BLACK
6
CONTINUOUS
10
7.07019
20
-6.20092
11
7.07014
21
-6.20095
0
LINE
8
BLACK
6
CONTINUOUS
10
7.07014
20
-6.20095
11
7.07011
21
-6.20096
0
LINE
8
BLACK
6
CONTINUOUS
10
7.07011
20
-6.20096
11
7.07008
21
-6.20097
0
LINE
8
BLACK
6
CONTINUOUS
10
7.07008
20
-6.20097
11
7.07001
21
-6.20099
0
LINE
8
BLACK
6
CONTINUOUS
10
7.07001
20
-6.20099
11
7.06995
21
-6.20101
0
LINE
8
BLACK
6
CONTINUOUS
10
7.06995
20
-6.20101
11
7.06992
21
-6.20101
0
LINE
8
BLACK
6
CONTINUOUS
10
7.06992
20
-6.20101
11
7.06989
21
-6.20102
0
LINE
8
BLACK
6
CONTINUOUS
10
7.06989
20
-6.20102
11
7.06982
21
-6.20102
0
LINE
8
BLACK
6
CONTINUOUS
10
7.06982
20
-6.20102
11
7.06981
21
-6.20102
0
LINE
8
BLACK
6
CONTINUOUS
10
7.06981
20
-6.20102
11
7.06977
21
-6.20102
0
LINE
8
BLACK
6
CONTINUOUS
10
7.06977
20
-6.20102
11
7.06969
21
-6.20102
0
LINE
8
BLACK
6
CONTINUOUS
10
7.06969
20
-6.20102
11
7.06968
21
-6.20102
0
LINE
8
BLACK
6
CONTINUOUS
10
7.06968
20
-6.20102
11
1.25145
21
-6.20141
0
LINE
8
BLACK
6
CONTINUOUS
10
1.25145
20
-6.20141
11
1.25184
21
-8.41007
0
LINE
8
BLACK
6
CONTINUOUS
10
1.25184
20
-8.41007
11
7.66752
21
-8.41007
0
LINE
8
BLACK
6
CONTINUOUS
10
7.66752
20
-8.41007
11
11.9015
21
-5.96179
0
LINE
8
BLACK
6
CONTINUOUS
10
11.9015
20
-5.96179
11
11.9016
21
-5.96175
0
LINE
8
BLACK
6
CONTINUOUS
10
11.9016
20
-5.96175
11
11.9017
21
-5.96172
0
LINE
8
BLACK
6
CONTINUOUS
10
11.9017
20
-5.96172
11
11.9017
21
-5.9617
0
LINE
8
BLACK
6
CONTINUOUS
10
11.9017
20
-5.9617
11
11.9018
21
-5.96168
0
LINE
8
BLACK
6
CONTINUOUS
10
11.9018
20
-5.96168
11
14.0528
21
-5.38556
0
LINE
8
BLACK
6
CONTINUOUS
10
14.0528
20
-5.38556
11
13.4813
21
-3.25163
0
LINE
8
BLACK
6
CONTINUOUS
10
13.4813
20
-3.25163
11
11.1095
21
-3.86867
0
LINE
8
BLACK
6
CONTINUOUS
10
7.56069
20
-7.66012
11
7.56071
21
-7.66017
0
LINE
8
BLACK
6
CONTINUOUS
10
7.56071
20
-7.66017
11
7.56071
21
-7.66017
0
LINE
8
BLACK
6
CONTINUOUS
10
7.56071
20
-7.66017
11
7.56073
21
-7.66021
0
LINE
8
BLACK
6
CONTINUOUS
10
7.56073
20
-7.66021
11
7.56074
21
-7.66026
0
LINE
8
BLACK
6
CONTINUOUS
10
7.56074
20
-7.66026
11
7.60002
21
-7.77026
0
LINE
8
BLACK
6
CONTINUOUS
10
7.60002
20
-7.77026
11
7.60004
21
-7.7703
0
LINE
8
BLACK
6
CONTINUOUS
10
7.60004
20
-7.7703
11
7.60006
21
-7.77035
0
LINE
8
BLACK
6
CONTINUOUS
10
7.60006
20
-7.77035
11
7.60006
21
-7.77035
0
LINE
8
BLACK
6
CONTINUOUS
10
7.60006
20
-7.77035
11
7.60007
21
-7.7704
0
LINE
8
BLACK
6
CONTINUOUS
10
7.60007
20
-7.7704
11
7.60009
21
-7.77049
0
LINE
8
BLACK
6
CONTINUOUS
10
7.60009
20
-7.77049
11
7.60009
21
-7.77049
0
LINE
8
BLACK
6
CONTINUOUS
10
7.60009
20
-7.77049
11
7.60009
21
-7.77049
0
LINE
8
BLACK
6
CONTINUOUS
10
7.60009
20
-7.77049
11
7.6001
21
-7.77059
0
LINE
8
BLACK
6
CONTINUOUS
10
7.6001
20
-7.77059
11
7.6001
21
-7.77068
0
LINE
8
BLACK
6
CONTINUOUS
10
7.6001
20
-7.77068
11
7.6001
21
-7.77068
0
LINE
8
BLACK
6
CONTINUOUS
10
7.6001
20
-7.77068
11
7.6001
21
-7.77069
0
LINE
8
BLACK
6
CONTINUOUS
10
7.6001
20
-7.77069
11
7.60009
21
-7.77078
0
LINE
8
BLACK
6
CONTINUOUS
10
7.60009
20
-7.77078
11
7.60008
21
-7.77087
0
LINE
8
BLACK
6
CONTINUOUS
10
7.60008
20
-7.77087
11
7.60007
21
-7.77088
0
LINE
8
BLACK
6
CONTINUOUS
10
7.60007
20
-7.77088
11
7.60007
21
-7.77088
0
LINE
8
BLACK
6
CONTINUOUS
10
7.60007
20
-7.77088
11
7.60004
21
-7.77096
0
LINE
8
BLACK
6
CONTINUOUS
10
7.60004
20
-7.77096
11
7.60001
21
-7.77105
0
LINE
8
BLACK
6
CONTINUOUS
10
7.60001
20
-7.77105
11
7.60001
21
-7.77106
0
LINE
8
BLACK
6
CONTINUOUS
10
7.60001
20
-7.77106
11
7.60001
21
-7.77106
0
LINE
8
BLACK
6
CONTINUOUS
10
7.60001
20
-7.77106
11
7.59996
21
-7.77114
0
LINE
8
BLACK
6
CONTINUOUS
10
7.59996
20
-7.77114
11
7.59991
21
-7.77122
0
LINE
8
BLACK
6
CONTINUOUS
10
7.59991
20
-7.77122
11
7.59991
21
-7.77123
0
LINE
8
BLACK
6
CONTINUOUS
10
7.59991
20
-7.77123
11
7.59991
21
-7.77123
0
LINE
8
BLACK
6
CONTINUOUS
10
7.59991
20
-7.77123
11
7.59985
21
-7.77129
0
LINE
8
BLACK
6
CONTINUOUS
10
7.59985
20
-7.77129
11
7.59978
21
-7.77137
0
LINE
8
BLACK
6
CONTINUOUS
10
7.59978
20
-7.77137
11
7.59978
21
-7.77137
0
LINE
8
BLACK
6
CONTINUOUS
10
7.59978
20
-7.77137
11
7.59978
21
-7.77137
0
LINE
8
BLACK
6
CONTINUOUS
10
7.59978
20
-7.77137
11
7.59971
21
-7.77142
0
LINE
8
BLACK
6
CONTINUOUS
10
7.59971
20
-7.77142
11
7.59963
21
-7.77148
0
LINE
8
BLACK
6
CONTINUOUS
10
7.59963
20
-7.77148
11
7.59963
21
-7.77149
0
LINE
8
BLACK
6
CONTINUOUS
10
7.59963
20
-7.77149
11
7.59962
21
-7.77149
0
LINE
8
BLACK
6
CONTINUOUS
10
7.59962
20
-7.77149
11
7.59954
21
-7.77152
0
LINE
8
BLACK
6
CONTINUOUS
10
7.59954
20
-7.77152
11
7.5995
21
-7.77155
0
LINE
8
BLACK
6
CONTINUOUS
10
7.5995
20
-7.77155
11
7.59949
21
-7.77155
0
LINE
8
BLACK
6
CONTINUOUS
10
7.59949
20
-7.77155
11
7.59945
21
-7.77157
0
LINE
8
BLACK
6
CONTINUOUS
10
7.59945
20
-7.77157
11
7.5994
21
-7.77158
0
LINE
8
BLACK
6
CONTINUOUS
10
7.5994
20
-7.77158
11
7.47368
21
-7.81763
0
LINE
8
BLACK
6
CONTINUOUS
10
7.47368
20
-7.81763
11
7.47362
21
-7.81765
0
LINE
8
BLACK
6
CONTINUOUS
10
7.47362
20
-7.81765
11
7.47354
21
-7.81767
0
LINE
8
BLACK
6
CONTINUOUS
10
7.47354
20
-7.81767
11
7.47345
21
-7.8177
0
LINE
8
BLACK
6
CONTINUOUS
10
7.47345
20
-7.8177
11
7.47344
21
-7.8177
0
LINE
8
BLACK
6
CONTINUOUS
10
7.47344
20
-7.8177
11
7.47344
21
-7.8177
0
LINE
8
BLACK
6
CONTINUOUS
10
7.47344
20
-7.8177
11
7.47335
21
-7.8177
0
LINE
8
BLACK
6
CONTINUOUS
10
7.47335
20
-7.8177
11
7.47326
21
-7.81771
0
LINE
8
BLACK
6
CONTINUOUS
10
7.47326
20
-7.81771
11
7.47325
21
-7.81771
0
LINE
8
BLACK
6
CONTINUOUS
10
7.47325
20
-7.81771
11
7.47324
21
-7.81771
0
LINE
8
BLACK
6
CONTINUOUS
10
7.47324
20
-7.81771
11
7.47315
21
-7.81769
0
LINE
8
BLACK
6
CONTINUOUS
10
7.47315
20
-7.81769
11
7.47307
21
-7.81768
0
LINE
8
BLACK
6
CONTINUOUS
10
7.47307
20
-7.81768
11
7.47306
21
-7.81768
0
LINE
8
BLACK
6
CONTINUOUS
10
7.47306
20
-7.81768
11
7.47305
21
-7.81768
0
LINE
8
BLACK
6
CONTINUOUS
10
7.47305
20
-7.81768
11
7.47297
21
-7.81765
0
LINE
8
BLACK
6
CONTINUOUS
10
7.47297
20
-7.81765
11
7.47288
21
-7.81762
0
LINE
8
BLACK
6
CONTINUOUS
10
7.47288
20
-7.81762
11
7.47288
21
-7.81761
0
LINE
8
BLACK
6
CONTINUOUS
10
7.47288
20
-7.81761
11
7.47287
21
-7.81761
0
LINE
8
BLACK
6
CONTINUOUS
10
7.47287
20
-7.81761
11
7.47279
21
-7.81756
0
LINE
8
BLACK
6
CONTINUOUS
10
7.47279
20
-7.81756
11
7.47272
21
-7.81752
0
LINE
8
BLACK
6
CONTINUOUS
10
7.47272
20
-7.81752
11
7.47271
21
-7.81751
0
LINE
8
BLACK
6
CONTINUOUS
10
7.47271
20
-7.81751
11
7.4727
21
-7.81751
0
LINE
8
BLACK
6
CONTINUOUS
10
7.4727
20
-7.81751
11
7.47264
21
-7.81745
0
LINE
8
BLACK
6
CONTINUOUS
10
7.47264
20
-7.81745
11
7.47257
21
-7.81739
0
LINE
8
BLACK
6
CONTINUOUS
10
7.47257
20
-7.81739
11
7.47257
21
-7.81738
0
LINE
8
BLACK
6
CONTINUOUS
10
7.47257
20
-7.81738
11
7.47256
21
-7.81738
0
LINE
8
BLACK
6
CONTINUOUS
10
7.47256
20
-7.81738
11
7.47251
21
-7.81731
0
LINE
8
BLACK
6
CONTINUOUS
10
7.47251
20
-7.81731
11
7.47245
21
-7.81724
0
LINE
8
BLACK
6
CONTINUOUS
10
7.47245
20
-7.81724
11
7.47245
21
-7.81723
0
LINE
8
BLACK
6
CONTINUOUS
10
7.47245
20
-7.81723
11
7.47245
21
-7.81722
0
LINE
8
BLACK
6
CONTINUOUS
10
7.47245
20
-7.81722
11
7.47241
21
-7.81714
0
LINE
8
BLACK
6
CONTINUOUS
10
7.47241
20
-7.81714
11
7.47237
21
-7.81706
0
LINE
8
BLACK
6
CONTINUOUS
10
7.47237
20
-7.81706
11
7.47236
21
-7.81701
0
LINE
8
BLACK
6
CONTINUOUS
10
7.47236
20
-7.81701
11
7.43344
21
-7.70563
0
LINE
8
BLACK
6
CONTINUOUS
10
7.43344
20
-7.70563
11
7.43342
21
-7.70559
0
LINE
8
BLACK
6
CONTINUOUS
10
7.43342
20
-7.70559
11
7.43341
21
-7.70554
0
LINE
8
BLACK
6
CONTINUOUS
10
7.43341
20
-7.70554
11
7.43341
21
-7.70554
0
LINE
8
BLACK
6
CONTINUOUS
10
7.43341
20
-7.70554
11
7.4334
21
-7.7055
0
LINE
8
BLACK
6
CONTINUOUS
10
7.4334
20
-7.7055
11
7.43337
21
-7.70541
0
LINE
8
BLACK
6
CONTINUOUS
10
7.43337
20
-7.70541
11
7.43337
21
-7.7054
0
LINE
8
BLACK
6
CONTINUOUS
10
7.43337
20
-7.7054
11
7.43337
21
-7.7054
0
LINE
8
BLACK
6
CONTINUOUS
10
7.43337
20
-7.7054
11
7.43337
21
-7.70531
0
LINE
8
BLACK
6
CONTINUOUS
10
7.43337
20
-7.70531
11
7.43336
21
-7.70521
0
LINE
8
BLACK
6
CONTINUOUS
10
7.43336
20
-7.70521
11
7.43336
21
-7.70521
0
LINE
8
BLACK
6
CONTINUOUS
10
7.43336
20
-7.70521
11
7.43336
21
-7.70521
0
LINE
8
BLACK
6
CONTINUOUS
10
7.43336
20
-7.70521
11
7.43338
21
-7.70511
0
LINE
8
BLACK
6
CONTINUOUS
10
7.43338
20
-7.70511
11
7.43339
21
-7.70502
0
LINE
8
BLACK
6
CONTINUOUS
10
7.43339
20
-7.70502
11
7.43339
21
-7.70502
0
LINE
8
BLACK
6
CONTINUOUS
10
7.43339
20
-7.70502
11
7.43339
21
-7.70501
0
LINE
8
BLACK
6
CONTINUOUS
10
7.43339
20
-7.70501
11
7.43343
21
-7.70492
0
LINE
8
BLACK
6
CONTINUOUS
10
7.43343
20
-7.70492
11
7.43346
21
-7.70484
0
LINE
8
BLACK
6
CONTINUOUS
10
7.43346
20
-7.70484
11
7.43346
21
-7.70483
0
LINE
8
BLACK
6
CONTINUOUS
10
7.43346
20
-7.70483
11
7.43346
21
-7.70483
0
LINE
8
BLACK
6
CONTINUOUS
10
7.43346
20
-7.70483
11
7.43351
21
-7.70475
0
LINE
8
BLACK
6
CONTINUOUS
10
7.43351
20
-7.70475
11
7.43356
21
-7.70467
0
LINE
8
BLACK
6
CONTINUOUS
10
7.43356
20
-7.70467
11
7.43356
21
-7.70467
0
LINE
8
BLACK
6
CONTINUOUS
10
7.43356
20
-7.70467
11
7.43356
21
-7.70467
0
LINE
8
BLACK
6
CONTINUOUS
10
7.43356
20
-7.70467
11
7.43362
21
-7.7046
0
LINE
8
BLACK
6
CONTINUOUS
10
7.43362
20
-7.7046
11
7.43369
21
-7.70453
0
LINE
8
BLACK
6
CONTINUOUS
10
7.43369
20
-7.70453
11
7.43369
21
-7.70453
0
LINE
8
BLACK
6
CONTINUOUS
10
7.43369
20
-7.70453
11
7.43369
21
-7.70452
0
LINE
8
BLACK
6
CONTINUOUS
10
7.43369
20
-7.70452
11
7.43377
21
-7.70447
0
LINE
8
BLACK
6
CONTINUOUS
10
7.43377
20
-7.70447
11
7.43384
21
-7.70441
0
LINE
8
BLACK
6
CONTINUOUS
10
7.43384
20
-7.70441
11
7.43385
21
-7.70441
0
LINE
8
BLACK
6
CONTINUOUS
10
7.43385
20
-7.70441
11
7.43385
21
-7.70441
0
LINE
8
BLACK
6
CONTINUOUS
10
7.43385
20
-7.70441
11
7.43393
21
-7.70437
0
LINE
8
BLACK
6
CONTINUOUS
10
7.43393
20
-7.70437
11
7.43398
21
-7.70435
0
LINE
8
BLACK
6
CONTINUOUS
10
7.43398
20
-7.70435
11
7.43398
21
-7.70435
0
LINE
8
BLACK
6
CONTINUOUS
10
7.43398
20
-7.70435
11
7.43402
21
-7.70433
0
LINE
8
BLACK
6
CONTINUOUS
10
7.43402
20
-7.70433
11
7.43407
21
-7.70432
0
LINE
8
BLACK
6
CONTINUOUS
10
7.43407
20
-7.70432
11
7.55943
21
-7.65963
0
LINE
8
BLACK
6
CONTINUOUS
10
7.55943
20
-7.65963
11
7.55947
21
-7.65961
0
LINE
8
BLACK
6
CONTINUOUS
10
7.55947
20
-7.65961
11
7.55951
21
-7.6596
0
LINE
8
BLACK
6
CONTINUOUS
10
7.55951
20
-7.6596
11
7.55952
21
-7.6596
0
LINE
8
BLACK
6
CONTINUOUS
10
7.55952
20
-7.6596
11
7.55958
21
-7.65959
0
LINE
8
BLACK
6
CONTINUOUS
10
7.55958
20
-7.65959
11
7.55966
21
-7.65957
0
LINE
8
BLACK
6
CONTINUOUS
10
7.55966
20
-7.65957
11
7.55966
21
-7.65957
0
LINE
8
BLACK
6
CONTINUOUS
10
7.55966
20
-7.65957
11
7.55966
21
-7.65957
0
LINE
8
BLACK
6
CONTINUOUS
10
7.55966
20
-7.65957
11
7.55974
21
-7.65956
0
LINE
8
BLACK
6
CONTINUOUS
10
7.55974
20
-7.65956
11
7.55985
21
-7.65956
0
LINE
8
BLACK
6
CONTINUOUS
10
7.55985
20
-7.65956
11
7.55985
21
-7.65956
0
LINE
8
BLACK
6
CONTINUOUS
10
7.55985
20
-7.65956
11
7.55985
21
-7.65956
0
LINE
8
BLACK
6
CONTINUOUS
10
7.55985
20
-7.65956
11
7.55995
21
-7.65957
0
LINE
8
BLACK
6
CONTINUOUS
10
7.55995
20
-7.65957
11
7.56004
21
-7.65959
0
LINE
8
BLACK
6
CONTINUOUS
10
7.56004
20
-7.65959
11
7.56004
21
-7.65959
0
LINE
8
BLACK
6
CONTINUOUS
10
7.56004
20
-7.65959
11
7.56004
21
-7.65959
0
LINE
8
BLACK
6
CONTINUOUS
10
7.56004
20
-7.65959
11
7.56013
21
-7.65962
0
LINE
8
BLACK
6
CONTINUOUS
10
7.56013
20
-7.65962
11
7.56022
21
-7.65965
0
LINE
8
BLACK
6
CONTINUOUS
10
7.56022
20
-7.65965
11
7.56022
21
-7.65965
0
LINE
8
BLACK
6
CONTINUOUS
10
7.56022
20
-7.65965
11
7.56022
21
-7.65965
0
LINE
8
BLACK
6
CONTINUOUS
10
7.56022
20
-7.65965
11
7.56027
21
-7.65968
0
LINE
8
BLACK
6
CONTINUOUS
10
7.56027
20
-7.65968
11
7.56039
21
-7.65975
0
LINE
8
BLACK
6
CONTINUOUS
10
7.56039
20
-7.65975
11
7.56039
21
-7.65975
0
LINE
8
BLACK
6
CONTINUOUS
10
7.56039
20
-7.65975
11
7.56039
21
-7.65975
0
LINE
8
BLACK
6
CONTINUOUS
10
7.56039
20
-7.65975
11
7.56043
21
-7.65979
0
LINE
8
BLACK
6
CONTINUOUS
10
7.56043
20
-7.65979
11
7.56053
21
-7.65988
0
LINE
8
BLACK
6
CONTINUOUS
10
7.56053
20
-7.65988
11
7.56053
21
-7.65988
0
LINE
8
BLACK
6
CONTINUOUS
10
7.56053
20
-7.65988
11
7.56053
21
-7.65988
0
LINE
8
BLACK
6
CONTINUOUS
10
7.56053
20
-7.65988
11
7.56059
21
-7.65996
0
LINE
8
BLACK
6
CONTINUOUS
10
7.56059
20
-7.65996
11
7.56065
21
-7.66004
0
LINE
8
BLACK
6
CONTINUOUS
10
7.56065
20
-7.66004
11
7.56065
21
-7.66004
0
LINE
8
BLACK
6
CONTINUOUS
10
7.56065
20
-7.66004
11
7.56069
21
-7.66012
0
LINE
8
BLACK
6
CONTINUOUS
10
7.4356
20
-7.70586
11
7.4739
21
-7.81545
0
LINE
8
BLACK
6
CONTINUOUS
10
7.4739
20
-7.81545
11
7.59786
21
-7.77005
0
LINE
8
BLACK
6
CONTINUOUS
10
7.59786
20
-7.77005
11
7.5592
21
-7.6618
0
LINE
8
BLACK
6
CONTINUOUS
10
7.5592
20
-7.6618
11
7.4356
21
-7.70586
0
LINE
8
BLACK
6
CONTINUOUS
10
4.36491
20
-7.62148
11
4.36492
21
-7.62148
0
LINE
8
BLACK
6
CONTINUOUS
10
4.36492
20
-7.62148
11
4.36506
21
-7.62149
0
LINE
8
BLACK
6
CONTINUOUS
10
4.36506
20
-7.62149
11
4.36525
21
-7.62155
0
LINE
8
BLACK
6
CONTINUOUS
10
4.36525
20
-7.62155
11
4.36542
21
-7.62164
0
LINE
8
BLACK
6
CONTINUOUS
10
4.36542
20
-7.62164
11
4.36557
21
-7.62176
0
LINE
8
BLACK
6
CONTINUOUS
10
4.36557
20
-7.62176
11
4.36569
21
-7.62191
0
LINE
8
BLACK
6
CONTINUOUS
10
4.36569
20
-7.62191
11
4.36578
21
-7.62208
0
LINE
8
BLACK
6
CONTINUOUS
10
4.36578
20
-7.62208
11
4.36584
21
-7.62227
0
LINE
8
BLACK
6
CONTINUOUS
10
4.36584
20
-7.62227
11
4.36586
21
-7.62246
0
LINE
8
BLACK
6
CONTINUOUS
10
4.36586
20
-7.62246
11
4.36585
21
-7.62251
0
LINE
8
BLACK
6
CONTINUOUS
10
4.36585
20
-7.62251
11
4.36585
21
-7.74041
0
LINE
8
BLACK
6
CONTINUOUS
10
4.36585
20
-7.74041
11
4.36586
21
-7.74046
0
LINE
8
BLACK
6
CONTINUOUS
10
4.36586
20
-7.74046
11
4.36584
21
-7.74066
0
LINE
8
BLACK
6
CONTINUOUS
10
4.36584
20
-7.74066
11
4.36578
21
-7.74084
0
LINE
8
BLACK
6
CONTINUOUS
10
4.36578
20
-7.74084
11
4.36569
21
-7.74101
0
LINE
8
BLACK
6
CONTINUOUS
10
4.36569
20
-7.74101
11
4.36557
21
-7.74116
0
LINE
8
BLACK
6
CONTINUOUS
10
4.36557
20
-7.74116
11
4.36542
21
-7.74129
0
LINE
8
BLACK
6
CONTINUOUS
10
4.36542
20
-7.74129
11
4.36525
21
-7.74138
0
LINE
8
BLACK
6
CONTINUOUS
10
4.36525
20
-7.74138
11
4.36506
21
-7.74143
0
LINE
8
BLACK
6
CONTINUOUS
10
4.36506
20
-7.74143
11
4.36492
21
-7.74145
0
LINE
8
BLACK
6
CONTINUOUS
10
4.36492
20
-7.74145
11
4.36491
21
-7.74145
0
LINE
8
BLACK
6
CONTINUOUS
10
4.36491
20
-7.74145
11
4.36487
21
-7.74145
0
LINE
8
BLACK
6
CONTINUOUS
10
4.36487
20
-7.74145
11
4.36482
21
-7.74145
0
LINE
8
BLACK
6
CONTINUOUS
10
4.36482
20
-7.74145
11
4.23192
21
-7.74145
0
LINE
8
BLACK
6
CONTINUOUS
10
4.23192
20
-7.74145
11
4.23187
21
-7.74145
0
LINE
8
BLACK
6
CONTINUOUS
10
4.23187
20
-7.74145
11
4.23167
21
-7.74143
0
LINE
8
BLACK
6
CONTINUOUS
10
4.23167
20
-7.74143
11
4.23149
21
-7.74138
0
LINE
8
BLACK
6
CONTINUOUS
10
4.23149
20
-7.74138
11
4.23132
21
-7.74129
0
LINE
8
BLACK
6
CONTINUOUS
10
4.23132
20
-7.74129
11
4.23117
21
-7.74116
0
LINE
8
BLACK
6
CONTINUOUS
10
4.23117
20
-7.74116
11
4.23104
21
-7.74101
0
LINE
8
BLACK
6
CONTINUOUS
10
4.23104
20
-7.74101
11
4.23095
21
-7.74084
0
LINE
8
BLACK
6
CONTINUOUS
10
4.23095
20
-7.74084
11
4.2309
21
-7.74066
0
LINE
8
BLACK
6
CONTINUOUS
10
4.2309
20
-7.74066
11
4.23088
21
-7.74051
0
LINE
8
BLACK
6
CONTINUOUS
10
4.23088
20
-7.74051
11
4.23088
21
-7.74051
0
LINE
8
BLACK
6
CONTINUOUS
10
4.23088
20
-7.74051
11
4.23088
21
-7.74046
0
LINE
8
BLACK
6
CONTINUOUS
10
4.23088
20
-7.74046
11
4.23088
21
-7.74042
0
LINE
8
BLACK
6
CONTINUOUS
10
4.23088
20
-7.74042
11
4.23088
21
-7.62251
0
LINE
8
BLACK
6
CONTINUOUS
10
4.23088
20
-7.62251
11
4.23088
21
-7.62246
0
LINE
8
BLACK
6
CONTINUOUS
10
4.23088
20
-7.62246
11
4.2309
21
-7.62227
0
LINE
8
BLACK
6
CONTINUOUS
10
4.2309
20
-7.62227
11
4.23095
21
-7.62208
0
LINE
8
BLACK
6
CONTINUOUS
10
4.23095
20
-7.62208
11
4.23104
21
-7.62191
0
LINE
8
BLACK
6
CONTINUOUS
10
4.23104
20
-7.62191
11
4.23117
21
-7.62176
0
LINE
8
BLACK
6
CONTINUOUS
10
4.23117
20
-7.62176
11
4.23132
21
-7.62164
0
LINE
8
BLACK
6
CONTINUOUS
10
4.23132
20
-7.62164
11
4.23149
21
-7.62155
0
LINE
8
BLACK
6
CONTINUOUS
10
4.23149
20
-7.62155
11
4.23167
21
-7.62149
0
LINE
8
BLACK
6
CONTINUOUS
10
4.23167
20
-7.62149
11
4.23182
21
-7.62148
0
LINE
8
BLACK
6
CONTINUOUS
10
4.23182
20
-7.62148
11
4.23182
21
-7.62148
0
LINE
8
BLACK
6
CONTINUOUS
10
4.23182
20
-7.62148
11
4.23187
21
-7.62147
0
LINE
8
BLACK
6
CONTINUOUS
10
4.23187
20
-7.62147
11
4.23191
21
-7.62148
0
LINE
8
BLACK
6
CONTINUOUS
10
4.23191
20
-7.62148
11
4.36482
21
-7.62148
0
LINE
8
BLACK
6
CONTINUOUS
10
4.36482
20
-7.62148
11
4.36487
21
-7.62147
0
LINE
8
BLACK
6
CONTINUOUS
10
4.36487
20
-7.62147
11
4.36491
21
-7.62148
0
LINE
8
BLACK
6
CONTINUOUS
10
4.23285
20
-7.62345
11
4.23285
21
-7.73948
0
LINE
8
BLACK
6
CONTINUOUS
10
4.23285
20
-7.73948
11
4.36388
21
-7.73948
0
LINE
8
BLACK
6
CONTINUOUS
10
4.36388
20
-7.73948
11
4.36388
21
-7.62345
0
LINE
8
BLACK
6
CONTINUOUS
10
4.36388
20
-7.62345
11
4.23285
21
-7.62345
0
LINE
8
BLACK
6
CONTINUOUS
10
5.85791
20
-7.61948
11
5.85792
21
-7.61948
0
LINE
8
BLACK
6
CONTINUOUS
10
5.85792
20
-7.61948
11
5.85806
21
-7.61949
0
LINE
8
BLACK
6
CONTINUOUS
10
5.85806
20
-7.61949
11
5.85825
21
-7.61955
0
LINE
8
BLACK
6
CONTINUOUS
10
5.85825
20
-7.61955
11
5.85842
21
-7.61964
0
LINE
8
BLACK
6
CONTINUOUS
10
5.85842
20
-7.61964
11
5.85857
21
-7.61976
0
LINE
8
BLACK
6
CONTINUOUS
10
5.85857
20
-7.61976
11
5.85869
21
-7.61991
0
LINE
8
BLACK
6
CONTINUOUS
10
5.85869
20
-7.61991
11
5.85878
21
-7.62008
0
LINE
8
BLACK
6
CONTINUOUS
10
5.85878
20
-7.62008
11
5.85884
21
-7.62027
0
LINE
8
BLACK
6
CONTINUOUS
10
5.85884
20
-7.62027
11
5.85886
21
-7.62046
0
LINE
8
BLACK
6
CONTINUOUS
10
5.85886
20
-7.62046
11
5.85885
21
-7.62051
0
LINE
8
BLACK
6
CONTINUOUS
10
5.85885
20
-7.62051
11
5.85885
21
-7.73841
0
LINE
8
BLACK
6
CONTINUOUS
10
5.85885
20
-7.73841
11
5.85886
21
-7.73846
0
LINE
8
BLACK
6
CONTINUOUS
10
5.85886
20
-7.73846
11
5.85884
21
-7.73866
0
LINE
8
BLACK
6
CONTINUOUS
10
5.85884
20
-7.73866
11
5.85878
21
-7.73884
0
LINE
8
BLACK
6
CONTINUOUS
10
5.85878
20
-7.73884
11
5.85869
21
-7.73901
0
LINE
8
BLACK
6
CONTINUOUS
10
5.85869
20
-7.73901
11
5.85857
21
-7.73916
0
LINE
8
BLACK
6
CONTINUOUS
10
5.85857
20
-7.73916
11
5.85842
21
-7.73929
0
LINE
8
BLACK
6
CONTINUOUS
10
5.85842
20
-7.73929
11
5.85825
21
-7.73938
0
LINE
8
BLACK
6
CONTINUOUS
10
5.85825
20
-7.73938
11
5.85806
21
-7.73943
0
LINE
8
BLACK
6
CONTINUOUS
10
5.85806
20
-7.73943
11
5.85792
21
-7.73945
0
LINE
8
BLACK
6
CONTINUOUS
10
5.85792
20
-7.73945
11
5.85791
21
-7.73945
0
LINE
8
BLACK
6
CONTINUOUS
10
5.85791
20
-7.73945
11
5.85787
21
-7.73945
0
LINE
8
BLACK
6
CONTINUOUS
10
5.85787
20
-7.73945
11
5.85782
21
-7.73945
0
LINE
8
BLACK
6
CONTINUOUS
10
5.85782
20
-7.73945
11
5.72392
21
-7.73945
0
LINE
8
BLACK
6
CONTINUOUS
10
5.72392
20
-7.73945
11
5.72387
21
-7.73945
0
LINE
8
BLACK
6
CONTINUOUS
10
5.72387
20
-7.73945
11
5.72367
21
-7.73943
0
LINE
8
BLACK
6
CONTINUOUS
10
5.72367
20
-7.73943
11
5.72349
21
-7.73938
0
LINE
8
BLACK
6
CONTINUOUS
10
5.72349
20
-7.73938
11
5.72332
21
-7.73929
0
LINE
8
BLACK
6
CONTINUOUS
10
5.72332
20
-7.73929
11
5.72317
21
-7.73916
0
LINE
8
BLACK
6
CONTINUOUS
10
5.72317
20
-7.73916
11
5.72304
21
-7.73901
0
LINE
8
BLACK
6
CONTINUOUS
10
5.72304
20
-7.73901
11
5.72295
21
-7.73884
0
LINE
8
BLACK
6
CONTINUOUS
10
5.72295
20
-7.73884
11
5.7229
21
-7.73866
0
LINE
8
BLACK
6
CONTINUOUS
10
5.7229
20
-7.73866
11
5.72288
21
-7.73851
0
LINE
8
BLACK
6
CONTINUOUS
10
5.72288
20
-7.73851
11
5.72288
21
-7.73851
0
LINE
8
BLACK
6
CONTINUOUS
10
5.72288
20
-7.73851
11
5.72288
21
-7.73846
0
LINE
8
BLACK
6
CONTINUOUS
10
5.72288
20
-7.73846
11
5.72288
21
-7.73842
0
LINE
8
BLACK
6
CONTINUOUS
10
5.72288
20
-7.73842
11
5.72288
21
-7.62051
0
LINE
8
BLACK
6
CONTINUOUS
10
5.72288
20
-7.62051
11
5.72288
21
-7.62046
0
LINE
8
BLACK
6
CONTINUOUS
10
5.72288
20
-7.62046
11
5.7229
21
-7.62027
0
LINE
8
BLACK
6
CONTINUOUS
10
5.7229
20
-7.62027
11
5.72295
21
-7.62008
0
LINE
8
BLACK
6
CONTINUOUS
10
5.72295
20
-7.62008
11
5.72304
21
-7.61991
0
LINE
8
BLACK
6
CONTINUOUS
10
5.72304
20
-7.61991
11
5.72317
21
-7.61976
0
LINE
8
BLACK
6
CONTINUOUS
10
5.72317
20
-7.61976
11
5.72332
21
-7.61964
0
LINE
8
BLACK
6
CONTINUOUS
10
5.72332
20
-7.61964
11
5.72349
21
-7.61955
0
LINE
8
BLACK
6
CONTINUOUS
10
5.72349
20
-7.61955
11
5.72367
21
-7.61949
0
LINE
8
BLACK
6
CONTINUOUS
10
5.72367
20
-7.61949
11
5.72382
21
-7.61948
0
LINE
8
BLACK
6
CONTINUOUS
10
5.72382
20
-7.61948
11
5.72382
21
-7.61948
0
LINE
8
BLACK
6
CONTINUOUS
10
5.72382
20
-7.61948
11
5.72387
21
-7.61947
0
LINE
8
BLACK
6
CONTINUOUS
10
5.72387
20
-7.61947
11
5.72391
21
-7.61948
0
LINE
8
BLACK
6
CONTINUOUS
10
5.72391
20
-7.61948
11
5.85782
21
-7.61948
0
LINE
8
BLACK
6
CONTINUOUS
10
5.85782
20
-7.61948
11
5.85787
21
-7.61947
0
LINE
8
BLACK
6
CONTINUOUS
10
5.85787
20
-7.61947
11
5.85791
21
-7.61948
0
LINE
8
BLACK
6
CONTINUOUS
10
5.72485
20
-7.62145
11
5.72485
21
-7.73748
0
LINE
8
BLACK
6
CONTINUOUS
10
5.72485
20
-7.73748
11
5.85688
21
-7.73748
0
LINE
8
BLACK
6
CONTINUOUS
10
5.85688
20
-7.73748
11
5.85688
21
-7.62145
0
LINE
8
BLACK
6
CONTINUOUS
10
5.85688
20
-7.62145
11
5.72485
21
-7.62145
0
LINE
8
BLACK
6
CONTINUOUS
10
2.86691
20
-7.61848
11
2.86692
21
-7.61848
0
LINE
8
BLACK
6
CONTINUOUS
10
2.86692
20
-7.61848
11
2.86706
21
-7.61849
0
LINE
8
BLACK
6
CONTINUOUS
10
2.86706
20
-7.61849
11
2.86725
21
-7.61855
0
LINE
8
BLACK
6
CONTINUOUS
10
2.86725
20
-7.61855
11
2.86742
21
-7.61864
0
LINE
8
BLACK
6
CONTINUOUS
10
2.86742
20
-7.61864
11
2.86757
21
-7.61876
0
LINE
8
BLACK
6
CONTINUOUS
10
2.86757
20
-7.61876
11
2.86769
21
-7.61891
0
LINE
8
BLACK
6
CONTINUOUS
10
2.86769
20
-7.61891
11
2.86778
21
-7.61908
0
LINE
8
BLACK
6
CONTINUOUS
10
2.86778
20
-7.61908
11
2.86784
21
-7.61927
0
LINE
8
BLACK
6
CONTINUOUS
10
2.86784
20
-7.61927
11
2.86786
21
-7.61946
0
LINE
8
BLACK
6
CONTINUOUS
10
2.86786
20
-7.61946
11
2.86785
21
-7.61951
0
LINE
8
BLACK
6
CONTINUOUS
10
2.86785
20
-7.61951
11
2.86785
21
-7.73742
0
LINE
8
BLACK
6
CONTINUOUS
10
2.86785
20
-7.73742
11
2.86786
21
-7.73746
0
LINE
8
BLACK
6
CONTINUOUS
10
2.86786
20
-7.73746
11
2.86785
21
-7.73751
0
LINE
8
BLACK
6
CONTINUOUS
10
2.86785
20
-7.73751
11
2.86785
21
-7.73751
0
LINE
8
BLACK
6
CONTINUOUS
10
2.86785
20
-7.73751
11
2.86784
21
-7.73766
0
LINE
8
BLACK
6
CONTINUOUS
10
2.86784
20
-7.73766
11
2.86778
21
-7.73784
0
LINE
8
BLACK
6
CONTINUOUS
10
2.86778
20
-7.73784
11
2.86769
21
-7.73801
0
LINE
8
BLACK
6
CONTINUOUS
10
2.86769
20
-7.73801
11
2.86763
21
-7.73808
0
LINE
8
BLACK
6
CONTINUOUS
10
2.86763
20
-7.73808
11
2.86757
21
-7.73816
0
LINE
8
BLACK
6
CONTINUOUS
10
2.86757
20
-7.73816
11
2.86742
21
-7.73829
0
LINE
8
BLACK
6
CONTINUOUS
10
2.86742
20
-7.73829
11
2.86725
21
-7.73838
0
LINE
8
BLACK
6
CONTINUOUS
10
2.86725
20
-7.73838
11
2.86706
21
-7.73843
0
LINE
8
BLACK
6
CONTINUOUS
10
2.86706
20
-7.73843
11
2.86692
21
-7.73845
0
LINE
8
BLACK
6
CONTINUOUS
10
2.86692
20
-7.73845
11
2.86691
21
-7.73845
0
LINE
8
BLACK
6
CONTINUOUS
10
2.86691
20
-7.73845
11
2.86687
21
-7.73845
0
LINE
8
BLACK
6
CONTINUOUS
10
2.86687
20
-7.73845
11
2.86682
21
-7.73845
0
LINE
8
BLACK
6
CONTINUOUS
10
2.86682
20
-7.73845
11
2.73392
21
-7.73845
0
LINE
8
BLACK
6
CONTINUOUS
10
2.73392
20
-7.73845
11
2.73387
21
-7.73845
0
LINE
8
BLACK
6
CONTINUOUS
10
2.73387
20
-7.73845
11
2.73367
21
-7.73843
0
LINE
8
BLACK
6
CONTINUOUS
10
2.73367
20
-7.73843
11
2.73349
21
-7.73838
0
LINE
8
BLACK
6
CONTINUOUS
10
2.73349
20
-7.73838
11
2.73332
21
-7.73829
0
LINE
8
BLACK
6
CONTINUOUS
10
2.73332
20
-7.73829
11
2.73317
21
-7.73816
0
LINE
8
BLACK
6
CONTINUOUS
10
2.73317
20
-7.73816
11
2.73304
21
-7.73801
0
LINE
8
BLACK
6
CONTINUOUS
10
2.73304
20
-7.73801
11
2.73299
21
-7.73791
0
LINE
8
BLACK
6
CONTINUOUS
10
2.73299
20
-7.73791
11
2.73295
21
-7.73784
0
LINE
8
BLACK
6
CONTINUOUS
10
2.73295
20
-7.73784
11
2.7329
21
-7.73766
0
LINE
8
BLACK
6
CONTINUOUS
10
2.7329
20
-7.73766
11
2.73288
21
-7.73746
0
LINE
8
BLACK
6
CONTINUOUS
10
2.73288
20
-7.73746
11
2.73288
21
-7.73741
0
LINE
8
BLACK
6
CONTINUOUS
10
2.73288
20
-7.73741
11
2.73288
21
-7.61951
0
LINE
8
BLACK
6
CONTINUOUS
10
2.73288
20
-7.61951
11
2.73288
21
-7.61946
0
LINE
8
BLACK
6
CONTINUOUS
10
2.73288
20
-7.61946
11
2.73288
21
-7.61942
0
LINE
8
BLACK
6
CONTINUOUS
10
2.73288
20
-7.61942
11
2.73288
21
-7.61941
0
LINE
8
BLACK
6
CONTINUOUS
10
2.73288
20
-7.61941
11
2.7329
21
-7.61927
0
LINE
8
BLACK
6
CONTINUOUS
10
2.7329
20
-7.61927
11
2.73295
21
-7.61908
0
LINE
8
BLACK
6
CONTINUOUS
10
2.73295
20
-7.61908
11
2.73304
21
-7.61891
0
LINE
8
BLACK
6
CONTINUOUS
10
2.73304
20
-7.61891
11
2.73317
21
-7.61876
0
LINE
8
BLACK
6
CONTINUOUS
10
2.73317
20
-7.61876
11
2.73332
21
-7.61864
0
LINE
8
BLACK
6
CONTINUOUS
10
2.73332
20
-7.61864
11
2.73349
21
-7.61855
0
LINE
8
BLACK
6
CONTINUOUS
10
2.73349
20
-7.61855
11
2.73367
21
-7.61849
0
LINE
8
BLACK
6
CONTINUOUS
10
2.73367
20
-7.61849
11
2.73387
21
-7.61847
0
LINE
8
BLACK
6
CONTINUOUS
10
2.73387
20
-7.61847
11
2.73392
21
-7.61848
0
LINE
8
BLACK
6
CONTINUOUS
10
2.73392
20
-7.61848
11
2.86682
21
-7.61848
0
LINE
8
BLACK
6
CONTINUOUS
10
2.86682
20
-7.61848
11
2.86687
21
-7.61847
0
LINE
8
BLACK
6
CONTINUOUS
10
2.86687
20
-7.61847
11
2.86691
21
-7.61848
0
LINE
8
BLACK
6
CONTINUOUS
10
2.73485
20
-7.62045
11
2.73485
21
-7.73648
0
LINE
8
BLACK
6
CONTINUOUS
10
2.73485
20
-7.73648
11
2.86588
21
-7.73648
0
LINE
8
BLACK
6
CONTINUOUS
10
2.86588
20
-7.73648
11
2.86588
21
-7.62045
0
LINE
8
BLACK
6
CONTINUOUS
10
2.86588
20
-7.62045
11
2.73485
21
-7.62045
0
LINE
8
BLACK
6
CONTINUOUS
10
8.91675
20
-6.91025
11
8.91657
21
-6.91018
0
LINE
8
BLACK
6
CONTINUOUS
10
8.91657
20
-6.91018
11
8.9164
21
-6.91008
0
LINE
8
BLACK
6
CONTINUOUS
10
8.9164
20
-6.91008
11
8.91626
21
-6.90995
0
LINE
8
BLACK
6
CONTINUOUS
10
8.91626
20
-6.90995
11
8.91618
21
-6.90983
0
LINE
8
BLACK
6
CONTINUOUS
10
8.91618
20
-6.90983
11
8.91618
21
-6.90983
0
LINE
8
BLACK
6
CONTINUOUS
10
8.91618
20
-6.90983
11
8.91615
21
-6.90979
0
LINE
8
BLACK
6
CONTINUOUS
10
8.91615
20
-6.90979
11
8.91613
21
-6.90975
0
LINE
8
BLACK
6
CONTINUOUS
10
8.91613
20
-6.90975
11
8.85718
21
-6.80764
0
LINE
8
BLACK
6
CONTINUOUS
10
8.85718
20
-6.80764
11
8.85715
21
-6.8076
0
LINE
8
BLACK
6
CONTINUOUS
10
8.85715
20
-6.8076
11
8.85707
21
-6.80742
0
LINE
8
BLACK
6
CONTINUOUS
10
8.85707
20
-6.80742
11
8.85703
21
-6.80723
0
LINE
8
BLACK
6
CONTINUOUS
10
8.85703
20
-6.80723
11
8.85702
21
-6.80704
0
LINE
8
BLACK
6
CONTINUOUS
10
8.85702
20
-6.80704
11
8.85705
21
-6.80685
0
LINE
8
BLACK
6
CONTINUOUS
10
8.85705
20
-6.80685
11
8.85712
21
-6.80667
0
LINE
8
BLACK
6
CONTINUOUS
10
8.85712
20
-6.80667
11
8.85722
21
-6.8065
0
LINE
8
BLACK
6
CONTINUOUS
10
8.85722
20
-6.8065
11
8.85735
21
-6.80636
0
LINE
8
BLACK
6
CONTINUOUS
10
8.85735
20
-6.80636
11
8.85747
21
-6.80628
0
LINE
8
BLACK
6
CONTINUOUS
10
8.85747
20
-6.80628
11
8.85747
21
-6.80628
0
LINE
8
BLACK
6
CONTINUOUS
10
8.85747
20
-6.80628
11
8.85751
21
-6.80625
0
LINE
8
BLACK
6
CONTINUOUS
10
8.85751
20
-6.80625
11
8.85756
21
-6.80623
0
LINE
8
BLACK
6
CONTINUOUS
10
8.85756
20
-6.80623
11
8.97265
21
-6.73978
0
LINE
8
BLACK
6
CONTINUOUS
10
8.97265
20
-6.73978
11
8.97269
21
-6.73975
0
LINE
8
BLACK
6
CONTINUOUS
10
8.97269
20
-6.73975
11
8.97274
21
-6.73973
0
LINE
8
BLACK
6
CONTINUOUS
10
8.97274
20
-6.73973
11
8.97274
21
-6.73973
0
LINE
8
BLACK
6
CONTINUOUS
10
8.97274
20
-6.73973
11
8.97287
21
-6.73967
0
LINE
8
BLACK
6
CONTINUOUS
10
8.97287
20
-6.73967
11
8.97306
21
-6.73962
0
LINE
8
BLACK
6
CONTINUOUS
10
8.97306
20
-6.73962
11
8.97325
21
-6.73962
0
LINE
8
BLACK
6
CONTINUOUS
10
8.97325
20
-6.73962
11
8.97344
21
-6.73965
0
LINE
8
BLACK
6
CONTINUOUS
10
8.97344
20
-6.73965
11
8.97362
21
-6.73972
0
LINE
8
BLACK
6
CONTINUOUS
10
8.97362
20
-6.73972
11
8.97379
21
-6.73982
0
LINE
8
BLACK
6
CONTINUOUS
10
8.97379
20
-6.73982
11
8.97393
21
-6.73995
0
LINE
8
BLACK
6
CONTINUOUS
10
8.97393
20
-6.73995
11
8.97404
21
-6.74011
0
LINE
8
BLACK
6
CONTINUOUS
10
8.97404
20
-6.74011
11
8.97406
21
-6.74015
0
LINE
8
BLACK
6
CONTINUOUS
10
8.97406
20
-6.74015
11
9.03302
21
-6.84226
0
LINE
8
BLACK
6
CONTINUOUS
10
9.03302
20
-6.84226
11
9.03304
21
-6.8423
0
LINE
8
BLACK
6
CONTINUOUS
10
9.03304
20
-6.8423
11
9.03306
21
-6.84234
0
LINE
8
BLACK
6
CONTINUOUS
10
9.03306
20
-6.84234
11
9.03306
21
-6.84234
0
LINE
8
BLACK
6
CONTINUOUS
10
9.03306
20
-6.84234
11
9.03312
21
-6.84248
0
LINE
8
BLACK
6
CONTINUOUS
10
9.03312
20
-6.84248
11
9.03312
21
-6.84248
0
LINE
8
BLACK
6
CONTINUOUS
10
9.03312
20
-6.84248
11
9.03317
21
-6.84267
0
LINE
8
BLACK
6
CONTINUOUS
10
9.03317
20
-6.84267
11
9.03317
21
-6.84286
0
LINE
8
BLACK
6
CONTINUOUS
10
9.03317
20
-6.84286
11
9.03314
21
-6.84305
0
LINE
8
BLACK
6
CONTINUOUS
10
9.03314
20
-6.84305
11
9.03307
21
-6.84323
0
LINE
8
BLACK
6
CONTINUOUS
10
9.03307
20
-6.84323
11
9.03297
21
-6.8434
0
LINE
8
BLACK
6
CONTINUOUS
10
9.03297
20
-6.8434
11
9.03284
21
-6.84354
0
LINE
8
BLACK
6
CONTINUOUS
10
9.03284
20
-6.84354
11
9.03272
21
-6.84362
0
LINE
8
BLACK
6
CONTINUOUS
10
9.03272
20
-6.84362
11
9.03272
21
-6.84362
0
LINE
8
BLACK
6
CONTINUOUS
10
9.03272
20
-6.84362
11
9.03268
21
-6.84365
0
LINE
8
BLACK
6
CONTINUOUS
10
9.03268
20
-6.84365
11
9.03264
21
-6.84367
0
LINE
8
BLACK
6
CONTINUOUS
10
9.03264
20
-6.84367
11
8.91754
21
-6.91012
0
LINE
8
BLACK
6
CONTINUOUS
10
8.91754
20
-6.91012
11
8.9175
21
-6.91015
0
LINE
8
BLACK
6
CONTINUOUS
10
8.9175
20
-6.91015
11
8.91746
21
-6.91017
0
LINE
8
BLACK
6
CONTINUOUS
10
8.91746
20
-6.91017
11
8.91732
21
-6.91023
0
LINE
8
BLACK
6
CONTINUOUS
10
8.91732
20
-6.91023
11
8.91713
21
-6.91028
0
LINE
8
BLACK
6
CONTINUOUS
10
8.91713
20
-6.91028
11
8.91694
21
-6.91028
0
LINE
8
BLACK
6
CONTINUOUS
10
8.91694
20
-6.91028
11
8.91694
21
-6.91028
0
LINE
8
BLACK
6
CONTINUOUS
10
8.91694
20
-6.91028
11
8.91675
21
-6.91025
0
LINE
8
BLACK
6
CONTINUOUS
10
8.85935
20
-6.80746
11
8.91737
21
-6.90795
0
LINE
8
BLACK
6
CONTINUOUS
10
8.91737
20
-6.90795
11
9.03084
21
-6.84243
0
LINE
8
BLACK
6
CONTINUOUS
10
9.03084
20
-6.84243
11
8.97283
21
-6.74195
0
LINE
8
BLACK
6
CONTINUOUS
10
8.97283
20
-6.74195
11
8.85935
21
-6.80746
0
LINE
8
BLACK
6
CONTINUOUS
10
10.2128
20
-6.16312
11
10.2126
21
-6.16305
0
LINE
8
BLACK
6
CONTINUOUS
10
10.2126
20
-6.16305
11
10.2125
21
-6.16295
0
LINE
8
BLACK
6
CONTINUOUS
10
10.2125
20
-6.16295
11
10.2123
21
-6.16281
0
LINE
8
BLACK
6
CONTINUOUS
10
10.2123
20
-6.16281
11
10.2123
21
-6.16269
0
LINE
8
BLACK
6
CONTINUOUS
10
10.2123
20
-6.16269
11
10.2123
21
-6.16269
0
LINE
8
BLACK
6
CONTINUOUS
10
10.2123
20
-6.16269
11
10.2122
21
-6.16266
0
LINE
8
BLACK
6
CONTINUOUS
10
10.2122
20
-6.16266
11
10.2122
21
-6.16261
0
LINE
8
BLACK
6
CONTINUOUS
10
10.2122
20
-6.16261
11
10.1533
21
-6.0605
0
LINE
8
BLACK
6
CONTINUOUS
10
10.1533
20
-6.0605
11
10.1532
21
-6.06046
0
LINE
8
BLACK
6
CONTINUOUS
10
10.1532
20
-6.06046
11
10.1531
21
-6.06029
0
LINE
8
BLACK
6
CONTINUOUS
10
10.1531
20
-6.06029
11
10.1531
21
-6.0601
0
LINE
8
BLACK
6
CONTINUOUS
10
10.1531
20
-6.0601
11
10.1531
21
-6.0599
0
LINE
8
BLACK
6
CONTINUOUS
10
10.1531
20
-6.0599
11
10.1531
21
-6.05971
0
LINE
8
BLACK
6
CONTINUOUS
10
10.1531
20
-6.05971
11
10.1532
21
-6.05953
0
LINE
8
BLACK
6
CONTINUOUS
10
10.1532
20
-6.05953
11
10.1533
21
-6.05937
0
LINE
8
BLACK
6
CONTINUOUS
10
10.1533
20
-6.05937
11
10.1534
21
-6.05923
0
LINE
8
BLACK
6
CONTINUOUS
10
10.1534
20
-6.05923
11
10.1535
21
-6.05914
0
LINE
8
BLACK
6
CONTINUOUS
10
10.1535
20
-6.05914
11
10.1535
21
-6.05914
0
LINE
8
BLACK
6
CONTINUOUS
10
10.1535
20
-6.05914
11
10.1536
21
-6.05911
0
LINE
8
BLACK
6
CONTINUOUS
10
10.1536
20
-6.05911
11
10.1536
21
-6.05909
0
LINE
8
BLACK
6
CONTINUOUS
10
10.1536
20
-6.05909
11
10.2687
21
-5.99264
0
LINE
8
BLACK
6
CONTINUOUS
10
10.2687
20
-5.99264
11
10.2688
21
-5.99261
0
LINE
8
BLACK
6
CONTINUOUS
10
10.2688
20
-5.99261
11
10.2688
21
-5.99259
0
LINE
8
BLACK
6
CONTINUOUS
10
10.2688
20
-5.99259
11
10.2688
21
-5.99259
0
LINE
8
BLACK
6
CONTINUOUS
10
10.2688
20
-5.99259
11
10.2689
21
-5.99253
0
LINE
8
BLACK
6
CONTINUOUS
10
10.2689
20
-5.99253
11
10.2691
21
-5.99249
0
LINE
8
BLACK
6
CONTINUOUS
10
10.2691
20
-5.99249
11
10.2693
21
-5.99248
0
LINE
8
BLACK
6
CONTINUOUS
10
10.2693
20
-5.99248
11
10.2695
21
-5.99251
0
LINE
8
BLACK
6
CONTINUOUS
10
10.2695
20
-5.99251
11
10.2697
21
-5.99258
0
LINE
8
BLACK
6
CONTINUOUS
10
10.2697
20
-5.99258
11
10.2699
21
-5.99268
0
LINE
8
BLACK
6
CONTINUOUS
10
10.2699
20
-5.99268
11
10.27
21
-5.99282
0
LINE
8
BLACK
6
CONTINUOUS
10
10.27
20
-5.99282
11
10.2701
21
-5.99298
0
LINE
8
BLACK
6
CONTINUOUS
10
10.2701
20
-5.99298
11
10.2701
21
-5.99302
0
LINE
8
BLACK
6
CONTINUOUS
10
10.2701
20
-5.99302
11
10.3291
21
-6.09513
0
LINE
8
BLACK
6
CONTINUOUS
10
10.3291
20
-6.09513
11
10.3291
21
-6.09517
0
LINE
8
BLACK
6
CONTINUOUS
10
10.3291
20
-6.09517
11
10.3291
21
-6.09521
0
LINE
8
BLACK
6
CONTINUOUS
10
10.3291
20
-6.09521
11
10.3291
21
-6.09521
0
LINE
8
BLACK
6
CONTINUOUS
10
10.3291
20
-6.09521
11
10.3292
21
-6.09534
0
LINE
8
BLACK
6
CONTINUOUS
10
10.3292
20
-6.09534
11
10.3292
21
-6.09553
0
LINE
8
BLACK
6
CONTINUOUS
10
10.3292
20
-6.09553
11
10.3292
21
-6.09573
0
LINE
8
BLACK
6
CONTINUOUS
10
10.3292
20
-6.09573
11
10.3292
21
-6.09592
0
LINE
8
BLACK
6
CONTINUOUS
10
10.3292
20
-6.09592
11
10.3291
21
-6.0961
0
LINE
8
BLACK
6
CONTINUOUS
10
10.3291
20
-6.0961
11
10.3291
21
-6.09619
0
LINE
8
BLACK
6
CONTINUOUS
10
10.3291
20
-6.09619
11
10.329
21
-6.09626
0
LINE
8
BLACK
6
CONTINUOUS
10
10.329
20
-6.09626
11
10.3289
21
-6.0964
0
LINE
8
BLACK
6
CONTINUOUS
10
10.3289
20
-6.0964
11
10.3288
21
-6.09652
0
LINE
8
BLACK
6
CONTINUOUS
10
10.3288
20
-6.09652
11
10.3287
21
-6.09654
0
LINE
8
BLACK
6
CONTINUOUS
10
10.3287
20
-6.09654
11
10.2136
21
-6.16299
0
LINE
8
BLACK
6
CONTINUOUS
10
10.2136
20
-6.16299
11
10.2136
21
-6.16302
0
LINE
8
BLACK
6
CONTINUOUS
10
10.2136
20
-6.16302
11
10.2135
21
-6.16304
0
LINE
8
BLACK
6
CONTINUOUS
10
10.2135
20
-6.16304
11
10.2134
21
-6.1631
0
LINE
8
BLACK
6
CONTINUOUS
10
10.2134
20
-6.1631
11
10.2132
21
-6.16314
0
LINE
8
BLACK
6
CONTINUOUS
10
10.2132
20
-6.16314
11
10.213
21
-6.16315
0
LINE
8
BLACK
6
CONTINUOUS
10
10.213
20
-6.16315
11
10.213
21
-6.16315
0
LINE
8
BLACK
6
CONTINUOUS
10
10.213
20
-6.16315
11
10.2128
21
-6.16312
0
LINE
8
BLACK
6
CONTINUOUS
10
10.1554
20
-6.06033
11
10.2134
21
-6.16082
0
LINE
8
BLACK
6
CONTINUOUS
10
10.2134
20
-6.16082
11
10.3269
21
-6.0953
0
LINE
8
BLACK
6
CONTINUOUS
10
10.3269
20
-6.0953
11
10.2689
21
-5.99481
0
LINE
8
BLACK
6
CONTINUOUS
10
10.2689
20
-5.99481
11
10.1554
21
-6.06033
0
LINE
8
BLACK
6
CONTINUOUS
10
11.3882
20
-5.48685
11
11.388
21
-5.48678
0
LINE
8
BLACK
6
CONTINUOUS
10
11.388
20
-5.48678
11
11.3878
21
-5.48668
0
LINE
8
BLACK
6
CONTINUOUS
10
11.3878
20
-5.48668
11
11.3877
21
-5.48654
0
LINE
8
BLACK
6
CONTINUOUS
10
11.3877
20
-5.48654
11
11.3876
21
-5.48643
0
LINE
8
BLACK
6
CONTINUOUS
10
11.3876
20
-5.48643
11
11.3876
21
-5.48643
0
LINE
8
BLACK
6
CONTINUOUS
10
11.3876
20
-5.48643
11
11.3876
21
-5.48639
0
LINE
8
BLACK
6
CONTINUOUS
10
11.3876
20
-5.48639
11
11.3875
21
-5.48634
0
LINE
8
BLACK
6
CONTINUOUS
10
11.3875
20
-5.48634
11
11.3286
21
-5.38424
0
LINE
8
BLACK
6
CONTINUOUS
10
11.3286
20
-5.38424
11
11.3286
21
-5.3842
0
LINE
8
BLACK
6
CONTINUOUS
10
11.3286
20
-5.3842
11
11.3285
21
-5.38402
0
LINE
8
BLACK
6
CONTINUOUS
10
11.3285
20
-5.38402
11
11.3284
21
-5.38383
0
LINE
8
BLACK
6
CONTINUOUS
10
11.3284
20
-5.38383
11
11.3284
21
-5.38364
0
LINE
8
BLACK
6
CONTINUOUS
10
11.3284
20
-5.38364
11
11.3285
21
-5.38345
0
LINE
8
BLACK
6
CONTINUOUS
10
11.3285
20
-5.38345
11
11.3285
21
-5.38326
0
LINE
8
BLACK
6
CONTINUOUS
10
11.3285
20
-5.38326
11
11.3286
21
-5.3831
0
LINE
8
BLACK
6
CONTINUOUS
10
11.3286
20
-5.3831
11
11.3288
21
-5.38296
0
LINE
8
BLACK
6
CONTINUOUS
10
11.3288
20
-5.38296
11
11.3289
21
-5.38285
0
LINE
8
BLACK
6
CONTINUOUS
10
11.3289
20
-5.38285
11
11.329
21
-5.38283
0
LINE
8
BLACK
6
CONTINUOUS
10
11.329
20
-5.38283
11
11.4441
21
-5.31637
0
LINE
8
BLACK
6
CONTINUOUS
10
11.4441
20
-5.31637
11
11.4441
21
-5.31635
0
LINE
8
BLACK
6
CONTINUOUS
10
11.4441
20
-5.31635
11
11.4441
21
-5.31633
0
LINE
8
BLACK
6
CONTINUOUS
10
11.4441
20
-5.31633
11
11.4441
21
-5.31633
0
LINE
8
BLACK
6
CONTINUOUS
10
11.4441
20
-5.31633
11
11.4443
21
-5.31627
0
LINE
8
BLACK
6
CONTINUOUS
10
11.4443
20
-5.31627
11
11.4444
21
-5.31625
0
LINE
8
BLACK
6
CONTINUOUS
10
11.4444
20
-5.31625
11
11.4445
21
-5.31622
0
LINE
8
BLACK
6
CONTINUOUS
10
11.4445
20
-5.31622
11
11.4447
21
-5.31621
0
LINE
8
BLACK
6
CONTINUOUS
10
11.4447
20
-5.31621
11
11.4448
21
-5.31625
0
LINE
8
BLACK
6
CONTINUOUS
10
11.4448
20
-5.31625
11
11.445
21
-5.31631
0
LINE
8
BLACK
6
CONTINUOUS
10
11.445
20
-5.31631
11
11.4452
21
-5.31642
0
LINE
8
BLACK
6
CONTINUOUS
10
11.4452
20
-5.31642
11
11.4453
21
-5.31655
0
LINE
8
BLACK
6
CONTINUOUS
10
11.4453
20
-5.31655
11
11.4454
21
-5.31671
0
LINE
8
BLACK
6
CONTINUOUS
10
11.4454
20
-5.31671
11
11.4455
21
-5.31675
0
LINE
8
BLACK
6
CONTINUOUS
10
11.4455
20
-5.31675
11
11.5044
21
-5.41886
0
LINE
8
BLACK
6
CONTINUOUS
10
11.5044
20
-5.41886
11
11.5044
21
-5.4189
0
LINE
8
BLACK
6
CONTINUOUS
10
11.5044
20
-5.4189
11
11.5045
21
-5.41894
0
LINE
8
BLACK
6
CONTINUOUS
10
11.5045
20
-5.41894
11
11.5045
21
-5.41894
0
LINE
8
BLACK
6
CONTINUOUS
10
11.5045
20
-5.41894
11
11.5045
21
-5.41907
0
LINE
8
BLACK
6
CONTINUOUS
10
11.5045
20
-5.41907
11
11.5045
21
-5.41907
0
LINE
8
BLACK
6
CONTINUOUS
10
11.5045
20
-5.41907
11
11.5046
21
-5.41926
0
LINE
8
BLACK
6
CONTINUOUS
10
11.5046
20
-5.41926
11
11.5046
21
-5.41946
0
LINE
8
BLACK
6
CONTINUOUS
10
11.5046
20
-5.41946
11
11.5045
21
-5.41965
0
LINE
8
BLACK
6
CONTINUOUS
10
11.5045
20
-5.41965
11
11.5045
21
-5.41983
0
LINE
8
BLACK
6
CONTINUOUS
10
11.5045
20
-5.41983
11
11.5044
21
-5.41999
0
LINE
8
BLACK
6
CONTINUOUS
10
11.5044
20
-5.41999
11
11.5042
21
-5.42014
0
LINE
8
BLACK
6
CONTINUOUS
10
11.5042
20
-5.42014
11
11.5041
21
-5.42022
0
LINE
8
BLACK
6
CONTINUOUS
10
11.5041
20
-5.42022
11
11.5041
21
-5.42022
0
LINE
8
BLACK
6
CONTINUOUS
10
11.5041
20
-5.42022
11
11.5041
21
-5.42025
0
LINE
8
BLACK
6
CONTINUOUS
10
11.5041
20
-5.42025
11
11.504
21
-5.42027
0
LINE
8
BLACK
6
CONTINUOUS
10
11.504
20
-5.42027
11
11.3889
21
-5.48672
0
LINE
8
BLACK
6
CONTINUOUS
10
11.3889
20
-5.48672
11
11.3889
21
-5.48675
0
LINE
8
BLACK
6
CONTINUOUS
10
11.3889
20
-5.48675
11
11.3889
21
-5.48677
0
LINE
8
BLACK
6
CONTINUOUS
10
11.3889
20
-5.48677
11
11.3887
21
-5.48683
0
LINE
8
BLACK
6
CONTINUOUS
10
11.3887
20
-5.48683
11
11.3885
21
-5.48687
0
LINE
8
BLACK
6
CONTINUOUS
10
11.3885
20
-5.48687
11
11.3883
21
-5.48688
0
LINE
8
BLACK
6
CONTINUOUS
10
11.3883
20
-5.48688
11
11.3883
21
-5.48688
0
LINE
8
BLACK
6
CONTINUOUS
10
11.3883
20
-5.48688
11
11.3882
21
-5.48685
0
LINE
8
BLACK
6
CONTINUOUS
10
11.3308
20
-5.38406
11
11.3888
21
-5.48455
0
LINE
8
BLACK
6
CONTINUOUS
10
11.3888
20
-5.48455
11
11.5022
21
-5.41903
0
LINE
8
BLACK
6
CONTINUOUS
10
11.5022
20
-5.41903
11
11.4442
21
-5.31855
0
LINE
8
BLACK
6
CONTINUOUS
10
11.4442
20
-5.31855
11
11.3308
21
-5.38406
0
LINE
8
BLACK
6
CONTINUOUS
10
12.9326
20
-4.87694
11
12.9327
21
-4.87698
0
LINE
8
BLACK
6
CONTINUOUS
10
12.9327
20
-4.87698
11
12.9329
21
-4.87706
0
LINE
8
BLACK
6
CONTINUOUS
10
12.9329
20
-4.87706
11
12.9331
21
-4.87717
0
LINE
8
BLACK
6
CONTINUOUS
10
12.9331
20
-4.87717
11
12.9332
21
-4.87731
0
LINE
8
BLACK
6
CONTINUOUS
10
12.9332
20
-4.87731
11
12.9333
21
-4.87748
0
LINE
8
BLACK
6
CONTINUOUS
10
12.9333
20
-4.87748
11
12.9334
21
-4.87766
0
LINE
8
BLACK
6
CONTINUOUS
10
12.9334
20
-4.87766
11
12.9334
21
-4.87771
0
LINE
8
BLACK
6
CONTINUOUS
10
12.9334
20
-4.87771
11
12.9636
21
-4.99063
0
LINE
8
BLACK
6
CONTINUOUS
10
12.9636
20
-4.99063
11
12.9637
21
-4.99067
0
LINE
8
BLACK
6
CONTINUOUS
10
12.9637
20
-4.99067
11
12.9637
21
-4.99087
0
LINE
8
BLACK
6
CONTINUOUS
10
12.9637
20
-4.99087
11
12.9637
21
-4.99106
0
LINE
8
BLACK
6
CONTINUOUS
10
12.9637
20
-4.99106
11
12.9636
21
-4.99125
0
LINE
8
BLACK
6
CONTINUOUS
10
12.9636
20
-4.99125
11
12.9636
21
-4.99142
0
LINE
8
BLACK
6
CONTINUOUS
10
12.9636
20
-4.99142
11
12.9634
21
-4.99158
0
LINE
8
BLACK
6
CONTINUOUS
10
12.9634
20
-4.99158
11
12.9633
21
-4.99171
0
LINE
8
BLACK
6
CONTINUOUS
10
12.9633
20
-4.99171
11
12.9631
21
-4.99182
0
LINE
8
BLACK
6
CONTINUOUS
10
12.9631
20
-4.99182
11
12.963
21
-4.99187
0
LINE
8
BLACK
6
CONTINUOUS
10
12.963
20
-4.99187
11
12.963
21
-4.99187
0
LINE
8
BLACK
6
CONTINUOUS
10
12.963
20
-4.99187
11
12.963
21
-4.99189
0
LINE
8
BLACK
6
CONTINUOUS
10
12.963
20
-4.99189
11
12.9629
21
-4.99189
0
LINE
8
BLACK
6
CONTINUOUS
10
12.9629
20
-4.99189
11
12.8345
21
-5.02629
0
LINE
8
BLACK
6
CONTINUOUS
10
12.8345
20
-5.02629
11
12.8345
21
-5.02631
0
LINE
8
BLACK
6
CONTINUOUS
10
12.8345
20
-5.02631
11
12.8343
21
-5.02634
0
LINE
8
BLACK
6
CONTINUOUS
10
12.8343
20
-5.02634
11
12.8341
21
-5.02633
0
LINE
8
BLACK
6
CONTINUOUS
10
12.8341
20
-5.02633
11
12.8339
21
-5.02629
0
LINE
8
BLACK
6
CONTINUOUS
10
12.8339
20
-5.02629
11
12.8337
21
-5.02621
0
LINE
8
BLACK
6
CONTINUOUS
10
12.8337
20
-5.02621
11
12.8336
21
-5.0261
0
LINE
8
BLACK
6
CONTINUOUS
10
12.8336
20
-5.0261
11
12.8335
21
-5.02596
0
LINE
8
BLACK
6
CONTINUOUS
10
12.8335
20
-5.02596
11
12.8333
21
-5.02579
0
LINE
8
BLACK
6
CONTINUOUS
10
12.8333
20
-5.02579
11
12.8333
21
-5.02565
0
LINE
8
BLACK
6
CONTINUOUS
10
12.8333
20
-5.02565
11
12.8333
21
-5.02561
0
LINE
8
BLACK
6
CONTINUOUS
10
12.8333
20
-5.02561
11
12.8333
21
-5.02556
0
LINE
8
BLACK
6
CONTINUOUS
10
12.8333
20
-5.02556
11
12.803
21
-4.91264
0
LINE
8
BLACK
6
CONTINUOUS
10
12.803
20
-4.91264
11
12.803
21
-4.9126
0
LINE
8
BLACK
6
CONTINUOUS
10
12.803
20
-4.9126
11
12.803
21
-4.9124
0
LINE
8
BLACK
6
CONTINUOUS
10
12.803
20
-4.9124
11
12.803
21
-4.91221
0
LINE
8
BLACK
6
CONTINUOUS
10
12.803
20
-4.91221
11
12.803
21
-4.91202
0
LINE
8
BLACK
6
CONTINUOUS
10
12.803
20
-4.91202
11
12.8031
21
-4.91185
0
LINE
8
BLACK
6
CONTINUOUS
10
12.8031
20
-4.91185
11
12.8032
21
-4.91169
0
LINE
8
BLACK
6
CONTINUOUS
10
12.8032
20
-4.91169
11
12.8034
21
-4.91156
0
LINE
8
BLACK
6
CONTINUOUS
10
12.8034
20
-4.91156
11
12.8035
21
-4.91145
0
LINE
8
BLACK
6
CONTINUOUS
10
12.8035
20
-4.91145
11
12.8037
21
-4.91138
0
LINE
8
BLACK
6
CONTINUOUS
10
12.8037
20
-4.91138
11
12.8037
21
-4.91138
0
LINE
8
BLACK
6
CONTINUOUS
10
12.8037
20
-4.91138
11
12.9321
21
-4.87698
0
LINE
8
BLACK
6
CONTINUOUS
10
12.9321
20
-4.87698
11
12.9322
21
-4.87696
0
LINE
8
BLACK
6
CONTINUOUS
10
12.9322
20
-4.87696
11
12.9322
21
-4.87695
0
LINE
8
BLACK
6
CONTINUOUS
10
12.9322
20
-4.87695
11
12.9324
21
-4.87693
0
LINE
8
BLACK
6
CONTINUOUS
10
12.9324
20
-4.87693
11
12.9326
21
-4.87694
0
LINE
8
BLACK
6
CONTINUOUS
10
12.8052
20
-4.91304
11
12.8349
21
-5.02415
0
LINE
8
BLACK
6
CONTINUOUS
10
12.8349
20
-5.02415
11
12.9615
21
-4.99023
0
LINE
8
BLACK
6
CONTINUOUS
10
12.9615
20
-4.99023
11
12.9317
21
-4.87912
0
LINE
8
BLACK
6
CONTINUOUS
10
12.9317
20
-4.87912
11
12.8052
21
-4.91304
  0
ENDSEC
  0
EOF
