G04 #@! TF.GenerationSoftware,KiCad,Pcbnew,(5.1.5)-3*
G04 #@! TF.CreationDate,2020-03-28T17:37:08+01:00*
G04 #@! TF.ProjectId,kopesh,6b6f7065-7368-42e6-9b69-6361645f7063,rev?*
G04 #@! TF.SameCoordinates,Original*
G04 #@! TF.FileFunction,Profile,NP*
%FSLAX46Y46*%
G04 Gerber Fmt 4.6, Leading zero omitted, Abs format (unit mm)*
G04 Created by KiCad (PCBNEW (5.1.5)-3) date 2020-03-28 17:37:08*
%MOMM*%
%LPD*%
G04 APERTURE LIST*
%ADD10C,0.050000*%
%ADD11C,0.150000*%
G04 APERTURE END LIST*
D10*
X375136651Y-106420121D02*
X360606650Y-52170125D01*
X320476648Y-121060124D02*
X375136651Y-106420121D01*
X212926648Y-183250129D02*
X320476648Y-121060124D01*
X49936648Y-183250121D02*
X212926648Y-183250129D01*
X49926648Y-127100116D02*
X49936648Y-183250121D01*
X197736650Y-127090122D02*
X49926648Y-127100116D01*
X300336652Y-67850125D02*
X197736650Y-127090122D01*
X360606650Y-52170125D02*
X300336652Y-67850125D01*
D11*
X138016660Y-181690112D02*
X138016660Y-178290112D01*
X134216660Y-178290112D02*
X138016660Y-178290112D01*
X134216660Y-181690112D02*
X134216660Y-178290112D01*
X134216660Y-181690112D02*
X138016660Y-181690112D01*
X280930800Y-142903522D02*
X279230800Y-139959036D01*
X275939904Y-141859036D02*
X279230800Y-139959036D01*
X277639904Y-144803522D02*
X275939904Y-141859036D01*
X277639904Y-144803522D02*
X280930800Y-142903522D01*
X349502947Y-111607008D02*
X348622962Y-108322860D01*
X344952444Y-109306372D02*
X348622962Y-108322860D01*
X345832429Y-112590520D02*
X344952444Y-109306372D01*
X345832429Y-112590520D02*
X349502947Y-111607008D01*
X312952272Y-123340873D02*
X311252272Y-120396387D01*
X307961376Y-122296387D02*
X311252272Y-120396387D01*
X309661376Y-125240873D02*
X307961376Y-122296387D01*
X309661376Y-125240873D02*
X312952272Y-123340873D01*
X247610771Y-161059874D02*
X245910771Y-158115388D01*
X242619875Y-160015388D02*
X245910771Y-158115388D01*
X244319875Y-162959874D02*
X242619875Y-160015388D01*
X244319875Y-162959874D02*
X247610771Y-161059874D01*
X213803448Y-179933013D02*
X212923463Y-176648865D01*
X209252945Y-177632377D02*
X212923463Y-176648865D01*
X210132930Y-180916525D02*
X209252945Y-177632377D01*
X210132930Y-180916525D02*
X213803448Y-179933013D01*
X176379161Y-181805113D02*
X176379161Y-178405113D01*
X172579161Y-178405113D02*
X176379161Y-178405113D01*
X172579161Y-181805113D02*
X172579161Y-178405113D01*
X172579161Y-181805113D02*
X176379161Y-181805113D01*
M02*
