G04 #@! TF.GenerationSoftware,KiCad,Pcbnew,(5.1.5)-3*
G04 #@! TF.CreationDate,2020-04-19T14:52:18+02:00*
G04 #@! TF.ProjectId,kopesh,6b6f7065-7368-42e6-9b69-6361645f7063,rev?*
G04 #@! TF.SameCoordinates,Original*
G04 #@! TF.FileFunction,Copper,L1,Top*
G04 #@! TF.FilePolarity,Positive*
%FSLAX46Y46*%
G04 Gerber Fmt 4.6, Leading zero omitted, Abs format (unit mm)*
G04 Created by KiCad (PCBNEW (5.1.5)-3) date 2020-04-19 14:52:18*
%MOMM*%
%LPD*%
G04 APERTURE LIST*
G04 #@! TA.AperFunction,Profile*
%ADD10C,0.050000*%
G04 #@! TD*
%ADD11C,0.100000*%
G04 #@! TA.AperFunction,SMDPad,CuDef*
%ADD12C,0.150000*%
G04 #@! TD*
G04 #@! TA.AperFunction,SMDPad,CuDef*
%ADD13R,1.800000X0.820000*%
G04 #@! TD*
G04 #@! TA.AperFunction,ComponentPad*
%ADD14C,2.000000*%
G04 #@! TD*
G04 #@! TA.AperFunction,ComponentPad*
%ADD15C,5.000000*%
G04 #@! TD*
G04 #@! TA.AperFunction,ComponentPad*
%ADD16C,2.250000*%
G04 #@! TD*
G04 #@! TA.AperFunction,ComponentPad*
%ADD17C,0.150000*%
G04 #@! TD*
G04 #@! TA.AperFunction,ComponentPad*
%ADD18C,1.397000*%
G04 #@! TD*
G04 #@! TA.AperFunction,SMDPad,CuDef*
%ADD19R,0.950000X1.300000*%
G04 #@! TD*
G04 #@! TA.AperFunction,ComponentPad*
%ADD20R,1.397000X1.397000*%
G04 #@! TD*
G04 #@! TA.AperFunction,ComponentPad*
%ADD21R,1.600000X1.600000*%
G04 #@! TD*
G04 #@! TA.AperFunction,ComponentPad*
%ADD22C,1.600000*%
G04 #@! TD*
G04 #@! TA.AperFunction,ComponentPad*
%ADD23O,1.730000X2.030000*%
G04 #@! TD*
G04 #@! TA.AperFunction,ComponentPad*
%ADD24R,1.730000X2.030000*%
G04 #@! TD*
G04 #@! TA.AperFunction,ViaPad*
%ADD25C,0.800000*%
G04 #@! TD*
G04 #@! TA.AperFunction,Conductor*
%ADD26C,0.381000*%
G04 #@! TD*
G04 #@! TA.AperFunction,Conductor*
%ADD27C,0.250000*%
G04 #@! TD*
G04 #@! TA.AperFunction,NonConductor*
%ADD28C,0.254000*%
G04 #@! TD*
G04 APERTURE END LIST*
D10*
X69440229Y-196531557D02*
X69440226Y-193534357D01*
X72818428Y-196531558D02*
X69440229Y-196531557D01*
X72818426Y-193534356D02*
X72818428Y-196531558D01*
X69440226Y-193534357D02*
X72818426Y-193534356D01*
X107489424Y-196607756D02*
X107489427Y-193610556D01*
X110867626Y-196607757D02*
X107489424Y-196607756D01*
X110867627Y-193610556D02*
X110867626Y-196607757D01*
X107489427Y-193610556D02*
X110867627Y-193610556D01*
X145386224Y-196556958D02*
X145386228Y-193559757D01*
X148789826Y-196556959D02*
X145386224Y-196556958D01*
X148789827Y-193559757D02*
X148789826Y-196556959D01*
X145386228Y-193559757D02*
X148789827Y-193559757D01*
X188832520Y-195713634D02*
X189821786Y-198544695D01*
X193017498Y-197374225D02*
X189821786Y-198544695D01*
X192018936Y-194577866D02*
X193017498Y-197374225D01*
X188832520Y-195713634D02*
X192018936Y-194577866D01*
X226491949Y-175496081D02*
X224993353Y-172900431D01*
X229417563Y-173806981D02*
X226491949Y-175496081D01*
X227918959Y-171211331D02*
X229417563Y-173806981D01*
X224993353Y-172900431D02*
X227918959Y-171211331D01*
X259412234Y-156518881D02*
X257913635Y-153923227D01*
X262337841Y-154829778D02*
X259412234Y-156518881D01*
X260839241Y-152234127D02*
X262337841Y-154829778D01*
X257913635Y-153923227D02*
X260839241Y-152234127D01*
X289265627Y-139341671D02*
X287767025Y-136746022D01*
X292191234Y-137652574D02*
X289265627Y-139341671D01*
X290692632Y-135056921D02*
X292191234Y-137652574D01*
X287767025Y-136746022D02*
X290692632Y-135056921D01*
X325989562Y-127643968D02*
X325220410Y-124773429D01*
X329252656Y-126769623D02*
X325989562Y-127643968D01*
X328483498Y-123899082D02*
X329252656Y-126769623D01*
X325220410Y-124773429D02*
X328483498Y-123899082D01*
D11*
G36*
X83308195Y-172948268D02*
G01*
X83308197Y-176948771D01*
X82673196Y-177583771D01*
X63686695Y-177583770D01*
X62988197Y-176885273D01*
X62988193Y-173202271D01*
X64004196Y-172440272D01*
X82736696Y-172440269D01*
X83308195Y-172948268D01*
G37*
X83308195Y-172948268D02*
X83308197Y-176948771D01*
X82673196Y-177583771D01*
X63686695Y-177583770D01*
X62988197Y-176885273D01*
X62988193Y-173202271D01*
X64004196Y-172440272D01*
X82736696Y-172440269D01*
X83308195Y-172948268D01*
D10*
X356971845Y-136810892D02*
X342441844Y-82560896D01*
X302311841Y-151450895D02*
X356971845Y-136810892D01*
X194761842Y-213640900D02*
X302311841Y-151450895D01*
X31771846Y-213640890D02*
X194761842Y-213640900D01*
X31761843Y-157490889D02*
X31771846Y-213640890D01*
X179571848Y-157480897D02*
X31761843Y-157490889D01*
X282171845Y-98240897D02*
X179571848Y-157480897D01*
X342441844Y-82560896D02*
X282171845Y-98240897D01*
G04 #@! TA.AperFunction,SMDPad,CuDef*
D12*
G04 #@! TO.P,LED8,4*
G04 #@! TO.N,Net-(LED7-Pad2)*
G36*
X323866330Y-126333158D02*
G01*
X323654098Y-125541099D01*
X325392764Y-125075224D01*
X325604996Y-125867283D01*
X323866330Y-126333158D01*
G37*
G04 #@! TD.AperFunction*
G04 #@! TA.AperFunction,SMDPad,CuDef*
G04 #@! TO.P,LED8,3*
G04 #@! TO.N,GND*
G36*
X324254559Y-127782047D02*
G01*
X324042327Y-126989988D01*
X325780993Y-126524113D01*
X325993225Y-127316172D01*
X324254559Y-127782047D01*
G37*
G04 #@! TD.AperFunction*
G04 #@! TA.AperFunction,SMDPad,CuDef*
G04 #@! TO.P,LED8,2*
G04 #@! TO.N,Net-(LED8-Pad2)*
G36*
X329084188Y-126487952D02*
G01*
X328871956Y-125695893D01*
X330610622Y-125230018D01*
X330822854Y-126022077D01*
X329084188Y-126487952D01*
G37*
G04 #@! TD.AperFunction*
G04 #@! TA.AperFunction,SMDPad,CuDef*
G04 #@! TO.P,LED8,1*
G04 #@! TO.N,VCC*
G36*
X328695959Y-125039063D02*
G01*
X328483727Y-124247004D01*
X330222393Y-123781129D01*
X330434625Y-124573188D01*
X328695959Y-125039063D01*
G37*
G04 #@! TD.AperFunction*
G04 #@! TD*
G04 #@! TA.AperFunction,SMDPad,CuDef*
G04 #@! TO.P,LED7,4*
G04 #@! TO.N,Net-(LED6-Pad2)*
G36*
X286862188Y-138591741D02*
G01*
X286452188Y-137881601D01*
X288011034Y-136981601D01*
X288421034Y-137691741D01*
X286862188Y-138591741D01*
G37*
G04 #@! TD.AperFunction*
G04 #@! TA.AperFunction,SMDPad,CuDef*
G04 #@! TO.P,LED7,3*
G04 #@! TO.N,GND*
G36*
X287612188Y-139890779D02*
G01*
X287202188Y-139180639D01*
X288761034Y-138280639D01*
X289171034Y-138990779D01*
X287612188Y-139890779D01*
G37*
G04 #@! TD.AperFunction*
G04 #@! TA.AperFunction,SMDPad,CuDef*
G04 #@! TO.P,LED7,2*
G04 #@! TO.N,Net-(LED7-Pad2)*
G36*
X291942316Y-137390779D02*
G01*
X291532316Y-136680639D01*
X293091162Y-135780639D01*
X293501162Y-136490779D01*
X291942316Y-137390779D01*
G37*
G04 #@! TD.AperFunction*
G04 #@! TA.AperFunction,SMDPad,CuDef*
G04 #@! TO.P,LED7,1*
G04 #@! TO.N,VCC*
G36*
X291192316Y-136091741D02*
G01*
X290782316Y-135381601D01*
X292341162Y-134481601D01*
X292751162Y-135191741D01*
X291192316Y-136091741D01*
G37*
G04 #@! TD.AperFunction*
G04 #@! TD*
G04 #@! TA.AperFunction,SMDPad,CuDef*
G04 #@! TO.P,LED6,4*
G04 #@! TO.N,Net-(LED5-Pad2)*
G36*
X257017191Y-155787540D02*
G01*
X256607191Y-155077400D01*
X258166037Y-154177400D01*
X258576037Y-154887540D01*
X257017191Y-155787540D01*
G37*
G04 #@! TD.AperFunction*
G04 #@! TA.AperFunction,SMDPad,CuDef*
G04 #@! TO.P,LED6,3*
G04 #@! TO.N,GND*
G36*
X257767191Y-157086578D02*
G01*
X257357191Y-156376438D01*
X258916037Y-155476438D01*
X259326037Y-156186578D01*
X257767191Y-157086578D01*
G37*
G04 #@! TD.AperFunction*
G04 #@! TA.AperFunction,SMDPad,CuDef*
G04 #@! TO.P,LED6,2*
G04 #@! TO.N,Net-(LED6-Pad2)*
G36*
X262097319Y-154586578D02*
G01*
X261687319Y-153876438D01*
X263246165Y-152976438D01*
X263656165Y-153686578D01*
X262097319Y-154586578D01*
G37*
G04 #@! TD.AperFunction*
G04 #@! TA.AperFunction,SMDPad,CuDef*
G04 #@! TO.P,LED6,1*
G04 #@! TO.N,VCC*
G36*
X261347319Y-153287540D02*
G01*
X260937319Y-152577400D01*
X262496165Y-151677400D01*
X262906165Y-152387540D01*
X261347319Y-153287540D01*
G37*
G04 #@! TD.AperFunction*
G04 #@! TD*
G04 #@! TA.AperFunction,SMDPad,CuDef*
G04 #@! TO.P,LED5,4*
G04 #@! TO.N,Net-(LED4-Pad2)*
G36*
X224098794Y-174761343D02*
G01*
X223688794Y-174051203D01*
X225247640Y-173151203D01*
X225657640Y-173861343D01*
X224098794Y-174761343D01*
G37*
G04 #@! TD.AperFunction*
G04 #@! TA.AperFunction,SMDPad,CuDef*
G04 #@! TO.P,LED5,3*
G04 #@! TO.N,GND*
G36*
X224848794Y-176060381D02*
G01*
X224438794Y-175350241D01*
X225997640Y-174450241D01*
X226407640Y-175160381D01*
X224848794Y-176060381D01*
G37*
G04 #@! TD.AperFunction*
G04 #@! TA.AperFunction,SMDPad,CuDef*
G04 #@! TO.P,LED5,2*
G04 #@! TO.N,Net-(LED5-Pad2)*
G36*
X229178922Y-173560381D02*
G01*
X228768922Y-172850241D01*
X230327768Y-171950241D01*
X230737768Y-172660381D01*
X229178922Y-173560381D01*
G37*
G04 #@! TD.AperFunction*
G04 #@! TA.AperFunction,SMDPad,CuDef*
G04 #@! TO.P,LED5,1*
G04 #@! TO.N,VCC*
G36*
X228428922Y-172261343D02*
G01*
X228018922Y-171551203D01*
X229577768Y-170651203D01*
X229987768Y-171361343D01*
X228428922Y-172261343D01*
G37*
G04 #@! TD.AperFunction*
G04 #@! TD*
G04 #@! TA.AperFunction,SMDPad,CuDef*
G04 #@! TO.P,LED4,1*
G04 #@! TO.N,VCC*
G36*
X192318841Y-195681379D02*
G01*
X192038384Y-194910831D01*
X193729831Y-194295195D01*
X194010288Y-195065743D01*
X192318841Y-195681379D01*
G37*
G04 #@! TD.AperFunction*
G04 #@! TA.AperFunction,SMDPad,CuDef*
G04 #@! TO.P,LED4,2*
G04 #@! TO.N,Net-(LED4-Pad2)*
G36*
X192831872Y-197090918D02*
G01*
X192551415Y-196320370D01*
X194242862Y-195704734D01*
X194523319Y-196475282D01*
X192831872Y-197090918D01*
G37*
G04 #@! TD.AperFunction*
G04 #@! TA.AperFunction,SMDPad,CuDef*
G04 #@! TO.P,LED4,3*
G04 #@! TO.N,GND*
G36*
X188133409Y-198801019D02*
G01*
X187852952Y-198030471D01*
X189544399Y-197414835D01*
X189824856Y-198185383D01*
X188133409Y-198801019D01*
G37*
G04 #@! TD.AperFunction*
G04 #@! TA.AperFunction,SMDPad,CuDef*
G04 #@! TO.P,LED4,4*
G04 #@! TO.N,Net-(LED3-Pad2)*
G36*
X187620378Y-197391480D02*
G01*
X187339921Y-196620932D01*
X189031368Y-196005296D01*
X189311825Y-196775844D01*
X187620378Y-197391480D01*
G37*
G04 #@! TD.AperFunction*
G04 #@! TD*
D13*
G04 #@! TO.P,LED3,1*
G04 #@! TO.N,VCC*
X149601676Y-194322788D03*
G04 #@! TO.P,LED3,2*
G04 #@! TO.N,Net-(LED3-Pad2)*
X149601676Y-195822788D03*
G04 #@! TO.P,LED3,3*
G04 #@! TO.N,GND*
X144601676Y-195822788D03*
G04 #@! TO.P,LED3,4*
G04 #@! TO.N,Net-(LED2-Pad2)*
X144601676Y-194322788D03*
G04 #@! TD*
G04 #@! TO.P,LED2,1*
G04 #@! TO.N,VCC*
X111679474Y-194373590D03*
G04 #@! TO.P,LED2,2*
G04 #@! TO.N,Net-(LED2-Pad2)*
X111679474Y-195873590D03*
G04 #@! TO.P,LED2,3*
G04 #@! TO.N,GND*
X106679474Y-195873590D03*
G04 #@! TO.P,LED2,4*
G04 #@! TO.N,Net-(LED1-Pad2)*
X106679474Y-194373590D03*
G04 #@! TD*
G04 #@! TO.P,LED1,4*
G04 #@! TO.N,LED*
X68630278Y-194297390D03*
G04 #@! TO.P,LED1,3*
G04 #@! TO.N,GND*
X68630278Y-195797390D03*
G04 #@! TO.P,LED1,2*
G04 #@! TO.N,Net-(LED1-Pad2)*
X73630278Y-195797390D03*
G04 #@! TO.P,LED1,1*
G04 #@! TO.N,VCC*
X73630278Y-194297390D03*
G04 #@! TD*
D14*
G04 #@! TO.P,sw1,2*
G04 #@! TO.N,GND*
X33766873Y-207719588D03*
G04 #@! TO.P,sw1,1*
G04 #@! TO.N,Net-(U1-Pad22)*
X33766873Y-201219588D03*
G04 #@! TD*
D15*
G04 #@! TO.P,,*
G04 #@! TO.N,*
X297037879Y-134696990D03*
G04 #@! TD*
G04 #@! TO.P,,*
G04 #@! TO.N,*
X284845878Y-104293192D03*
G04 #@! TD*
G04 #@! TO.P,,*
G04 #@! TO.N,*
X90129480Y-195275989D03*
G04 #@! TD*
D16*
G04 #@! TO.P,MX7,1*
G04 #@! TO.N,COL1*
X95831844Y-164000888D03*
G04 #@! TO.P,MX7,2*
G04 #@! TO.N,Net-(D20-Pad2)*
X102181844Y-161460888D03*
G04 #@! TD*
D15*
G04 #@! TO.P,,*
G04 #@! TO.N,*
X89900874Y-176200590D03*
G04 #@! TD*
G04 #@! TO.P,,*
G04 #@! TO.N,*
X174457477Y-165430988D03*
G04 #@! TD*
G04 #@! TO.P,,*
G04 #@! TO.N,*
X193507475Y-209220588D03*
G04 #@! TD*
D16*
G04 #@! TO.P,MX28,1*
G04 #@! TO.N,COL4*
X226122289Y-160086185D03*
G04 #@! TO.P,MX28,2*
G04 #@! TO.N,Net-(D18-Pad2)*
X230351551Y-154711481D03*
G04 #@! TD*
G04 #@! TA.AperFunction,SMDPad,CuDef*
D12*
G04 #@! TO.P,D55,2*
G04 #@! TO.N,Net-(D55-Pad2)*
G36*
X353459224Y-127545824D02*
G01*
X352541595Y-127791702D01*
X352205130Y-126535998D01*
X353122759Y-126290120D01*
X353459224Y-127545824D01*
G37*
G04 #@! TD.AperFunction*
G04 #@! TA.AperFunction,SMDPad,CuDef*
G04 #@! TO.P,D55,1*
G04 #@! TO.N,ROW5*
G36*
X354378032Y-130974860D02*
G01*
X353460403Y-131220738D01*
X353123938Y-129965034D01*
X354041567Y-129719156D01*
X354378032Y-130974860D01*
G37*
G04 #@! TD.AperFunction*
G04 #@! TA.AperFunction,ComponentPad*
D17*
G36*
X355133166Y-132929520D02*
G01*
X353783768Y-133291090D01*
X353422198Y-131941692D01*
X354771596Y-131580122D01*
X355133166Y-132929520D01*
G37*
G04 #@! TD.AperFunction*
D18*
G04 #@! TO.P,D55,2*
G04 #@! TO.N,Net-(D55-Pad2)*
X352305480Y-125075252D03*
G04 #@! TD*
G04 #@! TA.AperFunction,SMDPad,CuDef*
D12*
G04 #@! TO.P,D54,2*
G04 #@! TO.N,Net-(D54-Pad2)*
G36*
X348504082Y-108651912D02*
G01*
X347586453Y-108897790D01*
X347249988Y-107642086D01*
X348167617Y-107396208D01*
X348504082Y-108651912D01*
G37*
G04 #@! TD.AperFunction*
G04 #@! TA.AperFunction,SMDPad,CuDef*
G04 #@! TO.P,D54,1*
G04 #@! TO.N,ROW3*
G36*
X349422890Y-112080948D02*
G01*
X348505261Y-112326826D01*
X348168796Y-111071122D01*
X349086425Y-110825244D01*
X349422890Y-112080948D01*
G37*
G04 #@! TD.AperFunction*
G04 #@! TA.AperFunction,ComponentPad*
D17*
G36*
X350178024Y-114035608D02*
G01*
X348828626Y-114397178D01*
X348467056Y-113047780D01*
X349816454Y-112686210D01*
X350178024Y-114035608D01*
G37*
G04 #@! TD.AperFunction*
D18*
G04 #@! TO.P,D54,2*
G04 #@! TO.N,Net-(D54-Pad2)*
X347350338Y-106181340D03*
G04 #@! TD*
G04 #@! TA.AperFunction,SMDPad,CuDef*
D12*
G04 #@! TO.P,D53,2*
G04 #@! TO.N,Net-(D53-Pad2)*
G36*
X343599876Y-90349160D02*
G01*
X342682247Y-90595038D01*
X342345782Y-89339334D01*
X343263411Y-89093456D01*
X343599876Y-90349160D01*
G37*
G04 #@! TD.AperFunction*
G04 #@! TA.AperFunction,SMDPad,CuDef*
G04 #@! TO.P,D53,1*
G04 #@! TO.N,ROW1*
G36*
X344518684Y-93778196D02*
G01*
X343601055Y-94024074D01*
X343264590Y-92768370D01*
X344182219Y-92522492D01*
X344518684Y-93778196D01*
G37*
G04 #@! TD.AperFunction*
G04 #@! TA.AperFunction,ComponentPad*
D17*
G36*
X345273818Y-95732856D02*
G01*
X343924420Y-96094426D01*
X343562850Y-94745028D01*
X344912248Y-94383458D01*
X345273818Y-95732856D01*
G37*
G04 #@! TD.AperFunction*
D18*
G04 #@! TO.P,D53,2*
G04 #@! TO.N,Net-(D53-Pad2)*
X342446132Y-87878588D03*
G04 #@! TD*
G04 #@! TA.AperFunction,SMDPad,CuDef*
D12*
G04 #@! TO.P,D52,2*
G04 #@! TO.N,Net-(D52-Pad2)*
G36*
X215264788Y-189723770D02*
G01*
X214442064Y-190198770D01*
X213792064Y-189072936D01*
X214614788Y-188597936D01*
X215264788Y-189723770D01*
G37*
G04 #@! TD.AperFunction*
G04 #@! TA.AperFunction,SMDPad,CuDef*
G04 #@! TO.P,D52,1*
G04 #@! TO.N,ROW5*
G36*
X217039788Y-192798160D02*
G01*
X216217064Y-193273160D01*
X215567064Y-192147326D01*
X216389788Y-191672326D01*
X217039788Y-192798160D01*
G37*
G04 #@! TD.AperFunction*
G04 #@! TA.AperFunction,ComponentPad*
D17*
G36*
X218275095Y-194490774D02*
G01*
X217065257Y-195189274D01*
X216366757Y-193979436D01*
X217576595Y-193280936D01*
X218275095Y-194490774D01*
G37*
G04 #@! TD.AperFunction*
D18*
G04 #@! TO.P,D52,2*
G04 #@! TO.N,Net-(D52-Pad2)*
X213510926Y-187635991D03*
G04 #@! TD*
G04 #@! TA.AperFunction,SMDPad,CuDef*
D12*
G04 #@! TO.P,D51,2*
G04 #@! TO.N,Net-(D51-Pad2)*
G36*
X205752493Y-173247983D02*
G01*
X204929769Y-173722983D01*
X204279769Y-172597149D01*
X205102493Y-172122149D01*
X205752493Y-173247983D01*
G37*
G04 #@! TD.AperFunction*
G04 #@! TA.AperFunction,SMDPad,CuDef*
G04 #@! TO.P,D51,1*
G04 #@! TO.N,ROW3*
G36*
X207527493Y-176322373D02*
G01*
X206704769Y-176797373D01*
X206054769Y-175671539D01*
X206877493Y-175196539D01*
X207527493Y-176322373D01*
G37*
G04 #@! TD.AperFunction*
G04 #@! TA.AperFunction,ComponentPad*
D17*
G36*
X208762800Y-178014987D02*
G01*
X207552962Y-178713487D01*
X206854462Y-177503649D01*
X208064300Y-176805149D01*
X208762800Y-178014987D01*
G37*
G04 #@! TD.AperFunction*
D18*
G04 #@! TO.P,D51,2*
G04 #@! TO.N,Net-(D51-Pad2)*
X203998631Y-171160204D03*
G04 #@! TD*
G04 #@! TA.AperFunction,SMDPad,CuDef*
D12*
G04 #@! TO.P,D50,2*
G04 #@! TO.N,Net-(D50-Pad2)*
G36*
X196199604Y-156854291D02*
G01*
X195376880Y-157329291D01*
X194726880Y-156203457D01*
X195549604Y-155728457D01*
X196199604Y-156854291D01*
G37*
G04 #@! TD.AperFunction*
G04 #@! TA.AperFunction,SMDPad,CuDef*
G04 #@! TO.P,D50,1*
G04 #@! TO.N,ROW1*
G36*
X197974604Y-159928681D02*
G01*
X197151880Y-160403681D01*
X196501880Y-159277847D01*
X197324604Y-158802847D01*
X197974604Y-159928681D01*
G37*
G04 #@! TD.AperFunction*
G04 #@! TA.AperFunction,ComponentPad*
D17*
G36*
X199209911Y-161621295D02*
G01*
X198000073Y-162319795D01*
X197301573Y-161109957D01*
X198511411Y-160411457D01*
X199209911Y-161621295D01*
G37*
G04 #@! TD.AperFunction*
D18*
G04 #@! TO.P,D50,2*
G04 #@! TO.N,Net-(D50-Pad2)*
X194445742Y-154766512D03*
G04 #@! TD*
G04 #@! TA.AperFunction,SMDPad,CuDef*
D12*
G04 #@! TO.P,D49,2*
G04 #@! TO.N,Net-(D49-Pad2)*
G36*
X337031564Y-132079080D02*
G01*
X336113935Y-132324958D01*
X335777470Y-131069254D01*
X336695099Y-130823376D01*
X337031564Y-132079080D01*
G37*
G04 #@! TD.AperFunction*
G04 #@! TA.AperFunction,SMDPad,CuDef*
G04 #@! TO.P,D49,1*
G04 #@! TO.N,ROW4*
G36*
X337950372Y-135508116D02*
G01*
X337032743Y-135753994D01*
X336696278Y-134498290D01*
X337613907Y-134252412D01*
X337950372Y-135508116D01*
G37*
G04 #@! TD.AperFunction*
G04 #@! TA.AperFunction,ComponentPad*
D17*
G36*
X338705506Y-137462776D02*
G01*
X337356108Y-137824346D01*
X336994538Y-136474948D01*
X338343936Y-136113378D01*
X338705506Y-137462776D01*
G37*
G04 #@! TD.AperFunction*
D18*
G04 #@! TO.P,D49,2*
G04 #@! TO.N,Net-(D49-Pad2)*
X335877820Y-129608508D03*
G04 #@! TD*
G04 #@! TA.AperFunction,SMDPad,CuDef*
D12*
G04 #@! TO.P,D48,2*
G04 #@! TO.N,Net-(D48-Pad2)*
G36*
X331722474Y-113148531D02*
G01*
X330804845Y-113394409D01*
X330468380Y-112138705D01*
X331386009Y-111892827D01*
X331722474Y-113148531D01*
G37*
G04 #@! TD.AperFunction*
G04 #@! TA.AperFunction,SMDPad,CuDef*
G04 #@! TO.P,D48,1*
G04 #@! TO.N,ROW2*
G36*
X332641282Y-116577567D02*
G01*
X331723653Y-116823445D01*
X331387188Y-115567741D01*
X332304817Y-115321863D01*
X332641282Y-116577567D01*
G37*
G04 #@! TD.AperFunction*
G04 #@! TA.AperFunction,ComponentPad*
D17*
G36*
X333396416Y-118532227D02*
G01*
X332047018Y-118893797D01*
X331685448Y-117544399D01*
X333034846Y-117182829D01*
X333396416Y-118532227D01*
G37*
G04 #@! TD.AperFunction*
D18*
G04 #@! TO.P,D48,2*
G04 #@! TO.N,Net-(D48-Pad2)*
X330568730Y-110677959D03*
G04 #@! TD*
G04 #@! TA.AperFunction,SMDPad,CuDef*
D12*
G04 #@! TO.P,D47,2*
G04 #@! TO.N,Net-(D47-Pad2)*
G36*
X326954087Y-94861979D02*
G01*
X326036458Y-95107857D01*
X325699993Y-93852153D01*
X326617622Y-93606275D01*
X326954087Y-94861979D01*
G37*
G04 #@! TD.AperFunction*
G04 #@! TA.AperFunction,SMDPad,CuDef*
G04 #@! TO.P,D47,1*
G04 #@! TO.N,ROW0*
G36*
X327872895Y-98291015D02*
G01*
X326955266Y-98536893D01*
X326618801Y-97281189D01*
X327536430Y-97035311D01*
X327872895Y-98291015D01*
G37*
G04 #@! TD.AperFunction*
G04 #@! TA.AperFunction,ComponentPad*
D17*
G36*
X328628029Y-100245675D02*
G01*
X327278631Y-100607245D01*
X326917061Y-99257847D01*
X328266459Y-98896277D01*
X328628029Y-100245675D01*
G37*
G04 #@! TD.AperFunction*
D18*
G04 #@! TO.P,D47,2*
G04 #@! TO.N,Net-(D47-Pad2)*
X325800343Y-92391407D03*
G04 #@! TD*
D19*
G04 #@! TO.P,D46,2*
G04 #@! TO.N,Net-(D46-Pad2)*
X185085991Y-202910575D03*
G04 #@! TO.P,D46,1*
G04 #@! TO.N,ROW4*
X185085991Y-206460575D03*
D20*
X185085991Y-208495575D03*
D18*
G04 #@! TO.P,D46,2*
G04 #@! TO.N,Net-(D46-Pad2)*
X185085991Y-200875575D03*
G04 #@! TD*
D19*
G04 #@! TO.P,D45,2*
G04 #@! TO.N,Net-(D45-Pad2)*
X184933591Y-183755966D03*
G04 #@! TO.P,D45,1*
G04 #@! TO.N,ROW2*
X184933591Y-187305966D03*
D20*
X184933591Y-189340966D03*
D18*
G04 #@! TO.P,D45,2*
G04 #@! TO.N,Net-(D45-Pad2)*
X184933591Y-181720966D03*
G04 #@! TD*
G04 #@! TA.AperFunction,SMDPad,CuDef*
D12*
G04 #@! TO.P,D43,2*
G04 #@! TO.N,Net-(D43-Pad2)*
G36*
X318391436Y-136705542D02*
G01*
X317473807Y-136951420D01*
X317137342Y-135695716D01*
X318054971Y-135449838D01*
X318391436Y-136705542D01*
G37*
G04 #@! TD.AperFunction*
G04 #@! TA.AperFunction,SMDPad,CuDef*
G04 #@! TO.P,D43,1*
G04 #@! TO.N,ROW5*
G36*
X319310244Y-140134578D02*
G01*
X318392615Y-140380456D01*
X318056150Y-139124752D01*
X318973779Y-138878874D01*
X319310244Y-140134578D01*
G37*
G04 #@! TD.AperFunction*
G04 #@! TA.AperFunction,ComponentPad*
D17*
G36*
X320065378Y-142089238D02*
G01*
X318715980Y-142450808D01*
X318354410Y-141101410D01*
X319703808Y-140739840D01*
X320065378Y-142089238D01*
G37*
G04 #@! TD.AperFunction*
D18*
G04 #@! TO.P,D43,2*
G04 #@! TO.N,Net-(D43-Pad2)*
X317237692Y-134234970D03*
G04 #@! TD*
G04 #@! TA.AperFunction,SMDPad,CuDef*
D12*
G04 #@! TO.P,D42,2*
G04 #@! TO.N,Net-(D42-Pad2)*
G36*
X313447309Y-117861269D02*
G01*
X312529680Y-118107147D01*
X312193215Y-116851443D01*
X313110844Y-116605565D01*
X313447309Y-117861269D01*
G37*
G04 #@! TD.AperFunction*
G04 #@! TA.AperFunction,SMDPad,CuDef*
G04 #@! TO.P,D42,1*
G04 #@! TO.N,ROW3*
G36*
X314366117Y-121290305D02*
G01*
X313448488Y-121536183D01*
X313112023Y-120280479D01*
X314029652Y-120034601D01*
X314366117Y-121290305D01*
G37*
G04 #@! TD.AperFunction*
G04 #@! TA.AperFunction,ComponentPad*
D17*
G36*
X315121251Y-123244965D02*
G01*
X313771853Y-123606535D01*
X313410283Y-122257137D01*
X314759681Y-121895567D01*
X315121251Y-123244965D01*
G37*
G04 #@! TD.AperFunction*
D18*
G04 #@! TO.P,D42,2*
G04 #@! TO.N,Net-(D42-Pad2)*
X312293565Y-115390697D03*
G04 #@! TD*
G04 #@! TA.AperFunction,SMDPad,CuDef*
D12*
G04 #@! TO.P,D41,2*
G04 #@! TO.N,Net-(D41-Pad2)*
G36*
X308621993Y-99852939D02*
G01*
X307704364Y-100098817D01*
X307367899Y-98843113D01*
X308285528Y-98597235D01*
X308621993Y-99852939D01*
G37*
G04 #@! TD.AperFunction*
G04 #@! TA.AperFunction,SMDPad,CuDef*
G04 #@! TO.P,D41,1*
G04 #@! TO.N,ROW1*
G36*
X309540801Y-103281975D02*
G01*
X308623172Y-103527853D01*
X308286707Y-102272149D01*
X309204336Y-102026271D01*
X309540801Y-103281975D01*
G37*
G04 #@! TD.AperFunction*
G04 #@! TA.AperFunction,ComponentPad*
D17*
G36*
X310295935Y-105236635D02*
G01*
X308946537Y-105598205D01*
X308584967Y-104248807D01*
X309934365Y-103887237D01*
X310295935Y-105236635D01*
G37*
G04 #@! TD.AperFunction*
D18*
G04 #@! TO.P,D41,2*
G04 #@! TO.N,Net-(D41-Pad2)*
X307468249Y-97382367D03*
G04 #@! TD*
D19*
G04 #@! TO.P,D40,2*
G04 #@! TO.N,Net-(D40-Pad2)*
X166086792Y-202961376D03*
G04 #@! TO.P,D40,1*
G04 #@! TO.N,ROW5*
X166086792Y-206511376D03*
D20*
X166086792Y-208546376D03*
D18*
G04 #@! TO.P,D40,2*
G04 #@! TO.N,Net-(D40-Pad2)*
X166086792Y-200926376D03*
G04 #@! TD*
D19*
G04 #@! TO.P,D39,2*
G04 #@! TO.N,Net-(D39-Pad2)*
X166010591Y-184190770D03*
G04 #@! TO.P,D39,1*
G04 #@! TO.N,ROW3*
X166010591Y-187740770D03*
D20*
X166010591Y-189775770D03*
D18*
G04 #@! TO.P,D39,2*
G04 #@! TO.N,Net-(D39-Pad2)*
X166010591Y-182155770D03*
G04 #@! TD*
D19*
G04 #@! TO.P,D38,2*
G04 #@! TO.N,Net-(D38-Pad2)*
X165858195Y-164912170D03*
G04 #@! TO.P,D38,1*
G04 #@! TO.N,ROW1*
X165858195Y-168462170D03*
D20*
X165858195Y-170497170D03*
D18*
G04 #@! TO.P,D38,2*
G04 #@! TO.N,Net-(D38-Pad2)*
X165858195Y-162877170D03*
G04 #@! TD*
G04 #@! TA.AperFunction,SMDPad,CuDef*
D12*
G04 #@! TO.P,D37,2*
G04 #@! TO.N,Net-(D37-Pad2)*
G36*
X297568439Y-142235072D02*
G01*
X296745715Y-142710072D01*
X296095715Y-141584238D01*
X296918439Y-141109238D01*
X297568439Y-142235072D01*
G37*
G04 #@! TD.AperFunction*
G04 #@! TA.AperFunction,SMDPad,CuDef*
G04 #@! TO.P,D37,1*
G04 #@! TO.N,ROW4*
G36*
X299343439Y-145309462D02*
G01*
X298520715Y-145784462D01*
X297870715Y-144658628D01*
X298693439Y-144183628D01*
X299343439Y-145309462D01*
G37*
G04 #@! TD.AperFunction*
G04 #@! TA.AperFunction,ComponentPad*
D17*
G36*
X300578746Y-147002076D02*
G01*
X299368908Y-147700576D01*
X298670408Y-146490738D01*
X299880246Y-145792238D01*
X300578746Y-147002076D01*
G37*
G04 #@! TD.AperFunction*
D18*
G04 #@! TO.P,D37,2*
G04 #@! TO.N,Net-(D37-Pad2)*
X295814577Y-140147293D03*
G04 #@! TD*
G04 #@! TA.AperFunction,SMDPad,CuDef*
D12*
G04 #@! TO.P,D36,2*
G04 #@! TO.N,Net-(D36-Pad2)*
G36*
X288518321Y-126255003D02*
G01*
X287695597Y-126730003D01*
X287045597Y-125604169D01*
X287868321Y-125129169D01*
X288518321Y-126255003D01*
G37*
G04 #@! TD.AperFunction*
G04 #@! TA.AperFunction,SMDPad,CuDef*
G04 #@! TO.P,D36,1*
G04 #@! TO.N,ROW2*
G36*
X290293321Y-129329393D02*
G01*
X289470597Y-129804393D01*
X288820597Y-128678559D01*
X289643321Y-128203559D01*
X290293321Y-129329393D01*
G37*
G04 #@! TD.AperFunction*
G04 #@! TA.AperFunction,ComponentPad*
D17*
G36*
X291528628Y-131022007D02*
G01*
X290318790Y-131720507D01*
X289620290Y-130510669D01*
X290830128Y-129812169D01*
X291528628Y-131022007D01*
G37*
G04 #@! TD.AperFunction*
D18*
G04 #@! TO.P,D36,2*
G04 #@! TO.N,Net-(D36-Pad2)*
X286764459Y-124167224D03*
G04 #@! TD*
G04 #@! TA.AperFunction,SMDPad,CuDef*
D12*
G04 #@! TO.P,D35,2*
G04 #@! TO.N,Net-(D35-Pad2)*
G36*
X279099236Y-110194666D02*
G01*
X278276512Y-110669666D01*
X277626512Y-109543832D01*
X278449236Y-109068832D01*
X279099236Y-110194666D01*
G37*
G04 #@! TD.AperFunction*
G04 #@! TA.AperFunction,SMDPad,CuDef*
G04 #@! TO.P,D35,1*
G04 #@! TO.N,ROW0*
G36*
X280874236Y-113269056D02*
G01*
X280051512Y-113744056D01*
X279401512Y-112618222D01*
X280224236Y-112143222D01*
X280874236Y-113269056D01*
G37*
G04 #@! TD.AperFunction*
G04 #@! TA.AperFunction,ComponentPad*
D17*
G36*
X282109543Y-114961670D02*
G01*
X280899705Y-115660170D01*
X280201205Y-114450332D01*
X281411043Y-113751832D01*
X282109543Y-114961670D01*
G37*
G04 #@! TD.AperFunction*
D18*
G04 #@! TO.P,D35,2*
G04 #@! TO.N,Net-(D35-Pad2)*
X277345374Y-108106887D03*
G04 #@! TD*
D19*
G04 #@! TO.P,D34,2*
G04 #@! TO.N,Net-(D34-Pad2)*
X147163795Y-202961373D03*
G04 #@! TO.P,D34,1*
G04 #@! TO.N,ROW4*
X147163795Y-206511373D03*
D20*
X147163795Y-208546373D03*
D18*
G04 #@! TO.P,D34,2*
G04 #@! TO.N,Net-(D34-Pad2)*
X147163795Y-200926373D03*
G04 #@! TD*
D19*
G04 #@! TO.P,D33,2*
G04 #@! TO.N,Net-(D33-Pad2)*
X147036796Y-183755970D03*
G04 #@! TO.P,D33,1*
G04 #@! TO.N,ROW2*
X147036796Y-187305970D03*
D20*
X147036796Y-189340970D03*
D18*
G04 #@! TO.P,D33,2*
G04 #@! TO.N,Net-(D33-Pad2)*
X147036796Y-181720970D03*
G04 #@! TD*
D19*
G04 #@! TO.P,D32,2*
G04 #@! TO.N,Net-(D32-Pad2)*
X147163793Y-164912171D03*
G04 #@! TO.P,D32,1*
G04 #@! TO.N,ROW0*
X147163793Y-168462171D03*
D20*
X147163793Y-170497171D03*
D18*
G04 #@! TO.P,D32,2*
G04 #@! TO.N,Net-(D32-Pad2)*
X147163793Y-162877171D03*
G04 #@! TD*
G04 #@! TA.AperFunction,SMDPad,CuDef*
D12*
G04 #@! TO.P,D31,2*
G04 #@! TO.N,Net-(D31-Pad2)*
G36*
X280870857Y-151464811D02*
G01*
X280048133Y-151939811D01*
X279398133Y-150813977D01*
X280220857Y-150338977D01*
X280870857Y-151464811D01*
G37*
G04 #@! TD.AperFunction*
G04 #@! TA.AperFunction,SMDPad,CuDef*
G04 #@! TO.P,D31,1*
G04 #@! TO.N,ROW5*
G36*
X282645857Y-154539201D02*
G01*
X281823133Y-155014201D01*
X281173133Y-153888367D01*
X281995857Y-153413367D01*
X282645857Y-154539201D01*
G37*
G04 #@! TD.AperFunction*
G04 #@! TA.AperFunction,ComponentPad*
D17*
G36*
X283881164Y-156231815D02*
G01*
X282671326Y-156930315D01*
X281972826Y-155720477D01*
X283182664Y-155021977D01*
X283881164Y-156231815D01*
G37*
G04 #@! TD.AperFunction*
D18*
G04 #@! TO.P,D31,2*
G04 #@! TO.N,Net-(D31-Pad2)*
X279116995Y-149377032D03*
G04 #@! TD*
G04 #@! TA.AperFunction,SMDPad,CuDef*
D12*
G04 #@! TO.P,D30,2*
G04 #@! TO.N,Net-(D30-Pad2)*
G36*
X271777661Y-135714924D02*
G01*
X270954937Y-136189924D01*
X270304937Y-135064090D01*
X271127661Y-134589090D01*
X271777661Y-135714924D01*
G37*
G04 #@! TD.AperFunction*
G04 #@! TA.AperFunction,SMDPad,CuDef*
G04 #@! TO.P,D30,1*
G04 #@! TO.N,ROW3*
G36*
X273552661Y-138789314D02*
G01*
X272729937Y-139264314D01*
X272079937Y-138138480D01*
X272902661Y-137663480D01*
X273552661Y-138789314D01*
G37*
G04 #@! TD.AperFunction*
G04 #@! TA.AperFunction,ComponentPad*
D17*
G36*
X274787968Y-140481928D02*
G01*
X273578130Y-141180428D01*
X272879630Y-139970590D01*
X274089468Y-139272090D01*
X274787968Y-140481928D01*
G37*
G04 #@! TD.AperFunction*
D18*
G04 #@! TO.P,D30,2*
G04 #@! TO.N,Net-(D30-Pad2)*
X270023799Y-133627145D03*
G04 #@! TD*
G04 #@! TA.AperFunction,SMDPad,CuDef*
D12*
G04 #@! TO.P,D29,2*
G04 #@! TO.N,Net-(D29-Pad2)*
G36*
X262186663Y-119255241D02*
G01*
X261363939Y-119730241D01*
X260713939Y-118604407D01*
X261536663Y-118129407D01*
X262186663Y-119255241D01*
G37*
G04 #@! TD.AperFunction*
G04 #@! TA.AperFunction,SMDPad,CuDef*
G04 #@! TO.P,D29,1*
G04 #@! TO.N,ROW1*
G36*
X263961663Y-122329631D02*
G01*
X263138939Y-122804631D01*
X262488939Y-121678797D01*
X263311663Y-121203797D01*
X263961663Y-122329631D01*
G37*
G04 #@! TD.AperFunction*
G04 #@! TA.AperFunction,ComponentPad*
D17*
G36*
X265196970Y-124022245D02*
G01*
X263987132Y-124720745D01*
X263288632Y-123510907D01*
X264498470Y-122812407D01*
X265196970Y-124022245D01*
G37*
G04 #@! TD.AperFunction*
D18*
G04 #@! TO.P,D29,2*
G04 #@! TO.N,Net-(D29-Pad2)*
X260432801Y-117167462D03*
G04 #@! TD*
D19*
G04 #@! TO.P,D28,2*
G04 #@! TO.N,Net-(D28-Pad2)*
X128080838Y-202783570D03*
G04 #@! TO.P,D28,1*
G04 #@! TO.N,ROW5*
X128080838Y-206333570D03*
D20*
X128080838Y-208368570D03*
D18*
G04 #@! TO.P,D28,2*
G04 #@! TO.N,Net-(D28-Pad2)*
X128080838Y-200748570D03*
G04 #@! TD*
D19*
G04 #@! TO.P,D27,2*
G04 #@! TO.N,Net-(D27-Pad2)*
X128088396Y-183962168D03*
G04 #@! TO.P,D27,1*
G04 #@! TO.N,ROW3*
X128088396Y-187512168D03*
D20*
X128088396Y-189547168D03*
D18*
G04 #@! TO.P,D27,2*
G04 #@! TO.N,Net-(D27-Pad2)*
X128088396Y-181927168D03*
G04 #@! TD*
D19*
G04 #@! TO.P,D26,2*
G04 #@! TO.N,Net-(D26-Pad2)*
X128164595Y-165521770D03*
G04 #@! TO.P,D26,1*
G04 #@! TO.N,ROW1*
X128164595Y-169071770D03*
D20*
X128164595Y-171106770D03*
D18*
G04 #@! TO.P,D26,2*
G04 #@! TO.N,Net-(D26-Pad2)*
X128164595Y-163486770D03*
G04 #@! TD*
G04 #@! TA.AperFunction,SMDPad,CuDef*
D12*
G04 #@! TO.P,D25,2*
G04 #@! TO.N,Net-(D25-Pad2)*
G36*
X264638866Y-161246971D02*
G01*
X263816142Y-161721971D01*
X263166142Y-160596137D01*
X263988866Y-160121137D01*
X264638866Y-161246971D01*
G37*
G04 #@! TD.AperFunction*
G04 #@! TA.AperFunction,SMDPad,CuDef*
G04 #@! TO.P,D25,1*
G04 #@! TO.N,ROW4*
G36*
X266413866Y-164321361D02*
G01*
X265591142Y-164796361D01*
X264941142Y-163670527D01*
X265763866Y-163195527D01*
X266413866Y-164321361D01*
G37*
G04 #@! TD.AperFunction*
G04 #@! TA.AperFunction,ComponentPad*
D17*
G36*
X267649173Y-166013975D02*
G01*
X266439335Y-166712475D01*
X265740835Y-165502637D01*
X266950673Y-164804137D01*
X267649173Y-166013975D01*
G37*
G04 #@! TD.AperFunction*
D18*
G04 #@! TO.P,D25,2*
G04 #@! TO.N,Net-(D25-Pad2)*
X262885004Y-159159192D03*
G04 #@! TD*
G04 #@! TA.AperFunction,SMDPad,CuDef*
D12*
G04 #@! TO.P,D24,2*
G04 #@! TO.N,Net-(D24-Pad2)*
G36*
X255327272Y-145271218D02*
G01*
X254504548Y-145746218D01*
X253854548Y-144620384D01*
X254677272Y-144145384D01*
X255327272Y-145271218D01*
G37*
G04 #@! TD.AperFunction*
G04 #@! TA.AperFunction,SMDPad,CuDef*
G04 #@! TO.P,D24,1*
G04 #@! TO.N,ROW2*
G36*
X257102272Y-148345608D02*
G01*
X256279548Y-148820608D01*
X255629548Y-147694774D01*
X256452272Y-147219774D01*
X257102272Y-148345608D01*
G37*
G04 #@! TD.AperFunction*
G04 #@! TA.AperFunction,ComponentPad*
D17*
G36*
X258337579Y-150038222D02*
G01*
X257127741Y-150736722D01*
X256429241Y-149526884D01*
X257639079Y-148828384D01*
X258337579Y-150038222D01*
G37*
G04 #@! TD.AperFunction*
D18*
G04 #@! TO.P,D24,2*
G04 #@! TO.N,Net-(D24-Pad2)*
X253573410Y-143183439D03*
G04 #@! TD*
G04 #@! TA.AperFunction,SMDPad,CuDef*
D12*
G04 #@! TO.P,D23,2*
G04 #@! TO.N,Net-(D23-Pad2)*
G36*
X245516976Y-128380893D02*
G01*
X244694252Y-128855893D01*
X244044252Y-127730059D01*
X244866976Y-127255059D01*
X245516976Y-128380893D01*
G37*
G04 #@! TD.AperFunction*
G04 #@! TA.AperFunction,SMDPad,CuDef*
G04 #@! TO.P,D23,1*
G04 #@! TO.N,ROW0*
G36*
X247291976Y-131455283D02*
G01*
X246469252Y-131930283D01*
X245819252Y-130804449D01*
X246641976Y-130329449D01*
X247291976Y-131455283D01*
G37*
G04 #@! TD.AperFunction*
G04 #@! TA.AperFunction,ComponentPad*
D17*
G36*
X248527283Y-133147897D02*
G01*
X247317445Y-133846397D01*
X246618945Y-132636559D01*
X247828783Y-131938059D01*
X248527283Y-133147897D01*
G37*
G04 #@! TD.AperFunction*
D18*
G04 #@! TO.P,D23,2*
G04 #@! TO.N,Net-(D23-Pad2)*
X243763114Y-126293114D03*
G04 #@! TD*
D19*
G04 #@! TO.P,D22,2*
G04 #@! TO.N,Net-(D22-Pad2)*
X109165398Y-202859773D03*
G04 #@! TO.P,D22,1*
G04 #@! TO.N,ROW4*
X109165398Y-206409773D03*
D20*
X109165398Y-208444773D03*
D18*
G04 #@! TO.P,D22,2*
G04 #@! TO.N,Net-(D22-Pad2)*
X109165398Y-200824773D03*
G04 #@! TD*
D19*
G04 #@! TO.P,D21,2*
G04 #@! TO.N,Net-(D21-Pad2)*
X109114593Y-183758972D03*
G04 #@! TO.P,D21,1*
G04 #@! TO.N,ROW2*
X109114593Y-187308972D03*
D20*
X109114593Y-189343972D03*
D18*
G04 #@! TO.P,D21,2*
G04 #@! TO.N,Net-(D21-Pad2)*
X109114593Y-181723972D03*
G04 #@! TD*
D19*
G04 #@! TO.P,D20,2*
G04 #@! TO.N,Net-(D20-Pad2)*
X109216194Y-164759770D03*
G04 #@! TO.P,D20,1*
G04 #@! TO.N,ROW0*
X109216194Y-168309770D03*
D20*
X109216194Y-170344770D03*
D18*
G04 #@! TO.P,D20,2*
G04 #@! TO.N,Net-(D20-Pad2)*
X109216194Y-162724770D03*
G04 #@! TD*
G04 #@! TA.AperFunction,SMDPad,CuDef*
D12*
G04 #@! TO.P,D19,2*
G04 #@! TO.N,Net-(D19-Pad2)*
G36*
X248144481Y-170828662D02*
G01*
X247321757Y-171303662D01*
X246671757Y-170177828D01*
X247494481Y-169702828D01*
X248144481Y-170828662D01*
G37*
G04 #@! TD.AperFunction*
G04 #@! TA.AperFunction,SMDPad,CuDef*
G04 #@! TO.P,D19,1*
G04 #@! TO.N,ROW5*
G36*
X249919481Y-173903052D02*
G01*
X249096757Y-174378052D01*
X248446757Y-173252218D01*
X249269481Y-172777218D01*
X249919481Y-173903052D01*
G37*
G04 #@! TD.AperFunction*
G04 #@! TA.AperFunction,ComponentPad*
D17*
G36*
X251154788Y-175595666D02*
G01*
X249944950Y-176294166D01*
X249246450Y-175084328D01*
X250456288Y-174385828D01*
X251154788Y-175595666D01*
G37*
G04 #@! TD.AperFunction*
D18*
G04 #@! TO.P,D19,2*
G04 #@! TO.N,Net-(D19-Pad2)*
X246390619Y-168740883D03*
G04 #@! TD*
G04 #@! TA.AperFunction,SMDPad,CuDef*
D12*
G04 #@! TO.P,D18,2*
G04 #@! TO.N,Net-(D18-Pad2)*
G36*
X238748971Y-154402764D02*
G01*
X237926247Y-154877764D01*
X237276247Y-153751930D01*
X238098971Y-153276930D01*
X238748971Y-154402764D01*
G37*
G04 #@! TD.AperFunction*
G04 #@! TA.AperFunction,SMDPad,CuDef*
G04 #@! TO.P,D18,1*
G04 #@! TO.N,ROW3*
G36*
X240523971Y-157477154D02*
G01*
X239701247Y-157952154D01*
X239051247Y-156826320D01*
X239873971Y-156351320D01*
X240523971Y-157477154D01*
G37*
G04 #@! TD.AperFunction*
G04 #@! TA.AperFunction,ComponentPad*
D17*
G36*
X241759278Y-159169768D02*
G01*
X240549440Y-159868268D01*
X239850940Y-158658430D01*
X241060778Y-157959930D01*
X241759278Y-159169768D01*
G37*
G04 #@! TD.AperFunction*
D18*
G04 #@! TO.P,D18,2*
G04 #@! TO.N,Net-(D18-Pad2)*
X236995109Y-152314985D03*
G04 #@! TD*
G04 #@! TA.AperFunction,SMDPad,CuDef*
D12*
G04 #@! TO.P,D17,2*
G04 #@! TO.N,Net-(D17-Pad2)*
G36*
X229164787Y-138056468D02*
G01*
X228342063Y-138531468D01*
X227692063Y-137405634D01*
X228514787Y-136930634D01*
X229164787Y-138056468D01*
G37*
G04 #@! TD.AperFunction*
G04 #@! TA.AperFunction,SMDPad,CuDef*
G04 #@! TO.P,D17,1*
G04 #@! TO.N,ROW1*
G36*
X230939787Y-141130858D02*
G01*
X230117063Y-141605858D01*
X229467063Y-140480024D01*
X230289787Y-140005024D01*
X230939787Y-141130858D01*
G37*
G04 #@! TD.AperFunction*
G04 #@! TA.AperFunction,ComponentPad*
D17*
G36*
X232175094Y-142823472D02*
G01*
X230965256Y-143521972D01*
X230266756Y-142312134D01*
X231476594Y-141613634D01*
X232175094Y-142823472D01*
G37*
G04 #@! TD.AperFunction*
D18*
G04 #@! TO.P,D17,2*
G04 #@! TO.N,Net-(D17-Pad2)*
X227410925Y-135968689D03*
G04 #@! TD*
D19*
G04 #@! TO.P,D16,2*
G04 #@! TO.N,Net-(D16-Pad2)*
X90089999Y-203012172D03*
G04 #@! TO.P,D16,1*
G04 #@! TO.N,ROW5*
X90089999Y-206562172D03*
D20*
X90089999Y-208597172D03*
D18*
G04 #@! TO.P,D16,2*
G04 #@! TO.N,Net-(D16-Pad2)*
X90089999Y-200977172D03*
G04 #@! TD*
D19*
G04 #@! TO.P,D15,2*
G04 #@! TO.N,Net-(D15-Pad2)*
X90107849Y-183860571D03*
G04 #@! TO.P,D15,1*
G04 #@! TO.N,ROW3*
X90107849Y-187410571D03*
D20*
X90107849Y-189445571D03*
D18*
G04 #@! TO.P,D15,2*
G04 #@! TO.N,Net-(D15-Pad2)*
X90107849Y-181825571D03*
G04 #@! TD*
D19*
G04 #@! TO.P,D14,2*
G04 #@! TO.N,Net-(D14-Pad2)*
X90013792Y-165242371D03*
G04 #@! TO.P,D14,1*
G04 #@! TO.N,ROW1*
X90013792Y-168792371D03*
D20*
X90013792Y-170827371D03*
D18*
G04 #@! TO.P,D14,2*
G04 #@! TO.N,Net-(D14-Pad2)*
X90013792Y-163207371D03*
G04 #@! TD*
G04 #@! TA.AperFunction,SMDPad,CuDef*
D12*
G04 #@! TO.P,D13,2*
G04 #@! TO.N,Net-(D13-Pad2)*
G36*
X231816778Y-180343454D02*
G01*
X230994054Y-180818454D01*
X230344054Y-179692620D01*
X231166778Y-179217620D01*
X231816778Y-180343454D01*
G37*
G04 #@! TD.AperFunction*
G04 #@! TA.AperFunction,SMDPad,CuDef*
G04 #@! TO.P,D13,1*
G04 #@! TO.N,ROW4*
G36*
X233591778Y-183417844D02*
G01*
X232769054Y-183892844D01*
X232119054Y-182767010D01*
X232941778Y-182292010D01*
X233591778Y-183417844D01*
G37*
G04 #@! TD.AperFunction*
G04 #@! TA.AperFunction,ComponentPad*
D17*
G36*
X234827085Y-185110458D02*
G01*
X233617247Y-185808958D01*
X232918747Y-184599120D01*
X234128585Y-183900620D01*
X234827085Y-185110458D01*
G37*
G04 #@! TD.AperFunction*
D18*
G04 #@! TO.P,D13,2*
G04 #@! TO.N,Net-(D13-Pad2)*
X230062916Y-178255675D03*
G04 #@! TD*
G04 #@! TA.AperFunction,SMDPad,CuDef*
D12*
G04 #@! TO.P,D12,2*
G04 #@! TO.N,Net-(D12-Pad2)*
G36*
X222191091Y-163874472D02*
G01*
X221368367Y-164349472D01*
X220718367Y-163223638D01*
X221541091Y-162748638D01*
X222191091Y-163874472D01*
G37*
G04 #@! TD.AperFunction*
G04 #@! TA.AperFunction,SMDPad,CuDef*
G04 #@! TO.P,D12,1*
G04 #@! TO.N,ROW2*
G36*
X223966091Y-166948862D02*
G01*
X223143367Y-167423862D01*
X222493367Y-166298028D01*
X223316091Y-165823028D01*
X223966091Y-166948862D01*
G37*
G04 #@! TD.AperFunction*
G04 #@! TA.AperFunction,ComponentPad*
D17*
G36*
X225201398Y-168641476D02*
G01*
X223991560Y-169339976D01*
X223293060Y-168130138D01*
X224502898Y-167431638D01*
X225201398Y-168641476D01*
G37*
G04 #@! TD.AperFunction*
D18*
G04 #@! TO.P,D12,2*
G04 #@! TO.N,Net-(D12-Pad2)*
X220437229Y-161786693D03*
G04 #@! TD*
G04 #@! TA.AperFunction,SMDPad,CuDef*
D12*
G04 #@! TO.P,D11,2*
G04 #@! TO.N,Net-(D11-Pad2)*
G36*
X212710085Y-147351290D02*
G01*
X211887361Y-147826290D01*
X211237361Y-146700456D01*
X212060085Y-146225456D01*
X212710085Y-147351290D01*
G37*
G04 #@! TD.AperFunction*
G04 #@! TA.AperFunction,SMDPad,CuDef*
G04 #@! TO.P,D11,1*
G04 #@! TO.N,ROW0*
G36*
X214485085Y-150425680D02*
G01*
X213662361Y-150900680D01*
X213012361Y-149774846D01*
X213835085Y-149299846D01*
X214485085Y-150425680D01*
G37*
G04 #@! TD.AperFunction*
G04 #@! TA.AperFunction,ComponentPad*
D17*
G36*
X215720392Y-152118294D02*
G01*
X214510554Y-152816794D01*
X213812054Y-151606956D01*
X215021892Y-150908456D01*
X215720392Y-152118294D01*
G37*
G04 #@! TD.AperFunction*
D18*
G04 #@! TO.P,D11,2*
G04 #@! TO.N,Net-(D11-Pad2)*
X210956223Y-145263511D03*
G04 #@! TD*
D19*
G04 #@! TO.P,D10,2*
G04 #@! TO.N,Net-(D10-Pad2)*
X71166992Y-203088369D03*
G04 #@! TO.P,D10,1*
G04 #@! TO.N,ROW4*
X71166992Y-206638369D03*
D20*
X71166992Y-208673369D03*
D18*
G04 #@! TO.P,D10,2*
G04 #@! TO.N,Net-(D10-Pad2)*
X71166992Y-201053369D03*
G04 #@! TD*
D19*
G04 #@! TO.P,D9,2*
G04 #@! TO.N,Net-(D9-Pad2)*
X71217794Y-183962171D03*
G04 #@! TO.P,D9,1*
G04 #@! TO.N,ROW2*
X71217794Y-187512171D03*
D20*
X71217794Y-189547171D03*
D18*
G04 #@! TO.P,D9,2*
G04 #@! TO.N,Net-(D9-Pad2)*
X71217794Y-181927171D03*
G04 #@! TD*
D19*
G04 #@! TO.P,D8,2*
G04 #@! TO.N,Net-(D8-Pad2)*
X70811394Y-164683569D03*
G04 #@! TO.P,D8,1*
G04 #@! TO.N,ROW0*
X70811394Y-168233569D03*
D20*
X70811394Y-170268569D03*
D18*
G04 #@! TO.P,D8,2*
G04 #@! TO.N,Net-(D8-Pad2)*
X70811394Y-162648569D03*
G04 #@! TD*
D21*
G04 #@! TO.P,U1,1*
G04 #@! TO.N,LED*
X34202445Y-162101645D03*
D22*
G04 #@! TO.P,U1,2*
G04 #@! TO.N,Net-(U1-Pad2)*
X34202445Y-164641645D03*
G04 #@! TO.P,U1,3*
G04 #@! TO.N,GND*
X34202445Y-167181645D03*
G04 #@! TO.P,U1,4*
X34202445Y-169721645D03*
G04 #@! TO.P,U1,5*
G04 #@! TO.N,SDA*
X34202445Y-172261645D03*
G04 #@! TO.P,U1,6*
G04 #@! TO.N,SCK*
X34202445Y-174801645D03*
G04 #@! TO.P,U1,7*
G04 #@! TO.N,ROW0*
X34202445Y-177341645D03*
G04 #@! TO.P,U1,8*
G04 #@! TO.N,ROW1*
X34202445Y-179881645D03*
G04 #@! TO.P,U1,9*
G04 #@! TO.N,ROW2*
X34202445Y-182421645D03*
G04 #@! TO.P,U1,10*
G04 #@! TO.N,ROW3*
X34202445Y-184961645D03*
G04 #@! TO.P,U1,11*
G04 #@! TO.N,ROW5*
X34202445Y-187501645D03*
G04 #@! TO.P,U1,12*
G04 #@! TO.N,ROW4*
X34202445Y-190041645D03*
G04 #@! TO.P,U1,13*
G04 #@! TO.N,COL0*
X49442445Y-190041645D03*
G04 #@! TO.P,U1,14*
G04 #@! TO.N,COL1*
X49442445Y-187501645D03*
G04 #@! TO.P,U1,15*
G04 #@! TO.N,COL2*
X49442445Y-184961645D03*
G04 #@! TO.P,U1,16*
G04 #@! TO.N,COL3*
X49442445Y-182421645D03*
G04 #@! TO.P,U1,17*
G04 #@! TO.N,COL4*
X49442445Y-179881645D03*
G04 #@! TO.P,U1,18*
G04 #@! TO.N,COL5*
X49442445Y-177341645D03*
G04 #@! TO.P,U1,19*
G04 #@! TO.N,COL6*
X49442445Y-174801645D03*
G04 #@! TO.P,U1,20*
G04 #@! TO.N,COL7*
X49442445Y-172261645D03*
G04 #@! TO.P,U1,21*
G04 #@! TO.N,VCC*
X49442445Y-169721645D03*
G04 #@! TO.P,U1,22*
G04 #@! TO.N,Net-(U1-Pad22)*
X49442445Y-167181645D03*
G04 #@! TO.P,U1,23*
G04 #@! TO.N,GND*
X49442445Y-164641645D03*
G04 #@! TO.P,U1,24*
G04 #@! TO.N,Net-(U1-Pad24)*
X49442445Y-162101645D03*
G04 #@! TD*
D23*
G04 #@! TO.P,J1,4*
G04 #@! TO.N,GND*
X45716197Y-197395774D03*
G04 #@! TO.P,J1,3*
G04 #@! TO.N,VCC*
X43176197Y-197395774D03*
G04 #@! TO.P,J1,2*
G04 #@! TO.N,SCK*
X40636197Y-197395774D03*
D24*
G04 #@! TO.P,J1,1*
G04 #@! TO.N,SDA*
X38096197Y-197395774D03*
G04 #@! TD*
D16*
G04 #@! TO.P,MX22,1*
G04 #@! TO.N,COL3*
X193222292Y-179086194D03*
G04 #@! TO.P,MX22,2*
G04 #@! TO.N,Net-(D51-Pad2)*
X197451554Y-173711490D03*
G04 #@! TD*
G04 #@! TO.P,MX30,1*
G04 #@! TO.N,COL5*
X233072285Y-134126190D03*
G04 #@! TO.P,MX30,2*
G04 #@! TO.N,Net-(D23-Pad2)*
X237301547Y-128751486D03*
G04 #@! TD*
G04 #@! TO.P,MX47,1*
G04 #@! TO.N,COL7*
X341511168Y-128958732D03*
G04 #@! TO.P,MX47,2*
G04 #@! TO.N,Net-(D55-Pad2)*
X346987397Y-124861779D03*
G04 #@! TD*
G04 #@! TO.P,MX46,1*
G04 #@! TO.N,COL7*
X336574268Y-110573544D03*
G04 #@! TO.P,MX46,2*
G04 #@! TO.N,Net-(D54-Pad2)*
X342050497Y-106476591D03*
G04 #@! TD*
G04 #@! TO.P,MX45,1*
G04 #@! TO.N,COL7*
X331674268Y-92223543D03*
G04 #@! TO.P,MX45,2*
G04 #@! TO.N,Net-(D53-Pad2)*
X337150497Y-88126590D03*
G04 #@! TD*
G04 #@! TO.P,MX44,1*
G04 #@! TO.N,COL7*
X323174268Y-133863531D03*
G04 #@! TO.P,MX44,2*
G04 #@! TO.N,Net-(D49-Pad2)*
X328650497Y-129766578D03*
G04 #@! TD*
G04 #@! TO.P,MX43,1*
G04 #@! TO.N,COL7*
X318234269Y-115493540D03*
G04 #@! TO.P,MX43,2*
G04 #@! TO.N,Net-(D48-Pad2)*
X323710498Y-111396587D03*
G04 #@! TD*
G04 #@! TO.P,MX42,1*
G04 #@! TO.N,COL7*
X313324267Y-97123538D03*
G04 #@! TO.P,MX42,2*
G04 #@! TO.N,Net-(D47-Pad2)*
X318800496Y-93026585D03*
G04 #@! TD*
G04 #@! TO.P,MX41,1*
G04 #@! TO.N,COL6*
X304814274Y-138763546D03*
G04 #@! TO.P,MX41,2*
G04 #@! TO.N,Net-(D43-Pad2)*
X310290503Y-134666593D03*
G04 #@! TD*
G04 #@! TO.P,MX40,1*
G04 #@! TO.N,COL6*
X299914261Y-120413541D03*
G04 #@! TO.P,MX40,2*
G04 #@! TO.N,Net-(D42-Pad2)*
X305390490Y-116316588D03*
G04 #@! TD*
G04 #@! TO.P,MX39,1*
G04 #@! TO.N,COL6*
X294964267Y-102053539D03*
G04 #@! TO.P,MX39,2*
G04 #@! TO.N,Net-(D41-Pad2)*
X300440496Y-97956586D03*
G04 #@! TD*
G04 #@! TO.P,MX38,1*
G04 #@! TO.N,COL6*
X284992287Y-148036175D03*
G04 #@! TO.P,MX38,2*
G04 #@! TO.N,Net-(D37-Pad2)*
X289221549Y-142661471D03*
G04 #@! TD*
G04 #@! TO.P,MX37,1*
G04 #@! TO.N,COL6*
X275492287Y-131556186D03*
G04 #@! TO.P,MX37,2*
G04 #@! TO.N,Net-(D36-Pad2)*
X279721549Y-126181482D03*
G04 #@! TD*
G04 #@! TO.P,MX36,1*
G04 #@! TO.N,COL6*
X265962286Y-115126181D03*
G04 #@! TO.P,MX36,2*
G04 #@! TO.N,Net-(D35-Pad2)*
X270191548Y-109751477D03*
G04 #@! TD*
G04 #@! TO.P,MX35,1*
G04 #@! TO.N,COL5*
X268552294Y-157546189D03*
G04 #@! TO.P,MX35,2*
G04 #@! TO.N,Net-(D31-Pad2)*
X272781556Y-152171485D03*
G04 #@! TD*
G04 #@! TO.P,MX34,1*
G04 #@! TO.N,COL5*
X259042291Y-141096185D03*
G04 #@! TO.P,MX34,2*
G04 #@! TO.N,Net-(D30-Pad2)*
X263271553Y-135721481D03*
G04 #@! TD*
G04 #@! TO.P,MX33,1*
G04 #@! TO.N,COL5*
X249542293Y-124616181D03*
G04 #@! TO.P,MX33,2*
G04 #@! TO.N,Net-(D29-Pad2)*
X253771555Y-119241477D03*
G04 #@! TD*
G04 #@! TO.P,MX32,1*
G04 #@! TO.N,COL5*
X252082294Y-167066186D03*
G04 #@! TO.P,MX32,2*
G04 #@! TO.N,Net-(D25-Pad2)*
X256311556Y-161691482D03*
G04 #@! TD*
G04 #@! TO.P,MX31,1*
G04 #@! TO.N,COL5*
X242572284Y-150596187D03*
G04 #@! TO.P,MX31,2*
G04 #@! TO.N,Net-(D24-Pad2)*
X246801546Y-145221483D03*
G04 #@! TD*
G04 #@! TO.P,MX29,1*
G04 #@! TO.N,COL4*
X235662291Y-176556185D03*
G04 #@! TO.P,MX29,2*
G04 #@! TO.N,Net-(D19-Pad2)*
X239891553Y-171181481D03*
G04 #@! TD*
G04 #@! TO.P,MX27,1*
G04 #@! TO.N,COL4*
X216632292Y-143636184D03*
G04 #@! TO.P,MX27,2*
G04 #@! TO.N,Net-(D17-Pad2)*
X220861554Y-138261480D03*
G04 #@! TD*
G04 #@! TO.P,MX26,1*
G04 #@! TO.N,COL4*
X219162287Y-186046184D03*
G04 #@! TO.P,MX26,2*
G04 #@! TO.N,Net-(D13-Pad2)*
X223391549Y-180671480D03*
G04 #@! TD*
G04 #@! TO.P,MX25,1*
G04 #@! TO.N,COL4*
X209682284Y-169586186D03*
G04 #@! TO.P,MX25,2*
G04 #@! TO.N,Net-(D12-Pad2)*
X213911546Y-164211482D03*
G04 #@! TD*
G04 #@! TO.P,MX24,1*
G04 #@! TO.N,COL4*
X200172294Y-153146190D03*
G04 #@! TO.P,MX24,2*
G04 #@! TO.N,Net-(D11-Pad2)*
X204401556Y-147771486D03*
G04 #@! TD*
G04 #@! TO.P,MX23,1*
G04 #@! TO.N,COL3*
X202692295Y-195546187D03*
G04 #@! TO.P,MX23,2*
G04 #@! TO.N,Net-(D52-Pad2)*
X206921557Y-190171483D03*
G04 #@! TD*
G04 #@! TO.P,MX21,1*
G04 #@! TO.N,COL3*
X183702286Y-162616184D03*
G04 #@! TO.P,MX21,2*
G04 #@! TO.N,Net-(D50-Pad2)*
X187931548Y-157241480D03*
G04 #@! TD*
G04 #@! TO.P,MX20,1*
G04 #@! TO.N,COL3*
X171781847Y-202010890D03*
G04 #@! TO.P,MX20,2*
G04 #@! TO.N,Net-(D46-Pad2)*
X178131847Y-199470890D03*
G04 #@! TD*
G04 #@! TO.P,MX19,1*
G04 #@! TO.N,COL3*
X171791841Y-183010894D03*
G04 #@! TO.P,MX19,2*
G04 #@! TO.N,Net-(D45-Pad2)*
X178141841Y-180470894D03*
G04 #@! TD*
G04 #@! TO.P,MX18,1*
G04 #@! TO.N,COL2*
X152791841Y-202000893D03*
G04 #@! TO.P,MX18,2*
G04 #@! TO.N,Net-(D40-Pad2)*
X159141841Y-199460893D03*
G04 #@! TD*
G04 #@! TO.P,MX17,1*
G04 #@! TO.N,COL2*
X152791850Y-183030890D03*
G04 #@! TO.P,MX17,2*
G04 #@! TO.N,Net-(D39-Pad2)*
X159141850Y-180490890D03*
G04 #@! TD*
G04 #@! TO.P,MX16,1*
G04 #@! TO.N,COL2*
X152781847Y-164030885D03*
G04 #@! TO.P,MX16,2*
G04 #@! TO.N,Net-(D38-Pad2)*
X159131847Y-161490885D03*
G04 #@! TD*
G04 #@! TO.P,MX15,1*
G04 #@! TO.N,COL2*
X133791843Y-202040892D03*
G04 #@! TO.P,MX15,2*
G04 #@! TO.N,Net-(D34-Pad2)*
X140141843Y-199500892D03*
G04 #@! TD*
G04 #@! TO.P,MX14,1*
G04 #@! TO.N,COL2*
X133791843Y-183020893D03*
G04 #@! TO.P,MX14,2*
G04 #@! TO.N,Net-(D33-Pad2)*
X140141843Y-180480893D03*
G04 #@! TD*
G04 #@! TO.P,MX13,1*
G04 #@! TO.N,COL2*
X133781846Y-164000897D03*
G04 #@! TO.P,MX13,2*
G04 #@! TO.N,Net-(D32-Pad2)*
X140131846Y-161460897D03*
G04 #@! TD*
G04 #@! TO.P,MX12,1*
G04 #@! TO.N,COL1*
X114801848Y-202030895D03*
G04 #@! TO.P,MX12,2*
G04 #@! TO.N,Net-(D28-Pad2)*
X121151848Y-199490895D03*
G04 #@! TD*
G04 #@! TO.P,MX11,1*
G04 #@! TO.N,COL1*
X114801852Y-183020899D03*
G04 #@! TO.P,MX11,2*
G04 #@! TO.N,Net-(D27-Pad2)*
X121151852Y-180480899D03*
G04 #@! TD*
G04 #@! TO.P,MX10,1*
G04 #@! TO.N,COL1*
X114781852Y-164020881D03*
G04 #@! TO.P,MX10,2*
G04 #@! TO.N,Net-(D26-Pad2)*
X121131852Y-161480881D03*
G04 #@! TD*
G04 #@! TO.P,MX9,1*
G04 #@! TO.N,COL1*
X95851850Y-202050892D03*
G04 #@! TO.P,MX9,2*
G04 #@! TO.N,Net-(D22-Pad2)*
X102201850Y-199510892D03*
G04 #@! TD*
G04 #@! TO.P,MX8,1*
G04 #@! TO.N,COL1*
X95841850Y-183060896D03*
G04 #@! TO.P,MX8,2*
G04 #@! TO.N,Net-(D21-Pad2)*
X102191850Y-180520896D03*
G04 #@! TD*
G04 #@! TO.P,MX6,1*
G04 #@! TO.N,COL0*
X76831842Y-202050887D03*
G04 #@! TO.P,MX6,2*
G04 #@! TO.N,Net-(D16-Pad2)*
X83181842Y-199510887D03*
G04 #@! TD*
G04 #@! TO.P,MX5,1*
G04 #@! TO.N,COL0*
X76831844Y-183010887D03*
G04 #@! TO.P,MX5,2*
G04 #@! TO.N,Net-(D15-Pad2)*
X83181844Y-180470887D03*
G04 #@! TD*
G04 #@! TO.P,MX4,1*
G04 #@! TO.N,COL0*
X76831848Y-164010892D03*
G04 #@! TO.P,MX4,2*
G04 #@! TO.N,Net-(D14-Pad2)*
X83181848Y-161470892D03*
G04 #@! TD*
G04 #@! TO.P,MX3,1*
G04 #@! TO.N,COL0*
X57801846Y-202040888D03*
G04 #@! TO.P,MX3,2*
G04 #@! TO.N,Net-(D10-Pad2)*
X64151846Y-199500888D03*
G04 #@! TD*
G04 #@! TO.P,MX2,1*
G04 #@! TO.N,COL0*
X57811854Y-183040890D03*
G04 #@! TO.P,MX2,2*
G04 #@! TO.N,Net-(D9-Pad2)*
X64161854Y-180500890D03*
G04 #@! TD*
G04 #@! TO.P,MX1,1*
G04 #@! TO.N,COL0*
X57811846Y-164020894D03*
G04 #@! TO.P,MX1,2*
G04 #@! TO.N,Net-(D8-Pad2)*
X64161846Y-161480894D03*
G04 #@! TD*
D25*
G04 #@! TO.N,GND*
X95107878Y-197130191D03*
X98105076Y-196749192D03*
X131633076Y-197358791D03*
X135824075Y-197307990D03*
X170266478Y-197561989D03*
X173339876Y-197536588D03*
X215441773Y-181079140D03*
X218436775Y-179408636D03*
X248611312Y-163600469D03*
X251756891Y-161784374D03*
X281026570Y-145120146D03*
X284678081Y-143011948D03*
X320571305Y-128228015D03*
X323122897Y-127544319D03*
X57045026Y-195385457D03*
X59610428Y-195385456D03*
G04 #@! TO.N,VCC*
X43164874Y-187630593D03*
X131988678Y-191415187D03*
X136332077Y-191415193D03*
X170190278Y-194412387D03*
X173339878Y-194488588D03*
X213906652Y-178064634D03*
X216634282Y-176489833D03*
X247037604Y-158995127D03*
X249206017Y-157772527D03*
X280076500Y-140477370D03*
X282386189Y-139143872D03*
X319828796Y-124769956D03*
X322699329Y-124000797D03*
X65833426Y-193395922D03*
X95504000Y-190957200D03*
X98018600Y-190957200D03*
G04 #@! TO.N,LED*
X53705877Y-189002187D03*
X53705877Y-190983389D03*
X56931678Y-193802791D03*
X59598679Y-193828189D03*
G04 #@! TO.N,Net-(U1-Pad22)*
X44841277Y-167335989D03*
G04 #@! TO.N,SDA*
X38294742Y-175597916D03*
G04 #@! TO.N,SCK*
X36546797Y-174789777D03*
G04 #@! TO.N,Net-(LED1-Pad2)*
X95158676Y-195250593D03*
X98079678Y-195250592D03*
G04 #@! TO.N,Net-(LED2-Pad2)*
X133309477Y-194412387D03*
X136306677Y-194158387D03*
G04 #@! TO.N,Net-(LED3-Pad2)*
X170215677Y-195834791D03*
X173365277Y-195783987D03*
G04 #@! TO.N,Net-(LED4-Pad2)*
X214711063Y-179711920D03*
X217592679Y-178048220D03*
G04 #@! TO.N,Net-(LED5-Pad2)*
X248270416Y-161333617D03*
X250558107Y-160012816D03*
G04 #@! TO.N,Net-(LED6-Pad2)*
X281020615Y-142366627D03*
X283528273Y-140918824D03*
G04 #@! TO.N,Net-(LED7-Pad2)*
X320222884Y-126927683D03*
X322959366Y-126247039D03*
G04 #@! TD*
D26*
G04 #@! TO.N,GND*
X45716197Y-198791768D02*
X41717078Y-202790891D01*
X45716192Y-197395773D02*
X45716197Y-198791768D01*
X41717078Y-202790891D02*
X41717077Y-205639189D01*
X39636678Y-207719585D02*
X33766875Y-207719588D01*
X41717077Y-205639189D02*
X39636678Y-207719585D01*
X45716199Y-168367893D02*
X49442442Y-164641641D01*
X45716192Y-197395773D02*
X45716199Y-168367893D01*
X35002447Y-166381646D02*
X35002445Y-166278223D01*
X34202443Y-167181642D02*
X35002447Y-166381646D01*
X36639021Y-164641646D02*
X49442442Y-164641641D01*
X35002445Y-166278223D02*
X36639021Y-164641646D01*
X34202443Y-167181642D02*
X34202446Y-169721641D01*
X68630277Y-196588389D02*
X69553078Y-197511186D01*
X68630277Y-195797386D02*
X68630277Y-196588389D01*
X69553078Y-197511186D02*
X85709877Y-197511192D01*
X85709877Y-197511192D02*
X87741876Y-199543191D01*
X87741876Y-199543191D02*
X92694878Y-199543189D01*
X92694878Y-199543189D02*
X95107878Y-197130191D01*
X98980678Y-195873590D02*
X106679479Y-195873588D01*
X98105076Y-196749192D02*
X98980678Y-195873590D01*
X109445678Y-197358789D02*
X131633076Y-197358791D01*
X137309279Y-195822790D02*
X144601677Y-195822791D01*
X135824075Y-197307990D02*
X137309279Y-195822790D01*
X144601678Y-196613791D02*
X145600676Y-197612793D01*
X144601677Y-195822791D02*
X144601678Y-196613791D01*
X145600676Y-197612793D02*
X170215677Y-197612788D01*
X170215677Y-197612788D02*
X170266478Y-197561989D01*
X173339876Y-197536588D02*
X181823479Y-197536590D01*
X182394814Y-198107921D02*
X188838903Y-198107927D01*
X181823479Y-197536590D02*
X182394814Y-198107921D01*
X189047065Y-198468474D02*
X189055742Y-198470797D01*
X188838903Y-198107928D02*
X189047065Y-198468474D01*
X189055742Y-198470797D02*
X189785143Y-199734149D01*
X189785143Y-199734149D02*
X190930145Y-200040955D01*
X190930145Y-200040955D02*
X200960797Y-194249758D01*
X200960797Y-194249758D02*
X202485513Y-188559438D01*
X202485513Y-188559438D02*
X215441773Y-181079140D01*
X252296139Y-159771861D02*
X258341617Y-156281507D01*
X251756891Y-161784374D02*
X252296139Y-159771861D01*
X258737113Y-156966535D02*
X259946669Y-157290635D01*
X258341617Y-156281507D02*
X258737113Y-156966535D01*
X259946669Y-157290635D02*
X281026570Y-145120146D01*
X285280544Y-140763530D02*
X288186614Y-139085709D01*
X284678081Y-143011948D02*
X285280544Y-140763530D01*
X288296472Y-139495710D02*
X288333202Y-139516916D01*
X288186612Y-139085708D02*
X288296472Y-139495710D01*
X288333202Y-139516916D02*
X288597456Y-140503121D01*
X289130491Y-140810870D02*
X300924979Y-137650549D01*
X288597456Y-140503121D02*
X289130491Y-140810870D01*
X300924979Y-137650549D02*
X303765164Y-132731208D01*
X303765164Y-132731208D02*
X320571305Y-128228015D01*
X324879965Y-127073515D02*
X325017777Y-127153080D01*
X323122897Y-127544319D02*
X324879965Y-127073515D01*
X109445678Y-197358789D02*
X107224461Y-197358791D01*
X106679475Y-196813804D02*
X106679476Y-195873587D01*
X107224461Y-197358791D02*
X106679475Y-196813804D01*
X45716196Y-197395775D02*
X53793209Y-197395776D01*
X53793209Y-197395776D02*
X55698827Y-195490157D01*
X55698827Y-195490157D02*
X56940326Y-195490159D01*
X56940326Y-195490159D02*
X57045026Y-195385457D01*
X60022361Y-195797392D02*
X68630276Y-195797388D01*
X59610428Y-195385456D02*
X60022361Y-195797392D01*
X226936883Y-176114208D02*
X248611312Y-163600469D01*
X225732830Y-175791582D02*
X226936883Y-176114208D01*
X225423213Y-175255311D02*
X225732830Y-175791582D01*
X218436775Y-179408636D02*
X225385273Y-175396915D01*
X225385273Y-175396915D02*
X225423213Y-175255311D01*
G04 #@! TO.N,VCC*
X43164874Y-197384456D02*
X43176197Y-197395770D01*
X43164874Y-187630593D02*
X43164874Y-197384456D01*
X149601678Y-193531790D02*
X149601676Y-194322790D01*
X147485077Y-191415188D02*
X149601678Y-193531790D01*
X136332077Y-191415193D02*
X147485077Y-191415188D01*
X149601676Y-194322790D02*
X170100677Y-194322791D01*
X170100677Y-194322791D02*
X170190278Y-194412387D01*
X173339878Y-194488588D02*
X173365275Y-194513986D01*
X193024336Y-194988286D02*
X195140109Y-193766744D01*
X195140109Y-193766744D02*
X196682963Y-188008730D01*
X196682963Y-188008730D02*
X213906652Y-178064634D01*
X228607840Y-170771248D02*
X229003341Y-171456270D01*
X227194911Y-170392651D02*
X228607840Y-170771248D01*
X216634282Y-176489833D02*
X227194911Y-170392651D01*
X229003341Y-171456270D02*
X244672308Y-162409789D01*
X244672308Y-162409789D02*
X245321837Y-159985726D01*
X245321837Y-159985726D02*
X247037604Y-158995127D01*
X261526239Y-151797443D02*
X261921739Y-152482469D01*
X260179966Y-151436712D02*
X261526239Y-151797443D01*
X249206017Y-157772527D02*
X260179966Y-151436712D01*
X261921739Y-152482469D02*
X278097787Y-143143227D01*
X278097787Y-143143227D02*
X278580702Y-141340968D01*
X278580702Y-141340968D02*
X280076500Y-140477370D01*
X291371239Y-134601649D02*
X291766740Y-135286674D01*
X290607845Y-134397093D02*
X291371239Y-134601649D01*
X282386189Y-139143872D02*
X290607845Y-134397093D01*
X291656882Y-134876671D02*
X293456680Y-131759321D01*
X291766738Y-135286673D02*
X291656882Y-134876671D01*
X293456680Y-131759321D02*
X319737681Y-124717353D01*
X319737681Y-124717353D02*
X319828796Y-124769956D01*
X329254454Y-123646049D02*
X329459179Y-124410097D01*
X327596236Y-122688679D02*
X329254454Y-123646049D01*
X322699329Y-124000797D02*
X327596236Y-122688679D01*
X73630275Y-193506390D02*
X73630276Y-194297389D01*
X73242734Y-193118846D02*
X73630275Y-193506390D01*
X66676187Y-193118849D02*
X73242734Y-193118846D01*
X66399112Y-193395922D02*
X66676187Y-193118849D01*
X65833426Y-193395922D02*
X66399112Y-193395922D01*
X76386266Y-191541400D02*
X94328715Y-191541400D01*
X73630277Y-194297389D02*
X76386266Y-191541400D01*
X94328715Y-191541400D02*
X94894400Y-191541400D01*
X94894400Y-191541400D02*
X94919800Y-191541400D01*
X94919800Y-191541400D02*
X95504000Y-190957200D01*
X111679477Y-193582589D02*
X111679476Y-194373586D01*
X110369276Y-192272389D02*
X111679477Y-193582589D01*
X129030274Y-194373586D02*
X131988678Y-191415187D01*
X111679476Y-194373586D02*
X129030274Y-194373586D01*
X110134400Y-191998600D02*
X110369276Y-192233476D01*
X110369276Y-192233476D02*
X110369276Y-192272389D01*
X99651085Y-192024000D02*
X100711000Y-192024000D01*
X98018600Y-190957200D02*
X98584285Y-190957200D01*
X98584285Y-190957200D02*
X99651085Y-192024000D01*
X100711000Y-192024000D02*
X110134400Y-191998600D01*
X193024336Y-194551975D02*
X192989200Y-194516839D01*
X193024336Y-194988287D02*
X193024336Y-194551975D01*
X192989200Y-194516839D02*
X192989200Y-194106800D01*
X192989200Y-194106800D02*
X192608200Y-193725800D01*
X189357000Y-193725800D02*
X188595000Y-194487800D01*
X192608200Y-193725800D02*
X189357000Y-193725800D01*
X173365275Y-194513986D02*
X188595000Y-194487800D01*
D27*
G04 #@! TO.N,LED*
X35252441Y-162101648D02*
X37104699Y-160249389D01*
X34202445Y-162101644D02*
X35252441Y-162101648D01*
X37104699Y-160249389D02*
X50988076Y-160249387D01*
X50988076Y-160249387D02*
X53705871Y-162967190D01*
X53705871Y-162967190D02*
X53705877Y-189002187D01*
X53705877Y-190983389D02*
X56525277Y-193802787D01*
X56525277Y-193802787D02*
X56931678Y-193802791D01*
X60931227Y-193864559D02*
X61275860Y-194209188D01*
X61275860Y-194209188D02*
X68542078Y-194209189D01*
X59598679Y-193828189D02*
X59635045Y-193864556D01*
X68542078Y-194209189D02*
X68630275Y-194297388D01*
X59635045Y-193864556D02*
X60931227Y-193864559D01*
G04 #@! TO.N,ROW0*
X70785995Y-168766970D02*
X70785994Y-170801969D01*
X109216191Y-168309770D02*
X109216190Y-170344770D01*
X147163793Y-168462168D02*
X147163794Y-170497171D01*
X213748721Y-150100266D02*
X214766223Y-151862622D01*
X246555613Y-131129865D02*
X247573112Y-132892228D01*
X280137874Y-112943642D02*
X281155373Y-114706004D01*
X327245846Y-97786103D02*
X327772544Y-99751761D01*
G04 #@! TO.N,Net-(D8-Pad2)*
X70785996Y-163181971D02*
X70785998Y-165216968D01*
G04 #@! TO.N,ROW2*
X184933596Y-187305970D02*
X184933593Y-189340967D01*
X147036795Y-187305974D02*
X147036795Y-189340967D01*
X109114594Y-187308971D02*
X109114596Y-189343973D01*
X71217794Y-187512171D02*
X71217793Y-189547168D01*
X223229731Y-166623447D02*
X224247232Y-168385809D01*
X256365911Y-148020194D02*
X257383407Y-149782555D01*
X289556960Y-129003977D02*
X290574458Y-130766340D01*
X332014238Y-116072655D02*
X332540932Y-118038313D01*
G04 #@! TO.N,Net-(D9-Pad2)*
X71217792Y-181927173D02*
X71217794Y-183962169D01*
G04 #@! TO.N,ROW4*
X71166997Y-208673369D02*
X71166996Y-206638371D01*
X109165394Y-206409773D02*
X109165396Y-208444773D01*
X147163797Y-206511374D02*
X147163795Y-208546371D01*
X185085996Y-206460565D02*
X185085995Y-208495570D01*
X298607080Y-144984040D02*
X299624579Y-146746401D01*
X265677500Y-163995940D02*
X266695001Y-165758300D01*
X232855417Y-183092428D02*
X233872912Y-184854788D01*
X337323323Y-135003201D02*
X337850022Y-136968863D01*
G04 #@! TO.N,Net-(D10-Pad2)*
X71166993Y-201053371D02*
X71166998Y-203088371D01*
G04 #@! TO.N,Net-(D11-Pad2)*
X210956224Y-145263515D02*
X211973724Y-147025871D01*
G04 #@! TO.N,Net-(D12-Pad2)*
X220437229Y-161786692D02*
X221454732Y-163549058D01*
G04 #@! TO.N,Net-(D13-Pad2)*
X230062921Y-178255674D02*
X231080417Y-180018035D01*
G04 #@! TO.N,ROW1*
X90013794Y-168792370D02*
X90013798Y-170827367D01*
X128164595Y-169071773D02*
X128164596Y-171106773D01*
X165858196Y-168462170D02*
X165858195Y-170497174D01*
X197238239Y-159603267D02*
X198255743Y-161365626D01*
X230203425Y-140805440D02*
X231220923Y-142567801D01*
X263225306Y-122004211D02*
X264242804Y-123766574D01*
X308913752Y-102777063D02*
X309440449Y-104742716D01*
X343891636Y-93273284D02*
X344418332Y-95238946D01*
G04 #@! TO.N,Net-(D14-Pad2)*
X90013796Y-163207374D02*
X90013795Y-165242371D01*
G04 #@! TO.N,ROW3*
X166010593Y-187740771D02*
X166010596Y-189775771D01*
X128088390Y-187512170D02*
X128088398Y-189547172D01*
X90107846Y-187410567D02*
X90107843Y-189445571D01*
X206791129Y-175996954D02*
X207808628Y-177759318D01*
X239787610Y-157151736D02*
X240805108Y-158914100D01*
X272816292Y-138463894D02*
X273833796Y-140226262D01*
X348795842Y-111576037D02*
X349322539Y-113541695D01*
X313739073Y-120785395D02*
X314265765Y-122751057D01*
G04 #@! TO.N,Net-(D15-Pad2)*
X90107845Y-181825572D02*
X90107843Y-183860573D01*
G04 #@! TO.N,ROW5*
X90089994Y-208597171D02*
X90089995Y-206562171D01*
X128080841Y-206333573D02*
X128080841Y-208368568D01*
X166086796Y-206511371D02*
X166086795Y-208546370D01*
X281909497Y-154213785D02*
X282926995Y-155976143D01*
X249183118Y-173577633D02*
X250200622Y-175340004D01*
X216303429Y-192472741D02*
X217320929Y-194235109D01*
X353750987Y-130469944D02*
X354277686Y-132435601D01*
X318683192Y-139629666D02*
X319209891Y-141595327D01*
G04 #@! TO.N,Net-(D16-Pad2)*
X90089996Y-200977174D02*
X90089993Y-203012168D01*
G04 #@! TO.N,Net-(D17-Pad2)*
X227410926Y-135968694D02*
X228428421Y-137731049D01*
G04 #@! TO.N,Net-(D18-Pad2)*
X236995113Y-152314989D02*
X238012608Y-154077345D01*
G04 #@! TO.N,Net-(D19-Pad2)*
X246390618Y-168740882D02*
X247408115Y-170503249D01*
G04 #@! TO.N,Net-(D20-Pad2)*
X109216195Y-162724774D02*
X109216193Y-164759770D01*
G04 #@! TO.N,Net-(D21-Pad2)*
X109114593Y-181723970D02*
X109114597Y-183758970D01*
G04 #@! TO.N,Net-(D22-Pad2)*
X109165396Y-202859769D02*
X109165394Y-200824770D01*
G04 #@! TO.N,Net-(D23-Pad2)*
X243763114Y-126293110D02*
X244780615Y-128055473D01*
G04 #@! TO.N,Net-(D24-Pad2)*
X253573408Y-143183439D02*
X254590910Y-144945803D01*
G04 #@! TO.N,Net-(D25-Pad2)*
X262884997Y-159159188D02*
X263902497Y-160921551D01*
G04 #@! TO.N,Net-(D26-Pad2)*
X128164595Y-163486772D02*
X128164594Y-165521772D01*
G04 #@! TO.N,Net-(D27-Pad2)*
X128088396Y-181927171D02*
X128088395Y-183962166D01*
G04 #@! TO.N,Net-(D28-Pad2)*
X128080838Y-200748570D02*
X128080843Y-202783568D01*
G04 #@! TO.N,Net-(D29-Pad2)*
X260432809Y-117167467D02*
X261450305Y-118929824D01*
G04 #@! TO.N,Net-(D30-Pad2)*
X270023798Y-133627148D02*
X271041293Y-135389506D01*
G04 #@! TO.N,Net-(D31-Pad2)*
X279116995Y-149377029D02*
X280134493Y-151139395D01*
G04 #@! TO.N,Net-(D32-Pad2)*
X147163794Y-162877172D02*
X147163796Y-164912173D01*
G04 #@! TO.N,Net-(D33-Pad2)*
X147036799Y-181720969D02*
X147036795Y-183755969D01*
G04 #@! TO.N,Net-(D34-Pad2)*
X147163795Y-200926371D02*
X147163793Y-202961368D01*
G04 #@! TO.N,Net-(D35-Pad2)*
X277345373Y-108106893D02*
X278362874Y-109869251D01*
G04 #@! TO.N,Net-(D36-Pad2)*
X286764456Y-124167225D02*
X287781959Y-125929587D01*
G04 #@! TO.N,Net-(D37-Pad2)*
X295814576Y-140147287D02*
X296832078Y-141909655D01*
G04 #@! TO.N,Net-(D38-Pad2)*
X165858192Y-162877169D02*
X165858191Y-164912169D01*
G04 #@! TO.N,Net-(D39-Pad2)*
X166010588Y-182155772D02*
X166010594Y-184190770D01*
G04 #@! TO.N,Net-(D40-Pad2)*
X166086795Y-200926374D02*
X166086798Y-202961369D01*
G04 #@! TO.N,Net-(D41-Pad2)*
X307468250Y-97382367D02*
X307994944Y-99348026D01*
G04 #@! TO.N,Net-(D42-Pad2)*
X312293564Y-115390699D02*
X312820265Y-117356359D01*
G04 #@! TO.N,Net-(D43-Pad2)*
X317237688Y-134234970D02*
X317764387Y-136200631D01*
G04 #@! TO.N,Net-(D45-Pad2)*
X184933593Y-181720966D02*
X184933595Y-183755972D01*
G04 #@! TO.N,Net-(D46-Pad2)*
X185085996Y-200875571D02*
X185085995Y-202910571D01*
G04 #@! TO.N,Net-(D47-Pad2)*
X325800347Y-92391406D02*
X326327042Y-94357068D01*
G04 #@! TO.N,Net-(D48-Pad2)*
X330568730Y-110677958D02*
X331095428Y-112643614D01*
G04 #@! TO.N,Net-(D49-Pad2)*
X335877819Y-129608506D02*
X336404518Y-131574171D01*
G04 #@! TO.N,Net-(D50-Pad2)*
X194445738Y-154766515D02*
X195463241Y-156528876D01*
G04 #@! TO.N,Net-(D51-Pad2)*
X203998628Y-171160209D02*
X205016127Y-172922565D01*
G04 #@! TO.N,Net-(D52-Pad2)*
X213510932Y-187635992D02*
X214528433Y-189398360D01*
G04 #@! TO.N,Net-(D53-Pad2)*
X342446134Y-87878588D02*
X342972830Y-89844252D01*
G04 #@! TO.N,Net-(D54-Pad2)*
X347350341Y-106181341D02*
X347877034Y-108146998D01*
G04 #@! TO.N,Net-(D55-Pad2)*
X352305482Y-125075251D02*
X352832180Y-127040909D01*
G04 #@! TO.N,COL0*
X50573819Y-190041649D02*
X50599594Y-190067425D01*
X49442449Y-190041654D02*
X50573819Y-190041649D01*
X50599594Y-190067425D02*
X55200869Y-190067425D01*
X57801843Y-192668399D02*
X57801851Y-202040895D01*
X55200869Y-190067425D02*
X57801843Y-192668399D01*
X58502866Y-183731907D02*
X57811849Y-183040895D01*
X55200869Y-190067425D02*
X58502870Y-186765433D01*
X58502870Y-186765433D02*
X58502866Y-183731907D01*
X58629868Y-180631879D02*
X58629870Y-164838915D01*
X57811849Y-183040895D02*
X57811854Y-181449899D01*
X58629870Y-164838915D02*
X57811845Y-164020896D01*
X57811854Y-181449899D02*
X58629868Y-180631879D01*
G04 #@! TO.N,COL1*
X95851850Y-198311440D02*
X95851846Y-202050896D01*
X95841847Y-183527904D02*
X96666372Y-184352422D01*
X96666372Y-184352422D02*
X96666368Y-197496930D01*
X96666369Y-164835416D02*
X96666369Y-175335427D01*
X96666368Y-197496930D02*
X95851850Y-198311440D01*
X95831851Y-164000896D02*
X96666369Y-164835416D01*
X95841846Y-176159944D02*
X95841841Y-183060895D01*
X96666369Y-175335427D02*
X95841846Y-176159944D01*
X95841841Y-183060895D02*
X95841847Y-183527904D01*
G04 #@! TO.N,COL2*
X134512368Y-164731415D02*
X133781848Y-164000889D01*
X133791845Y-181429897D02*
X134829872Y-180391875D01*
X133791844Y-183020892D02*
X133791845Y-181429897D01*
X134829872Y-180391875D02*
X134829869Y-168794926D01*
X134829869Y-168794926D02*
X134512372Y-168477430D01*
X134512372Y-168477430D02*
X134512368Y-164731415D01*
X133791844Y-183020892D02*
X133791847Y-183631902D01*
X133791847Y-183631902D02*
X134575866Y-184415917D01*
X134575866Y-184415917D02*
X134575872Y-194575923D01*
X133791844Y-195359948D02*
X133791848Y-202040893D01*
X134575872Y-194575923D02*
X133791844Y-195359948D01*
G04 #@! TO.N,COL3*
X171791846Y-183010888D02*
X171791847Y-183658897D01*
X171791847Y-183658897D02*
X172739377Y-184606426D01*
X172739377Y-184606426D02*
X172739371Y-187146421D01*
X171781842Y-188103942D02*
X171781842Y-202010896D01*
X172739371Y-187146421D02*
X171781842Y-188103942D01*
X171791846Y-183010888D02*
X171791850Y-182759947D01*
X171913866Y-182888868D02*
X171791846Y-183010888D01*
X181394606Y-162616182D02*
X179914865Y-164095919D01*
X183702289Y-162616191D02*
X181394606Y-162616182D01*
X179914865Y-164095919D02*
X179914873Y-166403599D01*
X171913870Y-174404599D02*
X171913866Y-182888868D01*
X179914873Y-166403599D02*
X171913870Y-174404599D01*
G04 #@! TO.N,COL4*
X200529692Y-153765224D02*
X200172290Y-153146184D01*
X209181233Y-167109477D02*
X201650291Y-154065483D01*
X209682283Y-169586188D02*
X208886791Y-168208350D01*
X201650291Y-154065483D02*
X200529692Y-153765224D01*
X208886791Y-168208350D02*
X209181233Y-167109477D01*
X209682283Y-169586188D02*
X210044656Y-170213831D01*
X210044656Y-170213831D02*
X211317022Y-170554760D01*
X211317022Y-170554760D02*
X217095519Y-180563419D01*
X216747246Y-181863209D02*
X219162282Y-186046192D01*
X217095519Y-180563419D02*
X216747246Y-181863209D01*
G04 #@! TO.N,COL5*
X241976226Y-148474058D02*
X234220650Y-135041006D01*
X234220650Y-135041006D02*
X233486955Y-134844413D01*
X242572289Y-150596187D02*
X241776796Y-149218343D01*
X233486955Y-134844413D02*
X233072290Y-134126189D01*
X241776796Y-149218343D02*
X241976226Y-148474058D01*
X242572289Y-150596187D02*
X243033118Y-151394349D01*
X243033118Y-151394349D02*
X244124359Y-151686755D01*
X244124359Y-151686755D02*
X250188616Y-162190343D01*
X249896542Y-163280374D02*
X252082297Y-167066188D01*
X250188616Y-162190343D02*
X249896542Y-163280374D01*
G04 #@! TO.N,COL6*
X267152718Y-115881027D02*
X266259992Y-115641817D01*
X274922011Y-129337826D02*
X267152718Y-115881027D01*
X275492285Y-131556181D02*
X274696790Y-130178351D01*
X266259992Y-115641817D02*
X265962287Y-115126182D01*
X274696790Y-130178351D02*
X274922011Y-129337826D01*
X275492285Y-131556181D02*
X275837196Y-132153588D01*
X275837196Y-132153588D02*
X276851200Y-132425294D01*
X276851200Y-132425294D02*
X282693204Y-142543936D01*
X282416830Y-143575363D02*
X284992295Y-148036184D01*
X282693204Y-142543936D02*
X282416830Y-143575363D01*
G04 #@! TO.N,COL7*
X318288788Y-113149107D02*
X314275522Y-98171364D01*
X314275522Y-98171364D02*
X313482325Y-97713415D01*
X318234269Y-115493544D02*
X317822491Y-113956766D01*
X313482325Y-97713415D02*
X313324269Y-97123535D01*
X317822491Y-113956766D02*
X318288788Y-113149107D01*
X322529112Y-128238175D02*
X321940248Y-129258121D01*
X321940248Y-129258121D02*
X323174266Y-133863532D01*
X319455768Y-116768291D02*
X322529112Y-128238175D01*
X318234269Y-115493544D02*
X318414794Y-116167283D01*
X318414794Y-116167283D02*
X319455768Y-116768291D01*
G04 #@! TO.N,Net-(U1-Pad22)*
X38440478Y-167335990D02*
X44841277Y-167335989D01*
X35821793Y-169954671D02*
X38440478Y-167335990D01*
X35821793Y-192001877D02*
X35821793Y-169954671D01*
X33766875Y-201219589D02*
X33766874Y-194056789D01*
X33766874Y-194056789D02*
X35821793Y-192001877D01*
G04 #@! TO.N,SDA*
X38324794Y-175958172D02*
X38324791Y-197306870D01*
X38294742Y-175597916D02*
X38451791Y-175754975D01*
X38324791Y-197306870D02*
X38413694Y-197395767D01*
X38451791Y-175754975D02*
X38451793Y-175831171D01*
G04 #@! TO.N,SCK*
X40953695Y-197078269D02*
X40636194Y-197395768D01*
X40636193Y-176872571D02*
X40636194Y-197395768D01*
X36546797Y-174789777D02*
X38553394Y-174789771D01*
X38553394Y-174789771D02*
X40636193Y-176872571D01*
G04 #@! TO.N,Net-(LED1-Pad2)*
X73630277Y-195797389D02*
X85697880Y-195797390D01*
X85697880Y-195797390D02*
X88427678Y-198527191D01*
X88427678Y-198527191D02*
X92085274Y-198527190D01*
X92085274Y-198527190D02*
X92339276Y-198527185D01*
X92339276Y-198527185D02*
X93837875Y-197028591D01*
X93837875Y-197028591D02*
X93837878Y-195885589D01*
X93837878Y-195885589D02*
X94472876Y-195250586D01*
X94472876Y-195250586D02*
X95158676Y-195250593D01*
X105529476Y-194373591D02*
X106679477Y-194373589D01*
X98645362Y-195250590D02*
X99522363Y-194373591D01*
X99522363Y-194373591D02*
X105529476Y-194373591D01*
X98079678Y-195250592D02*
X98645362Y-195250590D01*
G04 #@! TO.N,Net-(LED2-Pad2)*
X111679476Y-195873591D02*
X131010079Y-195873588D01*
X131010079Y-195873588D02*
X132471277Y-194412392D01*
X132471277Y-194412392D02*
X133309477Y-194412387D01*
X144437279Y-194158396D02*
X144601677Y-194322791D01*
X136306677Y-194158387D02*
X144437279Y-194158396D01*
G04 #@! TO.N,Net-(LED3-Pad2)*
X149601677Y-195822791D02*
X170203679Y-195822787D01*
X170203679Y-195822787D02*
X170215677Y-195834791D01*
X174279672Y-196698389D02*
X188325872Y-196698384D01*
X173365277Y-195783987D02*
X174279672Y-196698389D01*
G04 #@! TO.N,Net-(LED4-Pad2)*
X193537363Y-196397825D02*
X197415033Y-194159050D01*
X197415033Y-194159050D02*
X198829200Y-188881317D01*
X198829200Y-188881317D02*
X214711063Y-179711920D01*
X224671950Y-173961000D02*
X224673216Y-173956271D01*
X217592679Y-178048220D02*
X224671950Y-173961000D01*
G04 #@! TO.N,Net-(LED5-Pad2)*
X229753340Y-172755309D02*
X248038746Y-162198229D01*
X248038746Y-162198229D02*
X248270416Y-161333617D01*
X256595683Y-155557469D02*
X257591610Y-154982468D01*
X251355343Y-158582984D02*
X256595683Y-155557469D01*
X251048004Y-159729978D02*
X251355343Y-158582984D01*
X250558107Y-160012816D02*
X251048004Y-159729978D01*
G04 #@! TO.N,Net-(LED6-Pad2)*
X262671740Y-153781512D02*
X279770452Y-143909563D01*
X279770452Y-143909563D02*
X280030748Y-142938123D01*
X280030748Y-142938123D02*
X281020615Y-142366627D01*
X283805853Y-139882893D02*
X287436614Y-137786671D01*
X283528273Y-140918824D02*
X283805853Y-139882893D01*
G04 #@! TO.N,Net-(LED7-Pad2)*
X292516742Y-136585711D02*
X295504315Y-138310583D01*
X295504315Y-138310583D02*
X299503458Y-137239018D01*
X299503458Y-137239018D02*
X302754307Y-131608375D01*
X302754307Y-131608375D02*
X320222884Y-126927683D01*
X324564440Y-125816959D02*
X324629549Y-125704188D01*
X322959366Y-126247039D02*
X324564440Y-125816959D01*
G04 #@! TD*
D28*
G36*
X47842433Y-209144387D02*
G01*
X51592885Y-212954371D01*
X32431720Y-212953276D01*
X32431040Y-209143282D01*
X47842433Y-209144387D01*
G37*
X47842433Y-209144387D02*
X51592885Y-212954371D01*
X32431720Y-212953276D01*
X32431040Y-209143282D01*
X47842433Y-209144387D01*
M02*
