G04 #@! TF.GenerationSoftware,KiCad,Pcbnew,(5.1.5)-3*
G04 #@! TF.CreationDate,2020-03-28T17:37:08+01:00*
G04 #@! TF.ProjectId,kopesh,6b6f7065-7368-42e6-9b69-6361645f7063,rev?*
G04 #@! TF.SameCoordinates,Original*
G04 #@! TF.FileFunction,Legend,Top*
G04 #@! TF.FilePolarity,Positive*
%FSLAX46Y46*%
G04 Gerber Fmt 4.6, Leading zero omitted, Abs format (unit mm)*
G04 Created by KiCad (PCBNEW (5.1.5)-3) date 2020-03-28 17:37:08*
%MOMM*%
%LPD*%
G04 APERTURE LIST*
%ADD10C,0.200000*%
%ADD11C,0.100000*%
%ADD12C,0.050000*%
%ADD13C,0.150000*%
%ADD14C,0.180000*%
%ADD15R,1.702000X1.702000*%
%ADD16O,1.702000X1.702000*%
%ADD17C,1.702000*%
%ADD18R,1.832000X2.132000*%
%ADD19O,1.832000X2.132000*%
%ADD20C,2.352000*%
%ADD21C,4.089800*%
%ADD22C,1.852000*%
%ADD23R,1.292000X1.002000*%
%ADD24C,1.702000*%
G04 APERTURE END LIST*
D10*
X57737690Y-131404261D02*
X57737690Y-133023309D01*
X57832928Y-133213785D01*
X57928166Y-133309023D01*
X58118642Y-133404261D01*
X58499595Y-133404261D01*
X58690071Y-133309023D01*
X58785309Y-133213785D01*
X58880547Y-133023309D01*
X58880547Y-131404261D01*
X59737690Y-133309023D02*
X60023404Y-133404261D01*
X60499595Y-133404261D01*
X60690071Y-133309023D01*
X60785309Y-133213785D01*
X60880547Y-133023309D01*
X60880547Y-132832833D01*
X60785309Y-132642357D01*
X60690071Y-132547119D01*
X60499595Y-132451880D01*
X60118642Y-132356642D01*
X59928166Y-132261404D01*
X59832928Y-132166166D01*
X59737690Y-131975690D01*
X59737690Y-131785214D01*
X59832928Y-131594738D01*
X59928166Y-131499500D01*
X60118642Y-131404261D01*
X60594833Y-131404261D01*
X60880547Y-131499500D01*
X62404357Y-132356642D02*
X62690071Y-132451880D01*
X62785309Y-132547119D01*
X62880547Y-132737595D01*
X62880547Y-133023309D01*
X62785309Y-133213785D01*
X62690071Y-133309023D01*
X62499595Y-133404261D01*
X61737690Y-133404261D01*
X61737690Y-131404261D01*
X62404357Y-131404261D01*
X62594833Y-131499500D01*
X62690071Y-131594738D01*
X62785309Y-131785214D01*
X62785309Y-131975690D01*
X62690071Y-132166166D01*
X62594833Y-132261404D01*
X62404357Y-132356642D01*
X61737690Y-132356642D01*
X56928166Y-136604261D02*
X56928166Y-134604261D01*
X57690071Y-134604261D01*
X57880547Y-134699500D01*
X57975785Y-134794738D01*
X58071023Y-134985214D01*
X58071023Y-135270928D01*
X57975785Y-135461404D01*
X57880547Y-135556642D01*
X57690071Y-135651880D01*
X56928166Y-135651880D01*
X59309119Y-134604261D02*
X59690071Y-134604261D01*
X59880547Y-134699500D01*
X60071023Y-134889976D01*
X60166261Y-135270928D01*
X60166261Y-135937595D01*
X60071023Y-136318547D01*
X59880547Y-136509023D01*
X59690071Y-136604261D01*
X59309119Y-136604261D01*
X59118642Y-136509023D01*
X58928166Y-136318547D01*
X58832928Y-135937595D01*
X58832928Y-135270928D01*
X58928166Y-134889976D01*
X59118642Y-134699500D01*
X59309119Y-134604261D01*
X62166261Y-136604261D02*
X61499595Y-135651880D01*
X61023404Y-136604261D02*
X61023404Y-134604261D01*
X61785309Y-134604261D01*
X61975785Y-134699500D01*
X62071023Y-134794738D01*
X62166261Y-134985214D01*
X62166261Y-135270928D01*
X62071023Y-135461404D01*
X61975785Y-135556642D01*
X61785309Y-135651880D01*
X61023404Y-135651880D01*
X62737690Y-134604261D02*
X63880547Y-134604261D01*
X63309119Y-136604261D02*
X63309119Y-134604261D01*
X58690071Y-137804261D02*
X58690071Y-139423309D01*
X58785309Y-139613785D01*
X58880547Y-139709023D01*
X59071023Y-139804261D01*
X59451976Y-139804261D01*
X59642452Y-139709023D01*
X59737690Y-139613785D01*
X59832928Y-139423309D01*
X59832928Y-137804261D01*
X60785309Y-139804261D02*
X60785309Y-137804261D01*
X61547214Y-137804261D01*
X61737690Y-137899500D01*
X61832928Y-137994738D01*
X61928166Y-138185214D01*
X61928166Y-138470928D01*
X61832928Y-138661404D01*
X61737690Y-138756642D01*
X61547214Y-138851880D01*
X60785309Y-138851880D01*
D11*
X210615554Y-174536027D02*
X210568606Y-174566253D01*
X210710153Y-174522454D02*
X210615554Y-174536027D01*
X210876404Y-174500875D02*
X210710153Y-174522454D01*
X211058651Y-174385309D02*
X210876404Y-174500875D01*
X211118698Y-174296843D02*
X211058651Y-174385309D01*
X211122268Y-174200319D02*
X211118698Y-174296843D01*
X210807143Y-172282873D02*
X210873591Y-172484760D01*
X210670837Y-172122759D02*
X210807143Y-172282873D01*
X210474877Y-172015977D02*
X210670837Y-172122759D01*
X210395007Y-171947921D02*
X210474877Y-172015977D01*
X210384884Y-171865441D02*
X210395007Y-171947921D01*
X210475589Y-171690430D02*
X210384884Y-171865441D01*
X210502562Y-171437871D02*
X210475589Y-171690430D01*
X210405437Y-171005552D02*
X210502562Y-171437871D01*
X210182160Y-170143893D02*
X210405437Y-171005552D01*
X209835636Y-169325513D02*
X210182160Y-170143893D01*
X209619543Y-168936626D02*
X209835636Y-169325513D01*
X209455758Y-168784044D02*
X209619543Y-168936626D01*
X209235252Y-168726742D02*
X209455758Y-168784044D01*
X209095316Y-168765859D02*
X209235252Y-168726742D01*
X208991056Y-168883466D02*
X209095316Y-168765859D01*
X208926009Y-168866797D02*
X208943913Y-168896105D01*
X208903226Y-168829496D02*
X208926009Y-168866797D01*
X207583375Y-163512255D02*
X207708500Y-162369500D01*
X207641210Y-164660841D02*
X207583375Y-163512255D01*
X207922127Y-166097355D02*
X207641210Y-164660841D01*
X208391512Y-167483850D02*
X207922127Y-166097355D01*
X209052944Y-168789381D02*
X208391512Y-167483850D01*
X208680437Y-168436934D02*
X208903226Y-168829498D01*
X208426934Y-167921437D02*
X208680437Y-168436934D01*
X207892739Y-166459583D02*
X208426934Y-167921440D01*
X207553420Y-164940373D02*
X207892739Y-166459583D01*
X207451289Y-163623872D02*
X207553420Y-164940373D01*
X207580347Y-162310567D02*
X207451289Y-163623872D01*
X207984836Y-161055105D02*
X207580347Y-162310567D01*
X208063272Y-161229051D02*
X208079685Y-161196979D01*
X208042378Y-161269863D02*
X208063272Y-161229051D01*
X208973845Y-168902252D02*
X208991057Y-168883473D01*
X208943912Y-168896099D02*
X208973845Y-168902252D01*
X211788420Y-175344994D02*
X212120388Y-175252745D01*
X211470892Y-175295680D02*
X211788420Y-175344994D01*
X211096591Y-175101136D02*
X211470892Y-175295680D01*
X210766540Y-174847497D02*
X211096591Y-175101136D01*
X210660074Y-174765976D02*
X210766541Y-174847503D01*
X210573771Y-174658821D02*
X210660074Y-174765976D01*
X210568606Y-174566253D02*
X210573771Y-174658821D01*
X211302337Y-172163619D02*
G75*
G03X211302337Y-172163619I-102522J0D01*
G01*
X211557468Y-173431774D02*
G75*
G03X211557468Y-173431774I-99007J0D01*
G01*
X211814691Y-175017848D02*
G75*
G03X211814691Y-175017848I-96801J0D01*
G01*
X211350198Y-174821879D02*
G75*
G03X211350198Y-174821879I-100338J0D01*
G01*
X210042929Y-168103528D02*
X209219619Y-167709041D01*
X208755841Y-162208349D02*
X207984836Y-161055105D01*
X210873591Y-172484760D02*
X211127137Y-174218496D01*
X211435517Y-171588665D02*
X210519577Y-171834088D01*
X211451108Y-171723262D02*
X212047504Y-175182737D01*
X212120385Y-175252732D02*
X211767534Y-173207416D01*
X211767534Y-173207416D02*
X211490292Y-171600375D01*
X211490291Y-171600374D02*
X211429183Y-171410344D01*
X211429183Y-171410344D02*
X211314759Y-171251169D01*
X211314759Y-171251169D02*
X211192339Y-170970189D01*
X211192339Y-170970186D02*
X210675435Y-169300303D01*
X210675435Y-169300303D02*
X210042929Y-168103528D01*
X209181768Y-167654585D02*
X209202965Y-167685082D01*
X209202965Y-167685082D02*
X209219619Y-167709041D01*
X208811575Y-166769320D02*
X209181768Y-167654587D01*
X208523574Y-165852830D02*
X208811575Y-166769320D01*
X208321183Y-164914210D02*
X208523574Y-165852830D01*
X208218091Y-164201141D02*
X208321183Y-164914210D01*
X208194191Y-163481606D02*
X208218091Y-164201141D01*
X208260863Y-163006422D02*
X208194191Y-163481606D01*
X208433938Y-162559815D02*
X208260863Y-163006422D01*
X208755841Y-162208349D02*
X208433938Y-162559815D01*
X207708500Y-162369500D02*
X208042379Y-161269865D01*
D12*
X375136651Y-106420121D02*
X360606650Y-52170125D01*
X320476648Y-121060124D02*
X375136651Y-106420121D01*
X212926648Y-183250129D02*
X320476648Y-121060124D01*
X49936648Y-183250121D02*
X212926648Y-183250129D01*
X49926648Y-127100116D02*
X49936648Y-183250121D01*
X197736650Y-127090122D02*
X49926648Y-127100116D01*
X300336652Y-67850125D02*
X197736650Y-127090122D01*
X360606650Y-52170125D02*
X300336652Y-67850125D01*
D13*
X68877251Y-160920875D02*
X51097251Y-160920875D01*
X68877251Y-130440875D02*
X68877251Y-160920875D01*
X63797251Y-130440875D02*
X68877251Y-130440875D01*
X63797251Y-127900875D02*
X63797251Y-130440875D01*
X56177251Y-127900875D02*
X63797251Y-127900875D01*
X56177251Y-130440875D02*
X56177251Y-127900875D01*
X51097251Y-130440875D02*
X56177251Y-130440875D01*
X51097251Y-130440875D02*
X51097251Y-160920875D01*
G36*
X306291923Y-80650818D02*
G01*
X306289490Y-80668702D01*
X306264282Y-80723728D01*
X306257521Y-80728349D01*
X306244662Y-80702016D01*
X306247096Y-80684132D01*
X306272304Y-80629107D01*
X306279064Y-80624486D01*
X306291923Y-80650818D01*
G37*
G36*
X306362622Y-80738656D02*
G01*
X306330069Y-80790303D01*
X306283623Y-80813887D01*
X306266125Y-80802370D01*
X306289470Y-80763039D01*
X306316665Y-80736514D01*
X306359350Y-80717623D01*
X306362622Y-80738656D01*
G37*
G36*
X306974975Y-86199930D02*
G01*
X307034475Y-86222904D01*
X307041735Y-86231060D01*
X307027958Y-86255808D01*
X306971858Y-86232010D01*
X306963084Y-86225430D01*
X306947529Y-86198238D01*
X306974975Y-86199930D01*
G37*
G36*
X307016456Y-86338857D02*
G01*
X307015808Y-86357690D01*
X306992432Y-86412001D01*
X306986342Y-86416427D01*
X306956194Y-86390253D01*
X306952216Y-86380836D01*
X306969970Y-86328209D01*
X306981683Y-86322101D01*
X307016456Y-86338857D01*
G37*
G36*
X307445756Y-86945371D02*
G01*
X307432273Y-86974284D01*
X307403360Y-86960802D01*
X307416843Y-86931889D01*
X307445756Y-86945371D01*
G37*
G36*
X307492047Y-87072555D02*
G01*
X307478564Y-87101468D01*
X307449652Y-87087985D01*
X307463134Y-87059073D01*
X307492047Y-87072555D01*
G37*
G36*
X306867118Y-86510029D02*
G01*
X306941815Y-86511107D01*
X306944452Y-86512841D01*
X307011329Y-86534573D01*
X307136074Y-86554768D01*
X307235121Y-86564519D01*
X307364803Y-86581496D01*
X307431780Y-86605878D01*
X307431845Y-86625614D01*
X307357806Y-86639938D01*
X307323147Y-86623764D01*
X307267703Y-86606311D01*
X307249838Y-86637931D01*
X307204239Y-86691841D01*
X307104276Y-86764039D01*
X307034488Y-86804739D01*
X306897518Y-86890342D01*
X306737759Y-87007834D01*
X306574145Y-87141000D01*
X306425609Y-87273625D01*
X306311081Y-87389493D01*
X306249494Y-87472388D01*
X306246431Y-87479710D01*
X306208332Y-87551713D01*
X306141469Y-87571414D01*
X306101118Y-87571021D01*
X306031842Y-87549611D01*
X306033894Y-87508864D01*
X306099515Y-87472883D01*
X306134917Y-87466019D01*
X306217705Y-87452624D01*
X306216089Y-87437297D01*
X306159203Y-87416828D01*
X306072072Y-87355767D01*
X306068171Y-87342748D01*
X306112220Y-87326715D01*
X306127213Y-87349800D01*
X306150770Y-87344691D01*
X306180020Y-87316479D01*
X306168746Y-87306141D01*
X306116587Y-87319379D01*
X306112220Y-87326715D01*
X306068171Y-87342748D01*
X306045059Y-87265593D01*
X306018852Y-87176429D01*
X305981336Y-87166305D01*
X305961766Y-87156014D01*
X305993039Y-87099777D01*
X306060719Y-87013939D01*
X306150367Y-86914840D01*
X306247543Y-86818825D01*
X306337810Y-86742237D01*
X306382064Y-86712732D01*
X306567727Y-86617778D01*
X306735916Y-86547898D01*
X306867118Y-86510029D01*
G37*
G36*
X306978297Y-87683640D02*
G01*
X306981651Y-87710962D01*
X306960321Y-87722190D01*
X306919780Y-87719380D01*
X306921771Y-87704214D01*
X306970237Y-87680829D01*
X306978297Y-87683640D01*
G37*
G36*
X307173933Y-80130742D02*
G01*
X307160451Y-80159654D01*
X307131538Y-80146173D01*
X307145021Y-80117260D01*
X307173933Y-80130742D01*
G37*
G36*
X306922189Y-80406411D02*
G01*
X306945575Y-80454877D01*
X306942762Y-80462937D01*
X306915441Y-80466291D01*
X306904212Y-80444961D01*
X306907023Y-80404420D01*
X306922189Y-80406411D01*
G37*
G36*
X307112367Y-80489226D02*
G01*
X307098885Y-80518139D01*
X307069972Y-80504657D01*
X307083454Y-80475744D01*
X307112367Y-80489226D01*
G37*
G36*
X307382166Y-80439038D02*
G01*
X307368684Y-80467951D01*
X307339771Y-80454469D01*
X307353253Y-80425557D01*
X307382166Y-80439038D01*
G37*
G36*
X307315328Y-80324554D02*
G01*
X307295428Y-80398592D01*
X307246879Y-80487987D01*
X307207161Y-80526741D01*
X307190739Y-80503491D01*
X307210639Y-80429453D01*
X307259187Y-80340058D01*
X307298906Y-80301304D01*
X307315328Y-80324554D01*
G37*
G36*
X306715375Y-80639860D02*
G01*
X306684710Y-80725148D01*
X306676887Y-80743750D01*
X306630305Y-80841452D01*
X306597073Y-80892248D01*
X306594696Y-80893692D01*
X306596004Y-80863071D01*
X306626669Y-80777783D01*
X306634492Y-80759181D01*
X306681074Y-80661478D01*
X306714306Y-80610682D01*
X306716683Y-80609238D01*
X306715375Y-80639860D01*
G37*
G36*
X306880298Y-80815255D02*
G01*
X306867453Y-80855231D01*
X306841558Y-80894996D01*
X306834991Y-80849277D01*
X306835082Y-80840136D01*
X306849772Y-80775998D01*
X306868731Y-80768676D01*
X306880298Y-80815255D01*
G37*
G36*
X308406157Y-80394410D02*
G01*
X308429544Y-80442876D01*
X308426731Y-80450936D01*
X308399410Y-80454290D01*
X308388181Y-80432960D01*
X308390992Y-80392419D01*
X308406157Y-80394410D01*
G37*
G36*
X309162897Y-80319025D02*
G01*
X309149415Y-80347937D01*
X309120502Y-80334455D01*
X309133984Y-80305543D01*
X309162897Y-80319025D01*
G37*
G36*
X305489992Y-81703864D02*
G01*
X305476510Y-81732776D01*
X305447597Y-81719294D01*
X305461080Y-81690382D01*
X305489992Y-81703864D01*
G37*
G36*
X308642509Y-80205464D02*
G01*
X308670969Y-80242345D01*
X308713728Y-80330893D01*
X308710597Y-80387802D01*
X308665439Y-80390693D01*
X308647243Y-80379803D01*
X308595569Y-80359923D01*
X308583755Y-80397226D01*
X308551970Y-80461631D01*
X308473597Y-80557903D01*
X308419768Y-80612947D01*
X308313453Y-80713713D01*
X308255144Y-80763057D01*
X308228585Y-80772902D01*
X308219173Y-80760067D01*
X308240662Y-80716315D01*
X308302559Y-80637895D01*
X308305516Y-80634541D01*
X308351447Y-80565133D01*
X308325993Y-80546157D01*
X308233877Y-80579576D01*
X308206530Y-80593421D01*
X308164828Y-80602148D01*
X308176348Y-80557637D01*
X308225115Y-80507702D01*
X308320421Y-80506444D01*
X308397880Y-80506851D01*
X308445628Y-80464395D01*
X308488277Y-80356780D01*
X308489390Y-80353371D01*
X308541015Y-80222762D01*
X308588823Y-80175437D01*
X308642509Y-80205464D01*
G37*
G36*
X308696283Y-80549960D02*
G01*
X308692845Y-80558291D01*
X308645654Y-80616717D01*
X308568088Y-80673490D01*
X308487132Y-80714303D01*
X308429767Y-80724851D01*
X308418578Y-80703694D01*
X308466768Y-80653950D01*
X308510844Y-80641913D01*
X308607346Y-80603442D01*
X308656597Y-80562595D01*
X308700405Y-80520773D01*
X308696283Y-80549960D01*
G37*
G36*
X305748257Y-81753896D02*
G01*
X305734774Y-81782809D01*
X305705862Y-81769326D01*
X305719344Y-81740413D01*
X305748257Y-81753896D01*
G37*
G36*
X309016326Y-80324323D02*
G01*
X309029965Y-80374466D01*
X309001527Y-80445879D01*
X308935254Y-80511828D01*
X308925303Y-80517908D01*
X308845551Y-80596859D01*
X308815237Y-80653990D01*
X308792385Y-80706159D01*
X308790182Y-80672392D01*
X308790353Y-80670669D01*
X308819108Y-80547636D01*
X308871678Y-80425471D01*
X308872096Y-80424868D01*
X308950924Y-80396176D01*
X308979836Y-80409659D01*
X308993318Y-80380746D01*
X308964406Y-80367265D01*
X308950924Y-80396176D01*
X308872096Y-80424868D01*
X308931138Y-80339706D01*
X308956366Y-80322180D01*
X309016326Y-80324323D01*
G37*
G36*
X306275344Y-81529044D02*
G01*
X306304515Y-81593462D01*
X306301572Y-81611518D01*
X306277702Y-81605888D01*
X306259053Y-81563980D01*
X306252942Y-81514975D01*
X306275344Y-81529044D01*
G37*
G36*
X309918363Y-80284112D02*
G01*
X309972674Y-80307488D01*
X309977100Y-80313578D01*
X309950926Y-80343725D01*
X309941509Y-80347704D01*
X309888881Y-80329950D01*
X309882774Y-80318238D01*
X309899530Y-80283465D01*
X309918363Y-80284112D01*
G37*
G36*
X309315425Y-80402220D02*
G01*
X309341949Y-80419601D01*
X309392267Y-80489573D01*
X309354356Y-80547381D01*
X309278523Y-80577790D01*
X309171342Y-80607048D01*
X309226341Y-80489493D01*
X309272635Y-80410176D01*
X309315425Y-80402220D01*
G37*
G36*
X308577165Y-80820279D02*
G01*
X308563683Y-80849192D01*
X308534770Y-80835710D01*
X308548252Y-80806797D01*
X308577165Y-80820279D01*
G37*
G36*
X305284887Y-81972067D02*
G01*
X305272042Y-82012043D01*
X305246147Y-82051808D01*
X305239580Y-82006090D01*
X305239671Y-81996949D01*
X305254361Y-81932811D01*
X305273320Y-81925488D01*
X305284887Y-81972067D01*
G37*
G36*
X308361930Y-80801210D02*
G01*
X308377130Y-80798323D01*
X308356010Y-80834361D01*
X308301858Y-80918271D01*
X308286538Y-80941486D01*
X308224345Y-81023318D01*
X308197411Y-81026067D01*
X308195705Y-81007582D01*
X308218147Y-80935564D01*
X308237330Y-80919963D01*
X308252297Y-80886960D01*
X308244981Y-80879456D01*
X308252288Y-80846298D01*
X308293946Y-80823912D01*
X308361930Y-80801210D01*
G37*
G36*
X303605456Y-82725855D02*
G01*
X303591973Y-82754768D01*
X303563062Y-82741285D01*
X303576543Y-82712373D01*
X303605456Y-82725855D01*
G37*
G36*
X310005776Y-80436338D02*
G01*
X310009130Y-80463659D01*
X309987800Y-80474888D01*
X309947259Y-80472077D01*
X309949250Y-80456912D01*
X309997716Y-80433526D01*
X310005776Y-80436338D01*
G37*
G36*
X308531248Y-80059649D02*
G01*
X308520896Y-80085323D01*
X308487808Y-80164872D01*
X308469869Y-80248538D01*
X308443053Y-80330785D01*
X308408413Y-80354142D01*
X308358641Y-80380131D01*
X308351291Y-80399546D01*
X308303130Y-80447293D01*
X308255979Y-80457941D01*
X308171205Y-80498406D01*
X308143827Y-80540317D01*
X308097343Y-80604023D01*
X307998240Y-80704736D01*
X307865098Y-80824043D01*
X307816648Y-80864530D01*
X307593058Y-81071348D01*
X307449467Y-81260558D01*
X307422074Y-81312714D01*
X307368920Y-81418057D01*
X307335569Y-81469775D01*
X307329466Y-81466448D01*
X307356157Y-81287237D01*
X307407023Y-81131807D01*
X307471550Y-81030337D01*
X307485269Y-81019106D01*
X307548101Y-80961040D01*
X307560026Y-80927706D01*
X307585322Y-80884411D01*
X307662871Y-80796804D01*
X307777961Y-80681055D01*
X307825784Y-80635579D01*
X307994082Y-80474976D01*
X308100474Y-80364613D01*
X308151156Y-80295538D01*
X308152321Y-80258799D01*
X308110169Y-80245443D01*
X308096288Y-80244768D01*
X308054348Y-80235946D01*
X308092734Y-80210180D01*
X308142140Y-80189810D01*
X308237517Y-80163224D01*
X308274075Y-80186902D01*
X308276251Y-80209640D01*
X308294970Y-80264020D01*
X308338854Y-80250621D01*
X308384747Y-80177871D01*
X308388103Y-80168929D01*
X308446320Y-80086798D01*
X308486971Y-80061663D01*
X308531248Y-80059649D01*
G37*
G36*
X307216405Y-81050639D02*
G01*
X307203495Y-81136305D01*
X307173613Y-81269701D01*
X307131007Y-81439888D01*
X307104104Y-81537130D01*
X307087374Y-81576177D01*
X307075292Y-81571780D01*
X307067456Y-81553011D01*
X307070363Y-81486034D01*
X307094961Y-81367454D01*
X307132196Y-81230503D01*
X307173010Y-81108410D01*
X307208350Y-81034405D01*
X307209002Y-81033562D01*
X307216405Y-81050639D01*
G37*
G36*
X303721106Y-82779784D02*
G01*
X303707624Y-82808697D01*
X303678712Y-82795214D01*
X303692193Y-82766301D01*
X303721106Y-82779784D01*
G37*
G36*
X306988695Y-80102974D02*
G01*
X307041393Y-80123010D01*
X307038407Y-80184783D01*
X306960544Y-80282818D01*
X306926881Y-80314905D01*
X306829030Y-80400045D01*
X306759632Y-80452682D01*
X306743495Y-80460630D01*
X306706324Y-80498146D01*
X306656136Y-80582264D01*
X306602328Y-80671498D01*
X306562047Y-80713532D01*
X306527587Y-80769211D01*
X306510715Y-80887968D01*
X306512763Y-81044124D01*
X306535065Y-81212002D01*
X306535942Y-81216368D01*
X306556170Y-81352965D01*
X306555937Y-81440090D01*
X306539913Y-81467013D01*
X306512768Y-81423005D01*
X306486361Y-81330289D01*
X306461318Y-81233538D01*
X306447421Y-81219380D01*
X306440541Y-81271040D01*
X306448926Y-81377903D01*
X306478621Y-81525360D01*
X306498321Y-81598080D01*
X306528807Y-81724889D01*
X306535740Y-81810370D01*
X306526886Y-81830570D01*
X306493511Y-81801733D01*
X306463440Y-81713651D01*
X306462656Y-81709925D01*
X306435060Y-81619481D01*
X306406620Y-81586335D01*
X306405858Y-81586564D01*
X306377921Y-81556706D01*
X306358635Y-81485468D01*
X306334805Y-81408923D01*
X306286218Y-81407845D01*
X306258914Y-81422634D01*
X306200774Y-81445205D01*
X306169065Y-81408226D01*
X306150247Y-81328413D01*
X306130899Y-81234666D01*
X306118096Y-81225834D01*
X306101907Y-81298120D01*
X306099821Y-81309132D01*
X306072267Y-81387748D01*
X306039429Y-81386381D01*
X306019579Y-81403555D01*
X306001818Y-81492307D01*
X305989718Y-81633997D01*
X305988994Y-81649527D01*
X305978749Y-81810062D01*
X305963132Y-81892672D01*
X305938239Y-81909652D01*
X305913010Y-81888853D01*
X305877540Y-81816044D01*
X305892363Y-81785242D01*
X305905201Y-81728721D01*
X305888320Y-81699204D01*
X305862296Y-81615456D01*
X305869795Y-81569876D01*
X305869085Y-81481217D01*
X305832224Y-81360778D01*
X305821461Y-81337146D01*
X305771424Y-81183740D01*
X305767859Y-81152618D01*
X306050999Y-81049563D01*
X306059109Y-81066386D01*
X306079951Y-81036981D01*
X306130225Y-80922030D01*
X306132301Y-80913566D01*
X306201489Y-80888383D01*
X306224882Y-80870136D01*
X306228963Y-80865153D01*
X306271378Y-80839582D01*
X306285933Y-80878635D01*
X306264521Y-80956253D01*
X306251927Y-81009224D01*
X306263941Y-81014077D01*
X306299702Y-80969923D01*
X306356711Y-80869428D01*
X306396065Y-80790088D01*
X306444523Y-80681463D01*
X306464181Y-80624271D01*
X306456839Y-80624718D01*
X306395992Y-80647944D01*
X306374959Y-80638377D01*
X306368058Y-80597267D01*
X306388543Y-80584639D01*
X306440947Y-80528741D01*
X306466531Y-80460232D01*
X306469545Y-80381105D01*
X306443039Y-80372760D01*
X306392661Y-80416401D01*
X306327125Y-80501938D01*
X306263880Y-80601681D01*
X306220373Y-80687936D01*
X306214053Y-80733012D01*
X306215484Y-80733924D01*
X306227647Y-80781436D01*
X306216513Y-80832092D01*
X306201489Y-80888383D01*
X306132301Y-80913566D01*
X306146223Y-80856825D01*
X306150667Y-80780084D01*
X306134375Y-80780999D01*
X306103802Y-80851189D01*
X306073448Y-80951381D01*
X306050999Y-81049563D01*
X305767859Y-81152618D01*
X305753172Y-81024408D01*
X305753468Y-81015767D01*
X305750791Y-80904180D01*
X305734317Y-80840009D01*
X305729647Y-80835902D01*
X305703482Y-80860660D01*
X305690778Y-80948158D01*
X305691052Y-81071987D01*
X305703825Y-81205739D01*
X305728614Y-81323007D01*
X305739067Y-81352890D01*
X305771792Y-81484350D01*
X305769257Y-81600372D01*
X305767517Y-81606595D01*
X305737002Y-81667219D01*
X305714887Y-81658017D01*
X305676278Y-81615190D01*
X305639227Y-81644447D01*
X305622411Y-81729280D01*
X305622545Y-81739638D01*
X305622111Y-81813999D01*
X305603401Y-81806633D01*
X305567269Y-81747754D01*
X305495746Y-81666982D01*
X305436946Y-81636766D01*
X305369763Y-81582128D01*
X305300276Y-81445262D01*
X305288708Y-81414658D01*
X305237398Y-81297178D01*
X305234401Y-81292777D01*
X305582341Y-81166137D01*
X305610553Y-81195388D01*
X305620891Y-81184113D01*
X305607653Y-81131954D01*
X305600317Y-81127587D01*
X305577231Y-81142580D01*
X305582341Y-81166137D01*
X305234401Y-81292777D01*
X305190474Y-81228266D01*
X305170739Y-81219927D01*
X305163103Y-81265798D01*
X305200105Y-81367283D01*
X305221715Y-81410582D01*
X305283542Y-81564466D01*
X305286877Y-81698602D01*
X305280910Y-81727978D01*
X305248496Y-81821836D01*
X305208675Y-81837261D01*
X305192124Y-81827147D01*
X305158627Y-81820005D01*
X305170432Y-81887974D01*
X305171650Y-81891747D01*
X305191757Y-81964051D01*
X305173286Y-81960434D01*
X305141604Y-81926689D01*
X305095415Y-81881992D01*
X305086366Y-81908329D01*
X305094480Y-81967845D01*
X305089403Y-81988139D01*
X305059297Y-81935241D01*
X305010508Y-81820561D01*
X305005630Y-81808141D01*
X304943800Y-81661900D01*
X304903639Y-81597382D01*
X304881937Y-81609575D01*
X304880958Y-81613463D01*
X304860703Y-81662269D01*
X304842160Y-81636755D01*
X304805135Y-81610454D01*
X304788454Y-81623127D01*
X304781862Y-81688099D01*
X304805087Y-81800324D01*
X304818916Y-81842925D01*
X304851450Y-81983001D01*
X304852792Y-82107136D01*
X304847565Y-82129732D01*
X304818575Y-82194258D01*
X304801530Y-82170492D01*
X304771466Y-82090193D01*
X304711091Y-81975858D01*
X304693056Y-81945914D01*
X304595946Y-81789215D01*
X304606183Y-81927293D01*
X304634427Y-82063640D01*
X304677968Y-82165225D01*
X304739519Y-82265078D01*
X304632275Y-82184085D01*
X304560139Y-82132000D01*
X304548109Y-82136754D01*
X304579672Y-82191295D01*
X304604630Y-82254606D01*
X304587224Y-82269732D01*
X304559581Y-82294262D01*
X304566082Y-82331250D01*
X304565764Y-82381935D01*
X304510415Y-82372303D01*
X304408203Y-82306436D01*
X304267295Y-82188419D01*
X304251356Y-82173876D01*
X304154429Y-82083162D01*
X304305325Y-82028240D01*
X304348876Y-82118375D01*
X304405998Y-82213485D01*
X304460256Y-82286727D01*
X304495210Y-82311259D01*
X304498590Y-82307646D01*
X304484946Y-82258776D01*
X304438795Y-82159319D01*
X304406512Y-82097777D01*
X304345809Y-82001145D01*
X304303035Y-81960886D01*
X304291783Y-81969921D01*
X304305325Y-82028240D01*
X304154429Y-82083162D01*
X304130288Y-82060569D01*
X304069146Y-81995914D01*
X304059957Y-81969141D01*
X304094742Y-81969481D01*
X304100881Y-81970705D01*
X304167493Y-81947757D01*
X304207795Y-81876799D01*
X304200623Y-81799903D01*
X304192512Y-81788511D01*
X304176962Y-81734686D01*
X304194211Y-81719386D01*
X304245232Y-81740977D01*
X304272003Y-81787094D01*
X304314906Y-81854428D01*
X304357228Y-81841206D01*
X304390275Y-81756736D01*
X304391930Y-81743445D01*
X304526371Y-81694512D01*
X304554583Y-81723762D01*
X304564921Y-81712488D01*
X304551683Y-81660328D01*
X304544347Y-81655962D01*
X304521261Y-81670955D01*
X304526371Y-81694512D01*
X304391930Y-81743445D01*
X304404116Y-81645617D01*
X304435682Y-81480928D01*
X304506836Y-81391041D01*
X304605186Y-81378800D01*
X304661548Y-81428427D01*
X304669161Y-81465684D01*
X304702639Y-81529817D01*
X304737311Y-81540239D01*
X304774206Y-81522300D01*
X304770692Y-81455163D01*
X304764480Y-81435808D01*
X304855977Y-81402506D01*
X304883786Y-81454656D01*
X304898497Y-81450044D01*
X304887965Y-81389620D01*
X304872268Y-81367570D01*
X304847599Y-81358363D01*
X304855977Y-81402506D01*
X304764480Y-81435808D01*
X304736132Y-81347462D01*
X304698091Y-81227365D01*
X304699142Y-81169571D01*
X304739866Y-81154783D01*
X304741954Y-81154806D01*
X304816914Y-81152913D01*
X304834779Y-81150163D01*
X304848367Y-81181490D01*
X304849921Y-81216668D01*
X304871603Y-81270436D01*
X304895594Y-81272060D01*
X304919336Y-81236708D01*
X305527937Y-81015195D01*
X305574541Y-81024910D01*
X305576952Y-81024066D01*
X305614553Y-80972846D01*
X305632922Y-80904039D01*
X305637995Y-80832754D01*
X305610104Y-80842764D01*
X305577132Y-80878023D01*
X305528813Y-80957100D01*
X305527937Y-81015195D01*
X304919336Y-81236708D01*
X304925997Y-81226791D01*
X304902335Y-81170752D01*
X305037937Y-81121397D01*
X305084425Y-81153367D01*
X305096673Y-81150863D01*
X305132700Y-81121369D01*
X305132263Y-81116738D01*
X305089381Y-81091354D01*
X305073527Y-81087270D01*
X305035684Y-81104851D01*
X305037937Y-81121397D01*
X304902335Y-81170752D01*
X304898142Y-81160824D01*
X304839541Y-81115439D01*
X304826458Y-81102055D01*
X305865270Y-80723958D01*
X305872073Y-80724607D01*
X305899899Y-80680681D01*
X305904041Y-80664961D01*
X305900419Y-80621395D01*
X305893615Y-80620745D01*
X305865789Y-80664672D01*
X305861647Y-80680392D01*
X305865270Y-80723958D01*
X304826458Y-81102055D01*
X304797755Y-81072696D01*
X304812399Y-81040867D01*
X304852606Y-81021002D01*
X304861376Y-81032025D01*
X304907443Y-81042742D01*
X305003094Y-81021408D01*
X305020070Y-81015507D01*
X305130042Y-80955683D01*
X305150018Y-80915398D01*
X305451182Y-80805783D01*
X305480095Y-80819265D01*
X305493577Y-80790352D01*
X305488758Y-80788105D01*
X305707612Y-80708449D01*
X305735419Y-80760599D01*
X305750130Y-80755989D01*
X305739599Y-80695564D01*
X305723902Y-80673513D01*
X305699233Y-80664307D01*
X305707612Y-80708449D01*
X305488758Y-80788105D01*
X305464665Y-80776870D01*
X305451182Y-80805783D01*
X305150018Y-80915398D01*
X305172166Y-80870732D01*
X305174058Y-80853851D01*
X305185082Y-80795799D01*
X305219847Y-80753926D01*
X305297414Y-80716524D01*
X305436843Y-80671882D01*
X305500496Y-80653331D01*
X305671587Y-80603017D01*
X305818932Y-80558086D01*
X305911588Y-80527980D01*
X305913616Y-80527255D01*
X305983572Y-80516413D01*
X305999965Y-80535808D01*
X306027293Y-80582034D01*
X306051884Y-80591246D01*
X306084045Y-80586007D01*
X306068985Y-80569365D01*
X306059797Y-80520805D01*
X306103850Y-80468166D01*
X306171371Y-80442729D01*
X306188112Y-80444218D01*
X306223873Y-80429087D01*
X306222170Y-80417786D01*
X306249866Y-80377716D01*
X306335046Y-80326169D01*
X306353727Y-80317555D01*
X306453112Y-80286280D01*
X306510871Y-80291920D01*
X306514384Y-80297278D01*
X306560652Y-80317538D01*
X306641239Y-80299415D01*
X306716997Y-80256904D01*
X306748038Y-80213738D01*
X306797120Y-80156995D01*
X306891364Y-80115735D01*
X306988695Y-80102974D01*
G37*
G36*
X304724431Y-82371591D02*
G01*
X304732008Y-82375037D01*
X304785726Y-82418433D01*
X304788623Y-82440520D01*
X304752456Y-82439276D01*
X304716914Y-82407407D01*
X304685979Y-82362576D01*
X304724431Y-82371591D01*
G37*
G36*
X307101145Y-81645572D02*
G01*
X307087662Y-81674484D01*
X307058750Y-81661002D01*
X307072232Y-81632090D01*
X307101145Y-81645572D01*
G37*
G36*
X305450674Y-82165275D02*
G01*
X305479845Y-82229693D01*
X305476902Y-82247750D01*
X305453032Y-82242120D01*
X305434384Y-82200212D01*
X305428273Y-82151206D01*
X305450674Y-82165275D01*
G37*
G36*
X306852713Y-81552546D02*
G01*
X306857362Y-81647451D01*
X306857438Y-81650255D01*
X306854214Y-81770511D01*
X306837362Y-81810758D01*
X306809018Y-81766241D01*
X306807332Y-81761688D01*
X306804124Y-81677818D01*
X306820192Y-81600971D01*
X306842337Y-81539718D01*
X306852713Y-81552546D01*
G37*
G36*
X303536870Y-82851402D02*
G01*
X303614601Y-82885245D01*
X303668957Y-82925803D01*
X303674093Y-82943508D01*
X303630720Y-82944710D01*
X303553806Y-82912987D01*
X303485573Y-82868467D01*
X303476677Y-82844743D01*
X303536870Y-82851402D01*
G37*
G36*
X309463712Y-80881690D02*
G01*
X309450229Y-80910602D01*
X309421317Y-80897120D01*
X309434799Y-80868207D01*
X309463712Y-80881690D01*
G37*
G36*
X307598347Y-81560627D02*
G01*
X307584864Y-81589539D01*
X307555952Y-81576058D01*
X307569434Y-81547145D01*
X307598347Y-81560627D01*
G37*
G36*
X306725953Y-81804387D02*
G01*
X306729606Y-81813976D01*
X306735903Y-81898493D01*
X306723489Y-81927060D01*
X306685612Y-81944029D01*
X306678797Y-81934157D01*
X306677585Y-81864548D01*
X306684913Y-81821073D01*
X306703378Y-81769361D01*
X306725953Y-81804387D01*
G37*
G36*
X304938251Y-82488879D02*
G01*
X304942857Y-82524652D01*
X304930366Y-82596777D01*
X304904606Y-82594832D01*
X304893715Y-82571871D01*
X304903581Y-82503176D01*
X304911677Y-82490824D01*
X304938251Y-82488879D01*
G37*
G36*
X310088098Y-80750454D02*
G01*
X310074615Y-80779366D01*
X310045704Y-80765884D01*
X310059185Y-80736971D01*
X310088098Y-80750454D01*
G37*
G36*
X307756392Y-81599125D02*
G01*
X307742909Y-81628037D01*
X307713997Y-81614556D01*
X307727479Y-81585643D01*
X307756392Y-81599125D01*
G37*
G36*
X307184178Y-81649604D02*
G01*
X307199014Y-81695854D01*
X307224003Y-81788916D01*
X307216513Y-81812616D01*
X307176678Y-81786498D01*
X307148637Y-81719817D01*
X307149626Y-81666233D01*
X307163833Y-81617818D01*
X307184178Y-81649604D01*
G37*
G36*
X305636659Y-82370645D02*
G01*
X305623177Y-82399557D01*
X305594264Y-82386075D01*
X305607746Y-82357162D01*
X305636659Y-82370645D01*
G37*
G36*
X310273107Y-80731126D02*
G01*
X310259625Y-80760039D01*
X310230712Y-80746557D01*
X310244194Y-80717644D01*
X310273107Y-80731126D01*
G37*
G36*
X306076036Y-82258735D02*
G01*
X306062553Y-82287648D01*
X306033641Y-82274165D01*
X306047123Y-82245253D01*
X306076036Y-82258735D01*
G37*
G36*
X304931380Y-82675356D02*
G01*
X304917898Y-82704269D01*
X304888985Y-82690786D01*
X304902467Y-82661874D01*
X304931380Y-82675356D01*
G37*
G36*
X304804195Y-82721647D02*
G01*
X304790714Y-82750560D01*
X304761801Y-82737077D01*
X304775283Y-82708165D01*
X304804195Y-82721647D01*
G37*
G36*
X304295460Y-82906812D02*
G01*
X304281978Y-82935725D01*
X304253066Y-82922242D01*
X304266547Y-82893329D01*
X304295460Y-82906812D01*
G37*
G36*
X309765105Y-80682809D02*
G01*
X309765547Y-80683015D01*
X309862254Y-80703426D01*
X309904528Y-80697240D01*
X309947929Y-80696646D01*
X309947699Y-80757878D01*
X309944462Y-80773936D01*
X309905190Y-80851412D01*
X309864498Y-80871785D01*
X309802660Y-80905506D01*
X309794018Y-80926233D01*
X309747608Y-80992778D01*
X309678183Y-80987565D01*
X309667522Y-80951541D01*
X309721976Y-80931721D01*
X309750889Y-80945204D01*
X309764370Y-80916291D01*
X309735458Y-80902809D01*
X309721976Y-80931721D01*
X309667522Y-80951541D01*
X309663530Y-80938050D01*
X309681506Y-80866328D01*
X309685512Y-80848971D01*
X309775905Y-80816071D01*
X309804818Y-80829553D01*
X309818299Y-80800641D01*
X309789387Y-80787158D01*
X309775905Y-80816071D01*
X309685512Y-80848971D01*
X309698723Y-80791738D01*
X309672869Y-80781557D01*
X309639990Y-80776723D01*
X309654862Y-80723302D01*
X309695796Y-80667600D01*
X309765105Y-80682809D01*
G37*
G36*
X309551125Y-81033915D02*
G01*
X309554479Y-81061237D01*
X309533149Y-81072465D01*
X309492607Y-81069654D01*
X309494599Y-81054489D01*
X309543064Y-81031103D01*
X309551125Y-81033915D01*
G37*
G36*
X305650816Y-82453511D02*
G01*
X305674202Y-82501978D01*
X305671390Y-82510038D01*
X305644068Y-82513391D01*
X305632840Y-82492061D01*
X305635650Y-82451520D01*
X305650816Y-82453511D01*
G37*
G36*
X309909802Y-80964955D02*
G01*
X309908934Y-80983702D01*
X309867627Y-81044955D01*
X309855768Y-81051063D01*
X309823276Y-81033308D01*
X309824144Y-81014563D01*
X309865450Y-80953309D01*
X309877310Y-80947201D01*
X309909802Y-80964955D01*
G37*
G36*
X304131855Y-82919347D02*
G01*
X304164799Y-82944175D01*
X304226219Y-83016894D01*
X304238835Y-83061260D01*
X304229441Y-83095301D01*
X304215318Y-83071937D01*
X304170766Y-82996157D01*
X304141282Y-82954852D01*
X304106954Y-82906611D01*
X304131855Y-82919347D01*
G37*
G36*
X303970284Y-83037964D02*
G01*
X304021843Y-83078416D01*
X304072991Y-83134031D01*
X304076884Y-83154405D01*
X304031007Y-83134299D01*
X303979448Y-83093847D01*
X303928300Y-83038233D01*
X303924407Y-83017858D01*
X303970284Y-83037964D01*
G37*
G36*
X303250085Y-82903683D02*
G01*
X303341472Y-82915840D01*
X303458369Y-82954374D01*
X303576556Y-83007533D01*
X303671810Y-83063561D01*
X303719909Y-83110707D01*
X303716092Y-83129815D01*
X303702939Y-83186521D01*
X303719512Y-83215563D01*
X303750904Y-83260104D01*
X303726090Y-83261054D01*
X303637642Y-83216233D01*
X303563038Y-83173392D01*
X303617146Y-83153698D01*
X303646058Y-83167180D01*
X303659540Y-83138268D01*
X303630628Y-83124785D01*
X303617146Y-83153698D01*
X303563038Y-83173392D01*
X303549459Y-83165594D01*
X303446795Y-83101132D01*
X303418049Y-83068529D01*
X303456299Y-83059563D01*
X303460175Y-83059591D01*
X303522080Y-83057548D01*
X303511090Y-83039586D01*
X303444037Y-83002722D01*
X303334400Y-82968773D01*
X303255910Y-82973107D01*
X303183285Y-82976497D01*
X303161220Y-82956325D01*
X303185692Y-82917903D01*
X303250085Y-82903683D01*
G37*
G36*
X303351587Y-83028139D02*
G01*
X303367786Y-83070731D01*
X303352017Y-83082159D01*
X303353205Y-83110783D01*
X303419421Y-83157174D01*
X303425679Y-83160423D01*
X303514605Y-83216128D01*
X303561329Y-83264266D01*
X303552364Y-83287869D01*
X303525258Y-83285698D01*
X303482701Y-83311075D01*
X303479330Y-83333224D01*
X303465267Y-83369865D01*
X303428138Y-83348962D01*
X303389736Y-83292497D01*
X303391328Y-83273120D01*
X303372729Y-83224705D01*
X303342001Y-83200760D01*
X303289802Y-83123481D01*
X303290667Y-83076832D01*
X303318122Y-83017968D01*
X303351587Y-83028139D01*
G37*
G36*
X307833543Y-81811098D02*
G01*
X307820061Y-81840011D01*
X307791149Y-81826529D01*
X307804631Y-81797616D01*
X307833543Y-81811098D01*
G37*
G36*
X307504648Y-81874794D02*
G01*
X307528033Y-81923260D01*
X307525221Y-81931320D01*
X307497899Y-81934674D01*
X307486671Y-81913344D01*
X307489482Y-81872802D01*
X307504648Y-81874794D01*
G37*
G36*
X306180152Y-82412883D02*
G01*
X306166670Y-82441796D01*
X306137757Y-82428314D01*
X306151239Y-82399401D01*
X306180152Y-82412883D01*
G37*
G36*
X305729241Y-82625012D02*
G01*
X305715759Y-82653925D01*
X305686846Y-82640443D01*
X305700329Y-82611531D01*
X305729241Y-82625012D01*
G37*
G36*
X305644452Y-82655873D02*
G01*
X305630970Y-82684786D01*
X305602057Y-82671303D01*
X305615539Y-82642392D01*
X305644452Y-82655873D01*
G37*
G36*
X303821481Y-83319380D02*
G01*
X303807999Y-83348293D01*
X303779087Y-83334810D01*
X303792569Y-83305899D01*
X303821481Y-83319380D01*
G37*
G36*
X303609508Y-83396532D02*
G01*
X303596026Y-83425445D01*
X303567113Y-83411962D01*
X303580596Y-83383050D01*
X303609508Y-83396532D01*
G37*
G36*
X307584810Y-81834275D02*
G01*
X307589560Y-81840801D01*
X307629379Y-81930891D01*
X307634280Y-81968556D01*
X307620876Y-81975031D01*
X307591037Y-81910733D01*
X307587441Y-81900672D01*
X307569622Y-81832695D01*
X307584810Y-81834275D01*
G37*
G36*
X306267063Y-82190649D02*
G01*
X306299897Y-82214645D01*
X306368858Y-82305643D01*
X306391507Y-82373346D01*
X306393623Y-82427883D01*
X306378070Y-82412863D01*
X306331226Y-82327611D01*
X306286461Y-82254163D01*
X306249318Y-82189846D01*
X306267063Y-82190649D01*
G37*
G36*
X305939941Y-82588332D02*
G01*
X305963328Y-82636799D01*
X305960515Y-82644859D01*
X305933193Y-82648213D01*
X305921965Y-82626883D01*
X305924775Y-82586341D01*
X305939941Y-82588332D01*
G37*
G36*
X304715666Y-83137957D02*
G01*
X304702183Y-83166869D01*
X304673271Y-83153387D01*
X304686753Y-83124474D01*
X304715666Y-83137957D01*
G37*
G36*
X303782983Y-83477425D02*
G01*
X303769501Y-83506337D01*
X303740589Y-83492856D01*
X303754071Y-83463943D01*
X303782983Y-83477425D01*
G37*
G36*
X310112042Y-81031225D02*
G01*
X310173345Y-81062013D01*
X310214021Y-81119857D01*
X310217585Y-81136090D01*
X310175507Y-81159724D01*
X310071863Y-81209335D01*
X309927808Y-81274846D01*
X309905447Y-81284789D01*
X309759994Y-81344835D01*
X309668198Y-81373418D01*
X309642770Y-81366744D01*
X309645595Y-81362301D01*
X309718424Y-81305174D01*
X309816507Y-81257397D01*
X309892950Y-81220102D01*
X309887477Y-81207560D01*
X309957173Y-81182193D01*
X309986085Y-81195675D01*
X309999568Y-81166762D01*
X309970655Y-81153280D01*
X309957173Y-81182193D01*
X309887477Y-81207560D01*
X309882887Y-81197042D01*
X309872434Y-81194296D01*
X309842461Y-81175934D01*
X310068927Y-81093507D01*
X310097838Y-81106989D01*
X310111321Y-81078077D01*
X310082408Y-81064595D01*
X310068927Y-81093507D01*
X309842461Y-81175934D01*
X309826362Y-81166071D01*
X309867315Y-81120116D01*
X309990705Y-81057972D01*
X310112042Y-81031225D01*
G37*
G36*
X303586646Y-83559815D02*
G01*
X303599923Y-83568059D01*
X303628722Y-83600759D01*
X303583386Y-83600996D01*
X303536331Y-83591204D01*
X303491352Y-83569034D01*
X303508036Y-83554228D01*
X303586646Y-83559815D01*
G37*
G36*
X309918674Y-81340237D02*
G01*
X309905193Y-81369150D01*
X309876280Y-81355667D01*
X309889763Y-81326756D01*
X309918674Y-81340237D01*
G37*
G36*
X304518369Y-82785776D02*
G01*
X304557690Y-82890713D01*
X304573890Y-82945075D01*
X304609028Y-83093230D01*
X304624294Y-83210773D01*
X304619655Y-83260818D01*
X304594495Y-83263376D01*
X304560673Y-83179260D01*
X304534360Y-83080242D01*
X304499865Y-82914904D01*
X304487203Y-82805578D01*
X304494123Y-82759966D01*
X304518369Y-82785776D01*
G37*
G36*
X310383743Y-81210976D02*
G01*
X310387097Y-81238297D01*
X310365767Y-81249526D01*
X310325226Y-81246715D01*
X310327217Y-81231550D01*
X310375683Y-81208163D01*
X310383743Y-81210976D01*
G37*
G36*
X310256560Y-81257267D02*
G01*
X310259913Y-81284588D01*
X310238583Y-81295817D01*
X310198042Y-81293006D01*
X310200033Y-81277841D01*
X310248499Y-81254454D01*
X310256560Y-81257267D01*
G37*
G36*
X310146079Y-81305480D02*
G01*
X310132596Y-81334393D01*
X310103684Y-81320911D01*
X310117166Y-81291998D01*
X310146079Y-81305480D01*
G37*
G36*
X303925609Y-82185343D02*
G01*
X304012110Y-82184209D01*
X304041658Y-82200211D01*
X304064776Y-82253982D01*
X304109395Y-82362049D01*
X304139309Y-82435527D01*
X304195400Y-82558348D01*
X304244421Y-82639514D01*
X304263211Y-82656588D01*
X304321592Y-82716689D01*
X304384932Y-82858672D01*
X304414880Y-82950199D01*
X304427527Y-83038996D01*
X304388732Y-83059514D01*
X304386926Y-83059181D01*
X304355540Y-83060593D01*
X304403577Y-83095396D01*
X304472867Y-83174223D01*
X304510266Y-83269826D01*
X304521857Y-83343077D01*
X304508570Y-83332649D01*
X304495563Y-83304919D01*
X304450659Y-83240231D01*
X304398688Y-83202456D01*
X304365716Y-83204904D01*
X304368794Y-83240202D01*
X304353459Y-83277683D01*
X304336151Y-83277252D01*
X304313253Y-83230441D01*
X304312844Y-83120134D01*
X304322568Y-83042071D01*
X304345207Y-82890243D01*
X304347523Y-82810015D01*
X304324816Y-82784119D01*
X304272383Y-82795288D01*
X304256884Y-82800825D01*
X304179262Y-82801517D01*
X304150838Y-82773285D01*
X304093668Y-82709201D01*
X304050063Y-82686427D01*
X303979660Y-82636832D01*
X303964111Y-82603807D01*
X303954669Y-82577070D01*
X303951480Y-82588209D01*
X303910908Y-82616756D01*
X303889759Y-82615258D01*
X303864157Y-82623048D01*
X303882303Y-82641678D01*
X303903684Y-82683453D01*
X303891351Y-82693814D01*
X303880816Y-82738462D01*
X303909297Y-82819312D01*
X303947143Y-82895630D01*
X303939104Y-82896363D01*
X303890304Y-82838227D01*
X303813390Y-82722017D01*
X303756151Y-82595323D01*
X303730099Y-82488519D01*
X303738842Y-82438548D01*
X303742829Y-82374368D01*
X303727823Y-82349899D01*
X303719850Y-82284368D01*
X303745085Y-82249175D01*
X303823254Y-82209202D01*
X303925609Y-82185343D01*
G37*
G36*
X310543061Y-81209001D02*
G01*
X310529579Y-81237914D01*
X310500666Y-81224431D01*
X310514148Y-81195520D01*
X310543061Y-81209001D01*
G37*
G36*
X307902898Y-82135072D02*
G01*
X307906877Y-82144489D01*
X307889123Y-82197116D01*
X307877411Y-82203224D01*
X307842638Y-82186467D01*
X307843285Y-82167634D01*
X307866661Y-82113324D01*
X307872751Y-82108898D01*
X307902898Y-82135072D01*
G37*
G36*
X307384671Y-81900319D02*
G01*
X307386617Y-81901750D01*
X307430286Y-81967710D01*
X307476975Y-82083834D01*
X307515673Y-82214572D01*
X307535374Y-82324377D01*
X307531707Y-82370323D01*
X307511450Y-82346160D01*
X307470835Y-82256330D01*
X307420572Y-82125444D01*
X307371286Y-81976112D01*
X307359597Y-81902907D01*
X307384671Y-81900319D01*
G37*
G36*
X303621198Y-83824375D02*
G01*
X303607716Y-83853288D01*
X303578803Y-83839805D01*
X303592285Y-83810893D01*
X303621198Y-83824375D01*
G37*
G36*
X310194711Y-81474822D02*
G01*
X310189081Y-81498693D01*
X310147172Y-81517341D01*
X310098167Y-81523452D01*
X310112236Y-81501049D01*
X310176655Y-81471880D01*
X310194711Y-81474822D01*
G37*
G36*
X305728147Y-82993851D02*
G01*
X305729946Y-82996840D01*
X305773363Y-83083900D01*
X305769540Y-83111661D01*
X305720651Y-83070417D01*
X305714913Y-83063909D01*
X305671403Y-82978511D01*
X305666794Y-82949393D01*
X305684103Y-82937738D01*
X305728147Y-82993851D01*
G37*
G36*
X304614627Y-83429789D02*
G01*
X304643796Y-83494207D01*
X304640855Y-83512264D01*
X304616984Y-83506634D01*
X304598336Y-83464725D01*
X304592225Y-83415720D01*
X304614627Y-83429789D01*
G37*
G36*
X308442655Y-82165530D02*
G01*
X308429173Y-82194443D01*
X308400260Y-82180960D01*
X308413742Y-82152047D01*
X308442655Y-82165530D01*
G37*
G36*
X307562628Y-82429821D02*
G01*
X307586014Y-82478287D01*
X307583201Y-82486347D01*
X307555880Y-82489701D01*
X307544651Y-82468371D01*
X307547462Y-82427829D01*
X307562628Y-82429821D01*
G37*
G36*
X304418694Y-83415145D02*
G01*
X304478343Y-83469684D01*
X304489433Y-83482280D01*
X304555969Y-83568714D01*
X304562101Y-83598059D01*
X304509365Y-83564822D01*
X304474693Y-83535072D01*
X304412239Y-83461296D01*
X304395058Y-83417946D01*
X304418694Y-83415145D01*
G37*
G36*
X303740744Y-84020919D02*
G01*
X303727262Y-84049830D01*
X303698350Y-84036349D01*
X303711832Y-84007436D01*
X303740744Y-84020919D01*
G37*
G36*
X303644421Y-84151998D02*
G01*
X303630939Y-84180911D01*
X303602026Y-84167429D01*
X303615509Y-84138517D01*
X303644421Y-84151998D01*
G37*
G36*
X310358207Y-81756391D02*
G01*
X310344725Y-81785304D01*
X310315813Y-81771821D01*
X310329294Y-81742909D01*
X310358207Y-81756391D01*
G37*
G36*
X303787035Y-84148102D02*
G01*
X303773553Y-84177015D01*
X303744641Y-84163532D01*
X303758123Y-84134620D01*
X303787035Y-84148102D01*
G37*
G36*
X303717676Y-84221357D02*
G01*
X303704194Y-84250270D01*
X303675282Y-84236787D01*
X303688764Y-84207876D01*
X303717676Y-84221357D01*
G37*
G36*
X303648317Y-84294613D02*
G01*
X303634835Y-84323526D01*
X303605923Y-84310043D01*
X303619405Y-84281131D01*
X303648317Y-84294613D01*
G37*
G36*
X310192525Y-81960727D02*
G01*
X310179043Y-81989640D01*
X310150130Y-81976157D01*
X310163613Y-81947245D01*
X310192525Y-81960727D01*
G37*
G36*
X309938157Y-82053309D02*
G01*
X309924675Y-82082222D01*
X309895763Y-82068739D01*
X309909245Y-82039828D01*
X309938157Y-82053309D01*
G37*
G36*
X310154027Y-82118772D02*
G01*
X310140545Y-82147684D01*
X310111633Y-82134202D01*
X310125114Y-82105290D01*
X310154027Y-82118772D01*
G37*
G36*
X310254247Y-82130306D02*
G01*
X310240765Y-82159218D01*
X310211852Y-82145736D01*
X310225334Y-82116823D01*
X310254247Y-82130306D01*
G37*
G36*
X310076644Y-82190363D02*
G01*
X310137694Y-82216484D01*
X310137289Y-82244424D01*
X310131513Y-82246993D01*
X310084695Y-82229933D01*
X310064753Y-82215863D01*
X310049198Y-82188671D01*
X310076644Y-82190363D01*
G37*
G36*
X310403380Y-82125406D02*
G01*
X310446971Y-82132176D01*
X310493131Y-82153417D01*
X310483126Y-82165557D01*
X310405773Y-82169807D01*
X310362182Y-82163037D01*
X310316021Y-82141795D01*
X310326027Y-82129656D01*
X310403380Y-82125406D01*
G37*
G36*
X309046787Y-82138075D02*
G01*
X309066160Y-82200350D01*
X309088172Y-82274620D01*
X309110573Y-82292210D01*
X309159229Y-82326728D01*
X309217503Y-82399625D01*
X309258800Y-82483699D01*
X309234678Y-82525084D01*
X309227633Y-82527968D01*
X309173079Y-82581779D01*
X309168325Y-82607140D01*
X309149720Y-82631135D01*
X309116013Y-82602175D01*
X309069378Y-82509886D01*
X309063400Y-82467717D01*
X309040344Y-82414534D01*
X309014698Y-82413426D01*
X308921315Y-82407967D01*
X308824355Y-82353052D01*
X308775276Y-82287949D01*
X308777567Y-82219891D01*
X308827082Y-82208360D01*
X308867472Y-82238961D01*
X308907331Y-82260391D01*
X308943076Y-82211444D01*
X309000548Y-82134850D01*
X309046787Y-82138075D01*
G37*
G36*
X303475483Y-84652592D02*
G01*
X303473050Y-84670475D01*
X303447841Y-84725502D01*
X303441082Y-84730122D01*
X303428222Y-84703791D01*
X303430655Y-84685906D01*
X303455864Y-84630880D01*
X303462624Y-84626260D01*
X303475483Y-84652592D01*
G37*
G36*
X310597300Y-82149476D02*
G01*
X310583818Y-82178389D01*
X310554906Y-82164907D01*
X310568388Y-82135995D01*
X310597300Y-82149476D01*
G37*
G36*
X309308758Y-82610466D02*
G01*
X309312111Y-82637788D01*
X309290781Y-82649016D01*
X309250240Y-82646206D01*
X309252231Y-82631040D01*
X309300698Y-82607654D01*
X309308758Y-82610466D01*
G37*
G36*
X310246609Y-82373139D02*
G01*
X310233127Y-82402052D01*
X310204215Y-82388570D01*
X310217697Y-82359658D01*
X310246609Y-82373139D01*
G37*
G36*
X303827434Y-84358028D02*
G01*
X303792066Y-84465132D01*
X303784544Y-84536561D01*
X303785289Y-84539029D01*
X303766461Y-84595274D01*
X303700493Y-84682325D01*
X303676908Y-84707412D01*
X303559826Y-84815305D01*
X303488555Y-84852417D01*
X303459897Y-84831299D01*
X303477038Y-84778478D01*
X303533481Y-84683190D01*
X303563781Y-84639355D01*
X303621780Y-84544449D01*
X303636434Y-84487865D01*
X303625758Y-84480766D01*
X303564416Y-84452971D01*
X303557384Y-84440501D01*
X303582120Y-84405744D01*
X303634998Y-84394907D01*
X303736606Y-84359816D01*
X303806405Y-84305234D01*
X303885015Y-84219436D01*
X303827434Y-84358028D01*
G37*
G36*
X310134856Y-82461826D02*
G01*
X310121374Y-82490738D01*
X310092461Y-82477256D01*
X310105944Y-82448343D01*
X310134856Y-82461826D01*
G37*
G36*
X310208111Y-82531185D02*
G01*
X310194629Y-82560097D01*
X310165717Y-82546615D01*
X310179199Y-82517702D01*
X310208111Y-82531185D01*
G37*
G36*
X304288290Y-84733834D02*
G01*
X304274808Y-84762747D01*
X304245895Y-84749265D01*
X304259377Y-84720352D01*
X304288290Y-84733834D01*
G37*
G36*
X310281367Y-82600544D02*
G01*
X310267885Y-82629456D01*
X310238972Y-82615974D01*
X310252455Y-82587061D01*
X310281367Y-82600544D01*
G37*
G36*
X310381280Y-82481627D02*
G01*
X310474239Y-82548277D01*
X310519136Y-82618349D01*
X310501355Y-82640292D01*
X310434276Y-82594056D01*
X310392700Y-82554875D01*
X310254843Y-82418154D01*
X310381280Y-82481627D01*
G37*
G36*
X310337919Y-82667980D02*
G01*
X310361305Y-82716446D01*
X310358493Y-82724506D01*
X310331171Y-82727860D01*
X310319943Y-82706530D01*
X310322754Y-82665988D01*
X310337919Y-82667980D01*
G37*
G36*
X310083551Y-82760562D02*
G01*
X310106937Y-82809028D01*
X310104125Y-82817088D01*
X310076803Y-82820442D01*
X310065575Y-82799112D01*
X310068386Y-82758571D01*
X310083551Y-82760562D01*
G37*
G36*
X309379151Y-82819289D02*
G01*
X309407547Y-82872342D01*
X309420851Y-82969520D01*
X309419798Y-83056943D01*
X309402208Y-83065030D01*
X309368427Y-83020921D01*
X309333155Y-82937351D01*
X309329659Y-82858239D01*
X309356193Y-82816429D01*
X309379151Y-82819289D01*
G37*
G36*
X303935267Y-84676829D02*
G01*
X303928911Y-84747299D01*
X303898782Y-84857038D01*
X303863807Y-84949052D01*
X303811266Y-85060035D01*
X303772226Y-85118200D01*
X303759410Y-85118374D01*
X303755728Y-85058122D01*
X303763727Y-84961177D01*
X303778825Y-84857774D01*
X303796441Y-84778145D01*
X303811991Y-84752525D01*
X303814307Y-84756193D01*
X303844668Y-84754465D01*
X303873928Y-84716611D01*
X303917169Y-84661357D01*
X303935267Y-84676829D01*
G37*
G36*
X309862391Y-82813052D02*
G01*
X309899581Y-82897811D01*
X309900967Y-82919039D01*
X309887432Y-82929996D01*
X309860295Y-82873828D01*
X309845052Y-82811218D01*
X309862391Y-82813052D01*
G37*
G36*
X303770644Y-85202306D02*
G01*
X303794029Y-85250771D01*
X303791218Y-85258832D01*
X303763896Y-85262186D01*
X303752668Y-85240856D01*
X303755478Y-85200314D01*
X303770644Y-85202306D01*
G37*
G36*
X310728537Y-82773863D02*
G01*
X310715055Y-82802776D01*
X310686143Y-82789293D01*
X310699624Y-82760381D01*
X310728537Y-82773863D01*
G37*
G36*
X310517562Y-82757102D02*
G01*
X310559478Y-82785886D01*
X310623272Y-82846461D01*
X310628922Y-82881985D01*
X310626967Y-82882848D01*
X310564493Y-82868011D01*
X310505584Y-82826894D01*
X310442260Y-82755080D01*
X310449972Y-82728987D01*
X310517562Y-82757102D01*
G37*
G36*
X309799592Y-83125112D02*
G01*
X309803570Y-83134529D01*
X309785816Y-83187156D01*
X309774103Y-83193265D01*
X309739331Y-83176508D01*
X309739978Y-83157675D01*
X309763353Y-83103365D01*
X309769444Y-83098939D01*
X309799592Y-83125112D01*
G37*
G36*
X309589722Y-83104327D02*
G01*
X309605935Y-83142470D01*
X309596253Y-83226024D01*
X309553014Y-83259642D01*
X309504234Y-83228189D01*
X309492663Y-83203680D01*
X309493068Y-83120998D01*
X309527216Y-83091081D01*
X309589722Y-83104327D01*
G37*
G36*
X309884541Y-83225085D02*
G01*
X309871058Y-83253998D01*
X309842145Y-83240515D01*
X309855628Y-83211603D01*
X309884541Y-83225085D01*
G37*
G36*
X310790258Y-82943442D02*
G01*
X310776776Y-82972354D01*
X310747864Y-82958872D01*
X310761346Y-82929960D01*
X310790258Y-82943442D01*
G37*
G36*
X310391413Y-82915355D02*
G01*
X310454920Y-82945468D01*
X310553500Y-83012441D01*
X310596281Y-83067282D01*
X310582637Y-83091026D01*
X310536241Y-83073264D01*
X310463554Y-83027664D01*
X310376574Y-82956258D01*
X310352112Y-82914880D01*
X310391413Y-82915355D01*
G37*
G36*
X310070043Y-82983075D02*
G01*
X310100913Y-83071588D01*
X310105050Y-83084598D01*
X310139060Y-83203764D01*
X310139154Y-83246943D01*
X310104396Y-83222132D01*
X310090735Y-83206915D01*
X310059705Y-83128007D01*
X310051498Y-83041156D01*
X310055985Y-82974890D01*
X310070043Y-82983075D01*
G37*
G36*
X310130799Y-82923406D02*
G01*
X310174750Y-82961860D01*
X310249542Y-83041570D01*
X310335793Y-83139968D01*
X310414120Y-83234485D01*
X310465139Y-83302553D01*
X310473742Y-83322704D01*
X310434784Y-83297044D01*
X310355502Y-83224008D01*
X310296975Y-83164890D01*
X310195169Y-83052155D01*
X310130097Y-82966683D01*
X310111374Y-82922446D01*
X310130799Y-82923406D01*
G37*
G36*
X310574545Y-83406042D02*
G01*
X310561062Y-83434954D01*
X310532150Y-83421472D01*
X310545632Y-83392560D01*
X310574545Y-83406042D01*
G37*
G36*
X303918583Y-85828614D02*
G01*
X303905101Y-85857526D01*
X303876188Y-85844044D01*
X303889671Y-85815132D01*
X303918583Y-85828614D01*
G37*
G36*
X303990565Y-85938445D02*
G01*
X304013952Y-85986911D01*
X304011139Y-85994971D01*
X303983817Y-85998325D01*
X303972589Y-85976995D01*
X303975399Y-85936454D01*
X303990565Y-85938445D01*
G37*
G36*
X304057298Y-86079331D02*
G01*
X304061275Y-86088749D01*
X304043521Y-86141376D01*
X304031809Y-86147484D01*
X303997036Y-86130728D01*
X303997684Y-86111894D01*
X304021059Y-86057584D01*
X304027150Y-86053158D01*
X304057298Y-86079331D01*
G37*
G36*
X304237452Y-86616760D02*
G01*
X304260838Y-86665225D01*
X304258026Y-86673286D01*
X304230704Y-86676640D01*
X304219475Y-86655310D01*
X304222286Y-86614768D01*
X304237452Y-86616760D01*
G37*
G36*
X310563321Y-84562387D02*
G01*
X310549840Y-84591300D01*
X310520927Y-84577818D01*
X310534409Y-84548905D01*
X310563321Y-84562387D01*
G37*
G36*
X311583417Y-84375145D02*
G01*
X311606803Y-84423610D01*
X311603991Y-84431671D01*
X311576669Y-84435025D01*
X311565441Y-84413695D01*
X311568251Y-84373154D01*
X311583417Y-84375145D01*
G37*
G36*
X304450853Y-87027198D02*
G01*
X304437372Y-87056110D01*
X304408459Y-87042628D01*
X304421942Y-87013716D01*
X304450853Y-87027198D01*
G37*
G36*
X310921962Y-85152016D02*
G01*
X310908480Y-85180929D01*
X310879567Y-85167447D01*
X310893049Y-85138534D01*
X310921962Y-85152016D01*
G37*
G36*
X309546116Y-85165811D02*
G01*
X309728777Y-85135475D01*
X309835554Y-85147650D01*
X309871287Y-85204524D01*
X309844405Y-85300731D01*
X309828234Y-85364291D01*
X309847455Y-85375067D01*
X309900766Y-85385790D01*
X309906287Y-85395375D01*
X309873492Y-85426924D01*
X309774461Y-85478813D01*
X309628115Y-85541543D01*
X309571386Y-85563487D01*
X309388397Y-85638361D01*
X309222245Y-85716608D01*
X309104404Y-85783215D01*
X309090980Y-85792640D01*
X308958695Y-85883446D01*
X308886678Y-85912496D01*
X308869456Y-85879845D01*
X308883280Y-85838022D01*
X308925542Y-85822640D01*
X308940535Y-85845726D01*
X308964092Y-85840617D01*
X308993342Y-85812404D01*
X308982068Y-85802066D01*
X308929909Y-85815306D01*
X308925542Y-85822640D01*
X308883280Y-85838022D01*
X308897641Y-85794581D01*
X308981468Y-85653677D01*
X309109283Y-85498981D01*
X309258671Y-85352229D01*
X309407220Y-85235152D01*
X309532513Y-85169483D01*
X309546116Y-85165811D01*
G37*
G36*
X304874956Y-87400957D02*
G01*
X304861474Y-87429869D01*
X304832562Y-87416387D01*
X304846043Y-87387475D01*
X304874956Y-87400957D01*
G37*
G36*
X310784505Y-85192821D02*
G01*
X310802493Y-85219505D01*
X310787767Y-85271509D01*
X310778996Y-85276067D01*
X310712785Y-85313580D01*
X310671385Y-85343160D01*
X310625801Y-85374035D01*
X310632945Y-85346763D01*
X310660590Y-85299077D01*
X310731958Y-85206064D01*
X310784505Y-85192821D01*
G37*
G36*
X309360547Y-85874464D02*
G01*
X309444923Y-85891987D01*
X309474706Y-85924428D01*
X309526442Y-85953688D01*
X309645669Y-85931991D01*
X309677744Y-85921659D01*
X309859436Y-85860241D01*
X309689116Y-85985880D01*
X309518796Y-86111520D01*
X309818046Y-85977362D01*
X309975928Y-85909665D01*
X310070979Y-85879091D01*
X310120818Y-85881921D01*
X310141287Y-85909121D01*
X310122308Y-85977788D01*
X310037762Y-86063592D01*
X309906462Y-86151694D01*
X309747215Y-86227261D01*
X309729527Y-86233906D01*
X309586272Y-86263412D01*
X309419107Y-86267804D01*
X309380974Y-86264306D01*
X309243126Y-86259771D01*
X309144900Y-86279210D01*
X309103957Y-86316167D01*
X309127765Y-86356836D01*
X309154913Y-86384810D01*
X309131363Y-86398516D01*
X309040341Y-86403696D01*
X308988326Y-86404572D01*
X308852350Y-86394361D01*
X308801965Y-86362727D01*
X308836740Y-86315501D01*
X308956247Y-86258506D01*
X309000220Y-86243111D01*
X309135771Y-86202809D01*
X309235467Y-86181699D01*
X309267833Y-86181717D01*
X309331014Y-86189564D01*
X309350355Y-86159217D01*
X309324270Y-86129617D01*
X309254748Y-86047011D01*
X309250668Y-85956356D01*
X309307514Y-85889428D01*
X309360547Y-85874464D01*
G37*
G36*
X309145439Y-86470769D02*
G01*
X309131956Y-86499682D01*
X309103044Y-86486200D01*
X309116526Y-86457288D01*
X309145439Y-86470769D01*
G37*
G36*
X311369288Y-85853398D02*
G01*
X311429792Y-85892756D01*
X311435738Y-85904062D01*
X311417507Y-85954582D01*
X311407864Y-85959385D01*
X311358098Y-85938419D01*
X311341412Y-85908721D01*
X311345994Y-85857360D01*
X311369288Y-85853398D01*
G37*
G36*
X309195626Y-86740568D02*
G01*
X309182144Y-86769481D01*
X309153232Y-86755998D01*
X309166713Y-86727086D01*
X309195626Y-86740568D01*
G37*
G36*
X312420070Y-85040336D02*
G01*
X312461921Y-85086355D01*
X312513684Y-85191349D01*
X312564645Y-85326447D01*
X312604084Y-85462784D01*
X312621284Y-85571490D01*
X312621321Y-85582391D01*
X312608061Y-85646217D01*
X312558338Y-85636291D01*
X312548876Y-85630909D01*
X312478527Y-85559337D01*
X312419508Y-85446727D01*
X312376782Y-85315833D01*
X312355311Y-85189405D01*
X312360058Y-85090199D01*
X312395985Y-85040966D01*
X312420070Y-85040336D01*
G37*
G36*
X309005603Y-87185816D02*
G01*
X309028990Y-87234282D01*
X309026177Y-87242342D01*
X308998855Y-87245696D01*
X308987627Y-87224366D01*
X308990438Y-87183824D01*
X309005603Y-87185816D01*
G37*
G36*
X305603769Y-88479995D02*
G01*
X305590288Y-88508907D01*
X305561375Y-88495425D01*
X305574857Y-88466512D01*
X305603769Y-88479995D01*
G37*
G36*
X309351266Y-87059494D02*
G01*
X309390047Y-87077603D01*
X309453994Y-87123236D01*
X309454196Y-87150570D01*
X309382601Y-87143444D01*
X309333276Y-87121405D01*
X309270663Y-87069863D01*
X309281740Y-87045305D01*
X309351266Y-87059494D01*
G37*
G36*
X305626019Y-88582922D02*
G01*
X305655188Y-88647341D01*
X305652246Y-88665397D01*
X305628376Y-88659766D01*
X305609728Y-88617858D01*
X305603616Y-88568853D01*
X305626019Y-88582922D01*
G37*
G36*
X305731727Y-88740424D02*
G01*
X305777323Y-88824918D01*
X305798520Y-88928256D01*
X305773685Y-88965756D01*
X305715430Y-88927722D01*
X305688432Y-88893280D01*
X305628187Y-88798370D01*
X305621789Y-88749174D01*
X305666271Y-88721308D01*
X305667440Y-88720880D01*
X305731727Y-88740424D01*
G37*
G36*
X305920015Y-89085054D02*
G01*
X305906533Y-89113967D01*
X305877621Y-89100484D01*
X305891102Y-89071572D01*
X305920015Y-89085054D01*
G37*
G36*
X306022858Y-89279674D02*
G01*
X306046245Y-89328140D01*
X306043432Y-89336201D01*
X306016110Y-89339554D01*
X306004882Y-89318224D01*
X306007693Y-89277683D01*
X306022858Y-89279674D01*
G37*
G36*
X311056530Y-85309188D02*
G01*
X311106851Y-85354122D01*
X311131585Y-85427316D01*
X311085251Y-85500402D01*
X311058049Y-85525172D01*
X310989436Y-85588471D01*
X310990658Y-85615388D01*
X311062003Y-85627623D01*
X311183010Y-85680613D01*
X311245699Y-85794036D01*
X311250736Y-85863344D01*
X311264998Y-85956642D01*
X311305595Y-86085205D01*
X311319233Y-86119405D01*
X311360824Y-86252905D01*
X311348175Y-86339449D01*
X311332982Y-86361062D01*
X311288404Y-86468370D01*
X311309193Y-86619687D01*
X311336544Y-86697168D01*
X311352270Y-86809431D01*
X311337444Y-86876036D01*
X311330785Y-86979836D01*
X311357503Y-87041207D01*
X311388110Y-87104731D01*
X311349336Y-87123586D01*
X311335235Y-87123679D01*
X311275824Y-87146315D01*
X311277172Y-87183219D01*
X311319184Y-87214349D01*
X311363081Y-87188760D01*
X311394342Y-87176384D01*
X311377632Y-87236874D01*
X311358652Y-87279546D01*
X311252913Y-87440072D01*
X311126399Y-87516863D01*
X311034985Y-87520271D01*
X310924336Y-87515816D01*
X310871543Y-87523678D01*
X310769956Y-87526327D01*
X310607187Y-87502203D01*
X310406280Y-87456907D01*
X310190276Y-87396035D01*
X309982219Y-87325187D01*
X309872409Y-87280925D01*
X309736129Y-87217520D01*
X309652153Y-87169801D01*
X309634174Y-87145898D01*
X309642743Y-87144580D01*
X309705371Y-87121580D01*
X309704850Y-87084378D01*
X309677024Y-87045462D01*
X311045716Y-86547298D01*
X311074629Y-86560781D01*
X311088111Y-86531868D01*
X311059199Y-86518387D01*
X311045716Y-86547298D01*
X309677024Y-87045462D01*
X309655730Y-87015684D01*
X309553802Y-86911082D01*
X309418442Y-86788801D01*
X309269028Y-86667073D01*
X309229558Y-86637235D01*
X309103904Y-86543976D01*
X309314510Y-86501237D01*
X309469916Y-86462733D01*
X309651073Y-86407425D01*
X309837239Y-86343053D01*
X310007669Y-86277358D01*
X310141622Y-86218084D01*
X310218355Y-86172969D01*
X310228524Y-86160128D01*
X310273382Y-86074544D01*
X310355811Y-85970789D01*
X310450849Y-85875306D01*
X310533533Y-85814538D01*
X310563364Y-85805436D01*
X310607091Y-85792206D01*
X310595966Y-85774233D01*
X310599637Y-85737463D01*
X310658108Y-85704154D01*
X310746484Y-85645284D01*
X310797190Y-85563553D01*
X310793598Y-85490277D01*
X310779845Y-85474936D01*
X310773698Y-85426911D01*
X310836327Y-85366401D01*
X310950924Y-85309518D01*
X310953294Y-85308650D01*
X311056530Y-85309188D01*
G37*
G36*
X309766551Y-88309171D02*
G01*
X309753068Y-88338083D01*
X309724156Y-88324601D01*
X309737638Y-88295688D01*
X309766551Y-88309171D01*
G37*
G36*
X309828272Y-88478749D02*
G01*
X309814790Y-88507661D01*
X309785878Y-88494180D01*
X309799359Y-88465267D01*
X309828272Y-88478749D01*
G37*
G36*
X312121320Y-87657288D02*
G01*
X312125299Y-87666705D01*
X312107545Y-87719333D01*
X312095833Y-87725441D01*
X312061060Y-87708684D01*
X312061706Y-87689851D01*
X312085082Y-87635541D01*
X312091173Y-87631115D01*
X312121320Y-87657288D01*
G37*
G36*
X310023801Y-87514167D02*
G01*
X310187749Y-87545734D01*
X310279285Y-87574570D01*
X310492376Y-87646772D01*
X310729815Y-87727240D01*
X310888158Y-87780911D01*
X311032066Y-87834942D01*
X311128978Y-87881647D01*
X311160609Y-87912000D01*
X311158716Y-87914489D01*
X311141349Y-87975631D01*
X311151508Y-88025137D01*
X311156549Y-88103190D01*
X311111285Y-88118192D01*
X311054220Y-88075104D01*
X310979126Y-88046495D01*
X310926321Y-88069315D01*
X310835299Y-88088984D01*
X310767235Y-88048645D01*
X310747612Y-88029246D01*
X310808819Y-88006969D01*
X310836536Y-88037133D01*
X310871577Y-87983337D01*
X310884694Y-87949111D01*
X310898898Y-87891891D01*
X310866534Y-87907191D01*
X310854908Y-87917078D01*
X310810256Y-87980218D01*
X310808819Y-88006969D01*
X310747612Y-88029246D01*
X310705681Y-87987798D01*
X310688211Y-87961711D01*
X310669135Y-87906654D01*
X310578136Y-87897079D01*
X310512448Y-87908940D01*
X310421239Y-87938887D01*
X310390595Y-87966661D01*
X310393793Y-87970880D01*
X310396726Y-88002242D01*
X310340005Y-88022337D01*
X310254186Y-88021861D01*
X310236936Y-88018638D01*
X310199191Y-87997502D01*
X310233640Y-87957839D01*
X310270730Y-87933621D01*
X310510328Y-87846414D01*
X310539240Y-87859897D01*
X310552722Y-87830984D01*
X310523809Y-87817502D01*
X310510328Y-87846414D01*
X310270730Y-87933621D01*
X310287824Y-87922459D01*
X310369957Y-87850954D01*
X310377561Y-87799077D01*
X310319245Y-87786959D01*
X310241459Y-87814062D01*
X310157184Y-87837855D01*
X310116708Y-87820224D01*
X310073675Y-87804695D01*
X310022033Y-87833163D01*
X309966372Y-87863740D01*
X309932931Y-87832185D01*
X309915400Y-87774885D01*
X310205771Y-87669198D01*
X310234684Y-87682681D01*
X310248167Y-87653768D01*
X310219254Y-87640285D01*
X310205771Y-87669198D01*
X309915400Y-87774885D01*
X309908005Y-87750713D01*
X309899535Y-87685579D01*
X310015638Y-87643321D01*
X310076231Y-87676692D01*
X310120960Y-87676061D01*
X310129233Y-87645619D01*
X310088899Y-87614555D01*
X310020882Y-87588981D01*
X309999414Y-87595919D01*
X310015638Y-87643321D01*
X309899535Y-87685579D01*
X309890186Y-87613687D01*
X309926699Y-87535828D01*
X310023801Y-87514167D01*
G37*
G36*
X310992095Y-88116303D02*
G01*
X310996073Y-88125721D01*
X310978320Y-88178347D01*
X310966607Y-88184456D01*
X310931835Y-88167699D01*
X310932482Y-88148866D01*
X310955857Y-88094556D01*
X310961948Y-88090130D01*
X310992095Y-88116303D01*
G37*
G36*
X310730019Y-88866118D02*
G01*
X310789518Y-88889093D01*
X310796778Y-88897248D01*
X310783001Y-88921996D01*
X310726901Y-88898198D01*
X310718127Y-88891618D01*
X310702572Y-88864426D01*
X310730019Y-88866118D01*
G37*
G36*
X311058394Y-88670888D02*
G01*
X311119716Y-88741024D01*
X311132237Y-88806743D01*
X311124086Y-88845094D01*
X311107550Y-88817311D01*
X311053977Y-88793812D01*
X310957731Y-88811828D01*
X310864362Y-88833201D01*
X310816739Y-88820153D01*
X310816561Y-88819693D01*
X310842993Y-88786338D01*
X310902695Y-88771900D01*
X310968291Y-88753990D01*
X310954626Y-88724499D01*
X310943244Y-88681192D01*
X310973860Y-88661925D01*
X311058394Y-88670888D01*
G37*
G36*
X310595584Y-89399742D02*
G01*
X310582102Y-89428655D01*
X310553190Y-89415172D01*
X310566671Y-89386260D01*
X310595584Y-89399742D01*
G37*
G36*
X312981374Y-88963483D02*
G01*
X312967892Y-88992396D01*
X312938980Y-88978913D01*
X312952461Y-88950001D01*
X312981374Y-88963483D01*
G37*
G36*
X311777621Y-89393612D02*
G01*
X311801006Y-89442077D01*
X311798195Y-89450138D01*
X311770873Y-89453492D01*
X311759645Y-89432162D01*
X311762455Y-89391621D01*
X311777621Y-89393612D01*
G37*
G36*
X312650166Y-89900218D02*
G01*
X312636683Y-89929130D01*
X312607771Y-89915649D01*
X312621253Y-89886736D01*
X312650166Y-89900218D01*
G37*
G36*
X312145327Y-90227997D02*
G01*
X312131844Y-90256910D01*
X312102931Y-90243427D01*
X312116414Y-90214514D01*
X312145327Y-90227997D01*
G37*
G36*
X312557739Y-90173913D02*
G01*
X312544257Y-90202826D01*
X312515345Y-90189343D01*
X312528826Y-90160430D01*
X312557739Y-90173913D01*
G37*
G36*
X311293693Y-90922053D02*
G01*
X311280210Y-90950965D01*
X311251298Y-90937484D01*
X311264780Y-90908571D01*
X311293693Y-90922053D01*
G37*
G36*
X311185676Y-91022519D02*
G01*
X311189654Y-91031937D01*
X311171901Y-91084564D01*
X311160188Y-91090672D01*
X311125415Y-91073915D01*
X311126062Y-91055082D01*
X311149438Y-91000772D01*
X311155528Y-90996346D01*
X311185676Y-91022519D01*
G37*
G36*
X311559750Y-91257314D02*
G01*
X311546268Y-91286226D01*
X311517355Y-91272745D01*
X311530837Y-91243832D01*
X311559750Y-91257314D01*
G37*
G36*
X310117059Y-91822420D02*
G01*
X310120413Y-91849741D01*
X310099083Y-91860970D01*
X310058541Y-91858159D01*
X310060532Y-91842994D01*
X310108999Y-91819607D01*
X310117059Y-91822420D01*
G37*
G36*
X310276377Y-91820446D02*
G01*
X310262894Y-91849358D01*
X310233981Y-91835876D01*
X310247464Y-91806963D01*
X310276377Y-91820446D01*
G37*
G36*
X309979614Y-91928458D02*
G01*
X309966132Y-91957370D01*
X309937219Y-91943889D01*
X309950701Y-91914976D01*
X309979614Y-91928458D01*
G37*
G36*
X310418991Y-91816549D02*
G01*
X310405508Y-91845462D01*
X310376596Y-91831979D01*
X310390078Y-91803067D01*
X310418991Y-91816549D01*
G37*
G36*
X311451893Y-91488615D02*
G01*
X311438410Y-91517526D01*
X311409499Y-91504045D01*
X311422980Y-91475132D01*
X311451893Y-91488615D01*
G37*
G36*
X311382534Y-91561870D02*
G01*
X311369052Y-91590782D01*
X311340140Y-91577300D01*
X311353621Y-91548387D01*
X311382534Y-91561870D01*
G37*
G36*
X310862420Y-92375317D02*
G01*
X310848938Y-92404230D01*
X310820025Y-92390747D01*
X310833508Y-92361834D01*
X310862420Y-92375317D01*
G37*
G36*
X309733194Y-92834332D02*
G01*
X309719713Y-92863244D01*
X309690800Y-92849762D01*
X309704283Y-92820850D01*
X309733194Y-92834332D01*
G37*
G36*
X309582451Y-93354539D02*
G01*
X309750444Y-93310428D01*
X309942682Y-93261630D01*
X310125199Y-93213469D01*
X310260011Y-93175981D01*
X310265093Y-93174485D01*
X310409853Y-93132354D01*
X310484105Y-93114787D01*
X310503840Y-93120667D01*
X310485051Y-93148881D01*
X310475790Y-93159782D01*
X310401184Y-93215908D01*
X310269896Y-93287212D01*
X310103970Y-93364611D01*
X309925451Y-93439023D01*
X309756388Y-93501366D01*
X309618823Y-93542557D01*
X309534803Y-93553513D01*
X309525971Y-93551098D01*
X309450626Y-93489109D01*
X309431373Y-93456081D01*
X309433684Y-93421482D01*
X309478907Y-93389979D01*
X309582451Y-93354539D01*
G37*
G36*
X310194650Y-78838116D02*
G01*
X310365954Y-78809334D01*
X310493546Y-78792313D01*
X310699765Y-78764978D01*
X310890162Y-78738034D01*
X311034244Y-78715857D01*
X311073476Y-78709043D01*
X311210807Y-78694207D01*
X311387290Y-78688699D01*
X311486873Y-78690639D01*
X311742883Y-78701499D01*
X314840014Y-87210797D01*
X314611030Y-87168886D01*
X314478522Y-87151086D01*
X314362796Y-87156799D01*
X314230513Y-87191235D01*
X314059997Y-87254957D01*
X313737945Y-87382937D01*
X313508743Y-87230748D01*
X313279540Y-87078557D01*
X313363243Y-87384168D01*
X313406857Y-87556932D01*
X313439261Y-87710605D01*
X313452998Y-87807603D01*
X313457312Y-88070765D01*
X313446733Y-88354716D01*
X313423579Y-88633105D01*
X313390173Y-88879587D01*
X313348833Y-89067813D01*
X313339450Y-89097214D01*
X313318521Y-89183903D01*
X313292621Y-89326803D01*
X313270970Y-89469762D01*
X313245321Y-89609588D01*
X313216477Y-89697728D01*
X313190664Y-89715198D01*
X313190557Y-89715079D01*
X313167429Y-89708972D01*
X313174467Y-89747404D01*
X313175929Y-89845474D01*
X313149954Y-89939733D01*
X313122957Y-90056870D01*
X313114545Y-90210391D01*
X313116848Y-90260975D01*
X313116121Y-90385004D01*
X313094445Y-90450927D01*
X313079087Y-90455976D01*
X313055919Y-90465019D01*
X313072120Y-90481589D01*
X313094397Y-90550292D01*
X313092507Y-90693406D01*
X313067659Y-90898751D01*
X313021065Y-91154150D01*
X312991965Y-91288155D01*
X312951197Y-91451968D01*
X312924204Y-91527492D01*
X312911850Y-91515740D01*
X312914998Y-91417723D01*
X312934513Y-91234455D01*
X312936000Y-91222539D01*
X312955931Y-91033390D01*
X312971086Y-90831055D01*
X312980729Y-90636105D01*
X312984119Y-90469108D01*
X312980520Y-90350633D01*
X312969193Y-90301248D01*
X312969064Y-90301185D01*
X312952940Y-90336268D01*
X312933444Y-90438294D01*
X312916622Y-90569338D01*
X312895844Y-90723017D01*
X312871784Y-90840921D01*
X312853206Y-90890904D01*
X312829880Y-90898861D01*
X312831874Y-90873733D01*
X312828610Y-90824961D01*
X312818836Y-90823049D01*
X312795102Y-90874331D01*
X312776292Y-90996113D01*
X312762736Y-91168778D01*
X312754768Y-91372713D01*
X312752720Y-91588303D01*
X312756923Y-91795933D01*
X312767711Y-91975987D01*
X312785414Y-92108851D01*
X312796375Y-92149859D01*
X312813120Y-92245488D01*
X312823431Y-92407623D01*
X312826396Y-92612709D01*
X312822053Y-92813996D01*
X312815507Y-93028203D01*
X312813194Y-93211322D01*
X312815148Y-93343403D01*
X312821061Y-93403652D01*
X312810550Y-93425460D01*
X312761257Y-93457600D01*
X312665813Y-93503086D01*
X312516853Y-93564933D01*
X312307007Y-93646157D01*
X312028908Y-93749776D01*
X311675189Y-93878803D01*
X311546598Y-93925310D01*
X310252367Y-94392655D01*
X310217089Y-94295729D01*
X310141968Y-94211422D01*
X310058248Y-94189090D01*
X309950020Y-94160300D01*
X309916226Y-94091301D01*
X309954032Y-93973618D01*
X309972164Y-93939624D01*
X310257698Y-93835698D01*
X310272691Y-93858783D01*
X310296248Y-93853674D01*
X310325498Y-93825461D01*
X310314224Y-93815124D01*
X310262066Y-93828363D01*
X310257698Y-93835698D01*
X309972164Y-93939624D01*
X309973800Y-93936556D01*
X310020956Y-93846638D01*
X310019888Y-93816602D01*
X309968677Y-93828884D01*
X309962291Y-93831192D01*
X309867553Y-93845980D01*
X309831302Y-93814532D01*
X309867812Y-93753312D01*
X309883418Y-93740241D01*
X309935745Y-93692820D01*
X309913237Y-93680722D01*
X309885822Y-93682377D01*
X309801333Y-93678608D01*
X309794298Y-93649234D01*
X309857723Y-93600423D01*
X309984611Y-93538347D01*
X310100908Y-93492674D01*
X310307978Y-93409266D01*
X310525066Y-93309291D01*
X310686652Y-93224598D01*
X310843408Y-93125523D01*
X310940878Y-93035816D01*
X311003580Y-92931388D01*
X311016571Y-92900471D01*
X311061744Y-92788540D01*
X311099803Y-92702465D01*
X311117679Y-92666496D01*
X312554465Y-92143549D01*
X312583378Y-92157031D01*
X312596860Y-92128118D01*
X312567948Y-92114637D01*
X312554465Y-92143549D01*
X311117679Y-92666496D01*
X311147688Y-92606118D01*
X311162247Y-92578259D01*
X312616109Y-92049096D01*
X312644321Y-92078346D01*
X312654659Y-92067073D01*
X312641421Y-92014914D01*
X312634085Y-92010546D01*
X312611000Y-92025539D01*
X312616109Y-92049096D01*
X311162247Y-92578259D01*
X311215064Y-92477199D01*
X311237961Y-92422672D01*
X311698805Y-92254939D01*
X311713798Y-92278024D01*
X311737355Y-92272915D01*
X311766605Y-92244702D01*
X311755331Y-92234365D01*
X311703173Y-92247604D01*
X311698805Y-92254939D01*
X311237961Y-92422672D01*
X311263416Y-92362055D01*
X311263558Y-92302887D01*
X311218993Y-92309347D01*
X311169480Y-92351516D01*
X311124359Y-92416926D01*
X311137894Y-92448516D01*
X311171921Y-92476064D01*
X311142807Y-92514631D01*
X311071809Y-92543320D01*
X311037381Y-92547318D01*
X310982322Y-92553187D01*
X311015466Y-92568677D01*
X311030384Y-92572978D01*
X311072190Y-92594320D01*
X311036576Y-92621676D01*
X310989741Y-92640311D01*
X310909719Y-92682049D01*
X310907655Y-92727596D01*
X310919934Y-92743816D01*
X310940909Y-92791234D01*
X310897989Y-92801321D01*
X310841970Y-92818450D01*
X310838558Y-92837392D01*
X310814620Y-92893181D01*
X310713302Y-92953805D01*
X310546968Y-93014688D01*
X310327975Y-93071255D01*
X310084430Y-93116518D01*
X309881971Y-93149351D01*
X309707983Y-93180174D01*
X309584982Y-93204853D01*
X309541259Y-93216262D01*
X309454367Y-93215213D01*
X309401232Y-93195211D01*
X310446267Y-92814850D01*
X310475179Y-92828331D01*
X310488661Y-92799420D01*
X310459749Y-92785937D01*
X310446267Y-92814850D01*
X309401232Y-93195211D01*
X309348848Y-93175492D01*
X309257508Y-93115000D01*
X309213153Y-93051639D01*
X309213283Y-93037293D01*
X309202146Y-93007549D01*
X309163871Y-93032309D01*
X309119289Y-93059163D01*
X309113088Y-93013826D01*
X309116524Y-92986765D01*
X309118466Y-92918830D01*
X309087605Y-92925451D01*
X309080196Y-92931645D01*
X309022624Y-92930435D01*
X308926423Y-92855936D01*
X308846132Y-92772351D01*
X308758799Y-92682035D01*
X309655054Y-92355825D01*
X309701542Y-92387795D01*
X309713790Y-92385291D01*
X309749818Y-92355798D01*
X309749380Y-92351166D01*
X309706498Y-92325783D01*
X309690644Y-92321699D01*
X309652801Y-92339280D01*
X309655054Y-92355825D01*
X308758799Y-92682035D01*
X308748580Y-92671467D01*
X308679864Y-92625673D01*
X308634347Y-92642137D01*
X308606389Y-92728024D01*
X308590354Y-92890500D01*
X308581434Y-93108804D01*
X308598421Y-93503122D01*
X308679815Y-93848198D01*
X308832378Y-94164203D01*
X309022205Y-94423997D01*
X309133988Y-94558247D01*
X309220371Y-94664387D01*
X309267244Y-94724991D01*
X309271661Y-94732090D01*
X309234240Y-94753583D01*
X309126303Y-94799550D01*
X308962338Y-94864197D01*
X308756830Y-94941730D01*
X308643013Y-94983522D01*
X308421068Y-95062306D01*
X308231493Y-95125803D01*
X308089174Y-95169324D01*
X308009002Y-95188186D01*
X307996874Y-95186904D01*
X307991909Y-95132986D01*
X307986296Y-95008399D01*
X307980781Y-94832694D01*
X307976772Y-94660063D01*
X307966887Y-94161296D01*
X307761966Y-94088738D01*
X307513856Y-93971555D01*
X307305897Y-93816301D01*
X307157834Y-93639532D01*
X307110253Y-93542384D01*
X307056941Y-93428108D01*
X307002230Y-93358433D01*
X306986361Y-93350301D01*
X306913625Y-93307307D01*
X306828503Y-93231928D01*
X309709161Y-92183454D01*
X309753304Y-92175076D01*
X309805453Y-92147268D01*
X309800843Y-92132556D01*
X309740419Y-92143089D01*
X309718368Y-92158785D01*
X309709161Y-92183454D01*
X306828503Y-93231928D01*
X306807132Y-93213004D01*
X306686616Y-93088743D01*
X306585539Y-92971757D01*
X309621130Y-91866892D01*
X309650042Y-91880375D01*
X309663524Y-91851462D01*
X309634611Y-91837980D01*
X309621130Y-91866892D01*
X306585539Y-92971757D01*
X306571816Y-92955876D01*
X306551249Y-92928225D01*
X309108524Y-91997453D01*
X309123516Y-92020538D01*
X309147074Y-92015429D01*
X309176323Y-91987217D01*
X309165049Y-91976879D01*
X309112890Y-91990118D01*
X309108524Y-91997453D01*
X306551249Y-92928225D01*
X306482468Y-92835758D01*
X306441835Y-92761193D01*
X306429342Y-92602511D01*
X306437951Y-92572298D01*
X308445050Y-91841774D01*
X308482002Y-91920780D01*
X308559950Y-91942004D01*
X308693056Y-91925826D01*
X308802989Y-91875804D01*
X308860215Y-91807036D01*
X308862798Y-91787174D01*
X308841120Y-91748457D01*
X308805433Y-91768306D01*
X308746029Y-91777372D01*
X308662579Y-91714496D01*
X308739312Y-91686567D01*
X308785752Y-91713549D01*
X308796226Y-91711029D01*
X308820873Y-91662980D01*
X308814565Y-91629505D01*
X308778041Y-91593104D01*
X308757650Y-91605042D01*
X308736600Y-91674085D01*
X308739312Y-91686567D01*
X308662579Y-91714496D01*
X308661067Y-91713357D01*
X308624327Y-91673835D01*
X308539561Y-91595270D01*
X308467249Y-91554499D01*
X308425243Y-91554989D01*
X308431392Y-91600200D01*
X308458940Y-91641748D01*
X308488922Y-91706847D01*
X308476404Y-91731413D01*
X308447684Y-91781958D01*
X308445050Y-91841774D01*
X306437951Y-92572298D01*
X306480809Y-92421880D01*
X306566368Y-92210561D01*
X306479254Y-92148371D01*
X307622647Y-91732210D01*
X307653183Y-91795168D01*
X307653981Y-91795812D01*
X307705854Y-91804719D01*
X307729181Y-91752759D01*
X307712647Y-91672377D01*
X307670268Y-91610138D01*
X307661661Y-91606849D01*
X308060881Y-91461545D01*
X308087703Y-91487249D01*
X308130718Y-91501516D01*
X308234768Y-91512326D01*
X308333867Y-91492124D01*
X308395984Y-91450905D01*
X308401186Y-91417115D01*
X308357023Y-91400180D01*
X308307237Y-91422810D01*
X308235742Y-91445600D01*
X308210261Y-91420189D01*
X308164110Y-91394264D01*
X308112392Y-91418187D01*
X308060881Y-91461545D01*
X307661661Y-91606849D01*
X307646929Y-91601220D01*
X307619937Y-91650317D01*
X307622647Y-91732210D01*
X306479254Y-92148371D01*
X306411725Y-92100164D01*
X306311159Y-92020686D01*
X306304423Y-92013834D01*
X307418357Y-91608396D01*
X307446165Y-91660546D01*
X307460876Y-91655934D01*
X307450345Y-91595510D01*
X307434648Y-91573460D01*
X307409979Y-91564253D01*
X307418357Y-91608396D01*
X306304423Y-92013834D01*
X306247834Y-91956276D01*
X306240019Y-91942891D01*
X306260100Y-91891807D01*
X306327170Y-91785541D01*
X306339788Y-91767742D01*
X307404925Y-91380064D01*
X307444417Y-91458879D01*
X307510321Y-91534210D01*
X307562660Y-91529248D01*
X307584009Y-91479720D01*
X307574817Y-91459429D01*
X307978961Y-91312332D01*
X308007873Y-91325815D01*
X308021355Y-91296902D01*
X307992443Y-91283419D01*
X307978961Y-91312332D01*
X307574817Y-91459429D01*
X307557464Y-91421126D01*
X307546703Y-91413648D01*
X307763116Y-91334880D01*
X307778109Y-91357966D01*
X307801666Y-91352856D01*
X307830916Y-91324644D01*
X307819643Y-91314306D01*
X307767484Y-91327545D01*
X307763116Y-91334880D01*
X307546703Y-91413648D01*
X307508569Y-91387151D01*
X307422224Y-91355460D01*
X307404925Y-91380064D01*
X306339788Y-91767742D01*
X306431177Y-91638826D01*
X306509999Y-91534990D01*
X307676171Y-91110538D01*
X307712180Y-91162230D01*
X307770042Y-91194358D01*
X307795094Y-91182660D01*
X307789441Y-91130330D01*
X307753464Y-91100906D01*
X307682975Y-91076091D01*
X307676171Y-91110538D01*
X306509999Y-91534990D01*
X306562069Y-91466395D01*
X306585165Y-91436987D01*
X306752384Y-91221313D01*
X306860941Y-91072201D01*
X306911580Y-90988295D01*
X306905045Y-90968242D01*
X306842081Y-91010688D01*
X306800107Y-91045859D01*
X306697811Y-91113054D01*
X306616004Y-91131137D01*
X306575912Y-91098118D01*
X306576979Y-91066780D01*
X306581700Y-90979376D01*
X306577752Y-90958135D01*
X306571991Y-90935296D01*
X307144800Y-90726811D01*
X307179439Y-90782047D01*
X307269149Y-90868543D01*
X307280881Y-90878349D01*
X307362086Y-90934706D01*
X307391203Y-90924124D01*
X307390453Y-90905925D01*
X307347318Y-90834195D01*
X307277592Y-90775430D01*
X309653316Y-89910738D01*
X309680810Y-89934733D01*
X309767787Y-89917061D01*
X309772231Y-89915466D01*
X309858217Y-89870511D01*
X309886870Y-89827082D01*
X309886486Y-89825870D01*
X309950078Y-89802725D01*
X309974973Y-89831808D01*
X310024096Y-89823795D01*
X310099409Y-89774959D01*
X310119657Y-89741003D01*
X310094764Y-89711919D01*
X310045639Y-89719932D01*
X309970327Y-89768769D01*
X309950078Y-89802725D01*
X309886486Y-89825870D01*
X309838584Y-89806901D01*
X309767571Y-89821140D01*
X309683495Y-89869444D01*
X309653316Y-89910738D01*
X307277592Y-90775430D01*
X307257217Y-90758258D01*
X307251335Y-90754543D01*
X307167882Y-90713942D01*
X307144800Y-90726811D01*
X306571991Y-90935296D01*
X306549273Y-90845218D01*
X306518100Y-90691606D01*
X306487925Y-90520507D01*
X306462439Y-90355128D01*
X306445335Y-90218676D01*
X306440304Y-90134360D01*
X306444191Y-90118546D01*
X306488935Y-90142587D01*
X306579627Y-90216854D01*
X306699177Y-90327013D01*
X306739568Y-90366349D01*
X306868448Y-90488492D01*
X306977552Y-90582869D01*
X307047897Y-90633323D01*
X307058007Y-90637366D01*
X307101526Y-90633954D01*
X307077581Y-90588315D01*
X306990180Y-90501076D01*
X306892407Y-90388948D01*
X306803753Y-90250213D01*
X306736147Y-90109496D01*
X306701522Y-89991415D01*
X306709949Y-89922751D01*
X306730736Y-89872950D01*
X306711520Y-89861302D01*
X306813215Y-89824288D01*
X306860881Y-89874649D01*
X306955542Y-89931636D01*
X307072440Y-89985290D01*
X307186822Y-90025654D01*
X307273927Y-90042771D01*
X307309003Y-90026683D01*
X307308814Y-90023623D01*
X307334365Y-89944663D01*
X307365556Y-89915702D01*
X307454097Y-89888812D01*
X307579882Y-89879591D01*
X307589611Y-89879856D01*
X307697628Y-89873172D01*
X307732926Y-89845802D01*
X307732048Y-89842492D01*
X307732301Y-89841756D01*
X308452550Y-89579607D01*
X308480762Y-89608857D01*
X308491100Y-89597583D01*
X308477862Y-89545423D01*
X308470526Y-89541057D01*
X308447440Y-89556050D01*
X308452550Y-89579607D01*
X307732301Y-89841756D01*
X307750203Y-89789757D01*
X307764729Y-89781942D01*
X307816150Y-89728963D01*
X307843818Y-89669137D01*
X307867373Y-89602984D01*
X307874807Y-89619252D01*
X307875751Y-89657514D01*
X307895797Y-89719302D01*
X307921040Y-89725049D01*
X307934679Y-89680217D01*
X307907652Y-89610484D01*
X307880756Y-89500810D01*
X307879428Y-89313413D01*
X307897164Y-89111254D01*
X307916143Y-88926210D01*
X307926816Y-88772989D01*
X307927737Y-88675354D01*
X307924818Y-88656499D01*
X307917323Y-88577087D01*
X307925565Y-88458227D01*
X307926575Y-88450748D01*
X307941948Y-88304313D01*
X307948181Y-88178824D01*
X307944291Y-88118312D01*
X307926924Y-88124625D01*
X307888630Y-88205141D01*
X307865319Y-88260904D01*
X307806985Y-88432545D01*
X307763916Y-88611984D01*
X307756732Y-88657411D01*
X307729847Y-88805765D01*
X307694517Y-88932313D01*
X307685294Y-88955564D01*
X307657245Y-89057206D01*
X307660008Y-89116933D01*
X307654453Y-89199057D01*
X307610581Y-89327713D01*
X307541908Y-89475573D01*
X307461954Y-89615309D01*
X307384235Y-89719595D01*
X307345285Y-89753202D01*
X307265518Y-89786624D01*
X307228602Y-89778375D01*
X307182497Y-89757506D01*
X307157437Y-89762924D01*
X307076259Y-89764608D01*
X306963180Y-89739179D01*
X306848192Y-89718697D01*
X306802149Y-89755931D01*
X306813215Y-89824288D01*
X306711520Y-89861302D01*
X306677719Y-89840814D01*
X306664038Y-89836378D01*
X306614659Y-89811080D01*
X306576529Y-89758438D01*
X306547840Y-89679130D01*
X306650730Y-89641681D01*
X306694258Y-89696236D01*
X306744956Y-89705204D01*
X306757707Y-89691565D01*
X306736003Y-89650139D01*
X306703212Y-89629781D01*
X306651831Y-89621417D01*
X306650730Y-89641681D01*
X306547840Y-89679130D01*
X306540517Y-89658884D01*
X306497487Y-89492854D01*
X306490988Y-89465730D01*
X306419012Y-89224545D01*
X306332952Y-89033994D01*
X306240549Y-88908955D01*
X306181123Y-88869991D01*
X306136549Y-88828173D01*
X306062419Y-88736844D01*
X305978203Y-88622241D01*
X305903372Y-88510603D01*
X305864475Y-88443318D01*
X305791679Y-88370476D01*
X305749624Y-88353090D01*
X305693106Y-88329345D01*
X305713113Y-88279338D01*
X305719578Y-88270541D01*
X305745454Y-88223683D01*
X305701107Y-88229451D01*
X305689580Y-88233448D01*
X305603305Y-88223830D01*
X305558449Y-88184959D01*
X305505079Y-88138602D01*
X305477085Y-88144944D01*
X305451676Y-88132963D01*
X305429122Y-88054443D01*
X305428101Y-88048028D01*
X305397973Y-87950007D01*
X305355456Y-87903996D01*
X305310355Y-87856194D01*
X305301360Y-87821889D01*
X305356883Y-87801680D01*
X305385796Y-87815163D01*
X305399278Y-87786250D01*
X305370366Y-87772767D01*
X305356883Y-87801680D01*
X305301360Y-87821889D01*
X305293806Y-87793077D01*
X305287997Y-87769455D01*
X305562892Y-87669402D01*
X305590121Y-87693037D01*
X305675498Y-87704234D01*
X305802786Y-87688989D01*
X305842494Y-87679638D01*
X305967801Y-87651378D01*
X306057637Y-87639963D01*
X306072522Y-87640923D01*
X306115103Y-87672276D01*
X306091069Y-87718413D01*
X306016500Y-87758007D01*
X305977472Y-87767026D01*
X305855392Y-87786280D01*
X305978979Y-87796061D01*
X306121414Y-87807777D01*
X306217437Y-87816072D01*
X306320191Y-87804711D01*
X306345825Y-87773090D01*
X306384506Y-87708398D01*
X306462837Y-87616345D01*
X306482373Y-87596216D01*
X306576999Y-87475159D01*
X306642618Y-87346001D01*
X306646107Y-87335077D01*
X306647341Y-87331992D01*
X306713513Y-87307908D01*
X306742425Y-87321390D01*
X306755907Y-87292477D01*
X306726994Y-87278995D01*
X306713513Y-87307908D01*
X306647341Y-87331992D01*
X306692562Y-87218882D01*
X306742380Y-87188036D01*
X306803773Y-87237788D01*
X306807012Y-87241940D01*
X306854115Y-87278176D01*
X306925861Y-87272683D01*
X307048121Y-87223196D01*
X307054418Y-87220273D01*
X307173198Y-87176901D01*
X307222883Y-87183069D01*
X307197780Y-87231807D01*
X307118060Y-87298170D01*
X307103250Y-87314840D01*
X307156205Y-87292190D01*
X307193050Y-87273361D01*
X307292936Y-87231852D01*
X307353036Y-87227421D01*
X307358587Y-87233512D01*
X307337835Y-87289730D01*
X307265475Y-87379516D01*
X307161770Y-87481886D01*
X307046982Y-87575852D01*
X306992481Y-87612685D01*
X306918668Y-87673177D01*
X306901829Y-87719788D01*
X306902747Y-87721109D01*
X306892882Y-87770847D01*
X306842790Y-87820196D01*
X306786307Y-87864209D01*
X306804749Y-87867307D01*
X306842731Y-87856226D01*
X306924340Y-87813630D01*
X307043932Y-87731810D01*
X307140909Y-87656462D01*
X307259615Y-87561967D01*
X307314797Y-87521156D01*
X307954648Y-87288269D01*
X307983560Y-87301752D01*
X307997042Y-87272839D01*
X307968129Y-87259357D01*
X307954648Y-87288269D01*
X307314797Y-87521156D01*
X307352371Y-87493367D01*
X307391983Y-87469057D01*
X307455283Y-87430213D01*
X307517243Y-87381207D01*
X307596764Y-87318816D01*
X307638932Y-87293005D01*
X307680027Y-87238704D01*
X307700386Y-87150942D01*
X307695695Y-87106458D01*
X307651583Y-87090545D01*
X307621179Y-87097570D01*
X307556349Y-87094215D01*
X307537378Y-87042037D01*
X307568370Y-86972202D01*
X307600768Y-86942562D01*
X307655006Y-86893997D01*
X307631257Y-86866637D01*
X307606164Y-86858453D01*
X307557070Y-86839970D01*
X307595987Y-86832816D01*
X307612514Y-86832137D01*
X307705212Y-86822729D01*
X307738270Y-86814899D01*
X307785339Y-86836713D01*
X307800343Y-86864322D01*
X307854736Y-86908177D01*
X307887081Y-86904769D01*
X307924320Y-86889106D01*
X307936545Y-86865570D01*
X307917140Y-86817425D01*
X307859484Y-86727938D01*
X307761162Y-86586396D01*
X307667462Y-86456102D01*
X307603306Y-86387295D01*
X307547610Y-86366767D01*
X307479294Y-86381313D01*
X307450216Y-86391622D01*
X307351618Y-86414742D01*
X307297092Y-86403438D01*
X307295270Y-86400008D01*
X307257811Y-86371415D01*
X307249871Y-86374206D01*
X307158669Y-86403574D01*
X307108850Y-86357013D01*
X307092875Y-86290944D01*
X307061883Y-86196888D01*
X307117898Y-86176500D01*
X307146111Y-86205750D01*
X307156448Y-86194477D01*
X307149011Y-86165176D01*
X308432133Y-85698158D01*
X308460346Y-85727408D01*
X308470683Y-85716134D01*
X308457444Y-85663974D01*
X308450109Y-85659608D01*
X308427023Y-85674601D01*
X308432133Y-85698158D01*
X307149011Y-86165176D01*
X307143210Y-86142317D01*
X307135874Y-86137950D01*
X307112789Y-86152943D01*
X307117898Y-86176500D01*
X307061883Y-86196888D01*
X307059803Y-86190574D01*
X306992139Y-86136511D01*
X306880627Y-86129115D01*
X306716014Y-86168746D01*
X306489042Y-86255765D01*
X306342691Y-86320137D01*
X306250717Y-86371325D01*
X306242847Y-86402609D01*
X306254287Y-86407022D01*
X306258452Y-86427751D01*
X306184767Y-86461729D01*
X306117820Y-86483097D01*
X306006177Y-86521994D01*
X305948253Y-86555022D01*
X305947021Y-86566656D01*
X305945633Y-86600925D01*
X305931302Y-86608386D01*
X305873453Y-86649039D01*
X305782278Y-86731662D01*
X305739640Y-86774223D01*
X305640689Y-86865853D01*
X305576220Y-86895614D01*
X305538510Y-86883437D01*
X305513307Y-86877724D01*
X305543648Y-86929522D01*
X305576089Y-87005377D01*
X305555410Y-87033265D01*
X305535464Y-87075188D01*
X305552156Y-87104928D01*
X305576470Y-87173392D01*
X305567145Y-87198436D01*
X305565181Y-87264560D01*
X305616334Y-87354348D01*
X305699920Y-87439559D01*
X305777807Y-87486070D01*
X305865199Y-87527752D01*
X305874228Y-87560387D01*
X305800682Y-87591858D01*
X305708988Y-87614879D01*
X305596963Y-87644959D01*
X305562892Y-87669402D01*
X305287997Y-87769455D01*
X305277729Y-87727693D01*
X305243880Y-87744482D01*
X305240825Y-87748268D01*
X305206552Y-87771696D01*
X305198671Y-87719182D01*
X305192458Y-87625885D01*
X305185054Y-87593401D01*
X305198603Y-87559416D01*
X305208905Y-87560000D01*
X305217354Y-87526245D01*
X305198795Y-87430653D01*
X305169102Y-87330815D01*
X305163059Y-87308304D01*
X305302827Y-87257433D01*
X305348835Y-87319267D01*
X305434936Y-87398979D01*
X305532846Y-87474171D01*
X305614283Y-87522443D01*
X305645313Y-87528663D01*
X305644628Y-87491647D01*
X305591677Y-87420783D01*
X305588397Y-87417348D01*
X305500920Y-87339755D01*
X305408979Y-87276738D01*
X305334907Y-87240802D01*
X305301038Y-87244456D01*
X305302827Y-87257433D01*
X305163059Y-87308304D01*
X305136591Y-87209707D01*
X305225647Y-87177294D01*
X305254560Y-87190776D01*
X305402941Y-87136770D01*
X305431153Y-87166019D01*
X305441491Y-87154746D01*
X305428252Y-87102587D01*
X305420917Y-87098220D01*
X305397832Y-87113212D01*
X305402941Y-87136770D01*
X305254560Y-87190776D01*
X305268042Y-87161863D01*
X305239130Y-87148382D01*
X305225647Y-87177294D01*
X305136591Y-87209707D01*
X305131783Y-87191791D01*
X305119181Y-87085382D01*
X305127369Y-87046721D01*
X305127544Y-86989654D01*
X305100041Y-86874758D01*
X305052721Y-86723272D01*
X304993445Y-86556426D01*
X304930076Y-86395458D01*
X304870475Y-86261601D01*
X304822503Y-86176090D01*
X304797872Y-86156725D01*
X304756912Y-86131114D01*
X304730063Y-86079506D01*
X304699280Y-86020722D01*
X304664174Y-86046173D01*
X304646760Y-86073817D01*
X304610038Y-86128196D01*
X304605292Y-86105180D01*
X304608846Y-86081492D01*
X304635552Y-85971172D01*
X304651519Y-85921928D01*
X304659079Y-85846955D01*
X304614878Y-85815238D01*
X309719014Y-83957484D01*
X309747926Y-83970966D01*
X309761409Y-83942054D01*
X309732496Y-83928572D01*
X309719014Y-83957484D01*
X304614878Y-85815238D01*
X304602029Y-85806018D01*
X304545842Y-85793957D01*
X304548134Y-85842523D01*
X304554986Y-85862305D01*
X304577614Y-85978705D01*
X304576929Y-86036252D01*
X304575218Y-86142966D01*
X304585035Y-86258198D01*
X304599863Y-86341153D01*
X304613100Y-86340316D01*
X304621724Y-86305077D01*
X304650848Y-86239216D01*
X304714172Y-86245749D01*
X304716326Y-86246640D01*
X304773907Y-86302112D01*
X304769705Y-86344915D01*
X304773065Y-86423017D01*
X304790352Y-86445854D01*
X304826762Y-86507678D01*
X304836892Y-86588918D01*
X304820088Y-86650038D01*
X304793910Y-86660146D01*
X304767981Y-86660109D01*
X304760139Y-86684001D01*
X304773702Y-86746757D01*
X304811984Y-86863308D01*
X304878302Y-87048587D01*
X304883132Y-87061905D01*
X304926254Y-87188025D01*
X304943366Y-87254449D01*
X304931812Y-87250034D01*
X304925252Y-87238618D01*
X304858400Y-87139988D01*
X304798967Y-87082840D01*
X304748884Y-87013583D01*
X304731900Y-86939212D01*
X304724831Y-86866610D01*
X304710400Y-86882025D01*
X304694132Y-86931542D01*
X304671276Y-86989763D01*
X304652627Y-86976012D01*
X304627212Y-86882069D01*
X304627025Y-86881282D01*
X304573298Y-86753482D01*
X304493618Y-86696894D01*
X304434797Y-86683597D01*
X304446976Y-86704452D01*
X304474342Y-86774333D01*
X304466302Y-86864136D01*
X304437975Y-86934883D01*
X304416058Y-86926487D01*
X304403456Y-86849967D01*
X304403080Y-86716344D01*
X304406524Y-86659246D01*
X304708962Y-86549168D01*
X304737875Y-86562649D01*
X304751357Y-86533737D01*
X304722445Y-86520255D01*
X304708962Y-86549168D01*
X304406524Y-86659246D01*
X304407588Y-86641613D01*
X304413245Y-86560778D01*
X304559182Y-86507661D01*
X304590118Y-86578396D01*
X304605709Y-86579940D01*
X304606023Y-86575546D01*
X304583777Y-86488331D01*
X304561303Y-86447789D01*
X304541515Y-86435413D01*
X304554671Y-86494394D01*
X304559182Y-86507661D01*
X304413245Y-86560778D01*
X304417692Y-86497237D01*
X304416799Y-86424481D01*
X304401171Y-86405028D01*
X304367070Y-86420559D01*
X304362987Y-86423036D01*
X304315928Y-86411082D01*
X304288673Y-86342059D01*
X304282129Y-86320435D01*
X304373546Y-86287162D01*
X304402459Y-86300644D01*
X304415941Y-86271731D01*
X304387028Y-86258249D01*
X304373546Y-86287162D01*
X304282129Y-86320435D01*
X304271451Y-86285151D01*
X304250283Y-86285464D01*
X304214882Y-86352848D01*
X304172981Y-86452902D01*
X304120248Y-86565277D01*
X304079035Y-86622903D01*
X304062757Y-86620455D01*
X304056496Y-86534339D01*
X304069963Y-86398092D01*
X304098220Y-86248375D01*
X304126317Y-86148800D01*
X304135964Y-86085569D01*
X304280963Y-86032794D01*
X304309876Y-86046276D01*
X304323359Y-86017363D01*
X304294446Y-86003882D01*
X304280963Y-86032794D01*
X304135964Y-86085569D01*
X304138779Y-86067123D01*
X304123886Y-86035813D01*
X304109119Y-85985718D01*
X304108884Y-85874387D01*
X304117610Y-85775928D01*
X304135004Y-85617733D01*
X304138083Y-85530950D01*
X304125463Y-85497690D01*
X304096267Y-85499882D01*
X304070014Y-85548773D01*
X304055509Y-85646747D01*
X304048105Y-85711321D01*
X304038464Y-85694653D01*
X304036961Y-85683844D01*
X303998066Y-85573063D01*
X303948755Y-85498297D01*
X303923915Y-85442587D01*
X304007114Y-85412305D01*
X304036025Y-85425786D01*
X304049508Y-85396875D01*
X304020595Y-85383392D01*
X304007114Y-85412305D01*
X303923915Y-85442587D01*
X303908772Y-85408627D01*
X303901658Y-85354666D01*
X303933858Y-85342946D01*
X303962770Y-85356427D01*
X303976253Y-85327515D01*
X304018647Y-85312085D01*
X304047560Y-85325566D01*
X304061042Y-85296655D01*
X304032129Y-85283172D01*
X304018647Y-85312085D01*
X303976253Y-85327515D01*
X303947340Y-85314033D01*
X303933858Y-85342946D01*
X303901658Y-85354666D01*
X303891826Y-85280086D01*
X303896350Y-85142664D01*
X303920768Y-85026351D01*
X303963512Y-84961138D01*
X303977153Y-84956293D01*
X304008942Y-84931778D01*
X303997383Y-84916239D01*
X303983510Y-84859461D01*
X303995755Y-84836490D01*
X304020369Y-84820999D01*
X304038682Y-84856519D01*
X304054047Y-84956256D01*
X304069214Y-85125642D01*
X304078334Y-85242349D01*
X304172795Y-85207968D01*
X304201708Y-85221451D01*
X304215189Y-85192538D01*
X304186278Y-85179056D01*
X304172795Y-85207968D01*
X304078334Y-85242349D01*
X304110409Y-85134653D01*
X304184329Y-85107749D01*
X304213242Y-85121231D01*
X304226724Y-85092318D01*
X304197811Y-85078837D01*
X304184329Y-85107749D01*
X304110409Y-85134653D01*
X304114686Y-85120291D01*
X304159809Y-85026680D01*
X304208744Y-85019451D01*
X304255047Y-85095341D01*
X304284441Y-85206239D01*
X304309203Y-85319565D01*
X304330271Y-85356460D01*
X304358393Y-85329561D01*
X304371318Y-85308388D01*
X304392458Y-85206225D01*
X304349945Y-85093226D01*
X304335760Y-85044630D01*
X309113669Y-83305614D01*
X309128662Y-83328699D01*
X309152219Y-83323590D01*
X309181470Y-83295377D01*
X309170195Y-83285040D01*
X309118036Y-83298279D01*
X309113669Y-83305614D01*
X304335760Y-85044630D01*
X304303110Y-84932775D01*
X304317340Y-84836396D01*
X304334822Y-84697780D01*
X304326629Y-84630260D01*
X308753320Y-83019076D01*
X308796847Y-83073631D01*
X308847546Y-83082599D01*
X308860296Y-83068960D01*
X308838593Y-83027534D01*
X308805801Y-83007176D01*
X308754421Y-82998811D01*
X308753320Y-83019076D01*
X304326629Y-84630260D01*
X304321516Y-84588119D01*
X304304473Y-84473953D01*
X304313639Y-84398943D01*
X304337025Y-84314008D01*
X304363521Y-84181734D01*
X304372631Y-84127006D01*
X307113146Y-83129541D01*
X307142058Y-83143022D01*
X307155540Y-83114110D01*
X307126628Y-83100628D01*
X307113146Y-83129541D01*
X304372631Y-84127006D01*
X304404351Y-84000006D01*
X304422353Y-83964876D01*
X306091777Y-83357255D01*
X306120690Y-83370738D01*
X306134172Y-83341825D01*
X306105259Y-83328343D01*
X306091777Y-83357255D01*
X304422353Y-83964876D01*
X304447483Y-83915834D01*
X304466699Y-83900725D01*
X304531705Y-83852439D01*
X304542180Y-83832287D01*
X304590869Y-83802645D01*
X304662027Y-83801780D01*
X304734975Y-83805781D01*
X304734091Y-83778533D01*
X304719992Y-83761089D01*
X304701568Y-83716721D01*
X304754825Y-83706569D01*
X304807514Y-83699685D01*
X304787816Y-83664016D01*
X304756281Y-83634568D01*
X304706383Y-83569722D01*
X304732133Y-83544491D01*
X304821458Y-83567557D01*
X304872509Y-83584975D01*
X304850555Y-83559318D01*
X304848633Y-83557666D01*
X304845971Y-83551500D01*
X305426960Y-83340038D01*
X305451316Y-83379280D01*
X305457261Y-83386225D01*
X305509742Y-83425915D01*
X305528971Y-83419338D01*
X305507892Y-83376221D01*
X305472356Y-83353855D01*
X305426960Y-83340038D01*
X304845971Y-83551500D01*
X304828943Y-83512065D01*
X304844322Y-83499221D01*
X304851209Y-83472709D01*
X305347845Y-83291948D01*
X305376757Y-83305431D01*
X305390239Y-83276518D01*
X305361326Y-83263036D01*
X305347845Y-83291948D01*
X304851209Y-83472709D01*
X304856840Y-83451031D01*
X304836144Y-83344714D01*
X304816774Y-83285197D01*
X305043315Y-83202743D01*
X305058307Y-83225829D01*
X305081865Y-83220719D01*
X305111115Y-83192507D01*
X305099841Y-83182169D01*
X305047682Y-83195408D01*
X305043315Y-83202743D01*
X304816774Y-83285197D01*
X304812610Y-83272399D01*
X304786967Y-83186915D01*
X305128030Y-83062778D01*
X305136549Y-83082952D01*
X305158910Y-83112585D01*
X305214941Y-83195875D01*
X305232945Y-83229671D01*
X305252211Y-83250700D01*
X305256463Y-83218993D01*
X305251421Y-83207018D01*
X305394059Y-83155102D01*
X305422271Y-83184351D01*
X305432609Y-83173078D01*
X305419370Y-83120918D01*
X305412035Y-83116552D01*
X305388949Y-83131545D01*
X305394059Y-83155102D01*
X305251421Y-83207018D01*
X305225697Y-83145927D01*
X305182426Y-83101908D01*
X305128030Y-83062778D01*
X304786967Y-83186915D01*
X304770316Y-83131400D01*
X304770394Y-83118037D01*
X305012428Y-83029944D01*
X305041341Y-83043425D01*
X305054823Y-83014513D01*
X305025910Y-83001031D01*
X305012428Y-83029944D01*
X304770394Y-83118037D01*
X304770846Y-83041855D01*
X304803003Y-82987098D01*
X304839633Y-82898067D01*
X304819619Y-82847331D01*
X304794450Y-82806047D01*
X304828620Y-82822859D01*
X304892432Y-82822576D01*
X304956391Y-82751095D01*
X305012042Y-82627039D01*
X305050937Y-82469030D01*
X305064663Y-82302772D01*
X305080865Y-82220907D01*
X305118605Y-82221922D01*
X305152070Y-82282961D01*
X305165229Y-82356275D01*
X305154497Y-82378099D01*
X305125424Y-82424624D01*
X305094501Y-82522691D01*
X305093627Y-82526373D01*
X305074584Y-82646907D01*
X305069705Y-82766121D01*
X305077681Y-82859265D01*
X305097199Y-82901593D01*
X305113061Y-82893403D01*
X305147110Y-82888886D01*
X305155695Y-82912967D01*
X305189966Y-82993946D01*
X305237670Y-83064634D01*
X305280955Y-83112014D01*
X305301317Y-83102570D01*
X305305991Y-83023272D01*
X305304475Y-82944297D01*
X305313083Y-82790228D01*
X305341234Y-82656186D01*
X305354785Y-82622338D01*
X305395108Y-82547454D01*
X305410060Y-82554081D01*
X305413767Y-82624877D01*
X305429585Y-82725108D01*
X305467152Y-82865610D01*
X305517660Y-83021285D01*
X305572305Y-83167041D01*
X305622280Y-83277781D01*
X305658780Y-83328412D01*
X305660892Y-83329122D01*
X305670370Y-83309756D01*
X305649446Y-83279774D01*
X305628440Y-83243973D01*
X305665378Y-83236367D01*
X305758706Y-83249515D01*
X305870217Y-83282417D01*
X305935662Y-83327739D01*
X305939212Y-83334644D01*
X305964709Y-83366363D01*
X306003297Y-83319776D01*
X306005039Y-83316809D01*
X306025877Y-83237209D01*
X306087881Y-83214641D01*
X306116794Y-83228123D01*
X306130275Y-83199211D01*
X306101363Y-83185728D01*
X306087881Y-83214641D01*
X306025877Y-83237209D01*
X306030535Y-83219420D01*
X306023660Y-83172124D01*
X305999359Y-83131586D01*
X305982386Y-83174145D01*
X305951396Y-83221144D01*
X305900647Y-83185892D01*
X305834504Y-83073084D01*
X305786731Y-82963891D01*
X305749354Y-82855832D01*
X305742246Y-82799406D01*
X305755008Y-82798962D01*
X305807009Y-82867607D01*
X305849829Y-82958343D01*
X305893359Y-83038981D01*
X305940213Y-83038946D01*
X305948104Y-83032695D01*
X306016487Y-83008318D01*
X306041459Y-83017585D01*
X306102309Y-83046113D01*
X306117969Y-83012017D01*
X306086531Y-82931842D01*
X306056702Y-82885411D01*
X305996927Y-82788280D01*
X305973256Y-82722579D01*
X305974442Y-82715640D01*
X306004691Y-82726333D01*
X306058293Y-82795921D01*
X306065250Y-82807118D01*
X306133559Y-82900709D01*
X306170080Y-82916496D01*
X306169180Y-82863034D01*
X306125221Y-82748876D01*
X306116047Y-82730019D01*
X306064753Y-82597578D01*
X306043824Y-82482346D01*
X306045610Y-82455588D01*
X306061221Y-82399703D01*
X306080310Y-82420825D01*
X306102638Y-82489107D01*
X306165794Y-82675816D01*
X306219775Y-82787192D01*
X306261605Y-82817942D01*
X306277586Y-82800269D01*
X306277713Y-82726609D01*
X306223452Y-82662225D01*
X306167904Y-82592382D01*
X306161221Y-82543655D01*
X306200387Y-82539678D01*
X306236261Y-82561889D01*
X306273575Y-82576218D01*
X306269179Y-82521838D01*
X306256984Y-82480941D01*
X306231192Y-82395095D01*
X306239758Y-82387582D01*
X306285467Y-82446568D01*
X306353828Y-82506071D01*
X306405319Y-82509007D01*
X306446880Y-82512606D01*
X306453912Y-82555261D01*
X306457699Y-82638472D01*
X306462213Y-82662227D01*
X306441162Y-82665164D01*
X306404705Y-82643223D01*
X306359980Y-82618998D01*
X306372992Y-82659234D01*
X306381854Y-82675546D01*
X306442672Y-82731587D01*
X306484912Y-82734058D01*
X306557890Y-82747144D01*
X306605414Y-82786221D01*
X306648686Y-82828571D01*
X306669013Y-82805147D01*
X306673226Y-82770510D01*
X306750735Y-82742299D01*
X306828640Y-82811185D01*
X306836547Y-82815722D01*
X306916381Y-82853094D01*
X306949799Y-82834999D01*
X306959550Y-82794281D01*
X306943519Y-82719441D01*
X306890027Y-82697579D01*
X306804562Y-82651327D01*
X306777873Y-82613040D01*
X306754655Y-82576432D01*
X306741004Y-82621104D01*
X306737917Y-82647980D01*
X306750735Y-82742299D01*
X306673226Y-82770510D01*
X306679387Y-82719849D01*
X306672376Y-82603539D01*
X306638054Y-82566856D01*
X306579603Y-82535654D01*
X306527174Y-82485744D01*
X306502697Y-82442975D01*
X306523800Y-82432179D01*
X306560067Y-82410068D01*
X306557625Y-82386352D01*
X306568245Y-82371122D01*
X306613173Y-82411312D01*
X306685344Y-82468220D01*
X306729994Y-82476817D01*
X306776089Y-82501117D01*
X306812331Y-82566876D01*
X306853915Y-82642001D01*
X306887609Y-82659504D01*
X306889601Y-82616977D01*
X306861487Y-82548984D01*
X306897120Y-82536015D01*
X306926033Y-82549497D01*
X306939514Y-82520585D01*
X306910603Y-82507103D01*
X306897120Y-82536015D01*
X306861487Y-82548984D01*
X306851720Y-82525365D01*
X306825709Y-82477987D01*
X306819537Y-82466500D01*
X306965957Y-82413207D01*
X306993489Y-82428923D01*
X307013761Y-82379801D01*
X307006595Y-82281681D01*
X307006016Y-82278823D01*
X306979476Y-82196419D01*
X306956926Y-82196648D01*
X306945882Y-82271980D01*
X306947151Y-82337764D01*
X306965957Y-82413207D01*
X306819537Y-82466500D01*
X306767768Y-82370157D01*
X306738749Y-82297995D01*
X306738196Y-82285790D01*
X306759940Y-82294813D01*
X306767286Y-82311209D01*
X306812661Y-82347547D01*
X306827684Y-82345239D01*
X306843410Y-82297513D01*
X306824829Y-82201981D01*
X306821278Y-82191536D01*
X306796667Y-82058726D01*
X306806655Y-81944801D01*
X306832129Y-81872866D01*
X306845004Y-81885891D01*
X306853880Y-81955619D01*
X306876558Y-82041206D01*
X306925484Y-82053312D01*
X306933342Y-82050725D01*
X306974398Y-81994734D01*
X306963257Y-81926270D01*
X306940976Y-81814067D01*
X306934269Y-81670698D01*
X306934953Y-81650645D01*
X306935820Y-81494584D01*
X306919118Y-81423736D01*
X306883914Y-81434631D01*
X306878664Y-81440934D01*
X306862939Y-81445647D01*
X306862437Y-81394643D01*
X306878189Y-81277602D01*
X306911225Y-81084201D01*
X306918133Y-81045764D01*
X306937002Y-80976178D01*
X306950781Y-80970577D01*
X306980250Y-80958620D01*
X307038675Y-80888338D01*
X307064095Y-80851258D01*
X307168157Y-80719520D01*
X307287618Y-80603103D01*
X307298717Y-80594271D01*
X307407796Y-80480929D01*
X307446580Y-80420734D01*
X307572455Y-80374920D01*
X307620882Y-80409380D01*
X307671562Y-80401933D01*
X307692674Y-80382524D01*
X307659762Y-80378122D01*
X307611238Y-80344632D01*
X307610205Y-80320515D01*
X307602491Y-80294939D01*
X307583250Y-80313739D01*
X307572455Y-80374920D01*
X307446580Y-80420734D01*
X307498865Y-80339589D01*
X307507984Y-80320118D01*
X307587917Y-80187467D01*
X307698300Y-80112262D01*
X307735262Y-80098373D01*
X307887563Y-80046839D01*
X307678044Y-80262641D01*
X307816050Y-80180129D01*
X307973041Y-80100774D01*
X308162251Y-80025700D01*
X308352817Y-79965152D01*
X308513871Y-79929374D01*
X308587095Y-79924202D01*
X308632827Y-79932167D01*
X308609625Y-79950761D01*
X308510265Y-79983498D01*
X308403530Y-80013450D01*
X308224930Y-80067778D01*
X308098443Y-80126045D01*
X307987399Y-80208307D01*
X307903025Y-80287183D01*
X307770761Y-80407725D01*
X307639433Y-80513478D01*
X307570528Y-80560834D01*
X307428276Y-80656769D01*
X307283298Y-80770514D01*
X307159396Y-80881750D01*
X307080372Y-80970157D01*
X307069128Y-80988870D01*
X307049273Y-81064803D01*
X307027149Y-81202547D01*
X307007194Y-81373932D01*
X307005223Y-81394694D01*
X306993292Y-81562481D01*
X306996658Y-81698144D01*
X307020137Y-81832622D01*
X307068545Y-81996850D01*
X307123971Y-82157776D01*
X307200402Y-82360259D01*
X307264551Y-82503058D01*
X307311100Y-82574884D01*
X307323408Y-82581220D01*
X307353026Y-82544891D01*
X307348135Y-82492468D01*
X307314181Y-82426683D01*
X307289594Y-82417172D01*
X307260164Y-82385500D01*
X307218966Y-82294683D01*
X307175539Y-82173252D01*
X307139425Y-82049740D01*
X307120165Y-81952680D01*
X307121878Y-81915633D01*
X307135057Y-81908134D01*
X307157928Y-81938029D01*
X307196476Y-82017445D01*
X307256689Y-82158509D01*
X307329366Y-82335920D01*
X307401864Y-82497020D01*
X307466263Y-82581878D01*
X307539876Y-82600836D01*
X307640014Y-82564231D01*
X307677760Y-82543990D01*
X307784605Y-82494257D01*
X307824794Y-82500378D01*
X307824368Y-82509463D01*
X307841271Y-82548362D01*
X307858239Y-82546278D01*
X307881469Y-82497043D01*
X307871765Y-82433331D01*
X307861099Y-82374890D01*
X307878113Y-82378215D01*
X307943291Y-82387201D01*
X308018948Y-82346870D01*
X308166874Y-82292108D01*
X308346465Y-82317862D01*
X308398804Y-82337525D01*
X308492587Y-82357334D01*
X308540791Y-82330842D01*
X308539056Y-82298481D01*
X308559704Y-82248371D01*
X308587217Y-82232941D01*
X308652212Y-82236006D01*
X308666724Y-82253520D01*
X308651635Y-82317478D01*
X308627928Y-82344794D01*
X308586198Y-82416399D01*
X308615431Y-82469407D01*
X308696572Y-82478977D01*
X308724696Y-82470968D01*
X308801724Y-82458172D01*
X308822414Y-82483412D01*
X308775581Y-82540790D01*
X308729355Y-82565293D01*
X308669330Y-82610339D01*
X308664428Y-82642937D01*
X308711565Y-82658763D01*
X308799713Y-82618903D01*
X308890881Y-82577367D01*
X308935475Y-82598098D01*
X308939632Y-82607601D01*
X308997823Y-82664960D01*
X309051543Y-82684235D01*
X309106874Y-82705324D01*
X309101317Y-82722054D01*
X309024961Y-82767260D01*
X309022361Y-82768944D01*
X308945950Y-82813718D01*
X308936878Y-82818525D01*
X308923248Y-82864967D01*
X308952182Y-82932808D01*
X309000926Y-82981191D01*
X309029184Y-82984284D01*
X309058494Y-82935422D01*
X309063409Y-82896768D01*
X309085760Y-82836841D01*
X309131820Y-82840483D01*
X309175073Y-82896303D01*
X309188696Y-82950583D01*
X309229205Y-83056415D01*
X309306720Y-83154445D01*
X309397008Y-83266541D01*
X309469179Y-83404006D01*
X309471774Y-83410920D01*
X309541777Y-83538846D01*
X309631186Y-83590976D01*
X309705032Y-83622615D01*
X309706818Y-83684377D01*
X309704959Y-83689754D01*
X309702818Y-83758060D01*
X309766769Y-83792949D01*
X309822003Y-83818772D01*
X309850984Y-83872255D01*
X309865046Y-83980194D01*
X309868396Y-84033215D01*
X309885574Y-84180990D01*
X309919713Y-84258806D01*
X309945156Y-84277652D01*
X309982813Y-84308905D01*
X309954275Y-84327959D01*
X309928793Y-84371831D01*
X309963982Y-84444453D01*
X310004273Y-84513685D01*
X309993744Y-84546789D01*
X309918472Y-84552550D01*
X309806590Y-84543784D01*
X309703514Y-84538986D01*
X309627003Y-84557946D01*
X309544518Y-84614712D01*
X309452489Y-84696671D01*
X309314946Y-84806137D01*
X309171256Y-84895201D01*
X309107140Y-84924356D01*
X308999654Y-84975645D01*
X308938426Y-85028015D01*
X308934378Y-85037782D01*
X308887117Y-85088965D01*
X308867336Y-85092209D01*
X308799800Y-85124997D01*
X308714185Y-85205052D01*
X308634068Y-85304243D01*
X308583022Y-85394441D01*
X308577511Y-85438037D01*
X308570519Y-85498579D01*
X308555420Y-85509253D01*
X308503363Y-85490693D01*
X308495024Y-85475222D01*
X308468717Y-85450294D01*
X308461355Y-85459359D01*
X308479001Y-85510945D01*
X308531745Y-85570023D01*
X308580652Y-85627166D01*
X308582013Y-85690117D01*
X308534096Y-85789852D01*
X308517851Y-85817955D01*
X308446534Y-85926803D01*
X308386384Y-85996813D01*
X308371199Y-86007110D01*
X308355038Y-86053984D01*
X308381946Y-86121680D01*
X308416326Y-86225055D01*
X308434887Y-86371231D01*
X308436042Y-86430716D01*
X308439234Y-86568399D01*
X308464281Y-86658663D01*
X308526098Y-86744052D01*
X308558438Y-86779853D01*
X308654939Y-86904068D01*
X308754734Y-87061794D01*
X308793581Y-87133716D01*
X308865874Y-87262854D01*
X308921949Y-87321623D01*
X308975918Y-87324636D01*
X308977465Y-87324086D01*
X309027957Y-87318836D01*
X309056123Y-87364904D01*
X309073761Y-87467436D01*
X309099486Y-87586488D01*
X309135215Y-87663220D01*
X309142836Y-87670346D01*
X309189863Y-87739039D01*
X309248392Y-87881103D01*
X309312413Y-88081388D01*
X309328325Y-88137883D01*
X309325896Y-88231769D01*
X309291180Y-88366581D01*
X309263062Y-88440061D01*
X309201072Y-88568252D01*
X309141341Y-88635938D01*
X309057480Y-88668176D01*
X309014336Y-88676254D01*
X308875879Y-88681560D01*
X308703079Y-88665504D01*
X308618062Y-88650087D01*
X308447735Y-88626076D01*
X308311371Y-88630664D01*
X308220751Y-88658007D01*
X308187660Y-88702255D01*
X308223879Y-88757566D01*
X308307158Y-88804338D01*
X308551245Y-88906862D01*
X308736150Y-88975156D01*
X308883401Y-89015340D01*
X309014524Y-89033530D01*
X309123518Y-89036345D01*
X309311420Y-89024894D01*
X309429751Y-88990470D01*
X309497910Y-88925171D01*
X309520590Y-88874557D01*
X309552498Y-88827897D01*
X309622009Y-88813983D01*
X309730851Y-88822897D01*
X309953474Y-88811425D01*
X310074152Y-88770133D01*
X310183268Y-88726792D01*
X310247567Y-88733089D01*
X310290880Y-88779101D01*
X310341174Y-88831335D01*
X310376975Y-88803513D01*
X310382526Y-88792306D01*
X310428421Y-88725307D01*
X310466612Y-88708208D01*
X310473071Y-88748337D01*
X310467560Y-88766379D01*
X310411659Y-88828732D01*
X310304048Y-88894893D01*
X310263115Y-88913344D01*
X310121324Y-88984480D01*
X309958536Y-89084186D01*
X309877298Y-89141082D01*
X309743506Y-89230982D01*
X309580087Y-89321119D01*
X309373814Y-89417552D01*
X309111456Y-89526345D01*
X308779783Y-89653561D01*
X308670055Y-89694280D01*
X308480562Y-89765923D01*
X308364764Y-89815434D01*
X308310878Y-89849567D01*
X308307116Y-89875076D01*
X308326994Y-89890835D01*
X308423061Y-89902942D01*
X308482942Y-89878854D01*
X308572875Y-89844153D01*
X308715427Y-89813836D01*
X308820824Y-89800392D01*
X308998729Y-89773964D01*
X309095366Y-89733926D01*
X309112538Y-89714576D01*
X309166482Y-89678863D01*
X309278923Y-89630217D01*
X309421125Y-89578783D01*
X309564352Y-89534706D01*
X309679872Y-89508132D01*
X309706162Y-89504990D01*
X309734926Y-89535665D01*
X309761247Y-89571386D01*
X309795774Y-89609041D01*
X309804998Y-89570032D01*
X309804245Y-89534673D01*
X309826409Y-89451093D01*
X309909639Y-89366995D01*
X309993848Y-89309627D01*
X310133221Y-89224033D01*
X310207428Y-89184609D01*
X310226403Y-89187508D01*
X310200077Y-89228882D01*
X310199149Y-89230086D01*
X310175351Y-89290294D01*
X310187084Y-89308987D01*
X310234816Y-89287948D01*
X310320819Y-89216154D01*
X310398194Y-89138738D01*
X310499250Y-89037883D01*
X310586264Y-88962709D01*
X310646053Y-88922221D01*
X310665431Y-88925423D01*
X310634004Y-88977666D01*
X310610700Y-89024635D01*
X310623973Y-89028592D01*
X310637663Y-89053530D01*
X310616704Y-89127995D01*
X310562662Y-89219880D01*
X310513810Y-89261468D01*
X310476198Y-89313905D01*
X310480607Y-89347664D01*
X310478636Y-89457645D01*
X310418607Y-89591678D01*
X310316061Y-89721616D01*
X310237359Y-89788189D01*
X310133931Y-89852595D01*
X310059984Y-89884193D01*
X310048495Y-89884787D01*
X309990302Y-89906297D01*
X309906611Y-89969026D01*
X309808584Y-90048101D01*
X309732976Y-90096559D01*
X309656786Y-90153415D01*
X309641586Y-90207133D01*
X309661135Y-90225311D01*
X309722967Y-90219859D01*
X309842539Y-90186434D01*
X309995315Y-90134105D01*
X310156757Y-90071937D01*
X310302327Y-90008998D01*
X310407489Y-89954356D01*
X310424177Y-89943350D01*
X310498755Y-89864664D01*
X310590222Y-89732681D01*
X310603710Y-89708855D01*
X311310604Y-89451566D01*
X311333425Y-89484363D01*
X311365927Y-89479442D01*
X311415876Y-89436195D01*
X311416591Y-89412990D01*
X311371174Y-89382884D01*
X311361268Y-89385116D01*
X311315067Y-89436830D01*
X311310604Y-89451566D01*
X310603710Y-89708855D01*
X310676265Y-89580685D01*
X310751940Y-89437915D01*
X310814661Y-89331531D01*
X310851630Y-89283128D01*
X310852963Y-89282454D01*
X310864186Y-89237114D01*
X310855613Y-89201170D01*
X311173141Y-89085599D01*
X311201199Y-89139144D01*
X311257868Y-89149089D01*
X311350359Y-89135647D01*
X311396063Y-89120856D01*
X311374989Y-89111664D01*
X311366782Y-89111257D01*
X311298547Y-89072862D01*
X311282861Y-89045570D01*
X311240031Y-89008092D01*
X311215479Y-89017083D01*
X311173141Y-89085599D01*
X310855613Y-89201170D01*
X310848447Y-89171116D01*
X310840630Y-89054685D01*
X310866400Y-88969259D01*
X310923252Y-88894080D01*
X311000659Y-88884433D01*
X311024392Y-88888865D01*
X311105333Y-88932038D01*
X311127042Y-88980395D01*
X311136507Y-89020763D01*
X311178166Y-88990838D01*
X311197384Y-88969983D01*
X311258643Y-88885270D01*
X311280084Y-88836323D01*
X311328048Y-88791582D01*
X311387761Y-88778528D01*
X311450994Y-88764076D01*
X311438196Y-88738118D01*
X311362020Y-88721917D01*
X311305281Y-88733341D01*
X311234605Y-88736549D01*
X311219688Y-88694015D01*
X311191997Y-88625457D01*
X311166731Y-88611850D01*
X311117452Y-88563662D01*
X311104721Y-88516996D01*
X311070155Y-88458839D01*
X311238986Y-88397389D01*
X311267897Y-88410871D01*
X311281380Y-88381959D01*
X311252467Y-88368477D01*
X311238986Y-88397389D01*
X311070155Y-88458839D01*
X311064479Y-88449291D01*
X311009432Y-88441565D01*
X310928355Y-88424730D01*
X310902520Y-88396318D01*
X310905974Y-88357761D01*
X310919589Y-88359917D01*
X310975001Y-88344552D01*
X311019889Y-88305717D01*
X311077802Y-88261604D01*
X311100558Y-88280879D01*
X311136233Y-88297038D01*
X311152817Y-88282447D01*
X311213549Y-88268386D01*
X311304551Y-88296984D01*
X311382025Y-88344027D01*
X311388112Y-88380579D01*
X311364370Y-88405481D01*
X311330378Y-88466870D01*
X311335962Y-88528762D01*
X311371961Y-88555924D01*
X311400398Y-88544072D01*
X311441293Y-88468018D01*
X311465457Y-88335090D01*
X311470742Y-88177462D01*
X311454997Y-88027306D01*
X311438992Y-87966317D01*
X311417482Y-87813043D01*
X311463666Y-87709696D01*
X311564215Y-87667854D01*
X311705801Y-87699090D01*
X311731924Y-87711933D01*
X311802126Y-87769722D01*
X311824320Y-87863451D01*
X311824656Y-87900447D01*
X311835765Y-88007269D01*
X311872807Y-88037541D01*
X311909716Y-88068537D01*
X311908377Y-88137730D01*
X311910714Y-88231769D01*
X311945005Y-88248296D01*
X311995971Y-88181135D01*
X311999168Y-88174432D01*
X312056114Y-88084915D01*
X312099926Y-88078994D01*
X312122987Y-88155163D01*
X312140897Y-88220757D01*
X312170388Y-88207093D01*
X312182125Y-88135454D01*
X312159723Y-88025548D01*
X312155812Y-88014355D01*
X312129891Y-87912063D01*
X312153573Y-87872579D01*
X312169753Y-87870960D01*
X312206895Y-87844079D01*
X312209291Y-87753275D01*
X312193403Y-87656800D01*
X312175760Y-87546321D01*
X312182052Y-87499564D01*
X312216727Y-87520110D01*
X312284239Y-87611533D01*
X312389036Y-87777414D01*
X312432503Y-87849008D01*
X312509299Y-87983050D01*
X312560563Y-88098217D01*
X312595417Y-88224445D01*
X312622990Y-88391668D01*
X312640845Y-88532525D01*
X312662527Y-88738467D01*
X312677047Y-88928534D01*
X312682291Y-89072380D01*
X312681206Y-89111921D01*
X312672686Y-89241033D01*
X312666554Y-89339010D01*
X312666368Y-89342196D01*
X312654057Y-89459607D01*
X312634539Y-89563653D01*
X312613951Y-89627606D01*
X312600151Y-89630357D01*
X312576384Y-89646576D01*
X312529674Y-89729138D01*
X312469969Y-89860361D01*
X312467842Y-89865439D01*
X312407144Y-90003181D01*
X312359203Y-90098241D01*
X312334371Y-90130099D01*
X312334342Y-90130079D01*
X312287186Y-90085851D01*
X312216073Y-90010367D01*
X312150572Y-89936008D01*
X312120466Y-89895876D01*
X312144425Y-89881064D01*
X312151485Y-89882169D01*
X312168204Y-89851059D01*
X312154793Y-89764869D01*
X312153834Y-89761447D01*
X312141409Y-89649363D01*
X312143905Y-89480996D01*
X312158584Y-89288548D01*
X312182707Y-89104220D01*
X312213535Y-88960215D01*
X312224814Y-88926777D01*
X312240060Y-88835593D01*
X312240049Y-88703982D01*
X312227719Y-88563693D01*
X312206007Y-88446468D01*
X312177855Y-88384054D01*
X312174367Y-88381839D01*
X312131339Y-88405118D01*
X312079725Y-88485783D01*
X312078003Y-88489435D01*
X312048892Y-88582088D01*
X312059158Y-88633112D01*
X312060334Y-88633727D01*
X312102224Y-88611738D01*
X312132399Y-88548817D01*
X312156437Y-88478369D01*
X312168075Y-88495194D01*
X312174528Y-88550459D01*
X312162410Y-88668126D01*
X312135255Y-88732792D01*
X312107936Y-88811335D01*
X312078834Y-88953608D01*
X312052990Y-89133368D01*
X312045845Y-89198319D01*
X312023285Y-89371253D01*
X311996492Y-89502256D01*
X311969957Y-89571508D01*
X311959865Y-89577393D01*
X311916345Y-89601426D01*
X311914512Y-89615550D01*
X311901921Y-89605759D01*
X311868197Y-89529155D01*
X311838837Y-89451880D01*
X311797876Y-89306686D01*
X311797665Y-89216066D01*
X311807448Y-89200751D01*
X311841545Y-89138115D01*
X311799387Y-89097210D01*
X311731950Y-89092254D01*
X311639499Y-89061559D01*
X311606785Y-89012184D01*
X311554933Y-88949346D01*
X311510888Y-88946571D01*
X311472694Y-89001650D01*
X311482786Y-89067225D01*
X311500530Y-89168367D01*
X311491772Y-89221570D01*
X311498437Y-89302085D01*
X311560666Y-89446103D01*
X311597823Y-89515155D01*
X311674178Y-89663170D01*
X311709737Y-89776582D01*
X311714362Y-89895465D01*
X311708575Y-89965375D01*
X311687958Y-90093650D01*
X311660291Y-90177628D01*
X311646133Y-90193639D01*
X311608060Y-90239984D01*
X311550033Y-90345558D01*
X311495280Y-90463498D01*
X311350236Y-90712660D01*
X311176499Y-90887375D01*
X311047035Y-90999307D01*
X310936559Y-91107106D01*
X310888400Y-91162626D01*
X310783971Y-91255583D01*
X310681898Y-91304622D01*
X310574984Y-91347904D01*
X310513236Y-91392999D01*
X310437698Y-91433421D01*
X310295622Y-91465542D01*
X310110533Y-91486493D01*
X309905962Y-91493403D01*
X309743615Y-91486857D01*
X309577085Y-91456571D01*
X309373066Y-91395441D01*
X309173138Y-91316100D01*
X309156775Y-91308502D01*
X308994325Y-91233341D01*
X308928247Y-91206874D01*
X309031189Y-91169406D01*
X309060102Y-91182889D01*
X309073584Y-91153976D01*
X309044671Y-91140494D01*
X309031189Y-91169406D01*
X308928247Y-91206874D01*
X308900764Y-91195867D01*
X308863944Y-91194091D01*
X308871716Y-91226021D01*
X308896146Y-91265772D01*
X308996994Y-91366706D01*
X309165071Y-91477342D01*
X309379823Y-91586486D01*
X309620699Y-91682946D01*
X309724563Y-91716940D01*
X309865903Y-91761569D01*
X309933261Y-91791859D01*
X309939168Y-91819108D01*
X309896152Y-91854616D01*
X309885368Y-91861953D01*
X309824826Y-91929889D01*
X309813371Y-91997805D01*
X309848993Y-92035972D01*
X309896773Y-92030626D01*
X309960460Y-92041006D01*
X309994127Y-92103764D01*
X309989007Y-92183586D01*
X309948256Y-92238031D01*
X309891742Y-92296601D01*
X309885168Y-92328514D01*
X309860647Y-92371835D01*
X309813434Y-92397035D01*
X309709630Y-92457396D01*
X309668874Y-92494517D01*
X309594198Y-92570836D01*
X309495491Y-92663547D01*
X309492103Y-92666598D01*
X309411308Y-92762548D01*
X309399807Y-92833506D01*
X309457591Y-92865402D01*
X309492271Y-92864920D01*
X309533896Y-92867083D01*
X309491535Y-92891785D01*
X309477418Y-92897852D01*
X309417769Y-92941411D01*
X309425788Y-92973498D01*
X309494475Y-92981266D01*
X309517150Y-92967842D01*
X309557920Y-92963506D01*
X309572687Y-93019480D01*
X309582773Y-93066628D01*
X309613740Y-93080349D01*
X309684353Y-93058152D01*
X309813369Y-92997549D01*
X309816145Y-92996184D01*
X310558020Y-92726164D01*
X310586932Y-92739646D01*
X310600415Y-92710733D01*
X310571502Y-92697251D01*
X310558020Y-92726164D01*
X309816145Y-92996184D01*
X309841219Y-92983859D01*
X310030162Y-92884459D01*
X310236462Y-92766580D01*
X310354383Y-92694308D01*
X310501796Y-92600798D01*
X310631733Y-92519248D01*
X310706078Y-92473403D01*
X310804495Y-92414033D01*
X310715654Y-92532692D01*
X310658038Y-92623240D01*
X310638391Y-92682509D01*
X310638962Y-92684732D01*
X310679781Y-92687414D01*
X310763754Y-92646186D01*
X310865393Y-92575698D01*
X310936741Y-92513559D01*
X311036151Y-92422548D01*
X311146460Y-92329376D01*
X311229794Y-92266018D01*
X311230550Y-92265520D01*
X311274676Y-92212915D01*
X311339080Y-92111309D01*
X311363861Y-92067510D01*
X311459124Y-91916891D01*
X311569694Y-91772171D01*
X311585778Y-91753861D01*
X311690692Y-91614484D01*
X311781906Y-91456587D01*
X311792223Y-91434346D01*
X311861394Y-91303247D01*
X311962873Y-91139360D01*
X312061032Y-90997266D01*
X312218190Y-90773462D01*
X312342578Y-90577041D01*
X312428057Y-90419175D01*
X312468483Y-90311036D01*
X312462791Y-90266525D01*
X312455260Y-90243833D01*
X312484828Y-90246431D01*
X312533569Y-90213636D01*
X312602608Y-90110922D01*
X312684811Y-89954331D01*
X312773044Y-89759903D01*
X312860173Y-89543681D01*
X312939063Y-89321703D01*
X313002579Y-89110013D01*
X313018772Y-89045893D01*
X313106123Y-88667673D01*
X313168810Y-88359001D01*
X313207332Y-88102776D01*
X313222194Y-87881897D01*
X313213899Y-87679264D01*
X313182948Y-87477774D01*
X313129847Y-87260329D01*
X313076606Y-87079154D01*
X313035894Y-86904767D01*
X313040608Y-86776548D01*
X313063320Y-86711905D01*
X313102340Y-86570664D01*
X313063551Y-86454357D01*
X312990670Y-86376359D01*
X312909130Y-86276526D01*
X312824829Y-86129362D01*
X312749082Y-85961693D01*
X312693198Y-85800342D01*
X312668491Y-85672136D01*
X312673035Y-85623143D01*
X312671729Y-85552886D01*
X312649464Y-85422564D01*
X312610897Y-85258632D01*
X312604779Y-85235678D01*
X312513371Y-84894097D01*
X312445210Y-84629373D01*
X312398520Y-84431674D01*
X312371528Y-84291165D01*
X312362456Y-84198010D01*
X312369533Y-84142378D01*
X312390981Y-84114434D01*
X312401486Y-84109399D01*
X312425678Y-84089368D01*
X312427768Y-84044458D01*
X312403687Y-83960437D01*
X312349368Y-83823077D01*
X312261637Y-83620178D01*
X312177386Y-83427130D01*
X312106057Y-83260796D01*
X312055982Y-83140782D01*
X312036408Y-83090016D01*
X311938039Y-82780817D01*
X311861439Y-82546493D01*
X311802391Y-82375510D01*
X311756683Y-82256334D01*
X311720101Y-82177431D01*
X311688426Y-82127267D01*
X311681483Y-82118687D01*
X311613683Y-82022188D01*
X311536214Y-81889434D01*
X311513878Y-81846562D01*
X311435063Y-81711146D01*
X311351262Y-81597564D01*
X311329134Y-81573988D01*
X311243928Y-81481370D01*
X311142300Y-81357284D01*
X311109862Y-81314773D01*
X311023857Y-81207325D01*
X310953371Y-81132686D01*
X310933443Y-81117326D01*
X310874004Y-81053025D01*
X310859248Y-81022451D01*
X310817361Y-80956823D01*
X310742721Y-80872837D01*
X310658130Y-80792216D01*
X310586392Y-80736684D01*
X310550309Y-80727968D01*
X310550259Y-80728073D01*
X310512680Y-80721317D01*
X310442628Y-80669353D01*
X310361496Y-80611674D01*
X310309654Y-80597796D01*
X310280809Y-80578848D01*
X310281955Y-80563153D01*
X310252166Y-80516451D01*
X310185033Y-80486098D01*
X310109648Y-80453256D01*
X310093268Y-80424845D01*
X310073369Y-80372920D01*
X309999685Y-80292369D01*
X309894756Y-80202684D01*
X309781122Y-80123365D01*
X309691846Y-80077629D01*
X309524498Y-80020977D01*
X309364100Y-79977536D01*
X309237628Y-79953763D01*
X309176069Y-79954149D01*
X309122156Y-79938409D01*
X309116528Y-79927810D01*
X309137062Y-79877579D01*
X309163816Y-79862587D01*
X309213514Y-79811257D01*
X309278756Y-79701230D01*
X309332950Y-79584979D01*
X309395251Y-79448164D01*
X309449622Y-79350072D01*
X309479388Y-79315630D01*
X309530485Y-79266514D01*
X309555700Y-79223243D01*
X309611786Y-79158927D01*
X309720504Y-79071038D01*
X309831495Y-78995871D01*
X309956424Y-78922466D01*
X310067807Y-78872854D01*
X310194650Y-78838116D01*
G37*
X138816660Y-178270112D02*
G75*
G03X138816660Y-178270112I-200000J0D01*
G01*
X138016660Y-181690112D02*
X138016660Y-178290112D01*
X134216660Y-178290112D02*
X138016660Y-178290112D01*
X134216660Y-181690112D02*
X134216660Y-178290112D01*
X134216660Y-181690112D02*
X138016660Y-181690112D01*
X279940416Y-139641715D02*
G75*
G03X279940416Y-139641715I-200000J0D01*
G01*
X280930800Y-142903522D02*
X279230800Y-139959036D01*
X275939904Y-141859036D02*
X279230800Y-139959036D01*
X277639904Y-144803522D02*
X275939904Y-141859036D01*
X277639904Y-144803522D02*
X280930800Y-142903522D01*
X349397341Y-108148250D02*
G75*
G03X349397341Y-108148250I-200000J0D01*
G01*
X349502947Y-111607008D02*
X348622962Y-108322860D01*
X344952444Y-109306372D02*
X348622962Y-108322860D01*
X345832429Y-112590520D02*
X344952444Y-109306372D01*
X345832429Y-112590520D02*
X349502947Y-111607008D01*
X311961888Y-120079066D02*
G75*
G03X311961888Y-120079066I-200000J0D01*
G01*
X312952272Y-123340873D02*
X311252272Y-120396387D01*
X307961376Y-122296387D02*
X311252272Y-120396387D01*
X309661376Y-125240873D02*
X307961376Y-122296387D01*
X309661376Y-125240873D02*
X312952272Y-123340873D01*
X246620387Y-157798067D02*
G75*
G03X246620387Y-157798067I-200000J0D01*
G01*
X247610771Y-161059874D02*
X245910771Y-158115388D01*
X242619875Y-160015388D02*
X245910771Y-158115388D01*
X244319875Y-162959874D02*
X242619875Y-160015388D01*
X244319875Y-162959874D02*
X247610771Y-161059874D01*
X213697842Y-176474255D02*
G75*
G03X213697842Y-176474255I-200000J0D01*
G01*
X213803448Y-179933013D02*
X212923463Y-176648865D01*
X209252945Y-177632377D02*
X212923463Y-176648865D01*
X210132930Y-180916525D02*
X209252945Y-177632377D01*
X210132930Y-180916525D02*
X213803448Y-179933013D01*
X177179161Y-178385113D02*
G75*
G03X177179161Y-178385113I-200000J0D01*
G01*
X176379161Y-181805113D02*
X176379161Y-178405113D01*
X172579161Y-178405113D02*
X176379161Y-178405113D01*
X172579161Y-181805113D02*
X172579161Y-178405113D01*
X172579161Y-181805113D02*
X176379161Y-181805113D01*
X68332251Y-131710875D02*
G75*
G03X68332251Y-131710875I-725000J0D01*
G01*
X68332251Y-134250875D02*
G75*
G03X68332251Y-134250875I-725000J0D01*
G01*
X68332251Y-136790875D02*
G75*
G03X68332251Y-136790875I-725000J0D01*
G01*
X68332251Y-139330875D02*
G75*
G03X68332251Y-139330875I-725000J0D01*
G01*
X68332251Y-141870875D02*
G75*
G03X68332251Y-141870875I-725000J0D01*
G01*
X68332251Y-144410875D02*
G75*
G03X68332251Y-144410875I-725000J0D01*
G01*
X68332251Y-146950875D02*
G75*
G03X68332251Y-146950875I-725000J0D01*
G01*
X68332251Y-149490875D02*
G75*
G03X68332251Y-149490875I-725000J0D01*
G01*
X68332251Y-152030875D02*
G75*
G03X68332251Y-152030875I-725000J0D01*
G01*
X68332251Y-154570875D02*
G75*
G03X68332251Y-154570875I-725000J0D01*
G01*
X68332251Y-157110875D02*
G75*
G03X68332251Y-157110875I-725000J0D01*
G01*
X68332251Y-159650875D02*
G75*
G03X68332251Y-159650875I-725000J0D01*
G01*
X53092251Y-159650875D02*
G75*
G03X53092251Y-159650875I-725000J0D01*
G01*
X53092251Y-157110875D02*
G75*
G03X53092251Y-157110875I-725000J0D01*
G01*
X53092251Y-154570875D02*
G75*
G03X53092251Y-154570875I-725000J0D01*
G01*
X53092251Y-152030875D02*
G75*
G03X53092251Y-152030875I-725000J0D01*
G01*
X53092251Y-149490875D02*
G75*
G03X53092251Y-149490875I-725000J0D01*
G01*
X53092251Y-146950875D02*
G75*
G03X53092251Y-146950875I-725000J0D01*
G01*
X53092251Y-144410875D02*
G75*
G03X53092251Y-144410875I-725000J0D01*
G01*
X53092251Y-141870875D02*
G75*
G03X53092251Y-141870875I-725000J0D01*
G01*
X53092251Y-139330875D02*
G75*
G03X53092251Y-139330875I-725000J0D01*
G01*
X53092251Y-136790875D02*
G75*
G03X53092251Y-136790875I-725000J0D01*
G01*
X53092251Y-134250875D02*
G75*
G03X53092251Y-134250875I-725000J0D01*
G01*
X51642251Y-130985875D02*
X51642251Y-132435875D01*
X53092251Y-132435875D01*
X53092251Y-130985875D01*
X51642251Y-130985875D01*
%LPC*%
D14*
X82884404Y-144351428D02*
X82884404Y-145684761D01*
X82027261Y-144351428D02*
X82027261Y-145399047D01*
X82122500Y-145589523D01*
X82312976Y-145684761D01*
X82598690Y-145684761D01*
X82789166Y-145589523D01*
X82884404Y-145494285D01*
X85265357Y-143589523D02*
X83551071Y-146160952D01*
X87074880Y-145494285D02*
X86979642Y-145589523D01*
X86693928Y-145684761D01*
X86503452Y-145684761D01*
X86217738Y-145589523D01*
X86027261Y-145399047D01*
X85932023Y-145208571D01*
X85836785Y-144827619D01*
X85836785Y-144541904D01*
X85932023Y-144160952D01*
X86027261Y-143970476D01*
X86217738Y-143780000D01*
X86503452Y-143684761D01*
X86693928Y-143684761D01*
X86979642Y-143780000D01*
X87074880Y-143875238D01*
X88217738Y-145684761D02*
X88027261Y-145589523D01*
X87932023Y-145494285D01*
X87836785Y-145303809D01*
X87836785Y-144732380D01*
X87932023Y-144541904D01*
X88027261Y-144446666D01*
X88217738Y-144351428D01*
X88503452Y-144351428D01*
X88693928Y-144446666D01*
X88789166Y-144541904D01*
X88884404Y-144732380D01*
X88884404Y-145303809D01*
X88789166Y-145494285D01*
X88693928Y-145589523D01*
X88503452Y-145684761D01*
X88217738Y-145684761D01*
X90598690Y-144351428D02*
X90598690Y-145684761D01*
X89741547Y-144351428D02*
X89741547Y-145399047D01*
X89836785Y-145589523D01*
X90027261Y-145684761D01*
X90312976Y-145684761D01*
X90503452Y-145589523D01*
X90598690Y-145494285D01*
X91551071Y-145684761D02*
X91551071Y-144351428D01*
X91551071Y-144541904D02*
X91646309Y-144446666D01*
X91836785Y-144351428D01*
X92122500Y-144351428D01*
X92312976Y-144446666D01*
X92408214Y-144637142D01*
X92408214Y-145684761D01*
X92408214Y-144637142D02*
X92503452Y-144446666D01*
X92693928Y-144351428D01*
X92979642Y-144351428D01*
X93170119Y-144446666D01*
X93265357Y-144637142D01*
X93265357Y-145684761D01*
X94217738Y-145684761D02*
X94217738Y-143684761D01*
X94217738Y-144446666D02*
X94408214Y-144351428D01*
X94789166Y-144351428D01*
X94979642Y-144446666D01*
X95074880Y-144541904D01*
X95170119Y-144732380D01*
X95170119Y-145303809D01*
X95074880Y-145494285D01*
X94979642Y-145589523D01*
X94789166Y-145684761D01*
X94408214Y-145684761D01*
X94217738Y-145589523D01*
X96884404Y-145684761D02*
X96884404Y-144637142D01*
X96789166Y-144446666D01*
X96598690Y-144351428D01*
X96217738Y-144351428D01*
X96027261Y-144446666D01*
X96884404Y-145589523D02*
X96693928Y-145684761D01*
X96217738Y-145684761D01*
X96027261Y-145589523D01*
X95932023Y-145399047D01*
X95932023Y-145208571D01*
X96027261Y-145018095D01*
X96217738Y-144922857D01*
X96693928Y-144922857D01*
X96884404Y-144827619D01*
X97646309Y-144351428D02*
X98122500Y-145684761D01*
X98598690Y-144351428D02*
X98122500Y-145684761D01*
X97932023Y-146160952D01*
X97836785Y-146256190D01*
X97646309Y-146351428D01*
X100217738Y-145684761D02*
X100217738Y-144637142D01*
X100122500Y-144446666D01*
X99932023Y-144351428D01*
X99551071Y-144351428D01*
X99360595Y-144446666D01*
X100217738Y-145589523D02*
X100027261Y-145684761D01*
X99551071Y-145684761D01*
X99360595Y-145589523D01*
X99265357Y-145399047D01*
X99265357Y-145208571D01*
X99360595Y-145018095D01*
X99551071Y-144922857D01*
X100027261Y-144922857D01*
X100217738Y-144827619D01*
X51184473Y-181603568D02*
X51184473Y-179603568D01*
X52327330Y-181603568D02*
X51470187Y-180460711D01*
X52327330Y-179603568D02*
X51184473Y-180746426D01*
X53470187Y-181603568D02*
X53279711Y-181508330D01*
X53184473Y-181413092D01*
X53089235Y-181222616D01*
X53089235Y-180651187D01*
X53184473Y-180460711D01*
X53279711Y-180365473D01*
X53470187Y-180270235D01*
X53755901Y-180270235D01*
X53946377Y-180365473D01*
X54041615Y-180460711D01*
X54136854Y-180651187D01*
X54136854Y-181222616D01*
X54041615Y-181413092D01*
X53946377Y-181508330D01*
X53755901Y-181603568D01*
X53470187Y-181603568D01*
X54993996Y-180270235D02*
X54993996Y-182270235D01*
X54993996Y-180365473D02*
X55184473Y-180270235D01*
X55565425Y-180270235D01*
X55755901Y-180365473D01*
X55851139Y-180460711D01*
X55946377Y-180651187D01*
X55946377Y-181222616D01*
X55851139Y-181413092D01*
X55755901Y-181508330D01*
X55565425Y-181603568D01*
X55184473Y-181603568D01*
X54993996Y-181508330D01*
X57565425Y-181508330D02*
X57374949Y-181603568D01*
X56993996Y-181603568D01*
X56803520Y-181508330D01*
X56708282Y-181317854D01*
X56708282Y-180555949D01*
X56803520Y-180365473D01*
X56993996Y-180270235D01*
X57374949Y-180270235D01*
X57565425Y-180365473D01*
X57660663Y-180555949D01*
X57660663Y-180746426D01*
X56708282Y-180936902D01*
X58422568Y-181508330D02*
X58613044Y-181603568D01*
X58993996Y-181603568D01*
X59184473Y-181508330D01*
X59279711Y-181317854D01*
X59279711Y-181222616D01*
X59184473Y-181032140D01*
X58993996Y-180936902D01*
X58708282Y-180936902D01*
X58517806Y-180841664D01*
X58422568Y-180651187D01*
X58422568Y-180555949D01*
X58517806Y-180365473D01*
X58708282Y-180270235D01*
X58993996Y-180270235D01*
X59184473Y-180365473D01*
X60136854Y-181603568D02*
X60136854Y-179603568D01*
X60993996Y-181603568D02*
X60993996Y-180555949D01*
X60898758Y-180365473D01*
X60708282Y-180270235D01*
X60422568Y-180270235D01*
X60232092Y-180365473D01*
X60136854Y-180460711D01*
D15*
X89076654Y-140108111D03*
D16*
X89076654Y-132488111D03*
D17*
X67607251Y-131710875D03*
X67607251Y-134250875D03*
X67607251Y-136790875D03*
X67607251Y-139330875D03*
X67607251Y-141870875D03*
X67607251Y-144410875D03*
X67607251Y-146950875D03*
X67607251Y-149490875D03*
X67607251Y-152030875D03*
X67607251Y-154570875D03*
X67607251Y-157110875D03*
X67607251Y-159650875D03*
X52367251Y-159650875D03*
X52367251Y-157110875D03*
X52367251Y-154570875D03*
X52367251Y-152030875D03*
X52367251Y-149490875D03*
X52367251Y-146950875D03*
X52367251Y-144410875D03*
X52367251Y-141870875D03*
X52367251Y-139330875D03*
X52367251Y-136790875D03*
X52367251Y-134250875D03*
D15*
X52367251Y-131710875D03*
D18*
X56261000Y-167005000D03*
D19*
X58801000Y-167005000D03*
X61341000Y-167005000D03*
X63881000Y-167005000D03*
D20*
X215616358Y-143320719D03*
D21*
X215956653Y-148990128D03*
D20*
X211387096Y-148695423D03*
D22*
X211557244Y-151530128D03*
X220356062Y-146450128D03*
D23*
X133521660Y-179240112D03*
X138711660Y-180740112D03*
X138711660Y-179240112D03*
X133521660Y-180740112D03*
D13*
G36*
X276121968Y-142272381D02*
G01*
X276622968Y-143140139D01*
X275504064Y-143786139D01*
X275003064Y-142918381D01*
X276121968Y-142272381D01*
G37*
G36*
X281366640Y-140976419D02*
G01*
X281867640Y-141844177D01*
X280748736Y-142490177D01*
X280247736Y-141622419D01*
X281366640Y-140976419D01*
G37*
G36*
X280616640Y-139677381D02*
G01*
X281117640Y-140545139D01*
X279998736Y-141191139D01*
X279497736Y-140323381D01*
X280616640Y-139677381D01*
G37*
G36*
X276871968Y-143571419D02*
G01*
X277372968Y-144439177D01*
X276254064Y-145085177D01*
X275753064Y-144217419D01*
X276871968Y-143571419D01*
G37*
G36*
X345021323Y-109752755D02*
G01*
X345280659Y-110720613D01*
X344032683Y-111055007D01*
X343773347Y-110087149D01*
X345021323Y-109752755D01*
G37*
G36*
X350422707Y-109858373D02*
G01*
X350682043Y-110826231D01*
X349434067Y-111160625D01*
X349174731Y-110192767D01*
X350422707Y-109858373D01*
G37*
G36*
X350034478Y-108409484D02*
G01*
X350293814Y-109377342D01*
X349045838Y-109711736D01*
X348786502Y-108743878D01*
X350034478Y-108409484D01*
G37*
G36*
X345409552Y-111201644D02*
G01*
X345668888Y-112169502D01*
X344420912Y-112503896D01*
X344161576Y-111536038D01*
X345409552Y-111201644D01*
G37*
G36*
X308143440Y-122709732D02*
G01*
X308644440Y-123577490D01*
X307525536Y-124223490D01*
X307024536Y-123355732D01*
X308143440Y-122709732D01*
G37*
G36*
X313388112Y-121413770D02*
G01*
X313889112Y-122281528D01*
X312770208Y-122927528D01*
X312269208Y-122059770D01*
X313388112Y-121413770D01*
G37*
G36*
X312638112Y-120114732D02*
G01*
X313139112Y-120982490D01*
X312020208Y-121628490D01*
X311519208Y-120760732D01*
X312638112Y-120114732D01*
G37*
G36*
X308893440Y-124008770D02*
G01*
X309394440Y-124876528D01*
X308275536Y-125522528D01*
X307774536Y-124654770D01*
X308893440Y-124008770D01*
G37*
G36*
X242801939Y-160428733D02*
G01*
X243302939Y-161296491D01*
X242184035Y-161942491D01*
X241683035Y-161074733D01*
X242801939Y-160428733D01*
G37*
G36*
X248046611Y-159132771D02*
G01*
X248547611Y-160000529D01*
X247428707Y-160646529D01*
X246927707Y-159778771D01*
X248046611Y-159132771D01*
G37*
G36*
X247296611Y-157833733D02*
G01*
X247797611Y-158701491D01*
X246678707Y-159347491D01*
X246177707Y-158479733D01*
X247296611Y-157833733D01*
G37*
G36*
X243551939Y-161727771D02*
G01*
X244052939Y-162595529D01*
X242934035Y-163241529D01*
X242433035Y-162373771D01*
X243551939Y-161727771D01*
G37*
G36*
X209321824Y-178078760D02*
G01*
X209581160Y-179046618D01*
X208333184Y-179381012D01*
X208073848Y-178413154D01*
X209321824Y-178078760D01*
G37*
G36*
X214723208Y-178184378D02*
G01*
X214982544Y-179152236D01*
X213734568Y-179486630D01*
X213475232Y-178518772D01*
X214723208Y-178184378D01*
G37*
G36*
X214334979Y-176735489D02*
G01*
X214594315Y-177703347D01*
X213346339Y-178037741D01*
X213087003Y-177069883D01*
X214334979Y-176735489D01*
G37*
G36*
X209710053Y-179527649D02*
G01*
X209969389Y-180495507D01*
X208721413Y-180829901D01*
X208462077Y-179862043D01*
X209710053Y-179527649D01*
G37*
D23*
X171884161Y-179355113D03*
X177074161Y-180855113D03*
X177074161Y-179355113D03*
X171884161Y-180855113D03*
D20*
X255466355Y-98360715D03*
D21*
X255806650Y-104030124D03*
D20*
X251237093Y-103735419D03*
D22*
X251407241Y-106570124D03*
X260206059Y-101490124D03*
D20*
X120346649Y-131070121D03*
D21*
X117806649Y-136150121D03*
D20*
X113996649Y-133610121D03*
D22*
X112726649Y-136150121D03*
X122886649Y-136150121D03*
D20*
X365152204Y-94471011D03*
D21*
X364013553Y-100035315D03*
D20*
X359675975Y-98567964D03*
D22*
X359106650Y-101350116D03*
X368920456Y-98720514D03*
D20*
X360215303Y-76085817D03*
D21*
X359076652Y-81650121D03*
D20*
X354739074Y-80182770D03*
D22*
X354169749Y-82964922D03*
X363983555Y-80335320D03*
D20*
X355315300Y-57735818D03*
D21*
X354176649Y-63300122D03*
D20*
X349839071Y-61832771D03*
D22*
X349269746Y-64614923D03*
X359083552Y-61985321D03*
D20*
X346815304Y-99375809D03*
D21*
X345676653Y-104940113D03*
D20*
X341339075Y-103472762D03*
D22*
X340769750Y-106254914D03*
X350583556Y-103625312D03*
D20*
X341875301Y-81005817D03*
D21*
X340736650Y-86570121D03*
D20*
X336399072Y-85102770D03*
D22*
X335829747Y-87884922D03*
X345643553Y-85255320D03*
D20*
X336965302Y-62635812D03*
D21*
X335826651Y-68200116D03*
D20*
X331489073Y-66732765D03*
D22*
X330919748Y-69514917D03*
X340733554Y-66885315D03*
D20*
X328455307Y-104275819D03*
D21*
X327316656Y-109840123D03*
D20*
X322979078Y-108372772D03*
D22*
X322409753Y-111154924D03*
X332223559Y-108525322D03*
D20*
X323555297Y-85925819D03*
D21*
X322416646Y-91490123D03*
D20*
X318079068Y-90022772D03*
D22*
X317509743Y-92804924D03*
X327323549Y-90175322D03*
D20*
X318605303Y-67565817D03*
D21*
X317466652Y-73130121D03*
D20*
X313129074Y-71662770D03*
D22*
X312559749Y-74444922D03*
X322373555Y-71815320D03*
D20*
X307386354Y-112270705D03*
D21*
X307726649Y-117940114D03*
D20*
X303157092Y-117645409D03*
D22*
X303327240Y-120480114D03*
X312126058Y-115400114D03*
D20*
X297886354Y-95790709D03*
D21*
X298226649Y-101460118D03*
D20*
X293657092Y-101165413D03*
D22*
X293827240Y-104000118D03*
X302626058Y-98920118D03*
D20*
X288356353Y-79360708D03*
D21*
X288696648Y-85030117D03*
D20*
X284127091Y-84735412D03*
D22*
X284297239Y-87570117D03*
X293096057Y-82490117D03*
D20*
X290946361Y-121780715D03*
D21*
X291286656Y-127450124D03*
D20*
X286717099Y-127155419D03*
D22*
X286887247Y-129990124D03*
X295686065Y-124910124D03*
D20*
X281436359Y-105330708D03*
D21*
X281776654Y-111000117D03*
D20*
X277207097Y-110705412D03*
D22*
X277377245Y-113540117D03*
X286176063Y-108460117D03*
D20*
X271936360Y-88850709D03*
D21*
X272276655Y-94520118D03*
D20*
X267707098Y-94225413D03*
D22*
X267877246Y-97060118D03*
X276676064Y-91980118D03*
D20*
X274476358Y-131300710D03*
D21*
X274816653Y-136970119D03*
D20*
X270247096Y-136675414D03*
D22*
X270417244Y-139510119D03*
X279216062Y-134430119D03*
D20*
X264966354Y-114830712D03*
D21*
X265306649Y-120500121D03*
D20*
X260737092Y-120205416D03*
D22*
X260907240Y-123040121D03*
X269706058Y-117960121D03*
D20*
X258056357Y-140790713D03*
D21*
X258396652Y-146460122D03*
D20*
X253827095Y-146165417D03*
D22*
X253997243Y-149000122D03*
X262796061Y-143920122D03*
D20*
X248516353Y-124320712D03*
D21*
X248856648Y-129990121D03*
D20*
X244287091Y-129695416D03*
D22*
X244457239Y-132530121D03*
X253256057Y-127450121D03*
D20*
X239026361Y-107870710D03*
D21*
X239366656Y-113540119D03*
D20*
X234797099Y-113245414D03*
D22*
X234967247Y-116080119D03*
X243766065Y-111000119D03*
D20*
X241556351Y-150280712D03*
D21*
X241896646Y-155950121D03*
D20*
X237327089Y-155655416D03*
D22*
X237497237Y-158490121D03*
X246296055Y-153410121D03*
D20*
X232076353Y-133820713D03*
D21*
X232416648Y-139490122D03*
D20*
X227847091Y-139195417D03*
D22*
X228017239Y-142030122D03*
X236816057Y-136950122D03*
D20*
X222566358Y-117380714D03*
D21*
X222906653Y-123050123D03*
D20*
X218337096Y-122755418D03*
D22*
X218507244Y-125590123D03*
X227306062Y-120510123D03*
D20*
X225086361Y-159780715D03*
D21*
X225426656Y-165450124D03*
D20*
X220857099Y-165155419D03*
D22*
X221027247Y-167990124D03*
X229826065Y-162910124D03*
D20*
X206096356Y-126850709D03*
D21*
X206436651Y-132520118D03*
D20*
X201867094Y-132225413D03*
D22*
X202037242Y-135060118D03*
X210836060Y-129980118D03*
D20*
X196296652Y-169080117D03*
D21*
X193756652Y-174160117D03*
D20*
X189946652Y-171620117D03*
D22*
X188676652Y-174160117D03*
X198836652Y-174160117D03*
D20*
X196306645Y-150080123D03*
D21*
X193766645Y-155160123D03*
D20*
X189956645Y-152620123D03*
D22*
X188686645Y-155160123D03*
X198846645Y-155160123D03*
D20*
X177306649Y-169070120D03*
D21*
X174766649Y-174150120D03*
D20*
X170956649Y-171610120D03*
D22*
X169686649Y-174150120D03*
X179846649Y-174150120D03*
D20*
X177306658Y-150100122D03*
D21*
X174766658Y-155180122D03*
D20*
X170956658Y-152640122D03*
D22*
X169686658Y-155180122D03*
X179846658Y-155180122D03*
D20*
X177296650Y-131100116D03*
D21*
X174756650Y-136180116D03*
D20*
X170946650Y-133640116D03*
D22*
X169676650Y-136180116D03*
X179836650Y-136180116D03*
D20*
X158306654Y-169110119D03*
D21*
X155766654Y-174190119D03*
D20*
X151956654Y-171650119D03*
D22*
X150686654Y-174190119D03*
X160846654Y-174190119D03*
D20*
X158306648Y-150090119D03*
D21*
X155766648Y-155170119D03*
D20*
X151956648Y-152630119D03*
D22*
X150686648Y-155170119D03*
X160846648Y-155170119D03*
D20*
X158296650Y-131070123D03*
D21*
X155756650Y-136150123D03*
D20*
X151946650Y-133610123D03*
D22*
X150676650Y-136150123D03*
X160836650Y-136150123D03*
D20*
X139316652Y-169100124D03*
D21*
X136776652Y-174180124D03*
D20*
X132966652Y-171640124D03*
D22*
X131696652Y-174180124D03*
X141856652Y-174180124D03*
D20*
X139316654Y-150090125D03*
D21*
X136776654Y-155170125D03*
D20*
X132966654Y-152630125D03*
D22*
X131696654Y-155170125D03*
X141856654Y-155170125D03*
D20*
X139296658Y-131090114D03*
D21*
X136756658Y-136170114D03*
D20*
X132946658Y-133630114D03*
D22*
X131676658Y-136170114D03*
X141836658Y-136170114D03*
D20*
X120366655Y-169120121D03*
D21*
X117826655Y-174200121D03*
D20*
X114016655Y-171660121D03*
D22*
X112746655Y-174200121D03*
X122906655Y-174200121D03*
D20*
X120356656Y-150130122D03*
D21*
X117816656Y-155210122D03*
D20*
X114006656Y-152670122D03*
D22*
X112736656Y-155210122D03*
X122896656Y-155210122D03*
D20*
X101346650Y-169120119D03*
D21*
X98806650Y-174200119D03*
D20*
X94996650Y-171660119D03*
D22*
X93726650Y-174200119D03*
X103886650Y-174200119D03*
D20*
X101346649Y-150080116D03*
D21*
X98806649Y-155160116D03*
D20*
X94996649Y-152620116D03*
D22*
X93726649Y-155160116D03*
X103886649Y-155160116D03*
D20*
X101346654Y-131080123D03*
D21*
X98806654Y-136160123D03*
D20*
X94996654Y-133620123D03*
D22*
X93726654Y-136160123D03*
X103886654Y-136160123D03*
D20*
X82316650Y-169110120D03*
D21*
X79776650Y-174190120D03*
D20*
X75966650Y-171650120D03*
D22*
X74696650Y-174190120D03*
X84856650Y-174190120D03*
D20*
X82326658Y-150110118D03*
D21*
X79786658Y-155190118D03*
D20*
X75976658Y-152650118D03*
D22*
X74706658Y-155190118D03*
X84866658Y-155190118D03*
D20*
X82326651Y-131090121D03*
D21*
X79786651Y-136170121D03*
D20*
X75976651Y-133630121D03*
D22*
X74706651Y-136170121D03*
X84866651Y-136170121D03*
D13*
G36*
X373474908Y-102609866D02*
G01*
X371830902Y-103050376D01*
X371390392Y-101406370D01*
X373034398Y-100965860D01*
X373474908Y-102609866D01*
G37*
D24*
X370460449Y-94647763D02*
X370460449Y-94647763D01*
D13*
G36*
X368521909Y-83813866D02*
G01*
X366877903Y-84254376D01*
X366437393Y-82610370D01*
X368081399Y-82169860D01*
X368521909Y-83813866D01*
G37*
D24*
X365507450Y-75851763D02*
X365507450Y-75851763D01*
D13*
G36*
X363695911Y-65525871D02*
G01*
X362051905Y-65966381D01*
X361611395Y-64322375D01*
X363255401Y-63881865D01*
X363695911Y-65525871D01*
G37*
D24*
X360681452Y-57563768D02*
X360681452Y-57563768D01*
D13*
G36*
X236689138Y-164168604D02*
G01*
X235215162Y-165019604D01*
X234364162Y-163545628D01*
X235838138Y-162694628D01*
X236689138Y-164168604D01*
G37*
D24*
X231716650Y-157258002D02*
X231716650Y-157258002D01*
D13*
G36*
X227037140Y-147531602D02*
G01*
X225563164Y-148382602D01*
X224712164Y-146908626D01*
X226186140Y-146057626D01*
X227037140Y-147531602D01*
G37*
D24*
X222064652Y-140621000D02*
X222064652Y-140621000D01*
D13*
G36*
X217766143Y-131529607D02*
G01*
X216292167Y-132380607D01*
X215441167Y-130906631D01*
X216915143Y-130055631D01*
X217766143Y-131529607D01*
G37*
D24*
X212793655Y-124619005D02*
X212793655Y-124619005D01*
D13*
G36*
X356964906Y-107054868D02*
G01*
X355320900Y-107495378D01*
X354880390Y-105851372D01*
X356524396Y-105410862D01*
X356964906Y-107054868D01*
G37*
D24*
X353950447Y-99092765D02*
X353950447Y-99092765D01*
D13*
G36*
X351884905Y-88385867D02*
G01*
X350240899Y-88826377D01*
X349800389Y-87182371D01*
X351444395Y-86741861D01*
X351884905Y-88385867D01*
G37*
D24*
X348870446Y-80423764D02*
X348870446Y-80423764D01*
D13*
G36*
X346931911Y-69970870D02*
G01*
X345287905Y-70411380D01*
X344847395Y-68767374D01*
X346491401Y-68326864D01*
X346931911Y-69970870D01*
G37*
D24*
X343917452Y-62008767D02*
X343917452Y-62008767D01*
D15*
X203268649Y-178081124D03*
D16*
X203268649Y-170461124D03*
D15*
X203268649Y-159285118D03*
D16*
X203268649Y-151665118D03*
D13*
G36*
X338549911Y-111880877D02*
G01*
X336905905Y-112321387D01*
X336465395Y-110677381D01*
X338109401Y-110236871D01*
X338549911Y-111880877D01*
G37*
D24*
X335535452Y-103918774D02*
X335535452Y-103918774D01*
D13*
G36*
X333596906Y-93338867D02*
G01*
X331952900Y-93779377D01*
X331512390Y-92135371D01*
X333156396Y-91694861D01*
X333596906Y-93338867D01*
G37*
D24*
X330582447Y-85376764D02*
X330582447Y-85376764D01*
D13*
G36*
X328643906Y-74923870D02*
G01*
X326999900Y-75364380D01*
X326559390Y-73720374D01*
X328203396Y-73279864D01*
X328643906Y-74923870D01*
G37*
D24*
X325629447Y-66961767D02*
X325629447Y-66961767D01*
D15*
X184218652Y-178081117D03*
D16*
X184218652Y-170461117D03*
D15*
X184171654Y-159285123D03*
D16*
X184171654Y-151665123D03*
D15*
X184218648Y-140108118D03*
D16*
X184218648Y-132488118D03*
D13*
G36*
X318985139Y-116670606D02*
G01*
X317511163Y-117521606D01*
X316660163Y-116047630D01*
X318134139Y-115196630D01*
X318985139Y-116670606D01*
G37*
D24*
X314012651Y-109760004D02*
X314012651Y-109760004D01*
D13*
G36*
X309968136Y-100922609D02*
G01*
X308494160Y-101773609D01*
X307643160Y-100299633D01*
X309117136Y-99448633D01*
X309968136Y-100922609D01*
G37*
D24*
X304995648Y-94012007D02*
X304995648Y-94012007D01*
D13*
G36*
X300443140Y-84666610D02*
G01*
X298969164Y-85517610D01*
X298118164Y-84043634D01*
X299592140Y-83192634D01*
X300443140Y-84666610D01*
G37*
D24*
X295470652Y-77756008D02*
X295470652Y-77756008D01*
D15*
X165295653Y-178081119D03*
D16*
X165295653Y-170461119D03*
D15*
X165295650Y-159158123D03*
D16*
X165295650Y-151538123D03*
D15*
X165295655Y-140108121D03*
D16*
X165295655Y-132488121D03*
D13*
G36*
X302475137Y-126195599D02*
G01*
X301001161Y-127046599D01*
X300150161Y-125572623D01*
X301624137Y-124721623D01*
X302475137Y-126195599D01*
G37*
D24*
X297502649Y-119284997D02*
X297502649Y-119284997D01*
D13*
G36*
X293331143Y-110320611D02*
G01*
X291857167Y-111171611D01*
X291006167Y-109697635D01*
X292480143Y-108846635D01*
X293331143Y-110320611D01*
G37*
D24*
X288358655Y-103410009D02*
X288358655Y-103410009D01*
D13*
G36*
X283806146Y-93937609D02*
G01*
X282332170Y-94788609D01*
X281481170Y-93314633D01*
X282955146Y-92463633D01*
X283806146Y-93937609D01*
G37*
D24*
X278833658Y-87027007D02*
X278833658Y-87027007D01*
D15*
X146245646Y-178081124D03*
D16*
X146245646Y-170461124D03*
D15*
X146245652Y-159031121D03*
D16*
X146245652Y-151411121D03*
D15*
X146245649Y-140108121D03*
D16*
X146245649Y-132488121D03*
D13*
G36*
X286092142Y-135720615D02*
G01*
X284618166Y-136571615D01*
X283767166Y-135097639D01*
X285241142Y-134246639D01*
X286092142Y-135720615D01*
G37*
D24*
X281119654Y-128810013D02*
X281119654Y-128810013D01*
D13*
G36*
X276821141Y-119718603D02*
G01*
X275347165Y-120569603D01*
X274496165Y-119095627D01*
X275970141Y-118244627D01*
X276821141Y-119718603D01*
G37*
D24*
X271848653Y-112808001D02*
X271848653Y-112808001D01*
D13*
G36*
X267296140Y-103208611D02*
G01*
X265822164Y-104059611D01*
X264971164Y-102585635D01*
X266445140Y-101734635D01*
X267296140Y-103208611D01*
G37*
D24*
X262323652Y-96298009D02*
X262323652Y-96298009D01*
D15*
X127322653Y-178081124D03*
D16*
X127322653Y-170461124D03*
D15*
X127322651Y-158904123D03*
D16*
X127322651Y-151284123D03*
D15*
X127322655Y-140108126D03*
D16*
X127322655Y-132488126D03*
D13*
G36*
X269582143Y-145245605D02*
G01*
X268108167Y-146096605D01*
X267257167Y-144622629D01*
X268731143Y-143771629D01*
X269582143Y-145245605D01*
G37*
D24*
X264609655Y-138335003D02*
X264609655Y-138335003D01*
D13*
G36*
X260311147Y-128989606D02*
G01*
X258837171Y-129840606D01*
X257986171Y-128366630D01*
X259460147Y-127515630D01*
X260311147Y-128989606D01*
G37*
D24*
X255338659Y-122079004D02*
X255338659Y-122079004D01*
D13*
G36*
X250659135Y-112606604D02*
G01*
X249185159Y-113457604D01*
X248334159Y-111983628D01*
X249808135Y-111132628D01*
X250659135Y-112606604D01*
G37*
D24*
X245686647Y-105696002D02*
X245686647Y-105696002D01*
D15*
X108272654Y-178081117D03*
D16*
X108272654Y-170461117D03*
D15*
X108272652Y-158904120D03*
D16*
X108272652Y-151284120D03*
D15*
X108272654Y-140108123D03*
D16*
X108272654Y-132488123D03*
D13*
G36*
X253199141Y-154770616D02*
G01*
X251725165Y-155621616D01*
X250874165Y-154147640D01*
X252348141Y-153296640D01*
X253199141Y-154770616D01*
G37*
D24*
X248226653Y-147860014D02*
X248226653Y-147860014D01*
D13*
G36*
X243674136Y-138260603D02*
G01*
X242200160Y-139111603D01*
X241349160Y-137637627D01*
X242823136Y-136786627D01*
X243674136Y-138260603D01*
G37*
D24*
X238701648Y-131350001D02*
X238701648Y-131350001D01*
D13*
G36*
X234149141Y-121877608D02*
G01*
X232675165Y-122728608D01*
X231824165Y-121254632D01*
X233298141Y-120403632D01*
X234149141Y-121877608D01*
G37*
D24*
X229176653Y-114967006D02*
X229176653Y-114967006D01*
D15*
X89349657Y-178208127D03*
D16*
X89349657Y-170588127D03*
D15*
X89349650Y-159031124D03*
D16*
X89349650Y-151411124D03*
M02*
