G04 #@! TF.GenerationSoftware,KiCad,Pcbnew,(5.1.5)-3*
G04 #@! TF.CreationDate,2020-03-28T17:37:08+01:00*
G04 #@! TF.ProjectId,kopesh,6b6f7065-7368-42e6-9b69-6361645f7063,rev?*
G04 #@! TF.SameCoordinates,Original*
G04 #@! TF.FileFunction,Legend,Bot*
G04 #@! TF.FilePolarity,Positive*
%FSLAX46Y46*%
G04 Gerber Fmt 4.6, Leading zero omitted, Abs format (unit mm)*
G04 Created by KiCad (PCBNEW (5.1.5)-3) date 2020-03-28 17:37:08*
%MOMM*%
%LPD*%
G04 APERTURE LIST*
%ADD10C,1.000000*%
%ADD11C,1.200000*%
%ADD12C,0.050000*%
%ADD13C,0.120000*%
%ADD14C,0.150000*%
%ADD15R,1.702000X1.702000*%
%ADD16O,1.702000X1.702000*%
%ADD17C,1.702000*%
%ADD18R,1.832000X2.132000*%
%ADD19O,1.832000X2.132000*%
%ADD20R,3.102000X2.852000*%
%ADD21C,2.352000*%
%ADD22C,4.089800*%
%ADD23C,1.852000*%
%ADD24C,1.702000*%
G04 APERTURE END LIST*
D10*
X235504841Y-129945312D02*
X236248866Y-128606082D01*
X234986667Y-131408591D02*
X235504841Y-129945312D01*
X234724265Y-132928726D02*
X234986667Y-131408591D01*
X234747546Y-134438526D02*
X234724265Y-132928726D01*
X234936556Y-135406139D02*
X234747546Y-134438526D01*
X362250090Y-72956156D02*
X362008649Y-71109192D01*
X362269865Y-74797519D02*
X362250090Y-72956156D01*
X362089229Y-76628768D02*
X362269865Y-74797519D01*
X361729436Y-78445391D02*
X362089229Y-76628768D01*
X360910239Y-81106153D02*
X361729436Y-78445391D01*
X359812494Y-83709950D02*
X360910239Y-81106153D01*
X358505781Y-86242012D02*
X359812494Y-83709950D01*
X357059693Y-88687568D02*
X358505781Y-86242012D01*
X355543809Y-91031844D02*
X357059693Y-88687568D01*
X354027560Y-93260129D02*
X355543809Y-91031844D01*
X353422793Y-94153729D02*
X354027718Y-93260071D01*
X235274699Y-136319388D02*
X234936556Y-135406139D01*
X235770836Y-137158364D02*
X235274699Y-136319388D01*
X236433836Y-137903159D02*
X235770836Y-137158364D01*
X237272560Y-138533864D02*
X236433836Y-137903159D01*
X238295786Y-139030605D02*
X237272560Y-138533864D01*
X344309843Y-88245705D02*
X345403993Y-89313000D01*
X343398696Y-87615162D02*
X344309843Y-88245705D01*
X342442618Y-87203527D02*
X343398696Y-87615162D01*
X341794795Y-87083277D02*
X342442618Y-87203527D01*
X341148784Y-87109154D02*
X341794795Y-87083277D01*
X340513186Y-87300738D02*
X341148784Y-87109154D01*
X305453296Y-95638917D02*
X306766135Y-95245720D01*
X304131974Y-96201292D02*
X305453296Y-95638917D01*
X302859535Y-96921522D02*
X304131974Y-96201292D01*
X301693343Y-97788288D02*
X302859535Y-96921522D01*
X300690758Y-98790275D02*
X301693343Y-97788288D01*
X299907023Y-99916407D02*
X300690758Y-98790275D01*
X299311093Y-101165698D02*
X299907023Y-99916407D01*
X298757647Y-102550407D02*
X299311093Y-101165698D01*
X298121096Y-104006824D02*
X298757647Y-102550407D01*
X297755145Y-104678698D02*
X298121096Y-104006824D01*
X297351150Y-105261546D02*
X297755145Y-104678698D01*
X296904413Y-105716765D02*
X297351150Y-105261546D01*
X296410257Y-106005882D02*
X296904413Y-105716765D01*
X295866915Y-106111830D02*
X296410257Y-106005882D01*
X295278709Y-106062256D02*
X295866915Y-106111830D01*
X294442195Y-105815039D02*
X295278709Y-106062256D01*
X293548062Y-105431278D02*
X294442195Y-105815039D01*
X292608000Y-104987462D02*
X293548062Y-105431278D01*
X291633703Y-104560085D02*
X292608000Y-104987462D01*
X290618603Y-104220890D02*
X291633703Y-104560085D01*
X289592474Y-104058537D02*
X290618603Y-104220890D01*
X288566985Y-104101606D02*
X289592474Y-104058537D01*
X287552275Y-104261394D02*
X288566985Y-104101606D01*
X286554716Y-104462932D02*
X287552275Y-104261394D01*
X283672271Y-105225448D02*
X286554716Y-104462932D01*
X280876056Y-106154605D02*
X283672271Y-105225448D01*
X278110561Y-107151606D02*
X280876056Y-106154605D01*
X273328993Y-108819391D02*
X278110561Y-107151606D01*
X268511217Y-110464484D02*
X273328993Y-108819391D01*
X263710045Y-112184063D02*
X268511217Y-110464484D01*
X258978297Y-114075314D02*
X263710045Y-112184063D01*
X254368424Y-116233647D02*
X258978297Y-114075314D01*
X249922851Y-118706265D02*
X254368424Y-116233647D01*
X245630842Y-121432786D02*
X249922851Y-118706265D01*
X243749045Y-122625094D02*
X245630842Y-121432786D01*
X241862483Y-123811409D02*
X243749045Y-122625094D01*
X240016412Y-125053265D02*
X241862483Y-123811409D01*
X238259429Y-126416041D02*
X240016412Y-125053265D01*
X237184394Y-127438991D02*
X238259429Y-126416041D01*
X236248866Y-128606082D02*
X237184394Y-127438991D01*
X347471570Y-93733557D02*
X347649768Y-94950087D01*
X347251125Y-92627101D02*
X347471570Y-93733557D01*
X346930028Y-91675344D02*
X347251125Y-92627101D01*
X346296296Y-90495978D02*
X346930028Y-91675344D01*
X345403993Y-89313000D02*
X346296296Y-90495978D01*
D11*
X220922830Y-119432742D02*
X214498235Y-136523929D01*
X354681505Y-83675160D02*
G75*
G03X354681505Y-83675160I-2006808J0D01*
G01*
X357699352Y-74008572D02*
G75*
G03X357699352Y-74008572I-1935987J0D01*
G01*
X326594961Y-81942112D02*
G75*
G03X326594961Y-81942112I-1980175J0D01*
G01*
X301849525Y-89305846D02*
G75*
G03X301849525Y-89305846I-2050430J0D01*
G01*
D10*
X352873086Y-95071975D02*
X353422793Y-94153729D01*
X352282695Y-95960734D02*
X352873086Y-95071975D01*
X351555727Y-96765925D02*
X352282695Y-95960734D01*
X350604467Y-97429662D02*
X351555727Y-96765925D01*
X349933581Y-97711309D02*
X350604467Y-97429662D01*
X349296216Y-97818621D02*
X349933581Y-97711309D01*
X348769144Y-97693971D02*
X349296216Y-97818621D01*
X348375151Y-97343304D02*
X348769144Y-97693971D01*
X348085056Y-96811217D02*
X348375151Y-97343304D01*
X347827874Y-95943612D02*
X348085056Y-96811217D01*
X347649768Y-94950087D02*
X347827874Y-95943612D01*
X238077039Y-140355657D02*
X238629746Y-139947875D01*
X237373513Y-140874681D02*
X238077039Y-140355657D01*
X214049896Y-136897521D02*
X214498235Y-136523929D01*
X213479280Y-137373000D02*
X214049896Y-136897521D01*
X226386261Y-115405223D02*
X220922830Y-119432742D01*
X359741644Y-65579858D02*
X319605964Y-76175246D01*
D11*
X290587403Y-85066726D02*
X358474021Y-67153969D01*
X287932853Y-85611987D02*
X294419263Y-103433253D01*
X306766135Y-95245720D02*
X340866883Y-87172002D01*
X105711457Y-155352539D02*
X84078313Y-172724201D01*
D10*
X141618756Y-163408669D02*
X146352953Y-162592952D01*
X136852118Y-164004956D02*
X141618756Y-163408669D01*
X132058706Y-164323372D02*
X136852118Y-164004956D01*
X128887952Y-164347082D02*
X132058706Y-164323372D01*
X125721078Y-164194553D02*
X128887952Y-164347082D01*
X122569986Y-163837627D02*
X125721078Y-164194553D01*
X119454724Y-163246264D02*
X122569986Y-163837627D01*
X117226550Y-162652594D02*
X119454724Y-163246264D01*
X115044435Y-161905653D02*
X117226550Y-162652594D01*
X112928015Y-160987928D02*
X115044435Y-161905653D01*
X110903489Y-159883348D02*
X112928015Y-160987928D01*
X231997720Y-111614704D02*
X226386261Y-115405223D01*
X237757202Y-108061187D02*
X231997720Y-111614704D01*
X243664711Y-104744669D02*
X237757202Y-108061187D01*
X249831717Y-101611357D02*
X243664711Y-104744669D01*
X256152182Y-98723741D02*
X249831717Y-101611357D01*
X262626105Y-96081822D02*
X256152182Y-98723741D01*
X269253487Y-93685602D02*
X262626105Y-96081822D01*
X276034257Y-91535103D02*
X269253487Y-93685602D01*
X277313656Y-91249108D02*
X276034324Y-91535079D01*
X278464127Y-90772882D02*
X277313656Y-91249108D01*
X279513414Y-90146762D02*
X278464127Y-90772882D01*
X280489190Y-89411109D02*
X279513414Y-90146762D01*
X281419132Y-88606282D02*
X280489190Y-89411109D01*
X282386198Y-87722082D02*
X281419132Y-88606282D01*
X283365851Y-86853623D02*
X282386198Y-87722082D01*
X109002112Y-158578254D02*
X110903489Y-159883348D01*
X107259240Y-157068137D02*
X109002112Y-158578254D01*
X105711438Y-155352544D02*
X107259240Y-157068137D01*
X94097654Y-172879926D02*
X88256824Y-171203348D01*
X100017860Y-174250177D02*
X94097654Y-172879926D01*
X106000801Y-175314128D02*
X100017860Y-174250177D01*
X112029760Y-176075121D02*
X106000801Y-175314128D01*
X118088816Y-176539597D02*
X112029760Y-176075121D01*
X124531519Y-176718338D02*
X118088816Y-176539597D01*
X130975560Y-176587125D02*
X124531519Y-176718338D01*
X137406812Y-176161314D02*
X130975560Y-176587125D01*
X222677017Y-147075903D02*
X215582500Y-151193500D01*
X229593268Y-142665487D02*
X222677017Y-147075903D01*
X236313257Y-137961651D02*
X229593268Y-142665487D01*
D11*
X237373594Y-140874654D02*
G75*
G02X220111771Y-151947056I-102230404J140384964D01*
G01*
D10*
X213250089Y-155631198D02*
X220111790Y-151947048D01*
X206251524Y-159048358D02*
X213250089Y-155631198D01*
X199134890Y-162212553D02*
X206251524Y-159048358D01*
X191917057Y-165138515D02*
X199134890Y-162212553D01*
X184612691Y-167841417D02*
X191917057Y-165138515D01*
X177231092Y-170325545D02*
X184612691Y-167841417D01*
X169773012Y-172569647D02*
X177231092Y-170325545D01*
X194177703Y-147315378D02*
X197487637Y-145840557D01*
X190850813Y-148751539D02*
X194177703Y-147315378D01*
X185882930Y-150817981D02*
X190850813Y-148751539D01*
X180882418Y-152803843D02*
X185882930Y-150817981D01*
X175845549Y-154697628D02*
X180882418Y-152803843D01*
X170753636Y-156436645D02*
X175845549Y-154697628D01*
X165583600Y-157926112D02*
X170753636Y-156436645D01*
X160380381Y-159295985D02*
X165583600Y-157926112D01*
X155728164Y-160494187D02*
X160380381Y-159295985D01*
X151054651Y-161606500D02*
X155728164Y-160494187D01*
X146352953Y-162592952D02*
X151054651Y-161606500D01*
X284391110Y-86049056D02*
X283365851Y-86853623D01*
X285494991Y-85356533D02*
X284391110Y-86049056D01*
X286710513Y-84824207D02*
X285494991Y-85356533D01*
X288070588Y-84500267D02*
X286710513Y-84824207D01*
X319605964Y-76175246D02*
X288070690Y-84500230D01*
X162239954Y-174547187D02*
X169773012Y-172569647D01*
X155429665Y-176069352D02*
X162239954Y-174547187D01*
X148566533Y-177333070D02*
X155429665Y-176069352D01*
X141657679Y-178315702D02*
X148566533Y-177333070D01*
X134712462Y-178994202D02*
X141657679Y-178315702D01*
X127743197Y-179345596D02*
X134712462Y-178994202D01*
X121399250Y-179362593D02*
X127743197Y-179345596D01*
X115061876Y-179075692D02*
X121399250Y-179362593D01*
X108746792Y-178471555D02*
X115061876Y-179075692D01*
X102471640Y-177539590D02*
X108746792Y-178471555D01*
X96255637Y-176272570D02*
X102471640Y-177539590D01*
X210439516Y-139345975D02*
X213479282Y-137372999D01*
X207270869Y-141103520D02*
X210439516Y-139345975D01*
X204041733Y-142748173D02*
X207270869Y-141103520D01*
X200777689Y-144321739D02*
X204041733Y-142748173D01*
X197487637Y-145840557D02*
X200777689Y-144321739D01*
X90118296Y-174667254D02*
X96255637Y-176272570D01*
X84078313Y-172724201D02*
X90118296Y-174667254D01*
X87407207Y-170858257D02*
X86739651Y-170587116D01*
X88256822Y-171203349D02*
X87407207Y-170858257D01*
X238548488Y-139167343D02*
X238295875Y-139030573D01*
X238700035Y-139340800D02*
X238548488Y-139167343D01*
X238746745Y-139614624D02*
X238700035Y-139340800D01*
X238629656Y-139947907D02*
X238746745Y-139614624D01*
X360775741Y-67416509D02*
X359741766Y-65579813D01*
X361524284Y-69261139D02*
X360775741Y-67416509D01*
X362008649Y-71109192D02*
X361524284Y-69261139D01*
X143813666Y-175457533D02*
X137406812Y-176161314D01*
X150186409Y-174493066D02*
X143813666Y-175457533D01*
X156517553Y-173285328D02*
X150186409Y-174493066D01*
X164052041Y-171539056D02*
X156517553Y-173285328D01*
X171511577Y-169495743D02*
X164052041Y-171539056D01*
X178891891Y-167182481D02*
X171511577Y-169495743D01*
X186189539Y-164620357D02*
X178891891Y-167182481D01*
X193395700Y-161811175D02*
X186189539Y-164620357D01*
X200926157Y-158558183D02*
X193395700Y-161811175D01*
X208326819Y-155020046D02*
X200926157Y-158558183D01*
X215582500Y-151193500D02*
X208326819Y-155020046D01*
D12*
X375136651Y-106420121D02*
X360606650Y-52170125D01*
X320476648Y-121060124D02*
X375136651Y-106420121D01*
X212926648Y-183250129D02*
X320476648Y-121060124D01*
X49936648Y-183250121D02*
X212926648Y-183250129D01*
X49926648Y-127100116D02*
X49936648Y-183250121D01*
X197736650Y-127090122D02*
X49926648Y-127100116D01*
X300336652Y-67850125D02*
X197736650Y-127090122D01*
X360606650Y-52170125D02*
X300336652Y-67850125D01*
D13*
X90136654Y-138358111D02*
X88016654Y-138358111D01*
X88016654Y-138358111D02*
X88016654Y-134238111D01*
X88016654Y-134238111D02*
X90136654Y-134238111D01*
X90136654Y-134238111D02*
X90136654Y-138358111D01*
X89076654Y-139128111D02*
X89076654Y-138358111D01*
X89076654Y-133468111D02*
X89076654Y-134238111D01*
X90136654Y-137698111D02*
X88016654Y-137698111D01*
D14*
X68877251Y-130440875D02*
X68877251Y-160920875D01*
X63797251Y-130440875D02*
X68877251Y-130440875D01*
X63797251Y-127900875D02*
X63797251Y-130440875D01*
X56177251Y-127900875D02*
X63797251Y-127900875D01*
X56177251Y-130440875D02*
X56177251Y-127900875D01*
X51097251Y-130440875D02*
X56177251Y-130440875D01*
X51097251Y-160920875D02*
X51097251Y-130440875D01*
X68877251Y-160920875D02*
X51097251Y-160920875D01*
X138016660Y-181690112D02*
X138016660Y-178290112D01*
X134216660Y-178290112D02*
X138016660Y-178290112D01*
X134216660Y-181690112D02*
X134216660Y-178290112D01*
X134216660Y-181690112D02*
X138016660Y-181690112D01*
X280930800Y-142903522D02*
X279230800Y-139959036D01*
X275939904Y-141859036D02*
X279230800Y-139959036D01*
X277639904Y-144803522D02*
X275939904Y-141859036D01*
X277639904Y-144803522D02*
X280930800Y-142903522D01*
X349502947Y-111607008D02*
X348622962Y-108322860D01*
X344952444Y-109306372D02*
X348622962Y-108322860D01*
X345832429Y-112590520D02*
X344952444Y-109306372D01*
X345832429Y-112590520D02*
X349502947Y-111607008D01*
X312952272Y-123340873D02*
X311252272Y-120396387D01*
X307961376Y-122296387D02*
X311252272Y-120396387D01*
X309661376Y-125240873D02*
X307961376Y-122296387D01*
X309661376Y-125240873D02*
X312952272Y-123340873D01*
X247610771Y-161059874D02*
X245910771Y-158115388D01*
X242619875Y-160015388D02*
X245910771Y-158115388D01*
X244319875Y-162959874D02*
X242619875Y-160015388D01*
X244319875Y-162959874D02*
X247610771Y-161059874D01*
X213803448Y-179933013D02*
X212923463Y-176648865D01*
X209252945Y-177632377D02*
X212923463Y-176648865D01*
X210132930Y-180916525D02*
X209252945Y-177632377D01*
X210132930Y-180916525D02*
X213803448Y-179933013D01*
X176379161Y-181805113D02*
X176379161Y-178405113D01*
X172579161Y-178405113D02*
X176379161Y-178405113D01*
X172579161Y-181805113D02*
X172579161Y-178405113D01*
X172579161Y-181805113D02*
X176379161Y-181805113D01*
D13*
X373003598Y-100043400D02*
X370955835Y-100592096D01*
X370955835Y-100592096D02*
X369889501Y-96612482D01*
X369889501Y-96612482D02*
X371937264Y-96063785D01*
X371937264Y-96063785D02*
X373003598Y-100043400D01*
X372179007Y-101061511D02*
X371979717Y-100317748D01*
X370714092Y-95594371D02*
X370913382Y-96338133D01*
X372832777Y-99405889D02*
X370785015Y-99954585D01*
X368050599Y-81247400D02*
X366002836Y-81796096D01*
X366002836Y-81796096D02*
X364936502Y-77816482D01*
X364936502Y-77816482D02*
X366984265Y-77267785D01*
X366984265Y-77267785D02*
X368050599Y-81247400D01*
X367226008Y-82265511D02*
X367026718Y-81521748D01*
X365761093Y-76798371D02*
X365960383Y-77542133D01*
X367879778Y-80609889D02*
X365832016Y-81158585D01*
X363224601Y-62959405D02*
X361176838Y-63508101D01*
X361176838Y-63508101D02*
X360110504Y-59528487D01*
X360110504Y-59528487D02*
X362158267Y-58979790D01*
X362158267Y-58979790D02*
X363224601Y-62959405D01*
X362400010Y-63977516D02*
X362200720Y-63233753D01*
X360935095Y-58510376D02*
X361134385Y-59254138D01*
X363053780Y-62321894D02*
X361006018Y-62870590D01*
X235569637Y-161811572D02*
X233733663Y-162871572D01*
X233733663Y-162871572D02*
X231673663Y-159303547D01*
X231673663Y-159303547D02*
X233509637Y-158243547D01*
X233509637Y-158243547D02*
X235569637Y-161811572D01*
X235036650Y-163008411D02*
X234651650Y-162341572D01*
X232206650Y-158106707D02*
X232591650Y-158773547D01*
X235239637Y-161239995D02*
X233403663Y-162299995D01*
X225917639Y-145174570D02*
X224081665Y-146234570D01*
X224081665Y-146234570D02*
X222021665Y-142666545D01*
X222021665Y-142666545D02*
X223857639Y-141606545D01*
X223857639Y-141606545D02*
X225917639Y-145174570D01*
X225384652Y-146371409D02*
X224999652Y-145704570D01*
X222554652Y-141469705D02*
X222939652Y-142136545D01*
X225587639Y-144602993D02*
X223751665Y-145662993D01*
X216646642Y-129172575D02*
X214810668Y-130232575D01*
X214810668Y-130232575D02*
X212750668Y-126664550D01*
X212750668Y-126664550D02*
X214586642Y-125604550D01*
X214586642Y-125604550D02*
X216646642Y-129172575D01*
X216113655Y-130369414D02*
X215728655Y-129702575D01*
X213283655Y-125467710D02*
X213668655Y-126134550D01*
X216316642Y-128600998D02*
X214480668Y-129660998D01*
X356493596Y-104488402D02*
X354445833Y-105037098D01*
X354445833Y-105037098D02*
X353379499Y-101057484D01*
X353379499Y-101057484D02*
X355427262Y-100508787D01*
X355427262Y-100508787D02*
X356493596Y-104488402D01*
X355669005Y-105506513D02*
X355469715Y-104762750D01*
X354204090Y-100039373D02*
X354403380Y-100783135D01*
X356322775Y-103850891D02*
X354275013Y-104399587D01*
X351413595Y-85819401D02*
X349365832Y-86368097D01*
X349365832Y-86368097D02*
X348299498Y-82388483D01*
X348299498Y-82388483D02*
X350347261Y-81839786D01*
X350347261Y-81839786D02*
X351413595Y-85819401D01*
X350589004Y-86837512D02*
X350389714Y-86093749D01*
X349124089Y-81370372D02*
X349323379Y-82114134D01*
X351242774Y-85181890D02*
X349195012Y-85730586D01*
X346460601Y-67404404D02*
X344412838Y-67953100D01*
X344412838Y-67953100D02*
X343346504Y-63973486D01*
X343346504Y-63973486D02*
X345394267Y-63424789D01*
X345394267Y-63424789D02*
X346460601Y-67404404D01*
X345636010Y-68422515D02*
X345436720Y-67678752D01*
X344171095Y-62955375D02*
X344370385Y-63699137D01*
X346289780Y-66766893D02*
X344242018Y-67315589D01*
X204328649Y-176331124D02*
X202208649Y-176331124D01*
X202208649Y-176331124D02*
X202208649Y-172211124D01*
X202208649Y-172211124D02*
X204328649Y-172211124D01*
X204328649Y-172211124D02*
X204328649Y-176331124D01*
X203268649Y-177101124D02*
X203268649Y-176331124D01*
X203268649Y-171441124D02*
X203268649Y-172211124D01*
X204328649Y-175671124D02*
X202208649Y-175671124D01*
X204328649Y-157535118D02*
X202208649Y-157535118D01*
X202208649Y-157535118D02*
X202208649Y-153415118D01*
X202208649Y-153415118D02*
X204328649Y-153415118D01*
X204328649Y-153415118D02*
X204328649Y-157535118D01*
X203268649Y-158305118D02*
X203268649Y-157535118D01*
X203268649Y-152645118D02*
X203268649Y-153415118D01*
X204328649Y-156875118D02*
X202208649Y-156875118D01*
X338078601Y-109314411D02*
X336030838Y-109863107D01*
X336030838Y-109863107D02*
X334964504Y-105883493D01*
X334964504Y-105883493D02*
X337012267Y-105334796D01*
X337012267Y-105334796D02*
X338078601Y-109314411D01*
X337254010Y-110332522D02*
X337054720Y-109588759D01*
X335789095Y-104865382D02*
X335988385Y-105609144D01*
X337907780Y-108676900D02*
X335860018Y-109225596D01*
X333125596Y-90772401D02*
X331077833Y-91321097D01*
X331077833Y-91321097D02*
X330011499Y-87341483D01*
X330011499Y-87341483D02*
X332059262Y-86792786D01*
X332059262Y-86792786D02*
X333125596Y-90772401D01*
X332301005Y-91790512D02*
X332101715Y-91046749D01*
X330836090Y-86323372D02*
X331035380Y-87067134D01*
X332954775Y-90134890D02*
X330907013Y-90683586D01*
X328172596Y-72357404D02*
X326124833Y-72906100D01*
X326124833Y-72906100D02*
X325058499Y-68926486D01*
X325058499Y-68926486D02*
X327106262Y-68377789D01*
X327106262Y-68377789D02*
X328172596Y-72357404D01*
X327348005Y-73375515D02*
X327148715Y-72631752D01*
X325883090Y-67908375D02*
X326082380Y-68652137D01*
X328001775Y-71719893D02*
X325954013Y-72268589D01*
X185278652Y-176331117D02*
X183158652Y-176331117D01*
X183158652Y-176331117D02*
X183158652Y-172211117D01*
X183158652Y-172211117D02*
X185278652Y-172211117D01*
X185278652Y-172211117D02*
X185278652Y-176331117D01*
X184218652Y-177101117D02*
X184218652Y-176331117D01*
X184218652Y-171441117D02*
X184218652Y-172211117D01*
X185278652Y-175671117D02*
X183158652Y-175671117D01*
X185231654Y-157535123D02*
X183111654Y-157535123D01*
X183111654Y-157535123D02*
X183111654Y-153415123D01*
X183111654Y-153415123D02*
X185231654Y-153415123D01*
X185231654Y-153415123D02*
X185231654Y-157535123D01*
X184171654Y-158305123D02*
X184171654Y-157535123D01*
X184171654Y-152645123D02*
X184171654Y-153415123D01*
X185231654Y-156875123D02*
X183111654Y-156875123D01*
X185278648Y-138358118D02*
X183158648Y-138358118D01*
X183158648Y-138358118D02*
X183158648Y-134238118D01*
X183158648Y-134238118D02*
X185278648Y-134238118D01*
X185278648Y-134238118D02*
X185278648Y-138358118D01*
X184218648Y-139128118D02*
X184218648Y-138358118D01*
X184218648Y-133468118D02*
X184218648Y-134238118D01*
X185278648Y-137698118D02*
X183158648Y-137698118D01*
X317865638Y-114313574D02*
X316029664Y-115373574D01*
X316029664Y-115373574D02*
X313969664Y-111805549D01*
X313969664Y-111805549D02*
X315805638Y-110745549D01*
X315805638Y-110745549D02*
X317865638Y-114313574D01*
X317332651Y-115510413D02*
X316947651Y-114843574D01*
X314502651Y-110608709D02*
X314887651Y-111275549D01*
X317535638Y-113741997D02*
X315699664Y-114801997D01*
X308848635Y-98565577D02*
X307012661Y-99625577D01*
X307012661Y-99625577D02*
X304952661Y-96057552D01*
X304952661Y-96057552D02*
X306788635Y-94997552D01*
X306788635Y-94997552D02*
X308848635Y-98565577D01*
X308315648Y-99762416D02*
X307930648Y-99095577D01*
X305485648Y-94860712D02*
X305870648Y-95527552D01*
X308518635Y-97994000D02*
X306682661Y-99054000D01*
X299323639Y-82309578D02*
X297487665Y-83369578D01*
X297487665Y-83369578D02*
X295427665Y-79801553D01*
X295427665Y-79801553D02*
X297263639Y-78741553D01*
X297263639Y-78741553D02*
X299323639Y-82309578D01*
X298790652Y-83506417D02*
X298405652Y-82839578D01*
X295960652Y-78604713D02*
X296345652Y-79271553D01*
X298993639Y-81738001D02*
X297157665Y-82798001D01*
X166355653Y-176331119D02*
X164235653Y-176331119D01*
X164235653Y-176331119D02*
X164235653Y-172211119D01*
X164235653Y-172211119D02*
X166355653Y-172211119D01*
X166355653Y-172211119D02*
X166355653Y-176331119D01*
X165295653Y-177101119D02*
X165295653Y-176331119D01*
X165295653Y-171441119D02*
X165295653Y-172211119D01*
X166355653Y-175671119D02*
X164235653Y-175671119D01*
X166355650Y-157408123D02*
X164235650Y-157408123D01*
X164235650Y-157408123D02*
X164235650Y-153288123D01*
X164235650Y-153288123D02*
X166355650Y-153288123D01*
X166355650Y-153288123D02*
X166355650Y-157408123D01*
X165295650Y-158178123D02*
X165295650Y-157408123D01*
X165295650Y-152518123D02*
X165295650Y-153288123D01*
X166355650Y-156748123D02*
X164235650Y-156748123D01*
X166355655Y-138358121D02*
X164235655Y-138358121D01*
X164235655Y-138358121D02*
X164235655Y-134238121D01*
X164235655Y-134238121D02*
X166355655Y-134238121D01*
X166355655Y-134238121D02*
X166355655Y-138358121D01*
X165295655Y-139128121D02*
X165295655Y-138358121D01*
X165295655Y-133468121D02*
X165295655Y-134238121D01*
X166355655Y-137698121D02*
X164235655Y-137698121D01*
X301355636Y-123838567D02*
X299519662Y-124898567D01*
X299519662Y-124898567D02*
X297459662Y-121330542D01*
X297459662Y-121330542D02*
X299295636Y-120270542D01*
X299295636Y-120270542D02*
X301355636Y-123838567D01*
X300822649Y-125035406D02*
X300437649Y-124368567D01*
X297992649Y-120133702D02*
X298377649Y-120800542D01*
X301025636Y-123266990D02*
X299189662Y-124326990D01*
X292211642Y-107963579D02*
X290375668Y-109023579D01*
X290375668Y-109023579D02*
X288315668Y-105455554D01*
X288315668Y-105455554D02*
X290151642Y-104395554D01*
X290151642Y-104395554D02*
X292211642Y-107963579D01*
X291678655Y-109160418D02*
X291293655Y-108493579D01*
X288848655Y-104258714D02*
X289233655Y-104925554D01*
X291881642Y-107392002D02*
X290045668Y-108452002D01*
X282686645Y-91580577D02*
X280850671Y-92640577D01*
X280850671Y-92640577D02*
X278790671Y-89072552D01*
X278790671Y-89072552D02*
X280626645Y-88012552D01*
X280626645Y-88012552D02*
X282686645Y-91580577D01*
X282153658Y-92777416D02*
X281768658Y-92110577D01*
X279323658Y-87875712D02*
X279708658Y-88542552D01*
X282356645Y-91009000D02*
X280520671Y-92069000D01*
X147305646Y-176331124D02*
X145185646Y-176331124D01*
X145185646Y-176331124D02*
X145185646Y-172211124D01*
X145185646Y-172211124D02*
X147305646Y-172211124D01*
X147305646Y-172211124D02*
X147305646Y-176331124D01*
X146245646Y-177101124D02*
X146245646Y-176331124D01*
X146245646Y-171441124D02*
X146245646Y-172211124D01*
X147305646Y-175671124D02*
X145185646Y-175671124D01*
X147305652Y-157281121D02*
X145185652Y-157281121D01*
X145185652Y-157281121D02*
X145185652Y-153161121D01*
X145185652Y-153161121D02*
X147305652Y-153161121D01*
X147305652Y-153161121D02*
X147305652Y-157281121D01*
X146245652Y-158051121D02*
X146245652Y-157281121D01*
X146245652Y-152391121D02*
X146245652Y-153161121D01*
X147305652Y-156621121D02*
X145185652Y-156621121D01*
X147305649Y-138358121D02*
X145185649Y-138358121D01*
X145185649Y-138358121D02*
X145185649Y-134238121D01*
X145185649Y-134238121D02*
X147305649Y-134238121D01*
X147305649Y-134238121D02*
X147305649Y-138358121D01*
X146245649Y-139128121D02*
X146245649Y-138358121D01*
X146245649Y-133468121D02*
X146245649Y-134238121D01*
X147305649Y-137698121D02*
X145185649Y-137698121D01*
X284972641Y-133363583D02*
X283136667Y-134423583D01*
X283136667Y-134423583D02*
X281076667Y-130855558D01*
X281076667Y-130855558D02*
X282912641Y-129795558D01*
X282912641Y-129795558D02*
X284972641Y-133363583D01*
X284439654Y-134560422D02*
X284054654Y-133893583D01*
X281609654Y-129658718D02*
X281994654Y-130325558D01*
X284642641Y-132792006D02*
X282806667Y-133852006D01*
X275701640Y-117361571D02*
X273865666Y-118421571D01*
X273865666Y-118421571D02*
X271805666Y-114853546D01*
X271805666Y-114853546D02*
X273641640Y-113793546D01*
X273641640Y-113793546D02*
X275701640Y-117361571D01*
X275168653Y-118558410D02*
X274783653Y-117891571D01*
X272338653Y-113656706D02*
X272723653Y-114323546D01*
X275371640Y-116789994D02*
X273535666Y-117849994D01*
X266176639Y-100851579D02*
X264340665Y-101911579D01*
X264340665Y-101911579D02*
X262280665Y-98343554D01*
X262280665Y-98343554D02*
X264116639Y-97283554D01*
X264116639Y-97283554D02*
X266176639Y-100851579D01*
X265643652Y-102048418D02*
X265258652Y-101381579D01*
X262813652Y-97146714D02*
X263198652Y-97813554D01*
X265846639Y-100280002D02*
X264010665Y-101340002D01*
X128382653Y-176331124D02*
X126262653Y-176331124D01*
X126262653Y-176331124D02*
X126262653Y-172211124D01*
X126262653Y-172211124D02*
X128382653Y-172211124D01*
X128382653Y-172211124D02*
X128382653Y-176331124D01*
X127322653Y-177101124D02*
X127322653Y-176331124D01*
X127322653Y-171441124D02*
X127322653Y-172211124D01*
X128382653Y-175671124D02*
X126262653Y-175671124D01*
X128382651Y-157154123D02*
X126262651Y-157154123D01*
X126262651Y-157154123D02*
X126262651Y-153034123D01*
X126262651Y-153034123D02*
X128382651Y-153034123D01*
X128382651Y-153034123D02*
X128382651Y-157154123D01*
X127322651Y-157924123D02*
X127322651Y-157154123D01*
X127322651Y-152264123D02*
X127322651Y-153034123D01*
X128382651Y-156494123D02*
X126262651Y-156494123D01*
X128382655Y-138358126D02*
X126262655Y-138358126D01*
X126262655Y-138358126D02*
X126262655Y-134238126D01*
X126262655Y-134238126D02*
X128382655Y-134238126D01*
X128382655Y-134238126D02*
X128382655Y-138358126D01*
X127322655Y-139128126D02*
X127322655Y-138358126D01*
X127322655Y-133468126D02*
X127322655Y-134238126D01*
X128382655Y-137698126D02*
X126262655Y-137698126D01*
X268462642Y-142888573D02*
X266626668Y-143948573D01*
X266626668Y-143948573D02*
X264566668Y-140380548D01*
X264566668Y-140380548D02*
X266402642Y-139320548D01*
X266402642Y-139320548D02*
X268462642Y-142888573D01*
X267929655Y-144085412D02*
X267544655Y-143418573D01*
X265099655Y-139183708D02*
X265484655Y-139850548D01*
X268132642Y-142316996D02*
X266296668Y-143376996D01*
X259191646Y-126632574D02*
X257355672Y-127692574D01*
X257355672Y-127692574D02*
X255295672Y-124124549D01*
X255295672Y-124124549D02*
X257131646Y-123064549D01*
X257131646Y-123064549D02*
X259191646Y-126632574D01*
X258658659Y-127829413D02*
X258273659Y-127162574D01*
X255828659Y-122927709D02*
X256213659Y-123594549D01*
X258861646Y-126060997D02*
X257025672Y-127120997D01*
X249539634Y-110249572D02*
X247703660Y-111309572D01*
X247703660Y-111309572D02*
X245643660Y-107741547D01*
X245643660Y-107741547D02*
X247479634Y-106681547D01*
X247479634Y-106681547D02*
X249539634Y-110249572D01*
X249006647Y-111446411D02*
X248621647Y-110779572D01*
X246176647Y-106544707D02*
X246561647Y-107211547D01*
X249209634Y-109677995D02*
X247373660Y-110737995D01*
X109332654Y-176331117D02*
X107212654Y-176331117D01*
X107212654Y-176331117D02*
X107212654Y-172211117D01*
X107212654Y-172211117D02*
X109332654Y-172211117D01*
X109332654Y-172211117D02*
X109332654Y-176331117D01*
X108272654Y-177101117D02*
X108272654Y-176331117D01*
X108272654Y-171441117D02*
X108272654Y-172211117D01*
X109332654Y-175671117D02*
X107212654Y-175671117D01*
X109332652Y-157154120D02*
X107212652Y-157154120D01*
X107212652Y-157154120D02*
X107212652Y-153034120D01*
X107212652Y-153034120D02*
X109332652Y-153034120D01*
X109332652Y-153034120D02*
X109332652Y-157154120D01*
X108272652Y-157924120D02*
X108272652Y-157154120D01*
X108272652Y-152264120D02*
X108272652Y-153034120D01*
X109332652Y-156494120D02*
X107212652Y-156494120D01*
X109332654Y-138358123D02*
X107212654Y-138358123D01*
X107212654Y-138358123D02*
X107212654Y-134238123D01*
X107212654Y-134238123D02*
X109332654Y-134238123D01*
X109332654Y-134238123D02*
X109332654Y-138358123D01*
X108272654Y-139128123D02*
X108272654Y-138358123D01*
X108272654Y-133468123D02*
X108272654Y-134238123D01*
X109332654Y-137698123D02*
X107212654Y-137698123D01*
X252079640Y-152413584D02*
X250243666Y-153473584D01*
X250243666Y-153473584D02*
X248183666Y-149905559D01*
X248183666Y-149905559D02*
X250019640Y-148845559D01*
X250019640Y-148845559D02*
X252079640Y-152413584D01*
X251546653Y-153610423D02*
X251161653Y-152943584D01*
X248716653Y-148708719D02*
X249101653Y-149375559D01*
X251749640Y-151842007D02*
X249913666Y-152902007D01*
X242554635Y-135903571D02*
X240718661Y-136963571D01*
X240718661Y-136963571D02*
X238658661Y-133395546D01*
X238658661Y-133395546D02*
X240494635Y-132335546D01*
X240494635Y-132335546D02*
X242554635Y-135903571D01*
X242021648Y-137100410D02*
X241636648Y-136433571D01*
X239191648Y-132198706D02*
X239576648Y-132865546D01*
X242224635Y-135331994D02*
X240388661Y-136391994D01*
X233029640Y-119520576D02*
X231193666Y-120580576D01*
X231193666Y-120580576D02*
X229133666Y-117012551D01*
X229133666Y-117012551D02*
X230969640Y-115952551D01*
X230969640Y-115952551D02*
X233029640Y-119520576D01*
X232496653Y-120717415D02*
X232111653Y-120050576D01*
X229666653Y-115815711D02*
X230051653Y-116482551D01*
X232699640Y-118948999D02*
X230863666Y-120008999D01*
X90409657Y-176458127D02*
X88289657Y-176458127D01*
X88289657Y-176458127D02*
X88289657Y-172338127D01*
X88289657Y-172338127D02*
X90409657Y-172338127D01*
X90409657Y-172338127D02*
X90409657Y-176458127D01*
X89349657Y-177228127D02*
X89349657Y-176458127D01*
X89349657Y-171568127D02*
X89349657Y-172338127D01*
X90409657Y-175798127D02*
X88289657Y-175798127D01*
X90409650Y-157281124D02*
X88289650Y-157281124D01*
X88289650Y-157281124D02*
X88289650Y-153161124D01*
X88289650Y-153161124D02*
X90409650Y-153161124D01*
X90409650Y-153161124D02*
X90409650Y-157281124D01*
X89349650Y-158051124D02*
X89349650Y-157281124D01*
X89349650Y-152391124D02*
X89349650Y-153161124D01*
X90409650Y-156621124D02*
X88289650Y-156621124D01*
%LPC*%
D15*
X89076654Y-140108111D03*
D16*
X89076654Y-132488111D03*
D17*
X67607251Y-131710875D03*
X67607251Y-134250875D03*
X67607251Y-136790875D03*
X67607251Y-139330875D03*
X67607251Y-141870875D03*
X67607251Y-144410875D03*
X67607251Y-146950875D03*
X67607251Y-149490875D03*
X67607251Y-152030875D03*
X67607251Y-154570875D03*
X67607251Y-157110875D03*
X67607251Y-159650875D03*
X52367251Y-159650875D03*
X52367251Y-157110875D03*
X52367251Y-154570875D03*
X52367251Y-152030875D03*
X52367251Y-149490875D03*
X52367251Y-146950875D03*
X52367251Y-144410875D03*
X52367251Y-141870875D03*
X52367251Y-139330875D03*
X52367251Y-136790875D03*
X52367251Y-134250875D03*
D15*
X52367251Y-131710875D03*
D18*
X56261000Y-167005000D03*
D19*
X58801000Y-167005000D03*
X61341000Y-167005000D03*
X63881000Y-167005000D03*
D20*
X62293500Y-138772900D03*
X62293500Y-141770100D03*
D21*
X215616358Y-143320719D03*
D22*
X215956653Y-148990128D03*
D21*
X211387096Y-148695423D03*
D23*
X211557244Y-151530128D03*
X220356062Y-146450128D03*
D21*
X255466355Y-98360715D03*
D22*
X255806650Y-104030124D03*
D21*
X251237093Y-103735419D03*
D23*
X251407241Y-106570124D03*
X260206059Y-101490124D03*
D21*
X120346649Y-131070121D03*
D22*
X117806649Y-136150121D03*
D21*
X113996649Y-133610121D03*
D23*
X112726649Y-136150121D03*
X122886649Y-136150121D03*
D21*
X365152204Y-94471011D03*
D22*
X364013553Y-100035315D03*
D21*
X359675975Y-98567964D03*
D23*
X359106650Y-101350116D03*
X368920456Y-98720514D03*
D21*
X360215303Y-76085817D03*
D22*
X359076652Y-81650121D03*
D21*
X354739074Y-80182770D03*
D23*
X354169749Y-82964922D03*
X363983555Y-80335320D03*
D21*
X355315300Y-57735818D03*
D22*
X354176649Y-63300122D03*
D21*
X349839071Y-61832771D03*
D23*
X349269746Y-64614923D03*
X359083552Y-61985321D03*
D21*
X346815304Y-99375809D03*
D22*
X345676653Y-104940113D03*
D21*
X341339075Y-103472762D03*
D23*
X340769750Y-106254914D03*
X350583556Y-103625312D03*
D21*
X341875301Y-81005817D03*
D22*
X340736650Y-86570121D03*
D21*
X336399072Y-85102770D03*
D23*
X335829747Y-87884922D03*
X345643553Y-85255320D03*
D21*
X336965302Y-62635812D03*
D22*
X335826651Y-68200116D03*
D21*
X331489073Y-66732765D03*
D23*
X330919748Y-69514917D03*
X340733554Y-66885315D03*
D21*
X328455307Y-104275819D03*
D22*
X327316656Y-109840123D03*
D21*
X322979078Y-108372772D03*
D23*
X322409753Y-111154924D03*
X332223559Y-108525322D03*
D21*
X323555297Y-85925819D03*
D22*
X322416646Y-91490123D03*
D21*
X318079068Y-90022772D03*
D23*
X317509743Y-92804924D03*
X327323549Y-90175322D03*
D21*
X318605303Y-67565817D03*
D22*
X317466652Y-73130121D03*
D21*
X313129074Y-71662770D03*
D23*
X312559749Y-74444922D03*
X322373555Y-71815320D03*
D21*
X307386354Y-112270705D03*
D22*
X307726649Y-117940114D03*
D21*
X303157092Y-117645409D03*
D23*
X303327240Y-120480114D03*
X312126058Y-115400114D03*
D21*
X297886354Y-95790709D03*
D22*
X298226649Y-101460118D03*
D21*
X293657092Y-101165413D03*
D23*
X293827240Y-104000118D03*
X302626058Y-98920118D03*
D21*
X288356353Y-79360708D03*
D22*
X288696648Y-85030117D03*
D21*
X284127091Y-84735412D03*
D23*
X284297239Y-87570117D03*
X293096057Y-82490117D03*
D21*
X290946361Y-121780715D03*
D22*
X291286656Y-127450124D03*
D21*
X286717099Y-127155419D03*
D23*
X286887247Y-129990124D03*
X295686065Y-124910124D03*
D21*
X281436359Y-105330708D03*
D22*
X281776654Y-111000117D03*
D21*
X277207097Y-110705412D03*
D23*
X277377245Y-113540117D03*
X286176063Y-108460117D03*
D21*
X271936360Y-88850709D03*
D22*
X272276655Y-94520118D03*
D21*
X267707098Y-94225413D03*
D23*
X267877246Y-97060118D03*
X276676064Y-91980118D03*
D21*
X274476358Y-131300710D03*
D22*
X274816653Y-136970119D03*
D21*
X270247096Y-136675414D03*
D23*
X270417244Y-139510119D03*
X279216062Y-134430119D03*
D21*
X264966354Y-114830712D03*
D22*
X265306649Y-120500121D03*
D21*
X260737092Y-120205416D03*
D23*
X260907240Y-123040121D03*
X269706058Y-117960121D03*
D21*
X258056357Y-140790713D03*
D22*
X258396652Y-146460122D03*
D21*
X253827095Y-146165417D03*
D23*
X253997243Y-149000122D03*
X262796061Y-143920122D03*
D21*
X248516353Y-124320712D03*
D22*
X248856648Y-129990121D03*
D21*
X244287091Y-129695416D03*
D23*
X244457239Y-132530121D03*
X253256057Y-127450121D03*
D21*
X239026361Y-107870710D03*
D22*
X239366656Y-113540119D03*
D21*
X234797099Y-113245414D03*
D23*
X234967247Y-116080119D03*
X243766065Y-111000119D03*
D21*
X241556351Y-150280712D03*
D22*
X241896646Y-155950121D03*
D21*
X237327089Y-155655416D03*
D23*
X237497237Y-158490121D03*
X246296055Y-153410121D03*
D21*
X232076353Y-133820713D03*
D22*
X232416648Y-139490122D03*
D21*
X227847091Y-139195417D03*
D23*
X228017239Y-142030122D03*
X236816057Y-136950122D03*
D21*
X222566358Y-117380714D03*
D22*
X222906653Y-123050123D03*
D21*
X218337096Y-122755418D03*
D23*
X218507244Y-125590123D03*
X227306062Y-120510123D03*
D21*
X225086361Y-159780715D03*
D22*
X225426656Y-165450124D03*
D21*
X220857099Y-165155419D03*
D23*
X221027247Y-167990124D03*
X229826065Y-162910124D03*
D21*
X206096356Y-126850709D03*
D22*
X206436651Y-132520118D03*
D21*
X201867094Y-132225413D03*
D23*
X202037242Y-135060118D03*
X210836060Y-129980118D03*
D21*
X196296652Y-169080117D03*
D22*
X193756652Y-174160117D03*
D21*
X189946652Y-171620117D03*
D23*
X188676652Y-174160117D03*
X198836652Y-174160117D03*
D21*
X196306645Y-150080123D03*
D22*
X193766645Y-155160123D03*
D21*
X189956645Y-152620123D03*
D23*
X188686645Y-155160123D03*
X198846645Y-155160123D03*
D21*
X177306649Y-169070120D03*
D22*
X174766649Y-174150120D03*
D21*
X170956649Y-171610120D03*
D23*
X169686649Y-174150120D03*
X179846649Y-174150120D03*
D21*
X177306658Y-150100122D03*
D22*
X174766658Y-155180122D03*
D21*
X170956658Y-152640122D03*
D23*
X169686658Y-155180122D03*
X179846658Y-155180122D03*
D21*
X177296650Y-131100116D03*
D22*
X174756650Y-136180116D03*
D21*
X170946650Y-133640116D03*
D23*
X169676650Y-136180116D03*
X179836650Y-136180116D03*
D21*
X158306654Y-169110119D03*
D22*
X155766654Y-174190119D03*
D21*
X151956654Y-171650119D03*
D23*
X150686654Y-174190119D03*
X160846654Y-174190119D03*
D21*
X158306648Y-150090119D03*
D22*
X155766648Y-155170119D03*
D21*
X151956648Y-152630119D03*
D23*
X150686648Y-155170119D03*
X160846648Y-155170119D03*
D21*
X158296650Y-131070123D03*
D22*
X155756650Y-136150123D03*
D21*
X151946650Y-133610123D03*
D23*
X150676650Y-136150123D03*
X160836650Y-136150123D03*
D21*
X139316652Y-169100124D03*
D22*
X136776652Y-174180124D03*
D21*
X132966652Y-171640124D03*
D23*
X131696652Y-174180124D03*
X141856652Y-174180124D03*
D21*
X139316654Y-150090125D03*
D22*
X136776654Y-155170125D03*
D21*
X132966654Y-152630125D03*
D23*
X131696654Y-155170125D03*
X141856654Y-155170125D03*
D21*
X139296658Y-131090114D03*
D22*
X136756658Y-136170114D03*
D21*
X132946658Y-133630114D03*
D23*
X131676658Y-136170114D03*
X141836658Y-136170114D03*
D21*
X120366655Y-169120121D03*
D22*
X117826655Y-174200121D03*
D21*
X114016655Y-171660121D03*
D23*
X112746655Y-174200121D03*
X122906655Y-174200121D03*
D21*
X120356656Y-150130122D03*
D22*
X117816656Y-155210122D03*
D21*
X114006656Y-152670122D03*
D23*
X112736656Y-155210122D03*
X122896656Y-155210122D03*
D21*
X101346650Y-169120119D03*
D22*
X98806650Y-174200119D03*
D21*
X94996650Y-171660119D03*
D23*
X93726650Y-174200119D03*
X103886650Y-174200119D03*
D21*
X101346649Y-150080116D03*
D22*
X98806649Y-155160116D03*
D21*
X94996649Y-152620116D03*
D23*
X93726649Y-155160116D03*
X103886649Y-155160116D03*
D21*
X101346654Y-131080123D03*
D22*
X98806654Y-136160123D03*
D21*
X94996654Y-133620123D03*
D23*
X93726654Y-136160123D03*
X103886654Y-136160123D03*
D21*
X82316650Y-169110120D03*
D22*
X79776650Y-174190120D03*
D21*
X75966650Y-171650120D03*
D23*
X74696650Y-174190120D03*
X84856650Y-174190120D03*
D21*
X82326658Y-150110118D03*
D22*
X79786658Y-155190118D03*
D21*
X75976658Y-152650118D03*
D23*
X74706658Y-155190118D03*
X84866658Y-155190118D03*
D21*
X82326651Y-131090121D03*
D22*
X79786651Y-136170121D03*
D21*
X75976651Y-133630121D03*
D23*
X74706651Y-136170121D03*
X84866651Y-136170121D03*
D14*
G36*
X373474908Y-102609866D02*
G01*
X371830902Y-103050376D01*
X371390392Y-101406370D01*
X373034398Y-100965860D01*
X373474908Y-102609866D01*
G37*
D24*
X370460449Y-94647763D02*
X370460449Y-94647763D01*
D14*
G36*
X368521909Y-83813866D02*
G01*
X366877903Y-84254376D01*
X366437393Y-82610370D01*
X368081399Y-82169860D01*
X368521909Y-83813866D01*
G37*
D24*
X365507450Y-75851763D02*
X365507450Y-75851763D01*
D14*
G36*
X363695911Y-65525871D02*
G01*
X362051905Y-65966381D01*
X361611395Y-64322375D01*
X363255401Y-63881865D01*
X363695911Y-65525871D01*
G37*
D24*
X360681452Y-57563768D02*
X360681452Y-57563768D01*
D14*
G36*
X236689138Y-164168604D02*
G01*
X235215162Y-165019604D01*
X234364162Y-163545628D01*
X235838138Y-162694628D01*
X236689138Y-164168604D01*
G37*
D24*
X231716650Y-157258002D02*
X231716650Y-157258002D01*
D14*
G36*
X227037140Y-147531602D02*
G01*
X225563164Y-148382602D01*
X224712164Y-146908626D01*
X226186140Y-146057626D01*
X227037140Y-147531602D01*
G37*
D24*
X222064652Y-140621000D02*
X222064652Y-140621000D01*
D14*
G36*
X217766143Y-131529607D02*
G01*
X216292167Y-132380607D01*
X215441167Y-130906631D01*
X216915143Y-130055631D01*
X217766143Y-131529607D01*
G37*
D24*
X212793655Y-124619005D02*
X212793655Y-124619005D01*
D14*
G36*
X356964906Y-107054868D02*
G01*
X355320900Y-107495378D01*
X354880390Y-105851372D01*
X356524396Y-105410862D01*
X356964906Y-107054868D01*
G37*
D24*
X353950447Y-99092765D02*
X353950447Y-99092765D01*
D14*
G36*
X351884905Y-88385867D02*
G01*
X350240899Y-88826377D01*
X349800389Y-87182371D01*
X351444395Y-86741861D01*
X351884905Y-88385867D01*
G37*
D24*
X348870446Y-80423764D02*
X348870446Y-80423764D01*
D14*
G36*
X346931911Y-69970870D02*
G01*
X345287905Y-70411380D01*
X344847395Y-68767374D01*
X346491401Y-68326864D01*
X346931911Y-69970870D01*
G37*
D24*
X343917452Y-62008767D02*
X343917452Y-62008767D01*
D15*
X203268649Y-178081124D03*
D16*
X203268649Y-170461124D03*
D15*
X203268649Y-159285118D03*
D16*
X203268649Y-151665118D03*
D14*
G36*
X338549911Y-111880877D02*
G01*
X336905905Y-112321387D01*
X336465395Y-110677381D01*
X338109401Y-110236871D01*
X338549911Y-111880877D01*
G37*
D24*
X335535452Y-103918774D02*
X335535452Y-103918774D01*
D14*
G36*
X333596906Y-93338867D02*
G01*
X331952900Y-93779377D01*
X331512390Y-92135371D01*
X333156396Y-91694861D01*
X333596906Y-93338867D01*
G37*
D24*
X330582447Y-85376764D02*
X330582447Y-85376764D01*
D14*
G36*
X328643906Y-74923870D02*
G01*
X326999900Y-75364380D01*
X326559390Y-73720374D01*
X328203396Y-73279864D01*
X328643906Y-74923870D01*
G37*
D24*
X325629447Y-66961767D02*
X325629447Y-66961767D01*
D15*
X184218652Y-178081117D03*
D16*
X184218652Y-170461117D03*
D15*
X184171654Y-159285123D03*
D16*
X184171654Y-151665123D03*
D15*
X184218648Y-140108118D03*
D16*
X184218648Y-132488118D03*
D14*
G36*
X318985139Y-116670606D02*
G01*
X317511163Y-117521606D01*
X316660163Y-116047630D01*
X318134139Y-115196630D01*
X318985139Y-116670606D01*
G37*
D24*
X314012651Y-109760004D02*
X314012651Y-109760004D01*
D14*
G36*
X309968136Y-100922609D02*
G01*
X308494160Y-101773609D01*
X307643160Y-100299633D01*
X309117136Y-99448633D01*
X309968136Y-100922609D01*
G37*
D24*
X304995648Y-94012007D02*
X304995648Y-94012007D01*
D14*
G36*
X300443140Y-84666610D02*
G01*
X298969164Y-85517610D01*
X298118164Y-84043634D01*
X299592140Y-83192634D01*
X300443140Y-84666610D01*
G37*
D24*
X295470652Y-77756008D02*
X295470652Y-77756008D01*
D15*
X165295653Y-178081119D03*
D16*
X165295653Y-170461119D03*
D15*
X165295650Y-159158123D03*
D16*
X165295650Y-151538123D03*
D15*
X165295655Y-140108121D03*
D16*
X165295655Y-132488121D03*
D14*
G36*
X302475137Y-126195599D02*
G01*
X301001161Y-127046599D01*
X300150161Y-125572623D01*
X301624137Y-124721623D01*
X302475137Y-126195599D01*
G37*
D24*
X297502649Y-119284997D02*
X297502649Y-119284997D01*
D14*
G36*
X293331143Y-110320611D02*
G01*
X291857167Y-111171611D01*
X291006167Y-109697635D01*
X292480143Y-108846635D01*
X293331143Y-110320611D01*
G37*
D24*
X288358655Y-103410009D02*
X288358655Y-103410009D01*
D14*
G36*
X283806146Y-93937609D02*
G01*
X282332170Y-94788609D01*
X281481170Y-93314633D01*
X282955146Y-92463633D01*
X283806146Y-93937609D01*
G37*
D24*
X278833658Y-87027007D02*
X278833658Y-87027007D01*
D15*
X146245646Y-178081124D03*
D16*
X146245646Y-170461124D03*
D15*
X146245652Y-159031121D03*
D16*
X146245652Y-151411121D03*
D15*
X146245649Y-140108121D03*
D16*
X146245649Y-132488121D03*
D14*
G36*
X286092142Y-135720615D02*
G01*
X284618166Y-136571615D01*
X283767166Y-135097639D01*
X285241142Y-134246639D01*
X286092142Y-135720615D01*
G37*
D24*
X281119654Y-128810013D02*
X281119654Y-128810013D01*
D14*
G36*
X276821141Y-119718603D02*
G01*
X275347165Y-120569603D01*
X274496165Y-119095627D01*
X275970141Y-118244627D01*
X276821141Y-119718603D01*
G37*
D24*
X271848653Y-112808001D02*
X271848653Y-112808001D01*
D14*
G36*
X267296140Y-103208611D02*
G01*
X265822164Y-104059611D01*
X264971164Y-102585635D01*
X266445140Y-101734635D01*
X267296140Y-103208611D01*
G37*
D24*
X262323652Y-96298009D02*
X262323652Y-96298009D01*
D15*
X127322653Y-178081124D03*
D16*
X127322653Y-170461124D03*
D15*
X127322651Y-158904123D03*
D16*
X127322651Y-151284123D03*
D15*
X127322655Y-140108126D03*
D16*
X127322655Y-132488126D03*
D14*
G36*
X269582143Y-145245605D02*
G01*
X268108167Y-146096605D01*
X267257167Y-144622629D01*
X268731143Y-143771629D01*
X269582143Y-145245605D01*
G37*
D24*
X264609655Y-138335003D02*
X264609655Y-138335003D01*
D14*
G36*
X260311147Y-128989606D02*
G01*
X258837171Y-129840606D01*
X257986171Y-128366630D01*
X259460147Y-127515630D01*
X260311147Y-128989606D01*
G37*
D24*
X255338659Y-122079004D02*
X255338659Y-122079004D01*
D14*
G36*
X250659135Y-112606604D02*
G01*
X249185159Y-113457604D01*
X248334159Y-111983628D01*
X249808135Y-111132628D01*
X250659135Y-112606604D01*
G37*
D24*
X245686647Y-105696002D02*
X245686647Y-105696002D01*
D15*
X108272654Y-178081117D03*
D16*
X108272654Y-170461117D03*
D15*
X108272652Y-158904120D03*
D16*
X108272652Y-151284120D03*
D15*
X108272654Y-140108123D03*
D16*
X108272654Y-132488123D03*
D14*
G36*
X253199141Y-154770616D02*
G01*
X251725165Y-155621616D01*
X250874165Y-154147640D01*
X252348141Y-153296640D01*
X253199141Y-154770616D01*
G37*
D24*
X248226653Y-147860014D02*
X248226653Y-147860014D01*
D14*
G36*
X243674136Y-138260603D02*
G01*
X242200160Y-139111603D01*
X241349160Y-137637627D01*
X242823136Y-136786627D01*
X243674136Y-138260603D01*
G37*
D24*
X238701648Y-131350001D02*
X238701648Y-131350001D01*
D14*
G36*
X234149141Y-121877608D02*
G01*
X232675165Y-122728608D01*
X231824165Y-121254632D01*
X233298141Y-120403632D01*
X234149141Y-121877608D01*
G37*
D24*
X229176653Y-114967006D02*
X229176653Y-114967006D01*
D15*
X89349657Y-178208127D03*
D16*
X89349657Y-170588127D03*
D15*
X89349650Y-159031124D03*
D16*
X89349650Y-151411124D03*
M02*
