G04 #@! TF.GenerationSoftware,KiCad,Pcbnew,(5.1.5)-3*
G04 #@! TF.CreationDate,2020-04-27T09:58:47+02:00*
G04 #@! TF.ProjectId,kopesh,6b6f7065-7368-42e6-9b69-6361645f7063,rev?*
G04 #@! TF.SameCoordinates,Original*
G04 #@! TF.FileFunction,Copper,L2,Bot*
G04 #@! TF.FilePolarity,Positive*
%FSLAX46Y46*%
G04 Gerber Fmt 4.6, Leading zero omitted, Abs format (unit mm)*
G04 Created by KiCad (PCBNEW (5.1.5)-3) date 2020-04-27 09:58:47*
%MOMM*%
%LPD*%
G04 APERTURE LIST*
G04 #@! TA.AperFunction,Profile*
%ADD10C,0.050000*%
G04 #@! TD*
G04 #@! TA.AperFunction,ComponentPad*
%ADD11C,4.000000*%
G04 #@! TD*
G04 #@! TA.AperFunction,ComponentPad*
%ADD12C,2.000000*%
G04 #@! TD*
G04 #@! TA.AperFunction,ComponentPad*
%ADD13C,5.000000*%
G04 #@! TD*
G04 #@! TA.AperFunction,ComponentPad*
%ADD14C,2.250000*%
G04 #@! TD*
G04 #@! TA.AperFunction,SMDPad,CuDef*
%ADD15C,0.150000*%
G04 #@! TD*
G04 #@! TA.AperFunction,ComponentPad*
%ADD16C,0.150000*%
G04 #@! TD*
G04 #@! TA.AperFunction,ComponentPad*
%ADD17C,1.397000*%
G04 #@! TD*
G04 #@! TA.AperFunction,SMDPad,CuDef*
%ADD18R,0.950000X1.300000*%
G04 #@! TD*
G04 #@! TA.AperFunction,ComponentPad*
%ADD19R,1.397000X1.397000*%
G04 #@! TD*
G04 #@! TA.AperFunction,ComponentPad*
%ADD20R,1.600000X1.600000*%
G04 #@! TD*
G04 #@! TA.AperFunction,ComponentPad*
%ADD21C,1.600000*%
G04 #@! TD*
G04 #@! TA.AperFunction,ComponentPad*
%ADD22O,1.730000X2.030000*%
G04 #@! TD*
G04 #@! TA.AperFunction,ComponentPad*
%ADD23R,1.730000X2.030000*%
G04 #@! TD*
G04 #@! TA.AperFunction,ViaPad*
%ADD24C,0.800000*%
G04 #@! TD*
G04 #@! TA.AperFunction,Conductor*
%ADD25C,0.381000*%
G04 #@! TD*
G04 #@! TA.AperFunction,Conductor*
%ADD26C,0.250000*%
G04 #@! TD*
G04 APERTURE END LIST*
D10*
X69440229Y-196531557D02*
X69440226Y-193534357D01*
X72818428Y-196531558D02*
X69440229Y-196531557D01*
X72818426Y-193534356D02*
X72818428Y-196531558D01*
X69440226Y-193534357D02*
X72818426Y-193534356D01*
X107489424Y-196607756D02*
X107489427Y-193610556D01*
X110867626Y-196607757D02*
X107489424Y-196607756D01*
X110867627Y-193610556D02*
X110867626Y-196607757D01*
X107489427Y-193610556D02*
X110867627Y-193610556D01*
X145386224Y-196556958D02*
X145386228Y-193559757D01*
X148789826Y-196556959D02*
X145386224Y-196556958D01*
X148789827Y-193559757D02*
X148789826Y-196556959D01*
X145386228Y-193559757D02*
X148789827Y-193559757D01*
X188832520Y-195713634D02*
X189821786Y-198544695D01*
X193017498Y-197374225D02*
X189821786Y-198544695D01*
X192018936Y-194577866D02*
X193017498Y-197374225D01*
X188832520Y-195713634D02*
X192018936Y-194577866D01*
X226491949Y-175496081D02*
X224993353Y-172900431D01*
X229417563Y-173806981D02*
X226491949Y-175496081D01*
X227918959Y-171211331D02*
X229417563Y-173806981D01*
X224993353Y-172900431D02*
X227918959Y-171211331D01*
X259412234Y-156518881D02*
X257913635Y-153923227D01*
X262337841Y-154829778D02*
X259412234Y-156518881D01*
X260839241Y-152234127D02*
X262337841Y-154829778D01*
X257913635Y-153923227D02*
X260839241Y-152234127D01*
X289265627Y-139341671D02*
X287767025Y-136746022D01*
X292191234Y-137652574D02*
X289265627Y-139341671D01*
X290692632Y-135056921D02*
X292191234Y-137652574D01*
X287767025Y-136746022D02*
X290692632Y-135056921D01*
X325989562Y-127643968D02*
X325220410Y-124773429D01*
X329252656Y-126769623D02*
X325989562Y-127643968D01*
X328483498Y-123899082D02*
X329252656Y-126769623D01*
X325220410Y-124773429D02*
X328483498Y-123899082D01*
X356971845Y-136810892D02*
X342441844Y-82560896D01*
X302311841Y-151450895D02*
X356971845Y-136810892D01*
X194761842Y-213640900D02*
X302311841Y-151450895D01*
X31771846Y-213640890D02*
X194761842Y-213640900D01*
X31761843Y-157490889D02*
X31771846Y-213640890D01*
X179571848Y-157480897D02*
X31761843Y-157490889D01*
X282171845Y-98240897D02*
X179571848Y-157480897D01*
X342441844Y-82560896D02*
X282171845Y-98240897D01*
D11*
G04 #@! TO.P,,*
G04 #@! TO.N,*
X47472600Y-206476600D03*
G04 #@! TD*
G04 #@! TO.P,,*
G04 #@! TO.N,*
X36347400Y-206476600D03*
G04 #@! TD*
D12*
G04 #@! TO.P,sw1,2*
G04 #@! TO.N,GND*
X34061400Y-200810000D03*
G04 #@! TO.P,sw1,1*
G04 #@! TO.N,Net-(U1-Pad22)*
X34061400Y-194310000D03*
G04 #@! TD*
D13*
G04 #@! TO.P,,*
G04 #@! TO.N,*
X297037879Y-134696990D03*
G04 #@! TD*
G04 #@! TO.P,,*
G04 #@! TO.N,*
X284845878Y-104293192D03*
G04 #@! TD*
G04 #@! TO.P,,*
G04 #@! TO.N,*
X90129480Y-195275989D03*
G04 #@! TD*
D14*
G04 #@! TO.P,MX7,1*
G04 #@! TO.N,COL1*
X95831844Y-164000888D03*
G04 #@! TO.P,MX7,2*
G04 #@! TO.N,Net-(D20-Pad2)*
X102181844Y-161460888D03*
G04 #@! TD*
D13*
G04 #@! TO.P,,*
G04 #@! TO.N,*
X89900874Y-176200590D03*
G04 #@! TD*
G04 #@! TO.P,,*
G04 #@! TO.N,*
X174457477Y-165430988D03*
G04 #@! TD*
G04 #@! TO.P,,*
G04 #@! TO.N,*
X193507475Y-209220588D03*
G04 #@! TD*
D14*
G04 #@! TO.P,MX28,1*
G04 #@! TO.N,COL4*
X226122289Y-160086185D03*
G04 #@! TO.P,MX28,2*
G04 #@! TO.N,Net-(D18-Pad2)*
X230351551Y-154711481D03*
G04 #@! TD*
G04 #@! TA.AperFunction,SMDPad,CuDef*
D15*
G04 #@! TO.P,D55,1*
G04 #@! TO.N,ROW5*
G36*
X354378032Y-130974860D02*
G01*
X353460403Y-131220738D01*
X353123938Y-129965034D01*
X354041567Y-129719156D01*
X354378032Y-130974860D01*
G37*
G04 #@! TD.AperFunction*
G04 #@! TA.AperFunction,ComponentPad*
D16*
G36*
X355133166Y-132929520D02*
G01*
X353783768Y-133291090D01*
X353422198Y-131941692D01*
X354771596Y-131580122D01*
X355133166Y-132929520D01*
G37*
G04 #@! TD.AperFunction*
D17*
G04 #@! TO.P,D55,2*
G04 #@! TO.N,Net-(D55-Pad2)*
X352305480Y-125075252D03*
G04 #@! TA.AperFunction,SMDPad,CuDef*
D15*
G36*
X353459224Y-127545824D02*
G01*
X352541595Y-127791702D01*
X352205130Y-126535998D01*
X353122759Y-126290120D01*
X353459224Y-127545824D01*
G37*
G04 #@! TD.AperFunction*
G04 #@! TD*
G04 #@! TA.AperFunction,SMDPad,CuDef*
G04 #@! TO.P,D54,1*
G04 #@! TO.N,ROW3*
G36*
X349422890Y-112080948D02*
G01*
X348505261Y-112326826D01*
X348168796Y-111071122D01*
X349086425Y-110825244D01*
X349422890Y-112080948D01*
G37*
G04 #@! TD.AperFunction*
G04 #@! TA.AperFunction,ComponentPad*
D16*
G36*
X350178024Y-114035608D02*
G01*
X348828626Y-114397178D01*
X348467056Y-113047780D01*
X349816454Y-112686210D01*
X350178024Y-114035608D01*
G37*
G04 #@! TD.AperFunction*
D17*
G04 #@! TO.P,D54,2*
G04 #@! TO.N,Net-(D54-Pad2)*
X347350338Y-106181340D03*
G04 #@! TA.AperFunction,SMDPad,CuDef*
D15*
G36*
X348504082Y-108651912D02*
G01*
X347586453Y-108897790D01*
X347249988Y-107642086D01*
X348167617Y-107396208D01*
X348504082Y-108651912D01*
G37*
G04 #@! TD.AperFunction*
G04 #@! TD*
G04 #@! TA.AperFunction,SMDPad,CuDef*
G04 #@! TO.P,D53,1*
G04 #@! TO.N,ROW1*
G36*
X344518684Y-93778196D02*
G01*
X343601055Y-94024074D01*
X343264590Y-92768370D01*
X344182219Y-92522492D01*
X344518684Y-93778196D01*
G37*
G04 #@! TD.AperFunction*
G04 #@! TA.AperFunction,ComponentPad*
D16*
G36*
X345273818Y-95732856D02*
G01*
X343924420Y-96094426D01*
X343562850Y-94745028D01*
X344912248Y-94383458D01*
X345273818Y-95732856D01*
G37*
G04 #@! TD.AperFunction*
D17*
G04 #@! TO.P,D53,2*
G04 #@! TO.N,Net-(D53-Pad2)*
X342446132Y-87878588D03*
G04 #@! TA.AperFunction,SMDPad,CuDef*
D15*
G36*
X343599876Y-90349160D02*
G01*
X342682247Y-90595038D01*
X342345782Y-89339334D01*
X343263411Y-89093456D01*
X343599876Y-90349160D01*
G37*
G04 #@! TD.AperFunction*
G04 #@! TD*
G04 #@! TA.AperFunction,SMDPad,CuDef*
G04 #@! TO.P,D52,1*
G04 #@! TO.N,ROW5*
G36*
X217039788Y-192798160D02*
G01*
X216217064Y-193273160D01*
X215567064Y-192147326D01*
X216389788Y-191672326D01*
X217039788Y-192798160D01*
G37*
G04 #@! TD.AperFunction*
G04 #@! TA.AperFunction,ComponentPad*
D16*
G36*
X218275095Y-194490774D02*
G01*
X217065257Y-195189274D01*
X216366757Y-193979436D01*
X217576595Y-193280936D01*
X218275095Y-194490774D01*
G37*
G04 #@! TD.AperFunction*
D17*
G04 #@! TO.P,D52,2*
G04 #@! TO.N,Net-(D52-Pad2)*
X213510926Y-187635991D03*
G04 #@! TA.AperFunction,SMDPad,CuDef*
D15*
G36*
X215264788Y-189723770D02*
G01*
X214442064Y-190198770D01*
X213792064Y-189072936D01*
X214614788Y-188597936D01*
X215264788Y-189723770D01*
G37*
G04 #@! TD.AperFunction*
G04 #@! TD*
G04 #@! TA.AperFunction,SMDPad,CuDef*
G04 #@! TO.P,D51,1*
G04 #@! TO.N,ROW3*
G36*
X207527493Y-176322373D02*
G01*
X206704769Y-176797373D01*
X206054769Y-175671539D01*
X206877493Y-175196539D01*
X207527493Y-176322373D01*
G37*
G04 #@! TD.AperFunction*
G04 #@! TA.AperFunction,ComponentPad*
D16*
G36*
X208762800Y-178014987D02*
G01*
X207552962Y-178713487D01*
X206854462Y-177503649D01*
X208064300Y-176805149D01*
X208762800Y-178014987D01*
G37*
G04 #@! TD.AperFunction*
D17*
G04 #@! TO.P,D51,2*
G04 #@! TO.N,Net-(D51-Pad2)*
X203998631Y-171160204D03*
G04 #@! TA.AperFunction,SMDPad,CuDef*
D15*
G36*
X205752493Y-173247983D02*
G01*
X204929769Y-173722983D01*
X204279769Y-172597149D01*
X205102493Y-172122149D01*
X205752493Y-173247983D01*
G37*
G04 #@! TD.AperFunction*
G04 #@! TD*
G04 #@! TA.AperFunction,SMDPad,CuDef*
G04 #@! TO.P,D50,1*
G04 #@! TO.N,ROW1*
G36*
X197974604Y-159928681D02*
G01*
X197151880Y-160403681D01*
X196501880Y-159277847D01*
X197324604Y-158802847D01*
X197974604Y-159928681D01*
G37*
G04 #@! TD.AperFunction*
G04 #@! TA.AperFunction,ComponentPad*
D16*
G36*
X199209911Y-161621295D02*
G01*
X198000073Y-162319795D01*
X197301573Y-161109957D01*
X198511411Y-160411457D01*
X199209911Y-161621295D01*
G37*
G04 #@! TD.AperFunction*
D17*
G04 #@! TO.P,D50,2*
G04 #@! TO.N,Net-(D50-Pad2)*
X194445742Y-154766512D03*
G04 #@! TA.AperFunction,SMDPad,CuDef*
D15*
G36*
X196199604Y-156854291D02*
G01*
X195376880Y-157329291D01*
X194726880Y-156203457D01*
X195549604Y-155728457D01*
X196199604Y-156854291D01*
G37*
G04 #@! TD.AperFunction*
G04 #@! TD*
G04 #@! TA.AperFunction,SMDPad,CuDef*
G04 #@! TO.P,D49,1*
G04 #@! TO.N,ROW4*
G36*
X337950372Y-135508116D02*
G01*
X337032743Y-135753994D01*
X336696278Y-134498290D01*
X337613907Y-134252412D01*
X337950372Y-135508116D01*
G37*
G04 #@! TD.AperFunction*
G04 #@! TA.AperFunction,ComponentPad*
D16*
G36*
X338705506Y-137462776D02*
G01*
X337356108Y-137824346D01*
X336994538Y-136474948D01*
X338343936Y-136113378D01*
X338705506Y-137462776D01*
G37*
G04 #@! TD.AperFunction*
D17*
G04 #@! TO.P,D49,2*
G04 #@! TO.N,Net-(D49-Pad2)*
X335877820Y-129608508D03*
G04 #@! TA.AperFunction,SMDPad,CuDef*
D15*
G36*
X337031564Y-132079080D02*
G01*
X336113935Y-132324958D01*
X335777470Y-131069254D01*
X336695099Y-130823376D01*
X337031564Y-132079080D01*
G37*
G04 #@! TD.AperFunction*
G04 #@! TD*
G04 #@! TA.AperFunction,SMDPad,CuDef*
G04 #@! TO.P,D48,1*
G04 #@! TO.N,ROW2*
G36*
X332641282Y-116577567D02*
G01*
X331723653Y-116823445D01*
X331387188Y-115567741D01*
X332304817Y-115321863D01*
X332641282Y-116577567D01*
G37*
G04 #@! TD.AperFunction*
G04 #@! TA.AperFunction,ComponentPad*
D16*
G36*
X333396416Y-118532227D02*
G01*
X332047018Y-118893797D01*
X331685448Y-117544399D01*
X333034846Y-117182829D01*
X333396416Y-118532227D01*
G37*
G04 #@! TD.AperFunction*
D17*
G04 #@! TO.P,D48,2*
G04 #@! TO.N,Net-(D48-Pad2)*
X330568730Y-110677959D03*
G04 #@! TA.AperFunction,SMDPad,CuDef*
D15*
G36*
X331722474Y-113148531D02*
G01*
X330804845Y-113394409D01*
X330468380Y-112138705D01*
X331386009Y-111892827D01*
X331722474Y-113148531D01*
G37*
G04 #@! TD.AperFunction*
G04 #@! TD*
G04 #@! TA.AperFunction,SMDPad,CuDef*
G04 #@! TO.P,D47,1*
G04 #@! TO.N,ROW0*
G36*
X327872895Y-98291015D02*
G01*
X326955266Y-98536893D01*
X326618801Y-97281189D01*
X327536430Y-97035311D01*
X327872895Y-98291015D01*
G37*
G04 #@! TD.AperFunction*
G04 #@! TA.AperFunction,ComponentPad*
D16*
G36*
X328628029Y-100245675D02*
G01*
X327278631Y-100607245D01*
X326917061Y-99257847D01*
X328266459Y-98896277D01*
X328628029Y-100245675D01*
G37*
G04 #@! TD.AperFunction*
D17*
G04 #@! TO.P,D47,2*
G04 #@! TO.N,Net-(D47-Pad2)*
X325800343Y-92391407D03*
G04 #@! TA.AperFunction,SMDPad,CuDef*
D15*
G36*
X326954087Y-94861979D02*
G01*
X326036458Y-95107857D01*
X325699993Y-93852153D01*
X326617622Y-93606275D01*
X326954087Y-94861979D01*
G37*
G04 #@! TD.AperFunction*
G04 #@! TD*
D18*
G04 #@! TO.P,D46,1*
G04 #@! TO.N,ROW4*
X185085991Y-206460575D03*
D19*
X185085991Y-208495575D03*
D17*
G04 #@! TO.P,D46,2*
G04 #@! TO.N,Net-(D46-Pad2)*
X185085991Y-200875575D03*
D18*
X185085991Y-202910575D03*
G04 #@! TD*
G04 #@! TO.P,D45,1*
G04 #@! TO.N,ROW2*
X184933591Y-187305966D03*
D19*
X184933591Y-189340966D03*
D17*
G04 #@! TO.P,D45,2*
G04 #@! TO.N,Net-(D45-Pad2)*
X184933591Y-181720966D03*
D18*
X184933591Y-183755966D03*
G04 #@! TD*
G04 #@! TA.AperFunction,SMDPad,CuDef*
D15*
G04 #@! TO.P,D43,1*
G04 #@! TO.N,ROW5*
G36*
X319310244Y-140134578D02*
G01*
X318392615Y-140380456D01*
X318056150Y-139124752D01*
X318973779Y-138878874D01*
X319310244Y-140134578D01*
G37*
G04 #@! TD.AperFunction*
G04 #@! TA.AperFunction,ComponentPad*
D16*
G36*
X320065378Y-142089238D02*
G01*
X318715980Y-142450808D01*
X318354410Y-141101410D01*
X319703808Y-140739840D01*
X320065378Y-142089238D01*
G37*
G04 #@! TD.AperFunction*
D17*
G04 #@! TO.P,D43,2*
G04 #@! TO.N,Net-(D43-Pad2)*
X317237692Y-134234970D03*
G04 #@! TA.AperFunction,SMDPad,CuDef*
D15*
G36*
X318391436Y-136705542D02*
G01*
X317473807Y-136951420D01*
X317137342Y-135695716D01*
X318054971Y-135449838D01*
X318391436Y-136705542D01*
G37*
G04 #@! TD.AperFunction*
G04 #@! TD*
G04 #@! TA.AperFunction,SMDPad,CuDef*
G04 #@! TO.P,D42,1*
G04 #@! TO.N,ROW3*
G36*
X314366117Y-121290305D02*
G01*
X313448488Y-121536183D01*
X313112023Y-120280479D01*
X314029652Y-120034601D01*
X314366117Y-121290305D01*
G37*
G04 #@! TD.AperFunction*
G04 #@! TA.AperFunction,ComponentPad*
D16*
G36*
X315121251Y-123244965D02*
G01*
X313771853Y-123606535D01*
X313410283Y-122257137D01*
X314759681Y-121895567D01*
X315121251Y-123244965D01*
G37*
G04 #@! TD.AperFunction*
D17*
G04 #@! TO.P,D42,2*
G04 #@! TO.N,Net-(D42-Pad2)*
X312293565Y-115390697D03*
G04 #@! TA.AperFunction,SMDPad,CuDef*
D15*
G36*
X313447309Y-117861269D02*
G01*
X312529680Y-118107147D01*
X312193215Y-116851443D01*
X313110844Y-116605565D01*
X313447309Y-117861269D01*
G37*
G04 #@! TD.AperFunction*
G04 #@! TD*
G04 #@! TA.AperFunction,SMDPad,CuDef*
G04 #@! TO.P,D41,1*
G04 #@! TO.N,ROW1*
G36*
X309540801Y-103281975D02*
G01*
X308623172Y-103527853D01*
X308286707Y-102272149D01*
X309204336Y-102026271D01*
X309540801Y-103281975D01*
G37*
G04 #@! TD.AperFunction*
G04 #@! TA.AperFunction,ComponentPad*
D16*
G36*
X310295935Y-105236635D02*
G01*
X308946537Y-105598205D01*
X308584967Y-104248807D01*
X309934365Y-103887237D01*
X310295935Y-105236635D01*
G37*
G04 #@! TD.AperFunction*
D17*
G04 #@! TO.P,D41,2*
G04 #@! TO.N,Net-(D41-Pad2)*
X307468249Y-97382367D03*
G04 #@! TA.AperFunction,SMDPad,CuDef*
D15*
G36*
X308621993Y-99852939D02*
G01*
X307704364Y-100098817D01*
X307367899Y-98843113D01*
X308285528Y-98597235D01*
X308621993Y-99852939D01*
G37*
G04 #@! TD.AperFunction*
G04 #@! TD*
D18*
G04 #@! TO.P,D40,1*
G04 #@! TO.N,ROW5*
X166086792Y-206511376D03*
D19*
X166086792Y-208546376D03*
D17*
G04 #@! TO.P,D40,2*
G04 #@! TO.N,Net-(D40-Pad2)*
X166086792Y-200926376D03*
D18*
X166086792Y-202961376D03*
G04 #@! TD*
G04 #@! TO.P,D39,1*
G04 #@! TO.N,ROW3*
X166010591Y-187740770D03*
D19*
X166010591Y-189775770D03*
D17*
G04 #@! TO.P,D39,2*
G04 #@! TO.N,Net-(D39-Pad2)*
X166010591Y-182155770D03*
D18*
X166010591Y-184190770D03*
G04 #@! TD*
G04 #@! TO.P,D38,1*
G04 #@! TO.N,ROW1*
X165858195Y-168462170D03*
D19*
X165858195Y-170497170D03*
D17*
G04 #@! TO.P,D38,2*
G04 #@! TO.N,Net-(D38-Pad2)*
X165858195Y-162877170D03*
D18*
X165858195Y-164912170D03*
G04 #@! TD*
G04 #@! TA.AperFunction,SMDPad,CuDef*
D15*
G04 #@! TO.P,D37,1*
G04 #@! TO.N,ROW4*
G36*
X299343439Y-145309462D02*
G01*
X298520715Y-145784462D01*
X297870715Y-144658628D01*
X298693439Y-144183628D01*
X299343439Y-145309462D01*
G37*
G04 #@! TD.AperFunction*
G04 #@! TA.AperFunction,ComponentPad*
D16*
G36*
X300578746Y-147002076D02*
G01*
X299368908Y-147700576D01*
X298670408Y-146490738D01*
X299880246Y-145792238D01*
X300578746Y-147002076D01*
G37*
G04 #@! TD.AperFunction*
D17*
G04 #@! TO.P,D37,2*
G04 #@! TO.N,Net-(D37-Pad2)*
X295814577Y-140147293D03*
G04 #@! TA.AperFunction,SMDPad,CuDef*
D15*
G36*
X297568439Y-142235072D02*
G01*
X296745715Y-142710072D01*
X296095715Y-141584238D01*
X296918439Y-141109238D01*
X297568439Y-142235072D01*
G37*
G04 #@! TD.AperFunction*
G04 #@! TD*
G04 #@! TA.AperFunction,SMDPad,CuDef*
G04 #@! TO.P,D36,1*
G04 #@! TO.N,ROW2*
G36*
X290293321Y-129329393D02*
G01*
X289470597Y-129804393D01*
X288820597Y-128678559D01*
X289643321Y-128203559D01*
X290293321Y-129329393D01*
G37*
G04 #@! TD.AperFunction*
G04 #@! TA.AperFunction,ComponentPad*
D16*
G36*
X291528628Y-131022007D02*
G01*
X290318790Y-131720507D01*
X289620290Y-130510669D01*
X290830128Y-129812169D01*
X291528628Y-131022007D01*
G37*
G04 #@! TD.AperFunction*
D17*
G04 #@! TO.P,D36,2*
G04 #@! TO.N,Net-(D36-Pad2)*
X286764459Y-124167224D03*
G04 #@! TA.AperFunction,SMDPad,CuDef*
D15*
G36*
X288518321Y-126255003D02*
G01*
X287695597Y-126730003D01*
X287045597Y-125604169D01*
X287868321Y-125129169D01*
X288518321Y-126255003D01*
G37*
G04 #@! TD.AperFunction*
G04 #@! TD*
G04 #@! TA.AperFunction,SMDPad,CuDef*
G04 #@! TO.P,D35,1*
G04 #@! TO.N,ROW0*
G36*
X280874236Y-113269056D02*
G01*
X280051512Y-113744056D01*
X279401512Y-112618222D01*
X280224236Y-112143222D01*
X280874236Y-113269056D01*
G37*
G04 #@! TD.AperFunction*
G04 #@! TA.AperFunction,ComponentPad*
D16*
G36*
X282109543Y-114961670D02*
G01*
X280899705Y-115660170D01*
X280201205Y-114450332D01*
X281411043Y-113751832D01*
X282109543Y-114961670D01*
G37*
G04 #@! TD.AperFunction*
D17*
G04 #@! TO.P,D35,2*
G04 #@! TO.N,Net-(D35-Pad2)*
X277345374Y-108106887D03*
G04 #@! TA.AperFunction,SMDPad,CuDef*
D15*
G36*
X279099236Y-110194666D02*
G01*
X278276512Y-110669666D01*
X277626512Y-109543832D01*
X278449236Y-109068832D01*
X279099236Y-110194666D01*
G37*
G04 #@! TD.AperFunction*
G04 #@! TD*
D18*
G04 #@! TO.P,D34,1*
G04 #@! TO.N,ROW4*
X147163795Y-206511373D03*
D19*
X147163795Y-208546373D03*
D17*
G04 #@! TO.P,D34,2*
G04 #@! TO.N,Net-(D34-Pad2)*
X147163795Y-200926373D03*
D18*
X147163795Y-202961373D03*
G04 #@! TD*
G04 #@! TO.P,D33,1*
G04 #@! TO.N,ROW2*
X147036796Y-187305970D03*
D19*
X147036796Y-189340970D03*
D17*
G04 #@! TO.P,D33,2*
G04 #@! TO.N,Net-(D33-Pad2)*
X147036796Y-181720970D03*
D18*
X147036796Y-183755970D03*
G04 #@! TD*
G04 #@! TO.P,D32,1*
G04 #@! TO.N,ROW0*
X147163793Y-168462171D03*
D19*
X147163793Y-170497171D03*
D17*
G04 #@! TO.P,D32,2*
G04 #@! TO.N,Net-(D32-Pad2)*
X147163793Y-162877171D03*
D18*
X147163793Y-164912171D03*
G04 #@! TD*
G04 #@! TA.AperFunction,SMDPad,CuDef*
D15*
G04 #@! TO.P,D31,1*
G04 #@! TO.N,ROW5*
G36*
X282645857Y-154539201D02*
G01*
X281823133Y-155014201D01*
X281173133Y-153888367D01*
X281995857Y-153413367D01*
X282645857Y-154539201D01*
G37*
G04 #@! TD.AperFunction*
G04 #@! TA.AperFunction,ComponentPad*
D16*
G36*
X283881164Y-156231815D02*
G01*
X282671326Y-156930315D01*
X281972826Y-155720477D01*
X283182664Y-155021977D01*
X283881164Y-156231815D01*
G37*
G04 #@! TD.AperFunction*
D17*
G04 #@! TO.P,D31,2*
G04 #@! TO.N,Net-(D31-Pad2)*
X279116995Y-149377032D03*
G04 #@! TA.AperFunction,SMDPad,CuDef*
D15*
G36*
X280870857Y-151464811D02*
G01*
X280048133Y-151939811D01*
X279398133Y-150813977D01*
X280220857Y-150338977D01*
X280870857Y-151464811D01*
G37*
G04 #@! TD.AperFunction*
G04 #@! TD*
G04 #@! TA.AperFunction,SMDPad,CuDef*
G04 #@! TO.P,D30,1*
G04 #@! TO.N,ROW3*
G36*
X273552661Y-138789314D02*
G01*
X272729937Y-139264314D01*
X272079937Y-138138480D01*
X272902661Y-137663480D01*
X273552661Y-138789314D01*
G37*
G04 #@! TD.AperFunction*
G04 #@! TA.AperFunction,ComponentPad*
D16*
G36*
X274787968Y-140481928D02*
G01*
X273578130Y-141180428D01*
X272879630Y-139970590D01*
X274089468Y-139272090D01*
X274787968Y-140481928D01*
G37*
G04 #@! TD.AperFunction*
D17*
G04 #@! TO.P,D30,2*
G04 #@! TO.N,Net-(D30-Pad2)*
X270023799Y-133627145D03*
G04 #@! TA.AperFunction,SMDPad,CuDef*
D15*
G36*
X271777661Y-135714924D02*
G01*
X270954937Y-136189924D01*
X270304937Y-135064090D01*
X271127661Y-134589090D01*
X271777661Y-135714924D01*
G37*
G04 #@! TD.AperFunction*
G04 #@! TD*
G04 #@! TA.AperFunction,SMDPad,CuDef*
G04 #@! TO.P,D29,1*
G04 #@! TO.N,ROW1*
G36*
X263961663Y-122329631D02*
G01*
X263138939Y-122804631D01*
X262488939Y-121678797D01*
X263311663Y-121203797D01*
X263961663Y-122329631D01*
G37*
G04 #@! TD.AperFunction*
G04 #@! TA.AperFunction,ComponentPad*
D16*
G36*
X265196970Y-124022245D02*
G01*
X263987132Y-124720745D01*
X263288632Y-123510907D01*
X264498470Y-122812407D01*
X265196970Y-124022245D01*
G37*
G04 #@! TD.AperFunction*
D17*
G04 #@! TO.P,D29,2*
G04 #@! TO.N,Net-(D29-Pad2)*
X260432801Y-117167462D03*
G04 #@! TA.AperFunction,SMDPad,CuDef*
D15*
G36*
X262186663Y-119255241D02*
G01*
X261363939Y-119730241D01*
X260713939Y-118604407D01*
X261536663Y-118129407D01*
X262186663Y-119255241D01*
G37*
G04 #@! TD.AperFunction*
G04 #@! TD*
D18*
G04 #@! TO.P,D28,1*
G04 #@! TO.N,ROW5*
X128080838Y-206333570D03*
D19*
X128080838Y-208368570D03*
D17*
G04 #@! TO.P,D28,2*
G04 #@! TO.N,Net-(D28-Pad2)*
X128080838Y-200748570D03*
D18*
X128080838Y-202783570D03*
G04 #@! TD*
G04 #@! TO.P,D27,1*
G04 #@! TO.N,ROW3*
X128088396Y-187512168D03*
D19*
X128088396Y-189547168D03*
D17*
G04 #@! TO.P,D27,2*
G04 #@! TO.N,Net-(D27-Pad2)*
X128088396Y-181927168D03*
D18*
X128088396Y-183962168D03*
G04 #@! TD*
G04 #@! TO.P,D26,1*
G04 #@! TO.N,ROW1*
X128164595Y-169071770D03*
D19*
X128164595Y-171106770D03*
D17*
G04 #@! TO.P,D26,2*
G04 #@! TO.N,Net-(D26-Pad2)*
X128164595Y-163486770D03*
D18*
X128164595Y-165521770D03*
G04 #@! TD*
G04 #@! TA.AperFunction,SMDPad,CuDef*
D15*
G04 #@! TO.P,D25,1*
G04 #@! TO.N,ROW4*
G36*
X266413866Y-164321361D02*
G01*
X265591142Y-164796361D01*
X264941142Y-163670527D01*
X265763866Y-163195527D01*
X266413866Y-164321361D01*
G37*
G04 #@! TD.AperFunction*
G04 #@! TA.AperFunction,ComponentPad*
D16*
G36*
X267649173Y-166013975D02*
G01*
X266439335Y-166712475D01*
X265740835Y-165502637D01*
X266950673Y-164804137D01*
X267649173Y-166013975D01*
G37*
G04 #@! TD.AperFunction*
D17*
G04 #@! TO.P,D25,2*
G04 #@! TO.N,Net-(D25-Pad2)*
X262885004Y-159159192D03*
G04 #@! TA.AperFunction,SMDPad,CuDef*
D15*
G36*
X264638866Y-161246971D02*
G01*
X263816142Y-161721971D01*
X263166142Y-160596137D01*
X263988866Y-160121137D01*
X264638866Y-161246971D01*
G37*
G04 #@! TD.AperFunction*
G04 #@! TD*
G04 #@! TA.AperFunction,SMDPad,CuDef*
G04 #@! TO.P,D24,1*
G04 #@! TO.N,ROW2*
G36*
X257102272Y-148345608D02*
G01*
X256279548Y-148820608D01*
X255629548Y-147694774D01*
X256452272Y-147219774D01*
X257102272Y-148345608D01*
G37*
G04 #@! TD.AperFunction*
G04 #@! TA.AperFunction,ComponentPad*
D16*
G36*
X258337579Y-150038222D02*
G01*
X257127741Y-150736722D01*
X256429241Y-149526884D01*
X257639079Y-148828384D01*
X258337579Y-150038222D01*
G37*
G04 #@! TD.AperFunction*
D17*
G04 #@! TO.P,D24,2*
G04 #@! TO.N,Net-(D24-Pad2)*
X253573410Y-143183439D03*
G04 #@! TA.AperFunction,SMDPad,CuDef*
D15*
G36*
X255327272Y-145271218D02*
G01*
X254504548Y-145746218D01*
X253854548Y-144620384D01*
X254677272Y-144145384D01*
X255327272Y-145271218D01*
G37*
G04 #@! TD.AperFunction*
G04 #@! TD*
G04 #@! TA.AperFunction,SMDPad,CuDef*
G04 #@! TO.P,D23,1*
G04 #@! TO.N,ROW0*
G36*
X247291976Y-131455283D02*
G01*
X246469252Y-131930283D01*
X245819252Y-130804449D01*
X246641976Y-130329449D01*
X247291976Y-131455283D01*
G37*
G04 #@! TD.AperFunction*
G04 #@! TA.AperFunction,ComponentPad*
D16*
G36*
X248527283Y-133147897D02*
G01*
X247317445Y-133846397D01*
X246618945Y-132636559D01*
X247828783Y-131938059D01*
X248527283Y-133147897D01*
G37*
G04 #@! TD.AperFunction*
D17*
G04 #@! TO.P,D23,2*
G04 #@! TO.N,Net-(D23-Pad2)*
X243763114Y-126293114D03*
G04 #@! TA.AperFunction,SMDPad,CuDef*
D15*
G36*
X245516976Y-128380893D02*
G01*
X244694252Y-128855893D01*
X244044252Y-127730059D01*
X244866976Y-127255059D01*
X245516976Y-128380893D01*
G37*
G04 #@! TD.AperFunction*
G04 #@! TD*
D18*
G04 #@! TO.P,D22,1*
G04 #@! TO.N,ROW4*
X109165398Y-206409773D03*
D19*
X109165398Y-208444773D03*
D17*
G04 #@! TO.P,D22,2*
G04 #@! TO.N,Net-(D22-Pad2)*
X109165398Y-200824773D03*
D18*
X109165398Y-202859773D03*
G04 #@! TD*
G04 #@! TO.P,D21,1*
G04 #@! TO.N,ROW2*
X109114593Y-187308972D03*
D19*
X109114593Y-189343972D03*
D17*
G04 #@! TO.P,D21,2*
G04 #@! TO.N,Net-(D21-Pad2)*
X109114593Y-181723972D03*
D18*
X109114593Y-183758972D03*
G04 #@! TD*
G04 #@! TO.P,D20,1*
G04 #@! TO.N,ROW0*
X109216194Y-168309770D03*
D19*
X109216194Y-170344770D03*
D17*
G04 #@! TO.P,D20,2*
G04 #@! TO.N,Net-(D20-Pad2)*
X109216194Y-162724770D03*
D18*
X109216194Y-164759770D03*
G04 #@! TD*
G04 #@! TA.AperFunction,SMDPad,CuDef*
D15*
G04 #@! TO.P,D19,1*
G04 #@! TO.N,ROW5*
G36*
X249919481Y-173903052D02*
G01*
X249096757Y-174378052D01*
X248446757Y-173252218D01*
X249269481Y-172777218D01*
X249919481Y-173903052D01*
G37*
G04 #@! TD.AperFunction*
G04 #@! TA.AperFunction,ComponentPad*
D16*
G36*
X251154788Y-175595666D02*
G01*
X249944950Y-176294166D01*
X249246450Y-175084328D01*
X250456288Y-174385828D01*
X251154788Y-175595666D01*
G37*
G04 #@! TD.AperFunction*
D17*
G04 #@! TO.P,D19,2*
G04 #@! TO.N,Net-(D19-Pad2)*
X246390619Y-168740883D03*
G04 #@! TA.AperFunction,SMDPad,CuDef*
D15*
G36*
X248144481Y-170828662D02*
G01*
X247321757Y-171303662D01*
X246671757Y-170177828D01*
X247494481Y-169702828D01*
X248144481Y-170828662D01*
G37*
G04 #@! TD.AperFunction*
G04 #@! TD*
G04 #@! TA.AperFunction,SMDPad,CuDef*
G04 #@! TO.P,D18,1*
G04 #@! TO.N,ROW3*
G36*
X240523971Y-157477154D02*
G01*
X239701247Y-157952154D01*
X239051247Y-156826320D01*
X239873971Y-156351320D01*
X240523971Y-157477154D01*
G37*
G04 #@! TD.AperFunction*
G04 #@! TA.AperFunction,ComponentPad*
D16*
G36*
X241759278Y-159169768D02*
G01*
X240549440Y-159868268D01*
X239850940Y-158658430D01*
X241060778Y-157959930D01*
X241759278Y-159169768D01*
G37*
G04 #@! TD.AperFunction*
D17*
G04 #@! TO.P,D18,2*
G04 #@! TO.N,Net-(D18-Pad2)*
X236995109Y-152314985D03*
G04 #@! TA.AperFunction,SMDPad,CuDef*
D15*
G36*
X238748971Y-154402764D02*
G01*
X237926247Y-154877764D01*
X237276247Y-153751930D01*
X238098971Y-153276930D01*
X238748971Y-154402764D01*
G37*
G04 #@! TD.AperFunction*
G04 #@! TD*
G04 #@! TA.AperFunction,SMDPad,CuDef*
G04 #@! TO.P,D17,1*
G04 #@! TO.N,ROW1*
G36*
X230939787Y-141130858D02*
G01*
X230117063Y-141605858D01*
X229467063Y-140480024D01*
X230289787Y-140005024D01*
X230939787Y-141130858D01*
G37*
G04 #@! TD.AperFunction*
G04 #@! TA.AperFunction,ComponentPad*
D16*
G36*
X232175094Y-142823472D02*
G01*
X230965256Y-143521972D01*
X230266756Y-142312134D01*
X231476594Y-141613634D01*
X232175094Y-142823472D01*
G37*
G04 #@! TD.AperFunction*
D17*
G04 #@! TO.P,D17,2*
G04 #@! TO.N,Net-(D17-Pad2)*
X227410925Y-135968689D03*
G04 #@! TA.AperFunction,SMDPad,CuDef*
D15*
G36*
X229164787Y-138056468D02*
G01*
X228342063Y-138531468D01*
X227692063Y-137405634D01*
X228514787Y-136930634D01*
X229164787Y-138056468D01*
G37*
G04 #@! TD.AperFunction*
G04 #@! TD*
D18*
G04 #@! TO.P,D16,1*
G04 #@! TO.N,ROW5*
X90089999Y-206562172D03*
D19*
X90089999Y-208597172D03*
D17*
G04 #@! TO.P,D16,2*
G04 #@! TO.N,Net-(D16-Pad2)*
X90089999Y-200977172D03*
D18*
X90089999Y-203012172D03*
G04 #@! TD*
G04 #@! TO.P,D15,1*
G04 #@! TO.N,ROW3*
X90107849Y-187410571D03*
D19*
X90107849Y-189445571D03*
D17*
G04 #@! TO.P,D15,2*
G04 #@! TO.N,Net-(D15-Pad2)*
X90107849Y-181825571D03*
D18*
X90107849Y-183860571D03*
G04 #@! TD*
G04 #@! TO.P,D14,1*
G04 #@! TO.N,ROW1*
X90013792Y-168792371D03*
D19*
X90013792Y-170827371D03*
D17*
G04 #@! TO.P,D14,2*
G04 #@! TO.N,Net-(D14-Pad2)*
X90013792Y-163207371D03*
D18*
X90013792Y-165242371D03*
G04 #@! TD*
G04 #@! TA.AperFunction,SMDPad,CuDef*
D15*
G04 #@! TO.P,D13,1*
G04 #@! TO.N,ROW4*
G36*
X233591778Y-183417844D02*
G01*
X232769054Y-183892844D01*
X232119054Y-182767010D01*
X232941778Y-182292010D01*
X233591778Y-183417844D01*
G37*
G04 #@! TD.AperFunction*
G04 #@! TA.AperFunction,ComponentPad*
D16*
G36*
X234827085Y-185110458D02*
G01*
X233617247Y-185808958D01*
X232918747Y-184599120D01*
X234128585Y-183900620D01*
X234827085Y-185110458D01*
G37*
G04 #@! TD.AperFunction*
D17*
G04 #@! TO.P,D13,2*
G04 #@! TO.N,Net-(D13-Pad2)*
X230062916Y-178255675D03*
G04 #@! TA.AperFunction,SMDPad,CuDef*
D15*
G36*
X231816778Y-180343454D02*
G01*
X230994054Y-180818454D01*
X230344054Y-179692620D01*
X231166778Y-179217620D01*
X231816778Y-180343454D01*
G37*
G04 #@! TD.AperFunction*
G04 #@! TD*
G04 #@! TA.AperFunction,SMDPad,CuDef*
G04 #@! TO.P,D12,1*
G04 #@! TO.N,ROW2*
G36*
X223966091Y-166948862D02*
G01*
X223143367Y-167423862D01*
X222493367Y-166298028D01*
X223316091Y-165823028D01*
X223966091Y-166948862D01*
G37*
G04 #@! TD.AperFunction*
G04 #@! TA.AperFunction,ComponentPad*
D16*
G36*
X225201398Y-168641476D02*
G01*
X223991560Y-169339976D01*
X223293060Y-168130138D01*
X224502898Y-167431638D01*
X225201398Y-168641476D01*
G37*
G04 #@! TD.AperFunction*
D17*
G04 #@! TO.P,D12,2*
G04 #@! TO.N,Net-(D12-Pad2)*
X220437229Y-161786693D03*
G04 #@! TA.AperFunction,SMDPad,CuDef*
D15*
G36*
X222191091Y-163874472D02*
G01*
X221368367Y-164349472D01*
X220718367Y-163223638D01*
X221541091Y-162748638D01*
X222191091Y-163874472D01*
G37*
G04 #@! TD.AperFunction*
G04 #@! TD*
G04 #@! TA.AperFunction,SMDPad,CuDef*
G04 #@! TO.P,D11,1*
G04 #@! TO.N,ROW0*
G36*
X214485085Y-150425680D02*
G01*
X213662361Y-150900680D01*
X213012361Y-149774846D01*
X213835085Y-149299846D01*
X214485085Y-150425680D01*
G37*
G04 #@! TD.AperFunction*
G04 #@! TA.AperFunction,ComponentPad*
D16*
G36*
X215720392Y-152118294D02*
G01*
X214510554Y-152816794D01*
X213812054Y-151606956D01*
X215021892Y-150908456D01*
X215720392Y-152118294D01*
G37*
G04 #@! TD.AperFunction*
D17*
G04 #@! TO.P,D11,2*
G04 #@! TO.N,Net-(D11-Pad2)*
X210956223Y-145263511D03*
G04 #@! TA.AperFunction,SMDPad,CuDef*
D15*
G36*
X212710085Y-147351290D02*
G01*
X211887361Y-147826290D01*
X211237361Y-146700456D01*
X212060085Y-146225456D01*
X212710085Y-147351290D01*
G37*
G04 #@! TD.AperFunction*
G04 #@! TD*
D18*
G04 #@! TO.P,D10,1*
G04 #@! TO.N,ROW4*
X71166992Y-206638369D03*
D19*
X71166992Y-208673369D03*
D17*
G04 #@! TO.P,D10,2*
G04 #@! TO.N,Net-(D10-Pad2)*
X71166992Y-201053369D03*
D18*
X71166992Y-203088369D03*
G04 #@! TD*
G04 #@! TO.P,D9,1*
G04 #@! TO.N,ROW2*
X71217794Y-187512171D03*
D19*
X71217794Y-189547171D03*
D17*
G04 #@! TO.P,D9,2*
G04 #@! TO.N,Net-(D9-Pad2)*
X71217794Y-181927171D03*
D18*
X71217794Y-183962171D03*
G04 #@! TD*
G04 #@! TO.P,D8,1*
G04 #@! TO.N,ROW0*
X70811394Y-168233569D03*
D19*
X70811394Y-170268569D03*
D17*
G04 #@! TO.P,D8,2*
G04 #@! TO.N,Net-(D8-Pad2)*
X70811394Y-162648569D03*
D18*
X70811394Y-164683569D03*
G04 #@! TD*
D20*
G04 #@! TO.P,U1,1*
G04 #@! TO.N,LED*
X34202445Y-162101645D03*
D21*
G04 #@! TO.P,U1,2*
G04 #@! TO.N,Net-(U1-Pad2)*
X34202445Y-164641645D03*
G04 #@! TO.P,U1,3*
G04 #@! TO.N,GND*
X34202445Y-167181645D03*
G04 #@! TO.P,U1,4*
X34202445Y-169721645D03*
G04 #@! TO.P,U1,5*
G04 #@! TO.N,SDA*
X34202445Y-172261645D03*
G04 #@! TO.P,U1,6*
G04 #@! TO.N,SCK*
X34202445Y-174801645D03*
G04 #@! TO.P,U1,7*
G04 #@! TO.N,ROW0*
X34202445Y-177341645D03*
G04 #@! TO.P,U1,8*
G04 #@! TO.N,ROW1*
X34202445Y-179881645D03*
G04 #@! TO.P,U1,9*
G04 #@! TO.N,ROW2*
X34202445Y-182421645D03*
G04 #@! TO.P,U1,10*
G04 #@! TO.N,ROW3*
X34202445Y-184961645D03*
G04 #@! TO.P,U1,11*
G04 #@! TO.N,ROW5*
X34202445Y-187501645D03*
G04 #@! TO.P,U1,12*
G04 #@! TO.N,ROW4*
X34202445Y-190041645D03*
G04 #@! TO.P,U1,13*
G04 #@! TO.N,COL0*
X49442445Y-190041645D03*
G04 #@! TO.P,U1,14*
G04 #@! TO.N,COL1*
X49442445Y-187501645D03*
G04 #@! TO.P,U1,15*
G04 #@! TO.N,COL2*
X49442445Y-184961645D03*
G04 #@! TO.P,U1,16*
G04 #@! TO.N,COL3*
X49442445Y-182421645D03*
G04 #@! TO.P,U1,17*
G04 #@! TO.N,COL4*
X49442445Y-179881645D03*
G04 #@! TO.P,U1,18*
G04 #@! TO.N,COL5*
X49442445Y-177341645D03*
G04 #@! TO.P,U1,19*
G04 #@! TO.N,COL6*
X49442445Y-174801645D03*
G04 #@! TO.P,U1,20*
G04 #@! TO.N,COL7*
X49442445Y-172261645D03*
G04 #@! TO.P,U1,21*
G04 #@! TO.N,VCC*
X49442445Y-169721645D03*
G04 #@! TO.P,U1,22*
G04 #@! TO.N,Net-(U1-Pad22)*
X49442445Y-167181645D03*
G04 #@! TO.P,U1,23*
G04 #@! TO.N,GND*
X49442445Y-164641645D03*
G04 #@! TO.P,U1,24*
G04 #@! TO.N,Net-(U1-Pad24)*
X49442445Y-162101645D03*
G04 #@! TD*
D22*
G04 #@! TO.P,J1,4*
G04 #@! TO.N,GND*
X45716197Y-197395774D03*
G04 #@! TO.P,J1,3*
G04 #@! TO.N,VCC*
X43176197Y-197395774D03*
G04 #@! TO.P,J1,2*
G04 #@! TO.N,SCK*
X40636197Y-197395774D03*
D23*
G04 #@! TO.P,J1,1*
G04 #@! TO.N,SDA*
X38096197Y-197395774D03*
G04 #@! TD*
D14*
G04 #@! TO.P,MX22,1*
G04 #@! TO.N,COL3*
X193222292Y-179086194D03*
G04 #@! TO.P,MX22,2*
G04 #@! TO.N,Net-(D51-Pad2)*
X197451554Y-173711490D03*
G04 #@! TD*
G04 #@! TO.P,MX30,1*
G04 #@! TO.N,COL5*
X233072285Y-134126190D03*
G04 #@! TO.P,MX30,2*
G04 #@! TO.N,Net-(D23-Pad2)*
X237301547Y-128751486D03*
G04 #@! TD*
G04 #@! TO.P,MX47,1*
G04 #@! TO.N,COL7*
X341511168Y-128958732D03*
G04 #@! TO.P,MX47,2*
G04 #@! TO.N,Net-(D55-Pad2)*
X346987397Y-124861779D03*
G04 #@! TD*
G04 #@! TO.P,MX46,1*
G04 #@! TO.N,COL7*
X336574268Y-110573544D03*
G04 #@! TO.P,MX46,2*
G04 #@! TO.N,Net-(D54-Pad2)*
X342050497Y-106476591D03*
G04 #@! TD*
G04 #@! TO.P,MX45,1*
G04 #@! TO.N,COL7*
X331674268Y-92223543D03*
G04 #@! TO.P,MX45,2*
G04 #@! TO.N,Net-(D53-Pad2)*
X337150497Y-88126590D03*
G04 #@! TD*
G04 #@! TO.P,MX44,1*
G04 #@! TO.N,COL7*
X323174268Y-133863531D03*
G04 #@! TO.P,MX44,2*
G04 #@! TO.N,Net-(D49-Pad2)*
X328650497Y-129766578D03*
G04 #@! TD*
G04 #@! TO.P,MX43,1*
G04 #@! TO.N,COL7*
X318234269Y-115493540D03*
G04 #@! TO.P,MX43,2*
G04 #@! TO.N,Net-(D48-Pad2)*
X323710498Y-111396587D03*
G04 #@! TD*
G04 #@! TO.P,MX42,1*
G04 #@! TO.N,COL7*
X313324267Y-97123538D03*
G04 #@! TO.P,MX42,2*
G04 #@! TO.N,Net-(D47-Pad2)*
X318800496Y-93026585D03*
G04 #@! TD*
G04 #@! TO.P,MX41,1*
G04 #@! TO.N,COL6*
X304814274Y-138763546D03*
G04 #@! TO.P,MX41,2*
G04 #@! TO.N,Net-(D43-Pad2)*
X310290503Y-134666593D03*
G04 #@! TD*
G04 #@! TO.P,MX40,1*
G04 #@! TO.N,COL6*
X299914261Y-120413541D03*
G04 #@! TO.P,MX40,2*
G04 #@! TO.N,Net-(D42-Pad2)*
X305390490Y-116316588D03*
G04 #@! TD*
G04 #@! TO.P,MX39,1*
G04 #@! TO.N,COL6*
X294964267Y-102053539D03*
G04 #@! TO.P,MX39,2*
G04 #@! TO.N,Net-(D41-Pad2)*
X300440496Y-97956586D03*
G04 #@! TD*
G04 #@! TO.P,MX38,1*
G04 #@! TO.N,COL6*
X284992287Y-148036175D03*
G04 #@! TO.P,MX38,2*
G04 #@! TO.N,Net-(D37-Pad2)*
X289221549Y-142661471D03*
G04 #@! TD*
G04 #@! TO.P,MX37,1*
G04 #@! TO.N,COL6*
X275492287Y-131556186D03*
G04 #@! TO.P,MX37,2*
G04 #@! TO.N,Net-(D36-Pad2)*
X279721549Y-126181482D03*
G04 #@! TD*
G04 #@! TO.P,MX36,1*
G04 #@! TO.N,COL6*
X265962286Y-115126181D03*
G04 #@! TO.P,MX36,2*
G04 #@! TO.N,Net-(D35-Pad2)*
X270191548Y-109751477D03*
G04 #@! TD*
G04 #@! TO.P,MX35,1*
G04 #@! TO.N,COL5*
X268552294Y-157546189D03*
G04 #@! TO.P,MX35,2*
G04 #@! TO.N,Net-(D31-Pad2)*
X272781556Y-152171485D03*
G04 #@! TD*
G04 #@! TO.P,MX34,1*
G04 #@! TO.N,COL5*
X259042291Y-141096185D03*
G04 #@! TO.P,MX34,2*
G04 #@! TO.N,Net-(D30-Pad2)*
X263271553Y-135721481D03*
G04 #@! TD*
G04 #@! TO.P,MX33,1*
G04 #@! TO.N,COL5*
X249542293Y-124616181D03*
G04 #@! TO.P,MX33,2*
G04 #@! TO.N,Net-(D29-Pad2)*
X253771555Y-119241477D03*
G04 #@! TD*
G04 #@! TO.P,MX32,1*
G04 #@! TO.N,COL5*
X252082294Y-167066186D03*
G04 #@! TO.P,MX32,2*
G04 #@! TO.N,Net-(D25-Pad2)*
X256311556Y-161691482D03*
G04 #@! TD*
G04 #@! TO.P,MX31,1*
G04 #@! TO.N,COL5*
X242572284Y-150596187D03*
G04 #@! TO.P,MX31,2*
G04 #@! TO.N,Net-(D24-Pad2)*
X246801546Y-145221483D03*
G04 #@! TD*
G04 #@! TO.P,MX29,1*
G04 #@! TO.N,COL4*
X235662291Y-176556185D03*
G04 #@! TO.P,MX29,2*
G04 #@! TO.N,Net-(D19-Pad2)*
X239891553Y-171181481D03*
G04 #@! TD*
G04 #@! TO.P,MX27,1*
G04 #@! TO.N,COL4*
X216632292Y-143636184D03*
G04 #@! TO.P,MX27,2*
G04 #@! TO.N,Net-(D17-Pad2)*
X220861554Y-138261480D03*
G04 #@! TD*
G04 #@! TO.P,MX26,1*
G04 #@! TO.N,COL4*
X219162287Y-186046184D03*
G04 #@! TO.P,MX26,2*
G04 #@! TO.N,Net-(D13-Pad2)*
X223391549Y-180671480D03*
G04 #@! TD*
G04 #@! TO.P,MX25,1*
G04 #@! TO.N,COL4*
X209682284Y-169586186D03*
G04 #@! TO.P,MX25,2*
G04 #@! TO.N,Net-(D12-Pad2)*
X213911546Y-164211482D03*
G04 #@! TD*
G04 #@! TO.P,MX24,1*
G04 #@! TO.N,COL4*
X200172294Y-153146190D03*
G04 #@! TO.P,MX24,2*
G04 #@! TO.N,Net-(D11-Pad2)*
X204401556Y-147771486D03*
G04 #@! TD*
G04 #@! TO.P,MX23,1*
G04 #@! TO.N,COL3*
X202692295Y-195546187D03*
G04 #@! TO.P,MX23,2*
G04 #@! TO.N,Net-(D52-Pad2)*
X206921557Y-190171483D03*
G04 #@! TD*
G04 #@! TO.P,MX21,1*
G04 #@! TO.N,COL3*
X183702286Y-162616184D03*
G04 #@! TO.P,MX21,2*
G04 #@! TO.N,Net-(D50-Pad2)*
X187931548Y-157241480D03*
G04 #@! TD*
G04 #@! TO.P,MX20,1*
G04 #@! TO.N,COL3*
X171781847Y-202010890D03*
G04 #@! TO.P,MX20,2*
G04 #@! TO.N,Net-(D46-Pad2)*
X178131847Y-199470890D03*
G04 #@! TD*
G04 #@! TO.P,MX19,1*
G04 #@! TO.N,COL3*
X171791841Y-183010894D03*
G04 #@! TO.P,MX19,2*
G04 #@! TO.N,Net-(D45-Pad2)*
X178141841Y-180470894D03*
G04 #@! TD*
G04 #@! TO.P,MX18,1*
G04 #@! TO.N,COL2*
X152791841Y-202000893D03*
G04 #@! TO.P,MX18,2*
G04 #@! TO.N,Net-(D40-Pad2)*
X159141841Y-199460893D03*
G04 #@! TD*
G04 #@! TO.P,MX17,1*
G04 #@! TO.N,COL2*
X152791850Y-183030890D03*
G04 #@! TO.P,MX17,2*
G04 #@! TO.N,Net-(D39-Pad2)*
X159141850Y-180490890D03*
G04 #@! TD*
G04 #@! TO.P,MX16,1*
G04 #@! TO.N,COL2*
X152781847Y-164030885D03*
G04 #@! TO.P,MX16,2*
G04 #@! TO.N,Net-(D38-Pad2)*
X159131847Y-161490885D03*
G04 #@! TD*
G04 #@! TO.P,MX15,1*
G04 #@! TO.N,COL2*
X133791843Y-202040892D03*
G04 #@! TO.P,MX15,2*
G04 #@! TO.N,Net-(D34-Pad2)*
X140141843Y-199500892D03*
G04 #@! TD*
G04 #@! TO.P,MX14,1*
G04 #@! TO.N,COL2*
X133791843Y-183020893D03*
G04 #@! TO.P,MX14,2*
G04 #@! TO.N,Net-(D33-Pad2)*
X140141843Y-180480893D03*
G04 #@! TD*
G04 #@! TO.P,MX13,1*
G04 #@! TO.N,COL2*
X133781846Y-164000897D03*
G04 #@! TO.P,MX13,2*
G04 #@! TO.N,Net-(D32-Pad2)*
X140131846Y-161460897D03*
G04 #@! TD*
G04 #@! TO.P,MX12,1*
G04 #@! TO.N,COL1*
X114801848Y-202030895D03*
G04 #@! TO.P,MX12,2*
G04 #@! TO.N,Net-(D28-Pad2)*
X121151848Y-199490895D03*
G04 #@! TD*
G04 #@! TO.P,MX11,1*
G04 #@! TO.N,COL1*
X114801852Y-183020899D03*
G04 #@! TO.P,MX11,2*
G04 #@! TO.N,Net-(D27-Pad2)*
X121151852Y-180480899D03*
G04 #@! TD*
G04 #@! TO.P,MX10,1*
G04 #@! TO.N,COL1*
X114781852Y-164020881D03*
G04 #@! TO.P,MX10,2*
G04 #@! TO.N,Net-(D26-Pad2)*
X121131852Y-161480881D03*
G04 #@! TD*
G04 #@! TO.P,MX9,1*
G04 #@! TO.N,COL1*
X95851850Y-202050892D03*
G04 #@! TO.P,MX9,2*
G04 #@! TO.N,Net-(D22-Pad2)*
X102201850Y-199510892D03*
G04 #@! TD*
G04 #@! TO.P,MX8,1*
G04 #@! TO.N,COL1*
X95841850Y-183060896D03*
G04 #@! TO.P,MX8,2*
G04 #@! TO.N,Net-(D21-Pad2)*
X102191850Y-180520896D03*
G04 #@! TD*
G04 #@! TO.P,MX6,1*
G04 #@! TO.N,COL0*
X76831842Y-202050887D03*
G04 #@! TO.P,MX6,2*
G04 #@! TO.N,Net-(D16-Pad2)*
X83181842Y-199510887D03*
G04 #@! TD*
G04 #@! TO.P,MX5,1*
G04 #@! TO.N,COL0*
X76831844Y-183010887D03*
G04 #@! TO.P,MX5,2*
G04 #@! TO.N,Net-(D15-Pad2)*
X83181844Y-180470887D03*
G04 #@! TD*
G04 #@! TO.P,MX4,1*
G04 #@! TO.N,COL0*
X76831848Y-164010892D03*
G04 #@! TO.P,MX4,2*
G04 #@! TO.N,Net-(D14-Pad2)*
X83181848Y-161470892D03*
G04 #@! TD*
G04 #@! TO.P,MX3,1*
G04 #@! TO.N,COL0*
X57801846Y-202040888D03*
G04 #@! TO.P,MX3,2*
G04 #@! TO.N,Net-(D10-Pad2)*
X64151846Y-199500888D03*
G04 #@! TD*
G04 #@! TO.P,MX2,1*
G04 #@! TO.N,COL0*
X57811854Y-183040890D03*
G04 #@! TO.P,MX2,2*
G04 #@! TO.N,Net-(D9-Pad2)*
X64161854Y-180500890D03*
G04 #@! TD*
G04 #@! TO.P,MX1,1*
G04 #@! TO.N,COL0*
X57811846Y-164020894D03*
G04 #@! TO.P,MX1,2*
G04 #@! TO.N,Net-(D8-Pad2)*
X64161846Y-161480894D03*
G04 #@! TD*
D24*
G04 #@! TO.N,GND*
X95107878Y-197130191D03*
X98105076Y-196749192D03*
X131633076Y-197358791D03*
X135824075Y-197307990D03*
X170266478Y-197561989D03*
X173339876Y-197536588D03*
X215441773Y-181079140D03*
X218436775Y-179408636D03*
X248611312Y-163600469D03*
X251756891Y-161784374D03*
X281026570Y-145120146D03*
X284678081Y-143011948D03*
X320571305Y-128228015D03*
X323122897Y-127544319D03*
X57045026Y-195385457D03*
X59610428Y-195385456D03*
G04 #@! TO.N,VCC*
X43164874Y-187630593D03*
X131988678Y-191415187D03*
X136332077Y-191415193D03*
X170190278Y-194412387D03*
X173339878Y-194488588D03*
X213906652Y-178064634D03*
X216634282Y-176489833D03*
X247037604Y-158995127D03*
X249206017Y-157772527D03*
X280076500Y-140477370D03*
X282386189Y-139143872D03*
X319828796Y-124769956D03*
X322699329Y-124000797D03*
X65833426Y-193395922D03*
X95504000Y-190957200D03*
X98018600Y-190957200D03*
G04 #@! TO.N,LED*
X53705877Y-189002187D03*
X53705877Y-190983389D03*
X56931678Y-193802791D03*
X59598679Y-193828189D03*
G04 #@! TO.N,Net-(U1-Pad22)*
X44841277Y-167335989D03*
G04 #@! TO.N,SDA*
X38294742Y-175597916D03*
G04 #@! TO.N,SCK*
X36546797Y-174789777D03*
G04 #@! TO.N,Net-(LED1-Pad2)*
X95158676Y-195250593D03*
X98079678Y-195250592D03*
G04 #@! TO.N,Net-(LED2-Pad2)*
X133309477Y-194412387D03*
X136306677Y-194158387D03*
G04 #@! TO.N,Net-(LED3-Pad2)*
X170215677Y-195834791D03*
X173365277Y-195783987D03*
G04 #@! TO.N,Net-(LED4-Pad2)*
X214711063Y-179711920D03*
X217592679Y-178048220D03*
G04 #@! TO.N,Net-(LED5-Pad2)*
X248270416Y-161333617D03*
X250558107Y-160012816D03*
G04 #@! TO.N,Net-(LED6-Pad2)*
X281020615Y-142366627D03*
X283528273Y-140918824D03*
G04 #@! TO.N,Net-(LED7-Pad2)*
X320222884Y-126927683D03*
X322959366Y-126247039D03*
G04 #@! TD*
D25*
G04 #@! TO.N,GND*
X95107878Y-197130191D02*
X97724078Y-197130194D01*
X97724078Y-197130194D02*
X98105076Y-196749192D01*
X131633076Y-197358791D02*
X135773277Y-197358790D01*
X135773277Y-197358790D02*
X135824075Y-197307990D01*
X170266478Y-197561989D02*
X173314475Y-197561989D01*
X173314475Y-197561989D02*
X173339876Y-197536588D01*
X215441773Y-181079140D02*
X218367377Y-179390038D01*
X218367377Y-179390038D02*
X218436775Y-179408636D01*
X248611312Y-163600469D02*
X251756891Y-161784374D01*
X281026570Y-145120146D02*
X284678081Y-143011948D01*
X320571305Y-128228015D02*
X323122897Y-127544319D01*
X57045026Y-195385457D02*
X59610428Y-195385456D01*
G04 #@! TO.N,VCC*
X48311073Y-169721641D02*
X48309128Y-169723590D01*
X49442446Y-169721645D02*
X48311073Y-169721641D01*
X48309128Y-169723590D02*
X46035077Y-169723590D01*
X46035077Y-169723590D02*
X43164879Y-172593791D01*
X43164879Y-172593791D02*
X43164874Y-187630593D01*
X131988678Y-191415187D02*
X136332077Y-191415193D01*
X170190278Y-194412387D02*
X173263678Y-194412390D01*
X173263678Y-194412390D02*
X173339878Y-194488588D01*
X213906652Y-178064634D02*
X216634282Y-176489833D01*
X247037604Y-158995127D02*
X249171317Y-157763226D01*
X249171317Y-157763226D02*
X249206017Y-157772527D01*
X280076500Y-140477370D02*
X282386189Y-139143872D01*
X319828796Y-124769956D02*
X322699329Y-124000797D01*
X65821993Y-193407357D02*
X65833426Y-193395922D01*
X61642426Y-196175957D02*
X64411028Y-193407357D01*
X64411028Y-193407357D02*
X65821993Y-193407357D01*
X43176197Y-198791774D02*
X44395779Y-200011355D01*
X43176197Y-197395777D02*
X43176197Y-198791774D01*
X44395779Y-200011355D02*
X52803226Y-200011356D01*
X52803226Y-200011356D02*
X56638627Y-196175958D01*
X56638627Y-196175958D02*
X61642426Y-196175957D01*
X95504000Y-190957200D02*
X96069685Y-190957200D01*
X96069685Y-190957200D02*
X98018600Y-190957200D01*
D26*
G04 #@! TO.N,LED*
X53705877Y-189002187D02*
X53705877Y-190983389D01*
X56931678Y-193802791D02*
X59573278Y-193802788D01*
X59573278Y-193802788D02*
X59598679Y-193828189D01*
G04 #@! TO.N,ROW0*
X89226393Y-167372975D02*
X88591394Y-168007975D01*
X110260817Y-170445922D02*
X110207853Y-170498898D01*
X110207853Y-170498898D02*
X109157847Y-170498895D01*
X109157847Y-170498895D02*
X109104880Y-170445927D01*
X109104880Y-170445927D02*
X93848747Y-170445919D01*
X93848747Y-170445919D02*
X90775793Y-167372974D01*
X90775793Y-167372974D02*
X89226393Y-167372975D01*
X88591394Y-168007975D02*
X88591394Y-168033373D01*
X124923870Y-170445918D02*
X124913393Y-170446369D01*
X124913393Y-170446369D02*
X110260817Y-170445922D01*
X127656596Y-167703174D02*
X129332998Y-167703172D01*
X129332998Y-167703172D02*
X132126996Y-170497174D01*
X124913393Y-170446369D02*
X127656596Y-167703174D01*
X132126996Y-170497174D02*
X147130850Y-170498890D01*
X86381595Y-170268572D02*
X86457797Y-170192373D01*
X70811396Y-170268569D02*
X86381595Y-170268572D01*
X88591394Y-168033373D02*
X86457797Y-170192373D01*
X37576315Y-177341649D02*
X34202449Y-177341648D01*
X39462211Y-175455753D02*
X37576315Y-177341649D01*
X53549870Y-168413928D02*
X53549867Y-160412920D01*
X55658512Y-170522573D02*
X53549870Y-168413928D01*
X68713222Y-170522575D02*
X55658512Y-170522573D01*
X39452868Y-172204193D02*
X39462211Y-172213531D01*
X70911844Y-170498887D02*
X68736910Y-170498886D01*
X68736910Y-170498886D02*
X68713222Y-170522575D01*
X52724373Y-159587424D02*
X47707873Y-159587421D01*
X53549867Y-160412920D02*
X52724373Y-159587424D01*
X47707873Y-159587421D02*
X39452873Y-167842418D01*
X39462211Y-172213531D02*
X39462211Y-175455753D01*
X39452873Y-167842418D02*
X39452868Y-172204193D01*
X109216191Y-168309770D02*
X109216190Y-170344770D01*
X70811398Y-168233573D02*
X70811396Y-170268569D01*
X147163794Y-170497171D02*
X147163793Y-168462168D01*
X160955997Y-170497174D02*
X147163794Y-170497171D01*
X164384995Y-167068165D02*
X160955997Y-170497174D01*
X195400793Y-159113119D02*
X193634386Y-165705448D01*
X201662385Y-159428127D02*
X197012984Y-158182325D01*
X192974339Y-166086528D02*
X188521582Y-168636384D01*
X197012984Y-158182325D02*
X195400793Y-159113119D01*
X214766223Y-151862622D02*
X201662385Y-159428127D01*
X188521582Y-168636384D02*
X184741015Y-169622948D01*
X184741015Y-169622948D02*
X169287193Y-169633572D01*
X169287193Y-169633572D02*
X166721793Y-167068172D01*
X193634386Y-165705448D02*
X192974339Y-166086528D01*
X166721793Y-167068172D02*
X164384995Y-167068165D01*
X234374887Y-140512230D02*
X247573112Y-132892228D01*
X228751719Y-139916613D02*
X229829572Y-139294314D01*
X214766223Y-151862622D02*
X227524510Y-144496623D01*
X229829572Y-139294314D02*
X234374887Y-140512230D01*
X227524510Y-144496623D02*
X228751719Y-139916613D01*
X247573112Y-132892228D02*
X260287407Y-125551626D01*
X260287407Y-125551626D02*
X261393755Y-121422680D01*
X261393755Y-121422680D02*
X263197515Y-120381277D01*
X268138997Y-121705341D02*
X263197515Y-120381277D01*
X268138997Y-121705341D02*
X268783740Y-121878104D01*
X268783740Y-121878104D02*
X281115848Y-114745893D01*
X246555613Y-131129865D02*
X247573112Y-132892228D01*
X213748721Y-150100266D02*
X214766223Y-151862622D01*
X307318369Y-102024326D02*
X309890554Y-101335114D01*
X313066121Y-103168530D02*
X313680291Y-103523121D01*
X305945857Y-104401585D02*
X307318369Y-102024326D01*
X313680291Y-103523121D02*
X327724849Y-99759891D01*
X309890554Y-101335114D02*
X313066121Y-103168530D01*
X304600780Y-104762007D02*
X305945857Y-104401585D01*
X280137874Y-112943642D02*
X281155373Y-114706004D01*
X287776485Y-110883307D02*
X303433346Y-106784061D01*
X281155373Y-114706004D02*
X287776485Y-110883307D01*
X303433346Y-106784061D02*
X304600780Y-104762007D01*
X327245846Y-97786103D02*
X327772544Y-99751761D01*
G04 #@! TO.N,Net-(D8-Pad2)*
X69513861Y-161480895D02*
X70911844Y-162878887D01*
X64161848Y-161480886D02*
X69513861Y-161480895D01*
X70811398Y-162648574D02*
X70811396Y-164683571D01*
G04 #@! TO.N,ROW2*
X128951994Y-186372170D02*
X129028195Y-186372173D01*
X124585135Y-189305431D02*
X127899392Y-185991169D01*
X57243393Y-189421901D02*
X71184840Y-189421892D01*
X93702171Y-189294896D02*
X109157846Y-189294891D01*
X89791845Y-186016572D02*
X90423847Y-186016569D01*
X110207849Y-189294900D02*
X110218366Y-189305423D01*
X86375996Y-189432423D02*
X89791845Y-186016572D01*
X44938129Y-193157337D02*
X53510633Y-193157333D01*
X38754369Y-183971421D02*
X38754370Y-186973568D01*
X38754370Y-186973568D02*
X44938129Y-193157337D01*
X72245371Y-189432423D02*
X86375996Y-189432423D01*
X72234839Y-189421896D02*
X72245371Y-189432423D01*
X127899392Y-185991169D02*
X128570994Y-185991167D01*
X34202448Y-182421653D02*
X37204596Y-182421649D01*
X90423847Y-186016569D02*
X93702171Y-189294896D01*
X128570994Y-185991167D02*
X128951994Y-186372170D01*
X53510633Y-193157333D02*
X53590196Y-193077769D01*
X110218366Y-189305423D02*
X124585135Y-189305431D01*
X109157846Y-189294891D02*
X110207849Y-189294900D01*
X37204596Y-182421649D02*
X38754369Y-183971421D01*
X129028195Y-186372173D02*
X129028193Y-186422964D01*
X71184840Y-189421892D02*
X72234839Y-189421896D01*
X129028193Y-186422964D02*
X132154115Y-189548887D01*
X53590196Y-193077769D02*
X57243393Y-189421901D01*
X145880372Y-189548890D02*
X132154115Y-189548887D01*
X146088294Y-189340971D02*
X145880372Y-189548890D01*
X147036795Y-189340967D02*
X146088294Y-189340971D01*
X71217794Y-187512171D02*
X71217793Y-189547168D01*
X109114594Y-187308971D02*
X109114596Y-189343973D01*
X147036795Y-187305974D02*
X147036795Y-189340967D01*
X184933596Y-187305970D02*
X184933593Y-189340967D01*
X191634998Y-187328570D02*
X203797806Y-180306377D01*
X185903841Y-189461534D02*
X185904337Y-189461821D01*
X211906889Y-175510509D02*
X212148854Y-175370805D01*
X187254143Y-189461820D02*
X191634998Y-187328570D01*
X203797806Y-180306377D02*
X205228524Y-174966851D01*
X185103843Y-189675889D02*
X185903841Y-189461534D01*
X147036795Y-189340967D02*
X161644795Y-189340971D01*
X172032113Y-189675885D02*
X185103843Y-189675889D01*
X185904337Y-189461821D02*
X187254143Y-189461820D01*
X164892994Y-186092772D02*
X168448995Y-186092770D01*
X161644795Y-189340971D02*
X164892994Y-186092772D01*
X206702330Y-174115949D02*
X211906889Y-175510509D01*
X168448995Y-186092770D02*
X172032113Y-189675885D01*
X205228524Y-174966851D02*
X206702330Y-174115949D01*
X212148854Y-175370805D02*
X224247232Y-168385809D01*
X277684189Y-138208538D02*
X290574458Y-130766340D01*
X272514332Y-136823281D02*
X277684189Y-138208538D01*
X237648769Y-156190360D02*
X240112441Y-154767958D01*
X246115026Y-156376345D02*
X246159019Y-156350946D01*
X225068655Y-167911558D02*
X225087247Y-167842164D01*
X257493845Y-149797886D02*
X270006636Y-142573627D01*
X271370485Y-137483682D02*
X272514332Y-136823281D01*
X224247232Y-168385809D02*
X225068655Y-167911558D01*
X225087247Y-167842164D02*
X236254215Y-161394915D01*
X240112441Y-154767958D02*
X246115026Y-156376345D01*
X236254215Y-161394915D02*
X237648769Y-156190360D01*
X246159019Y-156350946D02*
X257493845Y-149797886D01*
X270006636Y-142573627D02*
X271370485Y-137483682D01*
X223229731Y-166623447D02*
X224247232Y-168385809D01*
X256365911Y-148020194D02*
X257383407Y-149782555D01*
X289556960Y-129003977D02*
X290574458Y-130766340D01*
X318724948Y-121924365D02*
X332677845Y-118174892D01*
X314151998Y-119284173D02*
X318724948Y-121924365D01*
X290574458Y-130766340D02*
X295959133Y-127657497D01*
X312042026Y-119849537D02*
X314151998Y-119284173D01*
X295959133Y-127657497D02*
X296250240Y-127735495D01*
X296250240Y-127735495D02*
X309545915Y-124172931D01*
X309545915Y-124172931D02*
X312042026Y-119849537D01*
X332540932Y-118038313D02*
X332014238Y-116072655D01*
G04 #@! TO.N,Net-(D9-Pad2)*
X69883839Y-180500896D02*
X71184846Y-181801891D01*
X64161848Y-180500890D02*
X69883839Y-180500896D01*
X71217792Y-181927173D02*
X71217794Y-183962169D01*
G04 #@! TO.N,ROW4*
X71184850Y-209648898D02*
X71184852Y-208598902D01*
X109157852Y-209521895D02*
X109157845Y-209734396D01*
X109157840Y-209706948D02*
X109157852Y-209521895D01*
X108678257Y-210186534D02*
X109157840Y-209706948D01*
X71466210Y-210186532D02*
X108678257Y-210186534D01*
X71184850Y-209648898D02*
X71184852Y-209905178D01*
X71184852Y-209905178D02*
X71466210Y-210186532D01*
X71184848Y-209963145D02*
X71184850Y-209648898D01*
X70961458Y-210186530D02*
X71184848Y-209963145D01*
X185085995Y-208495570D02*
X185085996Y-206460565D01*
X147163795Y-208546371D02*
X147163797Y-206511374D01*
X109165394Y-206409773D02*
X109165396Y-208444773D01*
X71166997Y-208673369D02*
X71166996Y-206638371D01*
X231790423Y-185060836D02*
X232962522Y-185374901D01*
X220751209Y-191434326D02*
X231790423Y-185060836D01*
X216834886Y-196335070D02*
X219914476Y-194557066D01*
X187199016Y-207262244D02*
X199259192Y-204444272D01*
X185103846Y-208471896D02*
X187199016Y-207262244D01*
X183920817Y-210704928D02*
X185103848Y-209521897D01*
X219914476Y-194557066D02*
X220751209Y-191434326D01*
X165309867Y-210704924D02*
X183920817Y-210704928D01*
X162568979Y-207964035D02*
X165309867Y-210704924D01*
X123960977Y-207837034D02*
X126119988Y-209996031D01*
X199259192Y-204444272D02*
X214492838Y-195707516D01*
X109157852Y-209521895D02*
X109157850Y-208471893D01*
X149932193Y-207964033D02*
X162568979Y-207964035D01*
X147130847Y-208471892D02*
X149424334Y-208471892D01*
X214492838Y-195707516D02*
X216834886Y-196335070D01*
X126119988Y-209996031D02*
X146713711Y-209996039D01*
X185103848Y-209521897D02*
X185103846Y-208471896D01*
X111217208Y-207837038D02*
X123960977Y-207837034D01*
X147130848Y-209578901D02*
X147130847Y-208471892D01*
X146713711Y-209996039D02*
X147130848Y-209578901D01*
X149424334Y-208471892D02*
X149932193Y-207964033D01*
X232962522Y-185374901D02*
X233871850Y-184849902D01*
X233871850Y-184849902D02*
X234396853Y-185759227D01*
X234396853Y-185759227D02*
X235498093Y-186054297D01*
X235498093Y-186054297D02*
X252203382Y-176409500D01*
X252203382Y-176409500D02*
X252901554Y-173803873D01*
X252901554Y-173803873D02*
X266764847Y-165799897D01*
X109157850Y-208471893D02*
X110582351Y-208471893D01*
X110582351Y-208471893D02*
X111217208Y-207837038D01*
X298607080Y-144984040D02*
X299624579Y-146746401D01*
X285666723Y-154746316D02*
X299561603Y-146724102D01*
X268730821Y-165609449D02*
X285322735Y-156030109D01*
X299657847Y-146749890D02*
X300182844Y-147659221D01*
X266695001Y-165758300D02*
X267516423Y-165284054D01*
X285322735Y-156030109D02*
X285666723Y-154746316D01*
X299561603Y-146724102D02*
X299657847Y-146749890D01*
X300182844Y-147659221D02*
X301944673Y-148131297D01*
X267516423Y-165284054D02*
X268730821Y-165609449D01*
X301944673Y-148131297D02*
X318831166Y-143606566D01*
X265677500Y-163995940D02*
X266695001Y-165758300D01*
X232855417Y-183092428D02*
X233872912Y-184854788D01*
X318831166Y-143606566D02*
X334760709Y-139338262D01*
X335813654Y-137514501D02*
X337850022Y-136968863D01*
X334760709Y-139338262D02*
X335813654Y-137514501D01*
X337850022Y-136968863D02*
X337323323Y-135003201D01*
X35333815Y-190041645D02*
X35941000Y-190648830D01*
X34202445Y-190041645D02*
X35333815Y-190041645D01*
X35941000Y-190648830D02*
X35941000Y-199440800D01*
X35941000Y-199440800D02*
X38989000Y-202488800D01*
X38989000Y-202488800D02*
X48514000Y-202488800D01*
X48514000Y-202488800D02*
X50673000Y-204647800D01*
X50673000Y-208432400D02*
X52425600Y-210185000D01*
X50673000Y-204647800D02*
X50673000Y-208432400D01*
X52425600Y-210185000D02*
X70961458Y-210186530D01*
G04 #@! TO.N,Net-(D10-Pad2)*
X69706851Y-199500891D02*
X71184846Y-200978893D01*
X64151848Y-199500896D02*
X69706851Y-199500891D01*
X71166993Y-201053371D02*
X71166998Y-203088371D01*
G04 #@! TO.N,Net-(D11-Pad2)*
X209352376Y-144913123D02*
X211011844Y-145357779D01*
X204401554Y-147771485D02*
X209352376Y-144913123D01*
X210956224Y-145263515D02*
X211973724Y-147025871D01*
G04 #@! TO.N,Net-(D12-Pad2)*
X218934568Y-161311444D02*
X220536842Y-161740779D01*
X213911546Y-164211482D02*
X218934568Y-161311444D01*
X220437229Y-161786692D02*
X221454732Y-163549058D01*
G04 #@! TO.N,Net-(D13-Pad2)*
X228369667Y-177797371D02*
X230061845Y-178250782D01*
X223391545Y-180671489D02*
X228369667Y-177797371D01*
X230062921Y-178255674D02*
X231080417Y-180018035D01*
G04 #@! TO.N,ROW1*
X198963842Y-162518216D02*
X198438848Y-161608888D01*
X231856841Y-143595225D02*
X231331841Y-142685888D01*
X231491080Y-144960255D02*
X231856841Y-143595225D01*
X200409068Y-162905463D02*
X231491080Y-144960255D01*
X198963842Y-162518216D02*
X200409068Y-162905463D01*
X264833066Y-125563599D02*
X265003857Y-124926216D01*
X233048391Y-143914489D02*
X264833066Y-125563599D01*
X265003857Y-124926216D02*
X264478854Y-124016890D01*
X231856841Y-143595225D02*
X233048391Y-143914489D01*
X309708602Y-105727117D02*
X309436844Y-104712891D01*
X344864625Y-96717331D02*
X344488847Y-95314893D01*
X311381426Y-107218236D02*
X343820226Y-98526287D01*
X343820226Y-98526287D02*
X344864625Y-96717331D01*
X309708602Y-105727117D02*
X309875124Y-106348571D01*
X309875124Y-106348571D02*
X311381426Y-107218236D01*
X309885059Y-106385663D02*
X309708602Y-105727117D01*
X265554492Y-125073762D02*
X279284833Y-117146547D01*
X265003857Y-124926216D02*
X265554492Y-125073762D01*
X279284833Y-117146547D02*
X281019687Y-117611397D01*
X281019687Y-117611397D02*
X287893761Y-113642654D01*
X308953136Y-107999803D02*
X309885059Y-106385663D01*
X287893761Y-113642654D02*
X308953136Y-107999803D01*
X165858196Y-168462170D02*
X165858195Y-170497174D01*
X128164595Y-169071773D02*
X128164596Y-171106773D01*
X90013794Y-168792370D02*
X90013798Y-170827367D01*
X263225306Y-122004211D02*
X264242804Y-123766574D01*
X230203425Y-140805440D02*
X231220923Y-142567801D01*
X197238239Y-159603267D02*
X198255743Y-161365626D01*
X343891636Y-93273284D02*
X344418332Y-95238946D01*
X308913752Y-102777063D02*
X309440449Y-104742716D01*
X128080842Y-170498891D02*
X128080847Y-172459905D01*
X128080852Y-172368949D02*
X128080842Y-170498891D01*
X52533872Y-161365420D02*
X52533869Y-169048923D01*
X128080847Y-172459905D02*
X128987875Y-173366922D01*
X34202443Y-179881647D02*
X37322315Y-179881648D01*
X40191691Y-175168104D02*
X41675368Y-173684430D01*
X128987875Y-173366922D02*
X164235812Y-173366922D01*
X48025368Y-160539926D02*
X51708364Y-160539921D01*
X166053839Y-171548892D02*
X166053843Y-170498890D01*
X40191693Y-177012269D02*
X40191691Y-175168104D01*
X41675368Y-173684430D02*
X41675367Y-167715424D01*
X37322315Y-179881648D02*
X40191693Y-177012269D01*
X41675367Y-167715424D02*
X47072876Y-162317923D01*
X47072870Y-161492423D02*
X48025368Y-160539926D01*
X51708364Y-160539921D02*
X52533872Y-161365420D01*
X47072876Y-162317923D02*
X47072870Y-161492423D01*
X164235812Y-173366922D02*
X166053839Y-171548892D01*
X166053843Y-170498890D02*
X185389074Y-170498894D01*
X185389074Y-170498894D02*
X188900903Y-169701980D01*
X188900903Y-169701980D02*
X198506880Y-164223661D01*
X198506880Y-164223661D02*
X198963842Y-162518216D01*
X88599603Y-171293061D02*
X89065292Y-170827373D01*
X54778004Y-171293060D02*
X88599603Y-171293061D01*
X89065292Y-170827373D02*
X90013796Y-170827369D01*
X52533869Y-169048923D02*
X54778004Y-171293060D01*
X127216100Y-171106771D02*
X126643481Y-171679389D01*
X128164597Y-171106774D02*
X127216100Y-171106771D01*
X90962292Y-170827370D02*
X90013796Y-170827369D01*
X91814311Y-171679391D02*
X90962292Y-170827370D01*
X126643481Y-171679389D02*
X91814311Y-171679391D01*
G04 #@! TO.N,Net-(D14-Pad2)*
X88699835Y-161470893D02*
X90107847Y-162878902D01*
X83181842Y-161470898D02*
X88699835Y-161470893D01*
X90013796Y-163207374D02*
X90013795Y-165242371D01*
G04 #@! TO.N,ROW3*
X128080855Y-190471891D02*
X128080845Y-189421889D01*
X128080855Y-190471891D02*
X130216383Y-192607426D01*
X166006842Y-190725893D02*
X166006850Y-189675894D01*
X164125316Y-192607423D02*
X166006842Y-190725893D01*
X130216383Y-192607426D02*
X164125316Y-192607423D01*
X241508850Y-159978213D02*
X240983856Y-159068888D01*
X241339131Y-160611610D02*
X241508850Y-159978213D01*
X209319988Y-179097873D02*
X241339131Y-160611610D01*
X207709846Y-177610882D02*
X208430801Y-178859621D01*
X208430801Y-178859621D02*
X209319988Y-179097873D01*
X274528852Y-141309222D02*
X274003851Y-140399895D01*
X274368167Y-141908906D02*
X274528852Y-141309222D01*
X241508850Y-159978213D02*
X242575954Y-160264149D01*
X242575954Y-160264149D02*
X274368167Y-141908906D01*
X314661604Y-124142117D02*
X314389843Y-123127890D01*
X275041793Y-141446663D02*
X288416380Y-133724844D01*
X288416380Y-133724844D02*
X290151232Y-134189699D01*
X274528852Y-141309222D02*
X275041793Y-141446663D01*
X290151232Y-134189699D02*
X297190280Y-130125697D01*
X314762600Y-124519064D02*
X314661604Y-124142117D01*
X314149169Y-125581582D02*
X314762600Y-124519064D01*
X297190280Y-130125697D02*
X314149169Y-125581582D01*
X348954400Y-116215200D02*
X349678675Y-114960716D01*
X349678675Y-114960716D02*
X349314847Y-113602887D01*
X315710121Y-125122974D02*
X348954400Y-116215200D01*
X314661604Y-124142117D02*
X314780634Y-124586333D01*
X314780634Y-124586333D02*
X315710121Y-125122974D01*
X166006850Y-189675894D02*
X165983810Y-191286419D01*
X165983810Y-191286419D02*
X167287224Y-192147002D01*
X208220135Y-179732873D02*
X208446728Y-178887205D01*
X208446728Y-178887205D02*
X207709846Y-177610882D01*
X194667889Y-187533966D02*
X208220135Y-179732873D01*
X167287224Y-192147002D02*
X185225696Y-192125268D01*
X194667889Y-187533966D02*
X185225696Y-192125268D01*
X90107846Y-187410567D02*
X90107843Y-189445571D01*
X128088390Y-187512170D02*
X128088398Y-189547172D01*
X166010593Y-187740771D02*
X166010596Y-189775771D01*
X206791129Y-175996954D02*
X207808628Y-177759318D01*
X239787610Y-157151736D02*
X240805108Y-158914100D01*
X272816292Y-138463894D02*
X273833796Y-140226262D01*
X313739073Y-120785395D02*
X314265765Y-122751057D01*
X348795842Y-111576037D02*
X349322539Y-113541695D01*
X95878019Y-192607421D02*
X95892599Y-192622001D01*
X53949621Y-193607343D02*
X54034694Y-193522268D01*
X34202449Y-184961650D02*
X37204593Y-184961650D01*
X95892599Y-192622001D02*
X96588601Y-192622001D01*
X44262792Y-193607341D02*
X53949621Y-193607343D01*
X96588601Y-192622001D02*
X96603182Y-192607420D01*
X38055877Y-187400421D02*
X44184956Y-193529501D01*
X91522867Y-192607419D02*
X95878019Y-192607421D01*
X38055871Y-185812920D02*
X38055877Y-187400421D01*
X90107844Y-191164944D02*
X90107845Y-189294891D01*
X125945315Y-192607427D02*
X128080855Y-190471891D01*
X54034694Y-193522268D02*
X54946872Y-192670921D01*
X90107845Y-189294891D02*
X90107848Y-191192400D01*
X88601866Y-192670923D02*
X90107844Y-191164944D01*
X96603182Y-192607420D02*
X125945315Y-192607427D01*
X54946872Y-192670921D02*
X88601866Y-192670923D01*
X44184955Y-193529509D02*
X44262792Y-193607341D01*
X44184956Y-193529501D02*
X44184955Y-193529509D01*
X37204593Y-184961650D02*
X38055871Y-185812920D01*
X90107848Y-191192400D02*
X91522867Y-192607419D01*
G04 #@! TO.N,Net-(D15-Pad2)*
X90107845Y-181825572D02*
X90107843Y-183860573D01*
X86078777Y-181674895D02*
X90107847Y-181674890D01*
X83181844Y-180470891D02*
X84874777Y-180470890D01*
X84874777Y-180470890D02*
X86078777Y-181674895D01*
G04 #@! TO.N,ROW5*
X128080841Y-206333573D02*
X128080841Y-208368568D01*
X166086795Y-208546370D02*
X166086796Y-206511371D01*
X90089994Y-208597171D02*
X90089995Y-206562171D01*
X269452511Y-163755649D02*
X282926995Y-155976143D01*
X265427652Y-162677189D02*
X269452511Y-163755649D01*
X251022045Y-174865747D02*
X251412520Y-173408464D01*
X250200622Y-175340004D02*
X251022045Y-174865747D01*
X263129413Y-166643724D02*
X263966145Y-163520985D01*
X251412520Y-173408464D02*
X263129413Y-166643724D01*
X263966145Y-163520985D02*
X265427652Y-162677189D01*
X281909497Y-154213785D02*
X282926995Y-155976143D01*
X249183118Y-173577633D02*
X250200622Y-175340004D01*
X216303429Y-192472741D02*
X217320929Y-194235109D01*
X298941448Y-143327990D02*
X305048125Y-144964267D01*
X305048125Y-144964267D02*
X305551726Y-145255023D01*
X283748422Y-155501895D02*
X284027332Y-154460983D01*
X284027332Y-154460983D02*
X296250154Y-147404133D01*
X305551726Y-145255023D02*
X319209891Y-141595327D01*
X297049703Y-144420186D02*
X298941448Y-143327990D01*
X282926995Y-155976143D02*
X283748422Y-155501895D01*
X296250154Y-147404133D02*
X297049703Y-144420186D01*
X338416639Y-133293374D02*
X342429642Y-135610275D01*
X342429642Y-135610275D02*
X354277686Y-132435601D01*
X335668778Y-134029659D02*
X338416639Y-133293374D01*
X319209891Y-141595327D02*
X333513512Y-137762680D01*
X333513512Y-137762680D02*
X335668778Y-134029659D01*
X353750987Y-130469944D02*
X354277686Y-132435601D01*
X319209891Y-141595327D02*
X318683192Y-139629666D01*
X238256223Y-182236096D02*
X250200622Y-175340004D01*
X237850981Y-182499397D02*
X238246928Y-182270792D01*
X238246928Y-182270792D02*
X238256223Y-182236096D01*
X230899134Y-184988836D02*
X231633888Y-182246685D01*
X217361840Y-194247886D02*
X219599758Y-192955825D01*
X187651393Y-205218971D02*
X204808694Y-200418779D01*
X180468619Y-208540950D02*
X183790596Y-205218969D01*
X165037990Y-207456041D02*
X166053844Y-208471886D01*
X150999197Y-207454173D02*
X165037990Y-207456041D01*
X146173193Y-205244369D02*
X148789396Y-205244372D01*
X51892200Y-207396254D02*
X53232370Y-208736424D01*
X72259192Y-205345968D02*
X75383390Y-208470174D01*
X51892200Y-204952600D02*
X51892200Y-207396254D01*
X36449000Y-198932800D02*
X39370000Y-201853800D01*
X53232370Y-208736424D02*
X65896942Y-208736425D01*
X180254572Y-208540949D02*
X180468619Y-208540950D01*
X65896942Y-208736425D02*
X69287397Y-205345970D01*
X166053844Y-208471886D02*
X180254572Y-208540949D01*
X34202445Y-187501645D02*
X35333815Y-187501645D01*
X129183814Y-208418924D02*
X142998649Y-208418918D01*
X35333815Y-187501645D02*
X36449000Y-188616830D01*
X69287397Y-205345970D02*
X72259192Y-205345968D01*
X39370000Y-201853800D02*
X48793400Y-201853800D01*
X216088114Y-193906601D02*
X217361840Y-194247886D01*
X148789396Y-205244372D02*
X150999197Y-207454173D01*
X36449000Y-188616830D02*
X36449000Y-198932800D01*
X233305668Y-181281480D02*
X237850981Y-182499397D01*
X48793400Y-201853800D02*
X51892200Y-204952600D01*
X142998649Y-208418918D02*
X146173193Y-205244369D01*
X231633888Y-182246685D02*
X233305668Y-181281480D01*
X75383390Y-208470174D02*
X90107848Y-208471886D01*
X90107848Y-208471886D02*
X104644196Y-208470172D01*
X183790596Y-205218969D02*
X187651393Y-205218971D01*
X104644196Y-208470172D02*
X107946196Y-205168172D01*
X204808694Y-200418779D02*
X216088114Y-193906601D01*
X107946196Y-205168172D02*
X110105195Y-205168169D01*
X220057263Y-191248391D02*
X230899134Y-184988836D01*
X110105195Y-205168169D02*
X112266059Y-207329034D01*
X112266059Y-207329034D02*
X126937976Y-207329036D01*
X219599758Y-192955825D02*
X220057263Y-191248391D01*
X126937976Y-207329036D02*
X128080839Y-208471894D01*
X128080839Y-208471894D02*
X129130841Y-208471896D01*
X129130841Y-208471896D02*
X129183814Y-208418924D01*
G04 #@! TO.N,Net-(D16-Pad2)*
X88766845Y-199510889D02*
X90107847Y-200851889D01*
X83181840Y-199510891D02*
X88766845Y-199510889D01*
X90089996Y-200977174D02*
X90089993Y-203012168D01*
G04 #@! TO.N,Net-(D17-Pad2)*
X225545477Y-135557210D02*
X227521837Y-136086777D01*
X220861554Y-138261479D02*
X225545477Y-135557210D01*
X227410926Y-135968694D02*
X228428421Y-137731049D01*
G04 #@! TO.N,Net-(D18-Pad2)*
X235166107Y-151931795D02*
X237173850Y-152469775D01*
X230351551Y-154711485D02*
X235166107Y-151931795D01*
X236995113Y-152314989D02*
X238012608Y-154077345D01*
G04 #@! TO.N,Net-(D19-Pad2)*
X244873995Y-168304872D02*
X246444848Y-168725782D01*
X239891553Y-171181480D02*
X244873995Y-168304872D01*
X246390618Y-168740882D02*
X247408115Y-170503249D01*
G04 #@! TO.N,Net-(D20-Pad2)*
X107739853Y-161460890D02*
X109157846Y-162878901D01*
X102181855Y-161460890D02*
X107739853Y-161460890D01*
X109216195Y-162724774D02*
X109216193Y-164759770D01*
G04 #@! TO.N,Net-(D21-Pad2)*
X108003846Y-180520891D02*
X109157842Y-181674890D01*
X102191849Y-180520901D02*
X108003846Y-180520891D01*
X109114593Y-181723970D02*
X109114597Y-183758970D01*
G04 #@! TO.N,Net-(D22-Pad2)*
X107816846Y-199510890D02*
X109157848Y-200851891D01*
X102201844Y-199510894D02*
X107816846Y-199510890D01*
X109165396Y-202859769D02*
X109165394Y-200824770D01*
G04 #@! TO.N,Net-(D23-Pad2)*
X241915439Y-126087658D02*
X244158848Y-126688781D01*
X237301549Y-128751489D02*
X241915439Y-126087658D01*
X243763114Y-126293110D02*
X244780615Y-128055473D01*
G04 #@! TO.N,Net-(D24-Pad2)*
X251376037Y-142580398D02*
X253683845Y-143198776D01*
X246801545Y-145221479D02*
X251376037Y-142580398D01*
X253573408Y-143183439D02*
X254590910Y-144945803D01*
G04 #@! TO.N,Net-(D25-Pad2)*
X261363928Y-158774497D02*
X262954853Y-159200777D01*
X256311551Y-161691481D02*
X261363928Y-158774497D01*
X262884997Y-159159188D02*
X263902497Y-160921551D01*
G04 #@! TO.N,Net-(D26-Pad2)*
X126682840Y-161480884D02*
X128080850Y-162878891D01*
X121131844Y-161480892D02*
X126682840Y-161480884D01*
X128164595Y-163486772D02*
X128164594Y-165521772D01*
G04 #@! TO.N,Net-(D27-Pad2)*
X126759850Y-180480895D02*
X128080849Y-181801891D01*
X121151847Y-180480896D02*
X126759850Y-180480895D01*
X128088396Y-181927171D02*
X128088395Y-183962166D01*
G04 #@! TO.N,Net-(D28-Pad2)*
X126719838Y-199490896D02*
X128080839Y-200851898D01*
X121151852Y-199490893D02*
X126719838Y-199490896D01*
X128080843Y-202783568D02*
X128080838Y-200748570D01*
G04 #@! TO.N,Net-(D29-Pad2)*
X258115372Y-116733575D02*
X260668851Y-117417778D01*
X253771546Y-119241482D02*
X258115372Y-116733575D01*
X260432809Y-117167467D02*
X261450305Y-118929824D01*
G04 #@! TO.N,Net-(D30-Pad2)*
X267738048Y-133142747D02*
X270193852Y-133800783D01*
X263271544Y-135721490D02*
X267738048Y-133142747D01*
X270023798Y-133627148D02*
X271041293Y-135389506D01*
G04 #@! TO.N,Net-(D31-Pad2)*
X277812267Y-149267001D02*
X279337847Y-149675776D01*
X272781551Y-152171485D02*
X277812267Y-149267001D01*
X279116995Y-149377029D02*
X280134493Y-151139395D01*
G04 #@! TO.N,Net-(D32-Pad2)*
X145712856Y-161460892D02*
X147130848Y-162878895D01*
X140131844Y-161460897D02*
X145712856Y-161460892D01*
X147163794Y-162877172D02*
X147163796Y-164912173D01*
G04 #@! TO.N,Net-(D33-Pad2)*
X145682844Y-180480890D02*
X147130850Y-181928893D01*
X140141847Y-180480890D02*
X145682844Y-180480890D01*
X147036799Y-181720969D02*
X147036795Y-183755969D01*
G04 #@! TO.N,Net-(D34-Pad2)*
X145779845Y-199500890D02*
X147130848Y-200851897D01*
X140141845Y-199500890D02*
X145779845Y-199500890D01*
X147163795Y-200926371D02*
X147163793Y-202961368D01*
G04 #@! TO.N,Net-(D35-Pad2)*
X274345064Y-107353439D02*
X277305847Y-108146777D01*
X270191544Y-109751476D02*
X274345064Y-107353439D01*
X277345373Y-108106893D02*
X278362874Y-109869251D01*
G04 #@! TO.N,Net-(D36-Pad2)*
X284079335Y-123665513D02*
X286830844Y-124402776D01*
X279721551Y-126181481D02*
X284079335Y-123665513D01*
X286764456Y-124167225D02*
X287781959Y-125929587D01*
G04 #@! TO.N,Net-(D37-Pad2)*
X294292202Y-139733943D02*
X295847846Y-140150784D01*
X289221556Y-142661477D02*
X294292202Y-139733943D01*
X296832078Y-141909655D02*
X295814576Y-140147287D01*
G04 #@! TO.N,Net-(D38-Pad2)*
X164665842Y-161490890D02*
X166053843Y-162878892D01*
X159131843Y-161490898D02*
X164665842Y-161490890D01*
X165858192Y-162877169D02*
X165858191Y-164912169D01*
G04 #@! TO.N,Net-(D39-Pad2)*
X164441850Y-180490892D02*
X166006848Y-182055889D01*
X159141846Y-180490895D02*
X164441850Y-180490892D01*
X166010588Y-182155772D02*
X166010594Y-184190770D01*
G04 #@! TO.N,Net-(D40-Pad2)*
X164662843Y-199460887D02*
X166053845Y-200851896D01*
X159141843Y-199460888D02*
X164662843Y-199460887D01*
X166086795Y-200926374D02*
X166086798Y-202961369D01*
G04 #@! TO.N,Net-(D41-Pad2)*
X305952681Y-96479603D02*
X307464645Y-97352535D01*
X300440499Y-97956588D02*
X305952681Y-96479603D01*
X307468250Y-97382367D02*
X307994944Y-99348026D01*
G04 #@! TO.N,Net-(D42-Pad2)*
X310839649Y-114856487D02*
X312417645Y-115767542D01*
X305390493Y-116316588D02*
X310839649Y-114856487D01*
X312293564Y-115390699D02*
X312820265Y-117356359D01*
G04 #@! TO.N,Net-(D43-Pad2)*
X315548719Y-133257649D02*
X317370652Y-134309544D01*
X310290496Y-134666589D02*
X315548719Y-133257649D01*
X317237688Y-134234970D02*
X317764387Y-136200631D01*
G04 #@! TO.N,Net-(D45-Pad2)*
X183518839Y-180470893D02*
X185103845Y-182055891D01*
X178141844Y-180470892D02*
X183518839Y-180470893D01*
X184933593Y-181720966D02*
X184933595Y-183755972D01*
G04 #@! TO.N,Net-(D46-Pad2)*
X183722847Y-199470887D02*
X185103847Y-200851899D01*
X178131840Y-199470892D02*
X183722847Y-199470887D01*
X185085996Y-200875571D02*
X185085995Y-202910571D01*
G04 #@! TO.N,Net-(D47-Pad2)*
X324290708Y-91555487D02*
X325752650Y-92399541D01*
X318800498Y-93026588D02*
X324290708Y-91555487D01*
X325800347Y-92391406D02*
X326327042Y-94357068D01*
G04 #@! TO.N,Net-(D48-Pad2)*
X329176844Y-109931886D02*
X330705643Y-110814531D01*
X323710496Y-111396593D02*
X329176844Y-109931886D01*
X330568730Y-110677958D02*
X331095428Y-112643614D01*
G04 #@! TO.N,Net-(D49-Pad2)*
X333858740Y-128371044D02*
X335785642Y-129483535D01*
X328650497Y-129766586D02*
X333858740Y-128371044D01*
X335877819Y-129608506D02*
X336404518Y-131574171D01*
G04 #@! TO.N,Net-(D50-Pad2)*
X192694641Y-154491504D02*
X194628845Y-155009774D01*
X187931540Y-157241480D02*
X192694641Y-154491504D01*
X194445738Y-154766515D02*
X195463241Y-156528876D01*
G04 #@! TO.N,Net-(D51-Pad2)*
X202689368Y-170687426D02*
X203899849Y-171011772D01*
X197451546Y-173711488D02*
X202689368Y-170687426D01*
X203998628Y-171160209D02*
X205016127Y-172922565D01*
G04 #@! TO.N,Net-(D52-Pad2)*
X212007667Y-187235018D02*
X213551840Y-187648776D01*
X206921551Y-190171487D02*
X212007667Y-187235018D01*
X213510932Y-187635992D02*
X214528433Y-189398360D01*
G04 #@! TO.N,Net-(D53-Pad2)*
X341019188Y-87089980D02*
X342516641Y-87954535D01*
X337150496Y-88126593D02*
X341019188Y-87089980D01*
X342446134Y-87878588D02*
X342972830Y-89844252D01*
G04 #@! TO.N,Net-(D54-Pad2)*
X345941990Y-105433869D02*
X347342647Y-106242535D01*
X342050495Y-106476590D02*
X345941990Y-105433869D01*
X347350341Y-106181341D02*
X347877034Y-108146998D01*
G04 #@! TO.N,Net-(D55-Pad2)*
X350403896Y-123946330D02*
X352295643Y-125038541D01*
X346987398Y-124861785D02*
X350403896Y-123946330D01*
X352305482Y-125075251D02*
X352832180Y-127040909D01*
G04 #@! TO.N,COL0*
X69272917Y-166102974D02*
X72053324Y-166102970D01*
X74145400Y-164010895D02*
X76831844Y-164010889D01*
X67773866Y-164603921D02*
X69272917Y-166102974D01*
X59402833Y-164020888D02*
X60153304Y-163270423D01*
X57811845Y-164020896D02*
X59402833Y-164020888D01*
X72053324Y-166102970D02*
X74145400Y-164010895D01*
X60153304Y-163270423D02*
X62757376Y-163270423D01*
X62757376Y-163270423D02*
X64090869Y-164603922D01*
X64090869Y-164603922D02*
X67773866Y-164603921D01*
X74449403Y-183010894D02*
X76831849Y-183010890D01*
X72129518Y-185330773D02*
X74449403Y-183010894D01*
X70212720Y-185330773D02*
X72129518Y-185330773D01*
X62693869Y-182320422D02*
X63773371Y-183399927D01*
X63773371Y-183399927D02*
X68281870Y-183399922D01*
X59402838Y-183040894D02*
X60123306Y-182320424D01*
X57811849Y-183040895D02*
X59402838Y-183040894D01*
X68281870Y-183399922D02*
X70212720Y-185330773D01*
X60123306Y-182320424D02*
X62693869Y-182320422D01*
X69184023Y-204431569D02*
X71824722Y-204431575D01*
X67138871Y-202386418D02*
X69184023Y-204431569D01*
X74205403Y-202050890D02*
X76831847Y-202050900D01*
X59392833Y-202040891D02*
X59963365Y-201470358D01*
X59963365Y-201470358D02*
X63238309Y-201470360D01*
X57801851Y-202040895D02*
X59392833Y-202040891D01*
X63238309Y-201470360D02*
X64154372Y-202386419D01*
X71824722Y-204431575D02*
X74205403Y-202050890D01*
X64154372Y-202386419D02*
X67138871Y-202386418D01*
G04 #@! TO.N,COL1*
X97422831Y-164000891D02*
X98153308Y-163270419D01*
X95831851Y-164000896D02*
X97422831Y-164000891D01*
X98153308Y-163270419D02*
X100920865Y-163270426D01*
X100920865Y-163270426D02*
X102063866Y-164413423D01*
X102063866Y-164413423D02*
X105746869Y-164413421D01*
X105746869Y-164413421D02*
X107842366Y-166508924D01*
X107842366Y-166508924D02*
X110636370Y-166508925D01*
X113124406Y-164020890D02*
X114781847Y-164020888D01*
X110636370Y-166508925D02*
X113124406Y-164020890D01*
X110445868Y-185304919D02*
X112729901Y-183020893D01*
X107969367Y-185304923D02*
X110445868Y-185304919D01*
X106508869Y-183844420D02*
X107969367Y-185304923D01*
X102508369Y-183844420D02*
X106508869Y-183844420D01*
X97432838Y-183060891D02*
X97982807Y-182510922D01*
X97982807Y-182510922D02*
X101174867Y-182510924D01*
X68043244Y-188479926D02*
X70277993Y-186245171D01*
X91078368Y-185177923D02*
X93195403Y-183060902D01*
X55518367Y-188479920D02*
X68043244Y-188479926D01*
X101174867Y-182510924D02*
X102508369Y-183844420D01*
X49442453Y-187501649D02*
X54540096Y-187501650D01*
X54540096Y-187501650D02*
X55518367Y-188479920D01*
X72524109Y-186245167D02*
X74695363Y-188416425D01*
X112729901Y-183020893D02*
X114801842Y-183020899D01*
X70277993Y-186245171D02*
X72524109Y-186245167D01*
X74695363Y-188416425D02*
X85998371Y-188416427D01*
X85998371Y-188416427D02*
X89236865Y-185177922D01*
X89236865Y-185177922D02*
X91078368Y-185177923D01*
X93195403Y-183060902D02*
X97432838Y-183060891D01*
X112582070Y-202030894D02*
X114801842Y-202030898D01*
X110130594Y-204482369D02*
X112582070Y-202030894D01*
X106699369Y-202576923D02*
X108604816Y-204482372D01*
X108604816Y-204482372D02*
X110130594Y-204482369D01*
X97442837Y-202050892D02*
X98186806Y-201306922D01*
X95851846Y-202050896D02*
X97442837Y-202050892D01*
X98186806Y-201306922D02*
X100984370Y-201306923D01*
X100984370Y-201306923D02*
X102254371Y-202576920D01*
X102254371Y-202576920D02*
X106699369Y-202576923D01*
G04 #@! TO.N,COL2*
X150325399Y-164030884D02*
X152781849Y-164030889D01*
X148101367Y-166254923D02*
X150325399Y-164030884D01*
X135372835Y-164000894D02*
X135976303Y-163397424D01*
X133781848Y-164000889D02*
X135372835Y-164000894D01*
X135976303Y-163397424D02*
X139528867Y-163397423D01*
X145878866Y-166254923D02*
X148101367Y-166254923D01*
X144291370Y-164667425D02*
X145878866Y-166254923D01*
X139528867Y-163397423D02*
X140798870Y-164667420D01*
X140798870Y-164667420D02*
X144291370Y-164667425D01*
X135382840Y-202040894D02*
X135926302Y-201497423D01*
X133791848Y-202040893D02*
X135382840Y-202040894D01*
X135926302Y-201497423D02*
X139592366Y-201497426D01*
X139592366Y-201497426D02*
X140798871Y-202703920D01*
X140798871Y-202703920D02*
X144418374Y-202703925D01*
X144418374Y-202703925D02*
X145751868Y-204037427D01*
X145751868Y-204037427D02*
X148482367Y-204037428D01*
X150518902Y-202000895D02*
X152791848Y-202000891D01*
X148482367Y-204037428D02*
X150518902Y-202000895D01*
X50573821Y-184961647D02*
X49442449Y-184961650D01*
X58629876Y-178319923D02*
X52216372Y-184733425D01*
X86294079Y-180645591D02*
X83968411Y-178319923D01*
X95398408Y-178323057D02*
X93075875Y-180645586D01*
X95398410Y-178319924D02*
X95398408Y-178323057D01*
X83968411Y-178319923D02*
X58629876Y-178319923D01*
X144354873Y-183463428D02*
X140100372Y-183463424D01*
X152791848Y-183030894D02*
X150248393Y-183030894D01*
X150248393Y-183030894D02*
X148291868Y-184987426D01*
X50802042Y-184733427D02*
X50573821Y-184961647D01*
X129114868Y-178319923D02*
X95398410Y-178319924D01*
X145878873Y-184987422D02*
X144354873Y-183463428D01*
X140100372Y-183463424D02*
X138703368Y-182066423D01*
X93075875Y-180645586D02*
X86294079Y-180645591D01*
X133791844Y-183020892D02*
X129114874Y-178343908D01*
X138703368Y-182066423D02*
X136337296Y-182066423D01*
X52216372Y-184733425D02*
X50802042Y-184733427D01*
X136337296Y-182066423D02*
X135382836Y-183020889D01*
X135382836Y-183020889D02*
X133791844Y-183020892D01*
X148291868Y-184987426D02*
X145878873Y-184987422D01*
X129114874Y-178343908D02*
X129114868Y-178319923D01*
G04 #@! TO.N,COL3*
X184207916Y-204456971D02*
X185581296Y-204456972D01*
X186483323Y-203564855D02*
X202692294Y-195546191D01*
X182327873Y-202576924D02*
X184207916Y-204456971D01*
X173372835Y-202010898D02*
X173949804Y-201433924D01*
X185581296Y-204456972D02*
X186473417Y-203564854D01*
X177628867Y-201433930D02*
X178771874Y-202576927D01*
X171781842Y-202010896D02*
X173372835Y-202010898D01*
X186473417Y-203564854D02*
X186483323Y-203564855D01*
X173949804Y-201433924D02*
X177628867Y-201433930D01*
X178771874Y-202576927D02*
X182327873Y-202576924D01*
X183242837Y-185000571D02*
X187307904Y-185000570D01*
X182294546Y-184052284D02*
X183242837Y-185000571D01*
X169691368Y-177684922D02*
X170707371Y-178700923D01*
X92889477Y-180195579D02*
X92889478Y-180192447D01*
X171791846Y-183010888D02*
X173382833Y-183010889D01*
X50242447Y-181621648D02*
X53740643Y-181621653D01*
X92889478Y-180192447D02*
X95397001Y-177684922D01*
X86656862Y-180195580D02*
X92889477Y-180195579D01*
X95706343Y-177684926D02*
X169691368Y-177684922D01*
X53740643Y-181621653D02*
X57677372Y-177684924D01*
X49442450Y-182421644D02*
X50242447Y-181621648D01*
X169373867Y-182637926D02*
X170008864Y-183272930D01*
X57677372Y-177684924D02*
X84146212Y-177684927D01*
X182264369Y-184034923D02*
X182294546Y-184052284D01*
X170707368Y-179907430D02*
X169373869Y-181240922D01*
X95397001Y-177684922D02*
X95706343Y-177684926D01*
X173382833Y-183010889D02*
X173945873Y-182447852D01*
X170707371Y-178700923D02*
X170707368Y-179907430D01*
X169373869Y-181240922D02*
X169373867Y-182637926D01*
X84146212Y-177684927D02*
X86656862Y-180195580D01*
X176930802Y-182447856D02*
X178517863Y-184034923D01*
X170008864Y-183272930D02*
X171529813Y-183272921D01*
X171529813Y-183272921D02*
X171791846Y-183010888D01*
X173945873Y-182447852D02*
X176930802Y-182447856D01*
X187307904Y-185000570D02*
X193222286Y-179086187D01*
X178517863Y-184034923D02*
X182264369Y-184034923D01*
G04 #@! TO.N,COL4*
X220540124Y-185250697D02*
X220820170Y-184205547D01*
X219162282Y-186046192D02*
X220540124Y-185250697D01*
X220820170Y-184205547D02*
X223343271Y-182748832D01*
X223343271Y-182748832D02*
X224904633Y-183167205D01*
X224904633Y-183167205D02*
X228644138Y-181008204D01*
X228644138Y-181008204D02*
X230899442Y-181612507D01*
X230899442Y-181612507D02*
X232879174Y-180469509D01*
X233610305Y-177740901D02*
X235662292Y-176556187D01*
X232879174Y-180469509D02*
X233610305Y-177740901D01*
X211646655Y-148795026D02*
X214414752Y-147196863D01*
X209666143Y-148264356D02*
X211646655Y-148795026D01*
X201550125Y-152350689D02*
X201801719Y-151411731D01*
X200172290Y-153146184D02*
X201550125Y-152350689D01*
X214414752Y-147196863D02*
X215137604Y-144499145D01*
X201801719Y-151411731D02*
X204443508Y-149886498D01*
X215137604Y-144499145D02*
X216632290Y-143636188D01*
X204443508Y-149886498D02*
X206091621Y-150328103D01*
X206091621Y-150328103D02*
X209666143Y-148264356D01*
X221562495Y-164979172D02*
X222757807Y-164289061D01*
X222757807Y-164289061D02*
X223474322Y-161614993D01*
X219252360Y-164360177D02*
X221562495Y-164979172D01*
X213676537Y-166259555D02*
X215237900Y-166677921D01*
X211383620Y-167583366D02*
X213676537Y-166259555D01*
X211060126Y-168790691D02*
X211383620Y-167583366D01*
X200628075Y-167160114D02*
X209682283Y-169586188D01*
X188178935Y-174421142D02*
X200628075Y-167160114D01*
X185434287Y-177165792D02*
X188178935Y-174421142D01*
X215237900Y-166677921D02*
X219252360Y-164360177D01*
X57612457Y-177113422D02*
X84412911Y-177113422D01*
X223474322Y-161614993D02*
X226122285Y-160086191D01*
X92699943Y-179745569D02*
X95254323Y-177191191D01*
X49442446Y-179881648D02*
X50573820Y-179881650D01*
X50599592Y-179907427D02*
X54818460Y-179907423D01*
X50573820Y-179881650D02*
X50599592Y-179907427D01*
X54818460Y-179907423D02*
X57612457Y-177113422D01*
X84412911Y-177113422D02*
X87045056Y-179745566D01*
X209682283Y-169586188D02*
X211060126Y-168790691D01*
X87045056Y-179745566D02*
X92699943Y-179745569D01*
X95254323Y-177191191D02*
X95514279Y-177191187D01*
X95514279Y-177191187D02*
X95539678Y-177165790D01*
X95539678Y-177165790D02*
X185434287Y-177165792D01*
G04 #@! TO.N,COL5*
X265678019Y-161459766D02*
X266392544Y-158793121D01*
X263368323Y-162793262D02*
X265678019Y-161459766D01*
X261720218Y-162351656D02*
X263368323Y-162793262D01*
X253025833Y-166521430D02*
X253267765Y-165618569D01*
X266392544Y-158793121D02*
X268552292Y-157546186D01*
X256292350Y-163872318D02*
X258200694Y-164383662D01*
X253267765Y-165618569D02*
X256292350Y-163872318D01*
X252082297Y-167066188D02*
X253025833Y-166521430D01*
X258200694Y-164383662D02*
X261720218Y-162351656D01*
X234450127Y-133330696D02*
X234693749Y-132421519D01*
X233072290Y-134126189D02*
X234450127Y-133330696D01*
X234693749Y-132421519D02*
X237329100Y-130899995D01*
X237329100Y-130899995D02*
X238543491Y-131225390D01*
X238543491Y-131225390D02*
X241623075Y-129447389D01*
X241623075Y-129447389D02*
X244485583Y-130214398D01*
X244485583Y-130214398D02*
X246905259Y-128817396D01*
X247754375Y-125648437D02*
X249542283Y-124616187D01*
X246905259Y-128817396D02*
X247754375Y-125648437D01*
X246469146Y-147620031D02*
X248290737Y-148108125D01*
X248290737Y-148108125D02*
X251920254Y-146012620D01*
X251920254Y-146012620D02*
X254175556Y-146616932D01*
X256375259Y-145346927D02*
X257234605Y-142139853D01*
X254175556Y-146616932D02*
X256375259Y-145346927D01*
X244180361Y-148941459D02*
X246469146Y-147620031D01*
X243950125Y-149800693D02*
X244180361Y-148941459D01*
X242572289Y-150596187D02*
X243950125Y-149800693D01*
X257234605Y-142139853D02*
X259042290Y-141096185D01*
X232783440Y-147973280D02*
X242572289Y-150596187D01*
X57078452Y-176663412D02*
X85283698Y-176663412D01*
X85283698Y-176663412D02*
X87843476Y-179223191D01*
X49442442Y-177341647D02*
X56400223Y-177341647D01*
X56400223Y-177341647D02*
X57078452Y-176663412D01*
X87843476Y-179223191D02*
X92059875Y-179223190D01*
X92059875Y-179223190D02*
X94599879Y-176683194D01*
X94599879Y-176683194D02*
X160250966Y-176683188D01*
X182144145Y-176663418D02*
X187962884Y-173971135D01*
X187962884Y-173971135D02*
X232783440Y-147973280D01*
X160250966Y-176683188D02*
X160270740Y-176663413D01*
X160270740Y-176663413D02*
X182144145Y-176663418D01*
G04 #@! TO.N,COL6*
X286370127Y-147240687D02*
X286579480Y-146459352D01*
X284992295Y-148036184D02*
X286370127Y-147240687D01*
X286579480Y-146459352D02*
X289869593Y-144559815D01*
X289869593Y-144559815D02*
X291170736Y-144908452D01*
X291170736Y-144908452D02*
X295020219Y-142685958D01*
X295020219Y-142685958D02*
X297102041Y-143243776D01*
X297110777Y-143211153D02*
X304814270Y-138763541D01*
X297102041Y-143243776D02*
X297110777Y-143211153D01*
X293604767Y-102515331D02*
X293987023Y-102617757D01*
X291735023Y-103594831D02*
X293604767Y-102515331D01*
X291316657Y-105156198D02*
X291735023Y-103594831D01*
X274758644Y-110463211D02*
X279789710Y-111811280D01*
X267340125Y-114330689D02*
X267580265Y-113434475D01*
X272317463Y-111872627D02*
X274758644Y-110463211D01*
X293987023Y-102617757D02*
X294964267Y-102053533D01*
X265962287Y-115126182D02*
X267340125Y-114330689D01*
X267580265Y-113434475D02*
X270929580Y-111500748D01*
X279789710Y-111811280D02*
X291316657Y-105156198D01*
X270929580Y-111500748D02*
X272317463Y-111872627D01*
X285040541Y-126670651D02*
X287797253Y-127409300D01*
X281246049Y-128861393D02*
X285040541Y-126670651D01*
X279424451Y-128373300D02*
X281246049Y-128861393D01*
X277224742Y-129643300D02*
X279424451Y-128373300D01*
X287797253Y-127409300D02*
X299914266Y-120413544D01*
X276935454Y-130722969D02*
X277224742Y-129643300D01*
X183251770Y-174919372D02*
X187111802Y-173521119D01*
X187111802Y-173521119D02*
X233303090Y-146966156D01*
X91704277Y-173101785D02*
X93521862Y-174919372D01*
X93521862Y-174919372D02*
X183251770Y-174919372D01*
X49442443Y-174801645D02*
X51142296Y-173101788D01*
X265056262Y-128759863D02*
X275492285Y-131556181D01*
X51142296Y-173101788D02*
X91704277Y-173101785D01*
X233303090Y-146966156D02*
X233354039Y-146979802D01*
X233354039Y-146979802D02*
X265020179Y-128697355D01*
X275492285Y-131556181D02*
X276935454Y-130722969D01*
X265020179Y-128697355D02*
X265056262Y-128759863D01*
G04 #@! TO.N,COL7*
X339171996Y-129585515D02*
X341511173Y-128958736D01*
X337442266Y-132581500D02*
X339171996Y-129585515D01*
X336136118Y-132931484D02*
X337442266Y-132581500D01*
X334203302Y-131815568D02*
X336136118Y-132931484D01*
X324711044Y-133451764D02*
X325169006Y-132658533D01*
X325169006Y-132658533D02*
X328656615Y-131724036D01*
X328656615Y-131724036D02*
X330523126Y-132801666D01*
X323174266Y-133863532D02*
X324711044Y-133451764D01*
X330523126Y-132801666D02*
X334203302Y-131815568D01*
X328814586Y-92989790D02*
X331674267Y-92223543D01*
X327386186Y-95463854D02*
X328814586Y-92989790D01*
X323814327Y-94760824D02*
X325778257Y-95894698D01*
X314861049Y-96711754D02*
X315318317Y-95919745D01*
X313324269Y-97123535D02*
X314861049Y-96711754D01*
X315318317Y-95919745D02*
X318628034Y-95032904D01*
X325778257Y-95894698D02*
X327386186Y-95463854D01*
X319950143Y-95796232D02*
X323814327Y-94760824D01*
X318628034Y-95032904D02*
X319950143Y-95796232D01*
X332633878Y-113674565D02*
X334030773Y-111255070D01*
X328451105Y-113043197D02*
X330523909Y-114239930D01*
X324463322Y-114111720D02*
X328451105Y-113043197D01*
X93715840Y-174325952D02*
X183208779Y-174325953D01*
X318234269Y-115493544D02*
X319771052Y-115081765D01*
X186559198Y-173011769D02*
X288083025Y-114448509D01*
X49442446Y-172261644D02*
X91651531Y-172261645D01*
X330523909Y-114239930D02*
X332633878Y-113674565D01*
X91651531Y-172261645D02*
X93715840Y-174325952D01*
X320293271Y-114177236D02*
X323218987Y-113393300D01*
X183208779Y-174325953D02*
X186559198Y-173011769D01*
X323218987Y-113393300D02*
X324463322Y-114111720D01*
X288083025Y-114448509D02*
X307440418Y-109261701D01*
X307440418Y-109261701D02*
X318234269Y-115493544D01*
X334030773Y-111255070D02*
X336574268Y-110573543D01*
X319771052Y-115081765D02*
X320293271Y-114177236D01*
G04 #@! TO.N,Net-(U1-Pad22)*
X49288096Y-167335984D02*
X49442445Y-167181640D01*
X44841277Y-167335989D02*
X49288096Y-167335984D01*
G04 #@! TO.N,SDA*
X34381068Y-172440271D02*
X34202444Y-172261646D01*
X35333818Y-172261645D02*
X35345688Y-172249771D01*
X34202444Y-172261646D02*
X35333818Y-172261645D01*
X35345688Y-172249771D02*
X37130992Y-172249770D01*
X38294743Y-173413516D02*
X37130992Y-172249770D01*
X38294742Y-175597916D02*
X38294743Y-173413516D01*
G04 #@! TO.N,SCK*
X35333814Y-174801645D02*
X35345690Y-174789771D01*
X34202445Y-174801643D02*
X35333814Y-174801645D01*
X35345690Y-174789771D02*
X36546797Y-174789777D01*
G04 #@! TO.N,Net-(LED1-Pad2)*
X95158676Y-195250593D02*
X98079678Y-195250592D01*
G04 #@! TO.N,Net-(LED2-Pad2)*
X133563478Y-194158388D02*
X136306677Y-194158387D01*
X133309477Y-194412387D02*
X133563478Y-194158388D01*
G04 #@! TO.N,Net-(LED3-Pad2)*
X170215677Y-195834791D02*
X173314478Y-195834788D01*
X173314478Y-195834788D02*
X173365277Y-195783987D01*
G04 #@! TO.N,Net-(LED4-Pad2)*
X214711063Y-179711920D02*
X217592679Y-178048220D01*
G04 #@! TO.N,Net-(LED5-Pad2)*
X248270416Y-161333617D02*
X250558107Y-160012816D01*
G04 #@! TO.N,Net-(LED6-Pad2)*
X281020615Y-142366627D02*
X283528273Y-140918824D01*
G04 #@! TO.N,Net-(LED7-Pad2)*
X320222884Y-126927683D02*
X322897149Y-126211118D01*
X322897149Y-126211118D02*
X322959366Y-126247039D01*
G04 #@! TD*
M02*
