G04 #@! TF.GenerationSoftware,KiCad,Pcbnew,(5.1.5)-3*
G04 #@! TF.CreationDate,2020-03-28T17:37:08+01:00*
G04 #@! TF.ProjectId,kopesh,6b6f7065-7368-42e6-9b69-6361645f7063,rev?*
G04 #@! TF.SameCoordinates,Original*
G04 #@! TF.FileFunction,Copper,L2,Bot*
G04 #@! TF.FilePolarity,Positive*
%FSLAX46Y46*%
G04 Gerber Fmt 4.6, Leading zero omitted, Abs format (unit mm)*
G04 Created by KiCad (PCBNEW (5.1.5)-3) date 2020-03-28 17:37:08*
%MOMM*%
%LPD*%
G04 APERTURE LIST*
%ADD10C,0.050000*%
%ADD11C,0.150000*%
%ADD12R,1.600000X1.600000*%
%ADD13O,1.600000X1.600000*%
%ADD14C,1.600000*%
%ADD15R,1.730000X2.030000*%
%ADD16O,1.730000X2.030000*%
%ADD17R,3.000000X2.750000*%
%ADD18C,2.250000*%
%ADD19C,1.600000*%
%ADD20C,0.800000*%
%ADD21C,0.381000*%
%ADD22C,0.250000*%
G04 APERTURE END LIST*
D10*
X375136651Y-106420121D02*
X360606650Y-52170125D01*
X320476648Y-121060124D02*
X375136651Y-106420121D01*
X212926648Y-183250129D02*
X320476648Y-121060124D01*
X49936648Y-183250121D02*
X212926648Y-183250129D01*
X49926648Y-127100116D02*
X49936648Y-183250121D01*
X197736650Y-127090122D02*
X49926648Y-127100116D01*
X300336652Y-67850125D02*
X197736650Y-127090122D01*
X360606650Y-52170125D02*
X300336652Y-67850125D01*
D11*
X138016660Y-181690112D02*
X138016660Y-178290112D01*
X134216660Y-178290112D02*
X138016660Y-178290112D01*
X134216660Y-181690112D02*
X134216660Y-178290112D01*
X134216660Y-181690112D02*
X138016660Y-181690112D01*
X280930800Y-142903522D02*
X279230800Y-139959036D01*
X275939904Y-141859036D02*
X279230800Y-139959036D01*
X277639904Y-144803522D02*
X275939904Y-141859036D01*
X277639904Y-144803522D02*
X280930800Y-142903522D01*
X349502947Y-111607008D02*
X348622962Y-108322860D01*
X344952444Y-109306372D02*
X348622962Y-108322860D01*
X345832429Y-112590520D02*
X344952444Y-109306372D01*
X345832429Y-112590520D02*
X349502947Y-111607008D01*
X312952272Y-123340873D02*
X311252272Y-120396387D01*
X307961376Y-122296387D02*
X311252272Y-120396387D01*
X309661376Y-125240873D02*
X307961376Y-122296387D01*
X309661376Y-125240873D02*
X312952272Y-123340873D01*
X247610771Y-161059874D02*
X245910771Y-158115388D01*
X242619875Y-160015388D02*
X245910771Y-158115388D01*
X244319875Y-162959874D02*
X242619875Y-160015388D01*
X244319875Y-162959874D02*
X247610771Y-161059874D01*
X213803448Y-179933013D02*
X212923463Y-176648865D01*
X209252945Y-177632377D02*
X212923463Y-176648865D01*
X210132930Y-180916525D02*
X209252945Y-177632377D01*
X210132930Y-180916525D02*
X213803448Y-179933013D01*
X176379161Y-181805113D02*
X176379161Y-178405113D01*
X172579161Y-178405113D02*
X176379161Y-178405113D01*
X172579161Y-181805113D02*
X172579161Y-178405113D01*
X172579161Y-181805113D02*
X176379161Y-181805113D01*
D12*
X89076654Y-140108111D03*
D13*
X89076654Y-132488111D03*
D14*
X67607251Y-131710875D03*
X67607251Y-134250875D03*
X67607251Y-136790875D03*
X67607251Y-139330875D03*
X67607251Y-141870875D03*
X67607251Y-144410875D03*
X67607251Y-146950875D03*
X67607251Y-149490875D03*
X67607251Y-152030875D03*
X67607251Y-154570875D03*
X67607251Y-157110875D03*
X67607251Y-159650875D03*
X52367251Y-159650875D03*
X52367251Y-157110875D03*
X52367251Y-154570875D03*
X52367251Y-152030875D03*
X52367251Y-149490875D03*
X52367251Y-146950875D03*
X52367251Y-144410875D03*
X52367251Y-141870875D03*
X52367251Y-139330875D03*
X52367251Y-136790875D03*
X52367251Y-134250875D03*
D12*
X52367251Y-131710875D03*
D15*
X56261000Y-167005000D03*
D16*
X58801000Y-167005000D03*
X61341000Y-167005000D03*
X63881000Y-167005000D03*
D17*
X62293500Y-138772900D03*
X62293500Y-141770100D03*
D18*
X215616358Y-143320719D03*
X211387096Y-148695423D03*
X255466355Y-98360715D03*
X251237093Y-103735419D03*
X120346649Y-131070121D03*
X113996649Y-133610121D03*
X365152204Y-94471011D03*
X359675975Y-98567964D03*
X360215303Y-76085817D03*
X354739074Y-80182770D03*
X355315300Y-57735818D03*
X349839071Y-61832771D03*
X346815304Y-99375809D03*
X341339075Y-103472762D03*
X341875301Y-81005817D03*
X336399072Y-85102770D03*
X336965302Y-62635812D03*
X331489073Y-66732765D03*
X328455307Y-104275819D03*
X322979078Y-108372772D03*
X323555297Y-85925819D03*
X318079068Y-90022772D03*
X318605303Y-67565817D03*
X313129074Y-71662770D03*
X307386354Y-112270705D03*
X303157092Y-117645409D03*
X297886354Y-95790709D03*
X293657092Y-101165413D03*
X288356353Y-79360708D03*
X284127091Y-84735412D03*
X290946361Y-121780715D03*
X286717099Y-127155419D03*
X281436359Y-105330708D03*
X277207097Y-110705412D03*
X271936360Y-88850709D03*
X267707098Y-94225413D03*
X274476358Y-131300710D03*
X270247096Y-136675414D03*
X264966354Y-114830712D03*
X260737092Y-120205416D03*
X258056357Y-140790713D03*
X253827095Y-146165417D03*
X248516353Y-124320712D03*
X244287091Y-129695416D03*
X239026361Y-107870710D03*
X234797099Y-113245414D03*
X241556351Y-150280712D03*
X237327089Y-155655416D03*
X232076353Y-133820713D03*
X227847091Y-139195417D03*
X222566358Y-117380714D03*
X218337096Y-122755418D03*
X225086361Y-159780715D03*
X220857099Y-165155419D03*
X206096356Y-126850709D03*
X201867094Y-132225413D03*
X196296652Y-169080117D03*
X189946652Y-171620117D03*
X196306645Y-150080123D03*
X189956645Y-152620123D03*
X177306649Y-169070120D03*
X170956649Y-171610120D03*
X177306658Y-150100122D03*
X170956658Y-152640122D03*
X177296650Y-131100116D03*
X170946650Y-133640116D03*
X158306654Y-169110119D03*
X151956654Y-171650119D03*
X158306648Y-150090119D03*
X151956648Y-152630119D03*
X158296650Y-131070123D03*
X151946650Y-133610123D03*
X139316652Y-169100124D03*
X132966652Y-171640124D03*
X139316654Y-150090125D03*
X132966654Y-152630125D03*
X139296658Y-131090114D03*
X132946658Y-133630114D03*
X120366655Y-169120121D03*
X114016655Y-171660121D03*
X120356656Y-150130122D03*
X114006656Y-152670122D03*
X101346650Y-169120119D03*
X94996650Y-171660119D03*
X101346649Y-150080116D03*
X94996649Y-152620116D03*
X101346654Y-131080123D03*
X94996654Y-133620123D03*
X82316650Y-169110120D03*
X75966650Y-171650120D03*
X82326658Y-150110118D03*
X75976658Y-152650118D03*
X82326651Y-131090121D03*
X75976651Y-133630121D03*
G04 #@! TA.AperFunction,ComponentPad*
D11*
G36*
X373412446Y-102573803D02*
G01*
X371866965Y-102987914D01*
X371452854Y-101442433D01*
X372998335Y-101028322D01*
X373412446Y-102573803D01*
G37*
G04 #@! TD.AperFunction*
D19*
X370460449Y-94647763D02*
X370460449Y-94647763D01*
G04 #@! TA.AperFunction,ComponentPad*
D11*
G36*
X368459447Y-83777803D02*
G01*
X366913966Y-84191914D01*
X366499855Y-82646433D01*
X368045336Y-82232322D01*
X368459447Y-83777803D01*
G37*
G04 #@! TD.AperFunction*
D19*
X365507450Y-75851763D02*
X365507450Y-75851763D01*
G04 #@! TA.AperFunction,ComponentPad*
D11*
G36*
X363633449Y-65489808D02*
G01*
X362087968Y-65903919D01*
X361673857Y-64358438D01*
X363219338Y-63944327D01*
X363633449Y-65489808D01*
G37*
G04 #@! TD.AperFunction*
D19*
X360681452Y-57563768D02*
X360681452Y-57563768D01*
G04 #@! TA.AperFunction,ComponentPad*
D11*
G36*
X236619470Y-164149936D02*
G01*
X235233830Y-164949936D01*
X234433830Y-163564296D01*
X235819470Y-162764296D01*
X236619470Y-164149936D01*
G37*
G04 #@! TD.AperFunction*
D19*
X231716650Y-157258002D02*
X231716650Y-157258002D01*
G04 #@! TA.AperFunction,ComponentPad*
D11*
G36*
X226967472Y-147512934D02*
G01*
X225581832Y-148312934D01*
X224781832Y-146927294D01*
X226167472Y-146127294D01*
X226967472Y-147512934D01*
G37*
G04 #@! TD.AperFunction*
D19*
X222064652Y-140621000D02*
X222064652Y-140621000D01*
G04 #@! TA.AperFunction,ComponentPad*
D11*
G36*
X217696475Y-131510939D02*
G01*
X216310835Y-132310939D01*
X215510835Y-130925299D01*
X216896475Y-130125299D01*
X217696475Y-131510939D01*
G37*
G04 #@! TD.AperFunction*
D19*
X212793655Y-124619005D02*
X212793655Y-124619005D01*
G04 #@! TA.AperFunction,ComponentPad*
D11*
G36*
X356902444Y-107018805D02*
G01*
X355356963Y-107432916D01*
X354942852Y-105887435D01*
X356488333Y-105473324D01*
X356902444Y-107018805D01*
G37*
G04 #@! TD.AperFunction*
D19*
X353950447Y-99092765D02*
X353950447Y-99092765D01*
G04 #@! TA.AperFunction,ComponentPad*
D11*
G36*
X351822443Y-88349804D02*
G01*
X350276962Y-88763915D01*
X349862851Y-87218434D01*
X351408332Y-86804323D01*
X351822443Y-88349804D01*
G37*
G04 #@! TD.AperFunction*
D19*
X348870446Y-80423764D02*
X348870446Y-80423764D01*
G04 #@! TA.AperFunction,ComponentPad*
D11*
G36*
X346869449Y-69934807D02*
G01*
X345323968Y-70348918D01*
X344909857Y-68803437D01*
X346455338Y-68389326D01*
X346869449Y-69934807D01*
G37*
G04 #@! TD.AperFunction*
D19*
X343917452Y-62008767D02*
X343917452Y-62008767D01*
D12*
X203268649Y-178081124D03*
D13*
X203268649Y-170461124D03*
D12*
X203268649Y-159285118D03*
D13*
X203268649Y-151665118D03*
G04 #@! TA.AperFunction,ComponentPad*
D11*
G36*
X338487449Y-111844814D02*
G01*
X336941968Y-112258925D01*
X336527857Y-110713444D01*
X338073338Y-110299333D01*
X338487449Y-111844814D01*
G37*
G04 #@! TD.AperFunction*
D19*
X335535452Y-103918774D02*
X335535452Y-103918774D01*
G04 #@! TA.AperFunction,ComponentPad*
D11*
G36*
X333534444Y-93302804D02*
G01*
X331988963Y-93716915D01*
X331574852Y-92171434D01*
X333120333Y-91757323D01*
X333534444Y-93302804D01*
G37*
G04 #@! TD.AperFunction*
D19*
X330582447Y-85376764D02*
X330582447Y-85376764D01*
G04 #@! TA.AperFunction,ComponentPad*
D11*
G36*
X328581444Y-74887807D02*
G01*
X327035963Y-75301918D01*
X326621852Y-73756437D01*
X328167333Y-73342326D01*
X328581444Y-74887807D01*
G37*
G04 #@! TD.AperFunction*
D19*
X325629447Y-66961767D02*
X325629447Y-66961767D01*
D12*
X184218652Y-178081117D03*
D13*
X184218652Y-170461117D03*
D12*
X184171654Y-159285123D03*
D13*
X184171654Y-151665123D03*
D12*
X184218648Y-140108118D03*
D13*
X184218648Y-132488118D03*
G04 #@! TA.AperFunction,ComponentPad*
D11*
G36*
X318915471Y-116651938D02*
G01*
X317529831Y-117451938D01*
X316729831Y-116066298D01*
X318115471Y-115266298D01*
X318915471Y-116651938D01*
G37*
G04 #@! TD.AperFunction*
D19*
X314012651Y-109760004D02*
X314012651Y-109760004D01*
G04 #@! TA.AperFunction,ComponentPad*
D11*
G36*
X309898468Y-100903941D02*
G01*
X308512828Y-101703941D01*
X307712828Y-100318301D01*
X309098468Y-99518301D01*
X309898468Y-100903941D01*
G37*
G04 #@! TD.AperFunction*
D19*
X304995648Y-94012007D02*
X304995648Y-94012007D01*
G04 #@! TA.AperFunction,ComponentPad*
D11*
G36*
X300373472Y-84647942D02*
G01*
X298987832Y-85447942D01*
X298187832Y-84062302D01*
X299573472Y-83262302D01*
X300373472Y-84647942D01*
G37*
G04 #@! TD.AperFunction*
D19*
X295470652Y-77756008D02*
X295470652Y-77756008D01*
D12*
X165295653Y-178081119D03*
D13*
X165295653Y-170461119D03*
D12*
X165295650Y-159158123D03*
D13*
X165295650Y-151538123D03*
D12*
X165295655Y-140108121D03*
D13*
X165295655Y-132488121D03*
G04 #@! TA.AperFunction,ComponentPad*
D11*
G36*
X302405469Y-126176931D02*
G01*
X301019829Y-126976931D01*
X300219829Y-125591291D01*
X301605469Y-124791291D01*
X302405469Y-126176931D01*
G37*
G04 #@! TD.AperFunction*
D19*
X297502649Y-119284997D02*
X297502649Y-119284997D01*
G04 #@! TA.AperFunction,ComponentPad*
D11*
G36*
X293261475Y-110301943D02*
G01*
X291875835Y-111101943D01*
X291075835Y-109716303D01*
X292461475Y-108916303D01*
X293261475Y-110301943D01*
G37*
G04 #@! TD.AperFunction*
D19*
X288358655Y-103410009D02*
X288358655Y-103410009D01*
G04 #@! TA.AperFunction,ComponentPad*
D11*
G36*
X283736478Y-93918941D02*
G01*
X282350838Y-94718941D01*
X281550838Y-93333301D01*
X282936478Y-92533301D01*
X283736478Y-93918941D01*
G37*
G04 #@! TD.AperFunction*
D19*
X278833658Y-87027007D02*
X278833658Y-87027007D01*
D12*
X146245646Y-178081124D03*
D13*
X146245646Y-170461124D03*
D12*
X146245652Y-159031121D03*
D13*
X146245652Y-151411121D03*
D12*
X146245649Y-140108121D03*
D13*
X146245649Y-132488121D03*
G04 #@! TA.AperFunction,ComponentPad*
D11*
G36*
X286022474Y-135701947D02*
G01*
X284636834Y-136501947D01*
X283836834Y-135116307D01*
X285222474Y-134316307D01*
X286022474Y-135701947D01*
G37*
G04 #@! TD.AperFunction*
D19*
X281119654Y-128810013D02*
X281119654Y-128810013D01*
G04 #@! TA.AperFunction,ComponentPad*
D11*
G36*
X276751473Y-119699935D02*
G01*
X275365833Y-120499935D01*
X274565833Y-119114295D01*
X275951473Y-118314295D01*
X276751473Y-119699935D01*
G37*
G04 #@! TD.AperFunction*
D19*
X271848653Y-112808001D02*
X271848653Y-112808001D01*
G04 #@! TA.AperFunction,ComponentPad*
D11*
G36*
X267226472Y-103189943D02*
G01*
X265840832Y-103989943D01*
X265040832Y-102604303D01*
X266426472Y-101804303D01*
X267226472Y-103189943D01*
G37*
G04 #@! TD.AperFunction*
D19*
X262323652Y-96298009D02*
X262323652Y-96298009D01*
D12*
X127322653Y-178081124D03*
D13*
X127322653Y-170461124D03*
D12*
X127322651Y-158904123D03*
D13*
X127322651Y-151284123D03*
D12*
X127322655Y-140108126D03*
D13*
X127322655Y-132488126D03*
G04 #@! TA.AperFunction,ComponentPad*
D11*
G36*
X269512475Y-145226937D02*
G01*
X268126835Y-146026937D01*
X267326835Y-144641297D01*
X268712475Y-143841297D01*
X269512475Y-145226937D01*
G37*
G04 #@! TD.AperFunction*
D19*
X264609655Y-138335003D02*
X264609655Y-138335003D01*
G04 #@! TA.AperFunction,ComponentPad*
D11*
G36*
X260241479Y-128970938D02*
G01*
X258855839Y-129770938D01*
X258055839Y-128385298D01*
X259441479Y-127585298D01*
X260241479Y-128970938D01*
G37*
G04 #@! TD.AperFunction*
D19*
X255338659Y-122079004D02*
X255338659Y-122079004D01*
G04 #@! TA.AperFunction,ComponentPad*
D11*
G36*
X250589467Y-112587936D02*
G01*
X249203827Y-113387936D01*
X248403827Y-112002296D01*
X249789467Y-111202296D01*
X250589467Y-112587936D01*
G37*
G04 #@! TD.AperFunction*
D19*
X245686647Y-105696002D02*
X245686647Y-105696002D01*
D12*
X108272654Y-178081117D03*
D13*
X108272654Y-170461117D03*
D12*
X108272652Y-158904120D03*
D13*
X108272652Y-151284120D03*
D12*
X108272654Y-140108123D03*
D13*
X108272654Y-132488123D03*
G04 #@! TA.AperFunction,ComponentPad*
D11*
G36*
X253129473Y-154751948D02*
G01*
X251743833Y-155551948D01*
X250943833Y-154166308D01*
X252329473Y-153366308D01*
X253129473Y-154751948D01*
G37*
G04 #@! TD.AperFunction*
D19*
X248226653Y-147860014D02*
X248226653Y-147860014D01*
G04 #@! TA.AperFunction,ComponentPad*
D11*
G36*
X243604468Y-138241935D02*
G01*
X242218828Y-139041935D01*
X241418828Y-137656295D01*
X242804468Y-136856295D01*
X243604468Y-138241935D01*
G37*
G04 #@! TD.AperFunction*
D19*
X238701648Y-131350001D02*
X238701648Y-131350001D01*
G04 #@! TA.AperFunction,ComponentPad*
D11*
G36*
X234079473Y-121858940D02*
G01*
X232693833Y-122658940D01*
X231893833Y-121273300D01*
X233279473Y-120473300D01*
X234079473Y-121858940D01*
G37*
G04 #@! TD.AperFunction*
D19*
X229176653Y-114967006D02*
X229176653Y-114967006D01*
D12*
X89349657Y-178208127D03*
D13*
X89349657Y-170588127D03*
D12*
X89349650Y-159031124D03*
D13*
X89349650Y-151411124D03*
D20*
X169835161Y-179926611D03*
X130592160Y-181424114D03*
X206474658Y-179736111D03*
X240757837Y-162884046D03*
X273575972Y-144669723D03*
X306002319Y-125141802D03*
X341970180Y-112287450D03*
X62484000Y-159258000D03*
X55689500Y-144399000D03*
X56197500Y-142049500D03*
D21*
X167612660Y-182149114D02*
X167612659Y-182212611D01*
X169835161Y-179926611D02*
X167612660Y-182149114D01*
X131380660Y-182212614D02*
X167612659Y-182212611D01*
X130592160Y-181424114D02*
X131380660Y-182212614D01*
X206474658Y-179736111D02*
X206074659Y-180136112D01*
X206074659Y-180136112D02*
X204506157Y-181704611D01*
X202029658Y-182657110D02*
X202982159Y-181704611D01*
X202982159Y-181704611D02*
X204506157Y-181704611D01*
X168120660Y-182657114D02*
X202029658Y-182657110D01*
X167612659Y-182212611D02*
X167676158Y-182212612D01*
X167676158Y-182212612D02*
X168120660Y-182657114D01*
X240014075Y-165659808D02*
X240757837Y-162884046D01*
X257552770Y-156413721D02*
X271025958Y-148634969D01*
X271025958Y-148634969D02*
X271258385Y-147767544D01*
X241109978Y-165906971D02*
X257552770Y-156413721D01*
X240014075Y-165659808D02*
X240069066Y-165628058D01*
X240069066Y-165628058D02*
X241109978Y-165906971D01*
X271258385Y-147767544D02*
X272743186Y-146910295D01*
X272743186Y-146910295D02*
X273018148Y-146751544D01*
X273018148Y-146751544D02*
X273575972Y-144669723D01*
X273018148Y-146751544D02*
X273128134Y-146688042D01*
X287876024Y-139431227D02*
X288297997Y-137856397D01*
X273128134Y-146688042D02*
X274616217Y-147086773D01*
X274616217Y-147086773D02*
X287876024Y-139431227D01*
X288297997Y-137856397D02*
X305157076Y-128122799D01*
X305157076Y-128122799D02*
X305947327Y-125173554D01*
X305947327Y-125173554D02*
X306002319Y-125141802D01*
X236824504Y-167501305D02*
X240014075Y-165659808D01*
X236507829Y-168683142D02*
X236824504Y-167501305D01*
X214481784Y-181459425D02*
X236507829Y-168683142D01*
X214460695Y-181495950D02*
X214481784Y-181459425D01*
X210838132Y-182466612D02*
X214460695Y-181495950D01*
X205268158Y-182466612D02*
X210838132Y-182466612D01*
X204506157Y-181704611D02*
X205268158Y-182466612D01*
X340595833Y-114667890D02*
X341970180Y-112287450D01*
X320592983Y-120027636D02*
X340595833Y-114667890D01*
X320532705Y-120011483D02*
X320592983Y-120027636D01*
X305157076Y-128122799D02*
X307632202Y-127459592D01*
X307632202Y-127459592D02*
X320532705Y-120011483D01*
X62293500Y-137016900D02*
X62293500Y-138772900D01*
X67607251Y-134250875D02*
X65059525Y-134250875D01*
X65059525Y-134250875D02*
X62293500Y-137016900D01*
X62484000Y-159258000D02*
X65024000Y-156718000D01*
X65024000Y-141914126D02*
X67607251Y-139330875D01*
X65024000Y-156718000D02*
X65024000Y-141914126D01*
D22*
X104554715Y-140108113D02*
X106893674Y-137769151D01*
X106893674Y-137769151D02*
X109814677Y-137769151D01*
X89076654Y-140108111D02*
X104554715Y-140108113D01*
X109814677Y-137769151D02*
X112100673Y-140055150D01*
X127269683Y-140055155D02*
X127322655Y-140108126D01*
X112100673Y-140055150D02*
X127269683Y-140055155D01*
X128372656Y-140108126D02*
X128425626Y-140055152D01*
X127322655Y-140108126D02*
X128372656Y-140108126D01*
X128425626Y-140055152D02*
X143088675Y-140055150D01*
X143088675Y-140055150D02*
X144866674Y-138277156D01*
X144866674Y-138277156D02*
X147533672Y-138277154D01*
X149364643Y-140108121D02*
X165295655Y-140108121D01*
X147533672Y-138277154D02*
X149364643Y-140108121D01*
X249712547Y-109990716D02*
X252536565Y-110747402D01*
X247292878Y-111387711D02*
X249712547Y-109990716D01*
X232986653Y-121566120D02*
X246684667Y-113657567D01*
X252536565Y-110747402D02*
X266133652Y-102897123D01*
X246684667Y-113657567D02*
X247292878Y-111387711D01*
X267042980Y-102372120D02*
X267254961Y-102428919D01*
X266133652Y-102897123D02*
X267042980Y-102372120D01*
X267254961Y-102428919D02*
X279804904Y-95183205D01*
X279804904Y-95183205D02*
X280455702Y-92754410D01*
X280455702Y-92754410D02*
X283370308Y-91071658D01*
X286291530Y-91854397D02*
X299280652Y-84355122D01*
X283370308Y-91071658D02*
X286291530Y-91854397D01*
X300080652Y-84140764D02*
X301434303Y-81796171D01*
X299280652Y-84355122D02*
X300080652Y-84140764D01*
X301434303Y-81796171D02*
X321598151Y-76393288D01*
X321598151Y-76393288D02*
X322765585Y-74371232D01*
X322765585Y-74371232D02*
X324237653Y-73976791D01*
X324237653Y-73976791D02*
X324821370Y-72965765D01*
X324821370Y-72965765D02*
X329421597Y-71733140D01*
X331845095Y-73132349D02*
X345889653Y-69369122D01*
X329421597Y-71733140D02*
X331845095Y-73132349D01*
X219976703Y-129077418D02*
X232986653Y-121566120D01*
X186745846Y-139232178D02*
X202905822Y-139232178D01*
X185575653Y-138221349D02*
X186745846Y-139232178D01*
X183221148Y-138334224D02*
X185575653Y-138221349D01*
X181512429Y-140200634D02*
X183221148Y-138334224D01*
X165295655Y-140108121D02*
X181512429Y-140200634D01*
X206686386Y-138245614D02*
X213589855Y-134292365D01*
X213589855Y-134292365D02*
X214635770Y-130388949D01*
X214635770Y-130388949D02*
X217880334Y-128515694D01*
X217880334Y-128515694D02*
X219976703Y-129077418D01*
X202905822Y-139232178D02*
X206686386Y-138245614D01*
X55741122Y-146950878D02*
X52367253Y-146950878D01*
X57627017Y-145064983D02*
X55741122Y-146950878D01*
X74318176Y-140626650D02*
X71714676Y-138023159D01*
X86383173Y-140626654D02*
X74318176Y-140626650D01*
X89076654Y-140108111D02*
X86901713Y-140108113D01*
X71714676Y-138023159D02*
X71714673Y-130022152D01*
X86901713Y-140108113D02*
X86383173Y-140626654D01*
X57627017Y-141822763D02*
X57627017Y-145064983D01*
X71714673Y-130022152D02*
X70889178Y-129196654D01*
X70889178Y-129196654D02*
X65872678Y-129196650D01*
X65872678Y-129196650D02*
X57617675Y-137451650D01*
X57617675Y-137451650D02*
X57617674Y-141813421D01*
X57617674Y-141813421D02*
X57627017Y-141822763D01*
X87678665Y-131090121D02*
X89076651Y-132488116D01*
X82326652Y-131090118D02*
X87678665Y-131090121D01*
X90399645Y-159031126D02*
X90410176Y-159041653D01*
X89349650Y-159031124D02*
X90399645Y-159031126D01*
X90410176Y-159041653D02*
X104861672Y-159041651D01*
X104861672Y-159041651D02*
X106957177Y-156946154D01*
X106957177Y-156946154D02*
X109560672Y-156946152D01*
X111518647Y-158904119D02*
X127322651Y-158904123D01*
X109560672Y-156946152D02*
X111518647Y-158904119D01*
X128372655Y-158904126D02*
X128383175Y-158914654D01*
X127322651Y-158904123D02*
X128372655Y-158904126D01*
X128383175Y-158914654D02*
X143215672Y-158914652D01*
X143215672Y-158914652D02*
X144930176Y-157200153D01*
X144930176Y-157200153D02*
X147724173Y-157200153D01*
X149682143Y-159158121D02*
X166149702Y-159158122D01*
X147724173Y-157200153D02*
X149682143Y-159158121D01*
X187401146Y-159285122D02*
X203268649Y-159285118D01*
X185549116Y-157433088D02*
X187401146Y-159285122D01*
X183284174Y-157433091D02*
X185549116Y-157433088D01*
X165295650Y-159158123D02*
X181559146Y-159158121D01*
X181559146Y-159158121D02*
X183284174Y-157433091D01*
X55369402Y-152030879D02*
X56919176Y-153580650D01*
X52367254Y-152030879D02*
X55369402Y-152030879D01*
X75408200Y-159031128D02*
X89349650Y-159031124D01*
X56919176Y-153580650D02*
X56919177Y-156582800D01*
X242511648Y-137949115D02*
X256312288Y-129981315D01*
X256312288Y-129981315D02*
X256930589Y-127673769D01*
X256930589Y-127673769D02*
X259119055Y-126410258D01*
X262131006Y-127217309D02*
X275658653Y-119407115D01*
X259119055Y-126410258D02*
X262131006Y-127217309D01*
X275658653Y-119407115D02*
X289407342Y-111469311D01*
X289407342Y-111469311D02*
X290121423Y-108804330D01*
X290121423Y-108804330D02*
X292571582Y-107389734D01*
X295640474Y-108212035D02*
X308805648Y-100611121D01*
X292571582Y-107389734D02*
X295640474Y-108212035D01*
X309714977Y-100086120D02*
X309723785Y-100053217D01*
X308805648Y-100611121D02*
X309714977Y-100086120D01*
X309723785Y-100053217D02*
X314415048Y-97344724D01*
X314415048Y-97344724D02*
X329272979Y-93363552D01*
X329272979Y-93363552D02*
X330459442Y-91308543D01*
X330459442Y-91308543D02*
X333894272Y-90388181D01*
X336186057Y-91711339D02*
X350842647Y-87784119D01*
X333894272Y-90388181D02*
X336186057Y-91711339D01*
X228914728Y-145799304D02*
X242511648Y-137949115D01*
X228858994Y-146007298D02*
X228914728Y-145799304D01*
X226303205Y-145136532D02*
X228858994Y-146007298D01*
X223883527Y-146533530D02*
X226303205Y-145136532D01*
X223932902Y-148778055D02*
X223883527Y-146533530D01*
X209799802Y-156937801D02*
X223932902Y-148778055D01*
X204069144Y-159071050D02*
X205418950Y-159071050D01*
X204068647Y-159070764D02*
X204069144Y-159071050D01*
X203268649Y-159285118D02*
X204068647Y-159070764D01*
X205418950Y-159071050D02*
X209799802Y-156937801D01*
X71675437Y-162766563D02*
X71755000Y-162687000D01*
X63102937Y-162766563D02*
X71675437Y-162766563D01*
X56919177Y-156582800D02*
X63102937Y-162766563D01*
X71755000Y-162687000D02*
X75408200Y-159031128D01*
X88048644Y-150110122D02*
X89349650Y-151411124D01*
X82326651Y-150110118D02*
X88048644Y-150110122D01*
X89349656Y-179258129D02*
X89349657Y-178208127D01*
X127322654Y-179131120D02*
X127322653Y-178081124D01*
X127322654Y-179131120D02*
X127322650Y-179343626D01*
X164878517Y-179605266D02*
X165295654Y-179188131D01*
X128747158Y-178081118D02*
X129382018Y-177446267D01*
X127322653Y-178081124D02*
X128747158Y-178081118D01*
X165295654Y-179188131D02*
X165295653Y-178081119D01*
X129382018Y-177446267D02*
X142125785Y-177446264D01*
X142125785Y-177446264D02*
X144284790Y-179605265D01*
X144284790Y-179605265D02*
X164878517Y-179605266D01*
X127322647Y-179316180D02*
X127322654Y-179131120D01*
X126843063Y-179795762D02*
X127322647Y-179316180D01*
X89631016Y-179795763D02*
X126843063Y-179795762D01*
X89349656Y-179258129D02*
X89349659Y-179514405D01*
X89349659Y-179514405D02*
X89631016Y-179795763D01*
X202085622Y-180314156D02*
X203268653Y-179131124D01*
X167589140Y-178081120D02*
X168096998Y-177573265D01*
X183474672Y-180314150D02*
X202085622Y-180314156D01*
X203268653Y-179131124D02*
X203268649Y-178081124D01*
X165295653Y-178081119D02*
X167589140Y-178081120D01*
X180733784Y-177573260D02*
X183474672Y-180314150D01*
X168096998Y-177573265D02*
X180733784Y-177573260D01*
X249955228Y-154670065D02*
X251127324Y-154984128D01*
X238916015Y-161043557D02*
X249955228Y-154670065D01*
X234999692Y-165944294D02*
X238079279Y-164166295D01*
X232657641Y-165316745D02*
X234999692Y-165944294D01*
X238079279Y-164166295D02*
X238916015Y-161043557D01*
X203268649Y-178081124D02*
X205363821Y-176871475D01*
X251127324Y-154984128D02*
X252036653Y-154459128D01*
X284261328Y-135230044D02*
X284929654Y-135409127D01*
X252561659Y-155368456D02*
X253662899Y-155663530D01*
X271245438Y-142744772D02*
X284261328Y-135230044D01*
X252036653Y-154459128D02*
X252561659Y-155368456D01*
X253662899Y-155663530D02*
X270368185Y-146018729D01*
X270368185Y-146018729D02*
X271245438Y-142744772D01*
X284929654Y-135409127D02*
X285838976Y-134884122D01*
X285838976Y-134884122D02*
X287859674Y-135425570D01*
X287859674Y-135425570D02*
X303245524Y-126542542D01*
X316964161Y-116129083D02*
X317822651Y-116359118D01*
X303245524Y-126542542D02*
X304035774Y-123593296D01*
X304035774Y-123593296D02*
X316964161Y-116129083D01*
X318347654Y-117268448D02*
X317822651Y-116359118D01*
X339629582Y-111995949D02*
X339278390Y-112604229D01*
X354097275Y-106942229D02*
X353078907Y-106354272D01*
X353078907Y-106354272D02*
X340040140Y-109847997D01*
X339366622Y-111014565D02*
X339629582Y-111995949D01*
X320109479Y-117740525D02*
X318347654Y-117268448D01*
X339278390Y-112604229D02*
X320109479Y-117740525D01*
X355922648Y-106453120D02*
X354097275Y-106942229D01*
X340040140Y-109847997D02*
X339366622Y-111014565D01*
X205363821Y-176871475D02*
X217424000Y-174053500D01*
X217424000Y-174053500D02*
X232657641Y-165316745D01*
X89349654Y-179572374D02*
X89349656Y-179258129D01*
X89126265Y-179795761D02*
X89349654Y-179572374D01*
X68148293Y-179795766D02*
X89126265Y-179795761D01*
X62635513Y-174282987D02*
X68148293Y-179795766D01*
X52367256Y-164014727D02*
X52367254Y-164014729D01*
X52367254Y-159650880D02*
X52367256Y-164014727D01*
X52367254Y-164014729D02*
X52367254Y-169016754D01*
X52367254Y-169016754D02*
X57633487Y-174282987D01*
X57633487Y-174282987D02*
X62635513Y-174282987D01*
X87871655Y-169110121D02*
X89349656Y-170588125D01*
X82316653Y-169110122D02*
X87871655Y-169110121D01*
X227517180Y-114522354D02*
X229176652Y-114967006D01*
X222566357Y-117380712D02*
X227517180Y-114522354D01*
X237099368Y-130920675D02*
X238701648Y-131350007D01*
X232076350Y-133820712D02*
X237099368Y-130920675D01*
X246534469Y-147406596D02*
X248226652Y-147860011D01*
X241556353Y-150280716D02*
X246534469Y-147406596D01*
X182400618Y-142976153D02*
X184218647Y-141158123D01*
X147152679Y-142976149D02*
X182400618Y-142976153D01*
X146245649Y-140108121D02*
X146245653Y-142069131D01*
X184218647Y-141158123D02*
X184218648Y-140108118D01*
X146245653Y-142069131D02*
X147152679Y-142976149D01*
X146245657Y-141978179D02*
X146245649Y-140108121D01*
X109433678Y-143103154D02*
X145120676Y-143103155D01*
X108272654Y-140108123D02*
X108272653Y-141942130D01*
X145120676Y-143103155D02*
X146245657Y-141978179D01*
X108272653Y-141942130D02*
X109433678Y-143103154D01*
X217128648Y-132127446D02*
X216603655Y-131218119D01*
X250021647Y-113204450D02*
X249496647Y-112295116D01*
X249655888Y-114569483D02*
X250021647Y-113204450D01*
X218573872Y-132514691D02*
X249655888Y-114569483D01*
X217128648Y-132127446D02*
X218573872Y-132514691D01*
X282997875Y-95172829D02*
X283168659Y-94535446D01*
X251213196Y-113523718D02*
X282997875Y-95172829D01*
X283168659Y-94535446D02*
X282643658Y-93626121D01*
X250021647Y-113204450D02*
X251213196Y-113523718D01*
X327873410Y-75336344D02*
X327601648Y-74322122D01*
X363029432Y-66326556D02*
X362653653Y-64924123D01*
X329546230Y-76827470D02*
X361985031Y-68135513D01*
X361985031Y-68135513D02*
X363029432Y-66326556D01*
X327873410Y-75336344D02*
X328039927Y-75957804D01*
X328039927Y-75957804D02*
X329546230Y-76827470D01*
X328049867Y-75994891D02*
X327873410Y-75336344D01*
X283719297Y-94682991D02*
X297449641Y-86755779D01*
X283168659Y-94535446D02*
X283719297Y-94682991D01*
X297449641Y-86755779D02*
X299184494Y-87220629D01*
X299184494Y-87220629D02*
X306058566Y-83251880D01*
X327117942Y-77609035D02*
X328049867Y-75994891D01*
X306058566Y-83251880D02*
X327117942Y-77609035D01*
X216671683Y-133832892D02*
X217128648Y-132127446D01*
X207065713Y-139311213D02*
X216671683Y-133832892D01*
X184218648Y-140108118D02*
X203553882Y-140108118D01*
X203553882Y-140108118D02*
X207065713Y-139311213D01*
X108272652Y-141851177D02*
X108272654Y-140108123D01*
X106957175Y-143166651D02*
X108272652Y-141851177D01*
X75143677Y-143103151D02*
X106957175Y-143166651D01*
X70698675Y-138658152D02*
X75143677Y-143103151D01*
X59840174Y-143293656D02*
X59840174Y-137324652D01*
X58356500Y-144777330D02*
X59840174Y-143293656D01*
X58356500Y-146621500D02*
X58356500Y-144777330D01*
X70698676Y-130974652D02*
X70698675Y-138658152D01*
X52367252Y-149490876D02*
X55487124Y-149490876D01*
X66190175Y-130149155D02*
X69873173Y-130149151D01*
X55487124Y-149490876D02*
X58356500Y-146621500D01*
X69873173Y-130149151D02*
X70698676Y-130974652D01*
X59840174Y-137324652D02*
X65237680Y-131927156D01*
X65237680Y-131927156D02*
X65237674Y-131101652D01*
X65237674Y-131101652D02*
X66190175Y-130149155D01*
X106864643Y-131080123D02*
X108272652Y-132488126D01*
X101346650Y-131080125D02*
X106864643Y-131080123D01*
X146245657Y-160081122D02*
X146245652Y-159031121D01*
X144110120Y-162216654D02*
X146245657Y-160081122D01*
X109687673Y-162216651D02*
X144110120Y-162216654D01*
X108272652Y-158904120D02*
X108272654Y-160801630D01*
X108272654Y-160801630D02*
X109687673Y-162216651D01*
X146245657Y-160081122D02*
X148381187Y-162216650D01*
X184171651Y-160335123D02*
X184171654Y-159285123D01*
X182290120Y-162216655D02*
X184171651Y-160335123D01*
X148381187Y-162216650D02*
X182290120Y-162216655D01*
X259673659Y-129587444D02*
X259148659Y-128678118D01*
X259503940Y-130220840D02*
X259673659Y-129587444D01*
X227484793Y-148707103D02*
X259503940Y-130220840D01*
X225874652Y-147220114D02*
X226595604Y-148468849D01*
X226595604Y-148468849D02*
X227484793Y-148707103D01*
X292693658Y-110918451D02*
X292168655Y-110009123D01*
X292532972Y-111518136D02*
X292693658Y-110918451D01*
X259673659Y-129587444D02*
X260740760Y-129873378D01*
X260740760Y-129873378D02*
X292532972Y-111518136D01*
X332826410Y-93751348D02*
X332554648Y-92737119D01*
X293206599Y-111055895D02*
X306581186Y-103334075D01*
X306581186Y-103334075D02*
X308316036Y-103798924D01*
X292693658Y-110918451D02*
X293206599Y-111055895D01*
X308316036Y-103798924D02*
X315355088Y-99734925D01*
X332927406Y-94128295D02*
X332826410Y-93751348D01*
X332313973Y-95190808D02*
X332927406Y-94128295D01*
X315355088Y-99734925D02*
X332313973Y-95190808D01*
X367119205Y-85824428D02*
X367843479Y-84569945D01*
X367843479Y-84569945D02*
X367479651Y-83212118D01*
X333874930Y-94732206D02*
X367119205Y-85824428D01*
X332826410Y-93751348D02*
X332945436Y-94195558D01*
X332945436Y-94195558D02*
X333874930Y-94732206D01*
X184171654Y-159285123D02*
X184148618Y-160895646D01*
X184148618Y-160895646D02*
X185452032Y-161756233D01*
X226384941Y-149342105D02*
X226611533Y-148496435D01*
X226611533Y-148496435D02*
X225874652Y-147220114D01*
X212832696Y-157143196D02*
X226384941Y-149342105D01*
X185452032Y-161756233D02*
X203390500Y-161734500D01*
X212832696Y-157143196D02*
X203390500Y-161734500D01*
X62427597Y-163216573D02*
X72114427Y-163216573D01*
X56220676Y-155422153D02*
X56220680Y-157009651D01*
X52367255Y-154570877D02*
X55369396Y-154570881D01*
X56220680Y-157009651D02*
X62349762Y-163138733D01*
X72114427Y-163216573D02*
X72199500Y-163131500D01*
X108272651Y-160774174D02*
X108272652Y-158904120D01*
X62349762Y-163138733D02*
X62349762Y-163138738D01*
X106766672Y-162280155D02*
X108272651Y-160774174D01*
X55369396Y-154570881D02*
X56220676Y-155422153D01*
X62349762Y-163138738D02*
X62427597Y-163216573D01*
X72199500Y-163131500D02*
X73111674Y-162280155D01*
X73111674Y-162280155D02*
X106766672Y-162280155D01*
X107068653Y-150080116D02*
X108272652Y-151284120D01*
X101346652Y-150080122D02*
X107068653Y-150080116D01*
X145102785Y-176938262D02*
X146245646Y-178081124D01*
X124620714Y-178081122D02*
X126388174Y-176313652D01*
X108272654Y-178081117D02*
X124620714Y-178081122D01*
X126388174Y-176313652D02*
X128737677Y-176313654D01*
X128737677Y-176313654D02*
X129362286Y-176938262D01*
X129362286Y-176938262D02*
X145102785Y-176938262D01*
X183202794Y-177065266D02*
X184218652Y-178081117D01*
X169006017Y-177065264D02*
X183202794Y-177065266D01*
X168444905Y-176504153D02*
X169006017Y-177065264D01*
X146245646Y-178081124D02*
X147295648Y-178081124D01*
X147295648Y-178081124D02*
X147348618Y-178028153D01*
X147348618Y-178028153D02*
X162519673Y-178028146D01*
X162519673Y-178028146D02*
X164043672Y-176504153D01*
X164043672Y-176504153D02*
X168444905Y-176504153D01*
X234252922Y-163515827D02*
X235526650Y-163857116D01*
X184218652Y-178081117D02*
X199466077Y-178155266D01*
X202363667Y-176189048D02*
X204135297Y-176126544D01*
X199466077Y-178155266D02*
X202363667Y-176189048D01*
X204135297Y-176126544D02*
X204171241Y-176126541D01*
X204171241Y-176126541D02*
X205264517Y-175033262D01*
X251814034Y-152111595D02*
X254664837Y-152875466D01*
X237764563Y-162565058D02*
X238222069Y-160857621D01*
X235526650Y-163857116D02*
X237764563Y-162565058D01*
X238222069Y-160857621D02*
X249714403Y-154222519D01*
X254664837Y-152875466D02*
X268419655Y-144934117D01*
X249714403Y-154222519D02*
X249999277Y-153159347D01*
X249999277Y-153159347D02*
X251814034Y-152111595D01*
X287700331Y-133743192D02*
X301312649Y-125884111D01*
X282939855Y-134141098D02*
X284919592Y-132998099D01*
X282562009Y-135551239D02*
X282939855Y-134141098D01*
X269328979Y-144409119D02*
X269349083Y-144334084D01*
X284919592Y-132998099D02*
X287700331Y-133743192D01*
X269349083Y-144334084D02*
X270043846Y-143932961D01*
X268419655Y-144934117D02*
X269328979Y-144409119D01*
X270043846Y-143932961D02*
X270409764Y-142567338D01*
X270409764Y-142567338D02*
X282562009Y-135551239D01*
X322452048Y-115313265D02*
X337507653Y-111279129D01*
X321668331Y-114860784D02*
X322452048Y-115313265D01*
X318285373Y-113954324D02*
X321668331Y-114860784D01*
X318253620Y-113899330D02*
X318285373Y-113954324D01*
X315339011Y-115582080D02*
X318253620Y-113899330D01*
X302708126Y-125078433D02*
X303121863Y-123534352D01*
X301312649Y-125884111D02*
X302708126Y-125078433D01*
X303121863Y-123534352D02*
X315054135Y-116645251D01*
X315054135Y-116645251D02*
X315339011Y-115582080D01*
X338425765Y-109688907D02*
X353678607Y-105601922D01*
X353995680Y-105052738D02*
X356817147Y-104296728D01*
X356817147Y-104296728D02*
X359059618Y-105591413D01*
X359059618Y-105591413D02*
X372432650Y-102008118D01*
X337507653Y-111279129D02*
X338425765Y-109688907D01*
X353678607Y-105601922D02*
X353995680Y-105052738D01*
X222973496Y-170028004D02*
X205264517Y-175033262D01*
X222973496Y-170028004D02*
X234252922Y-163515827D01*
X87907174Y-176186654D02*
X91082175Y-176186655D01*
X85748179Y-178345653D02*
X87907174Y-176186654D01*
X71397174Y-178345653D02*
X85748179Y-178345653D01*
X66484500Y-173482000D02*
X71397174Y-178345653D01*
X53478878Y-157110878D02*
X53721000Y-157353000D01*
X52367248Y-157110876D02*
X53478878Y-157110878D01*
X53721000Y-169608500D02*
X57594500Y-173482000D01*
X92976642Y-178081119D02*
X108272654Y-178081117D01*
X53721000Y-157353000D02*
X53721000Y-169608500D01*
X91082175Y-176186655D02*
X92976642Y-178081119D01*
X57594500Y-173482000D02*
X66484500Y-173482000D01*
X106931653Y-169120121D02*
X108272653Y-170461115D01*
X101346650Y-169120121D02*
X106931653Y-169120121D01*
X243710283Y-105166440D02*
X245686645Y-105696006D01*
X239026356Y-107870705D02*
X243710283Y-105166440D01*
X253330911Y-121541027D02*
X255338657Y-122079004D01*
X248516356Y-124320714D02*
X253330911Y-121541027D01*
X263038799Y-137914098D02*
X264609652Y-138335008D01*
X258056359Y-140790711D02*
X263038799Y-137914098D01*
X125904657Y-131070120D02*
X127322650Y-132488125D01*
X120346658Y-131070121D02*
X125904657Y-131070120D01*
X126168651Y-150130121D02*
X127322648Y-151284119D01*
X120356654Y-150130130D02*
X126168651Y-150130121D01*
X125981652Y-169120120D02*
X127322653Y-170461120D01*
X120366650Y-169120122D02*
X125981652Y-169120120D01*
X260080244Y-95696886D02*
X262323654Y-96298009D01*
X255466356Y-98360714D02*
X260080244Y-95696886D01*
X269540840Y-112189629D02*
X271848650Y-112808003D01*
X264966350Y-114830710D02*
X269540840Y-112189629D01*
X279528732Y-128383724D02*
X281119655Y-128810006D01*
X274476359Y-131300711D02*
X279528732Y-128383724D01*
X144847642Y-131090114D02*
X146245652Y-132488121D01*
X139296652Y-131090119D02*
X144847642Y-131090114D01*
X144924652Y-150090122D02*
X146245652Y-151411120D01*
X139316653Y-150090122D02*
X144924652Y-150090122D01*
X144884645Y-169100123D02*
X146245647Y-170461125D01*
X139316656Y-169100123D02*
X144884645Y-169100123D01*
X276280179Y-86342806D02*
X278833659Y-87027007D01*
X271936355Y-88850710D02*
X276280179Y-86342806D01*
X285902850Y-102751980D02*
X288358657Y-103410012D01*
X281436350Y-105330717D02*
X285902850Y-102751980D01*
X295977075Y-118876229D02*
X297502651Y-119285001D01*
X290946359Y-121780716D02*
X295977075Y-118876229D01*
X163877661Y-131070125D02*
X165295655Y-132488123D01*
X158296652Y-131070124D02*
X163877661Y-131070125D01*
X163847651Y-150090123D02*
X165295655Y-151538123D01*
X158306653Y-150090120D02*
X163847651Y-150090123D01*
X163944653Y-169110121D02*
X165295652Y-170461124D01*
X158306651Y-169110122D02*
X163944653Y-169110121D01*
X292509870Y-76962669D02*
X295470652Y-77756007D01*
X288356351Y-79360705D02*
X292509870Y-76962669D01*
X302244140Y-93274743D02*
X304995648Y-94012005D01*
X297886355Y-95790710D02*
X302244140Y-93274743D01*
X312457004Y-109343171D02*
X314012656Y-109760010D01*
X307386359Y-112270708D02*
X312457004Y-109343171D01*
X182830650Y-131100118D02*
X184218646Y-132488121D01*
X177296647Y-131100124D02*
X182830650Y-131100118D01*
X182606656Y-150100123D02*
X184171653Y-151665121D01*
X177306653Y-150100126D02*
X182606656Y-150100123D01*
X182827648Y-169070117D02*
X184218650Y-170461120D01*
X177306648Y-169070117D02*
X182827648Y-169070117D01*
X324117486Y-66088830D02*
X325629448Y-66961766D01*
X318605305Y-67565814D02*
X324117486Y-66088830D01*
X329004458Y-84465716D02*
X330582447Y-85376770D01*
X323555297Y-85925817D02*
X329004458Y-84465716D01*
X333713526Y-102866880D02*
X335535454Y-103918770D01*
X328455303Y-104275819D02*
X333713526Y-102866880D01*
X201683645Y-150080123D02*
X203268652Y-151665122D01*
X196306649Y-150080121D02*
X201683645Y-150080123D01*
X201887652Y-169080121D02*
X203268651Y-170461125D01*
X196296649Y-169080121D02*
X201887652Y-169080121D01*
X342455512Y-61164713D02*
X343917454Y-62008767D01*
X336965304Y-62635813D02*
X342455512Y-61164713D01*
X347341652Y-79541114D02*
X348870448Y-80423761D01*
X341875302Y-81005818D02*
X347341652Y-79541114D01*
X352023547Y-97980270D02*
X353950451Y-99092766D01*
X346815304Y-99375814D02*
X352023547Y-97980270D01*
X210859446Y-124100735D02*
X212793652Y-124619006D01*
X206096349Y-126850708D02*
X210859446Y-124100735D01*
X220854174Y-140296656D02*
X222064655Y-140621000D01*
X215616352Y-143320714D02*
X220854174Y-140296656D01*
X230172476Y-156844245D02*
X231716647Y-157258003D01*
X225086357Y-159780715D02*
X230172476Y-156844245D01*
X359183995Y-56699207D02*
X360681447Y-57563765D01*
X355315301Y-57735826D02*
X359183995Y-56699207D01*
X364106793Y-75043096D02*
X365507453Y-75851765D01*
X360215301Y-76085820D02*
X364106793Y-75043096D01*
X368568702Y-93555559D02*
X370460448Y-94647766D01*
X365152203Y-94471012D02*
X368568702Y-93555559D01*
X77567642Y-133630118D02*
X78318111Y-132879654D01*
X75976652Y-133630123D02*
X77567642Y-133630118D01*
X78318111Y-132879654D02*
X80922178Y-132879650D01*
X80922178Y-132879650D02*
X82255674Y-134213153D01*
X82255674Y-134213153D02*
X85938673Y-134213150D01*
X85938673Y-134213150D02*
X87081674Y-135356154D01*
X87081674Y-135356154D02*
X90574174Y-135356151D01*
X92310206Y-133620121D02*
X94996649Y-133620121D01*
X90574174Y-135356151D02*
X92310206Y-133620121D01*
X77567644Y-152650122D02*
X78288111Y-151929651D01*
X75976655Y-152650121D02*
X77567644Y-152650122D01*
X78288111Y-151929651D02*
X80858677Y-151929655D01*
X80858677Y-151929655D02*
X81938174Y-153009153D01*
X81938174Y-153009153D02*
X86446675Y-153009151D01*
X86446675Y-153009151D02*
X87462676Y-154025155D01*
X87462676Y-154025155D02*
X91209176Y-154025153D01*
X92614206Y-152620121D02*
X94996652Y-152620118D01*
X91209176Y-154025153D02*
X92614206Y-152620121D01*
X77557640Y-171650122D02*
X78128175Y-171079589D01*
X75966651Y-171650124D02*
X77557640Y-171650122D01*
X78128175Y-171079589D02*
X81403113Y-171079591D01*
X81403113Y-171079591D02*
X82319176Y-171995650D01*
X82319176Y-171995650D02*
X85303675Y-171995649D01*
X85303675Y-171995649D02*
X86383175Y-173075153D01*
X86383175Y-173075153D02*
X90955175Y-173075151D01*
X92370207Y-171660120D02*
X94996653Y-171660125D01*
X90955175Y-173075151D02*
X92370207Y-171660120D01*
X67607256Y-157110878D02*
X72704900Y-157110878D01*
X72704900Y-157110878D02*
X73683174Y-158089151D01*
X73683174Y-158089151D02*
X86129176Y-158089152D01*
X86129176Y-158089152D02*
X87208676Y-157009651D01*
X87208676Y-157009651D02*
X91844172Y-157009651D01*
X91844172Y-157009651D02*
X92860171Y-158025656D01*
X92860171Y-158025656D02*
X104163179Y-158025655D01*
X104163179Y-158025655D02*
X107401671Y-154787150D01*
X107401671Y-154787150D02*
X109243174Y-154787153D01*
X111360206Y-152670126D02*
X114006648Y-152670123D01*
X109243174Y-154787153D02*
X111360206Y-152670126D01*
X115587640Y-133610120D02*
X116318113Y-132879649D01*
X113996653Y-133610124D02*
X115587640Y-133610120D01*
X116318113Y-132879649D02*
X119085674Y-132879653D01*
X119085674Y-132879653D02*
X120228673Y-134022652D01*
X120228673Y-134022652D02*
X123911674Y-134022652D01*
X123911674Y-134022652D02*
X126007175Y-136118153D01*
X126007175Y-136118153D02*
X128801175Y-136118153D01*
X131289211Y-133630118D02*
X132946651Y-133630118D01*
X128801175Y-136118153D02*
X131289211Y-133630118D01*
X115597642Y-152670120D02*
X116147611Y-152120149D01*
X114006648Y-152670123D02*
X115597642Y-152670120D01*
X116147611Y-152120149D02*
X119339676Y-152120155D01*
X119339676Y-152120155D02*
X120673175Y-153453651D01*
X120673175Y-153453651D02*
X124673675Y-153453651D01*
X124673675Y-153453651D02*
X126134172Y-154914153D01*
X126134172Y-154914153D02*
X128610672Y-154914151D01*
X130894704Y-152630122D02*
X132966647Y-152630126D01*
X128610672Y-154914151D02*
X130894704Y-152630122D01*
X115607644Y-171660120D02*
X116351611Y-170916150D01*
X114016651Y-171660123D02*
X115607644Y-171660120D01*
X116351611Y-170916150D02*
X119149176Y-170916153D01*
X119149176Y-170916153D02*
X120419175Y-172186148D01*
X120419175Y-172186148D02*
X124864175Y-172186152D01*
X124864175Y-172186152D02*
X126197672Y-173519652D01*
X126197672Y-173519652D02*
X128674176Y-173519651D01*
X130553707Y-171640123D02*
X132966646Y-171640126D01*
X128674176Y-173519651D02*
X130553707Y-171640123D01*
X168490208Y-133640115D02*
X170946652Y-133640117D01*
X166266172Y-135864151D02*
X168490208Y-133640115D01*
X153537640Y-133610127D02*
X154141111Y-133006653D01*
X151946653Y-133610123D02*
X153537640Y-133610127D01*
X154141111Y-133006653D02*
X157693674Y-133006651D01*
X164043673Y-135864154D02*
X166266172Y-135864151D01*
X162456176Y-134276653D02*
X164043673Y-135864154D01*
X157693674Y-133006651D02*
X158963675Y-134276648D01*
X158963675Y-134276648D02*
X162456176Y-134276653D01*
X153547642Y-171650120D02*
X154091111Y-171106652D01*
X151956650Y-171650121D02*
X153547642Y-171650120D01*
X154091111Y-171106652D02*
X157757174Y-171106656D01*
X157757174Y-171106656D02*
X158963676Y-172313150D01*
X158963676Y-172313150D02*
X162583180Y-172313154D01*
X162583180Y-172313154D02*
X163916672Y-173646656D01*
X163916672Y-173646656D02*
X166647172Y-173646657D01*
X168683711Y-171610121D02*
X170956651Y-171610121D01*
X166647172Y-173646657D02*
X168683711Y-171610121D01*
X67607251Y-154570875D02*
X68738627Y-154570877D01*
X68966846Y-154342653D02*
X70381175Y-154342650D01*
X153547641Y-152630118D02*
X154502102Y-151675655D01*
X162519678Y-153072657D02*
X164043675Y-154596654D01*
X154502102Y-151675655D02*
X156868174Y-151675653D01*
X68738627Y-154570877D02*
X68966846Y-154342653D01*
X70381175Y-154342650D02*
X76794677Y-147929154D01*
X76794677Y-147929154D02*
X147279674Y-147929151D01*
X147279674Y-147929151D02*
X147279676Y-147953142D01*
X147279676Y-147953142D02*
X151956649Y-152630122D01*
X151956649Y-152630122D02*
X153547641Y-152630118D01*
X156868174Y-151675653D02*
X158265176Y-153072651D01*
X158265176Y-153072651D02*
X162519678Y-153072657D01*
X164043675Y-154596654D02*
X166456675Y-154596656D01*
X166456675Y-154596656D02*
X168413201Y-152640125D01*
X168413201Y-152640125D02*
X170956652Y-152640126D01*
X191537640Y-171620123D02*
X192114610Y-171043155D01*
X189946651Y-171620121D02*
X191537640Y-171620123D01*
X192114610Y-171043155D02*
X195793672Y-171043155D01*
X195793672Y-171043155D02*
X196936677Y-172186154D01*
X196936677Y-172186154D02*
X200492676Y-172186154D01*
X200492676Y-172186154D02*
X201699174Y-173392652D01*
X203832425Y-173392655D02*
X204648126Y-173174085D01*
X201699174Y-173392652D02*
X203832425Y-173392655D01*
X207158962Y-152923550D02*
X201710032Y-154383588D01*
X201710032Y-154383588D02*
X200459349Y-153661508D01*
X200429175Y-153644155D02*
X200459349Y-153661508D01*
X189694618Y-152882153D02*
X189956650Y-152620114D01*
X188173672Y-152882155D02*
X189694618Y-152882153D01*
X187538673Y-152247157D02*
X188173672Y-152882155D01*
X187538674Y-150850149D02*
X187538673Y-152247157D01*
X188872173Y-149516657D02*
X187538674Y-150850149D01*
X187856175Y-147294151D02*
X188872177Y-148310153D01*
X68407250Y-151230878D02*
X71905450Y-151230881D01*
X189956650Y-152620114D02*
X191547641Y-152620119D01*
X191547641Y-152620119D02*
X192110679Y-152057085D01*
X196682671Y-153644152D02*
X200429175Y-153644155D01*
X195095605Y-152057085D02*
X196682671Y-153644152D01*
X192110679Y-152057085D02*
X195095605Y-152057085D01*
X75842175Y-147294153D02*
X187856175Y-147294151D01*
X71905450Y-151230881D02*
X75842175Y-147294153D01*
X67607253Y-152030876D02*
X68407250Y-151230878D01*
X188872177Y-148310153D02*
X188872173Y-149516657D01*
X207158962Y-152923550D02*
X211387093Y-148695419D01*
X204648126Y-173174085D02*
X220857099Y-165155419D01*
X219714930Y-121959919D02*
X219966526Y-121020963D01*
X218337096Y-122755413D02*
X219714930Y-121959919D01*
X219966526Y-121020963D02*
X222608314Y-119495724D01*
X222608314Y-119495724D02*
X224256427Y-119937334D01*
X224256427Y-119937334D02*
X227830947Y-117873581D01*
X227830947Y-117873581D02*
X229305572Y-118268703D01*
X229305572Y-118268703D02*
X232715110Y-116300205D01*
X233302411Y-114108370D02*
X234797095Y-113245418D01*
X232715110Y-116300205D02*
X233302411Y-114108370D01*
X238704928Y-154859927D02*
X238984974Y-153814774D01*
X237327089Y-155655421D02*
X238704928Y-154859927D01*
X238984974Y-153814774D02*
X241508074Y-152358061D01*
X241508074Y-152358061D02*
X243069438Y-152776431D01*
X243069438Y-152776431D02*
X246808942Y-150617429D01*
X246808942Y-150617429D02*
X249064247Y-151221737D01*
X249064247Y-151221737D02*
X251043983Y-150078740D01*
X251775110Y-147350130D02*
X253827096Y-146165412D01*
X251043983Y-150078740D02*
X251775110Y-147350130D01*
X241639129Y-131224219D02*
X244287091Y-129695423D01*
X241076759Y-133323007D02*
X241639129Y-131224219D01*
X239152019Y-134434254D02*
X241076759Y-133323007D01*
X237417167Y-133969405D02*
X239152019Y-134434254D01*
X233402705Y-136287149D02*
X237417167Y-133969405D01*
X231841341Y-135868786D02*
X233402705Y-136287149D01*
X229548427Y-137192597D02*
X231841341Y-135868786D01*
X229224932Y-138399921D02*
X229548427Y-137192597D01*
X227847090Y-139195416D02*
X229224932Y-138399921D01*
X218792884Y-136769348D02*
X227847090Y-139195416D01*
X206343741Y-144030372D02*
X218792884Y-136769348D01*
X75777262Y-146722650D02*
X200495350Y-146722650D01*
X72983266Y-149516654D02*
X75777262Y-146722650D01*
X68764396Y-149516653D02*
X72983266Y-149516654D01*
X68738624Y-149490878D02*
X68764396Y-149516653D01*
X67607253Y-149490879D02*
X68738624Y-149490878D01*
X200495350Y-146722650D02*
X206343741Y-144030372D01*
X283842824Y-131068994D02*
X284557350Y-128402351D01*
X281533130Y-132402490D02*
X283842824Y-131068994D01*
X279885023Y-131960884D02*
X281533130Y-132402490D01*
X271190641Y-136130662D02*
X271432568Y-135227798D01*
X284557350Y-128402351D02*
X286717095Y-127155416D01*
X274457157Y-133481547D02*
X276365494Y-133992889D01*
X271432568Y-135227798D02*
X274457157Y-133481547D01*
X270247100Y-136675417D02*
X271190641Y-136130662D01*
X276365494Y-133992889D02*
X279885023Y-131960884D01*
X252614934Y-102939926D02*
X252858552Y-102030746D01*
X251237096Y-103735418D02*
X252614934Y-102939926D01*
X252858552Y-102030746D02*
X255493905Y-100509221D01*
X255493905Y-100509221D02*
X256708297Y-100834618D01*
X256708297Y-100834618D02*
X259787881Y-99056617D01*
X259787881Y-99056617D02*
X262650390Y-99823627D01*
X262650390Y-99823627D02*
X265070067Y-98426628D01*
X265919184Y-95257668D02*
X267707094Y-94225415D01*
X265070067Y-98426628D02*
X265919184Y-95257668D01*
X67607248Y-146950877D02*
X68738630Y-146950881D01*
X68738630Y-146950881D02*
X69416860Y-146272642D01*
X69416860Y-146272642D02*
X200308947Y-146272642D01*
X264633955Y-117229257D02*
X266455544Y-117717354D01*
X266455544Y-117717354D02*
X270085058Y-115621851D01*
X270085058Y-115621851D02*
X272340364Y-116226159D01*
X274540068Y-114956158D02*
X275399407Y-111749085D01*
X272340364Y-116226159D02*
X274540068Y-114956158D01*
X262345166Y-118550689D02*
X264633955Y-117229257D01*
X262114930Y-119409922D02*
X262345166Y-118550689D01*
X260737092Y-120205419D02*
X262114930Y-119409922D01*
X250948243Y-117582506D02*
X260737092Y-120205419D01*
X206127689Y-143580361D02*
X250948243Y-117582506D01*
X275399407Y-111749085D02*
X277207093Y-110705415D01*
X200308947Y-146272642D02*
X206127689Y-143580361D01*
X312151827Y-72226985D02*
X313129077Y-71662765D01*
X298812898Y-80924927D02*
X309481464Y-74765426D01*
X293781823Y-79576856D02*
X298812898Y-80924927D01*
X311769575Y-72124559D02*
X312151827Y-72226985D01*
X285504929Y-83939914D02*
X285745071Y-83043704D01*
X284127090Y-84735411D02*
X285504929Y-83939914D01*
X289094385Y-81109976D02*
X290482270Y-81481856D01*
X285745071Y-83043704D02*
X289094385Y-81109976D01*
X309899831Y-73204060D02*
X311769575Y-72124559D01*
X309481464Y-74765426D02*
X309899831Y-73204060D01*
X290482270Y-81481856D02*
X293781823Y-79576856D01*
X304534932Y-116849918D02*
X304744290Y-116068583D01*
X303157100Y-117645412D02*
X304534932Y-116849918D01*
X304744290Y-116068583D02*
X308034397Y-114169041D01*
X308034397Y-114169041D02*
X309335540Y-114517682D01*
X309335540Y-114517682D02*
X313185024Y-112295182D01*
X313185024Y-112295182D02*
X315266841Y-112853003D01*
X315275585Y-112820381D02*
X322979077Y-108372768D01*
X315266841Y-112853003D02*
X315275585Y-112820381D01*
X295100262Y-100332198D02*
X295389553Y-99252532D01*
X295389553Y-99252532D02*
X297589257Y-97982528D01*
X297589257Y-97982528D02*
X299410854Y-98470623D01*
X299410854Y-98470623D02*
X303205345Y-96279876D01*
X303205345Y-96279876D02*
X305962057Y-97018530D01*
X305962057Y-97018530D02*
X318079071Y-90022769D01*
X293657092Y-101165411D02*
X295100262Y-100332198D01*
X283221068Y-98369088D02*
X293657092Y-101165411D01*
X283184983Y-98306584D02*
X283221068Y-98369088D01*
X251518845Y-116589031D02*
X283184983Y-98306584D01*
X251467897Y-116575382D02*
X251518845Y-116589031D01*
X205276606Y-143130350D02*
X251467897Y-116575382D01*
X70062969Y-144528601D02*
X201416578Y-144528601D01*
X69945243Y-144410875D02*
X70062969Y-144528601D01*
X67607250Y-144410874D02*
X69945243Y-144410875D01*
X201416578Y-144528601D02*
X205276606Y-143130350D01*
X333025854Y-66320986D02*
X333483126Y-65528974D01*
X331489076Y-66732766D02*
X333025854Y-66320986D01*
X333483126Y-65528974D02*
X336792838Y-64642134D01*
X336792838Y-64642134D02*
X338114948Y-65405460D01*
X338114948Y-65405460D02*
X341979134Y-64370053D01*
X341979134Y-64370053D02*
X343379019Y-65178275D01*
X343379019Y-65178275D02*
X345525794Y-64603054D01*
X346628537Y-62693033D02*
X349839070Y-61832771D01*
X345525794Y-64603054D02*
X346628537Y-62693033D01*
X342875849Y-103060987D02*
X343333812Y-102267765D01*
X341339072Y-103472760D02*
X342875849Y-103060987D01*
X343333812Y-102267765D02*
X346821417Y-101333267D01*
X346821417Y-101333267D02*
X348687930Y-102410897D01*
X348687930Y-102410897D02*
X352368106Y-101424798D01*
X352368106Y-101424798D02*
X353767988Y-102233022D01*
X353767988Y-102233022D02*
X355914761Y-101657799D01*
X357336801Y-99194743D02*
X359675979Y-98567966D01*
X355914761Y-101657799D02*
X357336801Y-99194743D01*
X67607252Y-141870876D02*
X68738620Y-141870881D01*
X68738620Y-141870881D02*
X70802927Y-143935181D01*
X70802927Y-143935181D02*
X201373587Y-143935181D01*
X204724000Y-142621000D02*
X306247832Y-84057735D01*
X342628131Y-83720949D02*
X347105675Y-82521188D01*
X347105675Y-82521188D02*
X348661103Y-83419214D01*
X348661103Y-83419214D02*
X350623865Y-82893297D01*
X351722057Y-80991177D02*
X354739074Y-80182772D01*
X350623865Y-82893297D02*
X351722057Y-80991177D01*
X341383792Y-83002526D02*
X342628131Y-83720949D01*
X338458080Y-83786466D02*
X341383792Y-83002526D01*
X337935856Y-84690994D02*
X338458080Y-83786466D01*
X336399075Y-85102772D02*
X337935856Y-84690994D01*
X325605225Y-78870934D02*
X336399075Y-85102772D01*
X306247832Y-84057735D02*
X325605225Y-78870934D01*
X201373587Y-143935181D02*
X204724000Y-142621000D01*
X65964625Y-136790875D02*
X67607251Y-136790875D01*
X65087500Y-137668000D02*
X65964625Y-136790875D01*
X65087500Y-140726100D02*
X65087500Y-137668000D01*
X62293500Y-141770100D02*
X64043500Y-141770100D01*
X64043500Y-141770100D02*
X65087500Y-140726100D01*
X52367251Y-144410875D02*
X55677625Y-144410875D01*
X55677625Y-144410875D02*
X55689500Y-144399000D01*
X52545876Y-142049500D02*
X52367251Y-141870875D01*
X56197500Y-142049500D02*
X52545876Y-142049500D01*
M02*
