G04 #@! TF.GenerationSoftware,KiCad,Pcbnew,(5.1.5)-3*
G04 #@! TF.CreationDate,2020-03-28T17:37:08+01:00*
G04 #@! TF.ProjectId,kopesh,6b6f7065-7368-42e6-9b69-6361645f7063,rev?*
G04 #@! TF.SameCoordinates,Original*
G04 #@! TF.FileFunction,Copper,L1,Top*
G04 #@! TF.FilePolarity,Positive*
%FSLAX46Y46*%
G04 Gerber Fmt 4.6, Leading zero omitted, Abs format (unit mm)*
G04 Created by KiCad (PCBNEW (5.1.5)-3) date 2020-03-28 17:37:08*
%MOMM*%
%LPD*%
G04 APERTURE LIST*
%ADD10C,0.100000*%
%ADD11C,0.050000*%
%ADD12C,0.150000*%
%ADD13R,1.600000X1.600000*%
%ADD14O,1.600000X1.600000*%
%ADD15C,1.600000*%
%ADD16R,1.730000X2.030000*%
%ADD17O,1.730000X2.030000*%
%ADD18C,2.250000*%
%ADD19R,1.190000X0.900000*%
%ADD20C,1.600000*%
%ADD21C,0.800000*%
%ADD22C,0.381000*%
%ADD23C,0.250000*%
%ADD24C,0.254000*%
G04 APERTURE END LIST*
D10*
G36*
X101473000Y-142557500D02*
G01*
X101473000Y-146558000D01*
X100838000Y-147193000D01*
X81851500Y-147193000D01*
X81153000Y-146494500D01*
X81153000Y-142811500D01*
X82169000Y-142049500D01*
X100901500Y-142049500D01*
X101473000Y-142557500D01*
G37*
X101473000Y-142557500D02*
X101473000Y-146558000D01*
X100838000Y-147193000D01*
X81851500Y-147193000D01*
X81153000Y-146494500D01*
X81153000Y-142811500D01*
X82169000Y-142049500D01*
X100901500Y-142049500D01*
X101473000Y-142557500D01*
D11*
X375136651Y-106420121D02*
X360606650Y-52170125D01*
X320476648Y-121060124D02*
X375136651Y-106420121D01*
X212926648Y-183250129D02*
X320476648Y-121060124D01*
X49936648Y-183250121D02*
X212926648Y-183250129D01*
X49926648Y-127100116D02*
X49936648Y-183250121D01*
X197736650Y-127090122D02*
X49926648Y-127100116D01*
X300336652Y-67850125D02*
X197736650Y-127090122D01*
X360606650Y-52170125D02*
X300336652Y-67850125D01*
D12*
X138016660Y-181690112D02*
X138016660Y-178290112D01*
X134216660Y-178290112D02*
X138016660Y-178290112D01*
X134216660Y-181690112D02*
X134216660Y-178290112D01*
X134216660Y-181690112D02*
X138016660Y-181690112D01*
X280930800Y-142903522D02*
X279230800Y-139959036D01*
X275939904Y-141859036D02*
X279230800Y-139959036D01*
X277639904Y-144803522D02*
X275939904Y-141859036D01*
X277639904Y-144803522D02*
X280930800Y-142903522D01*
X349502947Y-111607008D02*
X348622962Y-108322860D01*
X344952444Y-109306372D02*
X348622962Y-108322860D01*
X345832429Y-112590520D02*
X344952444Y-109306372D01*
X345832429Y-112590520D02*
X349502947Y-111607008D01*
X312952272Y-123340873D02*
X311252272Y-120396387D01*
X307961376Y-122296387D02*
X311252272Y-120396387D01*
X309661376Y-125240873D02*
X307961376Y-122296387D01*
X309661376Y-125240873D02*
X312952272Y-123340873D01*
X247610771Y-161059874D02*
X245910771Y-158115388D01*
X242619875Y-160015388D02*
X245910771Y-158115388D01*
X244319875Y-162959874D02*
X242619875Y-160015388D01*
X244319875Y-162959874D02*
X247610771Y-161059874D01*
X213803448Y-179933013D02*
X212923463Y-176648865D01*
X209252945Y-177632377D02*
X212923463Y-176648865D01*
X210132930Y-180916525D02*
X209252945Y-177632377D01*
X210132930Y-180916525D02*
X213803448Y-179933013D01*
X176379161Y-181805113D02*
X176379161Y-178405113D01*
X172579161Y-178405113D02*
X176379161Y-178405113D01*
X172579161Y-181805113D02*
X172579161Y-178405113D01*
X172579161Y-181805113D02*
X176379161Y-181805113D01*
D13*
X89076654Y-140108111D03*
D14*
X89076654Y-132488111D03*
D15*
X67607251Y-131710875D03*
X67607251Y-134250875D03*
X67607251Y-136790875D03*
X67607251Y-139330875D03*
X67607251Y-141870875D03*
X67607251Y-144410875D03*
X67607251Y-146950875D03*
X67607251Y-149490875D03*
X67607251Y-152030875D03*
X67607251Y-154570875D03*
X67607251Y-157110875D03*
X67607251Y-159650875D03*
X52367251Y-159650875D03*
X52367251Y-157110875D03*
X52367251Y-154570875D03*
X52367251Y-152030875D03*
X52367251Y-149490875D03*
X52367251Y-146950875D03*
X52367251Y-144410875D03*
X52367251Y-141870875D03*
X52367251Y-139330875D03*
X52367251Y-136790875D03*
X52367251Y-134250875D03*
D13*
X52367251Y-131710875D03*
D16*
X56261000Y-167005000D03*
D17*
X58801000Y-167005000D03*
X61341000Y-167005000D03*
X63881000Y-167005000D03*
D18*
X215616358Y-143320719D03*
X211387096Y-148695423D03*
D19*
X133521660Y-179240112D03*
X138711660Y-180740112D03*
X138711660Y-179240112D03*
X133521660Y-180740112D03*
G04 #@! TA.AperFunction,SMDPad,CuDef*
D12*
G36*
X276103301Y-142342049D02*
G01*
X276553301Y-143121471D01*
X275522731Y-143716471D01*
X275072731Y-142937049D01*
X276103301Y-142342049D01*
G37*
G04 #@! TD.AperFunction*
G04 #@! TA.AperFunction,SMDPad,CuDef*
G36*
X281347973Y-141046087D02*
G01*
X281797973Y-141825509D01*
X280767403Y-142420509D01*
X280317403Y-141641087D01*
X281347973Y-141046087D01*
G37*
G04 #@! TD.AperFunction*
G04 #@! TA.AperFunction,SMDPad,CuDef*
G36*
X280597973Y-139747049D02*
G01*
X281047973Y-140526471D01*
X280017403Y-141121471D01*
X279567403Y-140342049D01*
X280597973Y-139747049D01*
G37*
G04 #@! TD.AperFunction*
G04 #@! TA.AperFunction,SMDPad,CuDef*
G36*
X276853301Y-143641087D02*
G01*
X277303301Y-144420509D01*
X276272731Y-145015509D01*
X275822731Y-144236087D01*
X276853301Y-143641087D01*
G37*
G04 #@! TD.AperFunction*
G04 #@! TA.AperFunction,SMDPad,CuDef*
G36*
X344985260Y-109815217D02*
G01*
X345218197Y-110684550D01*
X344068746Y-110992545D01*
X343835809Y-110123212D01*
X344985260Y-109815217D01*
G37*
G04 #@! TD.AperFunction*
G04 #@! TA.AperFunction,SMDPad,CuDef*
G36*
X350386644Y-109920835D02*
G01*
X350619581Y-110790168D01*
X349470130Y-111098163D01*
X349237193Y-110228830D01*
X350386644Y-109920835D01*
G37*
G04 #@! TD.AperFunction*
G04 #@! TA.AperFunction,SMDPad,CuDef*
G36*
X349998415Y-108471946D02*
G01*
X350231352Y-109341279D01*
X349081901Y-109649274D01*
X348848964Y-108779941D01*
X349998415Y-108471946D01*
G37*
G04 #@! TD.AperFunction*
G04 #@! TA.AperFunction,SMDPad,CuDef*
G36*
X345373489Y-111264106D02*
G01*
X345606426Y-112133439D01*
X344456975Y-112441434D01*
X344224038Y-111572101D01*
X345373489Y-111264106D01*
G37*
G04 #@! TD.AperFunction*
G04 #@! TA.AperFunction,SMDPad,CuDef*
G36*
X308124773Y-122779400D02*
G01*
X308574773Y-123558822D01*
X307544203Y-124153822D01*
X307094203Y-123374400D01*
X308124773Y-122779400D01*
G37*
G04 #@! TD.AperFunction*
G04 #@! TA.AperFunction,SMDPad,CuDef*
G36*
X313369445Y-121483438D02*
G01*
X313819445Y-122262860D01*
X312788875Y-122857860D01*
X312338875Y-122078438D01*
X313369445Y-121483438D01*
G37*
G04 #@! TD.AperFunction*
G04 #@! TA.AperFunction,SMDPad,CuDef*
G36*
X312619445Y-120184400D02*
G01*
X313069445Y-120963822D01*
X312038875Y-121558822D01*
X311588875Y-120779400D01*
X312619445Y-120184400D01*
G37*
G04 #@! TD.AperFunction*
G04 #@! TA.AperFunction,SMDPad,CuDef*
G36*
X308874773Y-124078438D02*
G01*
X309324773Y-124857860D01*
X308294203Y-125452860D01*
X307844203Y-124673438D01*
X308874773Y-124078438D01*
G37*
G04 #@! TD.AperFunction*
G04 #@! TA.AperFunction,SMDPad,CuDef*
G36*
X242783272Y-160498401D02*
G01*
X243233272Y-161277823D01*
X242202702Y-161872823D01*
X241752702Y-161093401D01*
X242783272Y-160498401D01*
G37*
G04 #@! TD.AperFunction*
G04 #@! TA.AperFunction,SMDPad,CuDef*
G36*
X248027944Y-159202439D02*
G01*
X248477944Y-159981861D01*
X247447374Y-160576861D01*
X246997374Y-159797439D01*
X248027944Y-159202439D01*
G37*
G04 #@! TD.AperFunction*
G04 #@! TA.AperFunction,SMDPad,CuDef*
G36*
X247277944Y-157903401D02*
G01*
X247727944Y-158682823D01*
X246697374Y-159277823D01*
X246247374Y-158498401D01*
X247277944Y-157903401D01*
G37*
G04 #@! TD.AperFunction*
G04 #@! TA.AperFunction,SMDPad,CuDef*
G36*
X243533272Y-161797439D02*
G01*
X243983272Y-162576861D01*
X242952702Y-163171861D01*
X242502702Y-162392439D01*
X243533272Y-161797439D01*
G37*
G04 #@! TD.AperFunction*
G04 #@! TA.AperFunction,SMDPad,CuDef*
G36*
X209285761Y-178141222D02*
G01*
X209518698Y-179010555D01*
X208369247Y-179318550D01*
X208136310Y-178449217D01*
X209285761Y-178141222D01*
G37*
G04 #@! TD.AperFunction*
G04 #@! TA.AperFunction,SMDPad,CuDef*
G36*
X214687145Y-178246840D02*
G01*
X214920082Y-179116173D01*
X213770631Y-179424168D01*
X213537694Y-178554835D01*
X214687145Y-178246840D01*
G37*
G04 #@! TD.AperFunction*
G04 #@! TA.AperFunction,SMDPad,CuDef*
G36*
X214298916Y-176797951D02*
G01*
X214531853Y-177667284D01*
X213382402Y-177975279D01*
X213149465Y-177105946D01*
X214298916Y-176797951D01*
G37*
G04 #@! TD.AperFunction*
G04 #@! TA.AperFunction,SMDPad,CuDef*
G36*
X209673990Y-179590111D02*
G01*
X209906927Y-180459444D01*
X208757476Y-180767439D01*
X208524539Y-179898106D01*
X209673990Y-179590111D01*
G37*
G04 #@! TD.AperFunction*
D19*
X171884161Y-179355113D03*
X177074161Y-180855113D03*
X177074161Y-179355113D03*
X171884161Y-180855113D03*
D18*
X255466355Y-98360715D03*
X251237093Y-103735419D03*
X120346649Y-131070121D03*
X113996649Y-133610121D03*
X365152204Y-94471011D03*
X359675975Y-98567964D03*
X360215303Y-76085817D03*
X354739074Y-80182770D03*
X355315300Y-57735818D03*
X349839071Y-61832771D03*
X346815304Y-99375809D03*
X341339075Y-103472762D03*
X341875301Y-81005817D03*
X336399072Y-85102770D03*
X336965302Y-62635812D03*
X331489073Y-66732765D03*
X328455307Y-104275819D03*
X322979078Y-108372772D03*
X323555297Y-85925819D03*
X318079068Y-90022772D03*
X318605303Y-67565817D03*
X313129074Y-71662770D03*
X307386354Y-112270705D03*
X303157092Y-117645409D03*
X297886354Y-95790709D03*
X293657092Y-101165413D03*
X288356353Y-79360708D03*
X284127091Y-84735412D03*
X290946361Y-121780715D03*
X286717099Y-127155419D03*
X281436359Y-105330708D03*
X277207097Y-110705412D03*
X271936360Y-88850709D03*
X267707098Y-94225413D03*
X274476358Y-131300710D03*
X270247096Y-136675414D03*
X264966354Y-114830712D03*
X260737092Y-120205416D03*
X258056357Y-140790713D03*
X253827095Y-146165417D03*
X248516353Y-124320712D03*
X244287091Y-129695416D03*
X239026361Y-107870710D03*
X234797099Y-113245414D03*
X241556351Y-150280712D03*
X237327089Y-155655416D03*
X232076353Y-133820713D03*
X227847091Y-139195417D03*
X222566358Y-117380714D03*
X218337096Y-122755418D03*
X225086361Y-159780715D03*
X220857099Y-165155419D03*
X206096356Y-126850709D03*
X201867094Y-132225413D03*
X196296652Y-169080117D03*
X189946652Y-171620117D03*
X196306645Y-150080123D03*
X189956645Y-152620123D03*
X177306649Y-169070120D03*
X170956649Y-171610120D03*
X177306658Y-150100122D03*
X170956658Y-152640122D03*
X177296650Y-131100116D03*
X170946650Y-133640116D03*
X158306654Y-169110119D03*
X151956654Y-171650119D03*
X158306648Y-150090119D03*
X151956648Y-152630119D03*
X158296650Y-131070123D03*
X151946650Y-133610123D03*
X139316652Y-169100124D03*
X132966652Y-171640124D03*
X139316654Y-150090125D03*
X132966654Y-152630125D03*
X139296658Y-131090114D03*
X132946658Y-133630114D03*
X120366655Y-169120121D03*
X114016655Y-171660121D03*
X120356656Y-150130122D03*
X114006656Y-152670122D03*
X101346650Y-169120119D03*
X94996650Y-171660119D03*
X101346649Y-150080116D03*
X94996649Y-152620116D03*
X101346654Y-131080123D03*
X94996654Y-133620123D03*
X82316650Y-169110120D03*
X75966650Y-171650120D03*
X82326658Y-150110118D03*
X75976658Y-152650118D03*
X82326651Y-131090121D03*
X75976651Y-133630121D03*
G04 #@! TA.AperFunction,ComponentPad*
D12*
G36*
X373412446Y-102573803D02*
G01*
X371866965Y-102987914D01*
X371452854Y-101442433D01*
X372998335Y-101028322D01*
X373412446Y-102573803D01*
G37*
G04 #@! TD.AperFunction*
D20*
X370460449Y-94647763D02*
X370460449Y-94647763D01*
G04 #@! TA.AperFunction,ComponentPad*
D12*
G36*
X368459447Y-83777803D02*
G01*
X366913966Y-84191914D01*
X366499855Y-82646433D01*
X368045336Y-82232322D01*
X368459447Y-83777803D01*
G37*
G04 #@! TD.AperFunction*
D20*
X365507450Y-75851763D02*
X365507450Y-75851763D01*
G04 #@! TA.AperFunction,ComponentPad*
D12*
G36*
X363633449Y-65489808D02*
G01*
X362087968Y-65903919D01*
X361673857Y-64358438D01*
X363219338Y-63944327D01*
X363633449Y-65489808D01*
G37*
G04 #@! TD.AperFunction*
D20*
X360681452Y-57563768D02*
X360681452Y-57563768D01*
G04 #@! TA.AperFunction,ComponentPad*
D12*
G36*
X236619470Y-164149936D02*
G01*
X235233830Y-164949936D01*
X234433830Y-163564296D01*
X235819470Y-162764296D01*
X236619470Y-164149936D01*
G37*
G04 #@! TD.AperFunction*
D20*
X231716650Y-157258002D02*
X231716650Y-157258002D01*
G04 #@! TA.AperFunction,ComponentPad*
D12*
G36*
X226967472Y-147512934D02*
G01*
X225581832Y-148312934D01*
X224781832Y-146927294D01*
X226167472Y-146127294D01*
X226967472Y-147512934D01*
G37*
G04 #@! TD.AperFunction*
D20*
X222064652Y-140621000D02*
X222064652Y-140621000D01*
G04 #@! TA.AperFunction,ComponentPad*
D12*
G36*
X217696475Y-131510939D02*
G01*
X216310835Y-132310939D01*
X215510835Y-130925299D01*
X216896475Y-130125299D01*
X217696475Y-131510939D01*
G37*
G04 #@! TD.AperFunction*
D20*
X212793655Y-124619005D02*
X212793655Y-124619005D01*
G04 #@! TA.AperFunction,ComponentPad*
D12*
G36*
X356902444Y-107018805D02*
G01*
X355356963Y-107432916D01*
X354942852Y-105887435D01*
X356488333Y-105473324D01*
X356902444Y-107018805D01*
G37*
G04 #@! TD.AperFunction*
D20*
X353950447Y-99092765D02*
X353950447Y-99092765D01*
G04 #@! TA.AperFunction,ComponentPad*
D12*
G36*
X351822443Y-88349804D02*
G01*
X350276962Y-88763915D01*
X349862851Y-87218434D01*
X351408332Y-86804323D01*
X351822443Y-88349804D01*
G37*
G04 #@! TD.AperFunction*
D20*
X348870446Y-80423764D02*
X348870446Y-80423764D01*
G04 #@! TA.AperFunction,ComponentPad*
D12*
G36*
X346869449Y-69934807D02*
G01*
X345323968Y-70348918D01*
X344909857Y-68803437D01*
X346455338Y-68389326D01*
X346869449Y-69934807D01*
G37*
G04 #@! TD.AperFunction*
D20*
X343917452Y-62008767D02*
X343917452Y-62008767D01*
D13*
X203268649Y-178081124D03*
D14*
X203268649Y-170461124D03*
D13*
X203268649Y-159285118D03*
D14*
X203268649Y-151665118D03*
G04 #@! TA.AperFunction,ComponentPad*
D12*
G36*
X338487449Y-111844814D02*
G01*
X336941968Y-112258925D01*
X336527857Y-110713444D01*
X338073338Y-110299333D01*
X338487449Y-111844814D01*
G37*
G04 #@! TD.AperFunction*
D20*
X335535452Y-103918774D02*
X335535452Y-103918774D01*
G04 #@! TA.AperFunction,ComponentPad*
D12*
G36*
X333534444Y-93302804D02*
G01*
X331988963Y-93716915D01*
X331574852Y-92171434D01*
X333120333Y-91757323D01*
X333534444Y-93302804D01*
G37*
G04 #@! TD.AperFunction*
D20*
X330582447Y-85376764D02*
X330582447Y-85376764D01*
G04 #@! TA.AperFunction,ComponentPad*
D12*
G36*
X328581444Y-74887807D02*
G01*
X327035963Y-75301918D01*
X326621852Y-73756437D01*
X328167333Y-73342326D01*
X328581444Y-74887807D01*
G37*
G04 #@! TD.AperFunction*
D20*
X325629447Y-66961767D02*
X325629447Y-66961767D01*
D13*
X184218652Y-178081117D03*
D14*
X184218652Y-170461117D03*
D13*
X184171654Y-159285123D03*
D14*
X184171654Y-151665123D03*
D13*
X184218648Y-140108118D03*
D14*
X184218648Y-132488118D03*
G04 #@! TA.AperFunction,ComponentPad*
D12*
G36*
X318915471Y-116651938D02*
G01*
X317529831Y-117451938D01*
X316729831Y-116066298D01*
X318115471Y-115266298D01*
X318915471Y-116651938D01*
G37*
G04 #@! TD.AperFunction*
D20*
X314012651Y-109760004D02*
X314012651Y-109760004D01*
G04 #@! TA.AperFunction,ComponentPad*
D12*
G36*
X309898468Y-100903941D02*
G01*
X308512828Y-101703941D01*
X307712828Y-100318301D01*
X309098468Y-99518301D01*
X309898468Y-100903941D01*
G37*
G04 #@! TD.AperFunction*
D20*
X304995648Y-94012007D02*
X304995648Y-94012007D01*
G04 #@! TA.AperFunction,ComponentPad*
D12*
G36*
X300373472Y-84647942D02*
G01*
X298987832Y-85447942D01*
X298187832Y-84062302D01*
X299573472Y-83262302D01*
X300373472Y-84647942D01*
G37*
G04 #@! TD.AperFunction*
D20*
X295470652Y-77756008D02*
X295470652Y-77756008D01*
D13*
X165295653Y-178081119D03*
D14*
X165295653Y-170461119D03*
D13*
X165295650Y-159158123D03*
D14*
X165295650Y-151538123D03*
D13*
X165295655Y-140108121D03*
D14*
X165295655Y-132488121D03*
G04 #@! TA.AperFunction,ComponentPad*
D12*
G36*
X302405469Y-126176931D02*
G01*
X301019829Y-126976931D01*
X300219829Y-125591291D01*
X301605469Y-124791291D01*
X302405469Y-126176931D01*
G37*
G04 #@! TD.AperFunction*
D20*
X297502649Y-119284997D02*
X297502649Y-119284997D01*
G04 #@! TA.AperFunction,ComponentPad*
D12*
G36*
X293261475Y-110301943D02*
G01*
X291875835Y-111101943D01*
X291075835Y-109716303D01*
X292461475Y-108916303D01*
X293261475Y-110301943D01*
G37*
G04 #@! TD.AperFunction*
D20*
X288358655Y-103410009D02*
X288358655Y-103410009D01*
G04 #@! TA.AperFunction,ComponentPad*
D12*
G36*
X283736478Y-93918941D02*
G01*
X282350838Y-94718941D01*
X281550838Y-93333301D01*
X282936478Y-92533301D01*
X283736478Y-93918941D01*
G37*
G04 #@! TD.AperFunction*
D20*
X278833658Y-87027007D02*
X278833658Y-87027007D01*
D13*
X146245646Y-178081124D03*
D14*
X146245646Y-170461124D03*
D13*
X146245652Y-159031121D03*
D14*
X146245652Y-151411121D03*
D13*
X146245649Y-140108121D03*
D14*
X146245649Y-132488121D03*
G04 #@! TA.AperFunction,ComponentPad*
D12*
G36*
X286022474Y-135701947D02*
G01*
X284636834Y-136501947D01*
X283836834Y-135116307D01*
X285222474Y-134316307D01*
X286022474Y-135701947D01*
G37*
G04 #@! TD.AperFunction*
D20*
X281119654Y-128810013D02*
X281119654Y-128810013D01*
G04 #@! TA.AperFunction,ComponentPad*
D12*
G36*
X276751473Y-119699935D02*
G01*
X275365833Y-120499935D01*
X274565833Y-119114295D01*
X275951473Y-118314295D01*
X276751473Y-119699935D01*
G37*
G04 #@! TD.AperFunction*
D20*
X271848653Y-112808001D02*
X271848653Y-112808001D01*
G04 #@! TA.AperFunction,ComponentPad*
D12*
G36*
X267226472Y-103189943D02*
G01*
X265840832Y-103989943D01*
X265040832Y-102604303D01*
X266426472Y-101804303D01*
X267226472Y-103189943D01*
G37*
G04 #@! TD.AperFunction*
D20*
X262323652Y-96298009D02*
X262323652Y-96298009D01*
D13*
X127322653Y-178081124D03*
D14*
X127322653Y-170461124D03*
D13*
X127322651Y-158904123D03*
D14*
X127322651Y-151284123D03*
D13*
X127322655Y-140108126D03*
D14*
X127322655Y-132488126D03*
G04 #@! TA.AperFunction,ComponentPad*
D12*
G36*
X269512475Y-145226937D02*
G01*
X268126835Y-146026937D01*
X267326835Y-144641297D01*
X268712475Y-143841297D01*
X269512475Y-145226937D01*
G37*
G04 #@! TD.AperFunction*
D20*
X264609655Y-138335003D02*
X264609655Y-138335003D01*
G04 #@! TA.AperFunction,ComponentPad*
D12*
G36*
X260241479Y-128970938D02*
G01*
X258855839Y-129770938D01*
X258055839Y-128385298D01*
X259441479Y-127585298D01*
X260241479Y-128970938D01*
G37*
G04 #@! TD.AperFunction*
D20*
X255338659Y-122079004D02*
X255338659Y-122079004D01*
G04 #@! TA.AperFunction,ComponentPad*
D12*
G36*
X250589467Y-112587936D02*
G01*
X249203827Y-113387936D01*
X248403827Y-112002296D01*
X249789467Y-111202296D01*
X250589467Y-112587936D01*
G37*
G04 #@! TD.AperFunction*
D20*
X245686647Y-105696002D02*
X245686647Y-105696002D01*
D13*
X108272654Y-178081117D03*
D14*
X108272654Y-170461117D03*
D13*
X108272652Y-158904120D03*
D14*
X108272652Y-151284120D03*
D13*
X108272654Y-140108123D03*
D14*
X108272654Y-132488123D03*
G04 #@! TA.AperFunction,ComponentPad*
D12*
G36*
X253129473Y-154751948D02*
G01*
X251743833Y-155551948D01*
X250943833Y-154166308D01*
X252329473Y-153366308D01*
X253129473Y-154751948D01*
G37*
G04 #@! TD.AperFunction*
D20*
X248226653Y-147860014D02*
X248226653Y-147860014D01*
G04 #@! TA.AperFunction,ComponentPad*
D12*
G36*
X243604468Y-138241935D02*
G01*
X242218828Y-139041935D01*
X241418828Y-137656295D01*
X242804468Y-136856295D01*
X243604468Y-138241935D01*
G37*
G04 #@! TD.AperFunction*
D20*
X238701648Y-131350001D02*
X238701648Y-131350001D01*
G04 #@! TA.AperFunction,ComponentPad*
D12*
G36*
X234079473Y-121858940D02*
G01*
X232693833Y-122658940D01*
X231893833Y-121273300D01*
X233279473Y-120473300D01*
X234079473Y-121858940D01*
G37*
G04 #@! TD.AperFunction*
D20*
X229176653Y-114967006D02*
X229176653Y-114967006D01*
D13*
X89349657Y-178208127D03*
D14*
X89349657Y-170588127D03*
D13*
X89349650Y-159031124D03*
D14*
X89349650Y-151411124D03*
D21*
X169835161Y-179926611D03*
X130592160Y-181424114D03*
X206474658Y-179736111D03*
X240757837Y-162884046D03*
X273575972Y-144669723D03*
X306002319Y-125141802D03*
X341970180Y-112287450D03*
X62484000Y-159258000D03*
X55689500Y-144399000D03*
X56197500Y-142049500D03*
D22*
X170406657Y-179355113D02*
X171884161Y-179355112D01*
X169835161Y-179926611D02*
X170406657Y-179355113D01*
X129703157Y-180879115D02*
X130047157Y-180879111D01*
X130047157Y-180879111D02*
X130592160Y-181424114D01*
X130047157Y-180879111D02*
X130047158Y-180852615D01*
X131659656Y-179240112D02*
X133521660Y-179240112D01*
X130047158Y-180852615D02*
X131659656Y-179240112D01*
X207480887Y-178729886D02*
X206474658Y-179736111D01*
X208827504Y-178729883D02*
X207480887Y-178729886D01*
X240978662Y-162059907D02*
X240757837Y-162884046D01*
X242492987Y-161185610D02*
X240978662Y-162059907D01*
X273686568Y-144256970D02*
X273575972Y-144669723D01*
X275813019Y-143029265D02*
X273686568Y-144256970D01*
X306198024Y-124411424D02*
X306002319Y-125141802D01*
X307834484Y-123466611D02*
X306198024Y-124411424D01*
X342788745Y-110869647D02*
X344527005Y-110403885D01*
X341970180Y-112287450D02*
X342788745Y-110869647D01*
X129703157Y-180879115D02*
X67214115Y-180879115D01*
X67214115Y-180879115D02*
X64198500Y-177863500D01*
X64198500Y-171831000D02*
X64198500Y-167005000D01*
X64198500Y-177863500D02*
X64198500Y-171831000D01*
X52367251Y-136790875D02*
X52367251Y-139330875D01*
X52367251Y-136790875D02*
X50800000Y-135223624D01*
X50800000Y-135223624D02*
X50800000Y-130556000D01*
X50800000Y-130556000D02*
X51435000Y-129921000D01*
X51435000Y-129921000D02*
X56070500Y-129921000D01*
X56070500Y-129921000D02*
X58801000Y-132651500D01*
X66007876Y-132651500D02*
X67607251Y-134250875D01*
X58801000Y-132651500D02*
X66007876Y-132651500D01*
X63881000Y-138049000D02*
X63881000Y-167005000D01*
X67607251Y-134250875D02*
X67607251Y-134322749D01*
X67607251Y-134322749D02*
X63881000Y-138049000D01*
D23*
X171769159Y-180740118D02*
X171884157Y-180855110D01*
X138711659Y-180740114D02*
X171769159Y-180740118D01*
D22*
X246572158Y-157870942D02*
X246987657Y-158590612D01*
X246530997Y-157799644D02*
X246572158Y-157870942D01*
X245480028Y-157518041D02*
X246530997Y-157799644D01*
X213840661Y-177386614D02*
X233377116Y-166107233D01*
X233377116Y-166107233D02*
X234952141Y-166529262D01*
X234952141Y-166529262D02*
X239180069Y-164088266D01*
X239180069Y-164088266D02*
X240109770Y-160618560D01*
X240109770Y-160618560D02*
X245480028Y-157518041D01*
X246987657Y-158590612D02*
X249282446Y-157265718D01*
X249282446Y-157265718D02*
X251060751Y-157742213D01*
X251060751Y-157742213D02*
X271682982Y-145835960D01*
X271682982Y-145835960D02*
X271651231Y-145780969D01*
X271651231Y-145780969D02*
X272464719Y-142744979D01*
X279892187Y-139714598D02*
X280307688Y-140434262D01*
X279851022Y-139643293D02*
X279892187Y-139714598D01*
X278475414Y-139274702D02*
X279851022Y-139643293D01*
X272464719Y-142744979D02*
X278475414Y-139274702D01*
X311913659Y-120151946D02*
X312329160Y-120871611D01*
X304317451Y-126572221D02*
X305322503Y-122821323D01*
X311872494Y-120080642D02*
X311913659Y-120151946D01*
X305322503Y-122821323D02*
X310641027Y-119750677D01*
X280307688Y-140434262D02*
X304317451Y-126572221D01*
X310641027Y-119750677D02*
X311872494Y-120080642D01*
X349138045Y-107559891D02*
X349540161Y-109060612D01*
X312672679Y-120276615D02*
X340280553Y-112879108D01*
X312329158Y-120871613D02*
X312672679Y-120276615D01*
X340280553Y-112879108D02*
X342620502Y-108826195D01*
X342620502Y-108826195D02*
X348570116Y-107231997D01*
X348570116Y-107231997D02*
X349138045Y-107559891D01*
X61658500Y-166855000D02*
X61658500Y-167005000D01*
X213840655Y-176561112D02*
X213840661Y-177386613D01*
X213419958Y-176024558D02*
X213840655Y-176561112D01*
X213224692Y-175911820D02*
X213419958Y-176024558D01*
X206539033Y-177703237D02*
X213224692Y-175911820D01*
X138711657Y-177695611D02*
X138711660Y-179240110D01*
X138339160Y-177323113D02*
X138711657Y-177695611D01*
X131417662Y-177323114D02*
X138339160Y-177323113D01*
X128532579Y-180208193D02*
X131417662Y-177323114D01*
X69464193Y-180208193D02*
X128532579Y-180208193D01*
X66738500Y-177482500D02*
X69464193Y-180208193D01*
X67607251Y-139339249D02*
X65976500Y-140970000D01*
X67607251Y-139330875D02*
X67607251Y-139339249D01*
X65976500Y-140970000D02*
X65976500Y-163893500D01*
X65976500Y-163893500D02*
X66738500Y-164655500D01*
X66738500Y-164655500D02*
X66738500Y-177482500D01*
X138711660Y-179240110D02*
X139687656Y-179240113D01*
X139687656Y-179240113D02*
X140655736Y-180208191D01*
X140655736Y-180208191D02*
X168156577Y-180208192D01*
X168156577Y-180208192D02*
X170914658Y-177450110D01*
X170914658Y-177450110D02*
X176082487Y-177450114D01*
X176082487Y-177450114D02*
X177074162Y-178441786D01*
X177074162Y-178441786D02*
X177074157Y-178524111D01*
X177074157Y-178524111D02*
X177074160Y-179355113D01*
X177074160Y-179355113D02*
X178050157Y-179355116D01*
X178050157Y-179355116D02*
X179411237Y-180716190D01*
X179411237Y-180716190D02*
X203526081Y-180716191D01*
X203526081Y-180716191D02*
X206539033Y-177703237D01*
X60412500Y-166076500D02*
X61341000Y-167005000D01*
X62489815Y-159252185D02*
X62489815Y-159188685D01*
X62484000Y-159258000D02*
X62489815Y-159252185D01*
X61658500Y-159188685D02*
X60412500Y-160434685D01*
X62489815Y-159188685D02*
X61658500Y-159188685D01*
X60412500Y-160434685D02*
X60412500Y-166076500D01*
D23*
X53911500Y-132205124D02*
X53417251Y-131710875D01*
X53911500Y-171190957D02*
X53911500Y-132205124D01*
X58138654Y-175418111D02*
X53911500Y-171190957D01*
X132676657Y-180740109D02*
X131267657Y-182149114D01*
X133521659Y-180740114D02*
X132676657Y-180740109D01*
X58138657Y-175418111D02*
X58138654Y-175418111D01*
X131267657Y-182149114D02*
X64869657Y-182149114D01*
X53417251Y-131710875D02*
X52367251Y-131710875D01*
X64869657Y-182149114D02*
X58138657Y-175418111D01*
X207328567Y-181231702D02*
X208381503Y-180178773D01*
X208381503Y-180178773D02*
X209215735Y-180178772D01*
X177450750Y-181231701D02*
X207328567Y-181231702D01*
X177074156Y-180855107D02*
X177450750Y-181231701D01*
X242511198Y-162907149D02*
X242500692Y-162904336D01*
X243242986Y-162484652D02*
X242511198Y-162907149D01*
X242500692Y-162904336D02*
X216565648Y-177877941D01*
X216102416Y-177753819D02*
X214228890Y-178835506D01*
X216565648Y-177877941D02*
X216102416Y-177753819D01*
X275831224Y-144750801D02*
X276563015Y-144328300D01*
X249748259Y-159809807D02*
X275831224Y-144750801D01*
X248469451Y-159467153D02*
X249748259Y-159809807D01*
X247737660Y-159889653D02*
X248469451Y-159467153D01*
X307188778Y-125571464D02*
X308584489Y-124765652D01*
X306960744Y-126422489D02*
X307188778Y-125571464D01*
X281057685Y-141733300D02*
X281170433Y-141312535D01*
X281170433Y-141312535D02*
X306960744Y-126422489D01*
X313674156Y-122011221D02*
X314104355Y-121266095D01*
X313079157Y-122170649D02*
X313674156Y-122011221D01*
X314104355Y-121266095D02*
X342409520Y-113681748D01*
X343200156Y-112312326D02*
X344915235Y-111852773D01*
X342409520Y-113681748D02*
X343200156Y-112312326D01*
X68738625Y-159650878D02*
X68764399Y-159676652D01*
X67607253Y-159650880D02*
X68738625Y-159650878D01*
X68764399Y-159676652D02*
X73365676Y-159676654D01*
X75966648Y-162277631D02*
X75966651Y-171650124D01*
X73365676Y-159676654D02*
X75966648Y-162277631D01*
X76667673Y-153341140D02*
X75976655Y-152650121D01*
X73365676Y-159676654D02*
X76667673Y-156374656D01*
X76667673Y-156374656D02*
X76667673Y-153341140D01*
X76794677Y-150241110D02*
X76794675Y-134448142D01*
X75976655Y-152650121D02*
X75976657Y-151059129D01*
X76794675Y-134448142D02*
X75976652Y-133630123D01*
X75976657Y-151059129D02*
X76794677Y-150241110D01*
X114831172Y-144944653D02*
X114831171Y-134444646D01*
X114006648Y-152670123D02*
X114006652Y-145769175D01*
X114831171Y-134444646D02*
X113996653Y-133610124D01*
X114006652Y-145769175D02*
X114831172Y-144944653D01*
X114006648Y-152670123D02*
X114006649Y-153137132D01*
X114006649Y-153137132D02*
X114831176Y-153961651D01*
X114831176Y-153961651D02*
X114831174Y-167106158D01*
X114016653Y-167920672D02*
X114016651Y-171660123D01*
X114831174Y-167106158D02*
X114016653Y-167920672D01*
X152677175Y-134340646D02*
X151946653Y-133610123D01*
X151956650Y-151039128D02*
X152994676Y-150001104D01*
X151956649Y-152630122D02*
X151956650Y-151039128D01*
X152994676Y-150001104D02*
X152994674Y-138404154D01*
X152994674Y-138404154D02*
X152677177Y-138086657D01*
X152677177Y-138086657D02*
X152677175Y-134340646D01*
X151956649Y-152630122D02*
X151956650Y-153241129D01*
X151956650Y-153241129D02*
X152740674Y-154025150D01*
X152740674Y-154025150D02*
X152740676Y-164185152D01*
X151956650Y-164969177D02*
X151956650Y-171650121D01*
X152740676Y-164185152D02*
X151956650Y-164969177D01*
X189956650Y-152620114D02*
X189956653Y-153268129D01*
X189956653Y-153268129D02*
X190904177Y-154215654D01*
X190904177Y-154215654D02*
X190904175Y-156755651D01*
X189946647Y-157713172D02*
X189946651Y-171620121D01*
X190904175Y-156755651D02*
X189946647Y-157713172D01*
X189956650Y-152620114D02*
X189956654Y-152369174D01*
X190078673Y-152498098D02*
X189956650Y-152620114D01*
X199559411Y-132225415D02*
X198079674Y-133705149D01*
X201867094Y-132225419D02*
X199559411Y-132225415D01*
X198079674Y-133705149D02*
X198079676Y-136012826D01*
X190078676Y-144013829D02*
X190078673Y-152498098D01*
X198079676Y-136012826D02*
X190078676Y-144013829D01*
X218694497Y-123374454D02*
X218337096Y-122755413D01*
X227346036Y-136718703D02*
X219815096Y-123674712D01*
X227847090Y-139195416D02*
X227051597Y-137817579D01*
X219815096Y-123674712D02*
X218694497Y-123374454D01*
X227051597Y-137817579D02*
X227346036Y-136718703D01*
X227847090Y-139195416D02*
X228209462Y-139823059D01*
X228209462Y-139823059D02*
X229481826Y-140163990D01*
X229481826Y-140163990D02*
X235260321Y-150172649D01*
X234912049Y-151472439D02*
X237327089Y-155655421D01*
X235260321Y-150172649D02*
X234912049Y-151472439D01*
X260141032Y-118083287D02*
X252385455Y-104650235D01*
X252385455Y-104650235D02*
X251651761Y-104453647D01*
X260737092Y-120205419D02*
X259941600Y-118827574D01*
X251651761Y-104453647D02*
X251237096Y-103735418D01*
X259941600Y-118827574D02*
X260141032Y-118083287D01*
X260737092Y-120205419D02*
X261197918Y-121003578D01*
X261197918Y-121003578D02*
X262289169Y-121295986D01*
X262289169Y-121295986D02*
X268353422Y-131799574D01*
X268061350Y-132889603D02*
X270247100Y-136675417D01*
X268353422Y-131799574D02*
X268061350Y-132889603D01*
X285317521Y-85490255D02*
X284424794Y-85251044D01*
X293086816Y-98947058D02*
X285317521Y-85490255D01*
X293657092Y-101165411D02*
X292861594Y-99787579D01*
X284424794Y-85251044D02*
X284127090Y-84735411D01*
X292861594Y-99787579D02*
X293086816Y-98947058D01*
X293657092Y-101165411D02*
X294002004Y-101762821D01*
X294002004Y-101762821D02*
X295016005Y-102034521D01*
X295016005Y-102034521D02*
X300858007Y-112153163D01*
X300581637Y-113184587D02*
X303157100Y-117645412D01*
X300858007Y-112153163D02*
X300581637Y-113184587D01*
X336453593Y-82758336D02*
X332440326Y-67780592D01*
X332440326Y-67780592D02*
X331647135Y-67322640D01*
X336399075Y-85102772D02*
X335987296Y-83565995D01*
X331647135Y-67322640D02*
X331489076Y-66732766D01*
X335987296Y-83565995D02*
X336453593Y-82758336D01*
X340693921Y-97847404D02*
X340105055Y-98867349D01*
X340105055Y-98867349D02*
X341339072Y-103472760D01*
X337620570Y-86377521D02*
X340693921Y-97847404D01*
X336399075Y-85102772D02*
X336579601Y-85776512D01*
X336579601Y-85776512D02*
X337620570Y-86377521D01*
X56578500Y-145288000D02*
X56578500Y-167005000D01*
X55689500Y-144399000D02*
X56578500Y-145288000D01*
X59118500Y-166687500D02*
X58801000Y-167005000D01*
X59118500Y-144335500D02*
X59118500Y-166687500D01*
X56197500Y-142049500D02*
X56832500Y-142049500D01*
X56832500Y-142049500D02*
X59118500Y-144335500D01*
D24*
G36*
X63641276Y-182562500D02*
G01*
X50596525Y-182562500D01*
X50595847Y-178752500D01*
X59890808Y-178752500D01*
X63641276Y-182562500D01*
G37*
X63641276Y-182562500D02*
X50596525Y-182562500D01*
X50595847Y-178752500D01*
X59890808Y-178752500D01*
X63641276Y-182562500D01*
M02*
