G04 #@! TF.GenerationSoftware,KiCad,Pcbnew,(5.1.5)-3*
G04 #@! TF.CreationDate,2020-04-19T14:52:18+02:00*
G04 #@! TF.ProjectId,kopesh,6b6f7065-7368-42e6-9b69-6361645f7063,rev?*
G04 #@! TF.SameCoordinates,Original*
G04 #@! TF.FileFunction,Legend,Bot*
G04 #@! TF.FilePolarity,Positive*
%FSLAX46Y46*%
G04 Gerber Fmt 4.6, Leading zero omitted, Abs format (unit mm)*
G04 Created by KiCad (PCBNEW (5.1.5)-3) date 2020-04-19 14:52:18*
%MOMM*%
%LPD*%
G04 APERTURE LIST*
G04 #@! TA.AperFunction,Profile*
%ADD10C,0.050000*%
G04 #@! TD*
%ADD11C,1.000000*%
%ADD12C,1.200000*%
%ADD13C,0.150000*%
%ADD14C,2.102000*%
%ADD15C,5.102000*%
%ADD16C,1.852000*%
%ADD17C,2.352000*%
%ADD18C,4.089800*%
%ADD19C,1.499000*%
%ADD20R,1.052000X1.402000*%
%ADD21R,1.499000X1.499000*%
%ADD22R,1.702000X1.702000*%
%ADD23C,1.702000*%
%ADD24O,1.832000X2.132000*%
%ADD25R,1.832000X2.132000*%
G04 APERTURE END LIST*
D10*
X69440229Y-196531557D02*
X69440226Y-193534357D01*
X72818428Y-196531558D02*
X69440229Y-196531557D01*
X72818426Y-193534356D02*
X72818428Y-196531558D01*
X69440226Y-193534357D02*
X72818426Y-193534356D01*
X107489424Y-196607756D02*
X107489427Y-193610556D01*
X110867626Y-196607757D02*
X107489424Y-196607756D01*
X110867627Y-193610556D02*
X110867626Y-196607757D01*
X107489427Y-193610556D02*
X110867627Y-193610556D01*
X145386224Y-196556958D02*
X145386228Y-193559757D01*
X148789826Y-196556959D02*
X145386224Y-196556958D01*
X148789827Y-193559757D02*
X148789826Y-196556959D01*
X145386228Y-193559757D02*
X148789827Y-193559757D01*
X188832520Y-195713634D02*
X189821786Y-198544695D01*
X193017498Y-197374225D02*
X189821786Y-198544695D01*
X192018936Y-194577866D02*
X193017498Y-197374225D01*
X188832520Y-195713634D02*
X192018936Y-194577866D01*
X226491949Y-175496081D02*
X224993353Y-172900431D01*
X229417563Y-173806981D02*
X226491949Y-175496081D01*
X227918959Y-171211331D02*
X229417563Y-173806981D01*
X224993353Y-172900431D02*
X227918959Y-171211331D01*
X259412234Y-156518881D02*
X257913635Y-153923227D01*
X262337841Y-154829778D02*
X259412234Y-156518881D01*
X260839241Y-152234127D02*
X262337841Y-154829778D01*
X257913635Y-153923227D02*
X260839241Y-152234127D01*
X289265627Y-139341671D02*
X287767025Y-136746022D01*
X292191234Y-137652574D02*
X289265627Y-139341671D01*
X290692632Y-135056921D02*
X292191234Y-137652574D01*
X287767025Y-136746022D02*
X290692632Y-135056921D01*
X325989562Y-127643968D02*
X325220410Y-124773429D01*
X329252656Y-126769623D02*
X325989562Y-127643968D01*
X328483498Y-123899082D02*
X329252656Y-126769623D01*
X325220410Y-124773429D02*
X328483498Y-123899082D01*
D11*
X211482986Y-172998285D02*
X204566733Y-177408705D01*
X217340034Y-160336089D02*
X218084061Y-158996858D01*
X216821860Y-161799364D02*
X217340034Y-160336089D01*
X216559458Y-163319498D02*
X216821860Y-161799364D01*
X216582742Y-164829293D02*
X216559458Y-163319498D01*
X216771749Y-165796905D02*
X216582742Y-164829293D01*
X344085284Y-103346926D02*
X343843841Y-101499963D01*
X344105061Y-105188286D02*
X344085284Y-103346926D01*
X343924425Y-107019538D02*
X344105061Y-105188286D01*
X343564628Y-108836161D02*
X343924425Y-107019538D01*
X342745435Y-111496925D02*
X343564628Y-108836161D01*
X341647687Y-114100723D02*
X342745435Y-111496925D01*
X340340974Y-116632782D02*
X341647687Y-114100723D01*
X338894891Y-119078338D02*
X340340974Y-116632782D01*
X337379000Y-121422614D02*
X338894891Y-119078338D01*
X335862755Y-123650899D02*
X337379000Y-121422614D01*
X335257984Y-124544497D02*
X335862911Y-123650840D01*
X217109892Y-166710158D02*
X216771749Y-165796905D01*
X217606031Y-167549135D02*
X217109892Y-166710158D01*
X218269030Y-168293925D02*
X217606031Y-167549135D01*
X219107755Y-168924636D02*
X218269030Y-168293925D01*
X220130977Y-169421377D02*
X219107755Y-168924636D01*
X326145039Y-118636475D02*
X327239181Y-119703771D01*
X325233891Y-118005935D02*
X326145039Y-118636475D01*
X324277814Y-117594300D02*
X325233891Y-118005935D01*
X323629992Y-117474049D02*
X324277814Y-117594300D01*
X322983979Y-117499928D02*
X323629992Y-117474049D01*
X322348383Y-117691508D02*
X322983979Y-117499928D01*
X287288490Y-126029690D02*
X288601331Y-125636489D01*
X285967162Y-126592068D02*
X287288490Y-126029690D01*
X284694731Y-127312294D02*
X285967162Y-126592068D01*
X283528540Y-128179064D02*
X284694731Y-127312294D01*
X282525952Y-129181047D02*
X283528540Y-128179064D01*
X281742218Y-130307179D02*
X282525952Y-129181047D01*
X281146288Y-131556469D02*
X281742218Y-130307179D01*
X280592838Y-132941178D02*
X281146288Y-131556469D01*
X279956290Y-134397594D02*
X280592838Y-132941178D01*
X279590342Y-135069469D02*
X279956290Y-134397594D01*
X279186343Y-135652316D02*
X279590342Y-135069469D01*
X278739608Y-136107535D02*
X279186343Y-135652316D01*
X278245452Y-136396654D02*
X278739608Y-136107535D01*
X277702111Y-136502602D02*
X278245452Y-136396654D01*
X277113901Y-136453027D02*
X277702111Y-136502602D01*
X276277388Y-136205814D02*
X277113901Y-136453027D01*
X275383261Y-135822047D02*
X276277388Y-136205814D01*
X274443192Y-135378234D02*
X275383261Y-135822047D01*
X273468897Y-134950857D02*
X274443192Y-135378234D01*
X272453799Y-134611664D02*
X273468897Y-134950857D01*
X271427669Y-134449307D02*
X272453799Y-134611664D01*
X270402181Y-134492374D02*
X271427669Y-134449307D01*
X269387466Y-134652162D02*
X270402181Y-134492374D01*
X268389911Y-134853705D02*
X269387466Y-134652162D01*
X265507462Y-135616216D02*
X268389911Y-134853705D01*
X262711248Y-136545377D02*
X265507462Y-135616216D01*
X259945750Y-137542380D02*
X262711248Y-136545377D01*
X255164188Y-139210159D02*
X259945750Y-137542380D01*
X250346412Y-140855256D02*
X255164188Y-139210159D01*
X245545240Y-142574829D02*
X250346412Y-140855256D01*
X240813490Y-144466085D02*
X245545240Y-142574829D01*
X236203615Y-146624416D02*
X240813490Y-144466085D01*
X231758041Y-149097036D02*
X236203615Y-146624416D01*
X227466039Y-151823558D02*
X231758041Y-149097036D01*
X225584241Y-153015865D02*
X227466039Y-151823558D01*
X223697677Y-154202182D02*
X225584241Y-153015865D01*
X221851603Y-155444038D02*
X223697677Y-154202182D01*
X220094620Y-156806811D02*
X221851603Y-155444038D01*
X219019588Y-157829761D02*
X220094620Y-156806811D01*
X218084061Y-158996858D02*
X219019588Y-157829761D01*
X329306765Y-124124331D02*
X329484964Y-125340858D01*
X329086322Y-123017869D02*
X329306765Y-124124331D01*
X328765222Y-122066115D02*
X329086322Y-123017869D01*
X328131486Y-120886753D02*
X328765222Y-122066115D01*
X327239181Y-119703771D02*
X328131486Y-120886753D01*
D12*
X202758025Y-149823505D02*
X196333428Y-166914704D01*
X336516702Y-114065934D02*
G75*
G03X336516702Y-114065934I-2006813J0D01*
G01*
X339534546Y-104399339D02*
G75*
G03X339534546Y-104399339I-1935988J0D01*
G01*
X308430157Y-112332884D02*
G75*
G03X308430157Y-112332884I-1980179J0D01*
G01*
X283684721Y-119696620D02*
G75*
G03X283684721Y-119696620I-2050433J0D01*
G01*
D11*
X334708280Y-125462749D02*
X335257984Y-124544497D01*
X334117889Y-126351505D02*
X334708280Y-125462749D01*
X333390922Y-127156691D02*
X334117889Y-126351505D01*
X332439662Y-127820430D02*
X333390922Y-127156691D01*
X331768780Y-128102080D02*
X332439662Y-127820430D01*
X331131410Y-128209391D02*
X331768780Y-128102080D01*
X330604337Y-128084742D02*
X331131410Y-128209391D01*
X330210346Y-127734077D02*
X330604337Y-128084742D01*
X329920253Y-127201990D02*
X330210346Y-127734077D01*
X329663066Y-126334383D02*
X329920253Y-127201990D01*
X329484964Y-125340858D02*
X329663066Y-126334383D01*
X219912233Y-170746429D02*
X220464940Y-170338647D01*
X219208707Y-171265453D02*
X219912233Y-170746429D01*
X195885086Y-167288289D02*
X196333428Y-166914704D01*
X195314474Y-167763773D02*
X195885086Y-167288289D01*
X208221458Y-145795994D02*
X202758025Y-149823505D01*
X341576836Y-95970625D02*
X301441155Y-106566017D01*
D12*
X272422595Y-115457501D02*
X340309216Y-97544738D01*
X269768042Y-116002756D02*
X276254462Y-133824024D01*
X288601331Y-125636489D02*
X322702077Y-117562773D01*
X87546651Y-185743314D02*
X65913507Y-203114973D01*
D11*
X123453949Y-193799438D02*
X128188149Y-192983725D01*
X118687312Y-194395725D02*
X123453949Y-193799438D01*
X113893900Y-194714143D02*
X118687312Y-194395725D01*
X110723147Y-194737853D02*
X113893900Y-194714143D01*
X107556272Y-194585326D02*
X110723147Y-194737853D01*
X104405181Y-194228397D02*
X107556272Y-194585326D01*
X101289921Y-193637034D02*
X104405181Y-194228397D01*
X99061745Y-193043359D02*
X101289921Y-193637034D01*
X96879631Y-192296423D02*
X99061745Y-193043359D01*
X94763211Y-191378700D02*
X96879631Y-192296423D01*
X92738685Y-190274120D02*
X94763211Y-191378700D01*
X213832915Y-142005477D02*
X208221458Y-145795994D01*
X219592397Y-138451958D02*
X213832915Y-142005477D01*
X225499905Y-135135438D02*
X219592397Y-138451958D01*
X231666907Y-132002127D02*
X225499905Y-135135438D01*
X237987375Y-129114511D02*
X231666907Y-132002127D01*
X244461300Y-126472594D02*
X237987375Y-129114511D01*
X251088684Y-124076375D02*
X244461300Y-126472594D01*
X257869455Y-121925878D02*
X251088684Y-124076375D01*
X259148856Y-121639882D02*
X257869521Y-121925850D01*
X260299321Y-121163650D02*
X259148856Y-121639882D01*
X261348609Y-120537533D02*
X260299321Y-121163650D01*
X262324382Y-119801876D02*
X261348609Y-120537533D01*
X263254324Y-118997051D02*
X262324382Y-119801876D01*
X264221392Y-118112851D02*
X263254324Y-118997051D01*
X265201046Y-117244395D02*
X264221392Y-118112851D01*
X90837309Y-188969021D02*
X92738685Y-190274120D01*
X89094436Y-187458909D02*
X90837309Y-188969021D01*
X87546630Y-185743316D02*
X89094436Y-187458909D01*
X75932847Y-203270696D02*
X70092020Y-201594122D01*
X81853056Y-204640950D02*
X75932847Y-203270696D01*
X87835995Y-205704895D02*
X81853056Y-204640950D01*
X93864954Y-206465894D02*
X87835995Y-205704895D01*
X99924012Y-206930364D02*
X93864954Y-206465894D01*
X106366711Y-207109111D02*
X99924012Y-206930364D01*
X112810755Y-206977895D02*
X106366711Y-207109111D01*
X119242001Y-206552083D02*
X112810755Y-206977895D01*
X204512213Y-177466675D02*
X197417693Y-181584271D01*
X218148454Y-168352425D02*
X211428461Y-173056255D01*
D12*
X219208788Y-171265422D02*
G75*
G02X201946966Y-182337824I-102230404J140384961D01*
G01*
D11*
X195085283Y-186021972D02*
X201946982Y-182337819D01*
X188086720Y-189439127D02*
X195085283Y-186021972D01*
X180970084Y-192603325D02*
X188086720Y-189439127D01*
X173752253Y-195529285D02*
X180970084Y-192603325D01*
X166447880Y-198232193D02*
X173752253Y-195529285D01*
X159066289Y-200716318D02*
X166447880Y-198232193D01*
X151608206Y-202960416D02*
X159066289Y-200716318D01*
X176012895Y-177706150D02*
X179322829Y-176231329D01*
X172686008Y-179142308D02*
X176012895Y-177706150D01*
X167718124Y-181208754D02*
X172686008Y-179142308D01*
X162717614Y-183194616D02*
X167718124Y-181208754D01*
X157680742Y-185088405D02*
X162717614Y-183194616D01*
X152588829Y-186827419D02*
X157680742Y-185088405D01*
X147418795Y-188316884D02*
X152588829Y-186827419D01*
X142215576Y-189686757D02*
X147418795Y-188316884D01*
X137563361Y-190884958D02*
X142215576Y-189686757D01*
X132889845Y-191997271D02*
X137563361Y-190884958D01*
X128188149Y-192983725D02*
X132889845Y-191997271D01*
X266226306Y-116439826D02*
X265201046Y-117244395D01*
X267330185Y-115747306D02*
X266226306Y-116439826D01*
X268545707Y-115214978D02*
X267330185Y-115747306D01*
X269905783Y-114891033D02*
X268545707Y-115214978D01*
X301441155Y-106566017D02*
X269905886Y-114891001D01*
X144075149Y-204937959D02*
X151608206Y-202960416D01*
X137264864Y-206460120D02*
X144075149Y-204937959D01*
X130401725Y-207723843D02*
X137264864Y-206460120D01*
X123492876Y-208706473D02*
X130401725Y-207723843D01*
X116547658Y-209384973D02*
X123492876Y-208706473D01*
X109578388Y-209736370D02*
X116547658Y-209384973D01*
X103234445Y-209753362D02*
X109578388Y-209736370D01*
X96897070Y-209466465D02*
X103234445Y-209753362D01*
X90581986Y-208862326D02*
X96897070Y-209466465D01*
X84306833Y-207930365D02*
X90581986Y-208862326D01*
X78090833Y-206663341D02*
X84306833Y-207930365D01*
X192274709Y-169736748D02*
X195314474Y-167763769D01*
X189106064Y-171494294D02*
X192274709Y-169736748D01*
X185876927Y-173138943D02*
X189106064Y-171494294D01*
X182612885Y-174712509D02*
X185876927Y-173138943D01*
X179322829Y-176231329D02*
X182612885Y-174712509D01*
X71953489Y-205058028D02*
X78090833Y-206663341D01*
X65913507Y-203114973D02*
X71953489Y-205058028D01*
X69242400Y-201249027D02*
X68574841Y-200977887D01*
X70092015Y-201594120D02*
X69242400Y-201249027D01*
X220383681Y-169558113D02*
X220131071Y-169421347D01*
X220535230Y-169731574D02*
X220383681Y-169558113D01*
X220581939Y-170005398D02*
X220535230Y-169731574D01*
X220464851Y-170338678D02*
X220581939Y-170005398D01*
X342610933Y-97807278D02*
X341576959Y-95970583D01*
X343359475Y-99651909D02*
X342610933Y-97807278D01*
X343843841Y-101499963D02*
X343359475Y-99651909D01*
X125648863Y-205848302D02*
X119242001Y-206552083D01*
X132021604Y-204883839D02*
X125648863Y-205848302D01*
X138352748Y-203676097D02*
X132021604Y-204883839D01*
X145887236Y-201929822D02*
X138352748Y-203676097D01*
X153346772Y-199886514D02*
X145887236Y-201929822D01*
X160727084Y-197573254D02*
X153346772Y-199886514D01*
X168024736Y-195011129D02*
X160727084Y-197573254D01*
X175230892Y-192201945D02*
X168024736Y-195011129D01*
X182761350Y-188948951D02*
X175230892Y-192201945D01*
X190162017Y-185410818D02*
X182761350Y-188948951D01*
X197417693Y-181584271D02*
X190162017Y-185410818D01*
D10*
X356971845Y-136810892D02*
X342441844Y-82560896D01*
X302311841Y-151450895D02*
X356971845Y-136810892D01*
X194761842Y-213640900D02*
X302311841Y-151450895D01*
X31771846Y-213640890D02*
X194761842Y-213640900D01*
X31761843Y-157490889D02*
X31771846Y-213640890D01*
X179571848Y-157480897D02*
X31761843Y-157490889D01*
X282171845Y-98240897D02*
X179571848Y-157480897D01*
X342441844Y-82560896D02*
X282171845Y-98240897D01*
D13*
G04 #@! TO.C,sw1*
X32016873Y-201469588D02*
X32266873Y-201469588D01*
X32016873Y-207469588D02*
X32016873Y-201469588D01*
X32266873Y-207469588D02*
X32016873Y-207469588D01*
X35516873Y-207469588D02*
X35266873Y-207469588D01*
X35516873Y-201469588D02*
X35516873Y-207469588D01*
X35266873Y-201469588D02*
X35516873Y-201469588D01*
G04 #@! TO.C,D55*
X353395109Y-129141799D02*
X353645134Y-128143057D01*
X353645134Y-128143057D02*
X352679209Y-128401876D01*
X352679209Y-128401876D02*
X353395109Y-129141799D01*
X353903953Y-129108982D02*
X352938028Y-129367801D01*
X353317214Y-125953315D02*
X354714837Y-131169314D01*
X354714837Y-131169314D02*
X353265948Y-131557543D01*
X353265948Y-131557543D02*
X351868325Y-126341544D01*
X351868325Y-126341544D02*
X353317214Y-125953315D01*
G04 #@! TO.C,D54*
X348439967Y-110247887D02*
X348689992Y-109249145D01*
X348689992Y-109249145D02*
X347724067Y-109507964D01*
X347724067Y-109507964D02*
X348439967Y-110247887D01*
X348948811Y-110215070D02*
X347982886Y-110473889D01*
X348362072Y-107059403D02*
X349759695Y-112275402D01*
X349759695Y-112275402D02*
X348310806Y-112663631D01*
X348310806Y-112663631D02*
X346913183Y-107447632D01*
X346913183Y-107447632D02*
X348362072Y-107059403D01*
G04 #@! TO.C,D53*
X343535761Y-91945135D02*
X343785786Y-90946393D01*
X343785786Y-90946393D02*
X342819861Y-91205212D01*
X342819861Y-91205212D02*
X343535761Y-91945135D01*
X344044605Y-91912318D02*
X343078680Y-92171137D01*
X343457866Y-88756651D02*
X344855489Y-93972650D01*
X344855489Y-93972650D02*
X343406600Y-94360879D01*
X343406600Y-94360879D02*
X342008977Y-89144880D01*
X342008977Y-89144880D02*
X343457866Y-88756651D01*
G04 #@! TO.C,D52*
X215615926Y-191281958D02*
X215598939Y-190252535D01*
X215598939Y-190252535D02*
X214732913Y-190752535D01*
X214732913Y-190752535D02*
X215615926Y-191281958D01*
X216098939Y-191118561D02*
X215232913Y-191618561D01*
X214715445Y-188222279D02*
X217415445Y-192898817D01*
X217415445Y-192898817D02*
X216116407Y-193648817D01*
X216116407Y-193648817D02*
X213416407Y-188972279D01*
X213416407Y-188972279D02*
X214715445Y-188222279D01*
G04 #@! TO.C,D51*
X206103631Y-174806171D02*
X206086644Y-173776748D01*
X206086644Y-173776748D02*
X205220618Y-174276748D01*
X205220618Y-174276748D02*
X206103631Y-174806171D01*
X206586644Y-174642774D02*
X205720618Y-175142774D01*
X205203150Y-171746492D02*
X207903150Y-176423030D01*
X207903150Y-176423030D02*
X206604112Y-177173030D01*
X206604112Y-177173030D02*
X203904112Y-172496492D01*
X203904112Y-172496492D02*
X205203150Y-171746492D01*
G04 #@! TO.C,D50*
X196550742Y-158412479D02*
X196533755Y-157383056D01*
X196533755Y-157383056D02*
X195667729Y-157883056D01*
X195667729Y-157883056D02*
X196550742Y-158412479D01*
X197033755Y-158249082D02*
X196167729Y-158749082D01*
X195650261Y-155352800D02*
X198350261Y-160029338D01*
X198350261Y-160029338D02*
X197051223Y-160779338D01*
X197051223Y-160779338D02*
X194351223Y-156102800D01*
X194351223Y-156102800D02*
X195650261Y-155352800D01*
G04 #@! TO.C,D49*
X336967449Y-133675055D02*
X337217474Y-132676313D01*
X337217474Y-132676313D02*
X336251549Y-132935132D01*
X336251549Y-132935132D02*
X336967449Y-133675055D01*
X337476293Y-133642238D02*
X336510368Y-133901057D01*
X336889554Y-130486571D02*
X338287177Y-135702570D01*
X338287177Y-135702570D02*
X336838288Y-136090799D01*
X336838288Y-136090799D02*
X335440665Y-130874800D01*
X335440665Y-130874800D02*
X336889554Y-130486571D01*
G04 #@! TO.C,D48*
X331658359Y-114744506D02*
X331908384Y-113745764D01*
X331908384Y-113745764D02*
X330942459Y-114004583D01*
X330942459Y-114004583D02*
X331658359Y-114744506D01*
X332167203Y-114711689D02*
X331201278Y-114970508D01*
X331580464Y-111556022D02*
X332978087Y-116772021D01*
X332978087Y-116772021D02*
X331529198Y-117160250D01*
X331529198Y-117160250D02*
X330131575Y-111944251D01*
X330131575Y-111944251D02*
X331580464Y-111556022D01*
G04 #@! TO.C,D47*
X326889972Y-96457954D02*
X327139997Y-95459212D01*
X327139997Y-95459212D02*
X326174072Y-95718031D01*
X326174072Y-95718031D02*
X326889972Y-96457954D01*
X327398816Y-96425137D02*
X326432891Y-96683956D01*
X326812077Y-93269470D02*
X328209700Y-98485469D01*
X328209700Y-98485469D02*
X326760811Y-98873698D01*
X326760811Y-98873698D02*
X325363188Y-93657699D01*
X325363188Y-93657699D02*
X326812077Y-93269470D01*
G04 #@! TO.C,D46*
X185085991Y-205085575D02*
X185585991Y-204185575D01*
X185585991Y-204185575D02*
X184585991Y-204185575D01*
X184585991Y-204185575D02*
X185085991Y-205085575D01*
X185585991Y-205185575D02*
X184585991Y-205185575D01*
X185835991Y-201985575D02*
X185835991Y-207385575D01*
X185835991Y-207385575D02*
X184335991Y-207385575D01*
X184335991Y-207385575D02*
X184335991Y-201985575D01*
X184335991Y-201985575D02*
X185835991Y-201985575D01*
G04 #@! TO.C,D45*
X184933591Y-185930966D02*
X185433591Y-185030966D01*
X185433591Y-185030966D02*
X184433591Y-185030966D01*
X184433591Y-185030966D02*
X184933591Y-185930966D01*
X185433591Y-186030966D02*
X184433591Y-186030966D01*
X185683591Y-182830966D02*
X185683591Y-188230966D01*
X185683591Y-188230966D02*
X184183591Y-188230966D01*
X184183591Y-188230966D02*
X184183591Y-182830966D01*
X184183591Y-182830966D02*
X185683591Y-182830966D01*
G04 #@! TO.C,D43*
X318327321Y-138301517D02*
X318577346Y-137302775D01*
X318577346Y-137302775D02*
X317611421Y-137561594D01*
X317611421Y-137561594D02*
X318327321Y-138301517D01*
X318836165Y-138268700D02*
X317870240Y-138527519D01*
X318249426Y-135113033D02*
X319647049Y-140329032D01*
X319647049Y-140329032D02*
X318198160Y-140717261D01*
X318198160Y-140717261D02*
X316800537Y-135501262D01*
X316800537Y-135501262D02*
X318249426Y-135113033D01*
G04 #@! TO.C,D42*
X313383194Y-119457244D02*
X313633219Y-118458502D01*
X313633219Y-118458502D02*
X312667294Y-118717321D01*
X312667294Y-118717321D02*
X313383194Y-119457244D01*
X313892038Y-119424427D02*
X312926113Y-119683246D01*
X313305299Y-116268760D02*
X314702922Y-121484759D01*
X314702922Y-121484759D02*
X313254033Y-121872988D01*
X313254033Y-121872988D02*
X311856410Y-116656989D01*
X311856410Y-116656989D02*
X313305299Y-116268760D01*
G04 #@! TO.C,D41*
X308557878Y-101448914D02*
X308807903Y-100450172D01*
X308807903Y-100450172D02*
X307841978Y-100708991D01*
X307841978Y-100708991D02*
X308557878Y-101448914D01*
X309066722Y-101416097D02*
X308100797Y-101674916D01*
X308479983Y-98260430D02*
X309877606Y-103476429D01*
X309877606Y-103476429D02*
X308428717Y-103864658D01*
X308428717Y-103864658D02*
X307031094Y-98648659D01*
X307031094Y-98648659D02*
X308479983Y-98260430D01*
G04 #@! TO.C,D40*
X166086792Y-205136376D02*
X166586792Y-204236376D01*
X166586792Y-204236376D02*
X165586792Y-204236376D01*
X165586792Y-204236376D02*
X166086792Y-205136376D01*
X166586792Y-205236376D02*
X165586792Y-205236376D01*
X166836792Y-202036376D02*
X166836792Y-207436376D01*
X166836792Y-207436376D02*
X165336792Y-207436376D01*
X165336792Y-207436376D02*
X165336792Y-202036376D01*
X165336792Y-202036376D02*
X166836792Y-202036376D01*
G04 #@! TO.C,D39*
X166010591Y-186365770D02*
X166510591Y-185465770D01*
X166510591Y-185465770D02*
X165510591Y-185465770D01*
X165510591Y-185465770D02*
X166010591Y-186365770D01*
X166510591Y-186465770D02*
X165510591Y-186465770D01*
X166760591Y-183265770D02*
X166760591Y-188665770D01*
X166760591Y-188665770D02*
X165260591Y-188665770D01*
X165260591Y-188665770D02*
X165260591Y-183265770D01*
X165260591Y-183265770D02*
X166760591Y-183265770D01*
G04 #@! TO.C,D38*
X165858195Y-167087170D02*
X166358195Y-166187170D01*
X166358195Y-166187170D02*
X165358195Y-166187170D01*
X165358195Y-166187170D02*
X165858195Y-167087170D01*
X166358195Y-167187170D02*
X165358195Y-167187170D01*
X166608195Y-163987170D02*
X166608195Y-169387170D01*
X166608195Y-169387170D02*
X165108195Y-169387170D01*
X165108195Y-169387170D02*
X165108195Y-163987170D01*
X165108195Y-163987170D02*
X166608195Y-163987170D01*
G04 #@! TO.C,D37*
X297919577Y-143793260D02*
X297902590Y-142763837D01*
X297902590Y-142763837D02*
X297036564Y-143263837D01*
X297036564Y-143263837D02*
X297919577Y-143793260D01*
X298402590Y-143629863D02*
X297536564Y-144129863D01*
X297019096Y-140733581D02*
X299719096Y-145410119D01*
X299719096Y-145410119D02*
X298420058Y-146160119D01*
X298420058Y-146160119D02*
X295720058Y-141483581D01*
X295720058Y-141483581D02*
X297019096Y-140733581D01*
G04 #@! TO.C,D36*
X288869459Y-127813191D02*
X288852472Y-126783768D01*
X288852472Y-126783768D02*
X287986446Y-127283768D01*
X287986446Y-127283768D02*
X288869459Y-127813191D01*
X289352472Y-127649794D02*
X288486446Y-128149794D01*
X287968978Y-124753512D02*
X290668978Y-129430050D01*
X290668978Y-129430050D02*
X289369940Y-130180050D01*
X289369940Y-130180050D02*
X286669940Y-125503512D01*
X286669940Y-125503512D02*
X287968978Y-124753512D01*
G04 #@! TO.C,D35*
X279450374Y-111752854D02*
X279433387Y-110723431D01*
X279433387Y-110723431D02*
X278567361Y-111223431D01*
X278567361Y-111223431D02*
X279450374Y-111752854D01*
X279933387Y-111589457D02*
X279067361Y-112089457D01*
X278549893Y-108693175D02*
X281249893Y-113369713D01*
X281249893Y-113369713D02*
X279950855Y-114119713D01*
X279950855Y-114119713D02*
X277250855Y-109443175D01*
X277250855Y-109443175D02*
X278549893Y-108693175D01*
G04 #@! TO.C,D34*
X147163795Y-205136373D02*
X147663795Y-204236373D01*
X147663795Y-204236373D02*
X146663795Y-204236373D01*
X146663795Y-204236373D02*
X147163795Y-205136373D01*
X147663795Y-205236373D02*
X146663795Y-205236373D01*
X147913795Y-202036373D02*
X147913795Y-207436373D01*
X147913795Y-207436373D02*
X146413795Y-207436373D01*
X146413795Y-207436373D02*
X146413795Y-202036373D01*
X146413795Y-202036373D02*
X147913795Y-202036373D01*
G04 #@! TO.C,D33*
X147036796Y-185930970D02*
X147536796Y-185030970D01*
X147536796Y-185030970D02*
X146536796Y-185030970D01*
X146536796Y-185030970D02*
X147036796Y-185930970D01*
X147536796Y-186030970D02*
X146536796Y-186030970D01*
X147786796Y-182830970D02*
X147786796Y-188230970D01*
X147786796Y-188230970D02*
X146286796Y-188230970D01*
X146286796Y-188230970D02*
X146286796Y-182830970D01*
X146286796Y-182830970D02*
X147786796Y-182830970D01*
G04 #@! TO.C,D32*
X147163793Y-167087171D02*
X147663793Y-166187171D01*
X147663793Y-166187171D02*
X146663793Y-166187171D01*
X146663793Y-166187171D02*
X147163793Y-167087171D01*
X147663793Y-167187171D02*
X146663793Y-167187171D01*
X147913793Y-163987171D02*
X147913793Y-169387171D01*
X147913793Y-169387171D02*
X146413793Y-169387171D01*
X146413793Y-169387171D02*
X146413793Y-163987171D01*
X146413793Y-163987171D02*
X147913793Y-163987171D01*
G04 #@! TO.C,D31*
X281221995Y-153022999D02*
X281205008Y-151993576D01*
X281205008Y-151993576D02*
X280338982Y-152493576D01*
X280338982Y-152493576D02*
X281221995Y-153022999D01*
X281705008Y-152859602D02*
X280838982Y-153359602D01*
X280321514Y-149963320D02*
X283021514Y-154639858D01*
X283021514Y-154639858D02*
X281722476Y-155389858D01*
X281722476Y-155389858D02*
X279022476Y-150713320D01*
X279022476Y-150713320D02*
X280321514Y-149963320D01*
G04 #@! TO.C,D30*
X272128799Y-137273112D02*
X272111812Y-136243689D01*
X272111812Y-136243689D02*
X271245786Y-136743689D01*
X271245786Y-136743689D02*
X272128799Y-137273112D01*
X272611812Y-137109715D02*
X271745786Y-137609715D01*
X271228318Y-134213433D02*
X273928318Y-138889971D01*
X273928318Y-138889971D02*
X272629280Y-139639971D01*
X272629280Y-139639971D02*
X269929280Y-134963433D01*
X269929280Y-134963433D02*
X271228318Y-134213433D01*
G04 #@! TO.C,D29*
X262537801Y-120813429D02*
X262520814Y-119784006D01*
X262520814Y-119784006D02*
X261654788Y-120284006D01*
X261654788Y-120284006D02*
X262537801Y-120813429D01*
X263020814Y-120650032D02*
X262154788Y-121150032D01*
X261637320Y-117753750D02*
X264337320Y-122430288D01*
X264337320Y-122430288D02*
X263038282Y-123180288D01*
X263038282Y-123180288D02*
X260338282Y-118503750D01*
X260338282Y-118503750D02*
X261637320Y-117753750D01*
G04 #@! TO.C,D28*
X128080838Y-204958570D02*
X128580838Y-204058570D01*
X128580838Y-204058570D02*
X127580838Y-204058570D01*
X127580838Y-204058570D02*
X128080838Y-204958570D01*
X128580838Y-205058570D02*
X127580838Y-205058570D01*
X128830838Y-201858570D02*
X128830838Y-207258570D01*
X128830838Y-207258570D02*
X127330838Y-207258570D01*
X127330838Y-207258570D02*
X127330838Y-201858570D01*
X127330838Y-201858570D02*
X128830838Y-201858570D01*
G04 #@! TO.C,D27*
X128088396Y-186137168D02*
X128588396Y-185237168D01*
X128588396Y-185237168D02*
X127588396Y-185237168D01*
X127588396Y-185237168D02*
X128088396Y-186137168D01*
X128588396Y-186237168D02*
X127588396Y-186237168D01*
X128838396Y-183037168D02*
X128838396Y-188437168D01*
X128838396Y-188437168D02*
X127338396Y-188437168D01*
X127338396Y-188437168D02*
X127338396Y-183037168D01*
X127338396Y-183037168D02*
X128838396Y-183037168D01*
G04 #@! TO.C,D26*
X128164595Y-167696770D02*
X128664595Y-166796770D01*
X128664595Y-166796770D02*
X127664595Y-166796770D01*
X127664595Y-166796770D02*
X128164595Y-167696770D01*
X128664595Y-167796770D02*
X127664595Y-167796770D01*
X128914595Y-164596770D02*
X128914595Y-169996770D01*
X128914595Y-169996770D02*
X127414595Y-169996770D01*
X127414595Y-169996770D02*
X127414595Y-164596770D01*
X127414595Y-164596770D02*
X128914595Y-164596770D01*
G04 #@! TO.C,D25*
X264990004Y-162805159D02*
X264973017Y-161775736D01*
X264973017Y-161775736D02*
X264106991Y-162275736D01*
X264106991Y-162275736D02*
X264990004Y-162805159D01*
X265473017Y-162641762D02*
X264606991Y-163141762D01*
X264089523Y-159745480D02*
X266789523Y-164422018D01*
X266789523Y-164422018D02*
X265490485Y-165172018D01*
X265490485Y-165172018D02*
X262790485Y-160495480D01*
X262790485Y-160495480D02*
X264089523Y-159745480D01*
G04 #@! TO.C,D24*
X255678410Y-146829406D02*
X255661423Y-145799983D01*
X255661423Y-145799983D02*
X254795397Y-146299983D01*
X254795397Y-146299983D02*
X255678410Y-146829406D01*
X256161423Y-146666009D02*
X255295397Y-147166009D01*
X254777929Y-143769727D02*
X257477929Y-148446265D01*
X257477929Y-148446265D02*
X256178891Y-149196265D01*
X256178891Y-149196265D02*
X253478891Y-144519727D01*
X253478891Y-144519727D02*
X254777929Y-143769727D01*
G04 #@! TO.C,D23*
X245868114Y-129939081D02*
X245851127Y-128909658D01*
X245851127Y-128909658D02*
X244985101Y-129409658D01*
X244985101Y-129409658D02*
X245868114Y-129939081D01*
X246351127Y-129775684D02*
X245485101Y-130275684D01*
X244967633Y-126879402D02*
X247667633Y-131555940D01*
X247667633Y-131555940D02*
X246368595Y-132305940D01*
X246368595Y-132305940D02*
X243668595Y-127629402D01*
X243668595Y-127629402D02*
X244967633Y-126879402D01*
G04 #@! TO.C,D22*
X109165398Y-205034773D02*
X109665398Y-204134773D01*
X109665398Y-204134773D02*
X108665398Y-204134773D01*
X108665398Y-204134773D02*
X109165398Y-205034773D01*
X109665398Y-205134773D02*
X108665398Y-205134773D01*
X109915398Y-201934773D02*
X109915398Y-207334773D01*
X109915398Y-207334773D02*
X108415398Y-207334773D01*
X108415398Y-207334773D02*
X108415398Y-201934773D01*
X108415398Y-201934773D02*
X109915398Y-201934773D01*
G04 #@! TO.C,D21*
X109114593Y-185933972D02*
X109614593Y-185033972D01*
X109614593Y-185033972D02*
X108614593Y-185033972D01*
X108614593Y-185033972D02*
X109114593Y-185933972D01*
X109614593Y-186033972D02*
X108614593Y-186033972D01*
X109864593Y-182833972D02*
X109864593Y-188233972D01*
X109864593Y-188233972D02*
X108364593Y-188233972D01*
X108364593Y-188233972D02*
X108364593Y-182833972D01*
X108364593Y-182833972D02*
X109864593Y-182833972D01*
G04 #@! TO.C,D20*
X109216194Y-166934770D02*
X109716194Y-166034770D01*
X109716194Y-166034770D02*
X108716194Y-166034770D01*
X108716194Y-166034770D02*
X109216194Y-166934770D01*
X109716194Y-167034770D02*
X108716194Y-167034770D01*
X109966194Y-163834770D02*
X109966194Y-169234770D01*
X109966194Y-169234770D02*
X108466194Y-169234770D01*
X108466194Y-169234770D02*
X108466194Y-163834770D01*
X108466194Y-163834770D02*
X109966194Y-163834770D01*
G04 #@! TO.C,D19*
X248495619Y-172386850D02*
X248478632Y-171357427D01*
X248478632Y-171357427D02*
X247612606Y-171857427D01*
X247612606Y-171857427D02*
X248495619Y-172386850D01*
X248978632Y-172223453D02*
X248112606Y-172723453D01*
X247595138Y-169327171D02*
X250295138Y-174003709D01*
X250295138Y-174003709D02*
X248996100Y-174753709D01*
X248996100Y-174753709D02*
X246296100Y-170077171D01*
X246296100Y-170077171D02*
X247595138Y-169327171D01*
G04 #@! TO.C,D18*
X239100109Y-155960952D02*
X239083122Y-154931529D01*
X239083122Y-154931529D02*
X238217096Y-155431529D01*
X238217096Y-155431529D02*
X239100109Y-155960952D01*
X239583122Y-155797555D02*
X238717096Y-156297555D01*
X238199628Y-152901273D02*
X240899628Y-157577811D01*
X240899628Y-157577811D02*
X239600590Y-158327811D01*
X239600590Y-158327811D02*
X236900590Y-153651273D01*
X236900590Y-153651273D02*
X238199628Y-152901273D01*
G04 #@! TO.C,D17*
X229515925Y-139614656D02*
X229498938Y-138585233D01*
X229498938Y-138585233D02*
X228632912Y-139085233D01*
X228632912Y-139085233D02*
X229515925Y-139614656D01*
X229998938Y-139451259D02*
X229132912Y-139951259D01*
X228615444Y-136554977D02*
X231315444Y-141231515D01*
X231315444Y-141231515D02*
X230016406Y-141981515D01*
X230016406Y-141981515D02*
X227316406Y-137304977D01*
X227316406Y-137304977D02*
X228615444Y-136554977D01*
G04 #@! TO.C,D16*
X90089999Y-205187172D02*
X90589999Y-204287172D01*
X90589999Y-204287172D02*
X89589999Y-204287172D01*
X89589999Y-204287172D02*
X90089999Y-205187172D01*
X90589999Y-205287172D02*
X89589999Y-205287172D01*
X90839999Y-202087172D02*
X90839999Y-207487172D01*
X90839999Y-207487172D02*
X89339999Y-207487172D01*
X89339999Y-207487172D02*
X89339999Y-202087172D01*
X89339999Y-202087172D02*
X90839999Y-202087172D01*
G04 #@! TO.C,D15*
X90107849Y-186035571D02*
X90607849Y-185135571D01*
X90607849Y-185135571D02*
X89607849Y-185135571D01*
X89607849Y-185135571D02*
X90107849Y-186035571D01*
X90607849Y-186135571D02*
X89607849Y-186135571D01*
X90857849Y-182935571D02*
X90857849Y-188335571D01*
X90857849Y-188335571D02*
X89357849Y-188335571D01*
X89357849Y-188335571D02*
X89357849Y-182935571D01*
X89357849Y-182935571D02*
X90857849Y-182935571D01*
G04 #@! TO.C,D14*
X90013792Y-167417371D02*
X90513792Y-166517371D01*
X90513792Y-166517371D02*
X89513792Y-166517371D01*
X89513792Y-166517371D02*
X90013792Y-167417371D01*
X90513792Y-167517371D02*
X89513792Y-167517371D01*
X90763792Y-164317371D02*
X90763792Y-169717371D01*
X90763792Y-169717371D02*
X89263792Y-169717371D01*
X89263792Y-169717371D02*
X89263792Y-164317371D01*
X89263792Y-164317371D02*
X90763792Y-164317371D01*
G04 #@! TO.C,D13*
X232167916Y-181901642D02*
X232150929Y-180872219D01*
X232150929Y-180872219D02*
X231284903Y-181372219D01*
X231284903Y-181372219D02*
X232167916Y-181901642D01*
X232650929Y-181738245D02*
X231784903Y-182238245D01*
X231267435Y-178841963D02*
X233967435Y-183518501D01*
X233967435Y-183518501D02*
X232668397Y-184268501D01*
X232668397Y-184268501D02*
X229968397Y-179591963D01*
X229968397Y-179591963D02*
X231267435Y-178841963D01*
G04 #@! TO.C,D12*
X222542229Y-165432660D02*
X222525242Y-164403237D01*
X222525242Y-164403237D02*
X221659216Y-164903237D01*
X221659216Y-164903237D02*
X222542229Y-165432660D01*
X223025242Y-165269263D02*
X222159216Y-165769263D01*
X221641748Y-162372981D02*
X224341748Y-167049519D01*
X224341748Y-167049519D02*
X223042710Y-167799519D01*
X223042710Y-167799519D02*
X220342710Y-163122981D01*
X220342710Y-163122981D02*
X221641748Y-162372981D01*
G04 #@! TO.C,D11*
X213061223Y-148909478D02*
X213044236Y-147880055D01*
X213044236Y-147880055D02*
X212178210Y-148380055D01*
X212178210Y-148380055D02*
X213061223Y-148909478D01*
X213544236Y-148746081D02*
X212678210Y-149246081D01*
X212160742Y-145849799D02*
X214860742Y-150526337D01*
X214860742Y-150526337D02*
X213561704Y-151276337D01*
X213561704Y-151276337D02*
X210861704Y-146599799D01*
X210861704Y-146599799D02*
X212160742Y-145849799D01*
G04 #@! TO.C,D10*
X71166992Y-205263369D02*
X71666992Y-204363369D01*
X71666992Y-204363369D02*
X70666992Y-204363369D01*
X70666992Y-204363369D02*
X71166992Y-205263369D01*
X71666992Y-205363369D02*
X70666992Y-205363369D01*
X71916992Y-202163369D02*
X71916992Y-207563369D01*
X71916992Y-207563369D02*
X70416992Y-207563369D01*
X70416992Y-207563369D02*
X70416992Y-202163369D01*
X70416992Y-202163369D02*
X71916992Y-202163369D01*
G04 #@! TO.C,D9*
X71217794Y-186137171D02*
X71717794Y-185237171D01*
X71717794Y-185237171D02*
X70717794Y-185237171D01*
X70717794Y-185237171D02*
X71217794Y-186137171D01*
X71717794Y-186237171D02*
X70717794Y-186237171D01*
X71967794Y-183037171D02*
X71967794Y-188437171D01*
X71967794Y-188437171D02*
X70467794Y-188437171D01*
X70467794Y-188437171D02*
X70467794Y-183037171D01*
X70467794Y-183037171D02*
X71967794Y-183037171D01*
G04 #@! TO.C,D8*
X70811394Y-166858569D02*
X71311394Y-165958569D01*
X71311394Y-165958569D02*
X70311394Y-165958569D01*
X70311394Y-165958569D02*
X70811394Y-166858569D01*
X71311394Y-166958569D02*
X70311394Y-166958569D01*
X71561394Y-163758569D02*
X71561394Y-169158569D01*
X71561394Y-169158569D02*
X70061394Y-169158569D01*
X70061394Y-169158569D02*
X70061394Y-163758569D01*
X70061394Y-163758569D02*
X71561394Y-163758569D01*
G04 #@! TO.C,U1*
X50712445Y-191311645D02*
X32932445Y-191311645D01*
X32932445Y-191311645D02*
X32932445Y-160831645D01*
X32932445Y-160831645D02*
X38012445Y-160831645D01*
X38012445Y-160831645D02*
X38012445Y-158291645D01*
X38012445Y-158291645D02*
X45632445Y-158291645D01*
X45632445Y-158291645D02*
X45632445Y-160831645D01*
X45632445Y-160831645D02*
X50712445Y-160831645D01*
X50712445Y-160831645D02*
X50712445Y-191311645D01*
G04 #@! TD*
G04 #@! TO.C,D55*
X352928980Y-125075252D02*
G75*
G03X352928980Y-125075252I-623500J0D01*
G01*
G04 #@! TD*
G04 #@! TO.C,D54*
X347973838Y-106181340D02*
G75*
G03X347973838Y-106181340I-623500J0D01*
G01*
G04 #@! TD*
G04 #@! TO.C,D53*
X343069632Y-87878588D02*
G75*
G03X343069632Y-87878588I-623500J0D01*
G01*
G04 #@! TD*
G04 #@! TO.C,D52*
X214134426Y-187635991D02*
G75*
G03X214134426Y-187635991I-623500J0D01*
G01*
G04 #@! TD*
G04 #@! TO.C,D51*
X204622131Y-171160204D02*
G75*
G03X204622131Y-171160204I-623500J0D01*
G01*
G04 #@! TD*
G04 #@! TO.C,D50*
X195069242Y-154766512D02*
G75*
G03X195069242Y-154766512I-623500J0D01*
G01*
G04 #@! TD*
G04 #@! TO.C,D49*
X336501320Y-129608508D02*
G75*
G03X336501320Y-129608508I-623500J0D01*
G01*
G04 #@! TD*
G04 #@! TO.C,D48*
X331192230Y-110677959D02*
G75*
G03X331192230Y-110677959I-623500J0D01*
G01*
G04 #@! TD*
G04 #@! TO.C,D47*
X326423843Y-92391407D02*
G75*
G03X326423843Y-92391407I-623500J0D01*
G01*
G04 #@! TD*
G04 #@! TO.C,D46*
X184462491Y-207872075D02*
X184462491Y-209119075D01*
X185709491Y-209119075D01*
X185709491Y-207872075D01*
X184462491Y-207872075D01*
X185709491Y-200875575D02*
G75*
G03X185709491Y-200875575I-623500J0D01*
G01*
G04 #@! TD*
G04 #@! TO.C,D45*
X184310091Y-188717466D02*
X184310091Y-189964466D01*
X185557091Y-189964466D01*
X185557091Y-188717466D01*
X184310091Y-188717466D01*
X185557091Y-181720966D02*
G75*
G03X185557091Y-181720966I-623500J0D01*
G01*
G04 #@! TD*
G04 #@! TO.C,D43*
X317861192Y-134234970D02*
G75*
G03X317861192Y-134234970I-623500J0D01*
G01*
G04 #@! TD*
G04 #@! TO.C,D42*
X312917065Y-115390697D02*
G75*
G03X312917065Y-115390697I-623500J0D01*
G01*
G04 #@! TD*
G04 #@! TO.C,D41*
X308091749Y-97382367D02*
G75*
G03X308091749Y-97382367I-623500J0D01*
G01*
G04 #@! TD*
G04 #@! TO.C,D40*
X165463292Y-207922876D02*
X165463292Y-209169876D01*
X166710292Y-209169876D01*
X166710292Y-207922876D01*
X165463292Y-207922876D01*
X166710292Y-200926376D02*
G75*
G03X166710292Y-200926376I-623500J0D01*
G01*
G04 #@! TD*
G04 #@! TO.C,D39*
X165387091Y-189152270D02*
X165387091Y-190399270D01*
X166634091Y-190399270D01*
X166634091Y-189152270D01*
X165387091Y-189152270D01*
X166634091Y-182155770D02*
G75*
G03X166634091Y-182155770I-623500J0D01*
G01*
G04 #@! TD*
G04 #@! TO.C,D38*
X165234695Y-169873670D02*
X165234695Y-171120670D01*
X166481695Y-171120670D01*
X166481695Y-169873670D01*
X165234695Y-169873670D01*
X166481695Y-162877170D02*
G75*
G03X166481695Y-162877170I-623500J0D01*
G01*
G04 #@! TD*
G04 #@! TO.C,D37*
X296438077Y-140147293D02*
G75*
G03X296438077Y-140147293I-623500J0D01*
G01*
G04 #@! TD*
G04 #@! TO.C,D36*
X287387959Y-124167224D02*
G75*
G03X287387959Y-124167224I-623500J0D01*
G01*
G04 #@! TD*
G04 #@! TO.C,D35*
X277968874Y-108106887D02*
G75*
G03X277968874Y-108106887I-623500J0D01*
G01*
G04 #@! TD*
G04 #@! TO.C,D34*
X146540295Y-207922873D02*
X146540295Y-209169873D01*
X147787295Y-209169873D01*
X147787295Y-207922873D01*
X146540295Y-207922873D01*
X147787295Y-200926373D02*
G75*
G03X147787295Y-200926373I-623500J0D01*
G01*
G04 #@! TD*
G04 #@! TO.C,D33*
X146413296Y-188717470D02*
X146413296Y-189964470D01*
X147660296Y-189964470D01*
X147660296Y-188717470D01*
X146413296Y-188717470D01*
X147660296Y-181720970D02*
G75*
G03X147660296Y-181720970I-623500J0D01*
G01*
G04 #@! TD*
G04 #@! TO.C,D32*
X146540293Y-169873671D02*
X146540293Y-171120671D01*
X147787293Y-171120671D01*
X147787293Y-169873671D01*
X146540293Y-169873671D01*
X147787293Y-162877171D02*
G75*
G03X147787293Y-162877171I-623500J0D01*
G01*
G04 #@! TD*
G04 #@! TO.C,D31*
X279740495Y-149377032D02*
G75*
G03X279740495Y-149377032I-623500J0D01*
G01*
G04 #@! TD*
G04 #@! TO.C,D30*
X270647299Y-133627145D02*
G75*
G03X270647299Y-133627145I-623500J0D01*
G01*
G04 #@! TD*
G04 #@! TO.C,D29*
X261056301Y-117167462D02*
G75*
G03X261056301Y-117167462I-623500J0D01*
G01*
G04 #@! TD*
G04 #@! TO.C,D28*
X127457338Y-207745070D02*
X127457338Y-208992070D01*
X128704338Y-208992070D01*
X128704338Y-207745070D01*
X127457338Y-207745070D01*
X128704338Y-200748570D02*
G75*
G03X128704338Y-200748570I-623500J0D01*
G01*
G04 #@! TD*
G04 #@! TO.C,D27*
X127464896Y-188923668D02*
X127464896Y-190170668D01*
X128711896Y-190170668D01*
X128711896Y-188923668D01*
X127464896Y-188923668D01*
X128711896Y-181927168D02*
G75*
G03X128711896Y-181927168I-623500J0D01*
G01*
G04 #@! TD*
G04 #@! TO.C,D26*
X127541095Y-170483270D02*
X127541095Y-171730270D01*
X128788095Y-171730270D01*
X128788095Y-170483270D01*
X127541095Y-170483270D01*
X128788095Y-163486770D02*
G75*
G03X128788095Y-163486770I-623500J0D01*
G01*
G04 #@! TD*
G04 #@! TO.C,D25*
X263508504Y-159159192D02*
G75*
G03X263508504Y-159159192I-623500J0D01*
G01*
G04 #@! TD*
G04 #@! TO.C,D24*
X254196910Y-143183439D02*
G75*
G03X254196910Y-143183439I-623500J0D01*
G01*
G04 #@! TD*
G04 #@! TO.C,D23*
X244386614Y-126293114D02*
G75*
G03X244386614Y-126293114I-623500J0D01*
G01*
G04 #@! TD*
G04 #@! TO.C,D22*
X108541898Y-207821273D02*
X108541898Y-209068273D01*
X109788898Y-209068273D01*
X109788898Y-207821273D01*
X108541898Y-207821273D01*
X109788898Y-200824773D02*
G75*
G03X109788898Y-200824773I-623500J0D01*
G01*
G04 #@! TD*
G04 #@! TO.C,D21*
X108491093Y-188720472D02*
X108491093Y-189967472D01*
X109738093Y-189967472D01*
X109738093Y-188720472D01*
X108491093Y-188720472D01*
X109738093Y-181723972D02*
G75*
G03X109738093Y-181723972I-623500J0D01*
G01*
G04 #@! TD*
G04 #@! TO.C,D20*
X108592694Y-169721270D02*
X108592694Y-170968270D01*
X109839694Y-170968270D01*
X109839694Y-169721270D01*
X108592694Y-169721270D01*
X109839694Y-162724770D02*
G75*
G03X109839694Y-162724770I-623500J0D01*
G01*
G04 #@! TD*
G04 #@! TO.C,D19*
X247014119Y-168740883D02*
G75*
G03X247014119Y-168740883I-623500J0D01*
G01*
G04 #@! TD*
G04 #@! TO.C,D18*
X237618609Y-152314985D02*
G75*
G03X237618609Y-152314985I-623500J0D01*
G01*
G04 #@! TD*
G04 #@! TO.C,D17*
X228034425Y-135968689D02*
G75*
G03X228034425Y-135968689I-623500J0D01*
G01*
G04 #@! TD*
G04 #@! TO.C,D16*
X89466499Y-207973672D02*
X89466499Y-209220672D01*
X90713499Y-209220672D01*
X90713499Y-207973672D01*
X89466499Y-207973672D01*
X90713499Y-200977172D02*
G75*
G03X90713499Y-200977172I-623500J0D01*
G01*
G04 #@! TD*
G04 #@! TO.C,D15*
X89484349Y-188822071D02*
X89484349Y-190069071D01*
X90731349Y-190069071D01*
X90731349Y-188822071D01*
X89484349Y-188822071D01*
X90731349Y-181825571D02*
G75*
G03X90731349Y-181825571I-623500J0D01*
G01*
G04 #@! TD*
G04 #@! TO.C,D14*
X89390292Y-170203871D02*
X89390292Y-171450871D01*
X90637292Y-171450871D01*
X90637292Y-170203871D01*
X89390292Y-170203871D01*
X90637292Y-163207371D02*
G75*
G03X90637292Y-163207371I-623500J0D01*
G01*
G04 #@! TD*
G04 #@! TO.C,D13*
X230686416Y-178255675D02*
G75*
G03X230686416Y-178255675I-623500J0D01*
G01*
G04 #@! TD*
G04 #@! TO.C,D12*
X221060729Y-161786693D02*
G75*
G03X221060729Y-161786693I-623500J0D01*
G01*
G04 #@! TD*
G04 #@! TO.C,D11*
X211579723Y-145263511D02*
G75*
G03X211579723Y-145263511I-623500J0D01*
G01*
G04 #@! TD*
G04 #@! TO.C,D10*
X70543492Y-208049869D02*
X70543492Y-209296869D01*
X71790492Y-209296869D01*
X71790492Y-208049869D01*
X70543492Y-208049869D01*
X71790492Y-201053369D02*
G75*
G03X71790492Y-201053369I-623500J0D01*
G01*
G04 #@! TD*
G04 #@! TO.C,D9*
X70594294Y-188923671D02*
X70594294Y-190170671D01*
X71841294Y-190170671D01*
X71841294Y-188923671D01*
X70594294Y-188923671D01*
X71841294Y-181927171D02*
G75*
G03X71841294Y-181927171I-623500J0D01*
G01*
G04 #@! TD*
G04 #@! TO.C,D8*
X70187894Y-169645069D02*
X70187894Y-170892069D01*
X71434894Y-170892069D01*
X71434894Y-169645069D01*
X70187894Y-169645069D01*
X71434894Y-162648569D02*
G75*
G03X71434894Y-162648569I-623500J0D01*
G01*
G04 #@! TD*
G04 #@! TO.C,sw1*
X34219253Y-203104492D02*
X33743063Y-202771159D01*
X34219253Y-202533064D02*
X33219253Y-202533064D01*
X33219253Y-202914016D01*
X33266873Y-203009254D01*
X33314492Y-203056873D01*
X33409730Y-203104492D01*
X33552587Y-203104492D01*
X33647825Y-203056873D01*
X33695444Y-203009254D01*
X33743063Y-202914016D01*
X33743063Y-202533064D01*
X34171634Y-203914016D02*
X34219253Y-203818778D01*
X34219253Y-203628302D01*
X34171634Y-203533064D01*
X34076396Y-203485445D01*
X33695444Y-203485445D01*
X33600206Y-203533064D01*
X33552587Y-203628302D01*
X33552587Y-203818778D01*
X33600206Y-203914016D01*
X33695444Y-203961635D01*
X33790682Y-203961635D01*
X33885920Y-203485445D01*
X34171634Y-204342588D02*
X34219253Y-204437826D01*
X34219253Y-204628302D01*
X34171634Y-204723540D01*
X34076396Y-204771159D01*
X34028777Y-204771159D01*
X33933539Y-204723540D01*
X33885920Y-204628302D01*
X33885920Y-204485445D01*
X33838301Y-204390207D01*
X33743063Y-204342588D01*
X33695444Y-204342588D01*
X33600206Y-204390207D01*
X33552587Y-204485445D01*
X33552587Y-204628302D01*
X33600206Y-204723540D01*
X34171634Y-205580683D02*
X34219253Y-205485445D01*
X34219253Y-205294968D01*
X34171634Y-205199730D01*
X34076396Y-205152111D01*
X33695444Y-205152111D01*
X33600206Y-205199730D01*
X33552587Y-205294968D01*
X33552587Y-205485445D01*
X33600206Y-205580683D01*
X33695444Y-205628302D01*
X33790682Y-205628302D01*
X33885920Y-205152111D01*
X33552587Y-205914016D02*
X33552587Y-206294968D01*
X33219253Y-206056873D02*
X34076396Y-206056873D01*
X34171634Y-206104492D01*
X34219253Y-206199730D01*
X34219253Y-206294968D01*
G04 #@! TD*
%LPC*%
D14*
G04 #@! TO.C,sw1*
X33766873Y-207719588D03*
X33766873Y-201219588D03*
G04 #@! TD*
D15*
G04 #@! TO.C,*
X297037879Y-134696990D03*
G04 #@! TD*
G04 #@! TO.C,*
X284845878Y-104293192D03*
G04 #@! TD*
G04 #@! TO.C,*
X90129480Y-195275989D03*
G04 #@! TD*
D16*
G04 #@! TO.C,MX7*
X104721844Y-166540888D03*
X94561844Y-166540888D03*
D17*
X95831844Y-164000888D03*
D18*
X99641844Y-166540888D03*
D17*
X102181844Y-161460888D03*
G04 #@! TD*
D15*
G04 #@! TO.C,*
X89900874Y-176200590D03*
G04 #@! TD*
G04 #@! TO.C,*
X174457477Y-165430988D03*
G04 #@! TD*
G04 #@! TO.C,*
X193507475Y-209220588D03*
G04 #@! TD*
D16*
G04 #@! TO.C,MX28*
X235091255Y-157840890D03*
X226292437Y-162920890D03*
D17*
X226122289Y-160086185D03*
D18*
X230691846Y-160380890D03*
D17*
X230351551Y-154711481D03*
G04 #@! TD*
D13*
G04 #@! TO.C,D55*
G36*
X354440494Y-131010922D02*
G01*
X353424340Y-131283200D01*
X353061476Y-129928972D01*
X354077630Y-129656694D01*
X354440494Y-131010922D01*
G37*
G36*
X355195628Y-132965583D02*
G01*
X353747705Y-133353552D01*
X353359736Y-131905629D01*
X354807659Y-131517660D01*
X355195628Y-132965583D01*
G37*
D19*
X352305480Y-125075252D03*
D13*
G36*
X353521686Y-127581886D02*
G01*
X352505532Y-127854164D01*
X352142668Y-126499936D01*
X353158822Y-126227658D01*
X353521686Y-127581886D01*
G37*
G04 #@! TD*
G04 #@! TO.C,D54*
G36*
X349485352Y-112117010D02*
G01*
X348469198Y-112389288D01*
X348106334Y-111035060D01*
X349122488Y-110762782D01*
X349485352Y-112117010D01*
G37*
G36*
X350240486Y-114071671D02*
G01*
X348792563Y-114459640D01*
X348404594Y-113011717D01*
X349852517Y-112623748D01*
X350240486Y-114071671D01*
G37*
D19*
X347350338Y-106181340D03*
D13*
G36*
X348566544Y-108687974D02*
G01*
X347550390Y-108960252D01*
X347187526Y-107606024D01*
X348203680Y-107333746D01*
X348566544Y-108687974D01*
G37*
G04 #@! TD*
G04 #@! TO.C,D53*
G36*
X344581146Y-93814258D02*
G01*
X343564992Y-94086536D01*
X343202128Y-92732308D01*
X344218282Y-92460030D01*
X344581146Y-93814258D01*
G37*
G36*
X345336280Y-95768919D02*
G01*
X343888357Y-96156888D01*
X343500388Y-94708965D01*
X344948311Y-94320996D01*
X345336280Y-95768919D01*
G37*
D19*
X342446132Y-87878588D03*
D13*
G36*
X343662338Y-90385222D02*
G01*
X342646184Y-90657500D01*
X342283320Y-89303272D01*
X343299474Y-89030994D01*
X343662338Y-90385222D01*
G37*
G04 #@! TD*
G04 #@! TO.C,D52*
G36*
X217109455Y-192816827D02*
G01*
X216198397Y-193342827D01*
X215497397Y-192128659D01*
X216408455Y-191602659D01*
X217109455Y-192816827D01*
G37*
G36*
X218344762Y-194509441D02*
G01*
X217046590Y-195258941D01*
X216297090Y-193960769D01*
X217595262Y-193211269D01*
X218344762Y-194509441D01*
G37*
D19*
X213510926Y-187635991D03*
D13*
G36*
X215334455Y-189742437D02*
G01*
X214423397Y-190268437D01*
X213722397Y-189054269D01*
X214633455Y-188528269D01*
X215334455Y-189742437D01*
G37*
G04 #@! TD*
G04 #@! TO.C,D51*
G36*
X207597160Y-176341040D02*
G01*
X206686102Y-176867040D01*
X205985102Y-175652872D01*
X206896160Y-175126872D01*
X207597160Y-176341040D01*
G37*
G36*
X208832467Y-178033654D02*
G01*
X207534295Y-178783154D01*
X206784795Y-177484982D01*
X208082967Y-176735482D01*
X208832467Y-178033654D01*
G37*
D19*
X203998631Y-171160204D03*
D13*
G36*
X205822160Y-173266650D02*
G01*
X204911102Y-173792650D01*
X204210102Y-172578482D01*
X205121160Y-172052482D01*
X205822160Y-173266650D01*
G37*
G04 #@! TD*
G04 #@! TO.C,D50*
G36*
X198044271Y-159947348D02*
G01*
X197133213Y-160473348D01*
X196432213Y-159259180D01*
X197343271Y-158733180D01*
X198044271Y-159947348D01*
G37*
G36*
X199279578Y-161639962D02*
G01*
X197981406Y-162389462D01*
X197231906Y-161091290D01*
X198530078Y-160341790D01*
X199279578Y-161639962D01*
G37*
D19*
X194445742Y-154766512D03*
D13*
G36*
X196269271Y-156872958D02*
G01*
X195358213Y-157398958D01*
X194657213Y-156184790D01*
X195568271Y-155658790D01*
X196269271Y-156872958D01*
G37*
G04 #@! TD*
G04 #@! TO.C,D49*
G36*
X338012834Y-135544178D02*
G01*
X336996680Y-135816456D01*
X336633816Y-134462228D01*
X337649970Y-134189950D01*
X338012834Y-135544178D01*
G37*
G36*
X338767968Y-137498839D02*
G01*
X337320045Y-137886808D01*
X336932076Y-136438885D01*
X338379999Y-136050916D01*
X338767968Y-137498839D01*
G37*
D19*
X335877820Y-129608508D03*
D13*
G36*
X337094026Y-132115142D02*
G01*
X336077872Y-132387420D01*
X335715008Y-131033192D01*
X336731162Y-130760914D01*
X337094026Y-132115142D01*
G37*
G04 #@! TD*
G04 #@! TO.C,D48*
G36*
X332703744Y-116613629D02*
G01*
X331687590Y-116885907D01*
X331324726Y-115531679D01*
X332340880Y-115259401D01*
X332703744Y-116613629D01*
G37*
G36*
X333458878Y-118568290D02*
G01*
X332010955Y-118956259D01*
X331622986Y-117508336D01*
X333070909Y-117120367D01*
X333458878Y-118568290D01*
G37*
D19*
X330568730Y-110677959D03*
D13*
G36*
X331784936Y-113184593D02*
G01*
X330768782Y-113456871D01*
X330405918Y-112102643D01*
X331422072Y-111830365D01*
X331784936Y-113184593D01*
G37*
G04 #@! TD*
G04 #@! TO.C,D47*
G36*
X327935357Y-98327077D02*
G01*
X326919203Y-98599355D01*
X326556339Y-97245127D01*
X327572493Y-96972849D01*
X327935357Y-98327077D01*
G37*
G36*
X328690491Y-100281738D02*
G01*
X327242568Y-100669707D01*
X326854599Y-99221784D01*
X328302522Y-98833815D01*
X328690491Y-100281738D01*
G37*
D19*
X325800343Y-92391407D03*
D13*
G36*
X327016549Y-94898041D02*
G01*
X326000395Y-95170319D01*
X325637531Y-93816091D01*
X326653685Y-93543813D01*
X327016549Y-94898041D01*
G37*
G04 #@! TD*
D20*
G04 #@! TO.C,D46*
X185085991Y-206460575D03*
D21*
X185085991Y-208495575D03*
D19*
X185085991Y-200875575D03*
D20*
X185085991Y-202910575D03*
G04 #@! TD*
G04 #@! TO.C,D45*
X184933591Y-187305966D03*
D21*
X184933591Y-189340966D03*
D19*
X184933591Y-181720966D03*
D20*
X184933591Y-183755966D03*
G04 #@! TD*
D13*
G04 #@! TO.C,D43*
G36*
X319372706Y-140170640D02*
G01*
X318356552Y-140442918D01*
X317993688Y-139088690D01*
X319009842Y-138816412D01*
X319372706Y-140170640D01*
G37*
G36*
X320127840Y-142125301D02*
G01*
X318679917Y-142513270D01*
X318291948Y-141065347D01*
X319739871Y-140677378D01*
X320127840Y-142125301D01*
G37*
D19*
X317237692Y-134234970D03*
D13*
G36*
X318453898Y-136741604D02*
G01*
X317437744Y-137013882D01*
X317074880Y-135659654D01*
X318091034Y-135387376D01*
X318453898Y-136741604D01*
G37*
G04 #@! TD*
G04 #@! TO.C,D42*
G36*
X314428579Y-121326367D02*
G01*
X313412425Y-121598645D01*
X313049561Y-120244417D01*
X314065715Y-119972139D01*
X314428579Y-121326367D01*
G37*
G36*
X315183713Y-123281028D02*
G01*
X313735790Y-123668997D01*
X313347821Y-122221074D01*
X314795744Y-121833105D01*
X315183713Y-123281028D01*
G37*
D19*
X312293565Y-115390697D03*
D13*
G36*
X313509771Y-117897331D02*
G01*
X312493617Y-118169609D01*
X312130753Y-116815381D01*
X313146907Y-116543103D01*
X313509771Y-117897331D01*
G37*
G04 #@! TD*
G04 #@! TO.C,D41*
G36*
X309603263Y-103318037D02*
G01*
X308587109Y-103590315D01*
X308224245Y-102236087D01*
X309240399Y-101963809D01*
X309603263Y-103318037D01*
G37*
G36*
X310358397Y-105272698D02*
G01*
X308910474Y-105660667D01*
X308522505Y-104212744D01*
X309970428Y-103824775D01*
X310358397Y-105272698D01*
G37*
D19*
X307468249Y-97382367D03*
D13*
G36*
X308684455Y-99889001D02*
G01*
X307668301Y-100161279D01*
X307305437Y-98807051D01*
X308321591Y-98534773D01*
X308684455Y-99889001D01*
G37*
G04 #@! TD*
D20*
G04 #@! TO.C,D40*
X166086792Y-206511376D03*
D21*
X166086792Y-208546376D03*
D19*
X166086792Y-200926376D03*
D20*
X166086792Y-202961376D03*
G04 #@! TD*
G04 #@! TO.C,D39*
X166010591Y-187740770D03*
D21*
X166010591Y-189775770D03*
D19*
X166010591Y-182155770D03*
D20*
X166010591Y-184190770D03*
G04 #@! TD*
G04 #@! TO.C,D38*
X165858195Y-168462170D03*
D21*
X165858195Y-170497170D03*
D19*
X165858195Y-162877170D03*
D20*
X165858195Y-164912170D03*
G04 #@! TD*
D13*
G04 #@! TO.C,D37*
G36*
X299413106Y-145328129D02*
G01*
X298502048Y-145854129D01*
X297801048Y-144639961D01*
X298712106Y-144113961D01*
X299413106Y-145328129D01*
G37*
G36*
X300648413Y-147020743D02*
G01*
X299350241Y-147770243D01*
X298600741Y-146472071D01*
X299898913Y-145722571D01*
X300648413Y-147020743D01*
G37*
D19*
X295814577Y-140147293D03*
D13*
G36*
X297638106Y-142253739D02*
G01*
X296727048Y-142779739D01*
X296026048Y-141565571D01*
X296937106Y-141039571D01*
X297638106Y-142253739D01*
G37*
G04 #@! TD*
G04 #@! TO.C,D36*
G36*
X290362988Y-129348060D02*
G01*
X289451930Y-129874060D01*
X288750930Y-128659892D01*
X289661988Y-128133892D01*
X290362988Y-129348060D01*
G37*
G36*
X291598295Y-131040674D02*
G01*
X290300123Y-131790174D01*
X289550623Y-130492002D01*
X290848795Y-129742502D01*
X291598295Y-131040674D01*
G37*
D19*
X286764459Y-124167224D03*
D13*
G36*
X288587988Y-126273670D02*
G01*
X287676930Y-126799670D01*
X286975930Y-125585502D01*
X287886988Y-125059502D01*
X288587988Y-126273670D01*
G37*
G04 #@! TD*
G04 #@! TO.C,D35*
G36*
X280943903Y-113287723D02*
G01*
X280032845Y-113813723D01*
X279331845Y-112599555D01*
X280242903Y-112073555D01*
X280943903Y-113287723D01*
G37*
G36*
X282179210Y-114980337D02*
G01*
X280881038Y-115729837D01*
X280131538Y-114431665D01*
X281429710Y-113682165D01*
X282179210Y-114980337D01*
G37*
D19*
X277345374Y-108106887D03*
D13*
G36*
X279168903Y-110213333D02*
G01*
X278257845Y-110739333D01*
X277556845Y-109525165D01*
X278467903Y-108999165D01*
X279168903Y-110213333D01*
G37*
G04 #@! TD*
D20*
G04 #@! TO.C,D34*
X147163795Y-206511373D03*
D21*
X147163795Y-208546373D03*
D19*
X147163795Y-200926373D03*
D20*
X147163795Y-202961373D03*
G04 #@! TD*
G04 #@! TO.C,D33*
X147036796Y-187305970D03*
D21*
X147036796Y-189340970D03*
D19*
X147036796Y-181720970D03*
D20*
X147036796Y-183755970D03*
G04 #@! TD*
G04 #@! TO.C,D32*
X147163793Y-168462171D03*
D21*
X147163793Y-170497171D03*
D19*
X147163793Y-162877171D03*
D20*
X147163793Y-164912171D03*
G04 #@! TD*
D13*
G04 #@! TO.C,D31*
G36*
X282715524Y-154557868D02*
G01*
X281804466Y-155083868D01*
X281103466Y-153869700D01*
X282014524Y-153343700D01*
X282715524Y-154557868D01*
G37*
G36*
X283950831Y-156250482D02*
G01*
X282652659Y-156999982D01*
X281903159Y-155701810D01*
X283201331Y-154952310D01*
X283950831Y-156250482D01*
G37*
D19*
X279116995Y-149377032D03*
D13*
G36*
X280940524Y-151483478D02*
G01*
X280029466Y-152009478D01*
X279328466Y-150795310D01*
X280239524Y-150269310D01*
X280940524Y-151483478D01*
G37*
G04 #@! TD*
G04 #@! TO.C,D30*
G36*
X273622328Y-138807981D02*
G01*
X272711270Y-139333981D01*
X272010270Y-138119813D01*
X272921328Y-137593813D01*
X273622328Y-138807981D01*
G37*
G36*
X274857635Y-140500595D02*
G01*
X273559463Y-141250095D01*
X272809963Y-139951923D01*
X274108135Y-139202423D01*
X274857635Y-140500595D01*
G37*
D19*
X270023799Y-133627145D03*
D13*
G36*
X271847328Y-135733591D02*
G01*
X270936270Y-136259591D01*
X270235270Y-135045423D01*
X271146328Y-134519423D01*
X271847328Y-135733591D01*
G37*
G04 #@! TD*
G04 #@! TO.C,D29*
G36*
X264031330Y-122348298D02*
G01*
X263120272Y-122874298D01*
X262419272Y-121660130D01*
X263330330Y-121134130D01*
X264031330Y-122348298D01*
G37*
G36*
X265266637Y-124040912D02*
G01*
X263968465Y-124790412D01*
X263218965Y-123492240D01*
X264517137Y-122742740D01*
X265266637Y-124040912D01*
G37*
D19*
X260432801Y-117167462D03*
D13*
G36*
X262256330Y-119273908D02*
G01*
X261345272Y-119799908D01*
X260644272Y-118585740D01*
X261555330Y-118059740D01*
X262256330Y-119273908D01*
G37*
G04 #@! TD*
D20*
G04 #@! TO.C,D28*
X128080838Y-206333570D03*
D21*
X128080838Y-208368570D03*
D19*
X128080838Y-200748570D03*
D20*
X128080838Y-202783570D03*
G04 #@! TD*
G04 #@! TO.C,D27*
X128088396Y-187512168D03*
D21*
X128088396Y-189547168D03*
D19*
X128088396Y-181927168D03*
D20*
X128088396Y-183962168D03*
G04 #@! TD*
G04 #@! TO.C,D26*
X128164595Y-169071770D03*
D21*
X128164595Y-171106770D03*
D19*
X128164595Y-163486770D03*
D20*
X128164595Y-165521770D03*
G04 #@! TD*
D13*
G04 #@! TO.C,D25*
G36*
X266483533Y-164340028D02*
G01*
X265572475Y-164866028D01*
X264871475Y-163651860D01*
X265782533Y-163125860D01*
X266483533Y-164340028D01*
G37*
G36*
X267718840Y-166032642D02*
G01*
X266420668Y-166782142D01*
X265671168Y-165483970D01*
X266969340Y-164734470D01*
X267718840Y-166032642D01*
G37*
D19*
X262885004Y-159159192D03*
D13*
G36*
X264708533Y-161265638D02*
G01*
X263797475Y-161791638D01*
X263096475Y-160577470D01*
X264007533Y-160051470D01*
X264708533Y-161265638D01*
G37*
G04 #@! TD*
G04 #@! TO.C,D24*
G36*
X257171939Y-148364275D02*
G01*
X256260881Y-148890275D01*
X255559881Y-147676107D01*
X256470939Y-147150107D01*
X257171939Y-148364275D01*
G37*
G36*
X258407246Y-150056889D02*
G01*
X257109074Y-150806389D01*
X256359574Y-149508217D01*
X257657746Y-148758717D01*
X258407246Y-150056889D01*
G37*
D19*
X253573410Y-143183439D03*
D13*
G36*
X255396939Y-145289885D02*
G01*
X254485881Y-145815885D01*
X253784881Y-144601717D01*
X254695939Y-144075717D01*
X255396939Y-145289885D01*
G37*
G04 #@! TD*
G04 #@! TO.C,D23*
G36*
X247361643Y-131473950D02*
G01*
X246450585Y-131999950D01*
X245749585Y-130785782D01*
X246660643Y-130259782D01*
X247361643Y-131473950D01*
G37*
G36*
X248596950Y-133166564D02*
G01*
X247298778Y-133916064D01*
X246549278Y-132617892D01*
X247847450Y-131868392D01*
X248596950Y-133166564D01*
G37*
D19*
X243763114Y-126293114D03*
D13*
G36*
X245586643Y-128399560D02*
G01*
X244675585Y-128925560D01*
X243974585Y-127711392D01*
X244885643Y-127185392D01*
X245586643Y-128399560D01*
G37*
G04 #@! TD*
D20*
G04 #@! TO.C,D22*
X109165398Y-206409773D03*
D21*
X109165398Y-208444773D03*
D19*
X109165398Y-200824773D03*
D20*
X109165398Y-202859773D03*
G04 #@! TD*
G04 #@! TO.C,D21*
X109114593Y-187308972D03*
D21*
X109114593Y-189343972D03*
D19*
X109114593Y-181723972D03*
D20*
X109114593Y-183758972D03*
G04 #@! TD*
G04 #@! TO.C,D20*
X109216194Y-168309770D03*
D21*
X109216194Y-170344770D03*
D19*
X109216194Y-162724770D03*
D20*
X109216194Y-164759770D03*
G04 #@! TD*
D13*
G04 #@! TO.C,D19*
G36*
X249989148Y-173921719D02*
G01*
X249078090Y-174447719D01*
X248377090Y-173233551D01*
X249288148Y-172707551D01*
X249989148Y-173921719D01*
G37*
G36*
X251224455Y-175614333D02*
G01*
X249926283Y-176363833D01*
X249176783Y-175065661D01*
X250474955Y-174316161D01*
X251224455Y-175614333D01*
G37*
D19*
X246390619Y-168740883D03*
D13*
G36*
X248214148Y-170847329D02*
G01*
X247303090Y-171373329D01*
X246602090Y-170159161D01*
X247513148Y-169633161D01*
X248214148Y-170847329D01*
G37*
G04 #@! TD*
G04 #@! TO.C,D18*
G36*
X240593638Y-157495821D02*
G01*
X239682580Y-158021821D01*
X238981580Y-156807653D01*
X239892638Y-156281653D01*
X240593638Y-157495821D01*
G37*
G36*
X241828945Y-159188435D02*
G01*
X240530773Y-159937935D01*
X239781273Y-158639763D01*
X241079445Y-157890263D01*
X241828945Y-159188435D01*
G37*
D19*
X236995109Y-152314985D03*
D13*
G36*
X238818638Y-154421431D02*
G01*
X237907580Y-154947431D01*
X237206580Y-153733263D01*
X238117638Y-153207263D01*
X238818638Y-154421431D01*
G37*
G04 #@! TD*
G04 #@! TO.C,D17*
G36*
X231009454Y-141149525D02*
G01*
X230098396Y-141675525D01*
X229397396Y-140461357D01*
X230308454Y-139935357D01*
X231009454Y-141149525D01*
G37*
G36*
X232244761Y-142842139D02*
G01*
X230946589Y-143591639D01*
X230197089Y-142293467D01*
X231495261Y-141543967D01*
X232244761Y-142842139D01*
G37*
D19*
X227410925Y-135968689D03*
D13*
G36*
X229234454Y-138075135D02*
G01*
X228323396Y-138601135D01*
X227622396Y-137386967D01*
X228533454Y-136860967D01*
X229234454Y-138075135D01*
G37*
G04 #@! TD*
D20*
G04 #@! TO.C,D16*
X90089999Y-206562172D03*
D21*
X90089999Y-208597172D03*
D19*
X90089999Y-200977172D03*
D20*
X90089999Y-203012172D03*
G04 #@! TD*
G04 #@! TO.C,D15*
X90107849Y-187410571D03*
D21*
X90107849Y-189445571D03*
D19*
X90107849Y-181825571D03*
D20*
X90107849Y-183860571D03*
G04 #@! TD*
G04 #@! TO.C,D14*
X90013792Y-168792371D03*
D21*
X90013792Y-170827371D03*
D19*
X90013792Y-163207371D03*
D20*
X90013792Y-165242371D03*
G04 #@! TD*
D13*
G04 #@! TO.C,D13*
G36*
X233661445Y-183436511D02*
G01*
X232750387Y-183962511D01*
X232049387Y-182748343D01*
X232960445Y-182222343D01*
X233661445Y-183436511D01*
G37*
G36*
X234896752Y-185129125D02*
G01*
X233598580Y-185878625D01*
X232849080Y-184580453D01*
X234147252Y-183830953D01*
X234896752Y-185129125D01*
G37*
D19*
X230062916Y-178255675D03*
D13*
G36*
X231886445Y-180362121D02*
G01*
X230975387Y-180888121D01*
X230274387Y-179673953D01*
X231185445Y-179147953D01*
X231886445Y-180362121D01*
G37*
G04 #@! TD*
G04 #@! TO.C,D12*
G36*
X224035758Y-166967529D02*
G01*
X223124700Y-167493529D01*
X222423700Y-166279361D01*
X223334758Y-165753361D01*
X224035758Y-166967529D01*
G37*
G36*
X225271065Y-168660143D02*
G01*
X223972893Y-169409643D01*
X223223393Y-168111471D01*
X224521565Y-167361971D01*
X225271065Y-168660143D01*
G37*
D19*
X220437229Y-161786693D03*
D13*
G36*
X222260758Y-163893139D02*
G01*
X221349700Y-164419139D01*
X220648700Y-163204971D01*
X221559758Y-162678971D01*
X222260758Y-163893139D01*
G37*
G04 #@! TD*
G04 #@! TO.C,D11*
G36*
X214554752Y-150444347D02*
G01*
X213643694Y-150970347D01*
X212942694Y-149756179D01*
X213853752Y-149230179D01*
X214554752Y-150444347D01*
G37*
G36*
X215790059Y-152136961D02*
G01*
X214491887Y-152886461D01*
X213742387Y-151588289D01*
X215040559Y-150838789D01*
X215790059Y-152136961D01*
G37*
D19*
X210956223Y-145263511D03*
D13*
G36*
X212779752Y-147369957D02*
G01*
X211868694Y-147895957D01*
X211167694Y-146681789D01*
X212078752Y-146155789D01*
X212779752Y-147369957D01*
G37*
G04 #@! TD*
D20*
G04 #@! TO.C,D10*
X71166992Y-206638369D03*
D21*
X71166992Y-208673369D03*
D19*
X71166992Y-201053369D03*
D20*
X71166992Y-203088369D03*
G04 #@! TD*
G04 #@! TO.C,D9*
X71217794Y-187512171D03*
D21*
X71217794Y-189547171D03*
D19*
X71217794Y-181927171D03*
D20*
X71217794Y-183962171D03*
G04 #@! TD*
G04 #@! TO.C,D8*
X70811394Y-168233569D03*
D21*
X70811394Y-170268569D03*
D19*
X70811394Y-162648569D03*
D20*
X70811394Y-164683569D03*
G04 #@! TD*
D22*
G04 #@! TO.C,U1*
X34202445Y-162101645D03*
D23*
X34202445Y-164641645D03*
X34202445Y-167181645D03*
X34202445Y-169721645D03*
X34202445Y-172261645D03*
X34202445Y-174801645D03*
X34202445Y-177341645D03*
X34202445Y-179881645D03*
X34202445Y-182421645D03*
X34202445Y-184961645D03*
X34202445Y-187501645D03*
X34202445Y-190041645D03*
X49442445Y-190041645D03*
X49442445Y-187501645D03*
X49442445Y-184961645D03*
X49442445Y-182421645D03*
X49442445Y-179881645D03*
X49442445Y-177341645D03*
X49442445Y-174801645D03*
X49442445Y-172261645D03*
X49442445Y-169721645D03*
X49442445Y-167181645D03*
X49442445Y-164641645D03*
X49442445Y-162101645D03*
G04 #@! TD*
D24*
G04 #@! TO.C,J1*
X45716197Y-197395774D03*
X43176197Y-197395774D03*
X40636197Y-197395774D03*
D25*
X38096197Y-197395774D03*
G04 #@! TD*
D16*
G04 #@! TO.C,MX22*
X202191258Y-176840899D03*
X193392440Y-181920899D03*
D17*
X193222292Y-179086194D03*
D18*
X197791849Y-179380899D03*
D17*
X197451554Y-173711490D03*
G04 #@! TD*
D16*
G04 #@! TO.C,MX30*
X242041251Y-131880895D03*
X233242433Y-136960895D03*
D17*
X233072285Y-134126190D03*
D18*
X237641842Y-134420895D03*
D17*
X237301547Y-128751486D03*
G04 #@! TD*
D16*
G04 #@! TO.C,MX47*
X350755649Y-129111282D03*
X340941843Y-131740884D03*
D17*
X341511168Y-128958732D03*
D18*
X345848746Y-130426083D03*
D17*
X346987397Y-124861779D03*
G04 #@! TD*
D16*
G04 #@! TO.C,MX46*
X345818749Y-110726094D03*
X336004943Y-113355696D03*
D17*
X336574268Y-110573544D03*
D18*
X340911846Y-112040895D03*
D17*
X342050497Y-106476591D03*
G04 #@! TD*
D16*
G04 #@! TO.C,MX45*
X340918749Y-92376093D03*
X331104943Y-95005695D03*
D17*
X331674268Y-92223543D03*
D18*
X336011846Y-93690894D03*
D17*
X337150497Y-88126590D03*
G04 #@! TD*
D16*
G04 #@! TO.C,MX44*
X332418749Y-134016081D03*
X322604943Y-136645683D03*
D17*
X323174268Y-133863531D03*
D18*
X327511846Y-135330882D03*
D17*
X328650497Y-129766578D03*
G04 #@! TD*
D16*
G04 #@! TO.C,MX43*
X327478750Y-115646090D03*
X317664944Y-118275692D03*
D17*
X318234269Y-115493540D03*
D18*
X322571847Y-116960891D03*
D17*
X323710498Y-111396587D03*
G04 #@! TD*
D16*
G04 #@! TO.C,MX42*
X322568748Y-97276088D03*
X312754942Y-99905690D03*
D17*
X313324267Y-97123538D03*
D18*
X317661845Y-98590889D03*
D17*
X318800496Y-93026585D03*
G04 #@! TD*
D16*
G04 #@! TO.C,MX41*
X314058755Y-138916096D03*
X304244949Y-141545698D03*
D17*
X304814274Y-138763546D03*
D18*
X309151852Y-140230897D03*
D17*
X310290503Y-134666593D03*
G04 #@! TD*
D16*
G04 #@! TO.C,MX40*
X309158742Y-120566091D03*
X299344936Y-123195693D03*
D17*
X299914261Y-120413541D03*
D18*
X304251839Y-121880892D03*
D17*
X305390490Y-116316588D03*
G04 #@! TD*
D16*
G04 #@! TO.C,MX39*
X304208748Y-102206089D03*
X294394942Y-104835691D03*
D17*
X294964267Y-102053539D03*
D18*
X299301845Y-103520890D03*
D17*
X300440496Y-97956586D03*
G04 #@! TD*
D16*
G04 #@! TO.C,MX38*
X293961253Y-145790880D03*
X285162435Y-150870880D03*
D17*
X284992287Y-148036175D03*
D18*
X289561844Y-148330880D03*
D17*
X289221549Y-142661471D03*
G04 #@! TD*
D16*
G04 #@! TO.C,MX37*
X284461253Y-129310891D03*
X275662435Y-134390891D03*
D17*
X275492287Y-131556186D03*
D18*
X280061844Y-131850891D03*
D17*
X279721549Y-126181482D03*
G04 #@! TD*
D16*
G04 #@! TO.C,MX36*
X274931252Y-112880886D03*
X266132434Y-117960886D03*
D17*
X265962286Y-115126181D03*
D18*
X270531843Y-115420886D03*
D17*
X270191548Y-109751477D03*
G04 #@! TD*
D16*
G04 #@! TO.C,MX35*
X277521260Y-155300894D03*
X268722442Y-160380894D03*
D17*
X268552294Y-157546189D03*
D18*
X273121851Y-157840894D03*
D17*
X272781556Y-152171485D03*
G04 #@! TD*
D16*
G04 #@! TO.C,MX34*
X268011257Y-138850890D03*
X259212439Y-143930890D03*
D17*
X259042291Y-141096185D03*
D18*
X263611848Y-141390890D03*
D17*
X263271553Y-135721481D03*
G04 #@! TD*
D16*
G04 #@! TO.C,MX33*
X258511259Y-122370886D03*
X249712441Y-127450886D03*
D17*
X249542293Y-124616181D03*
D18*
X254111850Y-124910886D03*
D17*
X253771555Y-119241477D03*
G04 #@! TD*
D16*
G04 #@! TO.C,MX32*
X261051260Y-164820891D03*
X252252442Y-169900891D03*
D17*
X252082294Y-167066186D03*
D18*
X256651851Y-167360891D03*
D17*
X256311556Y-161691482D03*
G04 #@! TD*
D16*
G04 #@! TO.C,MX31*
X251541250Y-148350892D03*
X242742432Y-153430892D03*
D17*
X242572284Y-150596187D03*
D18*
X247141841Y-150890892D03*
D17*
X246801546Y-145221483D03*
G04 #@! TD*
D16*
G04 #@! TO.C,MX29*
X244631257Y-174310890D03*
X235832439Y-179390890D03*
D17*
X235662291Y-176556185D03*
D18*
X240231848Y-176850890D03*
D17*
X239891553Y-171181481D03*
G04 #@! TD*
D16*
G04 #@! TO.C,MX27*
X225601258Y-141390889D03*
X216802440Y-146470889D03*
D17*
X216632292Y-143636184D03*
D18*
X221201849Y-143930889D03*
D17*
X220861554Y-138261480D03*
G04 #@! TD*
D16*
G04 #@! TO.C,MX26*
X228131253Y-183800889D03*
X219332435Y-188880889D03*
D17*
X219162287Y-186046184D03*
D18*
X223731844Y-186340889D03*
D17*
X223391549Y-180671480D03*
G04 #@! TD*
D16*
G04 #@! TO.C,MX25*
X218651250Y-167340891D03*
X209852432Y-172420891D03*
D17*
X209682284Y-169586186D03*
D18*
X214251841Y-169880891D03*
D17*
X213911546Y-164211482D03*
G04 #@! TD*
D16*
G04 #@! TO.C,MX24*
X209141260Y-150900895D03*
X200342442Y-155980895D03*
D17*
X200172294Y-153146190D03*
D18*
X204741851Y-153440895D03*
D17*
X204401556Y-147771486D03*
G04 #@! TD*
D16*
G04 #@! TO.C,MX23*
X211661261Y-193300892D03*
X202862443Y-198380892D03*
D17*
X202692295Y-195546187D03*
D18*
X207261852Y-195840892D03*
D17*
X206921557Y-190171483D03*
G04 #@! TD*
D16*
G04 #@! TO.C,MX21*
X192671252Y-160370889D03*
X183872434Y-165450889D03*
D17*
X183702286Y-162616184D03*
D18*
X188271843Y-162910889D03*
D17*
X187931548Y-157241480D03*
G04 #@! TD*
D16*
G04 #@! TO.C,MX20*
X180671847Y-204550890D03*
X170511847Y-204550890D03*
D17*
X171781847Y-202010890D03*
D18*
X175591847Y-204550890D03*
D17*
X178131847Y-199470890D03*
G04 #@! TD*
D16*
G04 #@! TO.C,MX19*
X180681841Y-185550894D03*
X170521841Y-185550894D03*
D17*
X171791841Y-183010894D03*
D18*
X175601841Y-185550894D03*
D17*
X178141841Y-180470894D03*
G04 #@! TD*
D16*
G04 #@! TO.C,MX18*
X161681841Y-204540893D03*
X151521841Y-204540893D03*
D17*
X152791841Y-202000893D03*
D18*
X156601841Y-204540893D03*
D17*
X159141841Y-199460893D03*
G04 #@! TD*
D16*
G04 #@! TO.C,MX17*
X161681850Y-185570890D03*
X151521850Y-185570890D03*
D17*
X152791850Y-183030890D03*
D18*
X156601850Y-185570890D03*
D17*
X159141850Y-180490890D03*
G04 #@! TD*
D16*
G04 #@! TO.C,MX16*
X161671847Y-166570885D03*
X151511847Y-166570885D03*
D17*
X152781847Y-164030885D03*
D18*
X156591847Y-166570885D03*
D17*
X159131847Y-161490885D03*
G04 #@! TD*
D16*
G04 #@! TO.C,MX15*
X142681843Y-204580892D03*
X132521843Y-204580892D03*
D17*
X133791843Y-202040892D03*
D18*
X137601843Y-204580892D03*
D17*
X140141843Y-199500892D03*
G04 #@! TD*
D16*
G04 #@! TO.C,MX14*
X142681843Y-185560893D03*
X132521843Y-185560893D03*
D17*
X133791843Y-183020893D03*
D18*
X137601843Y-185560893D03*
D17*
X140141843Y-180480893D03*
G04 #@! TD*
D16*
G04 #@! TO.C,MX13*
X142671846Y-166540897D03*
X132511846Y-166540897D03*
D17*
X133781846Y-164000897D03*
D18*
X137591846Y-166540897D03*
D17*
X140131846Y-161460897D03*
G04 #@! TD*
D16*
G04 #@! TO.C,MX12*
X123691848Y-204570895D03*
X113531848Y-204570895D03*
D17*
X114801848Y-202030895D03*
D18*
X118611848Y-204570895D03*
D17*
X121151848Y-199490895D03*
G04 #@! TD*
D16*
G04 #@! TO.C,MX11*
X123691852Y-185560899D03*
X113531852Y-185560899D03*
D17*
X114801852Y-183020899D03*
D18*
X118611852Y-185560899D03*
D17*
X121151852Y-180480899D03*
G04 #@! TD*
D16*
G04 #@! TO.C,MX10*
X123671852Y-166560881D03*
X113511852Y-166560881D03*
D17*
X114781852Y-164020881D03*
D18*
X118591852Y-166560881D03*
D17*
X121131852Y-161480881D03*
G04 #@! TD*
D16*
G04 #@! TO.C,MX9*
X104741850Y-204590892D03*
X94581850Y-204590892D03*
D17*
X95851850Y-202050892D03*
D18*
X99661850Y-204590892D03*
D17*
X102201850Y-199510892D03*
G04 #@! TD*
D16*
G04 #@! TO.C,MX8*
X104731850Y-185600896D03*
X94571850Y-185600896D03*
D17*
X95841850Y-183060896D03*
D18*
X99651850Y-185600896D03*
D17*
X102191850Y-180520896D03*
G04 #@! TD*
D16*
G04 #@! TO.C,MX6*
X85721842Y-204590887D03*
X75561842Y-204590887D03*
D17*
X76831842Y-202050887D03*
D18*
X80641842Y-204590887D03*
D17*
X83181842Y-199510887D03*
G04 #@! TD*
D16*
G04 #@! TO.C,MX5*
X85721844Y-185550887D03*
X75561844Y-185550887D03*
D17*
X76831844Y-183010887D03*
D18*
X80641844Y-185550887D03*
D17*
X83181844Y-180470887D03*
G04 #@! TD*
D16*
G04 #@! TO.C,MX4*
X85721848Y-166550892D03*
X75561848Y-166550892D03*
D17*
X76831848Y-164010892D03*
D18*
X80641848Y-166550892D03*
D17*
X83181848Y-161470892D03*
G04 #@! TD*
D16*
G04 #@! TO.C,MX3*
X66691846Y-204580888D03*
X56531846Y-204580888D03*
D17*
X57801846Y-202040888D03*
D18*
X61611846Y-204580888D03*
D17*
X64151846Y-199500888D03*
G04 #@! TD*
D16*
G04 #@! TO.C,MX2*
X66701854Y-185580890D03*
X56541854Y-185580890D03*
D17*
X57811854Y-183040890D03*
D18*
X61621854Y-185580890D03*
D17*
X64161854Y-180500890D03*
G04 #@! TD*
D16*
G04 #@! TO.C,MX1*
X66701846Y-166560894D03*
X56541846Y-166560894D03*
D17*
X57811846Y-164020894D03*
D18*
X61621846Y-166560894D03*
D17*
X64161846Y-161480894D03*
G04 #@! TD*
M02*
